<svg xmlns="http://www.w3.org/2000/svg" version="1.1" id="SVGRoot" viewBox="0 0 16 16">
  <g id="layer1">
    <path d="M4.3633 13.1619c-.0377-.0074-.0896-.0379-.1153-.0677-.0267-.031-.249-1.0078-.5187-2.2782-.2595-1.2232-.4936-2.3212-.52-2.44L3.161 8.16h-.41c-.2254 0-.4333-.009-.4618-.02-.0794-.0304-.1773-.2497-.1773-.3968 0-.1425.0355-.2312.1376-.3432.065-.0714.0731-.072.98-.073l.9144-.0011L5.28 6.2078c.795-.7826 1.1635-1.1242 1.2278-1.1383.1816-.04.346.1406.281.3086-.0166.0429-.1576.2003-.3134.3499-.1558.1496-.5908.5708-.9667.936l-.6835.664 3.2914-.0013 3.2914-.0013-.9852-.9667c-.9858-.9674-1.02-1.0085-.963-1.1573.0243-.063.1763-.1454.2686-.1454.0456 0 .4222.348 1.1616 1.0732.6017.5903 1.107 1.1015 1.1229 1.136.0277.0603.0661.0628.9694.0628h.9406l.0763.0763c.1662.1662.173.4698.0152.6705-.0643.0817-.0745.0836-.5037.0923l-.4381.0089-.515 2.3916c-.2832 1.3153-.5316 2.428-.5519 2.4726-.0203.0446-.074.0952-.1194.1124-.0797.0304-7.3694.0393-7.523.0092zm7.0893-1.7189a.1994.1994 0 000-.294c-.0651-.059-.1718-.0613-3.2657-.0695-1.7592-.0046-3.2444.0034-3.3007.0179-.2055.0529-.2216.3385-.0222.3943.044.0123 1.5293.0201 3.3006.0173 3.1184-.0049 3.2228-.007 3.288-.066zm0-1.248c.037-.0335.0674-.0997.0674-.147 0-.0473-.0303-.1135-.0674-.147-.0651-.059-.1722-.0613-3.2927-.0694-2.0807-.0055-3.255.0028-3.309.0233-.1806.0686-.1715.3371.0131.3888.044.0123 1.5293.0201 3.3006.0173 3.1184-.0049 3.2228-.007 3.288-.066zm-.0038-1.2528c.0917-.0642.0935-.208.0038-.2892-.065-.059-.1722-.0613-3.256-.0702-1.7537-.0051-3.2355-.0009-3.2928.0094-.185.0333-.2465.2205-.1154.3516.0423.0423.4485.0482 3.3188.0482 2.9083 0 3.2784-.0055 3.3417-.0498z" id="path1487" fill="#760000" stroke-width=".032"/>
  </g>
</svg>
