<svg xmlns="http://www.w3.org/2000/svg" version="1.1" id="svg2135" viewBox="0 0 793.6 1200">
  <path d="M385.1677 10.3918c0 .2762.864.8034 1.92 1.1715 1.056.368 1.92.941 1.92 1.2732 0 .3322.7008.7798 1.5573.9948.8566.215 1.74.9662 1.9632 1.6693.2232.7032.8184 1.2786 1.3226 1.2786.5043 0 .9169.432.9169.96s.5143 1.4743 1.1429 2.1028c.6285.6286 1.1799 1.7086 1.2251 2.4.2095 3.198.787 6.7466 1.2093 7.43.2556.4135.5807 2.2178.7224 4.0095.1418 1.7918.2883 3.6177.3257 4.0577.0374.44.2743.8.5266.8.8203 0 1.1991 2.7354.5475 3.953-.4703.8788-.3971 1.2771.2826 1.538 1.0206.3916 1.107 3.4621.098 3.4783-.352.006-.2904.2325.1369.504.4273.2716.9313 1.5631 1.12 2.8702l.686 4.753c.1887 1.307.6927 2.5986 1.12 2.8701.4274.2716.5067.4982.1763.5036-.3303.006.0296.597.8 1.3147.7704.7177 1.4007 1.5481 1.4007 1.8453 0 .526 1.9014 1.3422 3.84 1.6485 5.455.862 7.2624.9334 8.0056.3167.5837-.4845.9675-.492 1.2563-.025.2606.4217.8193.4595 1.497.1012.5946-.3144 3.5291-.7384 6.5211-.9422 6.926-.4717 19.4845-1.5868 22.4-1.9887 1.9978-.2755 11.6777-.7627 25.6-1.2885 2.64-.0997 6.8063-.5236 9.2584-.9421 2.4521-.4185 5.4761-.5697 6.72-.336 1.2439.2337 3.9896.5252 6.1016.6476 2.112.1225 5.28.3117 7.04.4204 1.76.1087 3.5806.5576 4.0457.9976.4652.44 1.3842.8 2.0423.8.658 0 1.3745.288 1.592.64.2176.352.9546.64 1.6378.64.6832 0 1.2422.3006 1.2422.668 0 .3675.36.5958.8.5074 2.7587-.5544 7.52 3.8893 7.52 7.0184 0 .6981.4363 1.4367.9696 1.6414.924.3545 2.4303 3.1212 2.5251 4.6381.0245.3923.4537 1.2062.9538 1.8088.7861.9472.7848 1.1755-.01 1.6867-.7576.4875-.7689.688-.0642 1.1428.47.3033.838.7323.8175.9533-.0204.2209.1372.8561.3503 1.4114.2131.5554.0897 1.3075-.2742 1.6715-.4322.4321-.457 1.361-.0718 2.677.733 2.504.547 8.0954-.2692 8.0954-.3732 0-.3693.3057.0102.8.3378.44.563 1.8914.5005 3.2254s.0983 2.5564.3575 2.7166c.2592.1601.2706 1.2287.0254 2.3746-.6343 2.964-.1964 4.265 1.586 4.7124.8542.2144 1.5531.6265 1.5531.9157 0 .2893.8662.2776 1.9249-.026 1.0587-.3037 3.1467-.3935 4.64-.1996 3.7365.485 5.6132.4834 12.6351-.0113 3.344-.2356 10.688-.595 16.32-.7986 14.281-.5165 16.2563-.6321 16.5957-.9715.1639-.1639 5.2809-.202 11.3711-.0846 6.0903.1173 11.3612.2137 11.7132.2143.352.0006 1.504-.004 2.56-.011 1.056-.007 2.496-.009 3.2-.006.704.003 2.504-.1127 4-.2574 2.0023-.1937 2.72-.032 2.72.6121 0 .4815.288.8753.64.8753.352 0 .568-.36.48-.8-.1125-.5624.9803-.8226 3.68-.876 4.7266-.0937 9.158-.8087 9.6172-1.5517.189-.306.8138-.376 1.3883-.1555.6509.2497.8857.1439.6232-.281-.4881-.7897.933-1.4558 3.1059-1.4558.8304 0 1.6879-.288 1.9054-.64.7274-1.1768 7.7075-.7217 10.987.7164 1.7011.746 3.957 1.5872 5.013 1.8694 1.8344.4901 8.8187 2.7838 11.52 3.7832 3.8775 1.4345 8.7236 4.2583 10.451 6.0896 2.6967 2.859 3.7613 6.045 4.2844 12.8214.5507 7.1352.4611 9.2804-.4329 10.3575-.3845.4634-.4753.8425-.2017.8425 1.0432 0-2.0349 2.7765-4.0002 3.6084-3.1416 1.3297-4.756 1.0878-11.2055-1.6786-4.531-1.9435-7.0543-2.6234-10.6054-2.8577-2.563-.1692-4.9454-.484-5.2945-.6997-.349-.2158-1.5617-.5022-2.6949-.6366-9.1527-1.0855-13.1824-1.3385-19.0203-1.1942-19.1173.4728-29.5548.9509-34.2048 1.5667-2.8353.3755-10.1952.9257-16.3552 1.2227-6.16.297-13.936.9763-17.28 1.5095-5.235.8346-14.2297 1.7686-19.04 1.9771-.792.0343-1.44.2453-1.44.4687 0 .2234-1.584.6042-3.52.846-2.418.3022-3.52.726-3.52 1.3538 0 .5027-.2731.914-.607.914-.7869 0-3.5129 2.6644-3.6879 3.6046-.0742.3985-.2044 1.758-.2895 3.0212-.0851 1.2631-.5482 2.4476-1.0292 2.6322-.5478.2102-.7224.8151-.4674 1.6188.2519.7934.1167 1.2831-.3542 1.2831-.573 0-.5643.2377.0353.96.4382.528.5197.96.1812.96-.941 0-.1097 13.5113 1.1615 18.88.3334 1.408.7372 3.6747.8974 5.0371.1601 1.3624.5859 2.8323.9461 3.2663.3602.434.6439 1.4794.6304 2.323-.0135.8435-.0361 2.8296-.0502 4.4136-.0141 1.584-.0465 3.312-.072 3.84-.0255.528.1616 1.7106.4159 2.628.3251 1.173.1501 1.9802-.5897 2.72-.5786.5786-.7761 1.052-.439 1.052.535 0 .8903 1.1355 1.6053 5.1313.0956.5342.319 1.2542.4964 1.6.3168.6172.1808 7.0715-.202 9.5887-.384 2.5262-3.7158 8.5446-5.4513 9.8474-1.3343 1.0015-1.5656 1.4635-.9397 1.877.6647.4392.6328.7125-.16 1.3705-.5446.452-.9903 1.0952-.9903 1.4292 0 .334-.4062 1.0137-.9028 1.5102-.4966.4966-1.0006 1.124-1.12 1.3943-.3576.809-5.5284 4.6514-6.2597 4.6514-.3726 0-.6775.2818-.6775.6262s-1.296.5697-2.88.5008c-1.584-.0689-2.88-.382-2.88-.6955 0-.3136-.7647-.3783-1.6993-.1437-.9346.2345-1.8706.1502-2.08-.1876-.4892-.789-4.1822-1.5698-7.2607-1.5351-1.32.0149-2.4-.2051-2.4-.489 0-.4985-3.6567-1.1646-8.5065-1.5495-1.2897-.1023-2.7323-.5076-3.206-.9007-.4737-.3932-2.1361-.8323-3.6944-.9758-1.5582-.1436-4.2256-.7464-5.9276-1.3395-1.702-.593-3.718-1.1095-4.48-1.1477-.762-.038-1.6806-.2877-2.0412-.5547-1.334-.9874-6.5022-2.3882-10.3843-2.8146-2.2-.2416-4-.6314-4-.8662 0-.6249-14.1065-1.0133-20.3433-.5602-1.1569.084-2.345.5437-2.6401 1.0213-.3107.5026-1.0495.7058-1.7536.4823-1.3988-.444-5.983 2.9702-5.983 4.4558 0 .5177-.6239.9177-1.44.9232-1.1644.008-1.2563.1286-.48.6302.64.4136.6933.6237.16.6302-.4858.006-.8.8897-.8 2.2498 0 1.232-.2177 2.24-.4838 2.24-.8506 0-2.267 3.9492-2.5046 6.983-.4178 5.335-.4061 12.0245.0222 12.7175.2317.375.53 2.2471.663 4.1604.2452 3.5314 1.2345 6.2192 2.289 6.2192.7898 1.6148.5686.8404 2.3092 1.6188 1.3729.6234 13.0294.9351 14.025.375.352-.198.928-.3795 1.28-.4033.352-.0238 1.792-.3693 3.2-.7678 1.408-.3985 3.712-.8847 5.12-1.0806 4.5994-.6397 8.3528-1.409 9.0866-1.8626.97-.5995 10.1198-2.2842 13.3385-2.456 1.6254-.0867 3.5262.3623 5.12 1.2096 5.598 2.9758 11.1495 5.1735 14.055 5.5642 8.6218 1.1593 10.544 1.7755 12.5046 4.0085 1.6194 1.8444 3.7128 5.6341 3.1122 5.6341-.0842 0 .25.72.7429 1.6.4928.88.9458 2.032 1.0066 2.56.0608.528.3054 2.256.5435 3.84 1.225 8.1466 1.319 10.0788.5784 11.8842-.9314 2.2705-3.6724 4.7558-5.2451 4.7558-.631 0-1.4596.3124-1.8414.6943-1.2281 1.2281-7.3215.946-10.9163-.5055-1.845-.7449-4.581-1.5496-6.08-1.7883-1.499-.2386-4.1655-.8294-5.9255-1.3129-2.0662-.5676-4.9005-.7595-8-.5414-7.0426.4953-9.92.7524-9.92.8862 0 .0654-3.456.2328-7.68.3722-11.2418.3708-19.4235 1.6769-20.3518 3.2488-.2815.4767-1.2175.8666-2.08.8666s-1.5682.288-1.5682.64c0 .352-.729.64-1.62.64-.8911 0-1.786.432-1.9885.96-.2026.528-.7874.96-1.2994.96-.6997 0-.8452.54-.5856 2.1734.2211 1.3915.0418 2.4252-.4985 2.8737-.9384.7787-1.051 10.6747-.1384 12.1514.2832.4582.2229 1.1251-.134 1.482-.4157.4157-.4409 1.3738-.0702 2.6643.3184 1.1084.7392 3.7267.9351 5.8184.196 2.0917.5468 4.1077.7799 4.48.5576.8908.7562 2.0033.9782 5.4768.1012 1.584.54 3.528.9752 4.32.4352.792.5651 1.4445.2887 1.4498-.2764.005-.0965.2669.3998.581.5747.3639.8861 1.6373.8578 3.5082-.0244 1.6154.1456 3.0544.3778 3.1979.2321.1434.4109 2.0163.3971 4.162-.0146 2.2818.251 3.9052.64 3.911.3658.005.2681.2611-.217.5684-.5358.3393-.6771.8901-.36 1.4031.773 1.2508.9185 3.7053.2444 4.1219-.325.201-.129 1.0642.4383 1.9301.5646.8617.8073 1.5666.5395 1.5666-.268 0 .2644.6966 1.183 1.5478 2.1409 1.9841 7.766 3.6208 11.3812 3.3115 1.6694-.1429 3.0015.0566 3.2721.4899.6983 1.1179 1.0172 1.1283 25.6233.8355 4.84-.0576 8.8-.3542 8.8-.6593.0001-.305.5996-.3979 1.3323-.2063.7327.1916 2.5327-.0109 4-.45 1.4673-.4391 3.892-.7336 5.388-.6544 1.496.0792 2.72-.1167 2.72-.4353 0-.3187.72-.5794 1.6-.5794.88 0 1.6-.288 1.6-.64 0-.352.864-.64 1.92-.64s1.92-.288 1.92-.64c0-.352.3966-.64.8815-.64.485 0 1.239-.4305 1.6757-.9567.5574-.6716 2.059-.9586 5.0384-.963 2.3343-.003 5.8283-.0308 7.7643-.0608 4.473-.0692 9.0962.314 9.9212.8223.3513.2165 2.0068.5983 3.6788.8486 1.672.2502 3.04.677 3.04.9486 0 .2714 1.656.6985 3.68.949 2.024.2505 3.968.6764 4.32.9465.352.27 1.072.5238 1.6.5638 6.7016.508 7.4025.7986 9.2904 3.8523 1.0097 1.6332 1.7836 3.2605 1.7198 3.6163-.0638.3558.7448 1.028 1.7969 1.4937 1.0521.4657 1.913 1.2647 1.913 1.7756 0 .5109.4094 1.5667.9098 2.3464.5004.7796 1.0485 2.3358 1.218 3.4582.1694 1.1224.5383 2.4134.8198 2.8688 1.2608 2.04 1.5247 10.4267.3966 12.6034-.4487.8657-.8715 2.2474-.9396 3.0705-.0777.9387-.533 1.4965-1.2212 1.4965-.6035 0-1.2798.5754-1.503 1.2786-.2232.7031-1.1786 1.4675-2.1232 1.6985-.9445.231-1.8613.5917-2.0373.8015-1.5992 1.9063-13.1349 2.9226-15.058 1.3265-.4069-.3377-.908-.4458-1.1134-.2403-.2055.2055-1.9303-.0789-3.8328-.632-2.288-.665-4.0917-.8283-5.3275-.4821-1.0276.2878-3.1643.406-4.7483.2624-1.584-.1436-4.176-.2298-5.76-.1917-3.2963.0793-6.1618.0983-14.72.0974-3.344-.0004-12.992.003-21.44.006-8.448.004-18.096-.008-21.44-.0263-3.344-.0183-7.952.0555-10.24.164-5.102.242-9.0547-.1918-8.5906-.9427.1904-.308.0411-.56-.3316-.56-.3728 0-.6778.2577-.6778.5727 0 .742-5.1122 1.2376-5.5448.5376-.181-.2929-.6635-.2606-1.0722.0718-.4086.3324-2.327.5983-4.263.5909-6.7098-.0257-13.123.2845-13.7497.6651-.9516.5779-7.5954.6136-8.3565.0449-.3664-.2738-2.877-.5684-5.5792-.6546-3.3328-.1064-5.0161-.4257-5.2337-.9927-.1764-.4597-.6087-.8358-.9607-.8358s-.4673.4501-.2562 1.0003c.3222.8396-.0667.9504-2.42.6893-1.5422-.171-2.804-.3506-2.804-.3988 0-.0483-2.2638-.2056-5.0306-.3496-2.7668-.144-5.4052-.5726-5.863-.9525-.5963-.495-.9546-.4932-1.2633.006-.237.3834-.9268.5396-1.533.3472-.6063-.1924-2.3943-.1084-3.9735.1866-1.8623.3479-3.284.293-4.0461-.1562-.8754-.516-1.2492-.4889-1.4657.1063-.1761.484-.873.6528-1.768.4281-.8124-.2039-1.6725-.0547-1.9112.3316-.2387.3862-.7741.4907-1.1898.232-.921-.573-8.1131-.3072-14.1958.5249-2.464.337-5.92.767-7.68.9552-1.76.1884-5.648.7961-8.64 1.3506-6.4546 1.196-7.8749 1.3233-19.3849 1.7368-4.8536.1744-9.0817.4759-9.3957.67-.314.194-.7395.08-.9456-.2534-.2066-.3343-1.5894-.425-3.0842-.202-3.1028.4627-12.6568.3981-15.5096-.1048-1.056-.1862-4.8-.526-8.32-.7553-3.52-.2292-6.6736-.6723-7.008-.9847-.3344-.3123-1.5584-.5679-2.72-.5679-1.2587 0-2.6292-.5172-3.392-1.28-.704-.704-1.6926-1.28-2.1969-1.28-.5042 0-1.0769-.5042-1.2724-1.1204-.1956-.6163-1.1973-1.493-2.226-1.9484-1.1991-.5308-2.3582-1.8658-3.2297-3.7198-.8454-1.7984-2.0255-3.1791-3.121-3.6516-3.4197-1.4749-7.7917-4.612-7.7928-5.5918-.002-1.5827 1.3678-2.528 3.6628-2.528 1.1704 0 3.7768-.603 5.792-1.34 7.768-2.841 9.306-3.2071 9.8532-2.3452.342.5386.5145.563.521.0737.0198-1.4828 6.564-3.1415 17.2088-4.362 1.5394-.1764 3.1355-.6002 3.5469-.9416.4113-.3414 3.6158-.7895 7.121-.996 11.7327-.6908 15.2885-1.0775 23.0131-2.5028 2.464-.4546 5.6166-.8757 7.0057-.9358 3.9775-.172 6.531-.5688 7.8117-1.2138.6504-.3275 1.9026-.4 2.7826-.161.88.239 2.3136.176 3.1858-.14.8722-.3161 3.0322-.5979 4.8-.6262 1.7678-.0283 3.5022-.217 3.8542-.4191.352-.2022 2.7181-.4261 5.2581-.4976 2.54-.0715 4.987-.358 5.438-.6367.451-.2788 2.693-.5745 4.982-.6571 4.9557-.179 7.062-.5065 8.703-1.3534.6704-.346 2.249-1.0678 3.508-1.604 2.1535-.9172 2.2913-1.1535 2.3295-3.9968.0223-1.662.391-3.2386.8193-3.5033.4798-.2965.5369-.6308.1488-.8706-.3471-.2146-.5259-2.19-.398-4.4.1275-2.2059.3198-5.5403.4273-7.4099.1074-1.8695.4718-3.5975.8097-3.84.7348-.5272.7732-2.053.0796-3.1608-.3235-.5167-.1342-.8.5347-.8.5695 0 .8497-.3006.6226-.6681-.2271-.3675.025-1.3367.5604-2.1538.726-1.108.7889-1.6702.2472-2.2118-.5417-.5417-.5134-.7263.1111-.7263.5737 0 .711-.504.4359-1.6-.221-.88-.142-1.6.1755-1.6.3174 0 1.3624-1.6051 2.3222-3.567.9598-1.9618 2.153-3.7234 2.6515-3.9147.6949-.2666.7349-.5542.1715-1.233-.5546-.6683-.5459-1.1127.0353-1.813.4235-.5103.6854-1.7345.582-2.7204-.1034-.986-.0232-2.0805.1782-2.4323.2015-.3517.4058-1.8894.454-3.4169.0484-1.5275.2376-3.0196.4207-3.3157.183-.2962.0656-.7037-.261-.9055-.3266-.2018-.5043-1.1577-.3949-2.1242.1094-.9665-.094-2.1157-.4522-2.5539-.358-.438-.5001-1.3738-.3156-2.0793.1845-.7056.0616-1.452-.2732-1.659-.8495-.525-5.777-.5225-7.0157.003-.5635.2393-1.2835.3867-1.6.3275-.3165-.0592-.7195-.0537-.8955.0123-.466.1745-2.964.485-7.6138.9461-2.2516.2233-4.3797.5827-4.7292.7987-.3495.216-2.68.4952-5.179.6205-2.4988.1254-5.4107.498-6.4707.828-1.06.3302-3.5113.5932-5.4473.5846-3.172-.0141-6.72.3576-6.72.7041 0 .0735-.72.2278-1.6.3429-.88.115-2.896.3789-4.48.5863-1.584.2074-3.6.5446-4.48.7493-.88.2047-2.32.5317-3.2.7267-.88.195-5.4192.4512-10.0871.5694-7.8762.1995-8.5438.1243-9.274-1.045-.4327-.693-1.2398-1.26-1.7934-1.26-.5563 0-1.3998-1.002-1.8855-2.24-.4834-1.232-1.0412-2.249-1.2395-2.2601-.9673-.0543-3.9872-3.3533-4.23-4.6209-.1516-.7914-.766-1.799-1.3654-2.239-.5993-.44-.8331-.8-.5194-.8.3136 0 .2403-.33-.163-.7332-.4034-.4034-.6046-1.4834-.4472-2.4.2377-1.3843-.2547-2.1005-2.9056-4.2267-1.7554-1.408-3.1958-2.9057-3.2008-3.3282-.005-.4225-.4697-1.026-1.0326-1.341-.9168-.513-.8742-.8667.409-3.3918 2.6263-5.1685 6.8786-7.6635 9.1647-5.3773 1.6097 1.6096 9.7895 1.4118 15.1298-.366 3.16-1.0519 8.6214-1.9698 13.12-2.205 2.112-.1105 4.272-.356 4.8-.5457.528-.1897 2.688-.4847 4.8-.6555 2.112-.1708 4.846-.6163 6.0758-.99 1.2296-.3737 4.3086-.6795 6.8422-.6795 2.5335 0 4.7602-.2487 4.948-.5527.3156-.5106 3.2839-.8206 7.574-.791.968.007 1.76-.2642 1.76-.602 0-.3379.936-.6212 2.08-.6296 1.144-.008 3.232-.3264 4.64-.7067 1.408-.3803 3.208-.7334 4-.7847.792-.0513 1.44-.3093 1.44-.5733s.792-.4863 1.76-.494c.968-.008 2.9552-.5568 4.416-1.2201 2.0877-.948 2.7642-1.6639 3.1619-3.346.2782-1.177.441-2.3862.3615-2.6873-.0794-.301.189-.949.5965-1.44.5371-.6472.5432-.8926.022-.8926-.4839 0-.6831-1.7778-.6098-5.44.06-2.992.2762-5.44.4805-5.44.2042 0 .431-1.008.504-2.24.0728-1.232.1865-2.744.2524-3.36.066-.616-.0965-1.624-.361-2.24-.3523-.8203-.1849-1.12.6258-1.12.905 0 .9634-.1728.3201-.948-.4446-.5358-.68-2.0662-.5414-3.52.1349-1.4146-.0136-2.572-.33-2.572s-.1985-.454.262-1.0088c.5823-.7017.6262-1.14.1443-1.44-.8686-.5405-1.2615-2.7546-.6592-3.7135.2496-.3972.02-1.5916-.51-2.6541-.9488-1.9021-3.2177-3.009-4.8848-2.383-1.1028.4141-4.7521.9878-15.7319 2.4732-.7925.1072-1.6325.3864-1.8666.6205-.2341.2342-1.0257.4299-1.759.435-.7334.005-2.4906.4127-3.905.9057-1.4144.493-3.8624 1.0234-5.44 1.1785-1.5776.155-3.5884.5715-4.4684.9254-.88.3539-3.184.9878-5.12 1.4086-1.936.4209-4.748 1.0369-6.2491 1.3689-1.501.332-3.381.6036-4.1776.6036-.7967 0-2.0165.3925-2.7108.8721-.6944.4797-2.1265 1.0374-3.1825 1.2393-4.4243.8461-8.4183 2.1182-9.8643 3.142-.8493.6012-1.7932.9394-2.0975.7513-.4664-.2883-3.244.7686-7.5582 2.876-2.0967 1.0241-6.266.7506-9.9502-.6529-2.0954-.7982-4.1436-1.3854-4.5517-1.3048-.408.0806-1.3135-.5802-2.0121-1.4683-.6986-.888-1.4316-1.6147-1.629-1.6147-.1973 0-1.0339-.648-1.859-1.44-5.622-5.3962-9.3034-7.9012-10.8148-7.3592-.4747.1702-1.5831-.0617-2.4631-.5154-.88-.4538-2.0823-.9742-2.6717-1.1566-.5894-.1823-1.5607-1.3622-2.1584-2.6218l-1.0869-2.2904 2.1585-2.2215c1.1871-1.2218 2.6817-2.2246 3.3212-2.2283.6394-.004 2.1066-.7268 3.2604-1.6068 1.1537-.88 2.6849-1.6 3.4026-1.6.7667 0 1.443-.528 1.6397-1.28.1841-.704.8657-1.2835 1.5146-1.2877.649-.004 2.3636-.6846 3.8103-1.512 1.4466-.8273 3.6996-1.7048 5.0066-1.95 1.307-.2452 3.2913-1.0037 4.4096-1.6857 1.1184-.6819 2.6094-1.247 3.3134-1.2557.704-.009 3.1593-.6794 5.4563-1.4903 2.2969-.811 4.5289-1.3569 4.96-1.2132.431.1437.7837-.0701.7837-.4752 0-.4452.5063-.5758 1.28-.3302.784.2488 1.28.115 1.28-.3454 0-.4311.444-.5812 1.0412-.352.5726.2197 1.4366.0713 1.92-.33.4834-.401.8789-.5147.8789-.2525 0 .2622.4106.136.9125-.2806.5019-.4165 1.2939-.6944 1.76-.6174.4661.0769 1.2795-.007 1.8075-.1858 2.8643-.9716 10.2589-2.6423 12.479-2.8195 1.4074-.1123 3.7114-.626 5.12-1.1417 1.4085-.5155 3.569-1.1557 4.801-1.4225 1.232-.2669 2.528-.569 2.88-.6712.7764-.2256 10.367-2.1402 12.165-2.4285.7066-.1133 2.3794-.6634 3.7171-1.2223 1.3378-.559 3.862-1.206 5.6095-1.4377 1.7474-.2318 3.3317-.6715 3.5205-.9772.1889-.3056.8784-.5556 1.5323-.5556.654 0 1.2959-.3209 1.4266-.7131.1308-.3922.9844-.7951 1.897-.8953 3.4977-.384 7.1323-4.0978 6.7023-6.8484-.1258-.8047.1497-2.5432.6121-3.8632.4624-1.32.5866-2.4.2758-2.4s-.4557-.864-.322-1.92c.1336-1.056-.0313-1.92-.3666-1.92s-.6096-.8312-.6096-1.847c0-1.4717-.4425-2.0571-2.1767-2.88-2.4886-1.181-3.5833-1.3058-3.5833-.4088 0 .4043-.5824.4027-1.6537-.004-.9096-.3458-1.9675-.4349-2.351-.1979-.8.4945-2.8608.688-8.9451.84-2.3704.0591-4.4873.3947-4.7042.7456-.2169.351-1.3015.557-2.4102.4579-5.8796-.5257-14.9748.8987-23.1358 3.6232-4.576 1.5277-9.184 3.1308-10.24 3.5624-1.056.4317-2.496.8873-3.2 1.0126-.704.1253-2 .4957-2.88.8231-.88.3275-2.896.782-4.48 1.01-7.5653 1.0891-21.1625 4.1964-23.6239 5.3987-1.3642.6664-6.883 2.5655-9.6561 3.3228-1.232.3365-2.672.7587-3.2.9382s-.96.2591-.96.177c0-.0823-.6372.1915-1.416.6083-.779.4169-2.219.8837-3.2 1.0375-5.474.858-10.4075 2.3664-13.7753 4.212-1.4247.7807-3.0487.7834-3.0487.005 0-.3322-.9282.2438-2.0626 1.28-1.1345 1.0361-2.5745 1.884-3.2 1.884-.6256 0-1.1374.233-1.1374.518 0 .285-1.656.8198-3.68 1.1884-2.024.3685-5.696 1.439-8.16 2.3789-2.464.9398-5.2 1.6555-6.08 1.5905-1.4212-.105-3.401.5047-6.4 1.9713-.528.2582-2.4723.3992-4.3206.3133-1.8484-.086-3.4876.0492-3.6427.3001-.1551.251-1.6572.5275-3.338.6145-1.6807.087-3.413.4545-3.8493.8167-.4363.3621-1.094.4726-1.4614.2455-.3674-.227-1.006-.204-1.419.0513-.7723.4774-2.72.7832-7.3337 1.1516-1.4545.1161-2.9166.3793-3.249.5847-1.4165.8754-11.0786-.3816-15.3365-1.9952-1.6994-.644-3.5218-1.1458-4.0498-1.115-1.134.066-2.0728-.7485-3.1214-2.7079-.42-.7847-1.3517-1.4267-2.0704-1.4267-.7187 0-2.0765-.8375-3.0174-1.861-4.5255-4.9227-5.2308-5.7824-5.2308-6.375 0-.3508-.5762-.8207-1.2805-1.0442-.7041-.2235-2.0721-1.4669-3.04-2.7631-.9677-1.2962-2.1055-2.7233-2.5283-3.1713-1.2133-1.2854-.3855-5.2586 1.4499-6.9596.9267-.8588 2.4194-1.5058 3.4741-1.5058 1.017 0 2.0194-.2755 2.2275-.612.208-.3367.7549-.4676 1.2152-.291.4604.1767 1.2041-.1211 1.6528-.6617.523-.6301 1.3638-.8454 2.3425-.5998.8398.2108 1.5268.1295 1.5268-.1806 0-.7855 3.8886-2.7564 5.44-2.7574 2.7308-.002 3.8837-.236 5.0335-1.0235.6564-.4496 1.5924-.6644 2.08-.4773.4876.1871.8865.0214.8865-.3683 0-.3896.991-.7084 2.2022-.7084 1.2112 0 2.3393-.2219 2.5069-.493.1675-.271 1.6172-.4487 3.2214-.3947 1.7974.0605 3.1965-.2389 3.6457-.78.4008-.483.9968-.7126 1.3243-.5102.3276.2024.9784.0503 1.4464-.338.468-.3885 1.323-.525 1.9001-.3036.5771.2215 1.4473.0723 1.9338-.3314.4864-.4037 1.1308-.67 1.4318-.5918.301.0782 2.2268-.2508 4.2795-.731 3.2062-.7503 3.8135-.7446 4.3102.0402.318.5024.5825.5914.5879.1978.005-.3937 1.2276-.8791 2.716-1.0787 1.4885-.1997 2.8085-.6696 2.9334-1.0443.3057-.9172 2.2411-.8646 3.1924.0867.5973.5973.768.5973.768 0 0-.4224.5184-.768 1.152-.768.6336 0 1.477-.325 1.8744-.7224.3973-.3973 2.1109-.8317 3.808-.9652 1.697-.1335 3.8056-.5048 4.6856-.825 1.6484-.5997 7.6763-1.4616 9.8905-1.4141.6878.0147 1.576-.2434 1.974-.5736.3978-.3302 1.7071-.737 2.9094-.9038 1.2024-.1669 3.1922-.6032 4.4219-.9697 1.2296-.3664 3.1256-.6662 4.2133-.6662 1.0877 0 2.1934-.2158 2.4571-.4796.4921-.492 5.6909-1.906 8.8847-2.4164.985-.1574 3.3212-.731 5.1916-1.2748 4.4438-1.2919 5.8722-1.5812 9.3375-1.8911 3.5015-.3132 12.0199-2.2565 24-5.4752 5.763-1.5483 9.5428-2.3444 13.76-2.898 1.584-.208 3.744-.6345 4.8-.9477 1.056-.3132 4.8-1.0363 8.32-1.6069 7.9714-1.2921 7.5538-1.2073 8.328-1.6922.7489-.469 10.2951-2.9594 14.072-3.671 1.408-.2654 3.6706-.9586 5.028-1.5405 1.3574-.582 2.7055-.9113 2.9958-.732.2902.1795.7086.0336.9297-.3242.2211-.3577 1.185-.6504 2.1419-.6504.9569 0 2.3079-.398 3.0022-.8842.6943-.4864 1.4718-.9436 1.7277-1.0161.256-.0725 1.048-.2842 1.76-.4704.712-.1862 1.2947-.5301 1.2947-.7642 0-.2341 1.275-.8021 2.8333-1.2623 2.849-.8411 3.5648-1.6599 3.9385-4.5048.1114-.848.5774-1.806 1.0354-2.1287.6569-.4628.6638-.6553.0328-.9114-.44-.1785-.8-1.0206-.8-1.8712 0-.8507-.2625-1.5467-.5834-1.5467-.3208 0-.5094-.5036-.419-1.119.0902-.6156-.2271-2.0556-.7053-3.2-.4782-1.1446-.6864-2.081-.4625-2.081.2238 0 .1394-.36-.1875-.8-.327-.44-.565-1.5837-.5289-2.5416.036-.958-.3077-1.8849-.764-2.06-.4561-.175-.8294-.7593-.8294-1.2983 0-1.1912.7737-1.0743-9.28-1.4017-11.9473-.3892-16.448-.2688-17.3302.4633-.4263.3538-1.0214.5874-1.3224.5191-.301-.0682-.9794.0255-1.5074.2084-.528.1828-2.544.8472-4.48 1.4764-1.936.6292-3.808 1.3636-4.16 1.632-.352.2683-1.792.6941-3.2.9462-1.408.252-2.992.8188-3.52 1.2593-.976.8143-2.6692 1.232-8.96 2.21-3.7738.5866-4.8019.8374-6.5681 1.6018-.6588.2851-1.5243.1596-2.08-.3017-.7713-.64-.9519-.6059-.9519.1805 0 .9935-9.0822 5.8143-12.2165 6.4845-1.1641.249-2.4955-.1893-4.48-1.4747-3.1137-2.0168-8.2577-6.7005-8.2737-7.5335-.006-.2915-.9066-1.538-2.0021-2.77-2.9517-3.3193-6.9477-8.8123-6.9477-9.5503 0-1.7503-2.2051-6.8023-3.4219-7.8397l-1.3781-1.1748 1.92-1.5944c1.056-.877 2.4341-1.5959 3.0625-1.5976.6284-.002 1.7804-.4117 2.56-.911 2.0266-1.2978 3.687-1.4268 5.9985-.4659 2.0356.8461 5.1871.5613 12.059-1.0899 4.7026-1.13 14.6021-4.3342 19.2-6.2146 3.4132-1.396 10.791-3.371 14.24-3.8122 1.848-.2363 3.36-.6653 3.36-.9533 0-.288.792-.434 1.76-.3244.968.1096 2.1074-.0846 2.532-.4315.4245-.3468 1.0005-.493 1.28-.3248.2794.1682 2.38-.0933 4.668-.581 2.288-.4876 5.0217-1.0489 6.075-1.247 1.0532-.1983 2.1509-.7821 2.4393-1.2975.2884-.5154.7799-.7791 1.0922-.586.7.4325 6.3935-.949 6.3935-1.5515 0-.2395.9928-.7944 2.2061-1.2332 1.2134-.4388 2.3848-1.3607 2.6032-2.0486.2183-.688.632-1.2508.9192-1.2508 1.0128 0 1.6338-2.709 2.1857-9.5352.2106-2.6044.5295-4.8819.7088-5.061.1792-.1794.082-.6405-.2161-1.025-.8233-1.0615-1.2971-3.4927-.7227-3.7082.2796-.1048.2163-1.7746-.1405-3.7106s-.7501-4.384-.874-5.44c-.124-1.056-.5385-3.072-.9214-4.48-.383-1.408-.753-2.992-.8223-3.52-.0693-.528-.3136-1.104-.543-1.28-.2292-.176-.5747-1.3231-.7676-2.5493-.193-1.226-.6371-2.3246-.9871-2.4413-.35-.1167-.4877-.5995-.306-1.073.1862-.4853-.2151-1.0339-.92-1.2576-1.6922-.5371-4.038-2.6298-3.524-3.1438.2283-.2283-.065-.415-.6516-.415-1.0126 0-1.3845-1.0944-1.0816-3.183.1179-.8132 1.565-2.3324 4.2422-4.4538.389-.3082 1.7807-.51 3.0927-.4483 1.312.0614 2.519-.1038 2.6821-.3678.1632-.2641 1.9395-.299 3.9473-.0776 4.3287.477 4.5261.478 12.1306.0525 3.256-.1822 5.92-.1054 5.92.1708zm83.52 78.0982c-5.984.4025-12.896 1.1085-15.36 1.569-6.4695 1.209-20.7936 5.0698-23.04 6.21-1.056.536-2.2799.8461-2.7197.6891-.4398-.157-.9676.1524-1.173.6874-.2053.535-.7665.822-1.2472.6375-.4806-.1845-1.4964.2446-2.2572.9534-.7608.7088-1.823 1.12-2.3604.9138-.635-.2437-.8765-.073-.6898.487.158.474-.253 1.4022-.9132 2.0625-.6603.6602-1.1395 1.8302-1.0648 2.6.0746.7697-.0834 1.9071-.3511 2.5276-.2678.6205-.2007 1.4845.149 1.92.5647.7034 1.3221 4.2102 1.4841 6.8719.1166 1.9153 1.3376 5.12 1.9507 5.12.3455 0 .4708.2545.2785.5657-.4795.7758 2.6113 1.8313 5.7141 1.9513 1.408.0545 2.656.3744 2.7733.711.1174.3366.4944.612.8378.612s.4465-.288.2289-.64c-.2175-.352.2695-.6854 1.0822-.7408.8128-.0554 2.6298-.1982 4.0378-.3173 1.408-.1191 3.28-.2432 4.16-.2757.88-.0326 1.9078-.3137 2.284-.6248.6382-.5278 1.8738-.7286 10.196-1.6574 1.76-.1965 3.3616-.6162 3.5591-.9327.1975-.3166 1.4935-.654 2.88-.7496 1.3865-.0957 2.8809-.3998 3.3209-.6757.44-.2758 1.0414-.3524 1.3364-.17.8035.4966 9.2551-.9258 10.2324-1.722.6217-.5067.9938-.457 1.3912.186.4412.7139.7254.7258 1.5232.0637.5394-.4477 1.2581-.6425 1.5972-.433.339.2096 1.051-.0536 1.5823-.5849.5312-.5312 1.2567-.9659 1.612-.9659 1.2676 0 4.7275-3.6998 4.2231-4.5158-.2936-.4751-.043-1.1276.6187-1.6115.6254-.4573 1.266-2.0249 1.4642-3.5829.1937-1.5234.626-3.1172.9608-3.5417.3348-.4246.4338-1.055.2201-1.4007-.2137-.3458.1215-.9256.745-1.2886.6233-.363.7734-.6686.3334-.6793-1.1984-.0291-.9654-1.2995.2384-1.2995.7802 0 .8664-.2071.3467-.8333-.3803-.4583-.5295-1.4529-.3315-2.2102.759-2.9025-1.755-6.026-5.0003-6.212-.2346-.0134-.6666-.2653-.96-.5597-.2933-.2944-1.5413-.3801-2.7733-.1905-1.232.1895-7.136.674-13.12 1.0765zm3.202 66.527c-.8512.9406-1.3731 1.0977-1.9782.5955-.5826-.4835-1.2013-.4791-2.1245.015-.7164.3834-3.6868.8628-6.601 1.0653-2.914.2025-5.5719.6288-5.9063.9473-.3344.3185-1.5222.5791-2.6395.5791-1.1174 0-3.1937.41-4.6142.9112-1.4204.5012-2.7456.7481-2.945.5488-.1993-.1993-.7426-.0468-1.2073.3389-.4648.3857-1.4077.711-2.0955.7228-3.1001.0534-3.9778.3271-6.5626 2.047-1.5136 1.0073-2.9536 1.8431-3.2 1.8576-.2463.0145-1.6835 1.1438-3.1937 2.5098-2.5018 2.263-2.776 2.815-3.0857 6.2138-.187 2.0516-.593 3.8213-.9022 3.9328-.316.114-.296.9026.0457 1.8016.8503 2.2364.7642 2.7957-.4304 2.7957-.886 0-.9116.1527-.1752 1.04.4747.572.7797 1.8354.6777 2.8075-.2515 2.3978 2.6407 4.4725 6.2347 4.4725 1.4417 0 2.6212.246 2.6212.5469 0 1.1389 22.0927 3.0282 22.7612 1.9464.1949-.3153 1.0574-.5733 1.9166-.5733.8592 0 1.5622-.252 1.5622-.56 0-.308.8714-.7343 1.9364-.9473 1.065-.213 2.6046-1.041 3.4213-1.84.8168-.799 2.5374-2.002 3.8237-2.6735 1.2862-.6714 2.3386-1.5948 2.3386-2.0518 0-.4571.8565-2.2838 1.9034-4.0592 1.0469-1.7755 1.7463-3.2282 1.5543-3.2282-.192 0 .0778-.427.5996-.9488s.7968-1.5298.611-2.24c-.1897-.7256-.0245-1.2912.377-1.2912.3931 0 .7147-.3653.7147-.8118 0-.4464.7712-1.2797 1.7137-1.8516.9425-.5719 1.802-1.7186 1.91-2.5482.1079-.8296.3476-2.6604.5327-4.0684.1851-1.408.4057-3.6954.49-5.083l.1536-2.5232-3.52-.7485c-5.0742-1.0791-5.4398-1.06-6.718.3524zm34.238 290.5408c2.992.6276 6.2395 1.4609 7.2167 1.8518.9772.3908 2.4172.8472 3.2 1.0142.7828.167 3.1513.7611 5.2633 1.3204 2.112.5592 4.416 1.1137 5.12 1.2321 2.744.4615 6.72 1.8722 6.72 2.3842 0 .2963.4768.5387 1.0596.5387 1.0328 0 5.1733 2.779 6.1478 4.1261.268.3706.8063 1.8979 1.196 3.3939.3897 1.496.9794 2.72 1.3103 2.72.331 0 .4239.288.2063.64-.2175.352-.1938.9664.0528 1.3654.2466.399.5335 1.623.6376 2.72.104 1.097.3663 3.2906.583 4.8746.5923 4.3328.4143 13.6409-.6182 32.32-.4707 8.5143-.6161 10.0523-1.9968 21.12-.5269 4.224-1.0596 8.923-1.1837 10.4422-.1242 1.5192-.379 2.9153-.5662 3.1025-.1872.1872-.1965.7151-.0209 1.1731.1758.458-.002 1.0315-.3951 1.2744-.5195.321-.523.6728-.0126 1.2878.3862.4653.4545.999.1518 1.1861-.3026.187-.4555 1.2927-.3397 2.457.1159 1.1643.3027 3.2925.4151 4.7294.1124 1.437.3971 2.9244.6326 3.3054.2355.381.1797.7893-.1239.9074-.7656.2977-1.3507 6.2347-.6567 6.6637.3103.1918.3475.8352.0825 1.4298-.265.5947-.4817 1.9452-.4817 3.0012 0 1.056-.21 2.0773-.4666 2.2695-.4052.3035-1.2217 6.4964-1.1564 8.7705.0445 1.551.0493 2.7351.0167 4.16-.0513 2.243.5697 12.0355.9437 14.88.4538 3.4516.4315 5.4184-.0707 6.231-.23.3722-.474 1.9576-.5423 3.5232-.0682 1.5655-.3852 3.0353-.7042 3.2661-.3191.2308-.6542 1.098-.7446 1.9271-.2346 2.1513-2.4791 5.0583-4.846 6.2763-1.1163.5745-3.1515 2.0016-4.5227 3.1715-1.3712 1.1698-3.5233 2.467-4.7823 2.8825-1.259.4155-2.6783 1.1445-3.1538 1.62-.632.6322-2.1852.7861-5.7776.5728-5.837-.3466-7.3648-.5486-7.7932-1.0305-.9954-1.1197-12.9678-3.6837-19.52-4.1803-1.408-.1067-6.592-.6087-11.52-1.1154-11.0484-1.1362-26.8462-.891-34.24.5311-3.8.731-9.8206 1.0996-19.9707 1.2228-8.5307.1037-14.8732.4436-15.36.8234-.4561.3557-2.7013.9975-4.9893 1.4261-2.288.4287-5.3548 1.0446-6.8152 1.3687-5.1122 1.1348-34.8757 2.2442-52.3848 1.9527-2.112-.035-6.576.087-9.92.2706-3.344.184-10.4046.4122-15.6902.5071-5.2857.095-10.0377.4472-10.56.783-1.1833.7602-8.309.811-8.3095.059-.0001-.3033-.9503-.373-2.1114-.1553-1.4.2627-2.5317.078-3.36-.5484-.6869-.5195-1.7805-.9536-2.4301-.9648-1.5987-.028-4.7483-1.879-6.839-4.0204-.945-.968-2.0712-1.76-2.5024-1.76s-.665-.357-.5196-.7935c.284-.8519-2.1195-3.0465-3.3365-3.0465-.4053 0-.5585-.2885-.3405-.6412.218-.3526-.3584-.928-1.2808-1.2788-.9223-.3506-1.5076-.9117-1.3006-1.2467.207-.335-.2214-.929-.9522-1.32-.9232-.4942-1.2085-1.09-.9348-1.9522.2702-.8516.0926-1.241-.5661-1.241-.528 0-1.1428-.576-1.3663-1.28-.2234-.704-.6658-1.28-.983-1.28-.3173 0-.4222-.4029-.2333-.8953.189-.4924.0312-1.0883-.3505-1.3243-.3817-.2359-.5525-.6579-.3795-.9379.173-.2799-.3983-1.9866-1.2696-3.7926-.8712-1.806-1.584-3.4566-1.584-3.668 0-.2114-.5957-1.2208-1.3237-2.2432-.728-1.0223-1.1247-1.8588-.8816-1.8588.243 0 .0865-.4283-.348-.9518s-.6186-1.3986-.409-1.9446c.2478-.646-.1007-1.1708-.9979-1.5027-.9298-.344-1.1313-.663-.6189-.9797.418-.2583.6262-.6859.4629-.9502-.7172-1.1604-.8983-4.1925-.3154-5.2815.3953-.7386.4048-1.1895.025-1.1895-1.5009 0 1.1213-17.199 2.9031-19.0416.4264-.441 1.4054-2.169 2.1755-3.84.7702-1.6711 1.6276-3.4962 1.9054-4.0557.2777-.5595.2478-1.4235-.0665-1.92-.8027-1.268-.7395-1.6228.5115-2.8738 1.066-1.066 1.5092-3.2629 1.6037-7.9489.0248-1.232.3436-2.434.7083-2.6712.449-.292.424-.7193-.0775-1.3236-.5677-.6841-.5223-1.204.1945-2.2274.583-.8324.84-2.322.6825-3.9564-.1388-1.4418.0183-2.6214.3493-2.6214.3525 0 .3776-.4637.0605-1.12-.4632-.9584-.5686-4.96-.1307-4.96.1492 0 .3312-.9466.8304-4.32.1433-.968-.005-1.76-.3293-1.76-.3244 0-.4411-.2405-.2595-.5344.4193-.6784-3.2816-10.328-4.478-11.676-.4932-.5557-.8967-1.4917-.8967-2.08s-.576-1.6456-1.28-2.3496c-.704-.704-1.2139-1.496-1.133-1.76.2906-.9486-1.9578-5.6251-3.2785-6.8192-.7417-.6705-1.3485-1.8844-1.3485-2.6975 0-.8435-.5732-1.785-1.3348-2.1926-.7342-.393-1.168-.8812-.9641-1.0851.2039-.204-.2228-.7865-.9482-1.2946-.7586-.5313-1.1638-1.328-.9538-1.8752.2007-.5232.1617-1.2802-.0867-1.6823-1.2964-2.0976-.4528-3.6073 4.2784-7.6568.7347-.6289 1.1644-1.4209.9548-1.76-.211-.3413.4456-.6167 1.47-.6167 1.018 0 2.0514-.2003 2.2962-.4452.2449-.2449.7969-.5184 1.2267-.6079.4298-.0895 1.9335-.5965 3.3415-1.1267s3.0697-.9767 3.6927-.9921c.623-.0154 2.2733-.7481 3.6673-1.6281 1.394-.88 3.0923-1.6 3.774-1.6.6816 0 1.3353-.2818 1.4526-.6263.2355-.6913 8.2134-1.2296 8.2134-.5542 0 .232 1.656.3525 3.68.268 2.024-.0845 5.4618.0273 7.6397.2484 2.1778.2212 4.5538.1824 5.28-.0863.7261-.2686 1.3203-.281 1.3203-.0275s1.224.4946 2.72.5357c1.496.0412 3.253.2985 3.9046.5718.7454.3127 1.3714.1946 1.6884-.3184.2771-.4484.8087-.6268 1.1812-.3966.7845.4849 12.0718 1.006 12.5007.5772.2903-.2904 8.6782-.9304 13.685-1.0443 1.496-.034 2.72-.2337 2.72-.4438 0-.2101 1.6308-.3173 3.6238-.2381 1.993.079 4.301-.1136 5.1285-.4283.8276-.3147 3.301-.8875 5.4963-1.273 2.1953-.3855 4.5675-.8068 5.2715-.9362.704-.1294 3.728-.6872 6.72-1.2395 2.992-.5523 6.736-1.171 8.32-1.3748 1.584-.2039 3.6-.4964 4.48-.6501.88-.1537 3.472-.4124 5.76-.5748 2.288-.1625 5.6-.5739 7.36-.9142 10.1455-1.9621 19.0334-3.082 28.0391-3.5331 3.4536-.173 6.5789-.4997 6.9451-.726.844-.5217 4.5474-.821 14.6158-1.1812 9.8789-.3534 17.8803-.897 19.179-1.3031 1.8525-.5792 22.1234-2.4229 26.581-2.4175.704.0006 2.7002-.3935 4.4361-.8762 1.736-.4827 3.32-.8512 3.52-.8189.2001.0323 2.8119.5723 5.8039 1.2zm-14.08 36.5584c-8.1267 1.8094-13.8678 2.4892-21.12 2.5004-13.6387.0212-36.0015.5913-39.36 1.0034-1.76.2159-4.378.78-5.8177 1.2536-3.099 1.0192-7.2369 1.1992-15.9423.6932-6.476-.3763-17.3433.768-22.08 2.3249-1.232.405-2.821.7762-3.531.825-.71.0489-2.15.307-3.2.5735-1.05.2665-2.773.5936-3.829.7268-1.9897.251-2.4056.3173-9.2141 1.4689-2.2518.3808-4.3042.5626-4.561.404-.2568-.1588-2.0145.19-3.906.775-1.8914.585-3.8278.9928-4.3031.9061-.5394-.0983-.6803.1401-.375.6341.3456.5592.1616.6659-.6267.3634-1.3802-.5296-6.2237.1879-5.808.8604.3452.5586-3.895 1.5562-5.6443 1.328-.637-.0831-1.5454.1703-2.0187.5631-.4777.3964-1.6.5287-2.5219.2974-1.0399-.261-1.6612-.1517-1.6612.2924 0 .3902-.576.7094-1.28.7094-.704 0-1.28.288-1.28.64 0 .352-.729.64-1.62.64-.8911 0-1.7806.418-1.9767.929-.196.511-1.411 1.261-2.6999 1.667-1.2889.4058-3.4172 1.4277-4.7297 2.2709-1.3124.8432-2.6804 1.533-3.04 1.533-.3595 0-.7077 1.224-.7738 2.72-.066 1.496-.1604 3.728-.2096 4.96-.0493 1.232-.3062 3.176-.5708 4.32-.3502 1.5137-.2582 2.08.3377 2.08.5651 0 .6133.2056.1554.6635-.3653.3653-.4947 1.6868-.288 2.9405.3226 1.9568.7354 2.4022 2.9354 3.168 3.1713 1.1036 4.7436 1.1479 9.5503.2689 2.0846-.3812 4.1726-.5464 4.64-.367.4673.1793.8497.0775.8497-.2262s.648-.5717 1.44-.5955c2.0125-.0605 6.371-.7476 7.52-1.1855.528-.2012 2.1197-.4522 3.5372-.5578 1.4174-.1056 3.4334-.383 4.48-.6163 1.0465-.2334 4.1545-.677 6.9066-.9856 2.752-.3086 6.064-.8338 7.36-1.167 1.2959-.3332 3.7962-.7856 5.5562-1.0053 1.76-.2198 5.072-.6953 7.36-1.0567 2.288-.3615 6.608-.8913 9.6-1.1774 2.992-.286 7.6-.8255 10.24-1.1987 2.64-.3732 6.384-.8127 8.32-.9766 1.936-.1638 5.5549-.739 8.042-1.278 4.5622-.9887 9.0258-.8754 10.159.2579.3383.3382 1.102.6149 1.6971.6149.5952 0 2.3248.5564 3.8437 1.2364 1.5189.68 2.9923 1.0938 3.2742.9195.282-.1743 1.3054.2476 2.2742.9374.9689.6899 2.9829 1.5832 4.4757 1.9852 1.4927.402 2.7141 1.0077 2.7141 1.3461 0 .3385.504.6197 1.12.625 1.3093.0113 5.6969 1.4739 6.3347 2.1118.2413.2412.995.4386 1.6752.4386 1.5803 0 4.995 3.6184 4.5381 4.8089-.1907.497.1625 2.4262.7848 4.2873.6223 1.861 1.0591 4.6093.9708 6.107-.0884 1.4979.1834 3.7659.6039 5.04.6022 1.8247.5907 2.8435-.054 4.7968-.45 1.364-1.1096 2.48-1.4656 2.48-.3559 0-1.1438.4494-1.7508.9988-.909.8226-6.7146 2.073-10.8371 2.334-2.0476.1298-6.332-1.4986-8.5216-3.2387-2.71-2.1537-5.7198-2.5901-21.2384-3.0794-13.783-.4346-22.005-.3028-28.245.4525-2.8628.3466-5.718.4333-6.345.1927-.718-.2755-.9872-.1902-.7272.2304.2612.4226-.6284.6887-2.423.7248-6.82.1368-21.1864 2.3174-22.3878 3.398-.3344.3008-1.2847.5469-2.1118.5469-.827 0-2.2853.4041-3.2404.898-.9552.494-3.1729 1.1052-4.9282 1.3583-1.7554.2531-3.6236.8067-4.1516 1.2302s-1.9489.8289-3.1575.9009c-1.2086.072-2.5185.3973-2.911.723-.3923.3257-1.7988.6652-3.1255.7546-1.3266.089-2.645.5787-2.9298 1.0876-.2848.5088-.928.7678-1.4292.5754-.5013-.1924-1.6025.02-2.447.472-.8445.452-1.9137.6767-2.376.4993-.4621-.1774-1.256.023-1.7641.4442-.5081.4217-1.2046.5932-1.5477.3812-.343-.2121-.7556-.165-.9167.1049-.3515.5884-1.1472 6.9462-1.414 11.2988-.1056 1.7206-.5651 3.359-1.0213 3.641-.6592.4073-.6137.7507.2215 1.6736.5895.6514 1.1858 2.7015 1.3582 4.6698.3582 4.0878 1.4422 5.1346 5.6819 5.4863 5.159.428 8.1593.8337 8.7175 1.1786.3071.19 1.5355.038 2.7296-.3374 1.194-.3755 5.339-.6195 9.211-.5422 8.455.1686 8.4404.1692 14.08-.6008 2.464-.3364 7.792-.9169 11.84-1.29 4.048-.373 8.08-.8124 8.96-.9762.88-.1639 6.6117-.4846 12.737-.7129 6.1254-.2282 12.6892-.6255 14.5862-.883 2.8131-.3817 3.5588-.2806 4.0436.5484.5306.9074.5965.9094.6138.019.0317-1.6282 9.9493-2.6396 28.1423-2.87 19.128-.2424 30.1172-.8417 30.1172-1.6424 0-.3135.9155-.57 2.0345-.57 3.4743 0 6.025-1.2937 7.062-3.5817.526-1.1603.7447-2.341.486-2.6239-.2585-.2829-.2448-2.3402.0307-4.5717.4474-3.6246.3424-10.3991-.2593-16.7427-.1169-1.232-.0417-2.528.167-2.88.2087-.352.394-1.072.412-1.6.0179-.528.3812-1.5872.8075-2.3537.4262-.7665.6044-1.8382.3958-2.3817-.462-1.2039 1.7005-6.1051 2.7038-6.1281.396-.009.8916-.8747 1.1014-1.9236.2744-1.3719.656-1.8017 1.36-1.5315.6873.2637.9786-.026.9786-.973 0-.7416.2825-1.3484.6278-1.3484.3453 0 .8085-.72 1.0294-1.6.2208-.88.6583-1.6.9722-1.6.3138 0 .5203-.216.4589-.48-.1033-.4438.4093-1.7804 2.2703-5.92.3957-.88.941-1.7643 1.212-1.965.271-.2008.8107-2.2168 1.1992-4.48.3886-2.2633 1.148-4.619 1.6875-5.235.5396-.616.7754-1.12.5241-1.12-.2513 0-.2376-.355.0305-.7888.503-.8138.648-1.5656 1.1436-5.9312.1598-1.408.4945-4 .7438-5.76.2492-1.76.4818-4.4239.5169-5.9196.0351-1.4958.2354-2.7198.445-2.72.6665-.0007.0159-7.9406-.7711-9.411-1.129-2.1095-3.3848-2.4957-8.2501-1.4124z" id="path2212" fill="#faf7f7" stroke-width=".64"/>
  <path d="M658.3971 1190.0143c-.169-.1692-1.575-.4046-3.124-.5232-2.5829-.1977-4.8632-.9003-7.768-2.3931-.6113-.3141-1.8353-.5712-2.72-.5712-1.0033 0-1.6087-.3612-1.6087-.96 0-.528-.2973-.96-.6606-.96-.3633 0-1.7313-.4473-3.04-.9941-1.3087-.5469-2.5234-1.01-2.6994-1.0293-.176-.019-1.328-.4291-2.56-.9108-1.232-.4818-3.3527-.9906-4.7127-1.1306-1.3599-.1401-2.6559-.5068-2.88-.815-.224-.3081-2.783-.5602-5.6869-.5602-2.9037 0-5.2797-.1697-5.28-.3771-.0002-.2074-1.5124-.3098-3.3604-.2276-3.9.1735-17.4059.7957-28 1.2899-4.048.1888-10.096.6276-13.44.9751-12.9266 1.3434-57.4864 1.8642-62.4.7294-1.76-.4066-8.528-1.1842-15.04-1.7281-6.512-.5439-13.856-1.446-16.32-2.0047-2.464-.5586-5.663-1.0907-7.1089-1.1822-1.4459-.092-2.9326-.3542-3.3037-.5835-.371-.2294-2.212-.5491-4.091-.7104-15.4068-1.3232-20.3847-2.0516-41.1223-6.0177-3.5498-.6789-8.902-1.5702-11.894-1.9807-2.992-.4104-8.032-1.4239-11.2-2.2522-6.1858-1.6173-11.7068-2.7369-16.32-3.3097-1.584-.1967-4.32-.7392-6.08-1.2056-9.7189-2.5751-13.4278-3.6095-13.8274-3.8565-.245-.1515-4.8663-1.125-10.2692-2.1635-5.4029-1.0384-12.6174-2.7519-16.032-3.8076-3.4148-1.0557-9.4628-2.6872-13.44-3.6255-3.9774-.9383-8.8155-2.1239-10.7515-2.6347-4.1405-1.0926-10.425-2.5162-15.36-3.4795-3.8175-.7452-17.6253-4.802-19.2246-5.6483-.5416-.2866-2.2696-.7299-3.84-.9851-1.5705-.2553-4.9674-1.035-7.5487-1.7326-2.5812-.6976-4.8587-1.1029-5.061-.9006-.2024.2024-.6824.1219-1.0668-.1787-1.9822-1.5502-21.9819-2.1806-30.7789-.9703-10.401 1.4311-19.4944 3.5266-21.088 4.8595-.3344.2797-1.3782.5085-2.3195.5085-.9414 0-2.9294.4297-4.4179.9549-1.4885.5251-3.5407 1.0184-4.5605 1.0961-1.0197.078-1.854.368-1.854.6452 0 .2771-.936.5102-2.08.5179-1.144.01-3.2807.5591-4.748 1.2254-1.4674.6662-2.7813 1.0979-2.9199.9594-.1386-.1386-2.25.4966-4.692 1.4116-2.4421.9149-5.0073 1.642-5.7005 1.6158-.6931-.026-1.4524.263-1.6872.643-.2348.3799-1.166.7719-2.0692.871-.9032.099-2.736.552-4.0728 1.0063-1.3368.4543-2.7185.8554-3.0705.8915-1.8535.1899-5.942 1.1176-7.2205 1.6383-.8033.3272-3.8273.7629-6.72.9683-2.8927.2054-5.6585.5013-6.146.6575-1.3054.4183-5.507-4.2912-5.6787-6.3649-.0803-.9708-.4265-2.2891-.7692-2.9295-.3899-.7285-.4036-1.9297-.0366-3.2092.382-1.3322.3458-2.6435-.1039-3.7618-.8232-2.0473-1.177-12.1895-.4729-13.5568.7953-1.5442 1.4392-3.4816 1.3295-4-.056-.264.22-.48.613-.48.4171 0 .5873-.666.4087-1.6-.1682-.88-.071-1.6.2161-1.6.2871 0 .3825-1.08.212-2.4-.1704-1.32.057-3.12.5053-4 .9907-1.9445 3.7237-4.4781 4.832-4.4792.4447-.0004 1.3087-.2632 1.92-.584.6112-.3208 2.4793-1.0646 4.1513-1.6529 1.672-.5884 3.04-1.3339 3.04-1.6568 0-.3229.5925-.5871 1.3168-.5871 3.4654 0 10.331-5.0777 22.653-16.7538 5.5157-5.2267 6.4406-6.0457 15.834-14.0191 4.1163-3.4939 7.6625-6.6414 7.8807-6.9944.2181-.353 4.9784-4.3902 10.5784-8.9715 5.6001-4.5814 10.9818-9.0368 11.9595-9.9012.9776-.8642 3.3304-2.9458 5.2283-4.6256 6.2896-5.5671 12.2292-11.5173 12.2292-12.251 0-.3979.36-.7232.8-.7231 1.467.0004 10.1738-9.8383 14.4426-16.3203 3.9935-6.064 7.7974-14.8066 7.7974-17.9211 0-1.4826-3.156-6.7189-4.0497-6.7189-.31 0-4.4426-1.8915-9.1833-4.2035-9.2188-4.4957-12.358-6.8508-15.268-11.4546-1.0088-1.596-2.0648-2.9019-2.3466-2.9019-.2818 0-.5124-.6559-.5124-1.4576 0-.8016-.3696-2.0256-.8213-2.72-1.2746-1.9591-2.2518-5.3805-2.7369-9.5824-.2439-2.112-.5738-4.416-.7332-5.12-.1595-.704-.413-2.288-.5635-3.52-.1505-1.232-.6199-3.68-1.0432-5.44-.4232-1.76-.7296-5.6891-.6808-8.7313l.089-5.5313-4.5949 2.3878c-5.5426 2.8802-11.573 6.1715-13.4558 7.3438-.7585.4723-2.2255 1.0562-3.26 1.2974-1.0346.2413-2.651.987-3.5921 1.6572-2.5583 1.8216-10.6505 5.4198-15.007 6.6729-2.112.6075-4.1723 1.3776-4.5784 1.7113-.4062.3337-2.5662 1.046-4.8 1.5829-2.2339.5369-4.6376 1.2286-5.3416 1.537-1.6636.7289-14.4395 2.0585-18.5441 1.9299-3.934-.1232-9.6326-1.4169-12.2866-2.7893-1.0971-.5674-3.249-1.339-4.782-1.7147-1.533-.3758-3.0753-.7698-3.4273-.8756-.352-.1058-1.792-.425-3.2-.7092-1.408-.2843-4.0233-1.3385-5.8117-2.3428-1.7885-1.0043-3.8336-1.826-4.5447-1.826-.7111 0-2.647-.72-4.3021-1.6-1.655-.88-3.93-1.6044-5.0553-1.6098-1.1254-.01-2.443-.2612-2.9282-.5684-.9705-.6148-.4478-1.9802.7598-1.9845.4192 0 2.0582-.8643 3.6422-1.9173s3.528-1.9157 4.32-1.9172c.792-.001 1.44-.2354 1.44-.5196 0-.558 3.4337-2.1396 7.04-3.2427 8.1794-2.5019 13.4514-4.1841 15.6-4.9779 1.3638-.5039 2.603-.7929 2.7537-.6422.4313.4313 18.3016-5.5093 19.72-6.5555.3555-.2621 2.9503-1.4612 5.7663-2.6645 4.7652-2.0362 29.2128-14.1936 32.4671-16.1453.7991-.4793 3.325-1.9773 5.613-3.3289 4.1375-2.4443 5.3184-3.1865 16.32-10.2577 15.5223-9.9769 34.388-26.1009 34.686-29.6452.396-4.7117 1.6865-6.7113 4.103-6.3566 1.0891.1598 2.1712-.0815 2.5814-.5757 1.0576-1.2744 5.4524-1.0436 7.4554.3914 1.3187.9448 3.114 1.3052 7.4941 1.5045 8.488.3862 15.939 2.8413 19.6913 6.4882 2.8574 2.7772 2.8804 2.834 2.335 5.754-.303 1.622-.809 3.4491-1.1244 4.06-.3154.611-.7554 2.119-.9778 3.351-.4287 2.3743-1.6938 4.1205-6.7234 9.28-1.7157 1.76-3.3192 3.848-3.5632 4.64-.244.792-.7124 1.44-1.0406 1.44-.3283 0-.5969.432-.5969.96s-.2544.96-.5654.96c-.4639 0-1.0127 1.2283-1.2944 2.897-.028.1691-.8846 1.8186-1.9024 3.6653-1.6197 2.939-2.6539 5.7134-2.9213 7.8376-.098.7774-1.6376 3.4182-5.5743 9.5608-3.5593 5.5537-5.8297 9.8264-6.118 11.5135-.2768 1.6187-1.9217 6.4462-2.6846 7.8781-5.4147 10.1642-7.0688 16.5841-5.3508 20.7679.8198 1.9967 3.7468 4.3903 8.621 7.0498 1.0987.5996 2.167 1.3196 2.374 1.6.3317.4496 2.982 1.8317 5.8162 3.0332 3.1202 1.3227 11.8173 7.3486 14.3525 9.9443 1.3818 1.4148 2.7498 2.5724 3.04 2.5724.2901 0 .5275.3185.5275.7076 0 .3892.7243 1.6132 1.6096 2.72 2.275 2.8442 2.3858 3.0162 4.0092 6.2247 1.9184 4.9841 1.951 13.4856 1.8341 15.4878-.5604 8.196-3.2293 16.4546-7.2218 22.3468-1.7114 2.5257-5.017 8.3544-7.346 12.9526-2.329 4.5983-4.561 8.2885-4.96 8.2005-.399-.088-.7256.066-.7256.3416 0 1.1631-7.9132 12.3028-9.1152 12.8317-.2666.1174-.4903.5494-.4972.96-.018 1.0794-7.9252 9.3126-12.7876 13.3145-2.288 1.8832-7.678 6.8818-11.9779 11.1081s-9.8748 9.4121-12.3887 11.5241l-4.5709 3.84 9.5088.4137c5.2298.2276 10.9487.7504 12.7087 1.162 1.76.4115 4.784.9015 6.72 1.0889 6.5318.6321 9.061 1.054 14.72 2.4556 1.936.4795 4.8916 1.0689 6.568 1.3097 1.6762.2408 3.2052.6926 3.3977 1.004.1924.3114 1.0201.5661 1.8393.5661.8192 0 3.6102.6822 6.2022 1.5159 2.5921.8338 6.5848 1.9993 8.8728 2.5901 2.288.5908 5.4947 1.4926 7.126 2.0041 1.6312.5114 3.7912.9301 4.8.9303 1.0087.0001 3.274.5475 5.034 1.2164 1.76.6689 4.064 1.3734 5.12 1.5657 3.8456.7 5.306 1.067 7.9303 1.993 1.4715.5191 4.981 1.3813 7.799 1.9158 2.818.5345 5.676 1.2676 6.3511 1.629.6753.3613 1.4554.6074 1.7337.5467.2783-.061.938.063 1.466.2736.528.2111 3.696.9824 7.04 1.7142 3.344.7317 7.376 1.646 8.96 2.0317 3.2248.7853 3.8481.9121 9.28 1.8878 2.112.3794 5.4144 1.1449 7.3388 1.7011 1.9244.5561 4.0844 1.0936 4.8 1.1944.7156.1008 3.0291.5025 5.1411.8927 2.112.3901 4.704.8298 5.76.977 1.056.1473 3.072.544 4.48.8817 1.408.3377 4.72.7813 7.36.9859 2.64.2045 6.096.6306 7.68.9469 1.584.3162 2.9975.4585 3.1411.3161.1436-.1424.6137.034 1.0447.3913.431.3576 3.9134.7989 7.7388.9805 3.8255.1816 7.3876.4591 7.916.6166.5281.1576 2.5441.4485 4.48.6466 1.9356.198 4.6714.4766 6.0794.6192 1.408.1426 5.008.6886 8 1.2133 5.5042.9653 16.2441 1.9879 27.719 2.6392 3.4532.196 7.4852.5806 8.96.8546 1.4745.274 4.985.4118 7.801.306 2.816-.1056 11.312-.2082 18.88-.2279 7.568-.02 16.784-.3072 20.48-.6387 8.5403-.7662 15.4937-1.1487 29.12-1.602 9.5748-.3186 17.3058-.958 23.7117-1.9612 1.0734-.1682 2.9454-.4059 4.16-.5284 2.959-.2984 5.7435-.9712 7.4618-1.8029.8911-.4313 2.9015-.5081 5.44-.2077 4.6652.552 6.494.5501 11.5465-.012 2.2433-.2497 3.68-.1659 3.68.2144 0 .3995 1.0935.4141 3.04.04 1.672-.3208 3.904-.4349 4.96-.2534 1.056.1813 3.072.02 4.48-.3589 1.408-.3789 3.424-.7854 4.48-.9035 3.2697-.3657 15.8952-2.8313 17.935-3.5024 1.064-.3502 5.384-1.0727 9.6-1.6054 9.4002-1.188 16.2644-2.2296 23.025-3.4941 8.4104-1.573 11.5226-2.026 19.84-2.888 4.928-.5108 13.6766-1.2201 19.4413-1.5763 5.7647-.3562 10.855-.9578 11.312-1.337.4567-.3792 2.0761-.8032 3.5986-.9422 4.7456-.4336 7.6278-1.0469 12.154-2.5863 2.4058-.8183 4.3741-1.3648 4.3741-1.2144 0 .445-4.4017 2.192-10.56 4.1913-4.254 1.381-5.007 1.7674-2.88 1.4777 1.584-.2158 4.4525-.7942 6.3745-1.2855 1.922-.4912 4.0153-.8931 4.652-.8931.6367 0 3.2167-.7194 5.7334-1.5987 2.5168-.8793 4.7113-1.4634 4.8768-1.2979.1655.1654-.387.5692-1.2279.8972-3.6363 1.4185-7.6088 3.2561-7.6088 3.5196 0 .1572 1.944-.4376 4.32-1.3216 2.376-.884 5.904-2.038 7.84-2.5644 1.936-.5264 3.803-1.1319 4.1487-1.3454 1.1513-.7108 2.8913-.5657 2.8913.2412 0 .4379-.864 1.5232-1.92 2.4118-2.4449 2.0572-2.4155 2.4043.16 1.8942 1.9216-.3805 2.0101-.3268 1.1612.7049-.7879.9575-.7905 1.196-.019 1.673 1.0538.6514 1.1596.5444-2.762 2.7905-1.6826.9637-3.9866 2.7955-5.12 4.0706-5.0586 5.6913-6.7966 7.1679-10.7006 9.0918-2.288 1.1276-5.2227 2.6029-6.5215 3.2786-1.9248 1.0013-10.6765 3.1129-16.8385 4.0629-2.2846.3521-7.0232 1.7634-7.68 2.2873-.352.2807-2.512 1.0905-4.8 1.7996-2.288.709-6.4462 2.2104-9.2404 3.3365-2.7942 1.1261-5.6742 2.1443-6.4 2.2627-2.597.4236-14.0195 4.1513-14.8612 4.8499-.472.3919-.8584 1.0858-.8584 1.5422 0 1.0825-2.0997 4.7642-2.72 4.7695-.264 0-.48.4448-.48.9836 0 .5388-1.152 3.0126-2.56 5.4973-1.408 2.4848-2.56 4.7799-2.56 5.1004s-.4134.5827-.9186.5827-1.2764.9896-1.7138 2.1992c-.4686 1.2957-1.3453 2.3372-2.1342 2.5352-.7364.1848-1.9703.9243-2.742 1.6433-1.0329.9622-2.3425 1.3289-4.9618 1.3893-1.9572.045-3.7203.3437-3.918.6635-.1976.3199-.9183.4041-1.6016.1873-.6832-.2168-1.1847-.1566-1.1144.1339.07.2906-.2542 1.3148-.721 2.276-.7607 1.5661-2.3743 2.6287-4.1746 2.7488-.352.024-1.25.3792-1.9959.7905-.7457.4114-1.4942.6096-1.6634.4404zm72.286-69.1542c-.2127-.2126-.7647-.2353-1.2267-.051-.5106.2043-.3589.356.3867.3867.6746.027 1.0526-.1235.84-.3362zm4.48-.64c-.2127-.2126-.7647-.2353-1.2267-.051-.5106.2043-.3589.356.3867.3867.6746.028 1.0526-.1235.84-.3362zm-255.2939 15.4262c-.1634-.1634-1.2862-.4336-2.495-.6005-3.3329-.46-9.107-2.7762-9.7398-3.9069-.3087-.5516-1.258-1.2679-2.1097-1.5917-.8516-.3238-1.5483-1.0448-1.5483-1.6023 0-.5575-.2634-.8508-.5854-.6519-.3219.199-.6819.144-.8-.1222-.118-.2662-1.0777-.9693-2.1326-1.5624-1.868-1.0504-2.7216-2.9689-3.0795-6.9216-.08-.88-.316-1.888-.5252-2.24-.5653-.9513-1.428-4.3932-1.2685-5.0613.076-.3198-.2304-.8095-.6815-1.0883-.451-.2788-.8885-1.8892-.9718-3.5787-.083-1.6894-.427-4.1866-.7636-5.5493-.3367-1.3627-.474-2.8376-.3052-3.2774.1687-.4399-.1417-.9719-.6899-1.1823-1.1412-.4379-1.3505-3.3286-.2885-3.9849.4893-.3024.5-.5666.034-.8543-.3707-.229-.7468-1.6516-.8359-3.1611-.089-1.5094-.3296-2.8482-.5346-2.9748-.4902-.303-.2276-9.0613.2971-9.9103.2234-.3615.1332-.6573-.2005-.6573-.682 0-.6005-11.2416.087-11.9286.2385-.2385.113-.8201-.2792-1.2925-.5075-.6115-.5117-.8589-.014-.8589.3841 0 .5502-.3858.3692-.8574-.1809-.4717.099-1.2127.6221-1.6468.5231-.4341.7752-1.2475.5603-1.8076-.259-.6752-.1385-.8622.3581-.5554.4518.2793.7488.059.7488-.5551 0-.5598.4144-1.1768.9208-1.3712.5065-.1944 1.1158-1.2653 1.354-2.3799.2381-1.1146.6425-2.3146.8985-2.6666.2561-.352.5231-1.936.5933-3.52.1554-3.5079.3661-4.9861.768-5.3879.1677-.1678.116-2.5521-.1152-5.2985-.231-2.7465-.2889-5.5696-.1284-6.2736.1604-.704.2496-1.712.1981-2.24-.093-.9554-.026-18.6908.18-47.36.1016-14.1476-.2376-21.8969-1.1204-25.6-.2098-.88-.5304-3.184-.7125-5.12-.1822-1.936-.4676-4.672-.6344-6.08-.7765-6.5559-.9805-8.6467-1.28-13.12-.4226-6.3101-.4292-24.2537-.011-29.12.1816-2.112.3197-4.2.3068-4.64-.054-1.8602.019-5.2174.1942-8.96.1033-2.2-.045-4-.33-4-.2847 0-.352-.268-.1495-.5958.2025-.3276.057-.7882-.324-1.0235-.461-.285-.3245-.8339.4088-1.6442.6055-.669.8402-1.2164.5217-1.2162-.3186.0002-.5508-1.618-.516-3.596.035-1.978-.221-4.93-.5683-6.5602-1.2238-5.7443-.3277-9.1594 2.677-10.2014 1.6975-.5888 4.0861.0674 5.6364 1.5485 1.083 1.0346 6.5064 1.7563 7.4317.9889.418-.3467 2.92-1.119 5.56-1.7164 6.8395-1.5475 6.9686-1.6028 5.4287-2.3228-1.3579-.6349-4.3935-6.667-3.821-7.5931.1832-.2966.041-.7202-.3173-.9413-.3577-.2211-.6548-1.177-.6602-2.1242 0-.9473-.2622-2.1208-.5707-2.608-.7587-1.198.2718-4.634 1.7577-5.8608.6572-.5426 1.5335-1.6191 1.9473-2.3924.4138-.7733 1.5361-1.5963 2.494-1.829.9578-.2327 2.243-.7655 2.856-1.184 1.2142-.829 5.1886-6.08 4.8526-6.4115-.5085-.5016-11.6772 2.3659-17.487 4.4898-8.7136 3.1854-8.8672 3.2307-15.04 4.4416-6.3207 1.2398-25.189 7.0964-27.4912 8.533-1.047.6533-3.5023 1.0316-7.36 1.134-9.2448.2454-19.3516-2.8827-22.189-6.8674-.737-1.0352-2.1973-2.8013-3.2449-3.9248-1.6733-1.7945-5.7057-9.3569-5.5743-10.454.027-.2231-.2472-.5885-.6087-.8119-.3615-.2234-.954-2.2497-1.317-4.5029-.3628-2.2531-.8837-4.2625-1.1574-4.4653-.7754-.5745-1.01-1.936-1.1663-6.7687-.1006-3.11-.5638-5.2836-1.5148-7.108l-1.3699-2.628 1.274-2.972c.967-2.2558 1.6264-2.9847 2.7367-3.0246.8045-.029 2.2322-.1798 3.1728-.3352 1.0738-.1775 2.8001.326 4.64 1.3532 1.6114.8997 2.93 1.4662 2.93 1.2589 0-.2073.64.0715 1.4223.6194.7823.548 1.9343.9963 2.56.9963.6257 0 1.1376.2483 1.1376.5518 0 .611 5.4661.506 8.96-.1722 1.232-.2392 3.248-.543 4.48-.6754 5.5565-.5968 14.0324-2.634 24.96-5.9994 2.288-.7046 5.888-1.604 8-1.9985 3.3985-.6348 15.918-3.4612 23.04-5.2014 1.408-.344 6.1693-1.3214 10.5806-2.1718 4.4114-.8505 8.467-1.7176 9.0126-1.927.5455-.2093 4.2802-1.0495 8.2993-1.8671 4.0191-.8176 10.7635-2.3666 14.9875-3.4422 4.224-1.0756 12-2.9878 17.28-4.2494 5.28-1.2616 12.192-2.977 15.36-3.812 4.9151-1.2953 8.1495-1.9472 13.12-2.6443 4.5898-.6437 14.7155-2.5912 18.88-3.6312 2.816-.7032 6.272-1.5155 7.68-1.805 1.408-.2895 4.3192-.97 6.4694-1.512 4.2087-1.0612 10.3434-2.1666 14.9706-2.6977 1.584-.1817 6.336-.741 10.56-1.2426 4.224-.5017 9.984-1.08 12.8-1.285 13.366-.9729 17.7058-1.5737 20.4888-2.8364 4.2223-1.9159 15.4302-.6497 19.9471 2.2534 3.0091 1.934 7.6211 3.291 9.2001 2.7068 1.0014-.3704 1.6198-.3339 1.766.1043.1235.3709 1.092.6743 2.152.6743 2.1342 0 10.6517 2.3967 11.8448 3.333.4174.3275.959 1.5059 1.2033 2.6186.2444 1.1128 1.415 3.2943 2.6011 4.8478 1.1862 1.5536 2.2018 3.2873 2.257 3.8527.2576 2.6436 1.0147 7.428 1.1754 7.428.6212 0 .8176 4.0417.3733 7.68-.129 1.056.038 2.4315.3698 3.0568 1.0151 1.9096-1.4524 4.59-5.3545 5.8162-7.9154 2.4877-15.3646 2.5538-18.3622.1631-1.0587-.8443-22.6595-.9896-32.062-.2157-3.344.2752-8.24.65-10.88.833-5.754.3986-14.5175 1.946-18.0206 3.182-6.3542 2.2419-18.2158 4.4002-31.5794 5.7462-.352.0355-2.224.5414-4.16 1.1243-1.936.5829-5.248 1.4824-7.36 1.9989s-7.008 1.8292-10.88 2.9171c-3.872 1.088-8.48 2.2629-10.24 2.611-5.211 1.0307-14.04 3.9902-14.5918 4.8913-.2815.4596-.8942.8357-1.3616.8357-.4674 0-1.2084.432-1.6466.96-.4382.528-1.35.96-2.0264.96-.6822 0-1.146.3729-1.0417.8375.1035.4605-.8919 1.7864-2.2119 2.9462-1.32 1.16-2.4 2.4948-2.4 2.9663 0 .4716-.5316 1.2338-1.1814 1.6937-.6497.46-3.1 3.1403-5.445 5.9563a8989.9836 8989.9836 0 01-4.7994 5.76c-.2945.352-2.092 2.08-3.9948 3.84-4.4614 4.127-7.2879 7.2648-6.8965 7.6563.1703.1703 1.8773-.2495 3.7934-.9329 3.2543-1.1607 7.836-2.3943 14.6837-3.9534 1.584-.3607 3.888-.9014 5.12-1.2016 4.2947-1.0464 8.673-1.9661 13.44-2.823 2.64-.4747 5.52-1.0321 6.4-1.2389.88-.2067 2.32-.5184 3.2-.6927.88-.1742 2.32-.5855 3.2-.914 1.731-.6459 9.0844-2.3097 12.96-2.9322 1.32-.212 2.4-.5984 2.4-.8586 0-1.0731 3.909-2.669 6.5374-2.669 1.551 0 4.6405.7135 6.8657 1.5856 2.2252.872 4.3002 1.4284 4.611 1.2362.5871-.3628 6.0244.586 10.466 1.8262 6.9217 1.9328 14.3483 7.1068 15.3754 10.712.2508.88.922 2.13 1.4916 2.7777.5696.6477 1.054 1.5117 1.0761 1.92.022.4083.2323 1.7503.4668 2.9823s.572 4.112.7498 6.4c.178 2.288.577 5.1844.8865 6.4363.6016 2.432.2973 22.6763-.365 24.2837-.2175.528-.459 1.824-.5368 2.88-.2622 3.5625-1.1663 9-1.8596 11.1845-.2029.6392-.4905 2.1282-.639 3.3089-.5173 4.1081-1.116 7.2707-1.4969 7.9066-.2108.352-.4484 1.648-.528 2.88-.08 1.232-.3245 4.544-.544 7.36-.2196 2.816-.4189 6.632-.4429 8.48-.024 1.848-.2539 3.36-.5109 3.36-.2569 0-.382.7751-.278 1.7223.104.9473-.09 2.244-.4315 2.8817-.3413.6376-.7479 3.1026-.9036 5.4777-.1557 2.3751-.434 5.6143-.6186 7.1983-.1845 1.584-.4806 7.056-.6579 12.16s-.5945 11.296-.927 13.76c-.7903 5.8555-1.407 12.3589-1.6993 17.92-.4635 8.8171-.926 13.5305-1.9157 19.52-.2618 1.584-.5334 3.384-.6037 4-.07.616-.1863 1.192-.2578 1.28-.071.088-.2196 3.4-.3293 7.36-.1405 5.0697.016 7.2061.5298 7.2204.4272.012.3317.3433-.2306.8-.7195.5843-.9458 2.0758-.9035 5.9533.031 2.8455.2211 5.44.4223 5.7655.2012.3255.1444 1.803-.1263 3.2831-.3296 1.8026-.2578 2.7781.2177 2.9544.5141.1908.508.4784-.022 1.0432-.513.5467-.5483 1.4447-.1179 3.0037.4243 1.5365.3936 2.4893-.099 3.0831-.5239.6313-.524.9763-.0005 1.2998.392.2422.6526 1.2039.5792 2.137-.073.9331.028 2.1285.2244 2.6565.3308.8877 1.035 5.8222 1.37 9.6.078.88-.6202 3.04-1.5516 4.8-.9315 1.76-1.906 4.0465-2.1656 5.081-.2596 1.0346-1.0204 2.6511-1.6906 3.5923-.6702.9411-1.076 1.8536-.902 2.0278.1741.1741-.1224.6808-.6589 1.1261-.5365.4453-.9754 1.2063-.9754 1.6912 0 .4849-.288.8816-.64.8816-.352 0-.6422.504-.6449 1.12 0 .616-1.2266 2.317-2.72 3.7801-2.629 2.5756-2.9385 2.6944-9.755 3.7454-8.9918 1.3865-21.7288 4.3031-30.72 7.0345-3.872 1.1762-8.768 2.4685-10.88 2.8718-3.8844.7416-16.2039 4.154-18.56 5.141-2.5757 1.0789-10.9589 3.9697-13.7897 4.7552-1.6002.4441-3.5325 1.1408-4.294 1.5483-.7615.4076-1.6123.6906-1.8905.629-.2783-.061-1.3699.2577-2.4259.7096s-4.7266.8809-8.1567.9534c-3.4302.072-6.4302.3253-6.6667.5618-.2365.2365-.9478.4299-1.5808.4299-.6329 0-1.4664.5898-1.8522 1.3107-.3858.7208-1.3319 1.5426-2.1025 1.8262-2.3119.8509-4.7119 1.339-5.0283 1.0226zm25.1824-42.8139c2.3511-.4919 4.582-1.0842 4.9573-1.3163.3755-.232 1.1877-.5317 1.8051-.6659.6173-.1342 7.4584-1.827 15.2024-3.7616 7.744-1.9347 15.952-3.8576 18.24-4.2731 2.288-.4156 6.032-1.1202 8.32-1.5658 2.288-.4456 5.744-.8562 7.68-.9124 2.473-.072 3.7645-.4254 4.342-1.1888.6737-.8905.6634-1.2034-.057-1.7341-.4835-.3562-1.0746-1.5116-1.3135-2.5676-.2389-1.056-.5328-2.208-.6532-2.56-.1204-.352-.4392-1.8587-.7085-3.3483-.2693-1.4896-.7416-2.5527-1.0496-2.3623-.308.1904-.56-.1028-.56-.6516 0-.5487-.305-.9978-.6779-.9978-.3728 0-.492-.3006-.2649-.668.2271-.3674.1334-1.0154-.2083-1.44-.3417-.4246-.8323-1.78-1.0904-3.012-.258-1.232-.6432-2.528-.8559-2.88-.5986-.9907-.8199-2.3002-.9463-5.5993-.064-1.6716-.2902-3.0396-.5027-3.04-.5575 0 1.2163-6.5267 1.9823-7.2926.3542-.3543.644-1.4505.644-2.4361 0-.9856.288-1.792.64-1.792.352 0 .64-.5902.64-1.3118 0-.7214.3916-2.0894.8702-3.04.4786-.9504 1.0437-2.4549 1.2558-3.3433l.3856-1.6151-4.9358.4862c-6.3077.6214-6.898.6878-18.3758 2.0647-10.3183 1.2378-8.5794 1.3233-30.7374-1.5122-2.1216-.2715-5.9475-1.1405-8.502-1.9312-2.5545-.7905-5.0666-1.2754-5.5826-1.0774-1.1133.4272-1.2083 6.4785-.2675 17.0401.3292 3.696.7492 12.768.9332 20.16.1841 7.392.5686 14.88.8545 16.64.286 1.76.4627 4.208.393 5.44-.07 1.232.073 2.528.3177 2.88.2445.352.4801 1.3203.5235 2.1517.073 1.4024 1.7752 3.9283 2.647 3.9283.2096 0 2.3047-.4025 4.6558-.8944zm11.7248-94.1024c2.464-.1351 8.368-.5699 13.12-.9662 4.752-.3962 12.4711-.5742 17.1535-.3956 6.0665.2313 9.6536.065 12.48-.5783 2.745-.6249 4.8535-.733 6.8465-.3513 3.0196.5784 3.94.2031 4.279-1.7453.3747-2.1528.8101-9.502 1.1284-19.0465.1761-5.28.5214-11.184.7673-13.12.246-1.936.4023-3.7207.3475-3.9661-.055-.2454-.1662-2.0355-.2475-3.978-.133-3.1805-.2774-3.5046-1.4512-3.2592-18.7524 3.9213-20.7479 4.134-39.7035 4.2323-17.2688.09-18.141.034-24-1.5192-5.2002-1.3789-12.021-4.3508-14.4589-6.2999-.3844-.3073-.8856-.3721-1.1138-.1439-.5264.5264.053 6.1718 1.27 12.374.7842 3.9969 1.0508 11.7513.682 19.84-.156 3.4252 1.1363 17.809 1.646 18.3187.1528.1528 1.5417.5114 3.0863.7969 2.601.4805 6.6851.4373 18.1684-.1924zm-4.5884-75.8567c5.3396-.6787 11.5804-1.4007 13.8684-1.6045 6.1333-.5462 8.7507-.9654 14.08-2.2551 2.64-.6389 6.1226-1.3446 7.7391-1.5683 1.6164-.2237 3.6324-.5142 4.48-.6456.8475-.1313 5.5101-.4211 10.3614-.6438 9.8823-.4538 10.6995-.6307 10.6995-2.3151 0-.654.591-1.5053 1.3134-1.8919.7223-.3866 1.2335-1.1888 1.136-1.7826-.098-.5938.026-1.4029.274-1.7981.2483-.3952.612-2.6992.8082-5.12.4606-5.6827 1.48-13.3587 2.1735-16.3694.3001-1.3024.4107-2.503.2458-2.6679-.165-.1649.282-2.6993.993-5.632.711-2.9327 1.4804-6.554 1.7098-8.0473.4146-2.6985.4061-2.7133-1.3983-2.4275-8.0575 1.2765-11.367 1.9124-15.2554 2.9312-8.7034 2.2805-12.2112 3.0797-16.96 3.8643-2.64.4362-5.9228 1.3504-7.2952 2.0316-4.1264 2.0484-13.9402 5.6935-14.3162 5.3175-.1929-.193-.6653-.1117-1.0497.1805-.3844.2923-2.8589.9122-5.4989 1.3775-2.64.4654-5.088 1.0563-5.44 1.3131-1.8023 1.3153-10.8492 1.8606-20.16 1.2153l-4.16-.2884.175 2.173c.096 1.1951-.205 2.6351-.6698 3.2-.6486.7885-.8153 4.0735-.7177 14.147.1658 17.1181.107 16.0952 1.025 17.8305.7746 1.464.9733 1.4981 6.465 1.1102 3.1162-.2201 10.0346-.9555 15.3741-1.6342zm-239.1787-91.1475c-4.4067-1.4609-7.4329-3.5987-7.4329-5.2507 0-.4825-.5749-1.8203-1.2776-2.9728-.7027-1.1525-1.2805-2.6715-1.284-3.3755 0-.704-.4365-2.1049-.9624-3.1131-.5258-1.0083-.956-2.2362-.956-2.7287 0-.4926-.261-1.3956-.58-2.0069-.319-.6112-.9067-2.3353-1.3058-3.8313-.399-1.496-1.002-2.72-1.3399-2.72-.3379 0-.6143-.559-.6143-1.2422 0-.6832-.288-1.4202-.64-1.6378-.352-.2175-.64-.838-.64-1.379 0-.5408-.536-1.7478-1.1913-2.6822-.6553-.9343-1.395-2.8142-1.6438-4.1776-.2489-1.3633-.7107-2.9473-1.0262-3.52-.8804-1.5975-3.1787-6.9982-3.1787-7.4693 0-.2302-.3958-1.326-.8796-2.4352-1.5459-3.5442-2.3692-7.3593-1.9494-9.0322.2448-.9751.1362-1.6245-.2716-1.6245-.783 0-2.5312-3.4589-2.8533-5.6456-.2403-1.6316-2.6739-4.3843-6.8184-7.7123-2.2934-1.8417-2.6255-2.4044-2.2655-3.8387.232-.9244.5087-1.7676.615-1.8738.6702-.6703 9.6275 1.6735 12.8228 3.3552 2.112 1.1116 5.856 2.85 8.32 3.8631 2.464 1.0132 4.7536 2.0784 5.088 2.3671.3344.2888 1.1984.5308 1.92.5378.7216.007 3.099.943 5.283 2.08 3.0894 1.6083 4.559 2.9094 6.62 5.8612 2.7077 3.8783 5.923 10.3345 7.9908 16.046.6372 1.76 1.4647 3.599 1.8387 4.0868.3741.4877.7003 1.2077.7248 1.6.024.3922.4197 1.5772.8782 2.6332 2.3902 5.5048 4.444 15.566 3.4887 17.0905-.2859.4562-.5986 1.5495-.6948 2.4295-.3688 3.3706-1.78 6.7884-3.504 8.4856-.9864.971-1.7934 2.1884-1.7934 2.7052 0 .5168-.6997 1.3981-1.5548 1.9584-.8552.5604-2.0792 2.294-2.72 3.8524-.6409 1.5585-1.3092 2.8212-1.4852 2.806-.176-.0151-2.3032-.685-4.727-1.4886zm226.4871-76.7022c-1.76-.3338-3.632-.8659-4.16-1.1823-.528-.3165-1.8566-.9805-2.9525-1.4757-1.984-.8966-9.5812-6.4131-13.5134-9.8127-2.3868-2.0635-5.498-6.7931-6.5049-9.8884-5.0149-15.4183-4.971-15.2139-5.5472-25.8177-.1913-3.52-.448-7.12-.5705-8-.1225-.88-.4285-3.184-.68-5.12-.2515-1.936-.8988-4.528-1.4383-5.76-.5395-1.232-1.0342-3.1144-1.0993-4.1831-.065-1.0687-.8149-2.6973-1.666-3.619-2.5186-2.727-3.132-3.593-3.811-5.3788-1.0175-2.6759.1364-3.459 5.0961-3.459 3.691 0 4.7086.274 7.4327 2.0016 1.736 1.101 4.2875 2.4008 5.67 2.8886 1.3826.4878 2.8266 1.1327 3.209 1.4332.3824.3004 2.4233 1.1788 4.5353 1.9518 5.1633 1.89 10.6067 4.48 11.688 5.5614.486.4858 1.0917.8833 1.3462.8833.2545 0 1.5435 1.4172 2.8644 3.1493 2.3686 3.1059 3.4107 5.5688 3.9482 9.3307.151 1.056 1.003 4.3468 1.8937 7.3128s1.6195 5.4248 1.6195 5.4638c0 .4343 5.0678.609 10.591.3652 3.3945-.1498 5.7865 1.1514 6.787 3.692.3738.9495.9367 2.2263 1.2508 2.8375.3142.6113.5712 2.7792.5712 4.8176 0 2.3127.3732 4.2391.9925 5.1234.8978 1.2817.896 1.6209-.02 3.5508-.8756 1.8453-.893 2.364-.1283 3.838.6403 1.2341.7473 2.6333.3878 5.0716-.273 1.852-.6599 4.6373-.8597 6.1894-.1998 1.5522-.4373 2.8735-.5278 2.9363-4.2406 2.9421-6.3844 4.163-7.3199 4.1685-.6406.004-2.5784.4359-4.3064.96-3.4425 1.0444-9.7835 1.1173-14.7783.17zm88.32-8.8283c-4.745-.5886-11.2-3.4437-11.2-4.954 0-.452-.6884-1.1355-1.5297-1.5189-.8413-.3833-1.82-1.3131-2.1748-2.0663-1.864-3.957-2.8269-6.4263-3.106-7.9658-.1708-.9417-.7924-2.2447-1.3814-2.8955-.589-.6508-1.079-1.5174-1.0889-1.9256-.01-.4083-.7009-2.0316-1.5356-3.6074-1.3958-2.635-1.4855-3.3542-1.1174-8.9577.2201-3.351.6751-6.1844 1.011-6.2964.336-.112.47-.5708.2977-1.0197-.1722-.4488.1612-1.2097.741-1.6909 2.1761-1.8061 7.3593-10.5536 8.6734-14.638.4056-1.2607.9491-2.5803 1.2076-2.9323 1.1226-1.528 4.4831-11.3305 4.4831-13.0768 0-1.2631-.437-2.152-1.28-2.6032-.704-.3767-1.28-.9813-1.28-1.3435 0-1.353-3.0963-7.3411-4.4033-8.5157-.7659-.6882-1.3567-1.9956-1.3567-3.0022 0-.9807-.2927-1.964-.6505-2.185-.3577-.2211-.497-.6502-.3095-.9536.1875-.3033.048-.7324-.3096-.9535-.3577-.2211-.6504-.9045-.6504-1.5187s-.9747-2.0614-2.166-3.216c-1.4718-1.4266-2.0616-2.499-1.84-3.3459.4426-1.6928 2.4924-2.6832 4.507-2.1776.914.2294 5.1747.417 9.4682.417 7.3065 0 8.0608.1204 11.7782 1.8784 2.1844 1.033 4.1741 1.7532 4.4216 1.6002.2474-.153 2.0206.2362 3.9404.8646 1.9198.6285 5.4381 1.5065 7.8185 1.951 2.3804.4447 4.4854 1.0632 4.6778 1.3745.1924.3113.9808.5756 1.7521.5873 1.71.026 4.0372 1.8806 4.912 3.9143.7522 1.7486 2.0711 3.924 2.6582 4.3844 1.048.8218 2.2623 5.1642 2.4124 8.6273.091 2.105.3071 4.0554.4795 4.3343.1723.279-.1194 1.8687-.6484 3.5328-.529 1.6641-1.297 5.1202-1.707 7.6802-.4098 2.56-1.1362 5.0457-1.6143 5.5238-.478.478-.719 1.0195-.5354 1.2031.1836.1836.054.866-.288 1.5162-1.8706 3.5565-4.5895 9.7773-4.6072 10.5409-.011.4848-.449 1.4485-.973 2.1417-.8554 1.1313-1.943 4.3497-2.5695 7.6025-.1258.6533-.472 1.5184-.7692 1.9225-.2973.4041-1.1925 2.8947-1.9895 5.5347-.797 2.64-1.7166 5.3001-2.0437 5.9113-.327.6113-.5947 1.6706-.5947 2.3542 0 1.3584-4.0432 8.4953-5.4956 9.7007-.4974.4128-.9044 1.1224-.9044 1.5768 0 1.0072-7.4944 7.372-8.536 7.2495-.4092-.0482-2.472-.302-4.584-.564z" id="path2355" fill="#faf7f7" stroke-width=".64"/>
</svg>
