<svg xmlns="http://www.w3.org/2000/svg" version="1.1" id="SVGRoot" viewBox="0 0 12.7925 10.5165">
  <g id="layer1" transform="translate(-1.6025 -2.7614)">
    <path d="M4.624 13.2324c-.764-.1429-1.373-.466-1.9448-1.032-.5699-.5642-.9452-1.3324-1.0437-2.1364-.0473-.3858-.0444-.6103.013-.992.1975-1.3156 1.111-2.438 2.3703-2.9119.5272-.1984 1.3273-.2654 1.9167-.1603l.2555.0455 1.4085-.946c2.8907-1.9416 3.4589-2.3147 3.5525-2.333.07-.0138.1254.0012.2044.0554.0752.0515.5154.6818 1.432 2.0505C13.9617 6.624 14.112 6.8625 14.112 6.972c0 .0731-.025.1552-.0612.2013-.0337.0428-.288.2283-.5653.4123l-.504.3345.5892.017c.3241.0094.6136.0286.6434.0427.0297.0141.0801.064.112.111.0544.0801.0584.2304.0667 2.4848.0065 1.7653-.001 2.423-.0283 2.489-.0205.0493-.0732.118-.1172.1526-.0787.062-.1529.0629-4.7396.06-3.6934-.0023-4.7061-.0116-4.8837-.0447zm1.4774-.321c.6449-.1635 1.1057-.431 1.5946-.9258.4959-.5018.7683-1.0135.9135-1.716.0874-.423.0745-1.0851-.0287-1.4752-.4362-1.649-1.9812-2.7341-3.6385-2.5557-.8411.0906-1.5286.4243-2.1003 1.0196-.4188.4362-.6846.8962-.8465 1.465-.1111.3907-.1394 1.0837-.061 1.499.1315.698.4093 1.2326.9124 1.7565.5413.5636 1.2614.925 2.0171 1.0125.3555.0411.8979.0061 1.2374-.08zm-1.3632-.4962c-1.0939-.2303-1.9244-1.0156-2.2158-2.0952-.0332-.1232-.0687-.3824-.0788-.576-.0216-.415.0457-.8048.2096-1.214.2992-.7474.9633-1.3597 1.762-1.6248.2911-.0966.3285-.1012.8328-.1032.4587-.0017.5616.0076.784.0714.788.226 1.4346.7627 1.7911 1.487.2227.4523.2829.7197.2829 1.2556 0 .536-.0602.8033-.2829 1.2556-.3434.6976-.9183 1.1945-1.6791 1.4511-.2796.0944-.3426.1034-.784.1125-.264.0054-.5438-.0036-.6218-.02zM6 12.0803a2.5718 2.5718 0 001.7926-1.916c.0429-.1945.052-.3474.0405-.672-.0128-.362-.0284-.4592-.1123-.7007-.2809-.8083-.9711-1.4553-1.7848-1.673-.2937-.0785-.815-.0956-1.1245-.0369-1.2234.2322-2.0905 1.2643-2.094 2.4924-.002.6937.155 1.1554.5637 1.658.6565.8074 1.7207 1.1395 2.7188.8482zm-.912-.588c0-.0788-.0197-.0991-.1414-.1456-.2851-.1089-.5467-.4287-.6107-.7467l-.021-.104h.1786c.0982 0 .187-.0036.1975-.008.0104-.0044.038.0476.0614.1156.0428.1243.1756.2879.2796.3443.0524.0284.056-.0073.056-.5561v-.5865l-.136-.0369c-.4435-.1203-.7688-.6-.7154-1.0549.0517-.44.34-.7569.8114-.892.022-.0063.04-.048.04-.0925 0-.0777.0079-.081.192-.081.19 0 .192.001.192.0917 0 .0788.0197.0991.1414.1456.3003.1147.559.4444.611.7787l.0212.136h-.4134l-.0204-.1272c-.0204-.1275-.1628-.3243-.2802-.3871-.0571-.0306-.0596-.0075-.0596.5612 0 .5434.0047.5931.056.5934.0308.0002.1295.0345.2193.0763.409.1905.6474.6545.5579 1.0857-.0759.3653-.4093.7301-.7116.7784-.108.0173-.1216.0297-.1216.1114 0 .091-.0019.0919-.192.0919-.19 0-.192-.001-.192-.0916zm.6351-.6224c.2421-.2252.2606-.6151.041-.8653-.0286-.0327-.1061-.087-.1721-.1207l-.12-.0612v1.1837l.088-.0333c.0484-.0184.1218-.0648.1631-.1032zM5.088 8.8017v-.5744l-.0947.033c-.1325.0462-.3134.2572-.3394.3958-.0523.2785.0454.5314.2545.659.1804.11.1796.1123.1796-.5134zm9.008 1.8223V8.24l-2.709-.0082-2.709-.0082.0578.1522.0578.1522 2.2102.0082c2.1426.008 2.2112.0101 2.243.0697.0182.0338.0245.0835.0142.1105-.0104.027-.002.1002.0187.1628.0431.1306.1661.2088.3283.2088.059 0 .1245.0173.1456.0384.0287.0287.0384.3956.0384 1.4537 0 1.601.0113 1.5294-.2368 1.4954-.121-.0166-.15-.0077-.2369.0728-.11.102-.1261.1626-.0907.3421.0454.2296.2708.2135-2.9995.2148l-2.9481.0013-.288.1583-.288.1584 3.696-.0076 3.696-.0076zm-1.168 1.727c0-.1463.0731-.2923.2038-.407.1094-.096.1598-.1183.3242-.1432.0627-.0095.064-.0342.064-1.224V9.3627l-.1003-.0205c-.2063-.0422-.4277-.289-.4277-.4768 0-.065-.0079-.0653-2.0675-.0653H8.8571l.0178.072c.0099.0396.035.2053.0557.3682l.0378.2962.1367-.126c.0752-.0693.1957-.1436.2678-.1652.0918-.0276.1311-.057.1311-.0983 0-.0485.0255-.0589.144-.0589.1215 0 .144.0098.144.0625 0 .0428.043.0815.1364.1228.2455.1087.4184.327.4588.5793l.021.1314h-.1641c-.144 0-.1641-.008-.1641-.0656 0-.1309-.1648-.3504-.2631-.3504-.0137 0-.0249.2005-.0249.4455v.4455l.12.0385c.339.1086.5506.397.5506.7505 0 .3402-.2063.634-.5186.7383-.1109.0371-.152.0675-.152.1123 0 .0514-.0233.0614-.144.0614-.129 0-.144-.0077-.144-.0736 0-.0556-.0285-.0839-.1166-.1157-.1744-.063-.3835-.2888-.4374-.4721-.0438-.149-.043-.1554.0223-.1754.1683-.0517.2373-.0316.2741.08.0327.0992.1202.2027.2176.258.0312.0176.04-.0791.04-.4398v-.4623l-.1082-.0203c-.1374-.0257-.3487-.1778-.4237-.3049-.0319-.0538-.0676-.0979-.0794-.0979-.0119 0-.0315.054-.0436.12-.0349.1907-.1757.5805-.2976.824-.1678.335-.3428.577-.6426.888l-.27.28H12.928zm-2.9385-.7407c.047-.0325.1094-.1216.1385-.198.0442-.1157.0468-.1617.0157-.2773-.0406-.151-.194-.319-.291-.319-.0565 0-.0607.0293-.0607.4267 0 .2346.0092.4358.0205.4471.022.022.0454.0116.177-.0795zM9.504 9.984c0-.2464-.0086-.448-.019-.448-.0462 0-.1942.1084-.2494.1825-.0775.1042-.1033.3328-.0516.4576.0446.1077.2036.2559.2745.2559.0372 0 .0455-.0818.0455-.448zm-.5762-2.072c0-.0132-.033-.065-.0732-.1153-.0716-.0894-.076-.0905-.2158-.0502-.1786.0514-.1706.0437-.1283.1228.0301.0562.0659.0667.2266.0667.105 0 .1908-.0108.1907-.024zm.7333-.064c-.046-.1212-.1535-.2319-.276-.2841-.107-.0456-.2718-.0585-.3063-.024-.011.011.0376.1045.1078.208l.1278.1881h.38zm2.3041-.2687c.292-.1963.5428-.3674.5575-.3804.0147-.013.006-.0648-.0194-.1152-.117-.2322-.0895-.478.074-.6643.0521-.0593.0947-.1169.0947-.128 0-.011-.2976-.4626-.6614-1.0037-.3638-.541-.6632-.9867-.6653-.9903-.002-.0036-.064.0141-.1374.0395-.196.0675-.3876.0218-.5528-.132l-.081-.0753L8.853 5.2841 7.1316 6.4387l.1602.1055a5.945 5.945 0 01.2726.1913l.1125.0858.0487-.1165c.0268-.064.0771-.1565.112-.2053.0347-.0489.0563-.1165.048-.1502-.011-.0443.0173-.0822.1024-.1367.1033-.0663.121-.0694.1457-.0253.0228.0408.0665.0465.2346.0308.1565-.0146.2423-.0056.3545.0373.1455.0555.3652.2208.3652.2748 0 .0151-.0527.0633-.1172.1071l-.1172.0797-.0918-.0773c-.1011-.0851-.314-.1564-.3523-.118-.0134.0134.084.1865.2163.3846l.2407.3601.1187-.0252c.1946-.0413.4354-.0204.5728.0497.2145.1095.426.3974.426.58 0 .0635.0175.0651.7252.0651h.7253zm1.1868-.092c.368-.2469.679-.4646.6908-.4838.0227-.0368-2.568-3.9284-2.632-3.9535-.0204-.008-1.0843.6869-2.3641 1.5443l-2.327 1.559.1561.0602c.086.033.1778.0548.2042.0482.0264-.0065.867-.5613 1.868-1.2328 1.1098-.7445 1.8492-1.2209 1.8951-1.2209.0512 0 .091.0306.1246.0955.0512.099.1946.1926.2947.1924.0317 0 .1047-.0289.1624-.064.0576-.0352.1325-.0639.1665-.0639.0456 0 .2675.3069.8472 1.1713.432.6442.7855 1.1985.7855 1.2316 0 .0354-.0522.0933-.1266.1402-.2321.1466-.2615.334-.0814.5194.0616.0634.112.1418.112.1741 0 .0403-.1583.1644-.5038.3951l-.5039.3363h.5626zm-4.544-.0491c0-.0325-.4944-.7502-.5168-.7502-.0458 0-.1305.2865-.1094.3704.0268.1068.205.3325.2902.3673.0727.0298.336.0396.336.0125z" id="path794" fill="#000" stroke-width=".032"/>
  </g>
</svg>
