<svg xmlns="http://www.w3.org/2000/svg" version="1.1" id="SVGRoot" viewBox="0 0 12.8 1.8244">
  <g id="layer1" transform="translate(-1.6 -7.36)">
    <path d="M1.6 9.12c0-.0622.0213-.064.7691-.064.7592 0 .7687.0008.7349.064-.0327.0611-.067.064-.7691.064-.7136 0-.7349-.0019-.7349-.064zm1.7013.0386c.0059-.0139.1835-.2654.3947-.5589l.384-.5336.568-.001c.3124-.0006.568.0079.568.0188 0 .011-.0662.1128-.1472.2262-.081.1134-.1373.216-.1254.228.012.012.3482.0291.7472.0379l.7254.016-.176.1761a1.3932 1.3932 0 01-.6976.3802c-.195.041-2.258.0506-2.241.0103zM6.39 9.143c.0143-.0235.1122-.1606.2175-.3048l.1916-.2621H7.972l-.098.136c-.054.0748-.1526.208-.2193.296l-.1213.16-.5847.0087c-.48.0072-.58.0011-.5587-.0338zm1.7197-.0125c.0114-.0295.1029-.1659.2035-.303l.1828-.2493.5858-.001.5857-.0011-.1217.1689c-.067.0929-.165.2294-.2178.3033l-.096.1344-.5714.0007c-.5216.0006-.5697-.004-.5509-.053zm2.0503.0239c-.2895-.0699-.3557-.2627-.1687-.491l.0727-.0888 1.3222.0087 1.3221.0088-.2117.296-.2118.296-1.0144-.0033c-.558-.0018-1.0576-.0137-1.1104-.0264zm2.384-.0343c.033-.0617.067-.064.9451-.064.8896 0 .9109.0015.9109.064 0 .0626-.0213.064-.9451.064-.9352 0-.9448-.0007-.9109-.064zM1.6 8.864c0-.0624.0213-.064.8643-.064.8562 0 .8639.0006.8243.064-.0383.0613-.0747.064-.8643.064-.803 0-.8243-.0017-.8243-.064zm11.104.0384c0-.0914.0955-.1024.8864-.1024.7883 0 .8096.0017.8096.064 0 .0624-.0213.064-.848.064-.4664 0-.848-.0115-.848-.0256zM1.6 8.64c0-.0626.0213-.064.9443-.064.9362 0 .9439.0005.9043.064-.0385.0615-.0747.064-.9443.064-.883 0-.9043-.0015-.9043-.064zm11.296 0c.0327-.0611.067-.064.7691-.064.7136 0 .7349.0019.7349.064 0 .0622-.0213.064-.7691.064-.7592 0-.7687-.0008-.7349-.064zm-7.392-.2626c0-.0212.0576-.1207.128-.2211.0704-.1004.128-.198.128-.217 0-.0239-.355-.037-1.1536-.0429L3.4528 7.888l.197-.264.1969-.264h1.2859c1.2699 0 1.2876.0009 1.4284.072.1701.086.287.2484.287.3988 0 .1268-.0288.1873-.1982.4172l-.1238.168h-.511c-.3777 0-.511-.01-.511-.0386zm1.7949-.4894l.3857-.528h.5737c.3155 0 .5737.0087.5737.0194 0 .0107-.0404.0719-.0898.136a13.5497 13.5497 0 00-.2107.2846l-.121.168.2668-.0007.2667-.0007.2184-.3033.2184-.3033h.5736c.3155 0 .5736.0072.5736.016s-.1674.2464-.372.528l-.3718.512H6.913zm2.9716.392c.0542-.0748.2249-.3088.3793-.52l.2808-.384.6176-.0087c.3397-.0048.6127.0034.6067.0182-.006.0148-.1754.2527-.3765.5287l-.3656.5018H10.172z" id="path184" fill="#000" stroke-width=".032"/>
  </g>
</svg>
