<svg xmlns="http://www.w3.org/2000/svg" version="1.1" id="SVGRoot" viewBox="0 0 12.4497 3.896">
  <g id="layer1" transform="translate(-1.76 -6.912)">
    <path d="M4.5333 10.7519c-.3602-.1282-.6292-.3678-.7842-.6983-.0776-.1657-.0851-.216-.0851-.5736v-.392H2.72v1.6h-.96V6.912h2.144v.832H2.72v.544h1.056v.224c0 .1232.0108.2235.024.2228.0132-.0007.0624-.0567.1093-.1246.1008-.1458.3247-.3068.5517-.3966.124-.049.2397-.0648.483-.0657.2799-.0011.343.0093.503.0832.2584.1193.4933.3492.615.602l.1007.2092.101-.2117c.1952-.4092.5189-.6385.9363-.6634.2984-.0177.4608.0247.6514.1703L8 8.4509V6.912h2.912v.9585l-.536.0087-.536.0088-.0097.168-.0096.168H12.1498l.2043.24c.1124.132.2123.24.222.24.0099 0 .1087-.108.2197-.24l.2018-.24h1.212l-.4537.536c-.2495.2948-.4822.5678-.517.6066l-.0634.0706.4763.5636c.2619.31.496.5914.5201.6254.043.0605.0304.0618-.5777.0618h-.6215l-.2064-.2545c-.1134-.14-.2137-.2551-.2226-.256-.009-.0008-.1088.1137-.2217.2545l-.2053.256H7.968V10.4619l-.1125.1125c-.1872.1871-.2866.225-.5915.2253-.249.0003-.289-.009-.4726-.1085-.3193-.1731-.528-.4536-.6278-.8437L6.1207 9.68l-.8363-.0085c-.6584-.0068-.8363 0-.8357.032.0012.0708.116.2945.1788.3486.1806.1554.4527.153.6334-.0056.1064-.0935.1115-.0945.4953-.0945.3092 0 .3878.009.3878.0444 0 .0766-.254.4287-.383.5309-.223.1766-.4508.2592-.7603.2759-.2296.0123-.3147.003-.4674-.0513zm6.9205-.746c.2505-.296.4485-.5552.4401-.576-.0084-.0208-.222-.2818-.4746-.58l-.4593-.542-.0089.438-.009.4381H9.856v.512h1.088v.4544c0 .2515.0121.4408.0272.424.0149-.0167.232-.2725.4826-.5685zm-.7018.1861v-.304h-1.12v-.8945l.552-.0087.552-.0088V8.4l-.536-.0088-.536-.0087V7.712h1.088v-.64H8.896v3.424h1.856zm1.5235.016c.1347-.1584.254-.288.265-.288.011 0 .128.1288.2598.2862l.2397.2863.392.0018c.2156.001.392-.003.392-.0088 0-.0058-.1943-.2398-.4319-.52-.2375-.2802-.4318-.5167-.4317-.5255 0-.0088.1943-.2443.4318-.5234.2375-.279.4318-.513.4318-.52 0-.007-.1646-.0126-.3658-.0126h-.3659l-.2501.304-.2502.3041-.112-.12a14.347 14.347 0 01-.2727-.3052l-.1607-.185-.3792.009-.3793.0091.435.512c.2392.2816.4354.5225.436.5354.0005.0129-.1253.1713-.2795.352-.1542.1807-.3504.4114-.4359.5126l-.1555.184h.7423zm-4.5103-.229c.2162-.2096.2519-.6525.0754-.938-.2127-.3442-.6655-.2732-.8188.1284-.0751.1966-.0504.5398.0507.7033.156.2526.489.3037.6927.1063zM5.376 9.0548c0-.036-.0566-.126-.1257-.2-.1183-.1268-.1361-.1348-.3017-.1348-.1275 0-.2008.0182-.2663.0663-.096.0704-.2105.2625-.183.307.009.0147.21.0267.4466.0267.4115 0 .4301-.0028.4301-.0652z" id="path408" fill="#000" stroke-width=".032"/>
  </g>
</svg>
