<svg xmlns="http://www.w3.org/2000/svg" version="1.1" id="SVGRoot" viewBox="0 0 12.6023 4.0338">
  <g id="layer1" transform="translate(-1.7337 -5.9822)">
    <path d="M2.1762 9.976c0-.022.015-.0934.033-.1586l.033-.1185.213-.0095.213-.0094.055-.224c.0302-.1232.0931-.391.1398-.5952l.085-.3711.438-.02c.7423-.0339 1.2174-.1927 1.5797-.528.3167-.2933.4936-.781.4194-1.1564-.0175-.0887-.022-.1613-.0098-.1613.0633 0 .2607.2516.3072.3917.0796.2395.0521.6556-.0593.8982-.1708.3718-.6086.6856-1.128.8085-.1228.029-.4392.062-.7032.0732l-.48.0204-.0689.288a69.6625 69.6625 0 00-.14.6l-.071.312h-.428c-.3213 0-.428-.01-.428-.04zm-.3997-.56c.247-1.0613.7835-3.3988.7835-3.4133 0-.0398 1.6477-.0165 1.89.0267.5628.1004.8197.3561.8535.8496.0636.9277-.7187 1.505-2.0395 1.505h-.3757l-.065.28c-.0357.154-.098.4276-.1385.608L2.611 9.6h-.8774zM4.016 7.593c.1596-.0833.2546-.1836.3185-.3364.07-.1676.0618-.2611-.0329-.3736-.1114-.1324-.2587-.1687-.6373-.157l-.3197.01-.1178.416c-.0648.2288-.1189.443-.1203.4759-.0023.056.0222.059.3895.0459.3167-.0113.4166-.0268.52-.0808zM9.28 9.2331c0-.0098.0648-.1153.144-.2344l.144-.2166-.0956-.543c-.0526-.2987-.0958-.5539-.096-.5671-.0002-.0132.0844-.024.188-.024h.1884l.0394.328c.0217.1804.0491.346.061.368.0129.0242.1025-.1008.2257-.3151.1124-.1954.2215-.3618.2425-.3699.021-.008.111-.0102.2-.0048l.1618.0098-.5023.784-.5023.784-.1993.0095c-.1096.0053-.1993.0015-.1993-.0084zM7.9332 8.791c-.2066-.1587-.143-.4905.1178-.6143.0674-.032.2455-.075.3958-.0957.2797-.0385.308-.0612.2155-.1727-.0375-.0452-.3615-.0362-.5313.0147-.074.0222-.0762.0183-.0571-.0994.0245-.151.0488-.1665.3043-.1939.2669-.0286.513.0023.6133.0768.1146.0852.1168.2125.012.6855L8.913 8.8h-.1845c-.1419 0-.1845-.011-.1845-.0475 0-.0388-.0191-.0359-.104.0159-.1192.0726-.4239.0862-.5068.0226zm.5765-.2298c.0981-.0508.1303-.1071.1303-.2284 0-.0829.014-.0814-.248-.0263-.1108.0233-.2.1022-.2.1769 0 .1159.1656.1564.3177.0778zm3.7438.1773c-.1072-.1072-.1186-.2119-.0411-.3753.0708-.1491.253-.2365.5851-.2806.2817-.0374.3301-.0704.2383-.1623-.0445-.0444-.0925-.0517-.2495-.0378-.1068.0095-.2359.0275-.2867.04l-.0924.0227.0233-.1246c.0129-.0684.0396-.1345.0594-.1467.0614-.038.4362-.067.6054-.047.0884.0105.1956.0419.2382.0697.1428.0936.1473.173.0375.6576L13.27 8.8h-.1904c-.1561 0-.1871-.0086-.172-.048.024-.0625.0107-.0607-.1148.0159-.07.0427-.1614.0639-.2753.064-.1458 0-.184-.0134-.264-.0934zm.6608-.1964c.0418-.0347.1198-.2547.098-.2765-.0338-.0337-.3642.064-.4123.122-.0695.0837-.0698.106-.0024.1734.0587.0587.236.0482.3167-.019zm-6.6097.2339c.0004-.0132.0774-.3552.1712-.76l.1704-.736.429.0012c.5992.0016.7328.0801.7328.4305 0 .337-.224.5237-.6967.5803-.3188.0382-.3146.0363-.3392.1595a4.327 4.327 0 01-.0538.2268L6.6855 8.8h-.1907c-.105 0-.1905-.0108-.1902-.024zm.8705-.7774c.1365-.038.2169-.1342.2169-.26 0-.1145-.1063-.1866-.2752-.1866h-.133l-.052.2066c-.0284.1136-.0518.2216-.0518.24 0 .0426.1416.0426.295 0zm3.4922.747c.009-.0317.083-.3528.1643-.7136s.1557-.6828.1654-.7156c.0163-.0551.0492-.0586.4383-.0463.4412.014.5474.043.6756.1847.081.0896.0839.358.0053.507-.0727.138-.31.2865-.4964.3107a34.184 34.184 0 00-.3052.0413l-.1574.0222-.051.224-.0509.224-.2023.0096c-.182.0086-.2007.0038-.1857-.048zm.9795-.8039c.0824-.0615.1271-.175.1047-.2658-.0174-.0702-.144-.1239-.292-.1239-.1202 0-.1217.0015-.1591.168a9.3164 9.3164 0 01-.0582.245c-.02.0761-.0181.0769.1523.0567.095-.0113.2085-.0472.2523-.08zm2.1286.1463c.0909-.3916.1752-.7516.1875-.8.021-.0826.0331-.088.1977-.088.107 0 .1754.0138.1754.0354 0 .0327-.3044 1.3815-.3404 1.5086-.0128.045-.052.056-.2006.056h-.1847z" id="path690" fill="#000" stroke-width=".032"/>
  </g>
</svg>
