<svg xmlns="http://www.w3.org/2000/svg" version="1.1" id="SVGRoot" viewBox="0 0 12.6286 8.6957">
  <g id="layer1" transform="translate(-1.7603 -3.623)">
    <path d="M5.0947 11.9557c.0122-.3247.025-.385.1454-.6917.0727-.1848.1906-.4883.2622-.6744.0716-.1862.1873-.4331.257-.5488l.1269-.2102-.0912-.2673c-.1028-.3013-.1644-.4433-.1921-.4433-.0104 0-.0596.1188-.1092.264-.1336.3904-.2962.7111-.4339.8558-.1892.199-.2183.1939-1.4383-.252-.1994-.073-.4961-.1562-.6594-.1852L2.6652 9.75l-.1816.104c-.2395.137-.3527.235-.4724.409-.0973.1414-.0997.1427-.16.0824-.0337-.0337-.0697-.1136-.0801-.1775-.0367-.226.0147-.3876.233-.733.2491-.3945.3795-.5389.4864-.5389.0783 0 .2543.091.3735.1932.0376.0322.15.0641.272.0773.4634.0499 1.0398.1937 1.244.3104.0595.034.1152.0546.1238.046.0145-.0145.015-.8998.001-1.6029-.005-.2578.0037-.3064.0834-.4638.049-.0967.1375-.2433.1968-.3259l.1079-.15-.1665-.0184a7.7135 7.7135 0 00-.3104-.027l-.144-.0088.224-.1085c.1232-.0597.3697-.1867.5477-.2821.3034-.1628.3356-.1899.5153-.4345a19.187 19.187 0 00.385-.549c.215-.3205.332-.4421.568-.59.1772-.1111.5352-.2335.6048-.2068.0756.029.0985-.0535.1168-.4213.019-.3834.0643-.509.2267-.63.1764-.1315.6077-.0972.7987.0636.1492.1255.239.3285.1453.3285-.0337 0-.0416.05-.0341.216.0053.1188.0196.2628.0317.32.019.0893.0133.104-.0403.104-.0503 0-.0715.039-.109.2-.0447.1917-.0506.1998-.1416.1958-.0523-.0023-.1265-.0146-.165-.0272-.0555-.0183-.1023.0073-.2272.1241l-.1573.1472-.0192.2727c-.0204.288-.13.5982-.25.7067-.1398.1266-.0232.3168.2517.4105.0907.0309.259.0504.4377.0507.307.0005.3456.0114.3814.108.0208.0564.0516.0594.451.0442l.4285-.0164.1037.3957.1037.3956 2.4694.0082 2.4695.0082-.3065 1.1757-.3064 1.1756-1.848.0004c-1.242.0002-1.848.011-1.848.0331 0 .0181.0449.212.0997.431l.0997.3982 1.3696.009 1.3696.009.1387.0975c.4412.3098.3798.9769-.1087 1.181-.231.0965-.5474.044-.7233-.12-.1989-.1855-.2718-.5544-.1544-.7809.0292-.0563.0531-.1103.0531-.12s-.2524-.0176-.5608-.0176h-.5608l.0505.0978c.2478.4792-.1283 1.0287-.6732.9835-.2238-.0185-.412-.1435-.5197-.3453-.1039-.1944-.0932-.5203.0222-.6763l.0762-.1031-.0883-.3703c-.0486-.2037-.2766-1.0939-.5066-1.9783l-.4183-1.608h-.383c-.3277 0-.3892.0081-.4247.056-.035.047-.052.0496-.1071.016-.0445-.0271-.2175-.0402-.538-.0408-.2598-.0004-.53-.016-.6004-.0346-.2955-.0782-.2899-.0793-.4573.0925-.1138.1169-.1841.231-.2608.423l-.1049.2628.227.4714c.2555.5307.3795.8426.4198 1.0562.0359.1899-.0039.2782-.3821.8491-.3666.5534-.5044.8236-.5695 1.1169-.0856.385-.0808.4075.0992.4748.0855.032.2615.0739.3912.0932.2608.0388.324.0803.2585.17-.0377.0516-.1138.0578-.7868.065l-.745.008zm5.6553.0498c.1202-.0644.226-.2318.226-.3575 0-.2064-.2191-.416-.4348-.416-.1188 0-.3005.1147-.3563.225-.022.0434-.04.1294-.04.191 0 .15.0577.255.1883.343.1308.0882.2704.093.4168.0145zm2.2037.0138c.273-.1412.3239-.463.106-.6717-.2009-.1925-.5207-.1296-.645.127-.0809.1672-.065.2878.0574.4332.1319.1567.313.1987.4816.1115zM10.7716 9.784a66.976 66.976 0 01-.1216-.464l-.1018-.392h-.3728c-.205 0-.3804.0077-.3899.0171-.0094.0095.035.2182.0987.464L10 9.8557l.3957.0001c.395.0001.3957 0 .3759-.0719zm.9404-.3901c0-.2542-.0108-.4677-.024-.4745-.0132-.0068-.235-.006-.4928.0016l-.4687.014.1097.4205c.0603.2313.116.4385.1237.4605.0102.0289.1167.04.3831.04h.369zm1.1152.0861c.0547-.2068.1088-.4232.1202-.4808l.021-.1048-.5402.0088-.5402.0088-.0089.472-.0089.472h.8575zm.7535.32c.063-.2079.2452-.912.2372-.9167-.0054-.0032-.1557-.0004-.334.0063l-.324.0121-.116.4401c-.0637.2421-.1159.4568-.1159.4772 0 .0255.0985.037.3178.037.275 0 .3202-.0076.3349-.056zM10.496 8.7434c0-.0136-.0276-.1252-.0612-.248a52.548 52.548 0 01-.0973-.3594L10.3015 8h-.3827c-.285 0-.3828.0102-.3827.04 0 .037.1432.598.1755.688.0161.0447.7844.0598.7844.0154zm.9488-.0074h.2672V8h-.608c-.3344 0-.608.0082-.608.0182 0 .0236.1575.656.178.7144.0123.0355.0659.0404.2596.024a7.3633 7.3633 0 01.5112-.0206zm1.6117-.136c.0366-.1424.1195-.4481.1475-.544.0152-.052-.0309-.056-.6578-.056h-.6742v.736h1.1495zm.8937-.192c.0422-.1628.0832-.3212.091-.352.013-.0507-.0175-.056-.3192-.056h-.3334l-.0781.312a81.07 81.07 0 01-.0887.352c-.0079.0301.0714.04.3205.04h.331z" id="path264" fill="#000" stroke-width=".032"/>
  </g>
</svg>
