<svg xmlns="http://www.w3.org/2000/svg" version="1.1" id="SVGRoot" viewBox="0 0 12.7725 4.085">
  <g id="layer1" transform="translate(-1.618 -5.9592)">
    <path d="M8.56 10.0268c-.1639-.02-.6696-.1388-.7171-.1686-.0381-.0239-.0312-.0936.0445-.4473.0493-.2304.096-.4189.1037-.4189.0077 0 .1389.0445.2915.099.2147.0765.3514.1029.6048.1165.3802.0205.5613-.0286.6957-.1883.1866-.2217.063-.4044-.4631-.6853-.4178-.223-.6532-.4204-.7848-.658-.0847-.153-.0952-.2019-.095-.4439.0001-.2359.0126-.2975.0942-.464.1832-.3741.5998-.6635 1.1117-.7724.433-.092 1.4122.0032 1.4584.1418.0107.0322-.139.7719-.1607.7935-.0046.0046-.0894-.019-.1884-.0524-.2976-.1005-.6132-.1372-.8383-.0976-.2195.0386-.3355.1087-.401.2424-.0377.0771-.0369.104.0064.1946.0502.1053.1638.1822.7095.4799.2564.1399.5404.4074.6105.5752.2436.5831-.0328 1.2532-.6405 1.5524-.3478.1712-.9722.2584-1.442.2014zM3.68 9.963c0-.0695-.8433-3.2681-.8807-3.3404-.0252-.0487-.0929-.1175-.1505-.153-.1041-.064-.654-.2603-.9115-.3254-.098-.0248-.1297-.0469-.1165-.0812.028-.0728 1.8179-.0696 1.9713.0036.2093.0998.2308.1653.4723 1.4371.1231.6485.228 1.1832.233 1.1882.005.005.2478-.5914.5396-1.3254l.5305-1.3346.5323-.0088c.2927-.0048.5322.0013.5322.0136 0 .0123-.3705.9055-.8234 1.9848L4.7852 9.984h-.5526c-.304 0-.5526-.0094-.5526-.0209zm2.3845-.0503c.01-.04.202-.9257.4269-1.9682.2248-1.0425.4166-1.9033.4262-1.9129.0096-.0095.2403-.0134.5128-.0085l.4953.0088L7.5057 8l-.4202 1.968-.5195.0088-.5196.0088zm4.686-.064c.0329-.0753.3864-.9131.7856-1.862.3992-.9489.7425-1.752.7629-1.7849.0203-.0328.0955-.088.1671-.1228.112-.0543.1977-.0631.616-.0631.2672 0 .4859.0082.4859.0183 0 .0266.8002 3.8273.8198 3.8937.0152.0516-.0214.056-.4634.056h-.4799l-.0367-.184a7.2092 7.2092 0 00-.0677-.3046l-.031-.1207-.659.0087-.6592.0086-.1038.288-.1037.288-.5462.0088-.5463.0087zM13.1403 8.52c-.0088-.0308-.0752-.344-.1475-.696-.0722-.352-.1391-.6616-.1486-.688-.0122-.0337-.5487 1.3497-.5554 1.432-.0004.0044.1947.008.4335.008.3982 0 .4328-.0046.418-.056z" id="path562" fill="#000" stroke-width=".032"/>
  </g>
</svg>
