<svg xmlns="http://www.w3.org/2000/svg" viewBox="0 30 210 230" version="1.1" id="svg8">
  <g id="layer1">
    <path d="M86.0372 227.6072c-.0656-.1062-.2546-.1577-.42-.1144-.47.1229-.748-.1486-.7776-.7592-.0263-.544.0391-.8957.5297-2.846.1289-.5122.2821-1.2361.3406-1.6086.0584-.3726.2624-1.0416.4533-1.4868.191-.4453.2944-.8623.23-.9267-.0645-.0644-.6823-.0936-1.373-.0648-.6906.0288-1.5245-.0363-1.8532-.1448-.4928-.1627-.5975-.2796-.5975-.6669 0-.4473.0383-.4697.8043-.4707.7328-.002 2.6368-.4234 3.2597-.7232.1397-.0673.278-.3432.3072-.6132.0293-.27.2388-1.0854.4657-1.812.2268-.7266.4124-1.5077.4124-1.7357 0-.518.2546-.533.5765-.0336.2874.446.2607 2.639-.0413 3.3867-.1035.256-.171.4646-.15.4634.021-.002.5212-.1536 1.1116-.3386 1.4038-.44 1.8899-.4395 1.8899.002 0 .1862.1062.3386.2359.3386.3335 0 .4964.5294.236.7667-.2873.2617-2.1372.8866-2.6645.9001-.575.0147-1.2703.5723-1.3213 1.0596-.0919.8778-.4162 2.2032-.6573 2.6867-.265.531-.3856 1.4321-.476 3.5549-.0504 1.1848-.2463 1.6308-.521 1.1862zm7.539-2.0302c-.2329-.0747-.633-.182-.889-.2385-.514-.1133-.638-.4334-.1694-.4375.235-.002.248-.0333.0623-.1508-.2772-.1755.0062-.2919 1.0807-.4438l1.2622-.1785c.7127-.1008 1.5706.0679 1.4378.2828-.0533.0863.023.2767.1695.4232.365.3652.183.5777-.4947.5777-.3127 0-.6072.0952-.6544.2117-.0647.1593-.1304.1488-.2656-.0423-.0988-.1397-.1809-.1778-.1825-.0847-.0037.213-.7975.2602-1.357.0807zm-.8024-3.9075c-.1916-.0709-.3924-.2002-.4463-.2874-.1542-.2495.4267-.6582 1.1093-.7804.3425-.0613.6502-.194.6839-.2949.0606-.182 1.5652-.8214 1.9334-.8217.1055 0 .236.1685.2899.3746.1295.4951-.293.945-1.0146 1.0804-.314.059-.7416.2396-.9504.4015-.4662.3616-1.1413.4995-1.6052.328zm30.3946-16.059c-.1338-.191-.2936-.297-.355-.2356-.0616.0615-.1119.0322-.1119-.065 0-.0973.1143-.2717.254-.3876.1397-.116.254-.3158.254-.444 0-.1284.0731-.2333.1625-.2333.0894 0 .2539-.3048.3655-.6774.1116-.3725.3019-.6773.4229-.6773.3022 0 1.1555-2.883 1.5035-5.08.1549-.9779.3194-1.9685.3655-2.2013.0462-.2329.0851-.5377.0866-.6774.002-.1397.0704-.4826.1534-.762.0829-.2794.197-.8128.2536-1.1853.0566-.3725.2415-1.0964.4106-1.6087.1692-.5122.3436-1.209.3874-1.5485.044-.3394.1332-.7034.1983-.8088.0652-.1055.1414-.6278.1694-1.1609.028-.533.217-2.3407.4201-4.0171.332-2.74.3635-4.732.0822-5.187-.121-.1959-2.2344 1.5488-3.1191 2.5747-.419.4858-.9754 1.2217-1.2367 1.6353-.3255.5154-.5564.7208-.7335.6529-.1422-.0546-.3543-.0992-.4715-.0992-.1171 0-.2953-.1809-.396-.402-.1587-.348-.1283-.4312.2268-.6212.2254-.1207.4099-.291.4099-.3786 0-.1797.203-.4226 1.6698-1.998.5703-.6125 1.2447-1.222 1.4987-1.3546.5117-.267.7998-.4939 1.6293-1.2833.3089-.2939.7782-.5606 1.043-.5927l.4813-.0583.0742 2.032c.1973 5.4075-.071 8.0202-1.3213 12.8694-.4804 1.8626-.9 3.6152-.9324 3.8946-.194 1.6694-.866 4.8518-1.3942 6.604-.622 2.0636-1.1849 3.16-1.843 3.5909-.3264.2137-.39.2023-.6078-.1087zm-29.0612-1.6619c-.0127-.3958-.0992-.7196-.1924-.7196-.0931 0-.1693.1143-.1693.254 0 .393-.2907.2997-.3955-.127-.0515-.2096-.1456-.7796-.209-1.2668-.0636-.4872-.1798-.846-.2583-.7976-.1566.0968-.1532-1.6933.0036-1.9207.0534-.0775.2856-.2698.5158-.4274.2303-.1576.3204-.2865.2003-.2865-.1414 0-.1805-.1195-.111-.3387.069-.217.0305-.3387-.107-.3387-.3194 0 .0745-.3514.4568-.4075.17-.025.382-.2673.4708-.5386.0889-.2713.2221-.5332.2961-.582.149-.0984.513-1.3978.552-1.9694.0135-.2006.0782-.3317.1437-.2913.1818.1124.6433-1.6027.6404-2.3802-.0014-.379-.0733-.8007-.1596-.9373-.0996-.1574-.091-.328.0235-.4659.0993-.1196.1976-.846.2184-1.6143.031-1.1436-.021-1.4814-.2873-1.8637-.305-.4378-.3191-.7058-.2278-4.3099.0556-2.1912.17-3.9156.2664-4.012.093-.0929.169-.492.169-.887s.0668-.7595.1485-.81c.0816-.0505.1462-.3788.1434-.7296-.0051-.6555.1675-2.3813.3433-3.432.272-1.6256-.0925-6.1178-.5978-7.366-.3127-.7725-1.5623-2.1166-1.9677-2.1166-.149 0-.275.1333-.28.2963-.03.9874-.1582 2.3087-.2528 2.607-.175.551-.2642 1.1687-.3267 2.2614-.032.5588-.065 1.0884-.0735 1.1768-.0084.0885-.1068.0694-.2186-.0423-.3109-.3109-.4744-.2433-.4298.1778.0509.4801-.4103.442-1.145-.0946-.4748-.3468-.6736-.3688-3.048-.338-2.9204.0377-3.302-.08-3.302-1.0197 0-1.43 2.1803-3.589 5.0183-4.969 1.0584-.5148 1.93-.9855 1.937-1.0461.1027-.9019.0807-2.0845-.0402-2.1593-.0855-.0529-.1193-.223-.0751-.3781.1183-.4152.2914-1.8908.2218-1.8908-.233 0-2.529.864-2.8511 1.073-.3836.2488-2.451.9762-3.387 1.1917-.2925.0674-.5184.0158-.6557-.1497-.1152-.1388-.338-.2523-.495-.2523-.5357 0-.8914-.4018-.773-.8733.0963-.3838.2181-.4478 1.0074-.5293.4938-.051 1.0405-.1686 1.215-.2613.1743-.0928 1.2695-.5263 2.4336-.9633 3.4835-1.3078 3.9578-1.5379 4.2135-2.0444.1473-.2917.2658-1.2922.3194-2.6963.081-2.1249.069-2.2368-.2524-2.3209-.1857-.0486-.4819-.007-.658.0914-.4554.2554-2.9385.3063-3.69.0757-.6994-.2146-1.2526-.8637-1.3619-1.5982-.0392-.2637-.1206-.6395-.1808-.8352-.0644-.2095-.014-.4531.1227-.5927.1276-.1303.5183-.7512.868-1.3799.35-.6286.713-1.143.8072-1.143.094 0 .1277-.07.0748-.1556-.053-.0856.1521-.4198.4557-.7425.3035-.3228.8146-.9195 1.1357-1.326.3212-.4066.7022-.8096.8467-.8957.1445-.086.5044-.3962.7998-.6894.2953-.293.8257-.7532 1.1787-1.0224 1.0503-.801 3.4176-3.2245 4.9496-5.067.3131-.3766.6941-.761.8467-.854.1525-.0931.279-.2456.281-.3387.002-.0931.3-.7408.6623-1.4393.616-1.188.9803-2.2883.953-2.8787-.0777-1.684-.13-2.2081-.2303-2.3084-.0653-.0653-.1187-.2478-.1187-.4055 0-.1578-.1905-.5676-.4233-.9107-.2329-.343-.4234-.692-.4234-.7752 0-.0833.334-.2015.742-.2627.6292-.0944.812-.0508 1.2015.286.4135.3574.915 1.1176.959 1.4537.009.0708.0982.3193.1977.5521.0995.2329.1856 1.2616.1914 2.286.009 1.6523-.0325 1.9296-.37 2.4554-.2091.326-.3806.7746-.381.997-.0006.4286-1.111 1.7658-1.8575 2.2372-.236.149-.8482.7083-1.3604 1.243-.5414.565-1.2868 1.1315-1.7803 1.353-.8702.3906-1.4785.9122-2.3694 2.0316-.2789.3503-1.2513 1.3974-2.161 2.3269-.9097.9295-1.8122 2-2.0055 2.3789-.1933.3788-.5645.8681-.825 1.0873-.2604.2191-.5956.7035-.7448 1.0764-.1492.373-.3375.678-.4185.678-.081 0-.1098.1956-.064.4348.0765.4005.1446.4312.8654.3896.4304-.025 1.2699-.2205 1.8656-.4348.5958-.2143 1.2244-.3896 1.397-.3896.346 0 .4295-.2719.1158-.3765-.1416-.0472-.1176-.2274.0843-.6321.2237-.4485.2398-.6175.0775-.8131-.164-.1975-.1469-.2894.085-.459.3057-.2235.4108-.5233.1206-.344-.0932.0576-.1694-.0522-.1694-.244 0-.1917.0762-.3486.1694-.3486.0931 0 .1693-.2202.1693-.4893 0-.63.5264-1.2982.9075-1.152.4289.1646.5886.7735.6476 2.4686.0533 1.5354.0947 1.6791.4007 1.3928.0885-.0828.6943-.324 1.3462-.5361.652-.212 1.2615-.442 1.3547-.511.3605-.267 1.6893-.3507 1.9893-.1254.2794.2098.2729.2792-.1152 1.2307-.4084 1.0017-.8124 1.5096-2.3629 2.971l-.8084.762.298-.6329c.3597-.7641.2523-.9244-.385-.5746-.2632.1444-.688.3493-.9442.4553-.4301.178-.4657.2656-.4666 1.1498-.0005.5264-.0732 1.2238-.1615 1.5497-.0883.326-.1945.999-.2359 1.4957-.0736.8834-.0664.9009.332.8009.224-.0562.9817-.4626 1.6837-.903 1.7125-1.0746 1.9446-1.2252 2.8064-1.8222.9342-.6472 1.864-.9694 2.4056-.8334.4919.1234.7005.699.3724 1.0272-.1259.1258-.2547.2954-.2863.3768-.0316.0814-.5527.487-1.158.9012a278.3366 278.3366 0 00-2.2347 1.5487c-.6236.4376-1.775 1.0974-2.5585 1.4662-1.369.6444-1.4319.699-1.6086 1.3966-.1012.3993-.2357 1.3356-.299 2.0807-.1514 1.7832-.1587 1.8409-.261 2.035-.2266.4302-.0297.6707.6614.8074.5564.11.9568.3696 1.706 1.106 1.3628 1.3395 1.8132 2.3782 1.959 4.5182.163 2.3923.201 2.6786.4456 3.3551.1543.4268.1656.6668.0388.8248-.1713.2135-.2723 3.8031-.1812 6.4458.0158.4586-.2219 4.602-.2871 5.0062-.0254.157.0186.4108.0976.564.0958.1855.0576.3501-.1143.4928-.1475.1224-.2104.3297-.1468.4834.2294.5544.1869 2.1268-.0656 2.426-.1364.1617-.2442.5046-.2396.762.0047.2574.008 1.1918.0074 2.0766-.0007.8848.0082 1.8247.0195 2.0887.0262.6115-.4605 3.1988-.625 3.3218-.0682.051-.1437.2733-.1679.494-.0241.2205-.2718.7387-.5503 1.1514-.2786.4127-.5065.8277-.5065.9221 0 .0944-.1933.5945-.4297 1.1112-.2363.5167-.5347 1.369-.663 1.8941-.1283.5251-.3487 1.3357-.4897 1.8014-.141.4656-.2896 1.0371-.33 1.27-.046.2646-.082.1536-.0965-.2964zm-4.595-35.8246c.6985-.1106 1.2739-.2772 1.2787-.3704.0048-.093.0764-.6265.1592-1.1853.0828-.5588.1593-1.2446.17-1.524.0255-.6584.2352-1.27.4355-1.27.0868 0 .1579-.0773.1579-.1718 0-.2425-1.787.7058-2.7788 1.4746-1.18.9147-1.8038 1.753-1.9136 2.5719l-.0935.6973.6573-.0106c.3615-.006 1.2288-.1011 1.9273-.2117zm36.6616 7.1226c.1159-.4073.6843-1.5655 1.1964-2.4379l.3128-.5329-.6185-.6846c-.7443-.824-1.244-1.7209-.9587-1.7209.395 0 2.9533 2.5673 3.0956 3.1065.1316.4987-2.0665 2.6508-2.7074 2.6508-.3638 0-.4123-.0577-.3202-.381zm3.7643-7.8441c-.3878-.2112-.4384-.3102-.2952-.5778.0951-.1777.2426-.7652.3278-1.3057.0852-.5405.2707-1.4399.4121-1.9987.28-1.1065.8195-5.1092.7987-5.9267-.019-.7487-1.036-2.6673-1.5425-2.91-.2342-.1124-.6845-.2498-1.0005-.3055-.316-.0557-.6328-.1372-.704-.1812-.0712-.044-.5828-.1153-1.1368-.1584-1.4158-.11-2.2968-.5414-3.973-1.9453-2.208-1.8491-2.8678-4.3132-2.1999-8.2156.332-1.9396 2.7919-5.0329 4.7437-5.965.7302-.3488.8913-.5042.902-.8705.007-.2452.0428-.5982.0794-.7845.0366-.1862.0773-.7196.0905-1.1853.0132-.4657.0924-1.1724.1762-1.5706.0837-.3981.1968-1.6935.2513-2.8786.146-3.1769.3407-4.952.5673-5.1747.1536-.151.2822-.098.546.225.3315.406.3417.5834.2621 4.572-.0455 2.2822-.1334 4.34-.1953 4.5729-.0619.2328-.118.9186-.125 1.524-.0116 1.0202.0131 1.0969.3382 1.049.1928-.0283.5442.0754.7808.2304.2366.155.549.2362.6944.1805.274-.1052 1.0367.3007 1.3673.7275.2796.361-.0294 1.3142-.7135 2.2007-.3172.4111-.5767.84-.5767.953 0 .113-.1098.2965-.244.4079-.1341.1113-.2085.2948-.1651.4077.0433.1128-.0565.355-.222.538-.1653.183-.5185.5961-.7847.9181-.5042.6097-.7939.7295-1.3993.5787-.5478-.1364-.6825-.6497-.7274-2.7726-.0227-1.0709-.0563-1.962-.0746-1.9804-.0316-.0316-1.4935 1.4022-2.0497 2.0104-.143.1563-.2599.3408-.2599.41 0 .0692-.108.246-.2398.3931-.2121.2364-.4483 1.1323-.6853 2.5996-.0417.2583-.1103.5254-.1524.5936-.2006.3245.307 2.0582.8373 2.8602.3184.4814.5789.9911.5789 1.1327 0 .2426.9037 1.424 1.7359 2.269.3847.3906.9575.6276 2.7514 1.1384 1.6702.4755 2.318.8763 2.9633 1.8335.7874 1.1678 1.0219 2.0795 1.0315 4.0117.0161 3.2208-.7963 6.884-1.7788 8.02-.5068.586-.5368.5966-.9907.3495zm-1.3772-26.767c.323-.2464.7442-.6682.9358-.9372.419-.5885.2495-.8926-.5306-.952-.2905-.0222-.5806-.0478-.6447-.0569-.4746-.0675-.5399.0788-.5399 1.209 0 .6519.0432 1.1853.096 1.1853s.3603-.2017.6834-.4481zM87.652 134.014c-.0014-.1165-.096-.1927-.2102-.1694-.1143.0233-.2339-.129-.2658-.3386-.032-.2096-.129-.381-.2157-.381-.2703 0-.1876-1.5231.0885-1.629.19-.073.2036-.1624.0594-.3932-.1395-.2235-.127-.433.0493-.8316.1298-.2931.298-.5329.3739-.5329.0759 0 .0887-.0797.0285-.177-.0602-.0975-.0095-.8284.1126-1.6244l.222-1.4472 1.0628-1.0892c.5845-.599 1.0628-1.1636 1.0628-1.2544 0-.2258.2285-.2075.4741.038.158.158.2032.158.2032 0 0-.1117.1623-.2032.3607-.2032.3346 0 .3518.0581.238.8043-.0676.4424-.1266 1.014-.131 1.27-.006.3346-.0952.4657-.3167.4657-.4984 0-.8537.986-1.111 3.083l-.0977.7972.5712-.0777c1.993-.271 3.1082-.3906 3.16-.3388.0327.0327-.6237.7427-1.4588 1.5777-1.1678 1.168-1.659 1.5447-2.1285 1.6328-.3833.0719-.6102.2103-.6102.3722 0 .1807-.1013.2256-.3387.1502-.1899-.0603-.3386-.0304-.3386.068 0 .0964-.122.1286-.2711.0713-.1491-.0572-.3385.002-.4208.1324-.107.1689-.1504.176-.1522.0247zm39.1134-12.1965c0-.0723-.3043-.1025-.6763-.067-.584.0557-.6962.0104-.823-.3321-.0911-.2466-.0781-.5063.0344-.6865.1348-.2159.1106-.4376-.0947-.8683-.235-.4926-.601-1.8204-.9075-3.291-.098-.4701.1152-.4894.5159-.0467.1664.184.4284.3743.5822.4232.1539.0487.412.3128.5738.5866.3428.5803.937.8355 1.151.4943.0792-.1263.272-.6489.4284-1.161.1565-.5123.453-1.3124.6589-1.778.6-1.3571.8545-3.142.6325-4.4379-.251-1.465-.5718-1.8093-1.5676-1.6822-.4191.0535-1.0477.1796-1.397.2802-.5894.17-.635.229-.635.8226 0 .6946-.7578 3.4156-.9937 3.5685-.2084.135-1.264 2.2091-1.264 2.4835 0 .1267-.1453.2764-.3228.3327-.1788.0568-.284.2031-.236.3283.0477.1242-.1096.4221-.3495.662-.24.24-.3531.4362-.2516.4362.2646 0-.2667.8574-.7985 1.2886-.2423.1964-.6115.411-.8205.4767-.3133.0986-.3602.0682-.2676-.1733.0764-.1991.049-.2537-.0857-.1704-.109.0673-.198.0518-.198-.0345 0-.211-1.1464-.1226-1.778.1372-.8719.3586-1.6026.4853-1.7183.298-.1313-.2124 1.0127-1.329 1.7548-1.7128.6784-.3508 2.0581-1.2568 2.5034-1.644.1863-.1619.491-.323.6774-.3578.2214-.0415.325-.1792.299-.3979-.0226-.1911.2495-.6585.635-1.0904.371-.4157.6746-.8546.6746-.9754 0-.1207.2667-.599.5927-1.0627s.5927-1.0218.5927-1.24c0-.2183.0537-.4506.1192-.5162.0656-.0656.1458-.3165.178-.5576.0744-.5554.0608-.5502-2.4933.956-2.4564 1.4486-2.819 1.602-2.9542 1.2496-.0545-.142-.0991-.3153-.0991-.3851 0-.1548 1.4163-1.0852 2.1167-1.3904.2794-.1218.7366-.3853 1.016-.5856.2794-.2003.889-.5021 1.3546-.6708.4657-.1686.8615-.3142.8795-.3235.0181-.009-.0422-.3508-.1339-.759-.1068-.4754-.1082-.8005-.004-.905.0897-.0897.1227-.268.0735-.3964-.1061-.2766.1782-.3026.6351-.058.1914.1024.3276.3534.3276.6037 0 .5229.3018 1.1264.5015 1.003.2157-.1334 3.3676-.766 3.816-.766.3231 0 .4727.2156.921 1.3278.4924 1.2216.527 1.4332.4332 2.6462-.1494 1.9303-.606 3.8831-1.1574 4.9487-.1539.2974-.3232.8308-.3762 1.1854-.154 1.0287-.4144 1.9145-.563 1.9145-.0753 0-.2792.3152-.4529.7005-.1737.3852-.4575.8805-.6307 1.1006-.3085.3923-.6289.5292-.6289.2688zm-36.0336-3.0888c-1.573-.959-3.2517-2.5904-3.2517-3.1599 0-.1231-.0807-.2238-.1794-.2238-.0986 0-.1322-.0762-.0746-.1694.0575-.093.0339-.1693-.0526-.1693-.0864 0-.3516-.4484-.5893-.9965-.5123-1.1812-.7448-2.4674-.476-2.6335.4704-.2908 2.0737 1.613 2.6266 3.119.188.512.4414.7732 1.438 1.482l.7699.5476.597-.5634c.3284-.3099.8447-.733 1.1474-.9402.516-.3532.6411-.3375.5543.0696l-.0901.4234c-.0298.1397-.1069.3873-.1714.5503-.0646.163-.0521.2965.0277.2966.2005.0004.2478 1.8313.0505 1.9532-.0876.0542-.1594.0202-.1594-.0755s-.1143-.1302-.254-.0765c-.1397.0536-.2546.1846-.2553.291-.0012.1672-.7374.6181-1.0061.6163-.0513-.0004-.3445-.1538-.6515-.341zm43.8868-6.392c-.371-.2428-1.3792-2.5082-1.4951-3.3595-.1239-.9091.1257-1.4216.6925-1.4216.4213 0 .908.3338.908.6228 0 .1497.2668.9466.5927 1.7709.727 1.8384.7572 2.2148.1694 2.1082-.2905-.0527-.4234-.0005-.4234.166 0 .2664-.151.305-.444.1132zm-39.4925-1.3317c-.1816-.2012-.6034-.2419-2.0746-.2-1.0158.029-1.8446.0145-1.842-.032.0162-.2802 1.4154-1.5505 2.0797-1.8881l.7886-.4008-.2508-.4836c-.138-.266-.251-.5953-.251-.7319 0-.1365-.2618-.6429-.582-1.1251-.4921-.7415-.568-.9814-.4913-1.5532.0906-.6754.0898-.6765-.6456-.8872-.405-.116-1.2317-.2241-1.837-.2401-1.6716-.0442-2.7978-.6858-3.2958-1.8778-.3606-.863-.3251-1.9679.0937-2.9147.4242-.959 2.2392-2.8907 2.5409-2.7043.1229.076.1617.0562.0966-.0492-.06-.097.0235-.2242.1855-.2829.3464-.1254.7872-.388 1.4832-.8838.2775-.1976.888-.5524 1.3567-.7885.8885-.4475 3.0561-2.515 3.6344-3.4665.5122-.8429.516-.6553.0074.3677-.5204 1.0467-2.514 3.0834-3.6963 3.7763-.4235.2482-.681.481-.5722.5172.1089.0363.198.2158.198.399 0 .183.112.5497.249.8147.286.553.5805 1.6518.7057 2.6325.0475.3717.1014.6909.1199.7093.0767.0768 1.8487-1.196 2.4353-1.7493.8403-.7924 1.0797-.9058 1.9134-.9058.5619 0 .7222.0685.7929.3387.0487.1863.1565.3387.2396.3387.083 0 .055.1547-.0621.3438-.174.2808-.1702.3705.021.4895.1831.114.1555.1705-.127.2602-.2122.0674-.3611.2562-.3611.458 0 .189-.1667.5839-.3705.8777-.4549.6557-1.5338 1.8037-1.6954 1.804-.0651 0-.4723.239-.9049.5308-.7249.4893-.7775.572-.673 1.0584.0623.2901.1275.7882.1448 1.1068.0174.3186.126.6107.2413.6491.1153.0384.2097.1413.2097.2285s.1905.4603.4233.8292c.2328.3688.4235.7673.4237.8856.0002.1183.217.4684.4816.778.5721.6694 1.3807 2.124 1.3807 2.4838a.2554.2554 0 01-.254.2552c-.1397 0-.2541.0571-.2543.127-.0002.07-.2479.1436-.5504.1638-.3025.0202-.7024.0721-.8886.1154-.1863.0432-.4413-.0351-.5666-.174zm-5.0699-10.0534h1.3631l-.1166-.7196c-.0642-.3959-.1509-1.0245-.1927-1.397-.1495-1.332-.2628-1.786-.4212-1.688-.0884.0546-.1607-.0531-.1607-.2394 0-.1862-.0737-.3842-.1638-.4399-.0901-.0556-.1163-.3387-.0583-.629.1352-.6756-.1415-.5278-.7162.3826-.2397.3797-.601.7062-.851.769-.4796.1203-1.2841 1.2479-1.3207 1.8508-.0136.2239-.1076.3414-.2344.2928-.3672-.1408-.24.8531.1696 1.3255.4259.4912.7786.6695 1.1143.5635.124-.0392.8389-.0713 1.5886-.0713zm46.7713 7.3211c-.1005-.0684-.3106-.385-.4671-.7036-.2392-.487-.2507-.6555-.0724-1.0583.1252-.2829.3436-.4792.533-.4792.3698 0 .7685.4566.7763.889.003.163.0727.2964.155.2964.2112 0 .3587.6572.1732.7718-.0844.0521-.1534.005-.1534-.1052 0-.1498-.0634-.1475-.2522.009-.1386.115-.2103.2768-.1593.3594.1116.1806-.2762.1955-.5331.0206zm1.7937-1.9372c-.2946-.6097-.31-.7462-.1075-.9488.3464-.3463.8555-.112 1.2177.5606.3098.5752.3095.5905-.0176.8377-.524.3962-.7237.314-1.0926-.4495zm-10.5443-2.7169c-.0393-.1164.035-.5926.1651-1.0583.1302-.4657.3427-1.3242.4724-1.9078.1297-.5836.2948-1.1551.3668-1.27.072-.1149.1562-.3926.187-.6171.0308-.2246.284-.896.5628-1.492.304-.6502.465-1.2151.4024-1.4121-.0573-.1806-.03-.3283.0606-.3283.0907 0 .2194-.4.286-.889.0666-.489.1827-.9284.2581-.9765.0754-.048.1713-.4671.2131-.9313.0418-.4641.1314-.9773.1992-1.1402.0678-.163.0767-.4175.0199-.5656-.0568-.1482-.0496-.3564.0162-.4627.0657-.1064.1326-.309.1485-.4504.054-.4783.2093-1.0984.7214-2.8817.2809-.9779.5917-2.3495.6908-3.048.3558-2.509.5147-3.4994.851-5.301.3364-1.802.5446-5.7294.3161-5.9618-.1432-.1457-1.8944.9206-2.5922 1.5784-.2794.2634-.772.8166-1.0944 1.2293-.3226.4128-.6464.7759-.7197.807-.0733.031-.1333.1331-.1333.227 0 .0938-.2668.4824-.593.8634-.3261.381-.5838.7742-.5726.8736.0522.4627-.0367.6339-.2805.5403-.1547-.0594-.2461-.0151-.2247.1089.0774.4483-.415 1.1523-.772 1.1035-.271-.037-.3425.036-.3133.3194.0555.5379-.9989 1.4122-1.6948 1.4053-.2994-.003-.6923-.1172-.8731-.254-.1808-.1367-.259-.2486-.174-.2486.0851 0-.0104-.1156-.2122-.257-.286-.2004-.3586-.4054-.3292-.9313.0207-.371-.0216-.6744-.094-.6744-.0726 0-.1319-.1437-.1319-.3193 0-.3293.1783-.7079.7949-1.6878.1965-.3123.4077-.922.4693-1.3547.0617-.4328.1814-1.0154.2661-1.2948 1.5904-5.2476 1.9635-5.9581 4.384-8.3475 1.0847-1.0707 4.0779-3.0246 4.2973-2.8052.108.1081 2.0372-.8628 2.9117-1.4655.3726-.2567 1.2219-.8116 1.8874-1.2331 1.5924-1.0086 3.3016-2.9825 3.659-4.2257.3568-1.2412.2587-2.2955-.303-3.2538-.2568-.4383-.5672-.8353-.6897-.8824-.1225-.047-.2679-.2276-.323-.4013-.0551-.1737-.5064-.5482-1.0029-.8322-.7663-.4384-1.091-.5195-2.1498-.5365-1.4306-.0229-3.1421.163-3.5756.3883-.163.0848-.2964.2878-.2964.4512 0 .278-.3458 1.7237-.5944 2.485-.1034.3168-.0948.3196.1336.0423.1343-.163.3188-.2963.41-.2963.3134 0 .6117.933.6497 2.032.021.6054.0837 1.535.1394 2.0657.0767.7303.0404 1.026-.149 1.2156-.1379.1378-.2506.3658-.2506.5066 0 .503-.377.4748-.9394-.0704-.3143-.3046-.5318-.618-.4834-.6963.0484-.0784-.0288-.1425-.1715-.1425-.1428 0-.3754-.2238-.5168-.4973-.1414-.2735-.3283-.5412-.4152-.595-.087-.0537-.5947.2844-1.1282.7513-.5336.467-1.0416.849-1.1288.849-.0872 0-.3524.1524-.5892.3386-.5115.4024-.75.4352-.6154.0847.1473-.3837-.6472-.3241-1.371.1029-.6032.356-.757.3598-2.2432.0564-1.3628-.2783-1.7336-2.723-.735-4.8458.5402-1.1484 1.963-2.5096 3.3963-3.2493.6975-.3599 1.3824-.7484 1.5221-.8632.1397-.1149.3783-.2527.5302-.3062.246-.0868.2685-.4636.206-3.4548-.0387-1.8465-.1054-3.4578-.1484-3.5807-.0429-.1228-.2118-.1834-.3753-.1345-.5856.175-2.3525.1435-3.6459-.065-1.033-.1666-1.3849-.299-1.633-.6144-.174-.2211-.3918-.402-.4841-.402s-.3004-.2024-.4624-.4496c-.2814-.4295-.281-.4444.009-.333.1671.0642.3536.0361.4145-.0623.0745-.1206.3274-.0883.7755.099.5383.225.9713.2556 2.2736.161 1.9836-.144 3.2174-.396 3.217-.6569-.002-1.1926.175-4.7524.262-5.2776.1402-.8463.3333-1.0905.7715-.976.708.1852.889.769.7101 2.2923-.161 1.3718-.1609 3.4552.0003 3.6164.0454.0453.3462-.0277.6684-.1623.3222-.1347.902-.2982 1.2883-.3635.3863-.0653.7024-.1882.7024-.2731 0-.085.148-.1545.3287-.1545.1808 0 .3709-.0683.4225-.1518.2372-.3839 1.3955-.801 2.0428-.7358.7184.0725 1.5042.6438 1.3692.9956-.0441.1148.0108.2414.122.2812.1112.0399.164.11.1175.156-.2465.2429-3.7024 1.6896-5.2018 2.1776l-1.7304.5631-.1068.7125c-.1388.9256.1819 5.35.42 5.795.1556.2907.2649.3199.715.1908.2922-.0838.5697-.1908.6167-.2377.0469-.047.1087-.6215.1372-1.2767.0285-.6552.097-1.2643.152-1.3534.0597-.0964.3435-.0461.7.1239.5867.2798.5985.3051.544 1.1656l-.0559.8796 2.159-.0963c1.571-.07 2.159-.0432 2.159.0986 0 .1072.2173.1949.4828.1949.5353 0 1.9199.6754 2.547 1.2424.2227.2014.7825.9378 1.244 1.6363l.8389 1.27-.07 1.524c-.0957 2.0828-.6636 3.1913-2.9162 5.6921-.471.523-1.0547 1.251-1.2969 1.6178-.2422.3668-.8518.9396-1.3547 1.273-1.2618.8364-3.1326 1.831-3.444 1.831-.3288 0-2.2696 1.184-3.4816 2.1238-1.0795.8372-1.9647 1.76-2.5503 2.6588-.2272.3486-.4571.6343-.511.635-.1784.002-1.557 3.398-1.4308 3.5242.042.0419.4624-.271.9344-.6953 1.0035-.9023 2.93-2.1992 4.0448-2.7231.4306-.2024.9734-.4919 1.2062-.6434.6142-.3996 1.8118-.561 2.1402-.2884.2454.2036.5114.7132.697 1.3351.2937.9844-.0987 6.2418-.6383 8.5514-.3628 1.553-.5604 2.8593-.5252 3.4713.0545.9467-.3557 3.0187-.9177 4.635-.4496 1.293-.6346 2.1733-.752 3.5777-.1847 2.2072-.568 4.1395-1.1046 5.5672-.5262 1.4003-1.884 4.3432-2.1065 4.5656-.0987.0988-.1822.3358-.1855.5267-.006.357-.4812 1.328-.5012 1.0245-.006-.0931-.0888-.036-.1837.127-.2022.347-.4366.384-.5377.0847zm-.4376-45.5836c1.2633-.5929 2.5478-1.7137 2.7538-2.403.0594-.1988.0375-.5417-.0488-.762-.0863-.2202-.2546-.7433-.3739-1.1624-.1193-.419-.243-.8143-.275-.8782-.083-.1664-1.7215.529-2.422 1.0281-1.6717 1.191-2.54 2.3858-2.54 3.4952 0 1.4507.8458 1.6493 2.906.6823zm4.4082-5.971c.0911-.1123.1143-.2874.0514-.3892-.2035-.3293-.6044.1747-.5241.6588.1036.6243.1297.6562.2238.2734.0458-.1863.1578-.4306.249-.543zM103.034 97.4567c-.285-.3219-.8419-1.7853-.7251-1.9055.0355-.0366.195.0396.3543.1693.2557.208.2765.2004.1773-.0644-.0918-.2446-.0584-.2709.18-.1416.1608.0873.5119.3893.78.6711.5295.5564.5078 1.0407-.0465 1.0407-.1824 0-.3562.1227-.3863.2727-.0481.2396-.0887.2344-.3337-.0423zm-2.6474-.1304c-.2555-.3967-.5144-1.3374-.4292-1.5595.276-.7194 1.7162.1748 1.7873 1.1098.0429.5642.0249.5825-.5975.608-.353.0145-.6952-.0568-.7606-.1583zm-3.6435-9.0075c-.1026-.9938-.4655-1.7386-.831-1.7056-.2095.019-.6413-.1575-2.3358-.955-1.0309-.4851-1.3263-.826-2.1872-2.524-.8292-1.6352-1.0197-3.0363-.4942-3.634.1488-.1693.3171-.4612.374-.6485.0567-.1874 1.0805-1.3304 2.275-2.54 2.2736-2.3025 2.9696-3.2686 3.3212-4.61.2796-1.0664.3165-2.3455.0805-2.7865-.3368-.6293-1.536-1.825-2.2105-2.2042-.776-.436-1.3523-1.3255-1.4312-2.2084-.0312-.3492-.0252-.635.0135-.635.0386 0 .3572.1694.7079.3763.3507.207.7538.3933.8956.4141.1418.0208.2847.1182.3174.2164.0327.0982.2278.1786.4335.1786.387 0 2.1378 1.6003 2.1378 1.9542 0 .0503.1534.2989.3408.5524.356.4816.4833 1.7415.2941 2.912-.1901 1.1769-1.0328 2.7198-1.9884 3.6407-.4067.392-3.3757 3.4331-3.8682 3.9621-.2946.3165-.5356.683-.5356.8143 0 .146-.0823.1895-.2117.1118-.1612-.0969-.1668-.069-.0238.117.1033.1343.1987.5866.212 1.0052.0238.7458.7385 2.5092 1.1101 2.739.1009.0622.6787.508 1.284.9907 2.5278 2.0151 2.9725 2.6924 2.7916 4.2513-.0636.5473-.1738 1.0312-.245 1.0752-.0712.044-.173-.343-.2264-.86zm3.4473-21.6449c-.106-.1278-.3343-.6342-.5073-1.1255-.2612-.7417-.2765-.9313-.0901-1.1177.3688-.3687.5692-.2647 1.099.5708.4987.7863.6517 1.4061.347 1.4061-.0864 0-.2694.1122-.4065.2493-.2104.2105-.2793.2131-.442.017zm2.1283-.4834c-.4235-.3097-.5663-1.5485-.2186-1.8962.3598-.3598.3922-.3435.894.4514.4425.701.4437.7118.113.9796-.1838.149-.366.366-.4049.4824-.0553.166-.138.1623-.3835-.0172z" id="path75" fill="#000" stroke-width=".1693"/>
    <path d="M58.1953 254.1227c-.5617-.0693-2.0691-.3677-2.974-.5888-1.2924-.316-3.1948-1.871-3.7406-3.058-.1556-.3388-.4235-.8199-.5945-1.069-.1711-.2491-.7018-1.2155-1.1791-2.1478l-.868-1.695.0207-1.9826c.0105-1.0904.06-2.1685.1075-2.3956.3098-1.467 1.2511-3.4934 2.0645-4.4437.5927-.6924 2.752-2.2201 3.138-2.2201.124 0 .2254-.0993.2254-.2203s.1396-.2203.3102-.2203c.1707 0 .4122-.1236.537-.2746.5452-.6604 1.474-.872 3.7913-.8637 2.167.005 2.2505.0206 3.6225.6016.7723.3263 1.4415.6416 1.487.7002.0465.0584.5155.4307 1.0445.8265.8844.662 1.9293 1.901 1.9293 2.2877 0 .1975.8145 1.8324 1.0835 2.1746.3413.4338.7076 3.8.4137 3.8-.0967 0-.1753.0718-.1753.1598 0 .0879.1117.1174.2477.0652.2984-.1143.305.0817.0776 2.2533-.2037 1.9485-.364 2.4426-1.232 3.7964-.3802.5926-.6846 1.1273-.677 1.188.0259.197-.7806.9634-1.012.9634-.1237 0-.7985.3243-1.4996.7204-1.442.8149-1.8895.975-3.753 1.3433-1.6972.3356-1.898.3605-2.3956.2995zm.6609-1.126c0-.1376-.0714-.379-.1593-.537-.0874-.1577-.3077-.6102-.4887-1.0056l-.3293-.7187.5196-.438c1.3144-1.1074 1.206-1.0736 1.6712-.5206.6007.7138.9343.655.9343-.165 0-.4773.0688-.6608.2477-.6608.1365 0 .2477.0766.2477.1706 0 .363.7184.4452 1.2338.1412.7417-.4375 1.6316-1.4081 1.4945-1.63-.0863-.1395-.1903-.1287-.3904.0415-.426.3599-1.508.9478-1.7435.9478-.1168 0-.3371-.137-.4886-.305-.2591-.2865-.2534-.3346.0925-.7849.2027-.2637.4297-.5229.5037-.5756.152-.1075-.0106-.6477-.1955-.6477-.0652 0-.2932.1862-.5067.4132-.484.5155-.6207.517-.8517.0105-.151-.3315-.121-.5099.1685-1.0008.3961-.6716.4396-.909.165-.909-.2612 0-.932.8122-1.1224 1.3583-.119.3408-.0988.514.0801.6928.2927.2927.316 1.0901.031 1.0826-.321-.0105-.8732-.5327-1.1313-1.0737-.1614-.3376-.3754-.5067-.6872-.5427-.2493-.0311-.453-.0206-.453.0206 0 .0414.3345.5706.7435 1.1804.409.6098.7434 1.1685.7434 1.2414 0 .0729-.2787.3418-.6195.5979-.3408.256-.6683.5366-.728.6239-.0595.0874-.3325-.2808-.6062-.8174-.739-1.4489-.907-1.6419-1.162-1.3348-.1695.2048-.1199.422.2772 1.2128.2664.5299.6545 1.3723.8624 1.872.3811.9167 1.2924 2.2986 1.5216 2.308.0682.003.1241-.1075.1241-.245zm4.9148-2.6158c.706-.4468 2.0243-1.7204 2.0243-1.956 0-.0863.1764-.3934.3925-.6827.685-.9182 1.0028-2.1789 1.0077-3.9954.0042-1.542-.2932-3.2218-.5703-3.2218-.0652 0-.2316-.2875-.3697-.6387l-.2508-.6388-.8266.0796c-.9063.0874-1.1623-.089-.8518-.5863.2575-.4127.0698-1.364-.3827-1.9392-.5431-.6905-2.664-2.0017-3.5527-2.1963-1.4386-.315-2.0033-.3703-2.1047-.2063-.1277.2068.3222.4473 1.1119.5957.7806.1463.8996.3392.4892.7929-.8962.9899-1.87 3.0856-1.4339 3.0856.1277 0 .5467-.4525 1.1833-1.2785l.4126-.535.4406.4524c.6688.6872 1.4856 1.3611 1.6495 1.3611.0807 0 .2384.1107.35.2457.1656.1996.1221.4023-.231 1.0777-.3832.7323-.4029.8444-.167.9349.1473.0569.3272.005.4002-.1107.0723-.1173.2487-.1685.3914-.1137.1717.0657.3511-.0558.5307-.36.2554-.4322.3258-.455 1.203-.3882 1.0877.0832 1.3769.3454 1.7573 1.5938.6541 2.1472-.0466 5.1168-1.6462 6.996-.6204.728-1.8464 1.6087-3.2718 2.3502-.7124.3707-1.1117.6796-1.1118.8606-.0002.2306.256.1484 1.4037-.452.7721-.4038 1.683-.9109 2.0239-1.1266zm-1.28-12.0179a93.8413 93.8413 0 01-.9913-.8177c-.318-.2663-.7198-.5857-.8927-.7098-.302-.2167-.2943-.2472.2073-.7715.4902-.513.5397-.5294.8231-.273.166.15.3832.273.4825.273.3387 0 1.2089.864 1.4492 1.439.4344 1.0395-.2146 1.5571-1.0778.86zm-6.6998 13.5757c.0517-.0833-.4845-.734-1.1917-1.4457-.707-.7117-1.4885-1.5417-1.7366-1.8443l-.4515-.5503.7514-.9563c.4131-.526.8253-1.2241.9156-1.5514.1546-.5591.2146-.6018.9918-.7049.6399-.0848.8156-.1701.7752-.3764-.0595-.304-.901-.331-3.2264-.1035-1.17.1148-1.363.0977-1.363-.1184 0-.3418.3035-.5614.974-.705.346-.0738.837-.4038 1.2803-.86l.7192-.74 1.1722.1974c1.2156.2048 1.6097.0998 1.4251-.381-.079-.2064-1.6674-.4903-4.8274-.8621-.1815-.0206-.3454-.0465-.3635-.06-.0206-.0105.0677-.2617.1913-.5558l.225-.5346 1.4607-.002c1.343-.002 1.4735-.0311 1.6194-.364.0874-.1991.3066-.4003.4871-.4479.3408-.089 1.4192.4732 1.4192.74 0 .0833.1862.1515.4132.1515.7295 0 .4535-.4437-.7848-1.2608-.6588-.4349-1.2959-.925-1.4157-1.0893-.12-.1645-.272-.2653-.3381-.2245-.0662.0414-.2276.0105-.3584-.0723-.199-.123-.1825-.1985.0998-.4612.1857-.1727.6198-.4075.9648-.5214.7087-.2338 1.0346-.0553 1.1686.6406.1433.7443.3785.8523 1.0253.4706.4721-.2782.5434-.3821.361-.5252-.1252-.0977-.376-.4644-.5576-.8148-.3971-.7661-.8813-.9838-1.9906-.8952-.6364.0517-1.0563.2208-1.7698.7167-.5145.3573-.9383.711-.9417.7856-.0032.0744-.3036.4882-.6672.9193-.3635.4313-.6609.8363-.6609.9003 0 .0641-.1861.4111-.4131.771-.227.3598-.4132.8267-.4132 1.0375 0 .211-.077.4602-.1706.554-.0942.0936-.1779.5191-.1862.945-.0105.4256-.0884.8193-.1773.8743-.0962.0595-.0714.1587.062.2446.1862.12.182.1722-.026.3071-.1659.1086-.1793.1634-.0413.165.2472.003.275.529.0414.7639-.209.2089.3883 2.6446.7455 3.0394.136.15.2472.3454.2472.4333 0 .2487 1.3845 2.092 1.9778 2.6335.2922.2663.7521.6882 1.0225.9372.9552.88 1.3561 1.089 1.5347.8zm-4.0862-5.342c-.5294-1.4473-.5329-1.4186.165-1.3827.8545.0414 1.025.185.9488.7864-.0693.5457-.485 1.2985-.7177 1.2985-.0766 0-.2544-.3159-.3956-.7022zm-.4074-4.2166c.0465-.592.0719-.6177.7047-.659.362-.026.7698.031.906.1189.211.1375.1862.2213-.1649.5597-.227.2187-.6558.4427-.9525.497-.5363.0987-.5393.0955-.4928-.5166zm1.9-3.2952c-.5859-.089-.5727-.2079.108-.9726l.5622-.6318.5114.5.5114.5-.3366.3615c-.332.3563-.4587.379-1.3564.243zm14.3326 7.8836c.0563-.091.026-.1655-.063-.1655-.091 0-.211.0745-.2674.1655-.0564.091-.0258.165.063.165.091 0 .211-.0746.2674-.165zm-3.2218-1.083c0-.5532.026-.5749.9914-.8434 1.2158-.3382 1.341-.717.2368-.717-1.0169 0-1.3935-.225-1.3935-.832 0-.501.0032-.5031 1.0413-.5637.269-.0155.6019-.347.6084-.6055.0042-.1867-2.3829-.3082-3.3526-.1702-.9435.134-.9634.1283-1.202-.333-.269-.5204-.4339-.578-.7084-.2472-.2663.3206.255 1.7497.9722 2.6653.4235.5404.7291.762 1.1541.8368.9071.1598.9914.2084.9914.5774 0 .4664.3092 1.018.5036.8979.0864-.0533.1572-.3527.1572-.6649zm-1.763-1.866c-.3005-.09-1.1819-.9844-1.0164-1.0314.7788-.2213 1.1732-.136 1.6293.3527.674.7215.4302.9914-.613.6789z" id="path75-3" fill="#fe0000" fill-opacity="1" stroke-width=".1652"/>
  </g>
</svg>
