<svg xmlns="http://www.w3.org/2000/svg" viewBox="0 0 210 297" version="1.1" id="svg1738">
  <g id="layer1">
    <path d="M92.3713 249.248c-.2794-.185-.69-.337-.9126-.3376-.2226 0-.514-.1344-.6476-.2974-.1336-.163-.1866-.1881-.1179-.0559.0938.1804.0487.2112-.1807.1231-.2585-.0992-.2726-.0774-.0917.1406.2977.3587.0539.3223-.4392-.0655-.2807-.2208-.3429-.3509-.196-.41.1387-.0559.146-.0913.0203-.0999-.3647-.025-1.3907-1.208-1.5952-1.8393-.2391-.7384-3.0334-6.26-3.511-6.938-.1801-.2556-.492-.7695-.693-1.142-.201-.3726-.516-.906-.6998-1.1854-.1839-.2794-.4571-.7747-.6073-1.1006-.1501-.326-.405-.7832-.5662-1.016-.1612-.2329-.5486-.9187-.8607-1.524-.3121-.6054-1.0858-1.987-1.7194-3.07-.6336-1.0832-1.152-2.018-1.152-2.0773 0-.0593-.3332-.659-.7404-1.3326-1.1592-1.9174-1.596-2.8762-1.6008-3.514-.0024-.3242-.3503-1.4093-.773-2.4113l-.7685-1.822.6572-.4349c.7708-.51.8647-.4712 2.2942.9488.4657.4625.9927.8417 1.1712.8425.1785 0 .278.048.221.105-.1786.1786.8618.9323 1.3547.9813.3652.0363.5923.2479 1.015.9457.2997.4943.497.9826.4386 1.0851-.0584.1025-.0435.1296.033.0602.0765-.0694.3136.1306.5268.4444.3698.5442 1.0412.8474 1.394.6294.1067-.066.1064-.4224-.0008-1.0126-.1166-.6417-.1104-.9659.0211-1.0973.1359-.1359.2134-.0838.2854.1915.0544.208.192.378.306.378.3913 0 .1535-.9282-.5859-2.2862-1.493-2.7423-2.362-4.5322-2.055-4.233.2426.2363 1.8867 2.936 2.8229 4.6353.4297.78 1.0333 1.8087 1.3412 2.286.308.4774 1.0553 1.668 1.6607 2.646.6055.9779 1.543 2.4197 2.0836 3.204.8155 1.1833 1.0037 1.3707 1.1054 1.1007.4601-1.222 2.3238-12.59 2.6905-16.412.1072-1.1177.2257-2.2988.2633-2.6247.0375-.326.1485-1.469.2466-2.54.2138-2.3346.9892-9.0824 1.1014-9.5854.0438-.1961.158-1.1867.2536-2.2013.1844-1.9547.252-2.518.9116-7.602.6937-5.3459.7165-6.0797.1771-5.7038-.0914.0637-.7456.8016-1.4538 1.6398-1.6794 1.9878-3.724 3.9424-5.2218 4.9921-.326.2285-.7.5199-.8313.6475-.1313.1277-.6647.5489-1.1853.936-.5207.387-1.0038.7925-1.0735.901-.1097.1707-2.2771 1.684-2.7519 1.9214-.0931.0466-1.0789.6836-2.1906 1.4157-1.1117.732-2.331 1.4398-2.7094 1.5728-.8502.2987-2.1827.9273-2.2967 1.0834-.0465.0638-.4141.2976-.8168.5197-.4028.222-1.0886.6082-1.524.858-.4355.2498-1.1728.6527-1.6385.8953-.4657.2426-1.2658.6726-1.778.9555-1.6932.9353-5.8189 3.029-5.9688 3.029-.081 0-.1-.0763-.0425-.1694.1659-.2684-.1708-.1971-.6122.1296-.222.1644-.7467.4825-1.1658.707-.4191.2244-.9978.5852-1.286.8017-.615.462-.8227.499-.6775.1209.1565-.4081-.5766-.1782-1.494.4684-.8204.5783-1.3874.5668-1.1998-.0244.0825-.26.046-.3148-.1576-.2367-.1458.056-.2651.1698-.2651.253 0 .0831-.1372.1512-.3048.1512-.1677 0-.387.082-.4873.1825-.1811.181-1.233.504-1.7778.5456-.1562.012-.247.0816-.2017.1548.0452.0732-.0047.133-.111.133-.194 0-2.3644.8876-2.9148 1.192-.3832.212-.6855.2084-.5526-.007.0608-.0983-.1068-.1693-.4004-.1693-.6131 0-2.2244.3585-2.2239.4948.0002.0539-.5833.0724-1.2967.0413-.7134-.0312-1.4565.0203-1.6514.1142-.1949.094-.5448.2086-.7776.2547-.2328.046-.6138.132-.8467.191-.2945.0746-.2301 0 .2117-.2444.6351-.3517.9113-.8354.3387-.593-.163.069-.4488.1158-.635.1042-.1863-.0117-.4911.0523-.6774.1421-.4221.2034-2.1014.8498-2.2076.8498-.2108 0-.0363-.406.3026-.7043l.381-.3353-.4656.0997c-.676.1447-.596-.2109.2436-1.0847l.7094-.7382-.7498.1199c-.4124.0659-.903.261-1.0903.4334-.4394.4045-2.6266 1.4681-2.6266 1.2772 0-.0412.2095-.1867.4657-.3232.256-.1365.7613-.516 1.1227-.8433.3613-.3272.9706-.808 1.354-1.0684.3832-.2604 1.1417-.8163 1.6856-1.2354.5438-.4191 1.1163-.8382 1.2721-.9314.9285-.5549 2.8008-1.888 3.2372-2.305.2814-.269.5576-.489.6138-.489.0562 0 .7236-.447 1.4832-.9935.7596-.5464 2.105-1.4872 2.9897-2.0906 6.4992-4.4328 10.7208-7.3952 11.5147-8.0804.5122-.442 1.1218-.9036 1.3546-1.0257.2329-.122.4615-.278.508-.3466.0466-.0686.6943-.5829 1.4394-1.1429 3.4383-2.584 7.4518-5.8143 9.8187-7.9024.8396-.7407 1.6706-1.4646 1.8466-1.6087.3427-.2803 1.5555-1.3842 2.8415-2.5863 1.6822-1.5725 3.3895-3.6276 3.9586-4.7653.533-1.0654.5846-1.2991.5846-2.6508v-1.4824l-.635-.1357c-.7798-.1667-.9515-.1674-2.75-.0117-1.2882.1115-4.1329.7182-5.251 1.12-.2329.0836-1.2779.4248-2.3222.758-1.0444.3334-2.6065.9372-3.4713 1.3417-.865.4046-2.2202 1.0254-3.0119 1.3797-2.5566 1.144-3.503 1.7108-4.8172 2.8856-.3184.2845-.984.716-1.4791.959-.7843.3848-2.0167 1.2263-4.6257 3.1587-.3725.276-1.2898.8318-2.0385 1.2353-1.9056 1.0272-3.0608 1.6853-3.7573 2.1404-.3288.215-.712.347-.8515.2934-.1396-.0536-.3439.026-.4541.1768-.1103.1507-.4244.2949-.6982.3203-.2737.0254-.7.1003-.9473.1665-.3087.0826-.6536.0146-1.1007-.2173-1.1606-.6018-1.491-.712-1.8924-.6313-.217.0437-.5218.0112-.6773-.072-.1555-.0834-.8923-.341-1.6373-.5725-2.0684-.6427-2.641-.9302-3.3102-1.6623-.609-.6662-.6136-.6824-.443-1.5454.2097-1.0601.7535-1.622 4.3458-4.4892 1.3505-1.078 2.4935-2.0042 2.54-2.0585.0466-.0543.4276-.3623.8467-.6847.419-.3224 1.4097-1.126 2.2013-1.7859a4676.126 4676.126 0 014.572-3.8018c11.5163-9.5656 17.3468-15.8285 21.6737-23.2814a527.1936 527.1936 0 011.1844-2.032c.979-1.6597 1.1834-2.0621 1.1852-2.3327.002-.2838-.0284-.285-.54-.0204-.2981.1541-.6465.3847-.774.5123-.313.313-.6067.2943-.482-.0308.0578-.1507.0294-.2186-.0666-.1593-.092.057-.1674.0228-.1674-.0758 0-.0986.0997-.1793.2216-.1793.122 0 .3696-.1155.5503-.2566.31-.242.2999-.2505-.1793-.149-.2794.0592-.5981.2203-.7084.3582-.1102.1378-.2758.204-.368.147-.0921-.057-.4401.0572-.7732.2538-.3331.1965-.6057.2984-.6057.2264 0-.072-.1714.0228-.381.2106-.379.3398-1.9365 1.243-2.138 1.24-.0581-.0009.3515-.2926.9103-.6481.996-.6338 1.6304-1.213 1.3285-1.213-.0839 0-.3027.105-.4864.2335-.8554.598-4.0694 2.3176-4.2725 2.286-.3619-.0564-.5492.0512-.5515.3168-.0015.1828-.0502.225-.127.11-.0684-.1024-.2382-.2228-.3773-.2677-.177-.057-.0633-.2043.379-.491.3474-.2253.6327-.5049.6338-.6213.0028-.2783.0046-.2788-.8603.2109-.4104.2323-.9636.5092-1.2292.6152-.2655.106-.824.374-1.2408.5957-.4168.2217-1.1078.4814-1.5354.5773-.4276.0958-.905.3213-1.061.501-.1867.2153-.4657.314-.8176.2892-.5772-.0406-.6937-.1945-.2702-.357.1456-.0559.2173-.1782.1594-.272-.1-.1617-1.355.4304-1.9481.919-.1397.115-.61.3718-1.045.5704-.435.1987-.8396.4398-.899.536-.0594.096-.2191.1747-.355.1747-.2445 0-3.2953 1.647-3.4584 1.867-.2566.3464-2.2013 1.0547-2.2013.8018 0-.095-.1142-.0755-.258.0439-.142.1178-.3113.161-.3762.0962-.2509-.251.612-.5419 1.3115-.4423.1397.02.1965-.0223.1261-.0938-.1723-.175 1.2547-1.1101 1.5337-1.005.1213.0455.1809.0188.1324-.0596-.1257-.2035 3.4394-2.594 3.6627-2.4559.1032.0638.1377.0374.0778-.0596-.0592-.0958.091-.3171.3338-.4918.2428-.1747.6414-.475.8858-.6671.2444-.1922.9016-.6008 1.4604-.908.5588-.3073 1.397-.841 1.8627-1.186.4656-.345.9815-.6774 1.1463-.7389.5902-.2199 2.331-1.4954 2.5989-1.9043.1502-.2292.3735-.4167.4962-.4167.1227 0 .2715-.1524.3306-.3387.0591-.1863.1818-.3387.2726-.3387.1516 0 1.9874-1.2787 2.1827-1.5204.0983-.1216 2.3743-1.7482 4.1255-2.9485.6647-.4555 1.2466-.8804 1.2932-.9443.0465-.0639.8085-.593 1.6933-1.176s1.9044-1.301 2.2659-1.5957c.735-.5992 2.603-1.9237 5.0154-3.5563 3.2423-2.1942 7.9952-6.056 7.7533-6.2997-.1138-.1146-2.274.705-6.7373 2.5562-1.9409.805-1.9557.8081-4.4873.9286-2.7737.132-3.7141.012-6.0113-.7664-1.6528-.56-2.7265-1.1075-2.5936-1.3224.0582-.0943.0322-.1258-.058-.07-.277.1711-1.8265-.6749-2.7395-1.4957-1.728-1.4758-5.0833-5.9623-2.7135-7.8344.1765-.1236.2866-.2803.2446-.3483-.042-.0679-.0108-.2295.0693-.3591.1665-.2694 1.0173-.433 1.0173-.1957.9762.6546 1.1764.079.7011-.6635-.2685-.4134-.536-.9554-.5946-1.2043-.1063-.4523-.106-.4525.4016-.1993.2794.1394.508.3185.508.398 0 .0795.6286.3881 1.397.6856 1.363.5278 1.4237.5358 2.4976.3285 1.271-.2453 3.9773-1.1032 7.366-2.335 2.519-.9158 4.0744-1.4596 8.5513-2.99 2.9015-.9917 3.4167-1.1788 6.096-2.2127 1.4475-.5586 3.3792-1.4154 6.858-3.0418.652-.3048 1.795-.8068 2.54-1.1156 1.162-.4815 8.784-4.2498 10.3181-5.1013.8571-.4757 3.8384-.4119 5.8533.1253 2.0913.5576 4.3042 1.3438 4.8785 1.7332.2505.17.684.4067.9635.5262.9866.4219 2.3032 1.4088 2.699 2.023.2202.342.7142.9633 1.0975 1.3806.3834.4173.6584.8594.6112.9824-.0472.1231-.0167.181.068.1288.2299-.1421.5534 1.0004.6021 2.1264.0981 2.268-.6264 3.9238-3.176 7.2589-.8597 1.1245-1.686 2.2697-1.836 2.5449-.15.2751-.5439.8002-.875 1.1667-.3312.3666-.688.8268-.7928 1.0227-.1048.1958-.5096.5575-.8996.8037-.39.2462-.8495.626-1.021.8442-.1716.2181-.4208.3966-.5537.3966-.133 0-.2417.0598-.2417.1328 0 .0731-.24.2746-.5333.4478-.2932.1733-.96.696-1.4816 1.1617-2.7989 2.4985-2.6066 2.3687-3.7146 2.507-1.1543.1442-2.3276.6447-3.0384 1.2963-.127.1165-.3983.2117-.6029.2117-.2045 0-.6523.1905-.995.4233-.3426.2329-.6988.4234-.7915.4234-.2206 0-1.3646.6538-1.7967 1.0268-.2993.2585-1.5193.7732-3.048 1.2862-.2794.0937-1.1897.6488-2.023 1.2335-.8332.5847-1.7095 1.1437-1.9473 1.2423-.5942.2462-2.3633 1.3666-2.3724 1.5023-.004.0607.2354.195.532.2984.2967.1034.6586.2937.8044.4227.3055.2706 1.2183.7952 2.551 1.466 1.6578.8345 3.1099 2.5813 3.7205 4.4758.12.3725.2758.7535.3462.8466.0704.0931.1748.7409.2321 1.4394.1198 1.4606.4925 3.5614.8712 4.9106.6863 2.4454.784 3.3106.848 7.5072.0353 2.3128.1092 4.3471.1643 4.5207.0866.273.139.2843.3879.0847.7761-.6226 2.3392-1.8676 2.4891-1.9827 1.3805-1.0595 6.7001-5.5727 7.5313-6.3896.6076-.5972 2.1334-2.0414 3.3907-3.2094 3.7056-3.4423 10.8235-10.5437 11.3945-11.3682.2903-.419 1.179-1.528 1.975-2.464 1.4624-1.72 2.5495-3.0742 3.8555-4.8024.3933-.5204.7982-1.0435.8999-1.1624.444-.5192 1.204-2.3082 1.1225-2.642-.0483-.1976-.2752-.8926-.5042-1.5445-1.0427-2.9685-1.175-3.4854-1.0884-4.2536.0922-.818.7193-1.6608 1.3827-1.8585.1931-.0576.4788-.2662.6348-.4637l.2837-.359.428.4617c.5675.6124.8407.5955.7465-.0463-.0906-.617.141-.6654.4056-.0847.1061.2329.2966.4234.4234.4234.1267 0 .3224.2019.4348.4486l.2045.4487.1003-.4063c.0939-.3805.124-.3605.4727.3133.5505 1.064.7889.9362.7889-.4226 0-1.0294.0335-1.1425.3386-1.143.272-.0006.3408-.1174.3494-.5934.0221-1.2186.1197-1.4528.2468-.5927.162 1.0961.2744 1.533.489 1.9015.1453.2496.1787.2006.1993-.2928.014-.3346.0566-.4452.0978-.254.1407.6528.6481 1.7067 1.549 3.2173 1.0288 1.7252 2.9927 5.748 3.6787 7.5354.3932 1.0243.6062 2.4662.491 3.3232-.1987 1.4771-1.1718 3.597-2.2574 4.9178-.2425.295-.6974.8856-1.011 1.3124-.3136.4267-.6639.776-.7784.776-.1146 0-.5439.398-.954.8845-2.4868 2.9506-10.7104 11.1368-12.8528 12.7946-.2329.1802-.6723.4553-.9766.6114-.5862.3007-3.221 2.2498-3.9341 2.9102-.606.5613-3.558 1.9728-3.9251 1.8769-.17-.0445-.366.0194-.4356.1418-.2135.3756-2.1144 1.1315-2.6034 1.0354-.2518-.0495-.5825.0168-.762.1528-.1745.1321-.476.2426-.67.2456-.194.003-.3997.0523-.457.1096-.0573.0573-.394.1283-.748.1577-.354.0294-.9484.2026-1.3209.3849-.3725.1823-1.1345.4211-1.6933.5306-.5588.1095-1.359.302-1.778.4276-.4191.1256-.9525.2688-1.1854.3182-.2328.0494-.6855.1534-1.006.2312l-.5825.1414.9004 1.011c2.923 3.2824 4.6907 5.1304 6.4745 6.7685.4056.3725 1.3842 1.3648 2.1746 2.205.7904.8403 2.552 2.7072 3.9147 4.1488 1.3627 1.4415 3.334 3.6496 4.3805 4.9069a7327.206 7327.206 0 002.232 2.6805c1.2158 1.4575 2.7396 3.5317 3.4422 4.6855.4536.745.8679 1.3927.9205 1.4393.2661.2354 1.0251 1.3554 1.0251 1.5127 0 .0993.0598.1806.1329.1806.073 0 .2579.2096.4108.4657.3163.5299 1.8407 2.4768 4.5409 5.7997 1.0217 1.2573 2.3244 2.8866 2.895 3.6206l1.0373 1.3347 2.5612 1.2308c7.1699 3.4456 12.2916 5.0608 25.506 8.0435 3.293.7433 4.165 1.0524 3.945 1.3986-.2937.4622.0623.9458.7116.9664.3376.0107.3376.0117.003.2649-.3309.25-.3298.2557.0658.3591.221.0578.7382.284 1.1493.5025.411.2186 1.6006.6236 2.6435.9 2.6643.7062 2.6639.706 2.5689.8598-.047.076-.008.1862.0866.2447.0947.0585.172.0257.172-.073 0-.0986.1715-.1705.381-.1597.2868.0147.3077.0388.0848.0971-.5664.148-.313.4383.2963.3394.345-.056.5927-.0257.5927.0725 0 .0928.065.1285.1445.0794.0795-.049.39.003.6902.1167.523.1974.5414.2354.44.9113-.0868.579-.0209.8578.3681 1.5577.2606.4688.6393.9283.8415 1.021.4798.22.3552.7154-.2731 1.0866-.2607.154-.5693.51-.6858.7913-.1663.4015-.3166.5114-.6993.5114-.2681 0-.4875.061-.4875.1353 0 .1722-1.0114.542-1.4822.542-.1967 0-.4024.1334-.457.2964-.0928.2763-1.4077 1.0583-1.7796 1.0583-.0916 0-.5687.1835-1.0602.4077-1.1141.5084-1.825.6767-1.825.4322 0-.1004.0635-.1433.1411-.0953.0776.048.1412-.0237.1412-.1593 0-.3076-.0284-.307-.3429.008-.1397.1397-.4912.28-.781.3118-.29.0317-.6126.1432-.7171.2477-.1405.1405-.0173.1697.4727.1121.6166-.0725.6038-.0606-.184.1722-1.1045.3264-1.197.3208-1.5842-.0947-.2412-.2589-.3612-.2966-.456-.1432-.0826.1336-.0587.165.0667.0874.1076-.0664.1955-.0443.1955.0493 0 .0944-.3745.1592-.841.1456-.4627-.0136-.8945.0288-.9596.0939-.1755.1755-.775.1438-.6645-.0351.0522-.0845-.0576-.1137-.244-.065-.2114.0554-.3389.005-.3389-.1327 0-.1374-.0868-.1027-.2286.0912-.1938.265-.368.2953-1.143.199-.503-.0625-1.0668-.1446-1.253-.1826-.1863-.038-.4004-.075-.4757-.0821-.0753-.007-.0832-.1082-.0175-.2247.0956-.1693.0739-.1693-.1085 0-.1255.1165-.2935.2117-.3735.2117-.08 0-.0882-.0952-.0183-.2117.1-.1665.0735-.1682-.1249-.008-.1826.1477-.553.1632-1.3448.0564-.601-.081-1.7977-.1999-2.6592-.264-.8615-.0642-1.5663-.1893-1.5663-.278 0-.0888-.0791-.1125-.1758-.0528-.311.1922-4.7981-1.0346-4.6516-1.2718.041-.0662-.1452-.1266-.4135-.1342-.554-.0157-1.5072-.465-1.8413-.8677-.1234-.1487-.176-.175-.117-.0586.1375.2715.1639.2764-.9288-.1725-1.2167-.4998-1.3841-.6153-1.2403-.8552.0844-.1407.0432-.1379-.139.01-.2069.1674-.4436.1597-1.1755-.038-.5041-.1363-1.107-.2953-1.3399-.3535-.689-.172-1.524-.584-1.524-.752 0-.0858-.1156-.1117-.257-.0574-.3205.123-1.2956-.2646-1.1714-.4656.0502-.0813-.0119-.1082-.138-.0597-.364.1397-2.8112-1.0752-2.5984-1.29.0392-.0396-.1588-.0804-.4399-.0908-.281-.0105-.5601-.096-.6201-.1904-.06-.0943-.3564-.225-.6585-.2906-.661-.4012-1.1595-.6244-1.6764-1.0163-.4324-.3302-.889-.6004-1.0145-.6004-.1255 0-.32-.147-.4323-.3268-.1502-.2405-.2802-.286-.4921-.1726-.2187.117-.3534.0545-.5594-.26-.1492-.2277-.2713-.4792-.2713-.559 0-.0795-.2667-.3574-.5927-.6173-.326-.2599-.5927-.569-.5927-.687 0-.118-.1134-.3087-.252-.4238-.1388-.115-.2027-.2959-.1423-.4017.0605-.1059.0462-.1347-.0316-.064-.2027.1841-.8988-.5206-.8494-.8599.0228-.1565.01-.1958-.0286-.0873-.1334.3759-.5674.3857-.9854.0222-.231-.2008-.42-.4681-.42-.594 0-.1258-.1143-.2726-.254-.3262-.1397-.0536-.254-.2036-.254-.3333 0-.1298-.0762-.236-.1693-.236s-.1694-.1-.1694-.222c0-.1223-.2331-.3946-.518-.6053-.285-.2107-.6658-.625-.8461-.9208-.1804-.2958-.3282-.4713-.3286-.3901-.002.4504-.8767-.7095-1.8163-2.4083-.4088-.739-.7151-1.167-2.6953-3.766-.4321-.5672-1.1826-1.5844-1.6677-2.2605-.485-.676-1.6035-2.098-2.4855-3.1597-2.8673-3.4519-5.2374-6.8745-6.931-10.0087-1.662-3.076-3.7463-5.9192-6.6157-9.0245-.8135-.8803-1.3498-1.4876-1.665-1.8852-.4577-.5773-2.13-2.8332-2.9333-3.9568-.4328-.6054-1.0547-1.3991-1.3821-1.7639l-.5954-.6632-.0116.6632c-.0408 2.332-.3606 7.0464-.585 8.6219-.1459 1.0244-.3319 2.4722-.4133 3.2173-.1739 1.5912-.4386 3.6264-.6703 5.1524-.0909.5987-.133 1.1406-.0936 1.2043.0837.1354-.2964 2.5798-.772 4.9646-.183.9181-.3328 1.9913-.3328 2.3848 0 .3935-.0441.7596-.098.8135-.054.0539-.1343.6924-.1786 1.419-.0443.7265-.1469 1.4008-.228 1.4985-.081.0977-.1865 1.1346-.2344 2.3042-.048 1.1696-.1632 2.6164-.2562 3.2153-.093.5988-.2573 1.6983-.3653 2.4434-.108.745-.2965 1.6976-.419 2.1167-.2253.7712-.4304 1.8662-.5233 2.794-.028.2794-.099 1.0414-.158 1.6933-.0588.652-.1746 1.3758-.2571 1.6087-.0826.2328-.1871.7281-.2323 1.1006a600.7408 600.7408 0 01-.1877 1.524c-.058.4657-.2128 1.7611-.3442 2.8787-.268 2.282-.8576 5.3966-1.1278 5.9594-.0981.2043-.1945.6615-.2141 1.016-.0196.3545-.0763.797-.1259.9833-.0496.1862-.1434.6815-.2084 1.1006-.249 1.6054-.2777 1.7538-.3688 1.901-.0515.0834-.1136.547-.138 1.0303-.0244.4833-.2076 2.2122-.4072 3.842-.1996 1.63-.4077 3.6111-.4624 4.4027-.0547.7917-.1239 1.706-.1537 2.032-.0298.326-.1105 1.812-.1795 3.302-.0762 1.6469-.1984 2.7582-.3117 2.8338-.117.078-.0815.1254.095.127.1965.002.3167.2105.3979.6913.1414.8368.084.9198-.6793.9834-.1667.014-.254.202-.254.5473 0 .3899-.0635.5018-.2454.432-.1512-.058-.2141-.0127-.164.118.0484.126-.278.3972-.8047.6686-.4874.2512-.8175.4566-.7335.4566.084 0 .0645.0882-.0433.196-.1485.1485-.2657.1383-.4833-.0422-.3502-.2907-.2858-.2966-.6403.058-.3398.3397-.5778.3648-1.2035.127-.2951-.1123-.5515-.1127-.7594-.002-.2041.1092-.3335.11-.37.002-.0327-.097-.2573-.0614-.541.086-.6278.326-.7675.3172-1.3776-.0869zm.4856-.4717c.0452-.0732-.059-.133-.2316-.133s-.2768.0598-.2315.133c.0452.0732.1494.133.2315.133.0822 0 .1864-.0599.2316-.133zm2.3697-.121c.0536-.1397.0236-.254-.0666-.254s-.164.1143-.164.254.03.254.0666.254c.0366 0 .1104-.1143.164-.254zm-3.194-.0847c.0576-.093.0285-.1693-.0646-.1693s-.2164.0762-.274.1693c-.0576.0931-.0284.1694.0647.1694.0931 0 .2164-.0762.274-.1694zm8.4307-2.8978c-.2151-.215-.5633-.0608-.5433.2408.0096.1454.0372.1427.0988-.01.1336-.331.446-.248.3193.0847-.0905.2376-.0706.2544.1004.0847.1566-.1554.1632-.2617.0248-.4001zM84.5558 223.756c-.0552-.1437-.1366-.225-.181-.1806-.0444.0444-.0305.162.0309.2613.167.2702.2646.2177.15-.0807zm18.0602-1.7707c0-.093-.0336-.1693-.0747-.1693-.0411 0-.1218.0762-.1793.1693-.0576.0931-.024.1694.0747.1694.0986 0 .1793-.0762.1793-.1694zm77.978-1.016c-.0576-.093-.1954-.1681-.3063-.1667-.1212.002-.1003.068.0523.1667.3253.2103.384.2103.254 0zm-9.1262-.5367c.0823-.1332.03-.1627-.1594-.09-.155.0595-.2817.0298-.2817-.066 0-.0956-.0843-.1218-.1874-.0581-.1307.0807-.1179.1599.0423.2614.3112.1972.4415.1867.5862-.0473zm5.4433-.0135c-.2272-.2488-1.0063-.356-.5495-.0207.3962.2897.6421.299.5495.0207zm-3.3444-.0216c-.6818-.7195-.3375-.0987 0 0zm-5.08-.3495c0-.041-.0762-.1217-.1694-.1793-.093-.0576-.1693-.024-.1693.0747 0 .0986.0762.1794.1693.1794s.1694-.0336.1694-.0747zm16.0008-.262c.0593-.096-.009-.1244-.1594-.0666-.2933.1125-.347.234-.1034.234.0876 0 .2059-.0754.2628-.1675zm-20.0648-1.6953a.1699.1699 0 00-.1694-.1694.1699.1699 0 00-.1693.1694c0 .093.0762.1693.1693.1693a.1699.1699 0 00.1694-.1693zm-4.774-1.4438c-.0522-.0521-.1469.0419-.2105.2088-.0919.2414-.0724.2608.0948.0948.1157-.1149.1678-.2515.1156-.3036zm-.7294.089c-.0576-.093-.2716-.164-.4756-.1574-.3577.0115-.3589.0171-.0323.1575.466.2003.6318.2003.508 0zm2.0365-.306c-.052-.052-.1888 0-.3036.1157-.166.1673-.1466.1867.0948.0948.167-.0636.261-.1583.2088-.2104zm-3.8603-.135c-.0563-.0562-.2024-.0622-.3246-.0133-.135.054-.095.0942.1023.1023.1785.007.2785-.0327.2223-.089zm-3.7872-1.6746c-.0534-.1392-.1735-.2059-.2668-.1482-.1043.0645-.0812.161.0601.2504.3083.1954.3189.1902.2067-.1022zm.9085-.3573c-.0563-.0563-.2023-.0623-.3246-.0134-.135.054-.095.0942.1024.1023.1785.007.2785-.0327.2222-.089zm-1.389-.373c-.052-.0521-.1888-.0001-.3036.1156-.166.1673-.1466.1867.0948.0948.167-.0636.261-.1583.2088-.2104zm-56.7141-50.2823c-.0663-2.3982-.1542-4.627-.1953-4.953-.0411-.326-.1902-1.8409-.3311-3.3664-.141-1.5255-.4406-3.9258-.6657-5.334-.2252-1.4082-.4588-3.0556-.5192-3.661-.3951-3.9605-1.2791-8.6285-1.908-10.0753-.6178-1.4213-.743-1.5778-1.9142-2.3929l-1.0391-.7231-.4476.3204c-.2461.1762-.6994.357-1.0073.4017-.3079.0447-.765.2187-1.016.3867-.705.472-1.6985 1.0314-2.9962 1.6874-.652.3296-1.4406.7486-1.7526.9312-.312.1826-.7077.2874-.8794.233-.2534-.0805-1.686.473-1.686.6513 0 .0272.8192.0447 1.8203.039 1.0012-.006 2.087.0211 2.413.0601.326.039.7613.0157.9673-.0517.272-.0889.4564-.027.6727.2256.2986.3488.8087.4634.9616.216.0448-.0725.5806-.09 1.1906-.0388 1.3905.1166 1.6025.356 1.6514 1.8641.083 2.5606-.02 4.8869-.248 5.5991-.132.413-.2524 1.0588-.2673 1.435-.015.3763-.2572 1.3288-.5385 2.1167-.2813.788-.5784 1.6914-.6603 2.0077-.082.3163-.2116.621-.2882.6773-.0766.0562-.4287.6843-.7824 1.3957-.3537.7114-.7919 1.428-.9737 1.5926-.1818.1645-.3305.3957-.3305.5137 0 .118-.5578.7816-1.2396 1.4745-.6818.693-1.5292 1.6132-1.883 2.0451-.354.432-.7368.7853-.8509.7853-.114 0-.3453.1524-.5138.3387-.1686.1862-.3543.3386-.4127.3386-.0584 0-.6459.5144-1.3055 1.143-1.6908 1.6115-4.4748 3.8644-4.9695 4.0214-.4931.1565-2.2023 1.4169-2.2023 1.624 0 .079.0952.1116.2116.0724.1165-.0392 1.3547-.4257 2.7517-.8589 6.9001-2.1396 8.5039-2.46 12.7828-2.5535l3.1307-.0684 1.018.5018c.9668.4765 2.7012 1.9958 3.6425 3.1907.2328.2956.4924.5397.5767.5425.0909.003.1043-1.7738.033-4.3553zm-27.195-25.781c.1397-.0903.1778-.1642.0847-.1642-.0932 0-.2837.0739-.4234.1641-.1397.0903-.1778.1642-.0846.1642.0931 0 .2836-.074.4233-.1642zm.762-.6774c.0576-.093.024-.1693-.0747-.1693-.0986 0-.1793.0762-.1793.1693s.0336.1694.0747.1694c.041 0 .1218-.0762.1793-.1694zm-12.6605 8.9537c.1148-.1157.2515-.1678.3036-.1156.0522.052-.0418.1468-.2088.2104-.2414.0919-.2608.0724-.0948-.0948zm10.8825-4.043c0-.0931.0807-.1693.1793-.1693s.1322.0762.0747.1693c-.0576.0931-.1383.1693-.1794.1693-.041 0-.0746-.0762-.0746-.1693zM34.29 131.4794c-.3752-.1653-.5393-.1733-.6276-.0305-.0789.1274-.324-.005-.719-.3877-.5779-.5601-.8083-.6347-2.1981-.7111-.7192-.0396-1.259-.7079-1.9622-2.4294-.076-.1863-.1808-.5673-.2326-.8467-.0519-.2794-.1435-.6805-.2035-.8915-.0872-.3065-.054-.3624.1653-.2782.1511.058.2744.0211.2744-.082 0-.1032-.1057-.1875-.2348-.1875-.231 0-.4737-.7751-.4508-1.4394.1722-4.9956.0451-9.6489-.3432-12.565a4338.338 4338.338 0 01-.2543-1.913c-.0432-.326-.2233-1.4308-.4002-2.4553-.9815-5.6854-1.2002-9.689-.622-11.3916.2522-.743.4043-.9353.9058-1.1448.7133-.298 1.048-.6916 1.0554-1.2408.005-.3661.0564-.3903.6096-.2865.623.1169 2.3111.7696 3.2058 1.2395.6012.3157 3.631 2.67 4.5088 3.5034.5337.5069 2.1799 2.8066 2.1799 3.0455 0 .0471.2726.6401.6058 1.3178.3332.6777.7553 1.7084.9381 2.2905.1828.582.414 1.0583.5137 1.0583.0998 0 .5668-.3238 1.038-.7196.471-.3959 1.0281-.834 1.2378-.9737.2097-.1397 1.435-1.0211 2.723-1.9587 2.7436-1.9973 5.4678-3.7937 8.1836-5.3964 1.071-.6321 2.0807-1.2669 2.2436-1.4107.163-.1437.2964-.2021.2964-.1297 0 .0724.0952.0542.2116-.0405.1165-.0948.7451-.4556 1.397-.802.652-.3464 2.5022-1.364 4.1116-2.2615 10.4199-5.8106 13.4586-7.2238 24.9502-11.604 8.858-3.3765 12.974-4.709 21.2302-6.873 4.1622-1.091 12.6458-2.4826 20.1507-3.3054 2.049-.2246 4.4492-.4941 5.334-.5988 3.8247-.4527 9.6178-.4556 14.5627-.0074 1.071.097 2.8617.221 3.9793.2756 2.4676.1203 6.509.5115 8.8053.8523 5.5127.8182 11.1494 2.6982 12.8694 4.2923.2794.259.889.7233 1.3546 1.0318 1.06.7025 2.077 1.6216 3.3635 3.04 1.3558 1.495 2.038 3.097 2.2466 5.2759l.1075 1.1231-.9961 1.079c-.5479.5934-1.1938 1.318-1.4353 1.61-.3502.4235-.556.525-1.016.5011-.3504-.0183-.6765.0789-.8308.2475-.1397.1526-.5745.367-.9661.4764-.3917.1093-.8285.3152-.9708.4575-.1422.1422-.4135.2884-.6027.3249-.1893.0364-.7955.4208-1.347.854-.5515.4334-1.0757.7428-1.1648.6878-.2108-.1303-1.0027.2352-2.5407 1.1726-.6832.4163-1.281.757-1.3285.757-.0475 0-.2888.1386-.536.308-.2472.1693-.7767.402-1.1768.517-.4.115-1.5811.6274-2.6246 1.1386-2.7005 1.3229-6.0188 2.6204-6.4473 2.521-.1984-.046-.8941.0621-1.546.2404-1.7732.4848-2.4296.6401-3.6407.8617-.6214.1137-1.5502.4528-2.133.7787-.5677.3175-1.248.5772-1.5117.5772-.4972 0-3.0447.8504-3.8321 1.2793-.2472.1346-.5728.2447-.7234.2447-.3949 0-2.358.9164-3.0117 1.4058-.7463.5588-1.6377.9997-1.8668.9234-.1025-.0342.1672-.2694.5994-.5227 1.5441-.905 4.5348-4.2006 3.9798-4.3856-.1506-.0502.1692-.5144.832-1.2074.1658-.1734.911-.779 1.6561-1.3458.7451-.5669 1.6214-1.2734 1.9474-1.5702.326-.2967 1.0498-.957 1.6086-1.4674.5588-.5103 1.6256-1.4412 2.3707-2.0688a667.7263 667.7263 0 002.2013-1.8621c.4657-.3966 1.4402-1.2236 2.1656-1.8377 1.4403-1.2193 6.8938-6.4084 6.8938-6.5595 0-.2237-2.8336-1.0377-4.9954-1.4352-.8382-.154-1.8669-.3558-2.286-.4484-6.6417-1.4668-15.6123-2.3944-19.2706-1.9927-4.2206.4634-10.0193 1.5899-11.548 2.2432-.326.1393-1.6595.4197-2.9634.623-1.3038.2033-2.523.4659-2.7093.5836-.3487.2203-1.438.4013-3.1952.5307-.5522.0407-1.9262.26-3.0531.4874-1.127.2274-2.8872.5736-3.9117.7694-1.0245.1957-2.0913.4236-2.3707.5063-.2794.0828-.8509.245-1.27.3606-1.2377.3414-3.9586 1.3626-4.2333 1.5888-.1397.115-.5969.3275-1.016.472-7.9218 2.7316-17.8077 6.7638-18.2204 7.4316-.0482.078-.2092.1417-.358.1417-.1486 0-.506.1768-.7943.3929-.2882.216-1.2479.7595-2.1326 1.2077-.8848.4482-1.9135.9855-2.286 1.1941-.3726.2086-1.2489.6842-1.9474 1.0569-.6985.3727-1.5367.8366-1.8626 1.031-.326.1944-1.2404.7157-2.032 1.1586-.7917.4428-1.8966 1.087-2.4554 1.4315-.5588.3445-1.9304 1.1016-3.048 1.6824-2.3859 1.24-5.609 3.1243-6.1069 3.5704-.1922.1723-.4009.3132-.4636.3132-.0964 0-2.52 1.6237-4.1706 2.794-5.3042 3.7609-9.1529 7.4428-10.0671 9.631-.142.3399-.2747 1.6449-.3473 3.418-.1076 2.627-.323 4.93-.4754 5.0824-.0338.0338-.2999.0796-.5912.1018-.2914.0222-.4934.0992-.449.1711.1172.1896-.2645.8406-.4321.737-.0779-.048-.18.0591-.2268.2383-.0577.2207-.1885.2988-.4053.2421-.4531-.1185-1.1044.165-1.8179.7916-.4777.4193-.7642.5371-1.2888.53-.371-.005-.6746.062-.6746.1493 0 .0873-.1143.1587-.254.1587s-.4064.1524-.5927.3387c-.1863.1863-.5101.3414-.7197.3447-.2095.003-.5715.1149-.8043.248-.5087.2908-.6155.291-1.27.003zM122.5171 79.27c-.052-.0521-.1887 0-.3036.1157-.166.1672-.1465.1866.0948.0947.167-.0635.261-.1582.2089-.2104zm-42.2494-9.3037c.0048-.3834.5845-1.6606.8197-1.806.0998-.0616.7687-1.3092 1.4865-2.7725 1.6087-3.2794 3.3436-6.2356 3.9677-6.7608.2581-.2172.6322-.7313.8312-1.1424.3252-.6717.3403-.8214.1498-1.4777-.1166-.4016-.3025-.8826-.4131-1.0689-.1106-.1863-.37-.9102-.5764-1.6087-.2064-.6985-.4508-1.3621-.5432-1.4747-.0923-.1126-.1167-.4375-.0542-.722.08-.3648.0072-.7371-.2475-1.263-.462-.9547-.6385-1.959-.3442-1.959.1509 0 .1845-.1797.1143-.612-.094-.5791-.083-.5974.2029-.3387.4021.364.5727.345.8469-.094.2065-.3309.2453-.3393.3878-.0848.087.1556.259.2829.3823.2829.1233 0 .5576.1469.9653.3264.4454.1961 1.1128.3245 1.6725.3217 1.3627-.0068 2.1676.4302 3.9526 2.1459.872.8382 1.9854 1.7907 2.4742 2.1167.4888.326 1.0144.7195 1.168.8745.1535.155.5766.518.9401.8065.6419.5093 2.3325 2.0332 3.4405 3.101.8133.7839 1.268 1.8876 1.3434 3.2613.0358.652.1398 1.6952.2312 2.3184.2207 1.5067.2407 1.4197-.3843 1.6778-.3027.125-.9025.5724-1.3329.9942-1.8998 1.862-2.4802 2.1279-4.5835 2.0994-1.2673-.0172-1.8067-.101-2.3706-.3681-1.1254-.5333-3.5223-1.3295-4.3798-1.455-.6122-.0896-.961-.0297-1.6933.2908-.5072.222-1.1467.4581-1.421.5249-.2744.0667-.7461.3384-1.0483.6038-.5638.495-2.5138 1.6958-2.7538 1.6958-.0737 0-.2762.1571-.45.3491-.2464.2723-2.487 1.5136-2.732 1.5136-.0289 0-.0508-.1334-.0488-.2964zm-.9585-1.8203c-.1165-.3038.0352-.762.2524-.762.1865 0 .3367.5091.2374.8043-.0976.29-.3713.2663-.4898-.0423z" id="path2181" fill="#000" stroke-width=".1693"/>
    <path d="M30.8486 254.4228c-.5617-.0693-2.069-.3677-2.9739-.5888-1.2925-.316-3.195-1.8711-3.7407-3.0582-.1557-.3387-.4233-.8197-.5945-1.0688-.1712-.2493-.7018-1.2156-1.1791-2.1478l-.868-1.695.0207-1.9827c.0114-1.0904.0598-2.1685.1077-2.3956.3096-1.4669 1.2511-3.4934 2.0646-4.4437.5926-.6924 2.752-2.2201 3.1378-2.2201.124 0 .2256-.0993.2256-.2203s.1396-.2203.3102-.2203c.1706 0 .4122-.1236.537-.2746.5451-.6604 1.474-.872 3.7912-.8637 2.167.0103 2.2505.0207 3.6225.6016.7724.3268 1.4415.6416 1.487.7002.0454.0584.5154.4308 1.0445.8265.8844.662 1.9294 1.901 1.9294 2.2877 0 .1976.8144 1.8324 1.0834 2.1746.3413.4339.7076 3.8.4136 3.8-.0964 0-.1753.072-.1753.1598 0 .088.1116.1174.2479.0651.2983-.1143.305.0817.0778 2.2533-.204 1.9486-.3643 2.4426-1.232 3.7965-.38.5926-.6846 1.1272-.677 1.188.0243.197-.7806.9634-1.012.9634-.1237 0-.7985.3242-1.4996.7203-1.442.815-1.8896.9752-3.753 1.3435-1.6973.3356-1.898.3604-2.3956.2994zm.661-1.126c0-.1376-.0717-.3791-.1593-.537-.0875-.1578-.3074-.6104-.4886-1.0057l-.3295-.7187.5196-.438c1.3144-1.1074 1.206-1.0736 1.6713-.5206.6006.7138.9343.655.9343-.165 0-.4773.0688-.6609.2478-.6609.1363 0 .2478.0765.2478.1706 0 .363.7184.4453 1.2338.1412.7417-.4375 1.6316-1.4081 1.4945-1.63-.0862-.1396-.1903-.1287-.3903.0415-.4261.3599-1.508.9479-1.7435.9479-.117 0-.337-.137-.4888-.3051-.259-.286-.2533-.3346.0926-.7848.2027-.2637.4294-.523.5038-.5757.1519-.1075-.0108-.6476-.1953-.6476-.0653 0-.2933.1856-.5068.4131-.4841.5156-.6206.5171-.8517.0103-.151-.3314-.121-.5093.1688-1.0007.3963-.6717.4394-.909.1652-.909-.2609 0-.932.8122-1.1224 1.3583-.119.3412-.099.514.08.6927.2925.2927.316 1.0902.032 1.0826-.3208-.0103-.8732-.5327-1.1314-1.0736-.161-.3377-.3753-.5067-.6872-.5428-.2492-.031-.4531-.0207-.4531.0207s.3346.5707.7435 1.1804c.4089.6099.7435 1.1685.7435 1.2414 0 .073-.2789.3418-.6196.598-.3408.256-.6684.5366-.728.6238-.0596.0874-.3324-.2803-.6062-.8173-.739-1.449-.907-1.642-1.162-1.3348-.1698.2048-.12.422.2775 1.2128.2663.5298.6544 1.3723.8623 1.872.3814.9167 1.2924 2.2986 1.5216 2.308.0682.003.124-.1076.124-.2451zm4.9148-2.6159c.706-.4467 2.0243-1.7204 2.0243-1.9559 0-.0864.1765-.3935.3922-.6827.685-.9183 1.0029-2.179 1.0077-3.9956.0041-1.5418-.2932-3.2217-.5702-3.2217-.0653 0-.2317-.2875-.3696-.6388l-.251-.6387-.8265.0796c-.9063.0874-1.1624-.0889-.8518-.5863.2576-.4127.07-1.364-.3826-1.9393-.5432-.6905-2.664-2.0016-3.5527-2.1962-1.4386-.315-2.0034-.3708-2.1047-.2069-.1277.2069.322.4473 1.1119.5957.7806.1464.8996.3393.489.793-.896.9899-1.87 3.0856-1.4338 3.0856.1277 0 .5466-.4524 1.1833-1.2785l.4124-.535.4403.4525c.669.6871 1.4857 1.3611 1.6496 1.3611.0805 0 .2382.1107.3503.2457.1655.1996.122.4023-.2312 1.0776-.383.7324-.403.8445-.167.935.1474.0564.3274.005.4-.1106.0725-.1174.2486-.1686.3912-.1138.1718.0657.351-.0558.5307-.36.2554-.4322.3259-.455 1.203-.3883 1.0877.0833 1.3769.3455 1.7573 1.5939.6541 2.1472-.0445 5.1167-1.6462 6.996-.6204.728-1.8465 1.6087-3.2718 2.3502-.7124.3707-1.1117.6796-1.1119.8606-.0001.2306.256.1484 1.4038-.452.7722-.4038 1.683-.9108 2.0239-1.1266zm-1.28-12.0179a91.9185 91.9185 0 01-.9914-.8177c-.318-.2663-.7198-.5857-.8927-.7098-.3022-.2167-.294-.2472.207-.7715.4903-.513.5397-.5294.8232-.273.1659.15.383.273.4824.273.3388 0 1.209.864 1.4492 1.439.4343 1.0396-.2145 1.5572-1.0778.86zm-6.6999 13.5757c.0517-.0832-.4847-.734-1.1917-1.4457s-1.4885-1.5417-1.7366-1.8443l-.4513-.5502.7514-.9564c.4132-.526.8252-1.224.9156-1.5514.1544-.559.2145-.6018.9918-.705.6399-.0847.8156-.17.7752-.3764-.0596-.304-.901-.3309-3.2264-.1034-1.17.1148-1.363.0977-1.363-.1184 0-.3418.3035-.5614.974-.705.3457-.074.837-.4038 1.2803-.86l.7192-.7401 1.1722.1975c1.2157.2048 1.6097.0998 1.4251-.381-.0792-.2064-1.6673-.4903-4.8274-.8621-.1817-.0207-.3454-.0465-.3638-.06-.018-.0103.0679-.2617.1915-.5558l.2248-.5346 1.4607-.002c1.343-.002 1.4735-.031 1.6194-.364.0873-.1992.3066-.4003.4873-.4474.3407-.0889 1.4193.4732 1.4193.74 0 .0833.1858.1515.413.1515.7296 0 .4534-.4437-.7848-1.2608-.6588-.4349-1.2958-.925-1.4156-1.0894-.1198-.1644-.272-.2653-.3384-.2244-.0663.0414-.2274.0103-.3582-.0724-.1988-.123-.1824-.1986.0998-.4613.1856-.1732.6198-.4074.9648-.5214.7087-.2338 1.0345-.0553 1.1686.6406.1433.7444.3785.8524 1.0253.4706.4718-.2787.5433-.3827.361-.5252-.1251-.0977-.376-.4644-.5576-.8148-.3972-.7661-.8813-.9838-1.9906-.8952-.6364.0517-1.0563.2208-1.7698.7167-.5145.3573-.9383.711-.9418.7856-.0034.0745-.3036.4882-.6671.9193-.3635.4313-.6609.8362-.6609.9003 0 .0641-.1858.4111-.413.771-.2272.3598-.413.8267-.413 1.0375 0 .211-.0769.4602-.1708.554-.0939.0941-.1777.5191-.1862.945-.0088.426-.0884.8192-.1774.8742-.0964.0595-.0712.1588.0623.2446.1859.12.1818.1722-.0238.3072-.1657.1086-.1794.1634-.0414.165.2474.003.2749.529.0399.7638-.2091.209.3882 2.6447.7455 3.0394.136.1505.2471.3455.2471.4339 0 .2487 1.3846 2.092 1.9779 2.6334.292.2663.752.6882 1.0225.9373.9553.8799 1.3561 1.089 1.5347.8zm-4.0861-5.342c-.5295-1.4473-.533-1.4186.1647-1.3827.8545.0414 1.025.1851.9488.7864-.069.5457-.4851 1.2985-.7177 1.2985-.0764 0-.2546-.316-.3958-.7021zm-.4076-4.2166c.0445-.592.0722-.6177.7048-.6591.362-.0259.7698.031.906.119.2109.1375.1863.2213-.1652.5597-.2271.2187-.6558.4426-.9525.497-.5363.0987-.5392.0956-.493-.5167zm1.9-3.2952c-.5858-.089-.5726-.2079.1079-.9726l.5622-.6319.5114.5.5115.5001-.3366.3615c-.332.3562-.4588.379-1.3564.243zm14.3327 7.8836c.0561-.091.0279-.165-.0631-.165-.0909 0-.2112.0746-.2673.165-.0562.091-.028.165.063.165.0909 0 .2112-.0745.2674-.165zm-3.2218-1.083c0-.5532.0254-.5749.9913-.8434 1.216-.3382 1.3412-.7171.237-.7171-1.0169 0-1.3935-.225-1.3935-.832 0-.501.0037-.503 1.0413-.5636.269-.0155.602-.347.6084-.6055.0046-.1867-2.3829-.3077-3.3526-.1701-.9435.1339-.9634.1282-1.202-.333-.2691-.5205-.434-.578-.7084-.2472-.2661.3206.2551 1.7496.9723 2.6653.4233.5403.729.762 1.154.8368.9071.1598.9914.2084.9914.5773 0 .4664.3095 1.018.504.8979.0862-.0533.1569-.3527.1569-.6648zm-1.763-1.8661c-.3006-.09-1.1819-.9843-1.0164-1.0313.7788-.2213 1.1732-.136 1.6293.3527.674.7215.4303.9913-.613.6788z" id="path75-3" fill="#fe0000" fill-opacity="1" stroke-width=".1652"/>
  </g>
</svg>
