<svg xmlns="http://www.w3.org/2000/svg" viewBox="0 0 210 297" version="1.1" id="svg2396">
  <g id="layer1">
    <path d="M96.1088 238.1132c-.326-.0894-.9912-.1742-1.4782-.1885-.487-.0142-.9785-.119-1.0922-.2326-.303-.303-.5312-.252-.4003.0894.0752.1957-.051.1383-.3721-.1694-.2672-.256-.6446-.4653-.8388-.4653-.2526 0-.4551-.217-.7113-.762-.2536-.5396-.4597-.762-.706-.762-.1913 0-.302-.0743-.246-.1649.0561-.0906-.0562-.3002-.2495-.4656-.1934-.1655-.6235-.8343-.956-1.4862-.3324-.652-.8128-1.452-1.0675-1.778-.2548-.326-.5525-.7606-.6617-.9658-.1093-.2053-.5704-.798-1.0247-1.3173-1.3628-1.5573-1.5468-2.2445-.7717-2.8816.1133-.093.2523-.3692.3088-.6135.0881-.3805-.0485-.5917-.9533-1.4743-.581-.5667-1.1787-1.1669-1.3285-1.3339-.1497-.167-.7403-.7402-1.3123-1.2738-.9552-.891-1.3012-1.4851-.8649-1.4851.0964 0 .7632.5025 1.4817 1.1167.7186.6142 1.535 1.234 1.8145 1.3775.2794.1434 1.0994.7098 1.8222 1.2588.7228.549 1.5146 1.0743 1.7595 1.1674l.4454.1693-.1138-.968c-.0626-.5325-.4527-2.6874-.867-4.7886-1.2726-6.4553-1.6237-9.4471-1.9487-16.6052-.0994-2.1886-.2941-5.5033-.4327-7.366-.3695-4.968-.744-10.288-.747-10.6109-.0022-.2451-.0739-.2561-.553-.0847-.3026.1083-.5884.2414-.635.2957-.0916.107-1.9595 1.002-2.091 1.002-.044 0-.6011.2948-1.2381.6552s-1.5773.8266-2.0895 1.036c-.5122.2095-1.541.6689-2.286 1.021-1.8508.8746-3.9517 1.7291-5.6727 2.3074-.7916.266-1.4647.5408-1.4957.6106-.031.07-.2075.127-.3922.127-.1846 0-.4936.0845-.6865.1878-.193.1033-.588.2252-.8779.2708-.2898.0456-.6603.1543-.8233.2415-.163.0872-.2964.122-.2964.0773 0-.0447-.6367.1394-1.415.4091-.7783.2697-1.7499.5069-2.159.527-.4092.0203-.9345.1064-1.1673.1916-.4628.1692-1.352.289-3.048.4104-1.1016.079-3.6606-.2031-3.9793-.4387-.0932-.0688-.5335-.2596-.9785-.4241-.4451-.1645-1.1959-.6046-1.6684-.9781-1.4923-1.1797-1.8707-2.7064-1.1667-4.7084 1.1658-3.3152 3.666-7.0969 13.2662-20.0655.6895-.9313 1.9689-2.7116 2.8431-3.9562 2.1626-3.0786 4.54-6.3142 8.3774-11.4018 1.7774-2.3565 3.6357-4.9704 4.1296-5.8086.4938-.8382 1.0929-1.8288 1.3313-2.2014.2384-.3725.5954-.982.7934-1.3546.198-.3726.6239-1.1346.9464-1.6934s.7645-1.435.9823-1.9473c.2177-.5122.5287-1.1218.6909-1.3547.2282-.3275.5614-1.524.4244-1.524-.0146 0-.4396.1727-.9443.3838-.9335.3902-2.2927 1.2703-2.9743 1.9258-.2072.1993-.8008.6049-1.3191.9015-.5183.2965-.9424.6009-.9424.6763 0 .0754-.1333.1805-.2963.2334-.163.053-.8298.4043-1.4817.7807-.652.3764-1.452.8177-1.778.9807-.326.163-1.6107.8493-2.855 1.5251-1.2443.6758-2.3062 1.2287-2.3598 1.2287-.0536 0-.4452.293-.8703.651-.9775.8235-4.5837 3.4233-4.9216 3.5482-.1397.0516-.4826.262-.762.4673-1.0902.8013-4.4719 2.371-5.4674 2.538-.3457.058-.876.181-1.1783.2734-1.157.3536-3.3131.4169-4.0596.1192-.2589-.1032-.6618-.2062-.8953-.2288-.8191-.0793-3.8934-1.742-3.8934-2.1057 0-.055-.2343-.2036-.5207-.3304-.8933-.3954-2.2312-1.8884-2.9881-3.3345-1.0223-1.953-1.274-3.214-1.1803-5.9103.0422-1.2137.1336-2.3442.2032-2.5122.1192-.2879.1486-.2848.5083.053.2232.2098.6185.364.952.3716.3137.007.7726.1546 1.0198.3279.2472.1733.4984.315.5581.315.4322 0 3.7955 1.8911 5.265 2.9604.4399.32.738.1684 4.3107-2.1916 3.1162-2.0585 3.3893-2.2225 9.0594-5.4409 6.6324-3.7645 9.5977-5.3387 11.7686-6.2475.6054-.2534 1.4117-.6013 1.7917-.773.38-.1718 1.0658-.4605 1.524-.6415 1.3228-.5228 7.0122-3.1847 7.015-3.2822.0007-.0259.1129-.9406.249-2.0328.1363-1.0922.2996-3.7232.3629-5.8467.131-4.3926.2372-4.0127-1.4178-5.0714-.4923-.315-1.0617-.8267-1.2653-1.1372-.3568-.5443-.4046-.5627-1.3265-.5086-.526.031-1.2914.1783-1.701.3275-1.4822.5402-1.7717.6205-2.438.6758-3.0227.2509-5.779.6921-5.9387.9506-.051.0824-.1688.1498-.262.1498-.093 0-.127-.0682-.0756-.1516.1628-.2633-.36-.344-1.7193-.2655-3.0348.1753-3.7404.2386-4.7467.4258-.5821.1082-1.1917.1385-1.3547.0672-.163-.0713-.3725-.1112-.4656-.0886-.0932.0226-1.0838.0766-2.2014.1201s-2.5608.1503-3.207.2372c-.7819.1051-1.4903.0974-2.1167-.023-1.2606-.2424-3.075-.1969-4.1133.1033-.3341.0966-.318.056.1237-.311.2794-.2322.467-.4637.4169-.5144-.125-.1264-1.1758.2486-1.7487.624-.3747.2455-1.8143.7822-2.121.7907-.334.009 3.7498-3.1276 7.6015-5.8389 2.3546-1.6574 6.2149-3.7849 13.716-7.559 2.0023-1.0076 3.9835-2.0165 4.4026-2.2422.4191-.2257 1.486-.7645 2.3707-1.1974.8848-.4329 2.5993-1.3157 3.81-1.9618a769.5536 769.5536 0 014.2074-2.226c1.1033-.5782 2.2082-1.2686 2.4553-1.5342.2471-.2656.8684-.7222 1.3806-1.0146.5123-.2925.9695-.5748 1.016-.6276.2217-.251 2.2014-1.5418 2.2014-1.4354 0 .0668.1333-.0274.2963-.2094s.6392-.5615 1.0583-.8436c5.1437-3.4612 7.4023-5.3417 7.196-5.9915-.06-.1892.0207-.6842.1796-1.1.2184-.5718.2606-1.0041.1735-1.7743-.095-.8397-.0711-1.0183.1365-1.0183.1598 0 .271-.1997.3047-.5472l.0531-.5473 1.27 1.1074c1.6 1.395 3.4946 2.6965 3.9255 2.6965.5577 0 .9005.2716 3.0962 2.453 2.1753 2.161 2.7925 3.0279 2.8723 4.0342.0251.3159.0965.6566.1586.7573.2665.4311.2941 2.1018.0412 2.4878-.1396.213-.2716.7778-.2934 1.255-.0372.8154-.3948 1.5788-1.1253 2.4018-.532.5993-1.1147 1.305-1.5286 1.8509-.247.326-.6417.7909-.8768 1.0332-.2352.2424-.6694.741-.965 1.1082-1.2415 1.5425-1.2866 1.5816-3.95 3.4205-1.292.8921-5.649 3.2434-6.01 3.2434-.0792 0-.2643.1017-.4113.2261-.147.1244-.496.3128-.7754.4188-.2793.106-.7366.2836-1.016.3947-.2794.1111-.5588.2084-.6208.2162-.0621.008-.17.0713-.24.1412-.0698.0699-.2548.127-.4111.127s-.4051.1333-.553.2963c-.1477.163-.616.4488-1.0406.635-.844.3703-1.0141.5914-.3586.4661.2308-.044.7452.0796 1.154.2775.4058.1964.7884.357.8503.357.062 0 .5141.2592 1.0049.576 2.3809 1.5365 2.72 2.5673 2.745 8.3458.009 2.1595.0662 3.9756.1263 4.0358.0601.0602 1.1254-.2004 2.3672-.579 3.8603-1.1767 7.9744-2.0291 11.9137-2.4683 1.9463-.217 2.5745-.3958 4.0358-1.149.3592-.185 1.1314-.3748 1.716-.4217 2.5795-.2071 3.865.7389 4.3973 3.2358.1616.7583.4057 1.751.5424 2.206.1757.585.1957.88.0683 1.0075-.099.099-.1803.3198-.1803.4904 0 .1705-.1143.354-.254.4076-.155.0595-.254.316-.254.6579 0 .3082-.0897.5903-.1993.6268-.4.1334.0668.4703.675.4873.3437.01-.0989.117-.9837.2386-.8847.1217-1.9294.3325-2.3214.4684-.392.136-.9064.2102-1.143.165-.253-.0483-.4302-.004-.4302.1068 0 .1073-.2894.189-.669.189-.368 0-1.0347.0716-1.4817.1589-.835.1631-3.8022.6388-4.7074.7545-.2794.0357-.889.156-1.3546.2672-.4657.1113-.996.2327-1.1786.27-1.2317.2513-3.403.8571-3.4499.9625-.031.0698-.1903.127-.3539.127-.3858 0-3.157.9687-5.0425 1.7626-1.05.4422-1.0794.5752-1.311 5.942-.0986 2.2855-.234 4.6623-.3666 6.4347-.1463 1.9565-.2161 21.9287-.0766 21.9287.1224 0 4.893-2.3072 5.9808-2.8925.1638-.088.8877-.394 1.6087-.6797.721-.2857 1.5485-.6657 1.839-.8443.2903-.1787.6523-.3249.8043-.3249.152 0 .2763-.068.2763-.1512s.125-.1992.278-.2579c.2324-.0892.2428-.0644.0639.1513-.2828.3406-.1018.3252.7402-.0631a339.455 339.455 0 011.8812-.8566c.652-.2945 1.3187-.608 1.4817-.6964.1733-.0941.2963-.097.2963-.007 0 .0848-.2476.2455-.5503.3572-.3132.1156-.4554.2395-.33.2876.121.0465.875-.2297 1.6753-.6137s1.4938-.6595 1.5412-.6121c.0474.0474-.3256.281-.8287.5192-.5031.2382-1.029.502-1.1688.5862-.1397.0842-.6509.3428-1.136.5748-.485.232-1.1526.668-1.4836.9692-.331.3012-.9889.7687-1.4622 1.039-.4732.2703-.826.526-.7838.568.042.0422.7136-.192 1.4923-.5204.7786-.3283 1.5132-.597 1.6325-.597.1192 0 .2171-.0571.2176-.127.0003-.07.2667-.1406.5918-.1573.3251-.0166.801-.1737 1.0576-.3491.2566-.1755.7332-.4008 1.0591-.5008.326-.1.8854-.3088 1.243-.4639.3578-.155.601-.2019.5404-.104-.0605.098-.2008.18-.3117.1823-.1892.004-1.1312.888-2.6119 2.4511-.3529.3725-1.3826 1.3694-2.2883 2.2152-.9056.8458-2.0206 2.027-2.4777 2.6247-.4571.5977-1.2312 1.3916-1.7202 1.7641-.489.3725-1.1258.8727-1.415 1.1115-.2893.2387-.7926.6155-1.1186.8373-1.0842.7376-2.3828 1.9095-2.3211 2.0946.0335.1005.3146.1752.6248.166l.564-.0166-.7462.604c-1.2535 1.0145-2.7695 2.6286-2.5405 2.705.121.0402-.3.5528-.9815 1.195-.7697.7254-1.2087 1.2749-1.2365 1.548-.043.4212.0766 2.384.3712 6.096.085 1.071.2012 3.014.2583 4.318.057 1.3038.1347 2.523.1727 2.7093.0995.4884.3851 4.2562.5904 7.7893.0974 1.6764.2098 3.3528.2498 3.7253.0399.3726.2301 2.7348.4227 5.2494.1925 2.5146.5013 5.8674.6861 7.4506.1848 1.5833.3679 3.1591.4067 3.502.039.3427.1614 1.084.2722 1.6471.2096 1.0655.1789 1.6235-.2524 4.5876-.1423.9779-.2637 2.159-.2698 2.6247-.006.4656-.1236 1.1514-.261 1.524-.3128.8476-.432 3.1654-.209 4.064.146.589.8179 1.5079.9285 1.27.0216-.0466.2249.1668.4517.4742.3646.4942.3899.6216.2186 1.1007-.2402.6716-.4158.8107-.9614.7612-.2589-.0235-.58.1121-.8096.3418-.2094.2094-.6069.4259-.8834.4812-.356.0712-.5027.1992-.5027.4388 0 .2562-.0527.2944-.2174.1577-.1386-.115-.4428-.1297-.8382-.0405-.3414.077-.6635.0973-.7157.0451-.1026-.1026-.691.4672-.7217.6989-.0303.2282-.1011.2344-.7243.0634zm-29.8027-58.112c.8848-.3454 2.0278-.8391 2.54-1.0971s2.341-1.1003 4.064-1.8719c1.723-.7715 4.9873-2.3036 7.254-3.4046l4.1214-2.0017-.0925-1.318c-.0509-.7248-.1413-2.918-.2008-4.8738-.0596-1.9558-.1612-3.8227-.2258-4.1487-.0645-.326-.038-2.097.0588-3.9354.2344-4.4459.2634-4.4354-2.5003-.9058-.5768.7368-1.9014 2.4894-2.9435 3.8947-1.0421 1.4053-2.0383 2.7456-2.2138 2.9785-.1754.2328-.9181 1.2996-1.6503 2.3706-.7323 1.071-1.641 2.3665-2.0196 2.8787-.3785.5122-.8957 1.2361-1.1492 1.6087-.2536.3725-.6346.8994-.8467 1.171-.2121.2714-1.4392 1.9097-2.7269 3.6406-1.2876 1.7309-2.5174 3.3756-2.7329 3.655-.2154.2794-.6748.8811-1.0208 1.337l-.6292.829.6527-.0892c.359-.0491 1.3766-.372 2.2614-.7175zm87.4907-11.8407c-.056-.1463.0133-.3259.157-.4063.22-.1231.3335-.3862.3928-.9107.007-.063.1463-.1528.3093-.1995.163-.0467.0114-.044-.3369.006-.6182.0889-.5746.0327 1.8516-2.3799 1.3666-1.359 2.4323-2.5232 2.3682-2.5873-.064-.064.006-.3036.156-.5323.338-.5159.0693-.768-.6734-.6318-.2678.0491-.6195.0893-.7815.0893-.1621 0-.5059.1661-.764.3691-.6306.496-1.2233.5334-2.0067.1265-.4952-.2573-.7078-.293-.8825-.148-.32.2656-1.269-.065-1.7392-.6059-.2004-.2305-.4983-.4195-.6619-.42-.1636-.0006-.5157-.115-.7824-.254-.2668-.1392-.5716-.2532-.6774-.2535-.1057-.0003-.3447-.2287-.531-.5075-.1862-.2789-.3928-.5073-.459-.5075-.3494-.001-.8044-.7835-.7824-1.345.0131-.3345-.0617-.8738-.1662-1.1982-.164-.5095-.3551-1.378-.4278-1.9447-.012-.093.112-.6056.2754-1.1389.2386-.7786.5382-1.223 1.5213-2.2568 2.9734-3.1268 3.9321-3.9904 6.2875-5.6636 1.3765-.9779 3.315-2.3684 4.3077-3.09.9927-.7215 2.9479-2.1268 4.3449-3.1229 1.6135-1.1504 3.1138-2.3949 4.1132-3.4117 3.3246-3.3828 5.839-8.2987 5.289-10.3408-.6474-2.4044-3.679-4.757-7.7942-6.0483-1.9234-.6035-4.6465-.6268-7.2807-.062-.9779.2095-2.1209.4415-2.54.5153-.419.074-1.2845.3733-1.9232.6653-.6387.2921-1.2017.4906-1.2512.4412-.0494-.0494.1302-.1688.3993-.2651.269-.0964.6796-.2791.9125-.406.2328-.1269.8175-.3591 1.2993-.5161 1.0946-.3567 1.5813-.8234.711-.6817-.4423.072-.342-.008.445-.3558.5588-.2468 1.2446-.5122 1.524-.5897l1.5157-.4205c.5542-.1537 1.0876-.3871 1.1853-.5186.2556-.344 2.158-.6734 4.3263-.7491.9817-.0343 1.032-.0517.4647-.1618-.7117-.138-2.0269-.0999-2.8591.083-.507.1113-.5284.0993-.275-.154.151-.151.3372-.275.4137-.2756.0765-.0005.4439-.0868.8164-.1917.5665-.1596.622-.211.3387-.3144-.2335-.0852.003-.1601.762-.241.6053-.0646 1.2755-.2041 1.4893-.31.4758-.2359 4.0273.2098 5.6184.705 2.1046.655 5.6949 2.9835 7.079 4.5912.7763.9016 2.1142 3.1579 2.6142 4.4085.4662 1.1661.8097 3.1285.8097 4.6253 0 1.088-.8405 5.0013-1.5114 7.0372-.2727.8274-.781 2.0638-1.1298 2.7473-.799 1.566-2.5935 4.3756-2.7949 4.3756-.0836 0-.1519.1044-.1519.232 0 .4995-2.7997 3.4162-4.1826 4.3573-.447.3041-.8508.5998-.8974.657-.0466.0572-.3513.2886-.6773.5142-.5922.4098-2.2296 1.6712-2.7093 2.0871-.1397.1211-.5398.3924-.889.6028-.3493.2104-.635.4082-.635.4396 0 .0314.2857.2328.635.4476.997.6132 2.0683 1.673 2.4135 2.3874.402.832.4883 2.8368.1623 3.769-.3131.8953-1.101 2.0631-1.5566 2.3069-.2007.1074-.559.3753-.7962.5952-.2372.22-.4961.3999-.5754.3999-.0793 0-.4385.252-.7982.5598-.7046.6032-.789.649-2.7018 1.4675-.6985.299-1.7365.7652-2.3068 1.036-.5702.271-1.0926.4927-1.161.4927-.0682 0-.4141.2297-.7685.5104-.3545.2807-.9348.6317-1.2895.78-.3548.1482-1.2285.6005-1.9416 1.005-1.5635.8873-2.0988 1.051-2.2393.685zm-15.109-6.3808c-.0623-.1007-.2894-.1389-.5047-.0848-.3345.084-.4087.0183-.5108-.452-.162-.7472-.7392-1.129-.7677-.5078-.008.163-.1028-.041-.2117-.4531-.215-.8137-.6214-1.1412-.6214-.5009 0 .5313-.3252.1886-.4344-.4577-.1325-.7841-.2297-.958-.4814-.8614-.1713.0657-.2356-.0587-.2356-.4555 0-.3002-.122-.9565-.271-1.4582-.149-.5018-.271-1.0772-.271-1.2787s-.154-.8163-.3424-1.3663c-.1884-.55-.3733-1.4571-.411-2.016-.0377-.5587-.2583-1.7515-.4903-2.6506-.5203-2.0167-.7866-6.5274-.4646-7.8697.1096-.4569.2147-1.7438.2337-2.8598.0287-1.6887-.0193-2.1428-.2863-2.7065-.42-.8867-.4643-1.1505-.2193-1.302.2207-.1363.2941-1.6613.08-1.6613-.0724 0-.1317-.1143-.1317-.254 0-.3422.005-.3408 1.4012.3614 1.9076.9595 3.0104 1.717 3.9768 2.732.8425.8849.9074.9202 1.2012.6544.2982-.2699.3056-.2491.1868.5256-.091.5935-.0543.9408.1388 1.3146.4912.9505 1.5792 3.7214 1.9281 4.9107.1913.6519.4107 1.3377.4876 1.524.19.4602.4237 1.2693.8317 2.8786.3657 1.4424.7983 2.6585 1.465 4.1178.2262.4952.3601.9832.2976 1.0845-.065.105-.0357.1358.068.0718.1074-.0664.2272.0948.293.3943.0612.2787.0926.527.0698.5518-.0228.0248.0606.2357.1852.4685.3527.6588.5006 2.7063.234 3.2402-.1224.2454-.2368.916-.254 1.49-.025.8314-.081 1.0247-.2754.95-.8959-.3437-1.0839-.309-1.579.2918-.4714.5719-.5212.5905-1.1824.4419-.7268-.1633-1.0073-.0945-1.0073.2472 0 .3371-.6903.8257-1.0382.7347-.1773-.0464-.43.0232-.5614.1546-.287.287-.3768.2965-.5256.056zm16.4866.0674c.1223-.049.2683-.043.3246.0134.0563.0563-.0438.0963-.2223.0889-.1972-.008-.2373-.0482-.1023-.1024zm-44.0796-4.6257c.0576-.0931.1383-.1693.1794-.1693.041 0 .0747.0762.0747.1693s-.0807.1693-.1794.1693c-.0986 0-.1322-.0762-.0747-.1693zm2.9316-.793c.1223-.049.2683-.043.3246.0134.0563.0563-.0438.0963-.2223.0889-.1972-.008-.2373-.0482-.1023-.1023zm49.1067-41.4867c.1223-.0489.2683-.0429.3246.0134.0563.0563-.0437.0963-.2223.089-.1972-.008-.2374-.0483-.1023-.1024z" id="path2463" fill="#000" stroke-width=".1693"/>
    <path d="M38.5476 256.1718c-.5617-.0693-2.0691-.3676-2.974-.5887-1.2924-.316-3.1948-1.8711-3.7406-3.0582-.1558-.3387-.4233-.8197-.5945-1.0688-.1712-.2493-.7018-1.2156-1.1792-2.1479l-.8679-1.695.0207-1.9826c.0114-1.0905.0598-2.1685.1077-2.3957.3096-1.4668 1.2511-3.4934 2.0645-4.4436.5927-.6924 2.752-2.2201 3.138-2.2201.124 0 .2254-.0993.2254-.2203s.1397-.2203.3102-.2203c.1706 0 .4123-.1236.537-.2746.5452-.6604 1.474-.872 3.7913-.8637 2.167.0103 2.2504.0207 3.6225.6016.7724.3268 1.4415.6416 1.487.7002.0454.0584.5154.4307 1.0444.8265.8845.662 1.9295 1.901 1.9295 2.2877 0 .1975.8144 1.8324 1.0834 2.1746.3413.4339.7076 3.8.4136 3.8-.0964 0-.1753.072-.1753.1598 0 .0879.1115.1174.2478.065.2984-.1142.3051.0818.0779 2.2534-.204 1.9486-.3643 2.4426-1.2321 3.7965-.3799.5926-.6845 1.1272-.677 1.188.0244.197-.7805.9634-1.012.9634-.1236 0-.7984.3242-1.4995.7203-1.442.815-1.8896.9752-3.753 1.3435-1.6973.3355-1.898.3604-2.3956.2994zm.6609-1.126c0-.1375-.0716-.379-.1592-.537-.0875-.1577-.3074-.6103-.4886-1.0056l-.3295-.7187.5196-.438c1.3144-1.1074 1.206-1.0736 1.6713-.5207.6006.7139.9342.655.9342-.165 0-.4772.0689-.6608.2479-.6608.1363 0 .2478.0765.2478.1706 0 .363.7184.4452 1.2338.1412.7417-.4375 1.6316-1.4081 1.4945-1.63-.0862-.1396-.1903-.1287-.3903.0415-.4261.3599-1.508.9479-1.7435.9479-.117 0-.337-.137-.4888-.3051-.259-.286-.2533-.3346.0926-.7848.2027-.2637.4294-.523.5038-.5757.1518-.1075-.0108-.6476-.1953-.6476-.0653 0-.2933.1856-.5068.4131-.4842.5156-.6206.5171-.8517.0103-.151-.3314-.121-.5093.1688-1.0007.3963-.6717.4394-.909.1652-.909-.2609 0-.932.8122-1.1224 1.3583-.119.3412-.099.514.08.6927.2925.2927.316 1.0901.032 1.0826-.3208-.0103-.8732-.5327-1.1314-1.0736-.1611-.3377-.3753-.5067-.6872-.5428-.2492-.031-.4531-.0207-.4531.0207s.3345.5707.7435 1.1804c.4089.6098.7434 1.1685.7434 1.2414 0 .073-.2788.3418-.6195.598-.3408.256-.6684.5365-.728.6238-.0596.0874-.3325-.2803-.6062-.8173-.739-1.449-.907-1.642-1.162-1.3348-.1698.2048-.12.422.2774 1.2128.2664.5298.6545 1.3722.8624 1.872.3814.9167 1.2924 2.2986 1.5216 2.308.0682.003.124-.1076.124-.2451zm4.9148-2.6158c.706-.4468 2.0244-1.7204 2.0244-1.9559 0-.0864.1765-.3935.3922-.6827.6849-.9183 1.0028-2.179 1.0077-3.9956.004-1.5419-.2933-3.2217-.5703-3.2217-.0652 0-.2316-.2875-.3695-.6388l-.251-.6387-.8265.0796c-.9063.0874-1.1624-.089-.8519-.5864.2577-.4126.07-1.3639-.3825-1.9392-.5432-.6905-2.664-2.0016-3.5527-2.1962-1.4386-.315-2.0034-.3708-2.1047-.2069-.1277.2069.322.4473 1.1118.5957.7807.1464.8997.3392.4891.793-.8961.9899-1.87 3.0856-1.4339 3.0856.1278 0 .5467-.4524 1.1833-1.2785l.4125-.535.4403.4525c.669.6871 1.4857 1.3611 1.6496 1.3611.0805 0 .2381.1107.3502.2456.1656.1996.1221.4023-.2312 1.0777-.3829.7324-.4029.8444-.167.935.1475.0564.3275.005.4-.1107.0726-.1174.2487-.1685.3913-.1137.1718.0657.351-.0558.5307-.36.2554-.4322.3258-.455 1.203-.3883 1.0877.0833 1.3769.3455 1.7573 1.5939.6541 2.1472-.0445 5.1167-1.6462 6.996-.6204.728-1.8465 1.6087-3.2718 2.3502-.7124.3707-1.1117.6796-1.1119.8606-.0001.2306.256.1484 1.4038-.452.7721-.4038 1.683-.9108 2.0239-1.1266zm-1.28-12.0179a91.9185 91.9185 0 01-.9913-.8177c-.318-.2663-.7198-.5857-.8927-.7099-.3022-.2166-.294-.2471.207-.7714.4903-.513.5397-.5294.8232-.273.1659.15.383.273.4824.273.3388 0 1.2089.864 1.4492 1.439.4343 1.0395-.2145 1.5572-1.0778.8599zm-6.6998 13.5757c.0517-.0832-.4848-.734-1.1917-1.4457-.707-.7117-1.4885-1.5417-1.7367-1.8443l-.4512-.5503.7513-.9563c.4133-.526.8253-1.224.9157-1.5514.1544-.5591.2144-.6018.9918-.705.6399-.0847.8156-.17.7752-.3764-.0596-.304-.901-.331-3.2264-.1034-1.17.1148-1.363.0977-1.363-.1184 0-.3418.3035-.5614.974-.705.3457-.074.837-.4038 1.2802-.8601l.7193-.74 1.1722.1975c1.2156.2048 1.6096.0998 1.4251-.3811-.0792-.2063-1.6674-.4902-4.8274-.862-.1817-.0208-.3454-.0466-.3638-.06-.018-.0104.0679-.2617.1915-.5558l.2248-.5347 1.4607-.002c1.343-.002 1.4735-.031 1.6194-.364.0873-.199.3066-.4002.4873-.4473.3407-.0889 1.4192.4732 1.4192.74 0 .0833.1859.1515.4131.1515.7295 0 .4534-.4437-.7848-1.2608-.6588-.435-1.2958-.925-1.4156-1.0894-.1199-.1644-.272-.2653-.3384-.2244-.0663.0414-.2275.0103-.3582-.0724-.1988-.123-.1825-.1986.0998-.4613.1856-.1732.6198-.4074.9648-.5215.7087-.2337 1.0345-.0553 1.1686.6407.1433.7444.3785.8523 1.0253.4706.4718-.2787.5433-.3827.361-.5252-.1251-.0977-.376-.4644-.5576-.8148-.3972-.7662-.8813-.9838-1.9906-.8952-.6364.0517-1.0563.2208-1.7698.7167-.5145.3573-.9383.711-.9418.7856-.0034.0745-.3036.4881-.6671.9193-.3635.4313-.6609.8362-.6609.9003 0 .0641-.1858.4111-.413.771-.2272.3598-.4131.8267-.4131 1.0375 0 .211-.0768.4602-.1707.554-.0939.094-.1777.5191-.1863.945-.0088.426-.0883.8192-.1773.8742-.0964.0595-.0712.1588.0623.2446.1858.12.1818.1722-.0238.3072-.1657.1086-.1794.1634-.0414.165.2474.003.2749.529.0398.7638-.209.209.3883 2.6447.7455 3.0394.136.1505.2472.3455.2472.4339 0 .2487 1.3846 2.092 1.9779 2.6334.292.2663.752.6882 1.0224.9372.9554.88 1.3562 1.089 1.5348.8zm-4.0862-5.342c-.5295-1.4473-.5329-1.4186.1648-1.3827.8545.0414 1.025.185.9488.7864-.069.5457-.4851 1.2985-.7177 1.2985-.0764 0-.2546-.316-.3958-.7022zm-.4075-4.2166c.0445-.592.0721-.6177.7047-.6591.3621-.026.7698.031.9061.119.2109.1375.1862.2212-.1652.5597-.2271.2187-.6558.4426-.9525.4969-.5363.0988-.5393.0957-.493-.5166zm1.9-3.2952c-.5858-.089-.5726-.208.1078-.9726l.5623-.6319.5114.5.5115.5-.3367.3615c-.3319.3563-.4587.379-1.3563.243zm14.3327 7.8836c.0561-.091.0279-.165-.0631-.165-.0909 0-.2112.0745-.2674.165-.0561.091-.0279.165.0631.165.0909 0 .2112-.0745.2674-.165zm-3.2218-1.083c0-.5532.0253-.5749.9913-.8434 1.2159-.3382 1.3412-.7171.237-.7171-1.0169 0-1.3935-.225-1.3935-.832 0-.501.0037-.503 1.0413-.5637.269-.0155.6019-.347.6084-.6054.0046-.1867-2.3829-.3077-3.3526-.1702-.9435.134-.9634.1283-1.202-.333-.2692-.5204-.434-.578-.7084-.2471-.2662.3206.2551 1.7496.9722 2.6652.4233.5404.729.7621 1.1541.837.9071.1597.9914.2083.9914.5772 0 .4664.3094 1.018.504.8979.0862-.0533.1569-.3527.1569-.6648zm-1.763-1.8661c-.3006-.09-1.1819-.9843-1.0164-1.0313.7787-.2213 1.1732-.136 1.6292.3527.674.7215.4304.9913-.6129.6788z" id="path75-3" fill="#fe0000" fill-opacity="1" stroke-width=".1652"/>
  </g>
</svg>
