<svg xmlns="http://www.w3.org/2000/svg" viewBox="0 0 210 297" version="1.1" id="svg2505">
  <g id="layer1">
    <path d="M72.102 248.231c.2338-.2825 1.6156-1.334 4.6379-3.5292 3.4825-2.5294 6.632-4.8913 7.3078-5.4802.3886-.3387.8839-.7465 1.1007-.9062 2.6196-1.9308 5.7369-4.4861 9.3536-7.6674a890.0588 890.0588 0 012.1231-1.8626c.3212-.28 1.233-1.1185 2.0264-1.8636.7933-.745 1.7116-1.597 2.0407-1.893 4.053-3.6473 9.8662-9.5117 12.7266-12.839.1602-.1862.6781-.7553 1.1511-1.2646.473-.5094.86-.973.86-1.0303 0-.1434-1.9975-2.033-3.6386-3.442-1.3324-1.1442-5.1376-4.6653-5.9987-5.551-.241-.2478-1.1239-1.0408-1.9621-1.7623-.8382-.7214-2.3241-2.0861-3.302-3.0326-.978-.9465-2.3065-2.2109-2.9524-2.8097-1.5322-1.4204-2.8628-2.8315-3.5012-3.7128l-.5124-.7072-.708.9388c-.3894.5163-.92 1.2658-1.179 1.6656-.785 1.2113-1.592 2.3592-2.5309 3.5998-.491.6488-1.0005 1.3978-1.1321 1.6644-.1316.2667-.665.963-1.1853 1.5473-.5203.5843-1.4413 1.655-2.0467 2.3794-2.3163 2.7715-2.4973 2.9701-3.7307 4.0934-.323.2942-1.235 1.198-2.0266 2.0086-.7917.8105-1.8204 1.726-2.286 2.0346-.9363.6202-1.3446.967-3.5167 2.9878-.8166.7597-1.6548 1.499-1.8627 1.6429-.2079.144-.5685.4425-.8013.6635-.2328.221-.69.5762-1.016.7892-.326.213-1.1593.9383-1.8519 1.6117-.6925.6735-1.5517 1.409-1.9092 1.6348-.3575.2257-.8196.5546-1.0268.731-1.202 1.0232-2.0816 1.7017-2.206 1.7017-.1404 0-1.7333 1.2597-2.0638 1.632-.3063.3453-2.3339 1.765-2.4108 1.688-.0728-.0728-.2001.018-1.298.9246-.2894.239-1.1258.8313-1.8587 1.3163-.7328.485-1.7615 1.2893-2.286 1.7874-1.6141 1.533-2.752 2.5508-3.0256 2.7065-.1438.0818-.5452.1624-.892.1793-.4147.02-.8561.2082-1.2887.5492-.3618.2852-1.0007.6743-1.4198.8645-.4191.1902-.9461.5422-1.1712.7822-.225.24-.7393.5962-1.143.7916-.4036.1954-.7338.4127-.7338.483 0 .2063-1.382.8235-2.1167.9452-.3725.0617-1.0964.3969-1.6087.7448-.5122.348-1.16.7117-1.4395.8082-.2795.0965-.8045.3767-1.1666.6224-.5132.3483-.8494.443-1.5238.4295-.8306-.0166-.8417-.0229-.2752-.156.63-.1482 1.0422-.5585 2.1191-2.1097.8765-1.2625 2.0625-2.7335 2.7278-3.3834.2896-.2828.891-.9333 1.3365-1.4456.4454-.5122 1.8146-1.9981 3.0425-3.302 1.228-1.3038 2.6792-2.866 3.225-3.4713.5457-.6054 1.4676-1.596 2.0487-2.2013.581-.6054 1.2203-1.2912 1.4207-1.524.2003-.2329.7206-.8044 1.156-1.27.4355-.4657 1.363-1.4944 2.0613-2.286.6982-.7917 1.308-1.4775 1.3552-1.524.5055-.4993 1.9598-2.3618 2.5783-3.302.4288-.652 1.191-1.6426 1.6937-2.2014.5027-.5588 1.2138-1.3973 1.5802-1.8633.3664-.466 1.5043-1.867 2.5288-3.1134s2.4197-2.9606 3.1005-3.8094c.6809-.8487 1.519-1.8782 1.8627-2.2877.3436-.4095.7743-.981.957-1.27.1826-.289.3783-.5636.4348-.6102.0565-.0466.425-.5037.819-1.016 1.1299-1.4689 1.44-1.8626 1.777-2.2565.1733-.2025.625-.8253 1.0037-1.3841.3788-.5588 1.1288-1.5973 1.6666-2.3078.5378-.7104 1.1149-1.5189 1.2823-1.7965.3256-.54 2.4268-3.7484 3.0517-4.6598.2071-.302.5364-.8922.7318-1.3113.1953-.419.464-.823.597-.8974.133-.0745.2419-.2583.2419-.4085s.2197-.6227.4881-1.05c.4116-.6548 2.1757-3.6953 2.8087-4.8407.1731-.3133 1.0176-1.7486 1.4945-2.54.1122-.1863.2432-.3768.2912-.4234.2386-.2318 2.0563-3.4097 2.3729-4.1486l.3627-.8467-.3686-1.27c-.2028-.6985-.5833-1.8796-.8456-2.6247-.5382-1.5286-.7574-3.4713-.3917-3.4713.1244 0 .2225-.1866.2225-.4233 0-.2329.0762-.4234.1693-.4234s.1693-.1202.1693-.2672c0-.227.1975-.2556 1.3124-.1904 1.569.0918 1.8804.2059 3.5265 1.2912.6979.4601 1.4948.9366 1.771 1.0588.2762.1223.5021.3129.5021.4236 0 .1106.1538.25.3417.3096.6565.2084 5.4272 5.132 7.2446 7.4768.9843 1.2699 1.2012 2.357 1 5.0106-.0335.4424-.008.8044.0557.8044.0642 0 .6797-.2361 1.3677-.5247 1.9304-.8096 3.7939-1.4203 7.9767-2.6141 6.2887-1.7949 8.7973-2.2503 13.228-2.4013 2.3898-.0814 4.4457.091 7.4782.6267.4657.0823 1.304.193 1.8627.2461 1.3136.1248 2.934.484 3.4713.7697.3823.2032 1.4814.9736 1.6938 1.1873.0468.047.4279.268.8467.491.4189.223 1.1806.6774 1.6929 1.0098.912.5917 1.2499.8455 2.9602 2.2233.464.3737.9232.6795 1.0206.6795.0974 0 .4143.2095.7044.4657.29.256.9104.7884 1.3786 1.1829 1.7092 1.44 2.4446 3.297 2.0963 5.294-.347 1.9903-3.5608 10.7852-4.0838 11.176-.0623.0467-.3316.4657-.5985.9314-.2668.4657-.5388.8848-.6043.9313-.0655.0466-.3986.5038-.7401 1.016-.3416.5123-.9637 1.3886-1.3825 1.9474-.8236 1.0988-2.0087 2.795-2.9523 4.2253-1.9433 2.9459-3.6755 5.2001-6.223 8.0986-.4889.5563-.8879 1.1352-.8866 1.2864.001.1513.4014.7015.889 1.2229.4877.5213 1.2186 1.3214 1.6243 1.778.4057.4565 1.8177 1.935 3.1378 3.2854 1.3201 1.3505 2.7407 2.8364 3.157 3.302.4162.4657 1.1378 1.1859 1.6035 1.6004.4657.4146.8258.8203.8002.9016-.0256.0813.0188.1075.0986.0581.0798-.0493.6702.293 1.3119.761.6417.4678 1.7403 1.2018 2.4414 1.6312.701.4293 1.3927.8794 1.537 1.0001.366.306 3.1235 1.1516 6.257 1.9186.7392.181 3.0216.489 8.8052 1.188 1.5367.1857 3.4652.4379 4.2855.5603 1.9922.0395 3.4.6981 4.0119.835 4.8755 1.0678 12.1113 2.7642 18.9653 4.4463 2.0024.4914 4.2884 1.027 5.08 1.1902 2.1016.4334 4.112 1.0265 4.6779 1.38.871.5444.6601.9019-1.014 1.7188-.9858.481-1.5313.8487-1.5896 1.0715-.079.3026-.2.3318-1.1238.271-.5693-.0375-1.34.003-1.7125.0908-2.3281.5463-6.3406 1.3003-7.874 1.4797-1.5882.1858-2.8532.4709-3.168.7139-.1126.0869-.4174.1145-.6774.0613-.26-.0532-1.0822-.1325-1.8272-.1763-7.6269-.4477-9.751-.4854-10.242-.1819-.2394.148-2.8224.4455-3.8007.4378-.2728-.002-.5776.0589-.6773.1356-.0997.0768-.6767.233-1.282.347-.6054.1142-1.4817.2935-1.9474.3986-.4656.105-.9117.1728-.9912.1507-.0795-.0222-.4986-.0643-.9313-.0935-1.001-.0676-4.0963-.5972-4.328-.7404-.0967-.0597-.33-.1175-.5186-.1284-.9253-.0536-1.1187-.0923-1.0464-.2094.0432-.0698-.0857-.1392-.2863-.1542-1.5526-.1156-2.6216-.3196-2.9306-.5593-.2004-.1555-.791-.385-1.3123-.5102-.5214-.125-.948-.2959-.948-.3797 0-.0838-.0708-.1084-.1576-.0549-.0867.0536-.2055.02-.264-.0747-.835-.408-1.682-.8806-2.3403-1.3145-.949-.6284-1.8397-1.1912-1.9794-1.2508-.1397-.0596-.5969-.411-1.016-.7808-.419-.3698-.9334-.7265-1.143-.7926-.2095-.0661-.381-.1824-.381-.2584 0-.076-.1333-.1842-.2963-.2406-.4674-.1615-1.5062-.888-2.8158-1.969-.3949-.326-.9301-.745-1.1894-.9314-.2593-.1862-.8603-.6994-1.3355-1.1404-.4751-.441-1.3927-1.1648-2.0389-1.6086-.6462-.4438-1.7076-1.3023-2.3587-1.9076-1.0541-.9802-4.6927-4.893-6.4559-6.9427-.3605-.419-1.261-1.3884-2.001-2.154l-1.3454-1.392-.3686.3363c-.2026.185-.6933.6209-1.0904.9687-.397.3478-1.1149.999-1.5952 1.4471-.4803.4481-1.0699.9678-1.3101 1.1549-.4422.3443-3.761 3.4668-5.0128 4.7162-.3748.3741-.7667.6801-.8709.6801-.1042 0-.2334.1143-.287.254-.0536.1397-.2141.254-.3568.254-.1426 0-.2593.0696-.2593.1547 0 .0851-.4762.549-1.0583 1.0308-.582.4819-1.2393 1.0296-1.4604 1.2172-.2212.1876-.5856.3613-.81.3859-.5373.059-.6764.2176-.4156.474.1688.1658.2013.1608.158-.024-.0298-.1281.0483-.2703.1738-.316.1822-.0664.1895-.011.0364.2752-.2207.4124-.3611.4428-.6752.1466-.1794-.1694-.2398-.1694-.302 0-.0426.1164-.1855.2116-.3174.2116-.132 0-.24.0622-.24.1382 0 .076-.3047.3095-.6773.5188-.5865.3297-.8906.6977-.5764.6977.198 0 1.0844-.5835 1.0844-.7138 0-.073.0893-.1329.1984-.1329.109 0 .3377-.126.508-.2802.2098-.1899.3096-.2123.3096-.0695 0 .2529-.6756.8442-.9736.852-.1164.003-.2117.0634-.2117.1338 0 .0705-.3174.2272-.7053.3483-.7365.2298-2.1256 1.124-3.4915 2.2477-.1197.0984-.3054.1496-.4128.1138-.1074-.0358-.3143.0425-.4598.174-.5721.517-3.5666 2.3693-3.5666 2.2063 0-.0953-.2547.0442-.566.31-.6375.5443-.6476.5512-2.72 1.8576-.8294.5229-1.6676.9449-1.8626.9378a19.255 19.255 0 01-.6087-.032c-.3638-.0273-1.549.1782-1.9474.3376-2.607 1.0436-2.7628 1.0821-3.2043.793-.4878-.3198-1.9068-.3709-2.8081-.1012-.3254.0973-1.0663.1764-1.6465.1756-.5802 0-1.3803.1173-1.778.2622-.3977.145-1.1612.3326-1.6967.417-3.5246.5556-3.8645.655-5.8844 1.7187-.7916.417-1.795.8106-2.2298.8748-.4347.0642-.8822.2272-.9944.3623-.1121.1352-.28.2457-.3732.2457-.0932 0-.0648-.1264.063-.2808zm39.3485-15.4672c.0576-.093.024-.1693-.0747-.1693-.0986 0-.1793.0762-.1793.1693s.0336.1694.0747.1694c.041 0 .1217-.0762.1793-.1694zm.5927-.244c0-.041-.0762-.1217-.1694-.1793-.093-.0575-.1693-.024-.1693.0747 0 .0986.0762.1793.1693.1793s.1694-.0336.1694-.0747zm11.1131-31.6964c.5468-.7101 1.4004-1.8722 1.8969-2.5823.4964-.7102 1.1441-1.5875 1.4393-1.9496.2952-.362.9821-1.3146 1.5266-2.1167.5444-.802 1.1921-1.7238 1.4393-2.0483.2472-.3245.5256-.7138.6188-.865.093-.1513 1.0083-1.5244 2.0338-3.0514 1.0254-1.527 2.1813-3.3856 2.5685-4.1303.9373-1.8024 2.2557-5.0435 2.2557-5.5454 0-.6543-2.111-2.3243-3.36-2.6581-2.6707-.7138-6.0348-.9172-10.5542-.6379-2.5114.1552-3.188.278-8.6918 1.5786-.5588.132-1.6637.356-2.4554.4977-2.4228.4336-4.2369.92-5.1411 1.3781-1.515.7677-4.256 1.5777-5.3389 1.5777-.7954 0-2.6028.836-3.1936 1.4773-.3027.3285-.5504.652-.5504.719 0 .067-.156.263-.3466.4355-.361.3267-.9343 1.393-.8138 1.5136.0828.0827 3.112 1.7895 5.4784 3.0866 3.0573 1.676 11.3012 7.3507 13.0387 8.9754.1863.1741.6816.5616 1.1007.861 1.1396.814 2.1587 1.6513 4.0063 3.292.9165.814 1.7523 1.4808 1.8575 1.4818.1051.002.6385-.5792 1.1853-1.2893zm-17.8482 37.4304c.1608-.1678.3288-.2687.3733-.2241.0446.0445-.087.1818-.2923.3051-.3566.2142-.3602.2106-.081-.081zm.639-.4739c0-.0352.1334-.1685.2964-.2963.2686-.2106.2746-.2047.0639.0639-.2212.282-.3603.3717-.3603.2324zm14.732-82.5005c-.7916-.1226-1.706-.261-2.032-.3077-.3259-.0467-1.1351-.163-1.7982-.2586-.6631-.0956-1.8061-.3583-2.54-.5838-.734-.2254-1.944-.5795-2.689-.7867-.7451-.2072-1.7357-.5517-2.2014-.7656-.4657-.2138-1.4563-.6673-2.2013-1.0077-1.9069-.8712-4.1322-2.1574-6.0114-3.4746-3.191-2.2367-6.712-4.5402-7.8654-5.1458-1.3193-.6927-4.9367-1.9635-6.8666-2.4123-2.3628-.5496-7.9586-.3457-7.9586.29 0 .0917-.1907.2394-.4237.328-.233.0886-.6711.3914-.9736.673-.3026.2815-.924.7557-1.381 1.0537-.4571.298-1.4167 1.1172-2.1326 1.8205s-1.5611 1.5123-1.8784 1.7979c-.3674.3307-.9147 1.23-1.508 2.478l-.9314 1.9588-.7078.113c-.3892.062-.8965.2614-1.1273.443-.2308.1815-.4961.33-.5896.33-.0934 0-.3622.2286-.5973.508-.3488.4145-.5571.508-1.1316.508-.5617 0-.722.0685-.7927.3387-.0487.1862-.1326.3386-.1865.3386-.189 0-1.0479-.9121-1.0479-1.1128 0-.2734-.6074-.6395-1.4816-.8932-.3959-.115-.7197-.2683-.7197-.3409s-.4623-.622-1.0272-1.2209c-1.0142-1.075-1.7414-2.2766-1.9186-3.1701-.3478-1.7534-.2547-3.2757.287-4.692.209-.5467 1.289-2.212 2.1096-3.253 2.284-2.8976 6.8778-10.9638 7.4537-13.0877.0884-.326.6666-1.792 1.2848-3.258.6182-1.4658 1.124-2.8502 1.124-3.0764 0-.695.172-.9863.4472-.7578.3166.2627.4543.0959.4365-.529l-.0146-.5139.4806.3422c.2643.1882.5692.3422.6775.3422.2255 0 .097-.5594-.258-1.1236-.3468-.551-.0726-.63.4498-.1295.3096.2966.7087.4702 1.197.5207.403.0417.8656.095 1.0281.1186.1625.0236 1.1916.9524 2.287 2.064 1.0952 1.1116 2.3753 2.364 2.8445 2.7831 1.2181 1.0881 2.0803 2.4689 2.3447 3.755.329 1.601-.0073 2.661-1.7637 5.5584-.367.6053-.6688 1.1552-.6706 1.222-.0018.0667 1.1968.1153 2.6637.108 2.993-.015 5.019.2758 9.1017 1.3068 4.744 1.198 6.3012 1.8547 14.5228 6.1242 4.616 2.3971 11.266 3.9788 14.4934 3.447 1.6015-.2638 4.6426-.9966 5.3229-1.2826l.5063-.213-5.4-5.4094c-3.1598-3.1652-5.737-5.6066-6.212-5.8848-.4467-.2614-.789-.4985-.7607-.5268.0461-.046.9658.163 2.6733.6075 1.0046.2616 1.8297.2033 1.8966-.134.0467-.2353.2497-.1181.9861.5694 1.0325.964 1.6075 1.3186 1.9344 1.1932.1203-.0461.4389.05.7081.2137.5673.345 2.3573.64 2.1843.3599-.1772-.2866.1576-.2029.5135.1285.5359.499 2.1291 1.1906 3.0376 1.3187.7577.1068 1.4956.514 2.5752 1.4212.1125.0945.3792.1742.5927.1772.2135.003.5405.1222.7268.265.2774.2126.646.239 2.0374.1462 1.41-.094 1.813-.0638 2.3707.1784.3695.1604 1.3196.3499 2.1112.421 1.2639.1134 1.6561.2376 3.2174 1.0186 2.0026 1.0018 3.3866 1.9408 3.3866 2.2978 0 .1318.106.2396.2357.2396.1296 0 .2817.1834.338.4076.0562.2242.145.5192.1974.6555.0523.1364-.0294.3724-.1816.5246-.2897.2897-.635 2.1609-.4754 2.5767.0508.1325-.0202.4118-.1578.6206-.3744.5679-1.7722 1.9883-1.9567 1.9883-.0885 0-.5309.3397-.983.755-.4523.4151-1.0137.8497-1.2478.9657-.234.116-.8445.5615-1.3568.99-.931.779-2.3001 1.5227-2.803 1.5227-.1467 0-.7.1986-1.2295.4413-.5295.2428-1.4814.6289-2.1153.858-.6338.2291-1.3958.5556-1.6933.7255-.2975.17-.96.4006-1.4722.5126-.5122.112-1.3123.3177-1.778.4571-1.1477.3436-5.6388.4173-7.5353.1237zm-78.7578-11.7427c-.3276-.1594-1.018-.57-1.5341-.9127-1.021-.6777-1.5536-.767-2.137-.3583-.3477.2435-.3855.2402-.4774-.0423-.1885-.5799-.6521-1.4075-.7885-1.4075-.075 0-.3948-.2477-.7106-.5504-.3158-.3027-.7696-.6866-1.0084-.853-.2389-.1666-.7557-.7761-1.1485-1.3545l-.7141-1.0517-.0393-2.2639c-.0372-2.1456-.0176-2.2982.3758-2.9213.2282-.3615.6026-1.0574.832-1.5463.2294-.489.514-1.0413.6326-1.2276.9572-1.5042 1.6776-2.6567 2.064-3.302.251-.4191.9044-1.4859 1.452-2.3707 1.0227-1.6519 1.6925-2.9454 1.6991-3.2812.0021-.1045.1528-.3806.335-.6134.182-.2329.3327-.5227.3348-.644.0021-.1214.7897-1.7978 1.7502-3.7253.9605-1.9276 1.8458-3.7714 1.9672-4.0974.1214-.326.3207-.8213.4427-1.1007.218-.4987.6352-1.9686 1.2738-4.4873.1771-.6985.3232-1.6188.3246-2.045.0025-.759.0127-.7735.4956-.7027.6744.099 1.1104-.5492.9872-1.4676-.1284-.9568.0196-1.0924 1.039-.9522.7308.1005.8675.0768.8675-.1506 0-.1521.1402-.2699.3213-.2699.533 0 2.357.9905 2.468 1.3402.133.4185 1.9386 1.8913 3.9412 3.2147 2.108 1.393 3.0492 2.737 3.5993 5.1394.1226.5355.294.9737.3808.9737.0868 0 1.1065-.4992 2.266-1.1092 2.3917-1.2585 7.471-3.8015 7.593-3.8015.0443 0 .5797-.2286 1.1897-.508s1.1529-.508 1.2063-.508c.0535 0 .3373-.11.6308-.2445 3.2595-1.4938 11.3262-4.265 16.2816-5.5933.9313-.2497 2.6077-.7097 3.7253-1.0223 8.3105-2.3247 13.8003-3.412 21.8373-4.3255 1.68-.1909 5.1883-.611 7.796-.9335 2.6078-.3225 5.9606-.6607 7.4507-.7514 4.7446-.2891 13.2347-.205 23.9867.2375.899.037 1.6991.0052 1.778-.0706.0788-.0759.8291-.0727 1.6673.0071.8382.0797 2.8575.2691 4.4874.4208 4.3233.4024 9.6139 1.1902 11.9072 1.7732 2.4236.616 4.9242 1.7727 5.8222 2.6931 4.7973 4.9174 5.0499 5.3004 5.0396 7.6401-.006 1.2624-.064 1.5369-.4754 2.2327-.2579.4364-.7541 1.046-1.1027 1.3547-1.8204 1.6122-2.7895 2.4326-2.9637 2.5086-.3181.139-3.202 2.0719-3.7321 2.5015-.4179.3386-2.384 1.4356-2.6418 1.474-.0466.007-.2905.1504-.542.3186-.2516.1683-1.0369.558-1.745.8658-.7083.3079-1.3343.6063-1.3913.6633-.0569.0569-.237.1035-.4002.1035s-.5124.1074-.7761.2387c-1.6252.8091-4.7578 1.8468-6.4907 2.1501-.5123.0897-1.4587.3509-2.1032.5805-.6446.2295-1.3342.4174-1.5325.4174-.1983 0-.433.067-.5215.1487-.0885.0818-.6942.234-1.3462.338-.6519.104-1.6044.2704-2.1166.3698-1.2638.2453-2.1939.2929-2.7517.1408-.2561-.0698-.4657-.0602-.4657.0214 0 .1929-1.2398.1047-2.1629-.1538-.398-.1115-.7824-.1663-.8544-.1219-.072.0445-1.0417-.021-2.155-.1455-2.229-.2492-7.9631-.2222-8.7992.0414-.2803.0884-.676.0992-.8793.024-.3908-.1446-1.5745-.018-1.5745.1684 0 .0603.2265.641.5034 1.2902.3652.8564.5047 1.456.508 2.1844.005 1.0675-.2786 2.1253-.6295 2.3488-.117.0745-.3382.3793-.4918.6773-.4725.9172-.7927 1.0336-3.4461 1.2528-2.4658.2037-4.1856.5072-5.2046.9184-.4474.1806-.5873.1811-.762.003-.1732-.1767-.121-.2886.2743-.5865.8717-.6573 1.9807-1.8217 2.144-2.2511.2437-.641-.1908-1.4662-1.4011-2.6607-.584-.5764-1.6715-1.4567-2.4166-1.9562-.745-.4995-1.3337-.9806-1.3081-1.0691.0256-.0885-.0237-.1175-.1096-.0644-.086.053-.6784-.1508-1.3166-.453-1.1237-.5323-1.2298-.5497-3.3617-.5495-3.7454.0003-6.1246.8516-8.6715 3.1028-1.1532 1.0192-1.6808 1.6724-1.8295 2.2647-.0842.3355.1191.6465 1.1652 1.7825 1.4702 1.5966 1.6323 1.8597 1.7259 2.801.0511.5134.2263.858.6646 1.3068 1.3056 1.337.3834 2.533-2.0294 2.6317-1.2132.0497-1.5617.1736-1.6983.604-.074.233-.2604.323-.6696.323-.406 0-.6554.1186-.8776.4174l-.3105.4174-1.0831-.5236c-.9684-.468-1.1909-.5123-2.0982-.4175-.9168.0958-1.0903.0598-1.7955-.3734-.4293-.2638-1.0003-.5344-1.2688-.6015-1.189-.297-3.593-2.2533-4.7056-3.8295-.697-.9872-1.8-3.7364-2.0043-4.9953-.1057-.652-.2946-1.2996-.4196-1.4393-.125-.1397-.297-.5207-.3822-.8467-.1405-.5379-.2044-.5878-.6917-.5395-.4268.0422-.5359-.01-.5316-.254.003-.169.1102-.4454.2383-.6144.198-.2611.197-.3755-.0059-.762-.2325-.4427-.222-.4625.3967-.7467.3495-.1605.807-.2939 1.0165-.2963.2634-.003.381-.1064.381-.3347 0-.1816.1298-.4029.2884-.4916.2431-.136.2531-.2038.0639-.4317-.187-.2253-.1856-.2724.008-.2823.1278-.007.08-.0774-.1063-.1575-.4472-.1921-.1806-.194 1.6934-.0123 1.9526.1895 2.763.5528 5.8184 2.6091 1.3375.9001 2.479 1.6366 2.5367 1.6366.1228 0 1.6788-.934 3.2442-1.9474 2.8209-1.8262 7.6453-3.6907 11.3857-4.4002 1.9874-.377 4.596-.5009 5.8017-.2755.9583.1791 3.5944 1.3125 4.1486 1.7837.1397.1187.4064.268.5927.3318.2799.0958.2638.0488-.0927-.2706-.5935-.5318-.4152-.4304 2.2676 1.2896 1.1009.7059 1.446.727.5839.0357-.3066-.2458-.6664-.541-.7995-.656-.133-.115-.4378-.342-.6773-.5044-.2395-.1623-.3474-.2957-.24-.2963.1075-.0007.9076.4781 1.778 1.0639 2.1996 1.4802 2.2134 1.4837 1.0746.271l-1.016-1.0819.9314.863c.5122.4747 1.1764 1.0305 1.476 1.2352.5196.355.565.359.98.087.2393-.1568.4076-.3676.374-.4684-.0547-.1642.6568-.6588 2.4193-1.6814.326-.1891.9866-.5983 1.468-.9094.4815-.311.9466-.5655 1.0336-.5655.087 0 .3672-.1936.6226-.4302.2553-.2367.857-.6421 1.337-.901s1.2919-.7396 1.8041-1.0683c.5123-.3287 1.3886-.848 1.9474-1.1541.5588-.306 1.8603-1.0387 2.8922-1.628 1.0319-.5895 2.5178-1.3844 3.302-1.7666.7842-.3822 1.54-.7648 1.6798-.85.829-.5064 7.0713-3.4119 7.9493-3.7001.5786-.19 1.4553-.5761 1.9483-.8582.493-.282.9912-.5128 1.1073-.5128.116 0 .4714-.2286.7896-.508s.6712-.5103.7844-.5131c.9794-.0245-3.2625-1.04-6.737-1.6127-.8381-.1382-2.1716-.328-2.9633-.4218-.7916-.0938-1.5555-.2064-1.6976-.2501-.4044-.1246-1.3405-.1896-7.3617-.5108-.8382-.0447-2.667-.1235-4.064-.1752a1327.678 1327.678 0 01-4.2333-.1635c-.9314-.0382-4.1699-.076-7.1967-.0841-4.8434-.013-5.9907.0382-9.5673.4267-2.2352.2428-4.7498.5148-5.588.6045-5.8027.6208-8.1509 1.068-12.3614 2.3542-.9313.2845-2.1124.6394-2.6246.7887-.5123.1493-1.3886.4063-1.9474.571-.5588.1647-1.3589.3941-1.778.5098-.419.1157-1.0287.3072-1.3547.4255-.326.1184-1.3927.4194-2.3706.669-.978.2497-1.9304.5214-2.1167.604-.1863.0824-1.0245.3498-1.8627.594-2.805.8175-7.432 2.472-9.3133 3.3304-2.4365 1.1117-2.9126 1.3202-3.0146 1.3202-.0467 0-.721.2978-1.4984.6619-.7775.364-1.9852.9015-2.6837 1.1944-2.8434 1.1922-5.7883 2.944-7.5186 4.4726-.5878.5192-1.5178 1.2813-2.0667 1.6936-1.323.9938-3.7484 3.5075-4.5425 4.7078-.35.529-.7433 1.0028-.8742 1.053-.1309.0503-.238.2136-.238.363 0 .1492-.555.8184-1.2334 1.4869-2.1747 2.143-3.1692 3.3443-3.1692 3.8285 0 .344-.46.905-2.0132 2.4552-1.1072 1.105-2.1372 2.0786-2.2889 2.1635-.2654.1485-1.1482 1.7816-1.6286 3.013-.419 1.0735-1.2428 2.093-2.1127 2.614-.2794.1674-.8128.6002-1.1853.9617-1.155 1.1212-2.5278 2.292-2.8014 2.3896-.1438.0513-.5295-.0372-.8571-.1965zm89.3412-26.8657l-.508-.4365.5503.3642c.3027.2003.5504.3971.5504.4373 0 .1268-.0717.0826-.5927-.365zM85.2044 95.9721c-.2791-.033-.5458-.1156-.5927-.1833-.0469-.0677-.6821-.2617-1.4117-.4311-1.0693-.2484-1.3619-.3857-1.5089-.7083-.116-.2547-.3263-.4002-.5785-.4002-.2178 0-.3961-.0786-.3961-.1747 0-.096-.1334-.2243-.2963-.285-.6443-.2397-1.5492-1.1172-1.5995-1.551-.0362-.3123-.165-.4608-.4325-.4988-.2703-.0384-.381-.1684-.381-.4475 0-.2164-.1143-.4373-.254-.491-.1397-.0535-.254-.2342-.254-.4013 0-.1672-.255-.6839-.5666-1.1483-.4755-.7088-.5824-1.0483-.6659-2.1144-.1083-1.383-.4047-2.4254-.6471-2.2756-.0843.0521-.4897-.1469-.9008-.4422-.4112-.2953-.8301-.4859-.931-.4236-.1008.0624-.1833.0402-.1833-.0492 0-.0895-.2554-.3133-.5676-.4975-.5336-.3149-.949-1.0533-.5925-1.0533.0897 0-.0508-.188-.3121-.418-.3885-.3417-.4211-.4228-.1788-.4444.163-.0146.3725-.0456.4657-.0689a5.5494 5.5494 0 01.2863-.0635c.0644-.0116-.028-.1272-.2053-.2568-.2738-.2003-.2883-.2767-.0963-.508.1933-.2329.1824-.2724-.075-.2724-.2865 0-.2862-.0162.0056-.3386.1685-.1863.409-.3387.5342-.3387.1253 0 .2278-.1143.2278-.254 0-.3324.1666-.3224.4208.0252.1796.2457.2022.2304.188-.127-.012-.3015.0847-.4205.3752-.4617.2152-.0305.431-.159.4797-.2856.0486-.1266.1827-.194.2981-.1497.1154.0443.3027-.1233.4162-.3724.3585-.7868 1.7655-2.4644 1.8934-2.2575.0783.1267.2089.063.3846-.188.258-.3684.2835-.3714.8516-.1018.322.1528.6605.2778.7522.2778.0916 0 .2868.1836.4338.408.4153.6337 1.0605 1.2854 1.2728 1.2854.1057 0 .1922.06.1922.1334 0 .257 1.6106 1.8431 1.805 1.7775.1083-.0365.2497.1775.3157.478.0658.2994.3394.7293.6081.9554.2687.2261.4886.5128.4886.637 0 .1243.1905.4524.4233.7291.2328.2767.4233.6255.4233.775 0 .1496.1334.2751.2964.279.1942.0048.4994.4132.8858 1.1854.3243.648.6862 1.1782.8044 1.1782.1181 0 .2148.1167.2148.2593 0 .1426.1333.3085.2963.3686.163.0602.3467.1846.4082.2766.0718.1073.4363.0778 1.016-.0821.8827-.2435 1.5767-.2421 1.4254.0028-.0416.0672-.0114.226.067.353.1245.2014.3673.2735 1.1179.3316.1122.0087.1761.4527.1665 1.1571-.0086.6287.0521 1.2383.135 1.3547.0938.132.081.2117-.0343.2117-.1016 0-.1403.1156-.0861.257.144.3754-.274 1.2665-.5955 1.2696-.2096.002-.223.036-.056.142.1754.1112.1669.183-.0424.3567-.1441.1196-.262.3224-.262.4507 0 .1283-.1543.2333-.3429.2333-.2099 0-.4053.1642-.5038.4233-.0885.2329-.2865.4234-.4399.4234-.2068 0-.2326.0558-.0997.216.1335.1607.0523.317-.318.6116-.2733.2177-.497.5397-.497.7154 0 .358-.179.4115-.4546.136-.132-.1319-.2487-.0918-.4149.1425-.4645.655-1.3175.9003-2.6013.748zm-10.076-16.6243c0-.093-.0335-.1693-.0746-.1693-.041 0-.1218.0762-.1793.1693-.0576.0932-.024.1694.0747.1694.0986 0 .1793-.0762.1793-.1694zm33.1048 10.8491c-2.14-.7736-3.1823-1.3839-4.5016-2.6359-.1475-.14-.3403-.2545-.4285-.2545s-.4444-.5742-.7917-1.2759c-.3472-.7017-.7443-1.3193-.8824-1.3723-.1382-.053-.3663-.4841-.507-.9581-.1409-.474-.3402-.9138-.4431-.9774-.2327-.1438-.3914-3.1498-.3346-6.3383l.0422-2.3707.4884-.3886c.2686-.2137.51-.3672.5366-.341.0266.0262.324-.1228.661-.331.7959-.492 1.6104-.5048 1.7618-.0278.0616.194.2096.3132.331.2667.2293-.088 1.9511 1.4595 1.9511 1.7536 0 .0928.0743.1688.165.1688.2147 0 1.6977 1.483 1.6977 1.6978 0 .0907.1472.1649.3271.1649.3941 0 .9027.6849 1.1946 1.6086.2234.707.7247 1.4646 2.0766 3.1382.4424.5476.8044 1.0714.8044 1.164 0 .0926.0953.2293.2116.3038.1165.0744.4648.5072.774.9617.5248.7711.5634.9238.578 2.286.0173 1.6332-.2193 2.3653-.9994 3.0913-.69.6423-1.3661.9356-2.4269 1.0528-.7699.0851-1.1661.018-2.286-.3867zm16.3997-5.9798c-.1952-.3158.3541-1.3396 1.0555-1.9674 1.1797-1.0558 3.4505-4.1235 5.1508-6.9584.326-.5434.7171-1.1294.8692-1.3021.1522-.1727.444-.6468.6485-1.0534l.372-.7394-.9097-.8693c-1.5048-1.438-1.797-2.224-2.1009-5.6498-.0975-1.099-.076-1.237.2098-1.3461.37-.1414.626-.331 1.1581-.8584.2115-.2095.471-.381.5767-.381.1057 0 .1923-.1236.1923-.2747 0-.2099.0533-.2305.226-.0872.1243.1032.791.2983 1.4816.4336.6906.1354 1.7464.4413 2.3461.6799.5998.2386 1.2094.4379 1.3547.443.407.014 3.0741 1.9763 4.5149 3.3215.382.3567.8964 1.0636 1.143 1.5708.6691 1.3765.6088 2.1397-.3318 4.1993-.2548.558-1.3531 1.7365-1.6183 1.7365-.1263 0-1.1316.6443-3.9988 2.563-.3986.2668-.7704.485-.8262.485-.0558 0-.388.2476-.738.5503-.6789.587-1.7655 1.3862-2.323 1.7088-.1867.108-.597.3408-.9118.5174-.3148.1766-1.0296.7149-1.5884 1.196-.5588.4812-1.3208.964-1.6934 1.0727-.3725.1088-1.0903.3133-1.5952.4544-.5048.1412-1.0918.3706-1.3045.51-.3958.2593-1.21.2863-1.3592.045zM69.1217 70.042c-.055-.089.112-.2955.371-.4588.2591-.1634.6577-.4763.8858-.6954.4098-.3937 2.5506-1.7631 4.1204-2.6357.9738-.5413 4.257-2.6615 7.4473-4.8093 4.272-2.876 7.3517-4.479 12.7403-6.6315 1.6764-.6697 3.2004-1.2868 3.3867-1.3714.1862-.0845.9863-.3988 1.778-.6984.7916-.2995 1.5117-.6078 1.6002-.6851.0885-.0773.3218-.1405.5185-.1405.1967 0 .666-.149 1.0427-.331.3768-.182.8765-.3657 1.1104-.408.234-.0425.5686-.1571.7438-.2548.175-.0977 1.0042-.3825 1.8424-.633.8382-.2505 2.5527-.7778 3.81-1.1717 1.2573-.394 2.4756-.7222 2.7074-.7294.2318-.0072.689-.1233 1.016-.258.327-.1346 1.7376-.6141 3.1346-1.0655 1.397-.4515 2.5654-.878 2.5964-.948.031-.07.1654-.1272.2986-.1272.1332 0 .3745-.0668.5363-.1484.1617-.0816.9798-.4816 1.818-.889 3.1648-1.538 4.0607-2.2797 4.2286-3.5004.2064-1.5008.8217-3.1701 1.4164-3.843.4761-.5386.6875-.6473 1.3433-.6912.7191-.048.8497.0101 1.721.767.5185.4504 1.1332 1.142 1.366 1.537.2329.3949.8425 1.1965 1.3547 1.7814 2.151 2.456 2.9636 3.8901 4.2651 7.5266.5103 1.4258.5974 4.0558.174 5.2537-.8587 2.4293-3.2951 5.0298-5.3704 5.732-.3726.1261-.906.3288-1.1854.4505-.2794.1217-.9652.3483-1.524.5037-.5588.1553-1.1303.384-1.27.508-.1397.1242-.4826.2797-.762.3458-.2794.0661-1.2319.4844-2.1166.9296-3.0622 1.5409-9.4266 3.605-11.2607 3.652-.5588.0143-1.0922.0424-1.1853.0624-.0931.02-.4366.0246-.7632.01-.3266-.0145-1.1856.0959-1.9088.2453-.7233.1494-1.3901.2251-1.482.1684-.0918-.0568-1.1261.0204-2.2984.1716-1.1724.151-2.3338.2315-2.581.1786-.247-.0529-.848-.1281-1.3351-.1672-.4872-.0392-.9457-.1081-1.0188-.1533-.073-.0452-.4746-.0188-.8922.0587-.4176.0775-1.5212.1572-2.4525.1772-.9314.02-2.2599.1442-2.9523.276-.8402.1598-1.7694.2054-2.794.1369a922.6072 922.6072 0 00-2.551-.167c-1.166-.0739-2.778-.3288-3.6407-.5758-1.591-.4556-6.5897-.0382-7.9687.6653-.5462.2786-1.4162.3694-3.0835.3216-.1648-.0047-.622.1401-1.016.3219-.3941.1817-1.288.5354-1.9865.786-1.526.5474-2.6509 1.0676-3.1979 1.479-.4564.3433-.6325.3755-.7769.1418z" id="path2598" fill="#000" stroke-width=".1693"/>
    <path d="M20.6953 271.228c-.5618-.0693-2.0692-.3677-2.974-.5888-1.2925-.316-3.1949-1.8711-3.7407-3.0582-.1557-.3387-.4233-.8197-.5945-1.0688-.1712-.2493-.7018-1.2156-1.1791-2.1478l-.868-1.695.0207-1.9827c.0114-1.0904.0598-2.1685.1078-2.3956.3095-1.4669 1.251-3.4934 2.0645-4.4437.5926-.6924 2.752-2.2201 3.1379-2.2201.124 0 .2255-.0993.2255-.2203s.1396-.2203.3102-.2203c.1706 0 .4122-.1236.537-.2746.5451-.6604 1.474-.872 3.7912-.8637 2.167.0103 2.2505.0207 3.6225.6016.7724.3268 1.4415.6416 1.487.7002.0455.0584.5154.4307 1.0445.8265.8845.662 1.9294 1.901 1.9294 2.2877 0 .1976.8144 1.8324 1.0835 2.1746.3412.4339.7075 3.8.4135 3.8-.0964 0-.1753.072-.1753.1598 0 .088.1116.1174.2479.0651.2983-.1143.305.0817.0778 2.2533-.204 1.9486-.3643 2.4426-1.232 3.7965-.38.5926-.6846 1.1272-.677 1.188.0243.197-.7806.9634-1.0121.9634-.1236 0-.7984.3242-1.4995.7203-1.442.815-1.8896.9752-3.753 1.3435-1.6973.3356-1.898.3604-2.3956.2994zm.6608-1.126c0-.1376-.0716-.3791-.1591-.537-.0876-.1577-.3074-.6104-.4887-1.0057l-.3295-.7187.5196-.438c1.3144-1.1074 1.206-1.0736 1.6713-.5206.6007.7138.9343.655.9343-.165 0-.4773.0688-.6609.2478-.6609.1363 0 .2479.0765.2479.1706 0 .363.7183.4453 1.2338.1412.7416-.4375 1.6315-1.4081 1.4944-1.63-.0862-.1395-.1903-.1287-.3903.0415-.4261.3599-1.508.9479-1.7435.9479-.117 0-.337-.137-.4888-.3051-.259-.286-.2533-.3346.0926-.7848.2027-.2637.4294-.523.5039-.5756.1518-.1076-.011-.6477-.1954-.6477-.0653 0-.2933.1856-.5068.4132-.4841.5155-.6206.517-.8517.0103-.151-.3315-.121-.5094.1688-1.0008.3963-.6716.4394-.909.1652-.909-.2609 0-.932.8122-1.1224 1.3583-.1189.3413-.099.514.08.6927.2925.2927.316 1.0902.032 1.0826-.3208-.0103-.8732-.5327-1.1313-1.0736-.1612-.3376-.3754-.5067-.6873-.5428-.2492-.031-.453-.0207-.453.0207s.3345.5707.7434 1.1805c.409.6098.7435 1.1684.7435 1.2414 0 .0729-.2788.3418-.6196.5979-.3408.256-.6684.5366-.728.6238-.0596.0874-.3324-.2803-.6062-.8173-.739-1.449-.907-1.642-1.1619-1.3347-.1699.2047-.1201.4219.2774 1.2127.2663.5299.6544 1.3723.8623 1.872.3814.9167 1.2924 2.2986 1.5216 2.308.0682.003.124-.1075.124-.2451zm4.9149-2.6159c.706-.4467 2.0243-1.7204 2.0243-1.9559 0-.0864.1765-.3935.3923-.6827.6848-.9183 1.0028-2.179 1.0076-3.9956.004-1.5418-.2932-3.2217-.5702-3.2217-.0653 0-.2316-.2875-.3696-.6388l-.2509-.6387-.8266.0796c-.9063.0874-1.1623-.0889-.8518-.5863.2576-.4127.07-1.364-.3826-1.9392-.5431-.6906-2.664-2.0017-3.5527-2.1963-1.4386-.315-2.0033-.3708-2.1047-.2069-.1276.2069.322.4473 1.1119.5957.7806.1464.8996.3393.489.793-.896.9899-1.87 3.0856-1.4338 3.0856.1277 0 .5467-.4524 1.1833-1.2785l.4124-.535.4404.4525c.6689.6872 1.4856 1.3611 1.6495 1.3611.0805 0 .2382.1107.3503.2457.1656.1996.122.4023-.2312 1.0776-.383.7324-.403.8445-.167.935.1474.0564.3274.005.4-.1106.0725-.1174.2486-.1686.3912-.1138.1718.0657.351-.0558.5307-.36.2554-.4322.3259-.455 1.203-.3883 1.0878.0833 1.3769.3455 1.7573 1.5939.6542 2.1472-.0445 5.1167-1.6462 6.996-.6204.728-1.8465 1.6088-3.2718 2.3502-.7124.3707-1.1117.6796-1.1118.8606-.0002.2306.256.1484 1.4037-.452.7722-.4038 1.683-.9108 2.024-1.1266zm-1.28-12.0179a91.9185 91.9185 0 01-.9914-.8177c-.318-.2663-.7198-.5857-.8927-.7098-.3021-.2167-.294-.2472.207-.7715.4904-.513.5397-.5294.8232-.273.1659.15.383.273.4824.273.3388 0 1.209.864 1.4492 1.439.4343 1.0396-.2144 1.5572-1.0778.86zm-6.6998 13.5757c.0517-.0832-.4848-.734-1.1918-1.4457s-1.4885-1.5417-1.7366-1.8443l-.4512-.5502.7513-.9564c.4132-.526.8253-1.224.9156-1.5514.1544-.559.2145-.6018.9918-.705.6399-.0847.8156-.17.7752-.3764-.0596-.304-.901-.3309-3.2264-.1034-1.17.1148-1.363.0977-1.363-.1184 0-.3418.3035-.5614.974-.705.3458-.074.837-.4038 1.2803-.86l.7192-.7401 1.1722.1975c1.2157.2048 1.6097.0998 1.4251-.381-.0792-.2064-1.6673-.4903-4.8274-.8621-.1817-.0207-.3454-.0465-.3637-.06-.0181-.0103.0678-.2617.1914-.5558l.2248-.5346 1.4607-.002c1.343-.002 1.4735-.031 1.6195-.364.0872-.1991.3065-.4003.4872-.4473.3407-.089 1.4193.473 1.4193.74 0 .0832.1858.1514.413.1514.7296 0 .4534-.4436-.7848-1.2608-.6588-.4349-1.2958-.925-1.4156-1.0894-.1198-.1644-.272-.2653-.3384-.2244-.0662.0414-.2274.0103-.3582-.0724-.1988-.123-.1824-.1986.0998-.4612.1856-.1733.6198-.4075.9648-.5215.7087-.2338 1.0346-.0553 1.1686.6406.1433.7444.3785.8524 1.0253.4706.4718-.2787.5433-.3826.361-.5252-.1251-.0977-.376-.4644-.5576-.8148-.3972-.7661-.8813-.9838-1.9906-.8952-.6364.0517-1.0563.2208-1.7698.7167-.5145.3573-.9383.711-.9417.7856-.0034.0745-.3037.4882-.6672.9193-.3634.4313-.6609.8362-.6609.9003 0 .0641-.1858.4111-.413.771-.2272.3598-.413.8267-.413 1.0375 0 .211-.0769.4602-.1708.554-.0939.0941-.1776.5191-.1862.945-.0088.426-.0884.8192-.1774.8743-.0964.0595-.0711.1587.0623.2445.1859.12.1818.1722-.0238.3072-.1657.1086-.1793.1634-.0413.165.2473.003.2748.529.0398.7639-.2091.2089.3882 2.6446.7455 3.0394.136.1504.2472.3454.2472.4338 0 .2487 1.3845 2.092 1.9778 2.6334.292.2663.7521.6882 1.0225.9373.9553.88 1.3562 1.089 1.5347.8zm-4.0862-5.342c-.5295-1.4473-.533-1.4186.1647-1.3827.8545.0414 1.025.1851.9488.7865-.069.5457-.4851 1.2984-.7177 1.2984-.0764 0-.2545-.316-.3958-.7021zm-.4076-4.2166c.0445-.592.0722-.6177.7048-.6591.362-.0259.7698.031.906.119.2109.1375.1863.2213-.1651.5597-.2272.2187-.6559.4426-.9526.497-.5362.0987-.5392.0956-.493-.5167zm1.9-3.2952c-.5858-.089-.5726-.2079.1079-.9726l.5622-.6319.5114.5.5115.5001-.3366.3614c-.332.3563-.4588.379-1.3564.243zm14.3327 7.8836c.0562-.091.0279-.165-.0631-.165-.0909 0-.2112.0746-.2673.165-.0562.091-.028.165.063.165s.2112-.0745.2674-.165zm-3.2218-1.083c0-.5532.0254-.5749.9914-.8434 1.2158-.3382 1.341-.717.237-.717-1.017 0-1.3936-.225-1.3936-.832 0-.501.0037-.5032 1.0413-.5638.269-.0155.602-.347.6084-.6054.0046-.1867-2.3829-.3077-3.3525-.1701-.9435.1339-.9635.1282-1.2021-.333-.2691-.5205-.434-.578-.7084-.2472-.2661.3206.2552 1.7496.9723 2.6652.4233.5404.729.7621 1.154.837.9072.1597.9914.2083.9914.5772 0 .4664.3095 1.018.504.8979.0862-.0533.1569-.3527.1569-.6648zm-1.763-1.8661c-.3006-.09-1.1819-.9843-1.0164-1.0313.7788-.2213 1.1732-.136 1.6293.3527.674.7215.4303.9913-.613.6788z" id="path75-3" fill="#ff0002" fill-opacity=".9412" stroke-width=".1652"/>
  </g>
</svg>
