<svg xmlns="http://www.w3.org/2000/svg" viewBox="0 0 210 297" version="1.1" id="svg2237">
  <g id="layer1">
    <path d="M146.4148 230.7274c-.8464-.1671-2.7203-.8292-3.85-1.3601-.908-.4269-3.0465-2.541-3.5427-3.5023-.5302-1.0273-.6268-1.5547-.3594-1.9628.1606-.2452.1871-.4492.0802-.6183-.2552-.4036-.2-1.1837.084-1.1837.1514 0 .2105-.0993.1512-.254-.1331-.3468.0516-.3144 1.0394.1825 1.6027.8063 5.4505.9588 9.8995.3923 5.2-.6621 12.2513-1.6717 12.3475-1.768.0525-.0525-.1017-.4532-.3426-.8904-.241-.4373-.6075-1.4349-.8146-2.217-.3324-1.255-.3518-1.5133-.1659-2.2013.1159-.4287.2629-.8556.3266-.9487.1875-.2738 1.1862-3.4201 1.1862-3.737 0-.2606-.1507-.2783-1.4817-.1744-2.254.176-5.4477.1444-6.3724-.0632-2.1602-.485-3.025-1.2561-4.8243-4.3024-1.2844-2.1746-1.6845-3.9154-1.145-4.9818.1273-.2514.2814-.724.3424-1.0499.061-.326.2484-.7712.4162-.9894l.3053-.3967.2876.439c.3738.5705.7536.5591.8895-.0265.1474-.6353.5365-1.2277.8064-1.2277.251 0 .668.795.5323 1.0145-.1224.198.698.9856 1.8583 1.7844l.9769.6724 2.2225-.016c1.538-.0113 3.3181-.1784 5.7786-.5426 1.9558-.2895 4.5466-.6058 5.7574-.703 2.3502-.1884 4.1486-.5008 4.1486-.7206 0-.0739.6203-.1344 1.3784-.1344 1.0529 0 1.4239-.0623 1.5713-.264.1728-.2362.2814-.2254 1.0347.1034.4629.202 1.1083.4047 1.4343.4503.681.0954 3.1175.9984 3.683 1.365.2096.1358.381.318.381.405 0 .0868.186.3257.4134.5308.4096.3694 1.0334 1.6422.8056 1.6436-.1914.002-.2 1.2381-.0102 1.4669.0956.1152.1257.3614.0667.547-.0589.1858-.1405.7727-.1813 1.3044-.0408.5317-.0941.9846-.1185 1.0063-.0244.0217-.9587.0933-2.0763.159-1.1176.0657-2.1302.2003-2.2501.299-.12.0987-1.3773.2776-2.794.3975-4.7718.4038-4.6733.3703-4.1052 1.397.5114.9243 1.0904 2.5376 1.1996 3.3425.062.4578.1299.9466.1508 1.0863.304 2.0363.3102 1.965-.3755 4.318l-.148.508 3.3992.2023c4.9834.2966 8.8596.682 9.9185.986.5123.1471 1.2873.3654 1.7224.485 1.1247.3093 1.8719.9892 2.7994 2.5472.1622.2726.1562.395-.0293.601-.199.2207-.1854.3623.0925.9673.2362.5144.2838.8187.1733 1.1092-.0837.2203-.1114.6143-.0614.8756.1188.6216-.1416.772-1.3425.7752-.53.002-1.0108.0788-1.0684.1719-.1373.2222-1.27.22-1.27-.002 0-.1008.2275-.1317.5504-.0748.5437.0957.5462.093.2116-.2178-.4429-.4115-.8952-.5777-1.0206-.3749-.055.0891.076.1708.291.1816.2868.0144.312.0403.0947.0971-.163.0426-.2964.1626-.2964.2667s-.1182.0414-.2627-.1394c-.2554-.3194-.2598-.318-.158.0523.0613.2226.0297.381-.0759.381-.0994 0-.1807-.0762-.1807-.1693s-.089-.1694-.1976-.1694-.1504.0472-.0927.1048c.0577.0577.0132.1963-.0988.3081-.2424.242-1.0054.4659-.8764.2572.0493-.0798-.06-.225-.2426-.3229-.4722-.2527-.6468-.2203-.2755.0511.2944.2153.2852.236-.1532.346-.2768.0694-.5627.037-.7034-.0799-.1304-.1082-.5232-.2222-.8728-.2534-.3496-.031-.8159-.0955-1.0362-.1431-1.7717-.3831-9.3179-.3908-12.3598-.0125-1.8402.2288-6.3177.923-7.6443 1.1851-.2329.046-2.3284.3133-4.6567.594-2.3283.2806-5.0551.6235-6.0595.762-1.9712.2716-3.6792.2977-4.8152.0734zm39.3227-2.7383c.0966-.072.042-.1274-.127-.129-.1648-.002-.2964.1228-.2964.2797 0 .1552.0572.2133.127.129.07-.0843.2032-.2102.2964-.2797zm-60.1597-29.6935c.1608-.1679.3287-.2687.3733-.2242.0446.0445-.087.1819-.2923.3052-.3567.2142-.3603.2106-.081-.081zm.9777.0364c0-.034.2857-.2493.635-.4787 2.2868-1.5018 2.1416-1.3664 1.7795-1.6595-.2595-.2102-.285-.3087-.1201-.4627.1152-.1077.2557-.1496.3122-.093.0565.0565.1027.019.1027-.0834s.7049-.7756 1.5664-1.496c.8614-.7206 1.6425-1.3959 1.7356-1.5008.0931-.1048.817-.7173 1.6087-1.3609.7916-.6436 1.7822-1.4897 2.2013-1.8803.4191-.3905 1.4504-1.2702 2.2917-1.955.8413-.6846 2.632-2.201 3.9793-3.3695 1.3473-1.1687 2.9069-2.4903 3.4657-2.937 2.8382-2.2687 9.978-9.2323 12.6928-12.3796 3.0343-3.5176 6.8652-8.6626 6.8652-9.22 0-.1109-.2382-.7736-.5293-1.4728-.4318-1.0374-.51-1.4116-.4247-2.034.0582-.4245.0262-.909-.0723-1.093-.1606-.3001-.1333-.32.2977-.2176.261.0621.6.2216.7533.3544.1532.1329.7628.3127 1.3546.3996 1.6633.2444 4.3667.9458 4.6847 1.2155.1573.1333.5908.3813.9633.551.3726.1697.944.5048 1.27.7447.8962.6597 2.3654 2.1098 2.3682 2.3374.002.1107.2339.4536.5167.762.2828.3085.5541.7513.603.9841.0487.2329.1648.5631.258.734.0932.1708.1493.8185.1247 1.4393-.0473 1.192-.3753 2.0574-1.5091 3.9816-.321.5446-.74 1.2685-.9314 1.6086-.4445.7902-3.943 4.4285-4.2583 4.4285-.131 0-.634.2197-1.118.488-.4838.2685-1.0832.4875-1.332.4869-.3843-.002-.8111.2234-1.7491.9197-.0931.069-.436.3458-.762.6148s-.9356.7032-1.3547.965c-.419.2617-1.2573.8697-1.8626 1.351-.6054.4812-1.8627 1.3794-2.794 1.996-.9314.6164-2.0715 1.405-2.5336 1.7525-1.4989 1.1268-2.9717 2.1244-3.1849 2.157-.4927.0756-2.0712.944-4.4151 2.429-1.3825.876-2.71 1.6673-2.9502 1.7586-.2401.0913-1.4437.656-2.6746 1.2548-1.2309.5989-2.6033 1.1707-3.0498 1.2708-.4466.1-1.1599.3638-1.5852.5861-.4253.2223-1.1924.591-1.7046.8192-.5123.2282-1.339.6906-1.8374 1.0274-.4983.337-.9669.6126-1.0413.6126-.0744 0-.519.2582-.988.5738s-1.1434.6117-1.4987.6579c-.7855.1022-1.5831.404-2.5937.9814-.4189.2394-1.1045.54-1.5236.668-.4191.128-.9437.3703-1.1659.5385-.3569.2702-.8661.4137-.8661.244zm-.3387-.5064c0-.1889 1.8917-1.463 2.311-1.5566.374-.0835.2728.028-.4483.4942-1.1691.7556-1.8627 1.1512-1.8627 1.0624zm6.0114-21.7805c-.7875-.0838-2.0717-.7978-2.2677-1.2608-.0365-.0862-.3222-.4126-.635-.7253-.3128-.3128-.5687-.637-.5687-.7203 0-.0834-.1225-.2741-.2723-.4239-.3893-.3893-2.437-3.4998-2.437-3.7018 0-.093-.2348-.535-.5218-.9822-.287-.4472-.474-.8904-.4155-.985.0584-.0945.0168-.339-.0926-.5434-.3505-.655-.1288-5.7315.2504-5.7315.106 0 .4674.1866.803.4147.3357.228.8296.4623 1.0977.5206.7174.156 2.3549.7371 3.7048 1.3146 1.2083.517 2.6433 1.52 3.556 2.4855.2794.2956.7677.661 1.0852.8118.3368.16.7814.6027 1.0673 1.0626.2696.4336.8314 1.029 1.2486 1.323.4171.294.8045.6547.8609.8015.0607.1581-.1271.5895-.4605 1.058-.4685.6584-.5647.948-.5736 1.7267-.009.8036-.0985 1.0546-.6334 1.778-1.3611 1.8411-1.9935 2.0754-4.7959 1.7771zm16.51-6.4261c-.1398-.0808-.875-.2633-1.6339-.4056-1.6054-.301-3.2547-1.0964-3.871-1.8667-.2348-.2936-.502-.6258-.5937-.7383-.0917-.1125-.1668-.2657-.1668-.3404 0-.0747-.174-.3256-.3866-.5575s-.572-.7264-.7987-1.099c-.2267-.3725-.5773-.8574-.779-1.0776-.5662-.6178-1.9304-3.2046-1.9304-3.6604 0-.2236-.0706-.4503-.157-.5036-.0862-.0534-.1504-.8839-.1425-1.8456.008-.9617-.0384-1.834-.1029-1.9382-.0645-.1044.3067-.002.8248.2269.518.2291 1.2038.4166 1.5239.4166.32 0 .9084.1077 1.3075.2395.399.1317 1.3352.371 2.0802.5318.7451.1608 1.7464.4642 2.2251.6743.4788.21 1.1265.4356 1.4394.5011.4028.0844.97.522 1.9428 1.4992.7557.759 1.9315 1.9089 2.613 2.5552.6815.6463 1.1505 1.2046 1.0423 1.2407-.1083.0361-.4092.3836-.6688.7722-.4064.6086-.4565.8124-.3615 1.4686.0977.6746.0465.8592-.4464 1.6087-.5254.799-2.2674 2.4614-2.5676 2.4502-.076-.003-.2526-.0713-.3923-.1521zm-16.2155-20.6381c.196-.344.4698-.7592.6085-.9228.1387-.1636.3352-.4441.4366-.6233.1014-.1791.7368-1.2767 1.412-2.439.6752-1.1624 1.2277-2.155 1.2277-2.2057 0-.0508.24-.4957.5333-.9887.5844-.9822 1.4854-2.6244 2.1643-3.9445.2394-.4657.6512-1.1515.915-1.524.2637-.3725.8794-1.4012 1.3681-2.286.4887-.8848 1.1766-2.104 1.5286-2.7093.352-.6054.9463-1.6722 1.3206-2.3707.3743-.6985.8002-1.4605.9465-1.6933.64-1.0183 2.9692-5.6351 3.8017-7.5354.3265-.745.7603-1.7356.9641-2.2013.2038-.4657.5206-1.3039.704-1.8627.499-1.5198 1.1773-3.6911 1.2432-3.9793.032-.1397.2893-1.1684.5718-2.286.5804-2.2963 1.2218-5.5415 1.64-8.2973.275-1.8127.903-5.5258 1.6324-9.652.1975-1.1176.367-2.7502.3764-3.628l.0173-1.5959-.5926-.1457c-1.2675-.3115-2.127-.9078-4.2334-2.937-.959-.9238-1.6234-1.4266-1.9911-1.5067-1.068-.2328-.4801-.4466 1.9005-.6912.5556-.0571 1.0672-.1391 1.137-.1823.0698-.043 2.4837.0397 5.3644.1842 5.6027.281 6.9476.4909 8.6408 1.3489.8466.429.9749.617 1.1047 1.6183.0302.2329.1222.5758.2043.762.2311.5239.1717 2.3597-.1396 4.318-.3396 2.1358-.551 4.1023-.528 4.9107.0329 1.1562-.8717 6.2674-1.2348 6.9766-.1288.2514-.3192.861-.4233 1.3546-.104.4936-.2427.9737-.3081 1.0668-.0655.0931-.2189.5122-.3409.9313-.122.4191-.3262 1.0022-.4538 1.2956-.1276.2935-.2347.5983-.2378.6774-.003.079-.153.4485-.333.821-.1799.3726-.3297.742-.3329.8211-.003.0791-.112.3839-.242.6774-.4822 1.0892-1.457 3.6345-1.457 3.8044 0 .0967-.2566.7338-.5702 1.4158-.3136.682-.619 1.3973-.6787 1.5894-.0597.1922-.3747.64-.6999.995s-.5912.7418-.5912.8595c0 .3366-1.601 3.843-2.3348 5.1134-.3652.6321-1.027 1.84-1.471 2.6842-.4438.8442-1.1377 1.9003-1.542 2.347-.4043.4466-1.3439 1.699-2.088 2.783-.744 1.0842-1.6042 2.2435-1.9115 2.5764-.3073.3328-.9397 1.0856-1.4054 1.6727-1.0754 1.3561-2.6911 3.1268-4.3336 4.7494-.707.6985-1.7464 1.8086-2.3098 2.467-.5633.6583-1.269 1.4584-1.5683 1.778-.2993.3195-.7667.9354-1.0388 1.3687-.5014.7982-1.1245 1.329-1.5603 1.329-.1316 0-.528.419-.8807.9313-.3528.5122-.6669.9313-.698.9313-.2042 0 .146-.607 1.7215-2.9833.9779-1.475 1.778-2.7408 1.778-2.8126 0-.242-.2003-.1335-.6517.3533-1.2904 1.3914-3.2348 3.586-3.772 4.2573-.3353.4191-.9631 1.136-1.395 1.5933-.432.4572-.7853.8872-.7853.9555 0 .0684-.1092.1662-.2426.2174-.1741.0668-.142-.0833.1138-.5322zm5.7168-28.2533c-.4191-.24-1.0405-.7133-1.3808-1.0516-.3403-.3383-1.0042-.9863-1.4753-1.44-.4711-.4537-.9472-1.0996-1.058-1.4353-.1108-.3357-.342-.8408-.5137-1.1224-.1718-.2816-.3126-.7647-.313-1.0735-.0003-.3088-.082-.7137-.1816-.8998-.1258-.2351-.1272-.4033-.005-.551.1156-.1394.1782-2.5241.1816-6.9194.003-3.6887.037-6.8076.0759-6.9309.2291-.7258.4248-10.2129.2797-13.5673-.0385-.8892.006-1.5603.1108-1.6649.1206-.1206.4286.0609.9895.5834.763.7107.8381.743 1.1896.5128.2064-.1352.4167-.1786.4675-.0965.0508.082.877.4005 1.836.7074.959.307 1.8605.6152 2.0033.685.1427.0698.4994.1795.7926.244.2932.0643.6198.2215.7258.3493.106.1277.4162.2813.6893.3413.2732.06.804.3956 1.1796.7459.714.6657.9535 1.3904 1.068 3.2308.0261.419.1457 1.4097.2658 2.2013.1663 1.0969.1926 3.1716.1103 8.7207-.1723 11.614-.2222 13.3518-.3962 13.8006-.2312.5963-.4989 1.513-.6304 2.159-.0616.3027-.2033.5504-.3148.5504-.1116 0-.5963.4468-1.077.993l-.8742.9931-1.2379.0875c-.6808.0481-1.3521.1316-1.4918.1856-.1397.0539-.597-.0984-1.016-.3385zm-1.09-50.5966c.1499-.2287.227-.4895.1714-.5794-.0556-.09.311-1.065.8147-2.1665.5037-1.1016 1.1949-2.7268 1.536-3.6115.941-2.4415 1.9229-4.7768 4.2358-10.0754.122-.2794.4676-1.0795.7682-1.778.3005-.6985.6824-1.5748.8487-1.9473.1663-.3725.7948-1.8584 1.3968-3.302.602-1.4436 1.7394-4.0725 2.5275-5.842 2.25-5.0516 2.3768-5.5074 1.827-6.5621-.2036-.3906-.3957-.8427-.4268-1.0045-.0931-.4835-.9423-1.8315-1.153-1.8302-.207.0012-2.1142.6639-4.0903 1.4212-3.413 1.308-4.9883 1.7497-7.903 2.216-2.227.3561-3.6163.1998-5.305-.597-.8568-.4041-1.1255-.6469-1.7145-1.5487-1.172-1.7941-1.9558-3.7204-1.6028-3.9386.1252-.0774.1031-.3-.071-.7165-.3222-.7712-.3216-1.2403.002-1.2403.1397 0 .254-.138.254-.3068 0-.1687.2297-.4766.5104-.6841.4897-.3621.534-.3662 1.0922-.1013.32.1518.6572.2294.7495.1724.0923-.057.3189.0585.5036.2568.1846.1982.4126.313.5065.2549.0939-.058.2711.0362.394.2095.4032.569 1.4956.9638 2.5526.9228 1.246-.0484 3.87-.694 7.1253-1.7531 1.411-.4591 4.2806-1.2534 6.3768-1.765 2.0961-.5118 4.373-1.092 5.0597-1.2895 3.631-1.0441 8.9584-2.0274 15.6001-2.8794.8848-.1135 3.1327-.2033 4.9953-.1996 3.6703.0073 4.5456.1328 7.2814 1.0437.8382.279 2.0574.5822 2.7093.6736.652.0915 1.466.2861 1.809.4326 1.0149.4333 1.1543.7771 1.1543 2.8454v1.8216l-.7088.3616c-.3899.199-1.2334.507-1.8746.6847-1.1397.3158-1.7284.6004-2.4119 1.166-.1863.1542-.872.4524-1.524.6627-1.4992.4836-4.7691 2.11-5.3577 2.6649-.246.2318-.4928.3476-.5485.2574-.1983-.3209-1.2135-.3842-1.7631-.11-.2931.1462-.821.311-1.1731.3664l-.6403.1005.5375-.576c2.4312-2.6054 4.7965-5.5026 4.7965-5.8751 0-.4947-6.4868-.4492-8.7206.0611-.652.149-1.833.4083-2.6247.5764-.7916.168-2.3537.5443-3.4713.8361-1.1176.2918-2.1844.5664-2.3707.6103-.4378.1031-2.9972.997-3.2178 1.124-.0929.0533-.3784.1471-.6345.2084-.7405.177-.5404.4435.333.4435.4393 0 1.106.1096 1.4817.2437.3756.134 1.0428.2908 1.4826.3483.481.063 1.122.32 1.6087.6453.6737.4503.8408.6698.9996 1.3126.1048.4246.302.9961.4383 1.27.1363.274.385 1.1694.5528 1.9899.3703 1.8111.2748 3.2774-.3165 4.8582-.8728 2.3333-2.4313 5.671-2.6276 5.6272-.112-.025-.3572.0622-.545.1937-.355.2487-1.5026 1.926-1.5026 2.1962 0 .1353-.3499.5719-1.5136 1.8889-.1645.1862-.4353.6053-.6016.9313-.1663.326-.5966.9462-.9563 1.3782-.3596.432-.6539.8576-.6539.9457 0 .088-.2095.3528-.4656.5884-.2561.2355-.611.61-.7888.8323-.764.9557-2.9836 3.4318-4.7639 5.3147-1.0567 1.1176-2.3824 2.6607-2.946 3.429-.9457 1.289-1.0708 1.397-1.6183 1.397-.3263 0-.5934.0641-.5934.1424s-.2857.4469-.635.819c-.3492.3722-.9779 1.2224-1.397 1.8895-.7126 1.1343-1.016 1.4459-1.016 1.0438 0-.093-.3402-.1693-.756-.1693-.5827 0-.7976.0776-.9373.3386-.0997.1863-.2847.3387-.4112.3387-.1264 0-.2737.1143-.3274.254-.0536.1397-.2159.254-.3606.254-.2356 0-.2346-.0437.009-.4159zm1.7215-1.8877c-.0563-.0563-.2024-.0623-.3246-.0134-.135.054-.095.0942.1023.1023.1785.007.2785-.0327.2223-.089z" id="path2339" fill="#000" stroke-width=".1693"/>
    <path d="M54.8302 259.0919c-.3493-.303-.635-.6206-.635-.706 0-.0854-.3048-.4184-.6773-.7402-.3726-.3217-.6774-.72-.6774-.8852 0-.165-.085-.3001-.1888-.3001-.1297 0-.153-.2866-.0745-.915.0754-.6036.0504-.9546-.0734-1.0312-.1365-.0843-.137-.1772-.002-.34.1022-.1232.197-.5546.2105-.9586.0136-.404.0813-.7743.1506-.8228.0693-.0485.2828-2.2203.4745-4.826.387-5.2612.6374-7.6268 1.3624-12.8658.502-3.6282.761-6.4751.9322-10.2446.1227-2.7044.2385-5.0997.3395-7.0273.0439-.8382.1253-2.7813.1808-4.318.0555-1.5367.1757-3.518.2672-4.4027.2916-2.82.3804-6.7157.165-7.2358-.1135-.2739-.5315-.6637-.9962-.9289-.7827-.4466-2.0557-1.4566-2.5554-2.0275-.1378-.1574-.259-.4811-.2695-.7194-.0154-.3514.0415-.414.3013-.3316.433.1374 2.1734-.0906 2.0624-.2702-.1913-.3095 2.878-.6818 3.9636-.4808 1.368.2534 3.3564.992 4.1098 1.5265.7682.5451 1.8318 1.6265 1.8318 1.8624 0 .0762.148.2866.3288.4674.4629.4629.9954 2.3087 1.14 3.951.0673.766.1243 3.8708.1264 6.8993l.004 5.5063 1.9521.0142c3.2286.0236 5.5175.7672 8.6616 2.8137 2.7719 1.8043 4.4193 3.2115 6.6334 5.6665.4368.4842 1.0647 1.0089 1.3954 1.1658.8804.4177 1.487 1.7602.798 1.7662-.225.002-.2424.0368-.0723.1446.2593.1645.1294 1.1756-.2467 1.9188-.1272.2515-.2313.6076-.2313.7913 0 .5018-.7907 1.3421-1.617 1.7186-.4033.1836-.7757.4028-.8277.487-.052.0842-.356.1456-.6755.1365-.3194-.009-.8492.128-1.1772.3047-.5621.3028-.6145.3046-.9145.0332-.175-.1584-.5604-.288-.8566-.288-.4162 0-.7657-.2088-1.5388-.9196-.5502-.5058-1.252-1.0497-1.5594-1.2088-.485-.2507-3.364-2.986-3.364-3.196 0-.0422-.6958-.7474-1.5463-1.5671s-2.2734-2.2333-3.162-3.1414c-.8886-.908-1.6666-1.651-1.7288-1.651-.0622 0-.1243.4-.1379.889-.0243.8749-.1886 2.7657-.298 3.429-.0307.1863-.136.9864-.2342 1.778-.0982.7917-.2166 1.5434-.2631 1.6705-.0466.1272-.2353 1.5369-.4193 3.1327-.184 1.5958-.4897 3.816-.6794 4.9335-.1896 1.1176-.4593 3.3274-.5993 4.9107-.2693 3.0461-.6299 5.4587-.891 5.962-.0866.1668-.2096.6635-.2735 1.1037-.0639.4402-.18.8398-.258.888-.078.0482-.1959.699-.262 1.4463-.099 1.117-.0677 1.4693.1752 1.9812.256.5394.2678.7304.0888 1.429-.1137.4435-.1561.9657-.0942 1.1605.1422.4483-.2329.9743-.458.6423-.1163-.1715-.1431-.164-.122.0343.015.1397.0182.3502.007.4678-.0204.2181-1.7339 1.0562-2.1594 1.0562-.129 0-.365.1524-.5246.3386-.3912.457-2.0966.4421-1.8136-.0157.1061-.1716-.4178-.009-.7193.2238-.1109.0855-.3395.1327-.508.105-.1685-.0279-.3826-.003-.4758.0546-.093.058-.455-.1426-.8043-.4455zm.9737-.0632c0-.3265-.303-.306-.3513.0237-.0253.1723.0416.277.1532.2399.109-.0363.198-.155.198-.2636zm3.048-.0282c.0576-.0931.024-.1694-.0747-.1694-.0986 0-.1794.0762-.1794.1694 0 .093.0336.1693.0747.1693.0411 0 .1218-.0762.1794-.1693zm-1.4394-.244c0-.0412-.0762-.1218-.1693-.1794s-.1693-.024-.1693.0747c0 .0986.0762.1793.1693.1793.093 0 .1693-.0336.1693-.0747zm27.9248-45.7867c-1.7394-.5438-2.0702-.769-4.1076-2.7961-1.4776-1.4701-2.2779-2.4208-2.8017-3.328-.4033-.6985-.7484-1.3462-.767-1.4393-.0993-.4972-.3502-1.0707-.6616-1.5127-.2966-.4208-.3062-.4798-.0625-.3863.1581.0607.2876.0535.2876-.016 0-.1761-.524-.918-.839-1.1878-.2276-.1951-.2121-.2116.1193-.127.2096.0535.5453.1473.7461.2085.2537.0773.3282.0515.244-.0847-.0866-.1403.1823-.1975.9472-.2014 1.0055-.005 1.0484-.0212.7297-.274-.3175-.252-.2825-.2627.5582-.171 1.5708.1711 6.6465 2.8806 6.3545 3.392-.06.1051-.0457.1337.0316.0635.0773-.0702.2992-.0251.4929.1002.1937.1253.5807.2837.8601.352.819.2003 2.9354 1.4387 3 1.7553.0552.27-.009.7561-.2926 2.224-.186.9612-1.463 2.7234-1.9737 2.7234-.1707 0-.3103.064-.3103.1422 0 .2801-2.0298.7275-2.5553.5632zm7.2966-6.765c-.5123-.367-1.0838-.7157-1.27-.775-.1863-.0591-.5142-.3659-.7286-.6816-.2144-.3157-.7288-.9178-1.143-1.338-.4142-.4201-.7531-.8177-.7531-.8835 0-.0658-.19-.269-.4222-.4517-.5554-.4368-1.7857-2.0802-2.1964-2.934-.1948-.4048-.308-.95-.2813-1.355.0245-.3728-.0721-.9027-.2147-1.1776-.2822-.544-.2362-.751.1048-.4714.197.1615.747.3287 2.0503.6232.3466.0783.4455.0528.356-.092-.0935-.1514.183-.1719 1.1288-.0838 1.6261.1514 2.899.5157 4.0097 1.1476.492.2798 1.0634.5287 1.27.5531.2066.0244 1.2634.37 2.3484.768 2.2671.8315 2.169.6921 2.2653 3.2207.0494 1.2969.007 1.5402-.4305 2.4583-.6504 1.3656-1.1657 1.7232-2.6375 1.8304-.6435.0468-1.4748.1356-1.8474.1973-.6058.1004-.7757.0418-1.6086-.555zm-11.6082-25.8303c-.2842-.1093-.9834-.4451-1.5537-.7461-.6113-.3228-1.4226-.5927-1.9767-.6579-.517-.0608-.9043-.168-.8608-.2384.098-.1587-.5214-.27-2.7966-.5025-3.3293-.3401-6.3489-.6833-6.858-.7793-1.5374-.29-3.7505-1.5173-3.5922-1.9922.0348-.1045-.0214-.2748-.125-.3784-.1037-.1037-.1789-.4092-.1671-.6789.0118-.2697.0333-.7715.0478-1.1151.0195-.4608.2008-.8262.691-1.3925.3654-.4222.7109-.9142.7677-1.0933.0655-.2065.4266-.4304.9866-.6119 1.4374-.4658 7.3225-3.7589 10.5351-5.895 3.8436-2.5557 8.671-6.8992 12.2714-11.0413 1.2957-1.4907 1.3183-1.562.5578-1.7625-2.3414-.6176-8.377-1.0356-11.8132-.8183-5.1033.3229-9.4522 2.3828-12.794 6.0603-1.588 1.7475-3.0797 3.8257-3.7436 5.2155-.8032 1.6812-.8397 1.9262-.4513 3.0298.2795.7942.345 1.4154.3525 3.3459-.56.4637.6829 4.0756.377 4.2112-1.6008-1.4762.3287.0507.4813.5557.0484.1722.1403.4941.2042.7153.0737.2549.0534.3634-.0554.2961-.1002-.0619-.1388.0195-.0928.1954.0462.1767-.1706.6282-.5238 1.0908-.6134.8033-.739 1.2132-.4305 1.4039.0947.0585.1232.1854.0635.282-.07.1134-.1603.0942-.2542-.054-.1143-.1803-.1461-.1677-.1482.0587-.002.186-.2189.348-.6124.4567-.3354.0926-.6994.291-.809.4408-.1095.1498-.3113.2913-.4485.3145-.1371.0232-.542.1414-.8999.2628-.476.1615-.701.1703-.8382.033-.2464-.2463-.8467-.2396-1.0986.0123-.303.303-.8093-.0566-2.0351-1.4462-1.6725-1.896-2.811-4.6635-3.2503-7.9016-.107-.7894-.4118-2.7307-.6771-4.314-.2966-1.7694-.5274-3.9227-.599-5.588-.064-1.4901-.2112-3.2262-.327-3.8578-.1159-.6317-.156-1.1823-.0891-1.2237.0668-.0413.1114-.4837.099-.9832-.0223-.9004-.02-.9048.2793-.5243.345.4387.9953.67 2.3286.828.9526.113 2.385.7484 3.6512 1.6196.596.41 1.9368 2.0976 1.9368 2.4378 0 .1907.8505 1.4496.9758 1.4444.0687-.003.3916-.3636.7175-.8015 3.7972-5.1018 6.2416-7.3214 11.2109-10.1804 2.8674-1.6497 5.5539-2.7104 7.5005-2.9613.3725-.048 1.2488-.1852 1.9473-.3049 2.63-.4506 10.0956-.1836 13.0387.4663 1.1258.2486 3.7889 1.0898 4.986 1.5748.9885.4006 2.395 1.9096 3.0004 3.2194.572 1.237.6242 1.589.6588 4.4377.0215 1.7657-.0188 2.0568-.3985 2.8787-.6086 1.3175-1.3713 2.2894-2.049 2.611-.3244.154-.6994.4448-.8332.6463-.3446.5188-.8907 1.0705-2.1507 2.173l-1.6052 1.4043c-.2794.2444-.725.6125-.9904.818-.2653.2056-.6106.5037-.7674.6625-.4306.436-1.7696 1.3134-2.0098 1.3169-.1164.002-.2117.0646-.2117.1398s-.3238.3746-.7197.6653c-1.0777.7915-3.4051 2.545-3.5983 2.711-.3288.2826-3.1017 2.075-3.21 2.075-.0605 0-.3767.1812-.7027.4028l-.5928.4028.7855.3168c3.063 1.2357 3.5385 1.5073 3.7883 2.1636.205.5385.208.7723.0194 1.5118-.288 1.1297-.5895 1.5779-1.155 1.7169-.618.152-2.5733 1.1495-2.5733 1.313 0 .1675-.1345.1511-.7708-.0936zm-21.0732-4.0088c0-.093-.0336-.1693-.0747-.1693-.041 0-.1217.0762-.1793.1693-.0576.0931-.024.1694.0747.1694.0986 0 .1793-.0762.1793-.1694zm.9314-2.7093c-.3757-.3115-.4439-.0118-.0647.1693.093 0 .1222-.0762.0647-.1693zm-19.9814-39.1162c.1863-.2297.4174-.495.5136-.5897.245-.2411 1.4338-2.0368 1.4338-2.1657 0-.0584.2286-.4448.508-.8588.2794-.414.508-.8326.508-.9302 0-.0976.1519-.284.3375-.414.1857-.13.2925-.2816.2374-.3367-.055-.055.2502-.7232.6784-1.4847.4283-.7615.7787-1.4073.7787-1.435 0-.0673 2.1917-4.6784 4.9791-10.4752.8006-1.6647 1.4555-3.0492 1.4555-3.0766 0-.0274.5424-1.1799 1.2053-2.5612 2.1934-4.5704 4.2882-9.3435 4.417-10.0644.0778-.4364.0685-.4406-.8668-.393-1.8279.0929-3.5341-.6411-4.4168-1.9002-2.1391-3.0512-2.7763-4.4063-3.1116-6.6178-.1006-.6632-.0772-.724.3162-.8227.2336-.0586.4247-.2127.4247-.3423s.1143-.2356.254-.2356.254.0645.254.1434c0 .079.1543.3214.343.5389.2884.3325.5267.4017 1.4996.4352.6362.0219 1.6733.1694 2.3047.3277 1.3809.3463 1.5065.3175 4.9356-1.133l2.3943-1.0129.1884-.708c.1036-.3894.2606-1.127.349-1.6393a89.8702 89.8702 0 01.3277-1.778c.443-2.2413.3025-5.9153-.2498-6.5327-.1315-.147-.2391-.3883-.2391-.5362 0-.1479-.0603-.2943-.134-.3253-.0738-.031-.3495-.3422-.6128-.6915-.3776-.5008-.4209-.635-.2047-.635.1508 0 .2741-.1143.2741-.254 0-.1892.2-.254.7844-.254.4671 0 .9978-.1286 1.3123-.318.2904-.175 1.0422-.4175 1.6707-.539 1.008-.195 1.2976-.1855 2.4554.0802 3.2257.7405 4.0537 1.1857 4.9081 2.6394.6125 1.0422 1.5691 4.9369 1.5691 6.3885 0 .6675.1896.7248 1.4394.4346 3.8724-.8992 11.8602-1.8909 13.3498-1.6573.8891.1394 3.1623.9105 3.4988 1.1868.1397.1148.5588.3049.9314.4225.6553.2069 1.5627.651 2.794 1.3673.6053.3521 1.3523 1.131 1.3538 1.4116.0005.0858.1014.2763.2243.4234.1229.147.3613.7245.5299 1.2833.1685.5588.3709 1.1869.4496 1.3957.0796.211.0718 1.1135-.0175 2.032-.0884.9088-.1653 2.262-.171 3.007-.006.745-.127 1.85-.2695 2.4553-.1425.6054-.3306 1.5486-.418 2.096-.1803 1.1303-.9337 3.9776-1.2576 4.7533-.1186.2842-.3834.974-.5882 1.5327-.824 2.2477-2.7215 5.8012-3.6166 6.7733-.1715.1863-.5137.6816-.7605 1.1007-.5394.9164-.7795 1.2233-1.5547 1.987-1.0034.9888-1.2563 1.1891-1.6509 1.3078-.2399.0722-1.0077 1.0304-2.0743 2.5887-1.3333 1.948-1.6935 2.3777-1.6935 2.0206 0-.7055-.43-.5625-1.5647.5202-.5612.5356-1.2682 1.2101-1.5711 1.499-.303.289-.6384.689-.7455.889-.107.2-.3062.3637-.4426.3637-.1364 0-.248.1062-.248.2359 0 .1297-.115.28-.2555.334-.1405.0538-.3359.2715-.4342.4837s-.4423.5762-.7646.809c-1.8986 1.372-2.6243 1.9557-3.4802 2.8001-.9397.9271-.9678.9408-1.7485.847-.4363-.0523-.8796-.0418-.985.0233-.1055.0652-.384.139-.6191.164-.235.0251-.526.1803-.6464.345-.1767.2418-.2793.2619-.5317.1042-.2128-.1329-.368-.14-.4856-.0224-.1176.1176-.2834.1138-.5186-.012-.1902-.1018-.4939-.185-.675-.185-.2062 0-.4079-.19-.5397-.508-.1187-.2867-.3376-.508-.5023-.508-.4923 0-.909-.6062-.798-1.161.1276-.6379-.1551-1.6492-.5798-2.0739-.2603-.2603-.3097-.4641-.2238-.9222.062-.3305.0334-.6807-.0653-.7996-.0966-.1164-.2215-1.3919-.2775-2.8345-.0561-1.4426-.1362-2.8515-.1781-3.1309-.0419-.2794-.1543-1.3462-.2498-2.3707-.3435-3.6853-.552-4.4873-1.166-4.4873-.1933 0-1.3768 1.3941-1.3804 1.6261-.001.0836-.408.629-.9037 1.212-.4957.5831-1.009 1.2685-1.1407 1.5231-.1316.2546-.5894.8063-1.0174 1.2259-.428.4196-.973 1.1058-1.2115 1.525-.8374 1.4724-3.6674 4.2809-4.1561 4.1244-.1982-.0634-.2237-.0452-.0812.058.1563.1133.097.306-.2387.778-.2456.3451-.5012.6275-.5681.6275-.067 0-.3982.4014-.7361.892-.6835.9925-2.1748 2.2406-3.0225 2.5296-.3042.1037-.7347.3288-.9568.5001-.2222.1714-.4889.3104-.5927.309-.1039-.002-.4661.3197-.805.7137-.5159.5997-.6576.6819-.8712.5047-.2069-.1718-.2504-.1666-.2305.0273.032.312-1.7136 2.3129-2.0178 2.3129-.1287 0-.6743.2034-1.2125.452-.5382.2487-1.1475.4617-1.3542.4735-.2066.0118-.5495.174-.762.3603-.2124.1864-.5387.4483-.725.582l-.3386.243zm9.1428-6.9405c.0593-.096-.009-.1244-.1593-.0666-.2934.1125-.347.2339-.1035.2339.0876 0 .206-.0753.2628-.1674zm5.4187-4.572c.0593-.096-.009-.1244-.1594-.0666-.2933.1125-.347.2339-.1034.2339.0876 0 .2059-.0753.2628-.1674zm18.8156-5.8863c1.2707-1.9325 2.7706-4.2757 3.333-5.207.5623-.9313 1.4915-2.4172 2.0648-3.302 3.9052-6.0262 6.8063-12.7534 7.432-17.2336l.0775-.5543-.8749.1067c-1.4624.1784-5.5189 1.2215-7.2248 1.8578-.8848.33-2.2945.8338-3.1327 1.1197-.8382.2858-1.6962.6847-1.9068.8863-.2105.2016-.5637.8655-.7848 1.4752-.2212.6097-.6014 1.4829-.845 1.9404-.2435.4575-.4427.9286-.4427 1.047 0 .1185-.07.3477-.1554.5094-.0854.1617-.4254.8656-.7555 1.564-.33.6986-.7896 1.5749-1.0212 1.9474-.6003.9657-.8038 1.3356-1.677 3.048-.4273.8382-1.1315 1.905-1.5649 2.3707-.4334.4656-.8466.999-.9184 1.1853-.198.5142.4536 1.5034 1.2924 1.9615.702.3835.7267.3853 1.066.0783.191-.1728.3542-.474.3626-.669.0193-.4472.8473 3.2374.8411 3.7431-.002.205.0705.419.1622.4757.0917.0567.1665.3081.1662.5587-.001.762 1.069 3.608 1.5501 4.1235.247.2645.4932.4809.5473.4809.0541 0 1.1381-1.5812 2.4089-3.5137zm-1.45-48.2823c.6834-1.394 1.2318-3.4347 4.3965-16.3607 1.5289-6.2443 4-17.0464 4.2999-18.796.3859-2.2516.6428-5.1893.6248-7.1434-.0184-1.989-.0978-2.7362-.4604-4.33-.244-1.0733-.3064-1.1727-.9368-1.4944-.6643-.3388-1.4936-.9862-1.9674-1.5356-.5009-.581-1.3593-1.4252-1.7494-1.7206-.2227-.1686-.3097-.2594-.1933-.2017.1164.0577.2118.0433.2119-.032.0001-.0754.5906-.1324 1.3123-.1268.7217.006 1.4433-.053 1.6035-.1303.3951-.1905 4.4271.4403 5.6681.8867.5408.1945 1.3458.4695 1.789.611.562.1795.9462.4456 1.27.8793.2553.342.5214.6472.5912.6783.07.031.127.1617.127.2903s.1882.571.4183.983c.23.412.4917 1.0434.5816 1.403.0899.3596.2858 1.111.4355 1.6699.415 1.5487.5138 7.301.1727 10.0485-.4289 3.454-1.1476 6.2298-2.1101 8.1492-.2584.5153-.5283 1.1275-.5999 1.3603-.2777.9042-1.3443 3.0064-1.9685 3.8799-.3602.504-.6575.9994-.6607 1.1006-.003.1013-.153.489-.3329.8615-.18.3725-.3297.7398-.3329.8161-.003.0764-.2176.4574-.4766.8467-.259.3893-.5562.8984-.6604 1.1312-.1043.2328-.3607.8043-.5696 1.27-.209.4657-.557 1.2433-.7735 1.7282-.2164.4848-.5846 1.0068-.8182 1.1599-.2534.166-.7821 1.006-1.3102 2.0818-.487.9919-.9313 1.8415-.9873 1.888-.056.0467-.2016.3314-.3235.633-.122.3014-.2924.5044-.3789.451-.2902-.1794-.627.2876-1.0898 1.5108-.9878 2.6114-1.6926 3.9105-2.2516 4.1505-.2894.1242-.5261.332-.5261.4617 0 .1298-.2096.3666-.4657.5262-.2561.1597-.6757.4956-.9324.7465-.2567.2508-.6076.493-.7797.538-.278.0726-.2609-.0244.1535-.8696zm-2.6324-21.8038c-.7307-.1065-1.5378-.5382-2.7378-1.4645-1.2604-.973-1.8467-1.9442-2.102-3.4822-.1028-.6187-.2827-1.4678-.4-1.8869-.2638-.9433-.2306-2.2023.1272-4.826.4187-3.07.4462-3.3634.5649-6.0171.0727-1.6265.0395-2.9435-.098-3.8835-.2054-1.4049-.203-1.4261.187-1.7261.217-.167.3282-.3054.247-.3075-.0813-.002-.0594-.1102.0486-.2403.1932-.2328.7672-.1912 1.12.0812.0957.0739.5605.1703 1.0329.2142 1.2121.1126 3.6606 1.0038 4.6016 1.675 1.6395 1.1692 2.4853 3.9164 2.464 8.0028-.007 1.3039-.058 2.904-.1135 3.556-.3416 4.0068-.3415 4.0635.005 5.1832.254.8212.3105 1.343.234 2.1637-.0942 1.0106-.1377 1.1013-.6645 1.3829-.3101.1658-.6971.422-.86.5695-.163.1474-.3752.268-.4717.268-.0965 0-.3638.1482-.594.3292-.4328.3404-1.6935.5392-2.5905.4084z" id="path2339-6" fill="#000" stroke-width=".1693"/>
    <path d="M29.2479 276.0388c-.5618-.0693-2.0691-.3676-2.974-.5888-1.2924-.316-3.1949-1.871-3.7406-3.0581-.1558-.3387-.4233-.8198-.5945-1.0689-.1712-.2492-.7019-1.2155-1.1792-2.1478l-.868-1.695.0208-1.9826c.0113-1.0905.0597-2.1685.1077-2.3957.3096-1.4669 1.251-3.4934 2.0645-4.4437.5926-.6923 2.752-2.22 3.1379-2.22.124 0 .2255-.0994.2255-.2204 0-.121.1396-.2203.3102-.2203.1706 0 .4122-.1235.537-.2745.5451-.6604 1.474-.872 3.7912-.8637 2.167.0103 2.2505.0207 3.6225.6016.7724.3268 1.4415.6416 1.487.7002.0455.0584.5155.4307 1.0445.8265.8845.662 1.9294 1.901 1.9294 2.2877 0 .1975.8145 1.8324 1.0835 2.1746.3412.4338.7075 3.8.4136 3.8-.0964 0-.1753.0719-.1753.1598 0 .0879.1115.1173.2478.065.2983-.1142.305.0818.0778 2.2534-.204 1.9485-.3643 2.4426-1.232 3.7964-.3799.5926-.6845 1.1273-.677 1.1881.0243.197-.7805.9633-1.012.9633-.1237 0-.7984.3242-1.4995.7204-1.442.8149-1.8896.9751-3.753 1.3434-1.6973.3356-1.898.3604-2.3957.2994zm.6609-1.126c0-.1376-.0717-.379-.1592-.537-.0875-.1577-.3074-.6103-.4887-1.0056l-.3295-.7188.5197-.438c1.3144-1.1073 1.206-1.0736 1.6712-.5206.6007.7139.9343.655.9343-.165 0-.4772.0688-.6609.2478-.6609.1363 0 .2479.0765.2479.1707 0 .363.7183.4452 1.2338.1412.7417-.4375 1.6315-1.4082 1.4945-1.63-.0862-.1396-.1904-.1287-.3903.0414-.4262.36-1.508.948-1.7436.948-.117 0-.337-.1371-.4887-.3052-.259-.286-.2534-.3345.0926-.7847.2027-.2637.4294-.523.5038-.5757.1518-.1076-.0109-.6477-.1953-.6477-.0653 0-.2934.1857-.5068.4132-.4842.5155-.6207.517-.8517.0103-.151-.3315-.121-.5093.1687-1.0007.3963-.6717.4395-.909.1652-.909-.2608 0-.932.8122-1.1224 1.3582-.1189.3413-.099.514.08.6928.2925.2926.316 1.0901.032 1.0826-.3208-.0103-.8732-.5327-1.1313-1.0736-.1611-.3377-.3754-.5068-.6872-.5428-.2493-.031-.4532-.0207-.4532.0207s.3346.5706.7435 1.1804c.409.6098.7435 1.1684.7435 1.2414 0 .073-.2788.3418-.6196.598-.3407.2559-.6683.5365-.728.6237-.0596.0874-.3324-.2802-.6062-.8173-.739-1.4489-.907-1.6419-1.1619-1.3347-.1698.2048-.12.422.2774 1.2127.2664.53.6544 1.3723.8624 1.8721.3813.9166 1.2924 2.2985 1.5216 2.308.0681.003.1239-.1076.1239-.2452zm4.9148-2.6158c.706-.4468 2.0243-1.7205 2.0243-1.956 0-.0863.1766-.3935.3923-.6827.6849-.9182 1.0028-2.179 1.0077-3.9955.004-1.5419-.2933-3.2218-.5703-3.2218-.0653 0-.2316-.2875-.3696-.6387l-.2509-.6387-.8266.0796c-.9063.0874-1.1623-.089-.8518-.5864.2576-.4126.07-1.364-.3826-1.9392-.5431-.6905-2.664-2.0017-3.5527-2.1963-1.4386-.3149-2.0033-.3707-2.1046-.2068-.1277.2068.3219.4473 1.1118.5957.7806.1463.8997.3392.489.793-.896.9898-1.87 3.0856-1.4338 3.0856.1277 0 .5467-.4525 1.1833-1.2785l.4124-.535.4404.4524c.6689.6872 1.4856 1.3612 1.6495 1.3612.0805 0 .2382.1106.3503.2456.1656.1996.122.4023-.2312 1.0777-.3829.7324-.403.8444-.167.935.1475.0563.3275.005.4-.1107.0725-.1174.2486-.1686.3912-.1138.1718.0657.3511-.0558.5307-.3599.2554-.4323.326-.455 1.203-.3883 1.0878.0833 1.377.3454 1.7573 1.5938.6542 2.1473-.0444 5.1168-1.6461 6.9961-.6205.728-1.8465 1.6087-3.2718 2.3501-.7125.3708-1.1118.6797-1.112.8606 0 .2306.256.1484 1.4038-.452.7722-.4038 1.683-.9108 2.024-1.1265zm-1.28-12.018a91.9185 91.9185 0 01-.9914-.8176c-.318-.2663-.7197-.5857-.8927-.7099-.3021-.2167-.294-.2472.2071-.7715.4903-.513.5397-.5294.8231-.273.166.15.383.273.4824.273.3388 0 1.209.864 1.4492 1.439.4343 1.0396-.2144 1.5572-1.0778.86zm-6.6998 13.5757c.0517-.0832-.4848-.7339-1.1918-1.4456s-1.4884-1.5417-1.7366-1.8443l-.4512-.5503.7513-.9563c.4132-.526.8253-1.2241.9157-1.5515.1543-.559.2144-.6018.9918-.7049.6398-.0848.8156-.17.7751-.3764-.0596-.304-.901-.331-3.2264-.1034-1.17.1148-1.363.0977-1.363-.1184 0-.3418.3036-.5615.974-.705.3458-.074.837-.4039 1.2803-.8601l.7192-.74 1.1722.1975c1.2157.2047 1.6097.0998 1.4252-.3811-.0793-.2064-1.6674-.4902-4.8274-.862-.1818-.0208-.3455-.0466-.3638-.06-.0181-.0104.0678-.2617.1915-.5559l.2248-.5346 1.4607-.002c1.343-.002 1.4735-.031 1.6194-.364.0873-.1991.3065-.4003.4872-.4473.3408-.0889 1.4193.4731 1.4193.74 0 .0833.1858.1515.413.1515.7296 0 .4534-.4437-.7847-1.2609-.6588-.4348-1.2959-.925-1.4157-1.0893-.1198-.1645-.272-.2653-.3383-.2245-.0663.0414-.2275.0103-.3583-.0724-.1987-.123-.1824-.1985.0998-.4612.1857-.1732.6198-.4075.9648-.5215.7087-.2337 1.0346-.0553 1.1686.6407.1434.7443.3785.8523 1.0253.4705.4719-.2787.5434-.3826.361-.5252-.125-.0977-.376-.4643-.5575-.8148-.3973-.766-.8814-.9837-1.9906-.8951-.6364.0517-1.0563.2208-1.7699.7166-.5145.3574-.9383.711-.9417.7857-.0034.0745-.3036.4881-.6672.9193-.3634.4312-.6608.8362-.6608.9003 0 .064-.1859.411-.413.7709-.2272.3599-.4131.8268-.4131 1.0375 0 .211-.0768.4602-.1707.554-.094.0942-.1777.5192-.1863.945-.0088.4261-.0884.8193-.1774.8743-.0964.0595-.0711.1588.0623.2446.1859.12.1819.1722-.0237.3071-.1658.1086-.1794.1634-.0414.165.2473.003.2748.529.0398.764-.2091.2088.3882 2.6446.7455 3.0393.136.1505.2472.3454.2472.4338 0 .2488 1.3845 2.0921 1.9778 2.6335.292.2663.7521.6882 1.0225.9372.9553.88 1.3562 1.089 1.5347.8zm-4.0862-5.3419c-.5295-1.4473-.533-1.4187.1647-1.3828.8545.0414 1.025.1852.9489.7865-.069.5457-.4852 1.2985-.7178 1.2985-.0764 0-.2545-.316-.3958-.7022zm-.4075-4.2167c.0444-.592.0721-.6176.7047-.659.362-.026.7698.031.9061.1189.2108.1375.1862.2213-.1652.5597-.2272.2188-.6558.4427-.9526.497-.5362.0988-.5392.0957-.493-.5166zm1.9-3.2952c-.5859-.0889-.5726-.2078.1078-.9726l.5622-.6318.5115.5.5114.5-.3366.3615c-.332.3563-.4588.379-1.3564.243zm14.3326 7.8836c.0562-.091.028-.1649-.063-.1649s-.2112.0745-.2674.165c-.0562.091-.028.165.063.165s.2113-.0746.2674-.165zm-3.2217-1.0829c0-.5533.0253-.575.9913-.8434 1.2159-.3382 1.3411-.7172.237-.7172-1.017 0-1.3935-.2249-1.3935-.8319 0-.501.0037-.5031 1.0413-.5637.269-.0155.6019-.347.6083-.6055.0046-.1866-2.3828-.3076-3.3525-.17-.9435.1338-.9634.1281-1.2021-.3331-.269-.5204-.434-.578-.7083-.2472-.2662.3206.255 1.7497.9722 2.6653.4233.5404.729.7621 1.1541.8369.907.1597.9913.2084.9913.5773 0 .4664.3095 1.018.504.8978.0863-.0533.157-.3526.157-.6647zm-1.7631-1.8662c-.3006-.09-1.1818-.9842-1.0163-1.0312.7787-.2213 1.1731-.136 1.6292.3527.674.7214.4303.9913-.613.6788z" id="path75-3" fill="#fe0000" fill-opacity="1" stroke-width=".1652"/>
  </g>
</svg>
