<svg xmlns="http://www.w3.org/2000/svg" viewBox="0 0 210 297" version="1.1" id="svg3533">
  <g id="layer1">
    <path d="M35.3163 271.9843c-.5618-.0693-2.0692-.3677-2.974-.5888-1.2925-.316-3.1949-1.871-3.7407-3.0581-.1557-.3387-.4233-.8198-.5944-1.0689-.1713-.2492-.7019-1.2155-1.1792-2.1478l-.868-1.695.0208-1.9826c.0114-1.0905.0598-2.1686.1077-2.3957.3096-1.4669 1.2511-3.4934 2.0645-4.4437.5927-.6923 2.752-2.22 3.1379-2.22.124 0 .2255-.0994.2255-.2204 0-.121.1396-.2203.3102-.2203.1706 0 .4122-.1235.537-.2745.5452-.6604 1.474-.872 3.7912-.8637 2.167.0103 2.2505.0207 3.6225.6015.7724.3268 1.4415.6417 1.487.7002.0455.0584.5155.4308 1.0445.8266.8845.662 1.9294 1.901 1.9294 2.2877 0 .1975.8145 1.8324 1.0835 2.1746.3412.4338.7076 3.8.4136 3.8-.0964 0-.1753.0719-.1753.1597 0 .088.1115.1174.2478.0651.2983-.1142.305.0817.0778 2.2534-.204 1.9485-.3643 2.4426-1.232 3.7964-.38.5926-.6845 1.1272-.677 1.1881.0243.197-.7805.9633-1.012.9633-.1237 0-.7984.3242-1.4995.7204-1.442.8149-1.8896.9751-3.753 1.3434-1.6973.3356-1.898.3604-2.3957.2994zm.6608-1.126c0-.1376-.0716-.379-.1591-.537-.0875-.1577-.3074-.6103-.4887-1.0056l-.3295-.7187.5196-.438c1.3144-1.1074 1.206-1.0737 1.6713-.5207.6007.7139.9343.655.9343-.165 0-.4772.0688-.6608.2478-.6608.1363 0 .2479.0765.2479.1706 0 .363.7183.4452 1.2338.1412.7417-.4375 1.6315-1.4082 1.4944-1.63-.0862-.1396-.1903-.1287-.3903.0414-.4261.36-1.508.948-1.7435.948-.117 0-.337-.1371-.4888-.3052-.259-.286-.2533-.3345.0926-.7847.2027-.2637.4294-.523.5039-.5757.1518-.1075-.011-.6477-.1954-.6477-.0653 0-.2933.1857-.5068.4132-.4841.5155-.6206.517-.8517.0103-.151-.3315-.121-.5093.1688-1.0007.3963-.6717.4394-.909.1652-.909-.2608 0-.932.8122-1.1224 1.3582-.1189.3413-.099.514.08.6928.2925.2927.316 1.0901.032 1.0826-.3208-.0103-.8732-.5327-1.1313-1.0736-.1611-.3377-.3754-.5068-.6872-.5428-.2493-.031-.4531-.0207-.4531.0207s.3345.5706.7434 1.1804c.409.6098.7435 1.1684.7435 1.2414 0 .0729-.2788.3418-.6195.598-.3408.2559-.6684.5365-.728.6237-.0596.0874-.3325-.2802-.6062-.8173-.739-1.4489-.907-1.6419-1.162-1.3347-.1698.2048-.12.422.2774 1.2127.2664.5299.6545 1.3723.8624 1.8721.3813.9166 1.2924 2.2985 1.5216 2.308.0682.003.1239-.1076.1239-.2452zm4.9149-2.6158c.706-.4468 2.0243-1.7204 2.0243-1.956 0-.0863.1765-.3934.3923-.6827.6848-.9182 1.0028-2.179 1.0076-3.9955.004-1.542-.2932-3.2218-.5702-3.2218-.0653 0-.2316-.2875-.3696-.6387l-.2509-.6387-.8266.0796c-.9063.0874-1.1623-.089-.8518-.5864.2576-.4126.07-1.364-.3826-1.9392-.5431-.6905-2.664-2.0017-3.5527-2.1963-1.4386-.3149-2.0033-.3707-2.1047-.2068-.1276.2068.322.4473 1.1119.5957.7806.1463.8996.3392.489.793-.896.9898-1.87 3.0856-1.4338 3.0856.1277 0 .5467-.4525 1.1833-1.2785l.4124-.535.4404.4524c.6689.6872 1.4856 1.3612 1.6495 1.3612.0805 0 .2382.1106.3503.2456.1656.1996.122.4023-.2312 1.0777-.383.7323-.403.8444-.167.935.1475.0563.3275.005.4-.1107.0725-.1174.2486-.1686.3912-.1138.1718.0657.351-.0558.5307-.3599.2554-.4323.3259-.455 1.203-.3883 1.0878.0833 1.377.3454 1.7573 1.5938.6542 2.1473-.0445 5.1168-1.6461 6.9961-.6205.728-1.8465 1.6087-3.2719 2.3501-.7124.3708-1.1117.6797-1.1118.8606-.0002.2306.256.1484 1.4037-.452.7722-.4038 1.683-.9108 2.024-1.1265zm-1.28-12.018a91.8711 91.8711 0 01-.9914-.8176c-.318-.2663-.7197-.5857-.8927-.7099-.3021-.2167-.294-.2472.2071-.7715.4903-.513.5396-.5294.8231-.273.166.15.383.273.4824.273.3388 0 1.209.864 1.4492 1.439.4343 1.0396-.2144 1.5572-1.0778.86zm-6.6998 13.5757c.0517-.0832-.4848-.7339-1.1918-1.4456s-1.4885-1.5418-1.7366-1.8444l-.4512-.5502.7513-.9563c.4132-.526.8253-1.2241.9156-1.5514.1544-.5591.2145-.6019.9918-.705.64-.0848.8157-.1701.7752-.3764-.0596-.304-.901-.331-3.2264-.1034-1.17.1148-1.363.0977-1.363-.1184 0-.3418.3036-.5615.974-.705.3458-.074.837-.4039 1.2803-.8601l.7192-.74 1.1722.1975c1.2157.2047 1.6097.0998 1.4252-.3811-.0792-.2064-1.6674-.4902-4.8274-.862-.1818-.0208-.3455-.0466-.3638-.06-.0181-.0104.0678-.2617.1915-.5559l.2247-.5346 1.4608-.002c1.343-.002 1.4734-.031 1.6194-.364.0873-.1991.3065-.4003.4872-.4473.3407-.089 1.4193.4731 1.4193.74 0 .0833.1858.1515.413.1515.7296 0 .4534-.4437-.7847-1.2609-.6588-.4348-1.2959-.925-1.4157-1.0893-.1198-.1645-.272-.2653-.3383-.2245-.0663.0414-.2275.0103-.3583-.0724-.1988-.123-.1824-.1985.0998-.4612.1857-.1732.6198-.4075.9648-.5215.7087-.2337 1.0346-.0553 1.1686.6407.1433.7443.3785.8523 1.0253.4705.4719-.2787.5434-.3826.361-.5252-.1251-.0977-.376-.4643-.5576-.8148-.3972-.766-.8813-.9837-1.9905-.8951-.6364.0517-1.0563.2208-1.7699.7166-.5145.3574-.9383.711-.9417.7857-.003.0745-.3037.4881-.6672.9193-.3634.4312-.6608.8362-.6608.9003 0 .064-.1859.411-.4131.7709-.2272.3599-.413.8268-.413 1.0375 0 .211-.0769.4602-.1708.554-.0939.0941-.1776.5192-.1862.945-.009.4261-.0884.8193-.1774.8743-.0964.0595-.071.1588.0623.2446.1859.12.1818.1722-.0238.3071-.1657.1086-.1794.1634-.0414.165.2474.003.2749.529.0398.7639-.209.209.3883 2.6446.7455 3.0394.136.1505.2472.3454.2472.4338 0 .2488 1.3846 2.0921 1.9778 2.6335.292.2663.7522.6882 1.0225.9372.9553.88 1.3562 1.089 1.5348.8zm-4.0862-5.3419c-.5295-1.4473-.533-1.4186.1647-1.3828.8545.0414 1.025.1852.9489.7865-.069.5457-.4852 1.2985-.7178 1.2985-.0764 0-.2545-.316-.3958-.7022zm-.4075-4.2167c.0445-.592.072-.6176.7047-.659.362-.026.7698.031.906.1189.2109.1375.1863.2213-.1651.5597-.2272.2188-.6558.4427-.9526.497-.5362.0988-.5392.0957-.493-.5166zm1.9-3.2952c-.5859-.0889-.5727-.2079.1078-.9726l.5622-.6318.5115.5.5114.5-.3366.3615c-.332.3563-.4588.379-1.3564.243zM44.651 264.83c.0562-.091.028-.1649-.063-.1649s-.2113.0745-.2674.165c-.0562.091-.028.165.063.165.0909 0 .2113-.0746.2674-.165zm-3.2217-1.0829c0-.5533.0253-.575.9913-.8434 1.2158-.3382 1.3411-.7172.237-.7172-1.017 0-1.3935-.2249-1.3935-.8319 0-.501.004-.5031 1.0413-.5637.2689-.0155.6018-.347.6083-.6055.005-.1867-2.3829-.3077-3.3525-.1701-.9435.134-.9635.1282-1.2021-.333-.2691-.5204-.434-.578-.7084-.2472-.2661.3206.2552 1.7497.9723 2.6653.4233.5404.729.762 1.154.8369.9072.1597.9914.2084.9914.5772 0 .4665.3095 1.0181.504.898.0863-.0534.1569-.3527.1569-.6649zm-1.7631-1.8662c-.3006-.09-1.1818-.9842-1.0163-1.0312.7787-.2213 1.1731-.136 1.6292.3527.674.7214.4303.9913-.613.6788z" id="path75-3" fill="#fe0000" fill-opacity="1" stroke-width=".1652"/>
    <path d="M157.9963 271.7912c-.0381-.0616-.1894-.112-.3363-.112-.1468 0-.2957-.0467-.3309-.1036-.0352-.0569-.227-.1392-.4262-.183-.1993-.0438-.5644-.2373-.8113-.4302-.9294-.7258-1.4093-1.0659-2.2423-1.589-.185-.116-.664-.3462-1.0648-.5112-.4536-.187-.9592-.5157-1.3399-.8711-.3363-.314-.6941-.571-.7952-.571-.101 0-.275-.101-.3867-.2242-.1115-.1233-.273-.2241-.359-.2241-.1997 0-.648-.497-.935-1.0368-.123-.2312-.2675-.4203-.3212-.4203-.0537 0-.1784-.2017-.277-.4482-.0986-.2466-.3114-.5618-.4728-.7005-.1615-.1388-.3258-.334-.3652-.4337-.0735-.1859-.753-1.003-1.5008-1.8047-.2312-.2479-.4203-.4917-.4203-.5419 0-.0502-.2905-.4602-.6455-.9111-.6825-.867-.8587-1.1084-1.3338-1.8287-.1627-.2465-.3272-.4735-.3657-.5043-.0384-.0308-.3934-.5352-.7888-1.1208-.3954-.5856-.8733-1.278-1.0621-1.5386-.1889-.2606-.5199-.752-.7356-1.092-.2158-.3399-.4301-.6184-.4764-.6189-.0462 0-.084-.0495-.084-.109 0-.0594-.153-.3242-.34-.5884-.187-.2641-.4228-.6064-.5241-.7605-.7357-1.1187-1.2349-1.918-1.4545-2.3288-.141-.2637-.3081-.5411-.3715-.6164-.2398-.2853-1.2052-1.8627-1.7834-2.914-.1959-.3562-.5019-.8858-.68-1.1769-1.3679-2.236-3.441-6.4185-3.9678-8.0048-.0962-.2897-.2711-.7436-.3888-1.0088-.1178-.2651-.3747-.9108-.571-1.4348a342.8815 342.8815 0 00-.5067-1.345c-.0823-.2157-.2817-.8461-.4431-1.401-.1614-.5547-.3885-1.3113-.5047-1.6811-.1161-.3699-.2868-1.0003-.3792-1.401-.5005-2.1691-.6543-2.881-.9202-4.259-.1606-.8323-.3622-1.841-.4479-2.2417-.0857-.4007-.1885-1.1748-.2283-1.7202-.04-.5454-.1169-1.1464-.171-1.3354-.0543-.189-.1266-.9533-.1607-1.6982-.0341-.745-.1149-1.985-.1795-2.7555-.152-1.8156-.1448-12.0992.009-13.4054.0648-.5483.1969-1.9552.2935-3.1265.3009-3.6462.402-4.4888.8867-7.3914.1538-.9214.2797-1.741.2797-1.8213 0-.2427-.2652-.1652-.6562.192-.2034.1857-.5299.4196-.7255.5196-.1955.1-.5393.3263-.764.5028-.2246.1765-.4338.3209-.4648.3209-.031 0-.5075.2774-1.0587.6164-.5512.339-1.0864.6164-1.1893.6164-.103 0-.3455.1513-.539.3363-.1935.185-.4001.3362-.4592.3362-.059 0-.291.1456-.5157.3235-.2246.1779-.9645.631-1.6442 1.007-.6797.376-1.416.8537-1.6364 1.0615-.2203.2078-.6827.5113-1.0274.6744-.3447.163-.6539.3404-.687.3941-.0333.0537-.3514.237-.707.4074-.3557.1704-.8989.473-1.207.6725-.3083.1995-.7874.4717-1.0648.605-.2774.1332-.6557.339-.8406.457-.185.1182-.9163.5018-1.6252.8524-.7089.3507-1.3057.681-1.3263.734-.0206.053-.0834.0964-.1396.0964s-.4783.1737-.938.386c-.4595.2123-1.0524.4604-1.3173.5514-.265.091-.8447.3208-1.2882.5107-.4436.1898-.9227.3455-1.0648.3459-.142 0-.3945.0717-.561.1586-.1665.0869-.6456.1936-1.0648.2373-.4191.0437-.863.1329-.9862.1982-.1233.0654-.7537.206-1.401.3126-.6473.1065-1.4542.2756-1.7933.3757-.339.1001-1.038.2088-1.5533.2414-.5153.0327-1.054.104-1.1974.1585-.1433.0545-1.4113.2291-2.8178.3881s-2.7338.338-2.9496.398c-.2157.06-.6696.1325-1.0087.1613-.339.0288-.8686.1044-1.1768.168-.9375.1933-1.6387.2635-2.5779.2582-1.3069-.007-3.4489-.3167-3.9524-.5707-.107-.054-.5728-.1854-1.0351-.292-.9913-.2287-1.5842-.412-1.7317-.5356-.0585-.049-.2477-.0892-.4203-.0892s-.3138-.0504-.3138-.112c0-.0617-.0632-.1121-.1405-.1121-.1716 0-1.0086-.6392-1.8608-1.4209-.6091-.5587-.8415-.9038-1.14-1.693-.0765-.2022-.2884-.5553-.4708-.7845-.2967-.3729-.3242-.4729-.261-.9506.0483-.3662.0125-.7008-.114-1.0648-.1744-.5013-.173-.5614.0239-1.0805.163-.4297.3036-.5989.6443-.7755.2397-.1243.4599-.3183.4894-.4311.0295-.1128.1108-.2053.1807-.2055.1668 0 1.125.4805 1.173.5888.0206.0462.0915.084.1576.084.0661 0 .2855.1262.4876.2803.202.154.4194.2802.483.2802.0636 0 .3317.0707.5959.1572 1.697.5555 3.5174 1.0048 3.734.9217.0826-.0317.1676-.005.189.0585.0603.1811 2.275.2476 3.338.1002.524-.0727 1.558-.2276 2.2977-.3444.7397-.1168 1.5215-.2328 1.7373-.2577.4884-.0564 2.6855-.5076 2.792-.5734.0431-.0267 1.1852-.2846 2.538-.5732 3.1616-.6746 3.144-.6705 3.8045-.8888.3082-.1018.876-.2318 1.262-.289.3857-.057.7892-.1516.8965-.21.1074-.0584.5482-.1582.9797-.2216.728-.1071 1.0483-.1762 2.2416-.4834.6601-.17 1.371-.4987 2.1295-.985.37-.2372.8238-.468 1.0088-.5131.1849-.0451.4724-.1821.6388-.3046.1664-.1224.473-.233.681-.2456.2082-.0126.6134-.1607.9006-.329s.586-.318.664-.3325c.2453-.046 1.0278-.407 1.0905-.5031.033-.0506.3704-.263.7498-.472.737-.406 2.7118-1.6457 3.7551-2.3572.3489-.238.6687-.4326.7107-.4326.042 0 .273-.1682.5134-.374.2403-.2056.625-.4704.8547-.5884.2298-.118.529-.3153.665-.4386.136-.1233.531-.4259.8776-.6724.3468-.2466.7906-.587.9864-.7566.1957-.1695.3997-.3082.4533-.3082.3916 0 6.2112-5.4685 6.8059-6.3953.3665-.5712.6386-1.3942.7667-2.3197.0652-.4707.1663-.6759.503-1.0206.2864-.2934.4243-.5386.4308-.7661.0122-.4297.1738-.6426.5928-.781.185-.0611.3958-.2296.4686-.3744.1572-.3127.5493-.5501.9175-.5557.2237-.003.2566-.049.2102-.292-.0385-.2015.008-.3274.155-.4192.1156-.0722.211-.2073.2122-.3004.001-.093.1994-.333.4407-.5334.3377-.2804.5446-.3643.8982-.3643.2942 0 .4814-.0574.5207-.1597.0337-.088.2708-.1952.5269-.2385.256-.0433.5254-.1604.5985-.2604.1197-.1636.471-.2154 1.6643-.2455.224-.006.9047.1104 1.2341.2103.1857.0563.5077.0774.7157.047.2613-.0384.4067-.005.4704.1091.0578.1034.2894.1722.6216.1848.2912.011.552.0427.5798.0704.0277.0277.148-.002.267-.0655.1724-.0923.2957-.0557.6032.1789.2126.162.4854.279.6063.26.1209-.0193.3346.0798.4749.22.2918.2916 1.0596.8099 1.1996.8099.2075 0 1.0064.9299 1.0777 1.2544.0419.1908.2006.4539.3527.5847.1768.152.2975.399.3346.6845.032.2456.105.6735.1625.9509.1458.7044.1442 1.792-.003 1.9392-.0677.0677-.123.1936-.123.2798s-.0698.3157-.155.51a20.4684 20.4684 0 00-.3052.7454c-.0826.2158-.265.499-.4054.6293-.1404.1304-.2553.2991-.2553.375 0 .076-.068.2719-.151.4355-.3.5906-.504 1.0879-.5703 1.3903-.037.1695-.117.3082-.1775.3082-.0605 0-.1099.0742-.1099.165 0 .0906-.1266.451-.2813.801-.1548.3498-.2754.6917-.268.7597.0223.2085-.1435.628-.2483.628-.0545 0-.099.1495-.099.3323 0 .2176-.0774.3737-.2242.4522-.1233.066-.2241.2003-.2241.2984 0 .1614-.416 1.1277-.8607 1.9993-.0944.1849-.2982.6893-.453 1.1208s-.319.835-.365.8966c-.0788.1055-.2166.5545-.298.9704-.0715.3662-.5057 1.4363-.6084 1.4999-.0577.0356-.1049.1778-.1049.3159 0 .1382-.0417.299-.0926.3577-.2175.25-.5953 2.1022-.7483 3.6684-.0408.418-.1748 1.1493-.2978 1.6251-.399 1.5448-.8264 4.389-.9385 6.245-.041.6782-.15 1.6617-.2422 2.1857-.0922.524-.1614 1.003-.1538 1.0647.008.0617.0323.3731.0549.6922.0226.319.073.6319.1122.6951.0391.0633.0208.4275-.0407.8094s-.0908.7284-.065.77c.1485.2403-.0807 4.8513-.253 5.0886-.0505.0696-.078 1.0092-.061 2.088.017 1.0787.0297 2.2116.0282 2.5174-.002.4315.0488.5948.2272.7294.2047.1544.215.2125.0948.5311-.1152.3053-.1067.3891.0582.5714.12.1326.1638.2903.1155.4162-.05.1302-.0352.1764.0414.1291.1592-.0984.2788.4078.1849.7821-.0525.209-.0365.2734.0539.2176.0706-.0437.1326-.0386.1377.0113.0391.3798.0933.5875.6086 2.3322.7244 2.453.9916 3.3974 1.1736 4.147.0748.3082.2039.7117.2869.8966.083.185.278.7398.4333 1.233.439 1.3938.5723 1.7228 1.1222 2.7706.2822.5375.5138 1.0418.5147 1.1208.001.0789.204.5468.4515 1.0397.2473.493.4796 1.0833.5162 1.3118.0365.2285.1612.5013.277.6061.116.1049.2107.2411.2107.3028 0 .0617.1339.2877.2976.5023.3442.4514.822 1.3599.8227 1.5644 0 .0771.1014.241.2247.3643.1233.1233.2304.325.2381.4483.008.1233.0203.2637.028.312.008.0482.2032.2769.4343.508.2312.2312.4203.4912.4203.5778 0 .0866.1472.3186.327.5155.18.197.3006.427.2683.5113-.0384.1.024.1532.1801.1532.2377 0 .52.454.4706.7566-.0126.077.0538.14.1475.14.0937 0 .2595.1388.3683.3083.1088.1695.2865.406.3949.5255.2312.2549.2479.4156.0625.6009-.1046.1046-.0808.1345.107.1345.1863 0 .258.0878.3136.3845.0527.2808.1176.3671.2406.32.2172-.0834.3777.1781.2998.4885-.0466.1857-.0128.2383.1447.2251.1345-.0112.218.07.2414.235.0197.1388.0862.2523.1477.2523s.0798.1008.0407.2241c-.0467.1471-.0201.2242.0773.2242.1958 0 .8754.7453.8754.96 0 .0922.0757.1968.1681.2323.0925.0355.1681.1525.1681.26 0 .4212.2462.9014.4621.9014.1234 0 .2588.1126.3159.2628.055.1445.1673.3336.2496.4203.0823.0866.2967.3844.4764.6618.1798.2774.4997.6782.711.8905.2114.2124.5772.6664.813 1.0088.2357.3424.5776.7595.7598.927.31.285.342.2922.4991.112.2165-.248.4578-.9982.3834-1.192-.0316-.0824-.005-.2025.0596-.267.0644-.0643.137-.3605.1613-.658.0243-.2976.062-.768.0839-1.0454.0219-.2774.0672-.58.1007-.6725.0335-.0925.089-.5128.1232-.934.0387-.4765.1463-.9023.285-1.1266.1225-.1983.1975-.4589.1666-.579-.036-.1399.0236-.2676.1657-.355.1989-.1225.216-.111.1656.112-.0309.1368-.08.6017-.109 1.0333-.0485.7205-.0388.7668.1193.567.1126-.1422.1722-.4559.1722-.9052 0-.5829.0414-.7264.272-.943.1495-.1405.3245-.2229.389-.183.0667.0412.1443-.0622.1805-.2405.122-.6012.2244-.8552.3634-.9014.0945-.0314.1401.083.1401.3516 0 .2952.0406.3825.157.3379.0914-.0351.1568-.2175.1568-.4374 0-.2074.0386-.4396.0857-.5158.135-.2183.293.3253.1644.5655-.059.1105-.0987.5607-.088 1.0004.0163.676.0494.7995.2134.7995.1067 0 .2252-.0504.2633-.112.0381-.0618.1798-.1063.3149-.0992.1896.0101.2009.0247.0494.0643-.1713.0447-.1885.1534-.1356.8556.0963 1.278.148 1.5793.3357 1.9555.1377.2761.157.5073.0885 1.0582-.0483.3876-.0888.7552-.0901.8169-.003.1239.7315.0856.8686-.0454.0475-.0454.1546-.4756.2382-.956.0836-.4805.2212-.9221.306-.9814.1083-.076.1158-.1236.025-.161-.1672-.0689-.0243-.626.1779-.6933.1127-.0376.1317.0423.0784.329-.2693 1.4475-.3041 2.0325-.1322 2.2224.0951.1052.173.2953.173.4225 0 .3195.2672.3924.5324.1453.216-.2012.2232-.198.3312.154.0607.198.0882.9049.061 1.571-.037.9101-.007 1.3263.1224 1.6754.2641.7143.4983 1.8368.5704 2.734.0495.616.1262.8842.3167 1.108.374.4395 1.4274 1.4835 2.092 2.0734.5163.4583.581.564.5492.8967-.0343.3584-.0603.3788-.5236.412l-.4874.035.0421.4414c.0349.366.008.4413-.1598.4413-.1682 0-.4287.3854-.4671.6912-.005.0411-.0472.1125-.0934.1588-.0462.0462-.0841.1765-.0841.2895 0 .113-.071.2055-.1577.2055-.1062 0-.137.0788-.0944.2417.0472.1803.0258.2185-.0842.1506-.1099-.068-.1313-.0297-.0842.1506.0348.1329.0175.2417-.0384.2417s-.1015.1483-.1015.3296c0 .1813-.0504.3608-.1121.3989-.0616.038-.1121.157-.1121.2643 0 .1211-.1486.2487-.3922.3368-.2157.078-.4445.2395-.5083.3588-.075.1399-.2345.217-.4495.217-.1947 0-.4132.0932-.5253.224-.1056.1234-.2816.2242-.3912.2242-.1096 0-.1993.0558-.1993.1241 0 .0706.082.0926.1899.0512.1726-.0662.1741-.0546.017.1281-.095.1105-.2016.2828-.2369.3827-.0767.2177-.674.3961-.733.219-.0222-.0663-.1423-.1205-.267-.1205-.1526 0-.2064.0534-.1642.1633.0519.1351.0155.1417-.2117.0383-.2226-.1015-.3145-.0887-.4869.0673-.1282.116-.1895.28-.1545.4137.033.1258-.0283.3168-.1416.442-.2224.2457-.342.2749-.445.1083zm-11.3762-7.1735c0-.0616.0786-.1121.1748-.1121.096 0 .1435.0504.1054.112-.038.0617-.1167.1121-.1747.1121-.058 0-.1055-.0504-.1055-.112zm8.744-15.775c.001-.1079.0506-.2718.1104-.3643.0824-.1275.109-.0803.1103.1962.001.2003-.0487.3642-.1103.3642-.0616 0-.1114-.0883-.1104-.1961zm1.3565-1.6812c-.008-.4011.0346-.7005.0988-.7005.1274 0 .1274.564 0 1.0648-.0681.2676-.0883.1933-.0988-.3643zm-.6857.3082c0-.2092.0299-.239.1345-.1345.1046.1046.1046.1644 0 .269-.1047.1046-.1345.0747-.1345-.1345zm1.907-1.7652c.002-.3393.1617-.6679.2512-.5164.086.1458-.0402.8246-.1535.8246-.0547 0-.0986-.1387-.0976-.3082zm-1.0016-.3176c.005-.1306.032-.1571.0677-.0677.0324.0809.0284.1776-.009.2148-.0371.0373-.0636-.029-.0588-.147zm-.113-2.5405c.004-.077.0461-.2376.0927-.3568.1096-.2798.2449-.067.161.2533-.0675.2587-.267.34-.2537.1035zm-45.7926-3.639c-.7599-.0543-1.3075-.327-2.2029-1.0964-.8027-.6898-.8388-.7142-1.178-.7966-.5248-.1276-1.428-.5555-1.5923-.7544-.0846-.1024-.2612-.1866-.3923-.187-.1521 0-.4207-.2222-.7415-.6121-.2766-.3363-.6044-.626-.7285-.6437-.1365-.0195-.2398-.133-.2617-.2873-.02-.1402-.1712-.342-.3362-.4483-.4985-.3213-.694-.5112-.9489-.9219-.5141-.8282-1.1938-1.5052-1.7518-1.745-.3132-.1347-.4974-.1416-1.0087-.038-1.277.2588-1.2201.26-1.2608-.027-.0295-.2088-.0954-.2559-.3175-.227-.606.079-1.1964.1462-1.6102.1832-.2384.0213-.656.101-.9279.1772-.272.076-.5233.1096-.5585.0744-.136-.1361.0993-.3032.427-.3032.2818 0 .32-.0282.213-.157-.1363-.1643-.4383-.1566-1.5783.0402-1.2398.214-1.795.3288-1.8973.392-.0575.0356-.1347.016-.1715-.0436-.0368-.0596.048-.1695.1884-.2443.1404-.0748.3185-.216.3957-.3138.1267-.1606.134-.1596.0754.01-.102.2941.1889.1838.593-.225.3066-.31.3318-.3735.1682-.424-.1058-.0325-.2875-.1106-.4036-.1735-.1515-.0819-.2352-.0754-.2961.0232-.0467.0756-.3697.1577-.7177.1824-.625.0443-1.1675-.1365-1.4647-.4882-.0678-.0802-.4902-.1404-1.065-.1518-.976-.0193-1.4386.043-1.8711.2528-.1353.0656-.4562.091-.713.0566-.3613-.0485-.7504.034-1.7156.3636-.6865.2344-1.3434.4653-1.4597.5132-.1518.0625-.1975.0451-.1618-.0618.0273-.0819.2233-.2093.4356-.2831.2122-.074.952-.3932 1.6437-.7096.6918-.3165 1.386-.5754 1.5426-.5754.1567 0 .3724-.0425.4795-.0944.107-.0519.4308-.2084.7194-.3478.2887-.1393.5547-.331.591-.426.0902-.2348.011-.2889-.2363-.1613-.4566.2355-.8038.348-1.5937.5168-1.0244.2188-1.1351.2193-1.1351.005 0-.0944-.0809-.2027-.1797-.2406-.2274-.0873.4237-.3825.8747-.3966.1665-.005.3288-.0775.3607-.1608.032-.0832.1493-.1512.2608-.1512.1115 0 .3022-.0647.4238-.1438.1216-.0791.4228-.2122.6694-.2958.2466-.0836.5478-.2206.6694-.3045.1935-.1335.197-.1525.028-.1525-.2264 0-.2517-.1487-.053-.3114.1936-.1584 2.8974-1.0336 3.193-1.0336.1322 0 .2688-.0462.3037-.1026.0349-.0564.4035-.2093.8192-.3396.6748-.2117 1.1741-.3943 1.8766-.6866.1233-.0513.751-.2473 1.3948-.4356.6438-.1882 1.2105-.405 1.2592-.4817.215-.3385.0774-.9803-.4232-1.9744-.2834-.5627-.5574-1.023-.609-1.023-.1006 0-.2422-.364-.2835-.7286-.0793-.6993-.1788-1.012-.4754-1.4942-.4646-.755-.4985-.912-.5263-2.4386-.0136-.7487-.0615-1.4206-.1063-1.4931-.0448-.0725-.0015-.254.0963-.4033.0977-.1492.1777-.3953.1777-.5468 0-.1567.145-.4205.3363-.6118.185-.1849.3362-.437.3362-.56 0-.301.4378-.3849 1.28-.2453.423.0701.7681.2051.9526.3725.159.1444.4999.3534.7574.4645.2574.111.6073.3472.7775.5248.1701.1776.352.323.4042.323.0522 0 .2676.1727.4787.3838.3958.3958 1.5251 1.0732 1.7891 1.0732.0821 0 .1783.0757.2138.1681.0355.0925.164.1681.2856.1681.1215 0 .2539.0531.294.118.04.065.3457.2387.679.3862.4529.2002.6062.327.6062.5008 0 .1395.1123.2839.2802.3604.1541.0702.2802.1645.2802.2096 0 .045.1135.1106.2522.1457.1387.0351.3192.2165.401.403.2305.5252.8967.9164 2.317 1.3607.3655.1144.8081.0518 1.2482-.1766.5128-.266 1.3711-1.0062 1.4962-1.2903.068-.1542.4178-.4776.7775-.7187.9858-.661 1.226-1.0223 1.3547-2.0369.0597-.4709.0893-.8883.0657-.9276-.0236-.0393-.0763-.3237-.1171-.632-.0985-.743-.2944-1.5383-.4182-1.6973-.055-.0706-.0896-.1715-.077-.2242.0125-.0527-.016-.2816-.0631-.5085-.0473-.227-.0936-.6053-.103-.8406-.0134-.3405-.057-.4212-.213-.395-.2154.0362-.2737-.1566-.0681-.225.0955-.0319.0965-.2218.004-.7461-.092-.522-.091-.7562.004-.9081.1738-.2783.8018-.5635 1.2406-.5634.3027.0001.4277.0907.7807.566.2312.3113.4203.6078.4203.6588 0 .0511.1513.1494.3363.2186l.6724.2513c.185.0691.3363.1943.3363.278 0 .0839.1387.1808.3082.2155.511.1045.8607.3252 1.0112.6382.0784.163.3194.4058.5355.5394.2161.1335.4647.4147.5525.6247.0917.2194.282.4285.4472.4913.1582.0602.3362.237.3955.393.0593.156.2361.342.393.4135.2893.1318.728.728.728.9895 0 .0787.174.2996.3867.491.4755.4281 1.8541 3.0953 1.8566 3.592.001.1885.0446.4104.097.493.1737.274-.68 1.6253-1.7105 2.7078-.2508.2635-.626.7727-1.2387 1.6812-.1455.2158-.3645.4748-.4867.5757-.1222.1009-.241.227-.2638.2802-.1527.3552-2.0541 1.4869-2.6237 1.5615-.1873.0246-.6412.189-1.0087.3654-.3675.1765-.8952.407-1.1726.5122-.2774.1053-.6778.3339-.8898.508l-.3854.3167.1468.6581c.0808.362.2416.8719.3574 1.1332.1159.2613.2106.6712.2106.911 0 .2396.0675.4918.15.5602.0825.0685.2093.3225.2818.5645.0942.3144.4193.7252 1.1388 1.4393.8549.8484 1.0217 1.074 1.1048 1.4947.0538.2725.1797.6467.2797.8317.3192.5898.3588 1.0785.1041 1.2847-.1228.0995-.2583.3671-.301.5949-.064.3412-.1383.4298-.4226.5034-.2699.07-.4177.2289-.6794.7305-.184.3526-.3843.6411-.4451.6411-.0608 0-.316.1758-.567.3907-.2592.2218-.6302.418-.8585.454-.2211.035-.715.1365-1.0975.2258-.3826.0893-.786.1533-.8967.1422-.1106-.011-.4533-.0382-.7615-.0603zm-20.8207-11.094c.0635-.1906-.499-.03-.7095.2026-.1875.2072-.1815.2088.2392.0632.2373-.0822.449-.2017.4703-.2657zm-2.4359.1906a.1124.1124 0 00-.112-.112.1124.1124 0 00-.1122.112c0 .0616.0505.1121.1121.1121a.1124.1124 0 00.1121-.112zm1.0648-.2241c.038-.0616.0158-.1121-.0495-.1121-.0652 0-.1187.0504-.1187.112 0 .0617.0223.1121.0495.1121.0271 0 .0806-.0504.1187-.112zm1.7138-1.135c.4135-.131.7998-.2823.8584-.3362.1657-.1525-.1393-.1183-.5379.0603-.1942.0871-.5423.1902-.7734.2293-.2312.039-.4203.1191-.4203.178 0 .1435.011.1418.8732-.1313zm-10.1759 3.164c0-.1413.2732-.4261.4764-.4968.141-.049.1961-.01.1961.1405 0 .1927-.1867.3357-.5324.4078-.077.016-.14-.007-.14-.0515zm4.5107-.488c.0548-.1665.533-.2596.533-.1038 0 .1087-.2589.244-.467.244-.0616 0-.0914-.063-.066-.1401zm-3.2778-.2986c0-.124.9744-.682 1.191-.682.2465 0 .1776.2017-.0982.2873-.1387.0431-.386.1726-.5497.2878-.3218.2266-.5431.2701-.5431.107zm4.147-.01c0-.0616.0756-.112.168-.112.0926 0 .1682.0503.1682.112 0 .0616-.0756.1121-.1681.1121s-.1681-.0504-.1681-.112zm.5043-2.0886c.394-.2977.5689-.3637.7185-.2712.1892.1168.0213.2266-.5356.3502-.3791.0842-.3917.0788-.1829-.079zm2.4097-.0409c0-.0617.0505-.112.1121-.112.0617 0 .1121.0503.1121.112a.1124.1124 0 01-.112.112.1124.1124 0 01-.1122-.112zm-1.0428-.4547c-.0493-.1884-.0314-.2066.0977-.0994.087.072.1305.1759.0967.2305-.0914.148-.1279.1234-.1944-.1312zm.4928.0749c-.0994-.1198-.0777-.1662.0994-.2125.1445-.0378.2265-.005.2265.0918 0 .2268-.182.2942-.326.1207zm.683-.2647c.021-.1095.1605-.2135.3162-.2356.2765-.039.277-.0375.0655.1962-.2594.2867-.4322.3045-.3816.0394zm9.0016-3.0542c.038-.0616.0915-.112.1187-.112.0271 0 .0494.0504.0494.112 0 .0617-.0534.1121-.1187.1121s-.0875-.0504-.0494-.112zm-42.202-37.1903c-.3115-.2061-.3202-.5307-.017-.6341.2603-.0888 1.6608-1.3683 1.5833-1.4465-.0345-.0348-.337.1374-.6725.3826-.7902.5779-.8431.6227-1.0206.8638-.1786.2425-1.0072.9265-1.1223.9265-.1632 0 .326-.8966.6119-1.1215.1674-.1317.2682-.3003.2336-.3907-.0336-.0875.0765-.2966.2446-.4647.168-.168.398-.5146.511-.77.113-.2554.3279-.5201.4776-.5883.1496-.0682.3624-.3288.4729-.5792.1104-.2503.29-.4834.3991-.518.1091-.0347.3468-.2494.5283-.4772.1814-.2278.6315-.6412 1.0003-.9186.3687-.2774.7824-.6665.9194-.8648.137-.1983.3535-.3936.4812-.4341.2807-.0891.977-.7472.977-.9234 0-.0694.1387-.2123.3082-.3175.3719-.2309.5725-.42 3.5161-3.3138 1.2712-1.2497 2.344-2.378 2.384-2.5075.04-.1295.4877-.6464.995-1.1487.5074-.5022 1.0083-1.0016 1.1132-1.1096.1049-.108.7027-.7007 1.3285-1.3171 1.9744-1.9449 4.9254-5.2478 4.9254-5.5128 0-.0551.2062-.3251.4583-.6.252-.275.6296-.7521.839-1.0603.2094-.3083.6336-.863.9428-1.233.6304-.7541.8164-1.0068 1.8567-2.5217.4021-.5856.7621-1.1909.8-1.345.038-.154.1947-.548.3484-.8753.264-.5624.2713-.6287.133-1.2049-.0804-.3353-.1839-.6097-.2299-.6097-.046 0-.0588-.0952-.0284-.2115.0305-.1163.0005-.2454-.0665-.2868-.067-.0414-.1218-.2207-.1218-.3983 0-.1777-.0518-.355-.115-.3942-.0634-.039-.1027-.1303-.0875-.2027.0436-.2073-.2861-.8602-.4344-.8602-.0736 0-.1343-.0883-.1349-.1961-.0007-.1079-.0614-.4636-.135-.7904-.1016-.4507-.103-.6944-.0055-1.0087.2076-.6702.4583-.9034 1.1018-1.0248.5276-.0996.6293-.0833 1.0927.1757.2811.1571.511.3318.511.3881 0 .0564.1154.1025.2565.1025.141 0 .431.1493.6444.3317.2135.1824.5016.3338.6403.3363.1387.002.2521.0527.2521.1115 0 .059.1802.1408.4004.1821.279.0524.431.1558.5016.3413.0777.2044.1866.267.4682.2694.2598.002.4653.1039.7033.3482.185.1897.4471.3878.5826.4402.1355.0523.3355.236.4446.4083.2818.4451.7044.8294.9678.8801.2272.0438.7287.4326.8973.6958.05.078.182.2293.2933.3362.2594.2491.4945.6987.4097.7835-.036.036.0143.1874.112.3363.1051.1606.1716.4837.1633.7935-.0077.2875-.0181.737-.023.999-.005.262-.0477.4764-.095.4764-.1337 0-.2418.3434-.2857.9071-.0283.3643-.1605.6921-.4519 1.1208-.2265.3333-.5081.8203-.6258 1.0823-.1178.262-.256.4764-.3073.4764-.0513 0-.1596.1639-.2406.3642-.081.2004-.3646.6337-.63.963-.2656.3293-.4828.6346-.4828.6786 0 .0439-.1822.2789-.405.522-.2228.2433-.5462.6205-.7187.8383l-.3136.396.268.258c.2864.2757.379.2702 1.6737-.0989.2466-.0703.7762-.1984 1.1768-.2847 1.4318-.3083 2.5017-.6014 2.6173-.717.0646-.0646.2209-.1173.3473-.117.1263 0 .4567-.0717.734-.16.2775-.0883 1.1097-.3192 1.8494-.513.7397-.1937 1.4963-.396 1.6812-.4495 1.473-.426 2.4374-.7234 2.914-.8985.3083-.1132.6866-.2417.8407-.2856.1541-.0439.3446-.1713.4234-.2831.0787-.1119.2155-.1757.3039-.1417.233.0894 1.3822-.5039 1.4618-.7548.0383-.1206.1702-.213.304-.213.1301 0 .3663-.1548.5249-.344.252-.3008.3978-.3595 1.157-.4655.4777-.0667.8686-.1586.8686-.2041 0-.0455.192-.1596.4266-.2535.2347-.094.4941-.252.5765-.3513.1376-.1657.1668-.1651.3569.007.1952.1767.2204.1704.4402-.109.1863-.2369.2748-.274.4412-.1849.1145.0613.2947.0782.4006.0375.1233-.0473.2488.003.3493.1405.1334.1822.2867.2116 1.0206.196.475-.01.914.0206.9757.068.0616.0474.3642.1455.6724.218.3083.0725.7118.2003.8967.284.9225.4173 1.2155.5131 1.5685.5131.2203 0 .4457.0776.5286.182.0795.1001.3588.411.6208.691.262.28.4764.5385.4765.5745 0 .1251.5309.682.6498.682.0657 0 .1444.0884.1748.1962.0953.3385.1987.9027.2357 1.2851.0196.2025.0714.603.1151.89.069.4514.0407.5792-.2085.946-.1727.2542-.2657.5165-.232.6549.0636.2618-.7047 1.1835-.9866 1.1835-.091 0-.3526.1766-.5813.3923-.2288.2158-.5104.3923-.6258.3923-.1154 0-.2856.1081-.3781.2403-.3112.4443-.73.6439-1.1177.5327-.5538-.1589-1.4821-.1236-1.6363.062-.0742.0895-.3704.195-.6581.2345-.2878.0395-.709.1186-.936.1759-.2445.0617-.5917.0639-.852.005-.3345-.0751-.564-.0515-.9604.099-.2865.1087-.5485.153-.5822.0986-.0738-.1194-.8865-.054-1.3.1047-.1633.0626-.3232.0874-.3555.0551-.1375-.1375-.8502-.2292-.9564-.123-.1288.1288-.8323.214-1.6203.1961-.2964-.007-.8008.0637-1.1208.1565-.32.0928-.8593.2172-1.1984.2766-.339.0594-.9947.232-1.457.3837-.4623.1517-1.0676.3338-1.345.4046-1.4878.38-2.38.7175-3.0726 1.1624-1.221.7844-2.0492 1.329-2.153 1.416-.0694.058-.3342.1598-.5885.2263-.2543.0664-.6663.1739-.9156.2388-.2493.065-.54.0906-.6458.057-.1059-.0336-.3432-.0804-.5274-.1039-.9966-.1272-1.7034-.3229-2.3228-.643-.107-.0553-.2627-.1006-.346-.1006-.2132 0-1.1967-.7852-1.1967-.9555 0-.0775-.126-.1726-.2802-.2113-.1897-.0476-.2802-.1478-.2802-.3104 0-.132-.142-.3706-.3158-.5302-.1737-.1596-.3791-.4482-.4565-.6413-.0773-.193-.2876-.492-.4673-.664-.1797-.1722-.3578-.479-.3959-.6817-.0613-.3273-.3319-.7058-.4207-.5888-.0184.0242-.5216.583-1.1181 1.2416-.5966.6587-1.0847 1.2414-1.0847 1.295 0 .0535-.1798.2711-.3995.4835-.2197.2125-.6106.6628-.8686 1.0009-.258.338-.5738.7162-.7018.8406-.128.1243-.36.4423-.5157.7066-.1557.2644-.5554.7898-.8882 1.1677-1.0856 1.2326-3.6929 3.7814-4.5685 4.466-.4708.368-1.2536 1.0167-1.7396 1.4415-.486.4248-1.0156.8348-1.1769.911-.1612.0764-.4652.22-.6754.3192-.2103.0992-.5823.3948-.8269.6567-.2445.262-.5185.4764-.6088.4764-.0903 0-.2915.1002-.4472.2226-.3197.2515-.4808.2082-.4808-.1293 0-.1914-.0486-.2175-.2915-.1565-.2762.0693-.8118.401-1.1425.7076-.0832.0771-.1941.1401-.2466.1401-.0525 0-.25.13-.4389.289l-.3433.2889-.3377-.2405c-.3487-.2483-.6098-.2357-1.0674.0515-.2227.1398-1.3278.4158-1.4861.3711-.045-.0127-.2065.0458-.3588.13-.1523.0842-.5557.1663-.8966.1825-.3409.0162-.6533.0337-.6943.039-.041.005-.1923.1115-.3363.2365-.7452.6467-1.4889 1.1178-1.7646 1.1178-.167 0-.4015.074-.5211.1646-.2647.2002-.2616.2003-.6137-.0326zm-.7807-2.0933c.1447-.154.33-.2802.4118-.2802.0817 0 .1486-.0504.1486-.112 0-.0617.063-.1108.14-.1091.1768.004-.6496.7815-.8304.7815-.0733 0-.0148-.126.13-.2802zm32.1932.0523c-.3246-.1144-.6692-.2869-.7656-.3833-.0965-.0965-.2269-.1436-.2899-.1047-.063.039-.248-.0636-.4112-.2278s-.442-.4129-.6193-.5526c-.1774-.1396-.3347-.3519-.3496-.4716-.0536-.4298-.196-.7157-.3868-.7762-.1959-.0622-.3189-.2624-.5676-.9242-.207-.551.044-1.6578.4991-2.2.3648-.4343.4999-.4727 1.5197-.4308.5946.0244 1.0386-.0375 1.3097-.1827.1346-.072.4144-.131.6219-.131.2075 0 .4304-.0531.4954-.1181s.2847-.1392.4883-.165c.2035-.0258.5552-.1751.7814-.332.4214-.292 1.2905-.5284 2.84-.7725.4821-.076.911-.1937.953-.2616.1157-.1874 1.522-.526 2.6742-.6441.1964-.0201.5193-.1176.7178-.2166.1984-.099.4572-.18.575-.18.118 0 .3207-.0568.4506-.1264.2582-.1382 2.585-.6503 3.238-.7126.2239-.0214.5013-.0917.6165-.1564.5663-.3175 1.3733-.6082 1.7479-.6297.2296-.0132.4922-.086.5835-.1617.0913-.0758.215-.1075.275-.0704.06.037.327.017.5934-.0446.2663-.0616.617-.1375.7791-.1686.1712-.0329.3195-.1511.3538-.282.0364-.1391.1527-.2254.304-.2254.151 0 .2677-.0862.3038-.2241.0322-.1233.1475-.2242.256-.2242.1085 0 .2601-.0757.3369-.1681.0767-.0925.1996-.1681.273-.1681.0733 0 .2765-.1494.4514-.332.1749-.1825.3987-.3259.4973-.3185.5846.044 1.0199-.0345 1.0199-.1835 0-.2486.178-.3031.5043-.1544.2304.105.3449.1053.5112.001.3146-.1965.6038-.1639.8377.0945.1558.1721.2864.2109.5305.1573.178-.0391.4516-.0851.608-.1023.1562-.0172.318-.0861.3595-.1532.1166-.1888 1.3265-.2572 1.3949-.0789.0629.164.9907.509 1.3685.509.1356 0 .3093.0757.386.1682.0767.0925.2304.1681.3414.1681.111 0 .3444.1175.5187.2611.1742.1436.3924.297.4849.3407.7193.3401 1.6704 1.1617 1.7533 1.5145.038.1614.1839.3961.3243.5217.1404.1256.2607.3525.2672.5044.0346.806.001 1.5986-.0727 1.7142-.046.072-.087.2318-.0913.3551-.0127.3635-.2569.8408-.47.9186-.1087.0397-.4687.3684-.7999.7303-.3483.3808-.6796.645-.786.627-.1013-.0172-.2969.0816-.4347.2195-.1895.1895-.3812.2506-.7861.2506-.4005 0-.585.0577-.7315.229-.1078.1258-.2473.1971-.31.1584-.0627-.0388-.1949-.003-.2937.0786-.0988.082-.437.1582-.7516.1694-.575.0205-1.377.2204-1.5751.3928-.147.1278-.4833.1163-.5287-.0181-.022-.0655-.1684-.0426-.3584.056-.4203.2183-1.1187.212-1.5958-.0144-.21-.0996-.5167-.1553-.6817-.1238-.165.0315-.4226.002-.5723-.0667-.2247-.1023-.2979-.0888-.4197.078-.1068.1459-.2194.179-.4068.1196-.5495-.1745-2.3666-.2551-2.7052-.1201-.2823.1125-.6867.1807-1.0754.1813-.1477 0-.341.0605-.4294.134-.0884.0733-.3962.1684-.684.2112-.5924.0882-.8926.19-2.3166.7862-.5548.2322-1.2953.4523-1.6455.4891-.3502.0368-.919.1918-1.2641.3443-.345.1526-.7275.2775-.8498.2775-.2106 0-.2966.031-.836.3016-.1232.0619-.5015.1761-.8405.254-.339.0778-.9128.2418-1.275.3645-.3918.1327-.7907.1966-.9844.1579-.1864-.0373-.7918.0505-1.415.2052-.7485.1858-1.2467.2497-1.5934.2046-.7145-.0932-1.2204-.0966-1.7372-.012-.31.0508-.6303.009-1.0385-.1346zm23.6768-54.6001c-.184-.1122-.487-.1943-.6734-.1824-.4078.0259-.992-.2972-1.1832-.6545-.0763-.1426-.2442-.2928-.373-.3336-.1289-.0409-.4168-.1895-.64-.3303-.2231-.1408-.587-.29-.8086-.3316-.2216-.0416-.462-.1469-.5344-.234-.0723-.0872-.3137-.2405-.5363-.3408-.3913-.1762-1.3576-1.0869-1.3576-1.2795 0-.052-.0929-.1847-.2065-.295-.3191-.3097-.8415-1.387-.9669-1.9937-.2753-1.3326-.3708-2.1245-.2836-2.3538.0538-.1414.0783-.2765.0546-.3003-.0238-.0238-.0677-.4359-.0976-.9158-.03-.48-.1099-.9395-.1776-1.0212-.0678-.0817-.1425-.3002-.166-.4857-.0463-.3666-1.9806-4.394-2.3195-4.8294-.245-.315-.2698-.6377-.0553-.72.1728-.0663 1.0688.4904 1.2178.7566.0538.096.1508.1746.2156.1746.1497 0 1.216 1.0165 1.216 1.1592 0 .0587.1747.32.3883.5805.2135.2607.4486.6063.5223.7681.0737.1619.1678.2943.209.2943.0412 0 .2436.3404.4496.7565.206.416.4393.8322.5183.9247.713.8342.8455.8443 1.264.0962.1601-.2862.4467-.7905.6368-1.1208.1902-.3304.476-.878.6353-1.217.427-.9091 1.089-2.346 1.3167-2.8581.4498-1.0117.8136-1.7387 1.4022-2.802.3412-.6165.7265-1.3478.856-1.6252.1297-.2774.4084-.7476.6195-1.0449.2112-.2973.369-.6279.351-.7346-.0181-.1068.0608-.337.1752-.5118.1144-.1746.2342-.5123.2661-.7504.032-.238.1019-.4328.1554-.4328.0535 0 .0973-.1306.0973-.2902 0-.1597.2555-.7775.5679-1.373.6547-1.2485 1.6737-3.475 1.6737-3.6573 0-.0682.1009-.3219.2242-.5637.1233-.2418.2241-.5408.2241-.6644 0-.1236.071-.4282.1577-.6768.0867-.2486.2696-.8555.4065-1.3487.1368-.4931.313-1.0227.3915-1.1768.0785-.1541.2783-.608.444-1.0088.1656-.4006.3723-.8874.4594-1.0817.0871-.1942.1584-.449.1584-.566 0-.117.0419-.2607.0932-.3193.2803-.3203.385-1.285.1904-1.7539-.109-.2624-1.075-.5629-1.7762-.5525-.6848.0101-3.4533.3981-4.896.686a34.051 34.051 0 01-1.2511.2202c-.349.0534-.803.1713-1.0087.262-.2057.0906-.6515.2246-.9905.2978-.339.0731-.8434.253-1.1208.3996s-.6178.3184-.7565.3818c-.1387.0633-.2525.1794-.253.258-.0003.0786-.1565.2316-.347.34-.1904.1084-.3725.2975-.4046.4203-.032.1227-.1036.2232-.159.2232-.156 0-1.377 1.021-1.4613 1.222-.0413.0984-.2808.424-.5324.7236-.2515.2995-.4573.6143-.4573.6995 0 .0852-.1009.218-.2242.295-.1233.077-.2241.2055-.2241.2857 0 .1624-.359.7072-.7684 1.1662-.303.3395-.5108.6763-.6962 1.128-.0696.1694-.1686.3081-.22.3081-.0516 0-.126.1023-.1658.2274-.0726.2287-.798 1.3362-1.7596 2.6867-.2853.4007-.6763.9555-.8687 1.233-.9283 1.338-1.5097 2.1123-1.8933 2.5217-.231.2466-.6193.7005-.8628 1.0087-.2435.3082-.8396.9387-1.3248 1.401-.4851.4624-1.0255 1.0489-1.201 1.3035-.299.4341-1.4422 1.6197-2.4174 2.5073-.237.2157-.5571.532-.7112.7028-.1542.1708-.6476.6752-1.0966 1.1208-.449.4456-.9281.923-1.0648 1.061-.1366.1379-.551.5123-.9208.832-.37.3197-.723.6671-.7846.7721-.1738.296-.796.779-1.0035.779-.1176 0-.1567-.0518-.1059-.14.0444-.0772-.0408-.0342-.1895.0954-.8362.7291-1.0046.8606-1.3232 1.0327-.5285.2854-1.3343.9133-1.908 1.4866-.2824.2824-.6585.6102-.8358.7286-.709.4733-.8368.569-1.3678 1.0233-.9353.8004-2.0108 1.5646-2.513 1.7857-.0924.0407-.245.1397-.3393.22-.237.202-1.6939.9408-1.8551.9408-.0725 0-.1902.0704-.2615.1564-.0714.086-.3172.1914-.5461.2342-.229.0428-.4668.1178-.5284.1667-.17.1347-1.9496.8533-2.5218 1.0182-.2774.08-.5548.1728-.6165.2063-.0616.0335-.2634.0685-.4483.0778-.185.009-.4056.036-.4903.0593-.0848.0233-.1773-.0206-.2055-.0976-.031-.0844.1642-.2298.4903-.3656 1.2606-.525 1.622-.864.8502-.7974-.2923.0252-.3507-.003-.2962-.1454.0373-.0972.1885-.1766.336-.1766.3391 0 .3498-.1767.016-.264-.3284-.086-1.0238.0156-1.6395.2392-.4599.167-.5.1657-.637-.0218-.1584-.2165-.3426-.1601-.5879.1798-.0805.1117-.2222.203-.3148.203-.0926 0-.1372.0504-.0991.1121.0397.0643-.065.1136-.2456.1157-.1732.002-.4127.0776-.5324.168-.1197.0906-.2836.1646-.3643.1646-.2238 0-.1747-.3745.0775-.5904.1233-.1056.2242-.2429.2242-.3051 0-.1902-.5337-.1262-.922.1106-.2018.123-.4438.2239-.5376.2241-.094 0-.427.1692-.74.3754-.3132.2062-.7324.4076-.9316.4474-.1992.0398-.511.1784-.693.308-.353.2514-.6197.2233-.7351-.0774-.0458-.1193.0201-.2538.1854-.3785.141-.1064.2353-.257.2093-.335-.0286-.0858-.304.1054-.7006.4864-.3594.3454-.6979.6004-.7522.5669-.1398-.0864-.1225-.232.0482-.404.0809-.0816.2687-.3925.4175-.6912s.5143-.7471.8122-.9966c.3559-.298.5039-.4915.4313-.564-.1115-.1115.3722-.487 1.4424-1.1197.2774-.164.6751-.4515.8838-.639.2087-.1873.4383-.3407.5103-.3407.2925 0 1.8562-1.3405 1.8562-1.5912 0-.055.0883-.085.1962-.067.1282.0216.1908-.0343.1808-.1616-.0111-.1416.0304-.169.1527-.1005.1723.0964.7007-.0821.7023-.2372.0005-.0462.0742-.0841.1637-.0841.2776 0 .7338-.2527.7338-.4064 0-.211.4161-.4174.4783-.2372.0342.099.2388.045.7095-.1872.604-.298.6372-.3326.3814-.3974-.2502-.0634-.2577-.0797-.0699-.152.1172-.045.28-.023.3676.0497.1232.1023.2124.0786.4133-.1102.1408-.1323.3141-.2406.385-.2406.1688 0 1.0963-.5148 1.5943-.885.216-.1605.4934-.3474.6165-.4153.123-.068.2414-.2445.263-.3923.0468-.3202.2246-.4543.4919-.3711.252.0784.84-.3365 1.9595-1.3827.2144-.2004.4093-.3643.4333-.3643.115 0 .7921-.6162 1.2383-1.1269.3217-.3681.7263-.6664.904-.6664.08 0 .1454-.039.1454-.0866 0-.0477.5285-.5394 1.1744-1.0928.6458-.5534 1.2064-1.1208 1.2456-1.261.0393-.14.1553-.3166.2578-.3922.1026-.0756.3-.2849.4389-.465.2469-.3205.4925-.4991 1.0043-.7304.1398-.0632.299-.2293.354-.3691.0549-.1398.2053-.342.3342-.4492.129-.1073.2366-.2586.2392-.3363.0026-.0777.2464-.3274.5417-.555.2953-.2275.7597-.7057 1.032-1.0626.2722-.357.8249-.9778 1.228-1.3796.642-.6397 1.839-2.0375 2.5173-2.9393.1233-.164.4637-.6046.7566-.9793.2928-.3747.5323-.7269.5323-.7827 0-.0558.0381-.1183.0846-.1388.0465-.0206.31-.3904.5856-.822.2756-.4315.84-1.2604 1.2542-1.842.4142-.5817.7306-1.094.703-1.1386-.0849-.1373-1.1835.208-1.4458.4544-.1463.1374-.5652.2963-1.0229.388-.4263.0854-1.3299.2907-2.008.4562-1.8167.4433-2.7141.5572-3.2578.4134-.2508-.0663-.629-.102-.8406-.0794-2.3482.2508-2.958.238-4.452-.0942-.4494-.1-.9766-.2642-1.1716-.365-.5517-.2853-1.5264-1.2848-1.6059-1.6468-.0419-.1908-.2013-.399-.3873-.5057-.39-.2239-.7831-1.0588-.7777-1.652.0064-.6946.3913-1.081 1.1387-1.1429.4109-.034.742.0103 1.0462.1402.29.1238.855.2057 1.6218.235 1.1575.0444 2.037.1642 3.0194.4112 1.1986.3013 5.2922.0396 5.7857-.3699.0796-.066.2115-.1088.2931-.095.174.0294.5312-.055 1.6055-.379.4315-.1302.8355-.2458.8978-.257.3655-.0654 2.3849-.761 2.75-.9473.2388-.1218.4812-.2214.5388-.2214.2084 0 1.5334-1.4036 1.6894-1.7897.2066-.5113.2184-1.3754.022-1.612-.0843-.1017-.295-.1849-.4683-.1849-.2138 0-.3373-.0702-.3843-.2184-.0381-.1202-.16-.2472-.2708-.2824-.2043-.0648-.478-.5239-.5132-.8606-.0106-.1015-.1042-.2695-.208-.3734-.1039-.1038-.1828-.3234-.1755-.4879.0074-.1645-.0453-.6907-.1171-1.1693l-.1306-.8703.3848-.4747c.2116-.261.4183-.5841.4592-.7179.0658-.2152.0385-.2378-.2385-.1973-.1721.0252-.8173.0964-1.4337.1582-1.8265.1832-3.5445.4346-4.203.615-.339.093-.7678.1712-.9527.174-.185.0027-.6137.1025-.9527.2218-.339.1193-.7561.2185-.9269.2205-.1707.002-.4986.1213-.7285.265-.401.2507-.7132.3564-2.0192.6835-.3258.0816-.6788.2241-.7845.3168-.5503.4821-1.7026.7137-2.012.4043-.07-.07-.3818-.1355-.6927-.1453-.4966-.0158-.6099-.0672-.9318-.4233-.2015-.2229-.5528-.4816-.7807-.575-.3119-.1277-.4843-.3079-.698-.7296-.3069-.6056-.5305-1.3475-.5541-1.838-.014-.2917-.0356-.3036-.4071-.2242-.7136.1526-1.7996.0632-2.3468-.193-.41-.1921-.6133-.3987-1.0067-1.023-.271-.4303-.556-.8182-.6332-.862-.0772-.0439-.1851-.2562-.2398-.472-.059-.233-.1997-.4372-.3462-.5029-.1613-.0723-.2468-.21-.2468-.3979 0-.3322-.188-.563-.394-.484-.1736.0666-.5165-.5782-.4289-.8065.0387-.1008-.0069-.1624-.1202-.1624-.1003 0-.2416-.1387-.3139-.3082-.0723-.1695-.2545-.4208-.405-.5585-.1506-.1376-.2877-.3646-.3048-.5043-.0172-.1398-.1112-.4416-.209-.6708-.0978-.2292-.178-.557-.1783-.7285-.0005-.377-.35-.9801-.666-1.1493-.1333-.0713-.2302-.2355-.2302-.39 0-.1469-.056-.2856-.1245-.3085-.1157-.0385-.671-1.919-.6966-2.3594-.0063-.1082-.2216-.4256-.4784-.7054-.2569-.2797-.5565-.746-.666-1.0361-.1094-.2902-.292-.6479-.4056-.7949-.1137-.147-.2067-.4034-.2067-.5697 0-.1664-.0379-.3404-.084-.3868-.0463-.0463-.0886-.2439-.094-.439-.0054-.195-.093-.7329-.1945-1.1952-.2341-1.0657-.4187-2.8336-.3437-3.2915.1486-.9075.4406-1.7698.9249-2.7316.2288-.4544.3903-.6252.7142-.755.5019-.201.8885-.0739 1.0848.3568.0698.1534.1889.256.2645.228.0756-.0281.4906-.1143.922-.1916.4316-.0774.9611-.2301 1.1769-.3395.2158-.1094.5184-.236.6725-.2815.154-.0454.3481-.1395.4312-.209.169-.1414 2.2646-1.2794 3.0433-1.6525.2774-.133.6443-.34.8154-.4602.1711-.1202.8016-.4744 1.401-.787a436.879 436.879 0 002.3228-1.2227c1.4146-.7509 6.4545-3.2549 7.6214-3.7866.4316-.1967.9185-.43 1.0821-.5185.1636-.0885.359-.1609.4343-.1609.0753 0 .4457-.1317.8233-.2927.9128-.3892.9832-.4174 2.0875-.836.524-.1986 1.104-.4258 1.289-.505.1849-.079.6262-.2482.9806-.3759 1.2344-.4444 1.9349-.7028 2.1576-.7958 1.0646-.4447 4.1686-1.4043 4.8615-1.503.978-.1393 1.0994-.4478.4133-1.0502-.1976-.1735-.3913-.399-.4305-.5012-.0392-.1022-.2082-.2202-.3756-.2622-.1674-.042-.6242-.4092-1.0152-.816-.391-.4067-.8488-.8836-1.0174-1.0596-.1686-.1761-.418-.3632-.5542-.4158-.2652-.1025-.705-.8543-.705-1.2052 0-.1171-.1506-.495-.3346-.8398-.2496-.4676-.3172-.7135-.2662-.9684.0474-.2367.0248-.3416-.0734-.3416-.1906 0-.4387-.3412-.4431-.6092-.002-.1193-.1102-.3304-.2405-.4691-.1303-.1387-.2445-.4022-.2537-.5856-.0092-.1833-.1095-.4358-.2229-.5611-.1134-.1253-.1827-.2938-.1542-.3744.0286-.0806-.0377-.3256-.1474-.5445-.2477-.494-.4346-1.486-.3733-1.9805.0254-.2047.1284-.5855.229-.8462.1005-.2607.2053-.7659.233-1.1225.0653-.845.2235-.9434 1.4868-.9258.9438.0132 1.6812.2149 1.6812.4599 0 .2167.6514.7542.8307.6854.0943-.0362.245.0077.3349.0975.0899.0899.2314.1634.3145.1634.0832 0 .2634.0785.4005.1746.137.096.3627.1955.5013.2212.1386.0257.39.1993.5586.3858.1687.1866.4098.3392.536.3392.126 0 .2598.0797.2972.1771.0414.108.1512.1554.281.1215.2206-.0577.6133.2627.948.7734.0983.1501.2317.273.2963.273.1768 0 .9775.3688.9775.4502 0 .0935.8913 1.239 1.302 1.6731.1777.188.3506.4551.3841.5937.0915.3781.3564.3598.7863-.0544.212-.2044.5748-.5148.806-.6899.2311-.175.4202-.3894.4202-.4765 0-.0871.0883-.192.1962-.2331.1078-.0411.4425-.317.7437-.613s.5925-.538.6473-.538c.0548 0 .4156-.2901.8018-.6446.3861-.3544.99-.8891 1.3421-1.1882.352-.299.64-.592.64-.651 0-.059-.0581-.0714-.1293-.0274-.0812.0502-.099.0307-.0476-.0524.045-.0728.141-.125.2134-.1161.3188.0393.3967-.037.468-.4586.0416-.2466.1392-.4484.2168-.4484s.1867-.096.2423-.2133c.0556-.1174.3203-.3948.5881-.6165.2679-.2217.4508-.403.4066-.403-.0442 0-.018-.0751.0581-.167.0762-.0917.183-.1393.2374-.1057.0544.0336.1577-.0678.2295-.2254s.198-.2865.2807-.2865c.0843 0 .15-.1195.15-.2726 0-.2847-.1643-.3803-.7903-.4595-.1846-.0234-.3774-.0683-.4285-.0998-.051-.0316-.7685-.1074-1.5945-.1686-.826-.0613-1.9052-.1512-2.3983-.1999-1.2255-.121-4.5383-.0993-4.6317.0304-.0417.0579-.2774.1087-.524.1129-.7842.0134-1.7821.137-2.1295.264-.185.0675-.6893.1747-1.1208.238-.4316.0635-1.0368.1608-1.345.2163-.3082.0555-.737.1274-.9527.1597-.6466.097-1.7113.2982-2.1295.4023-.2158.0537-.8462.18-1.401.2805-.5548.1005-1.2609.2596-1.5691.3535-.8425.2567-1.891.6266-2.0175.7118-.0616.0415-.4147.167-.7845.2789-.3699.1119-1.1264.4165-1.6812.677-2.253 1.0574-2.822 1.317-3.2503 1.4825-.2466.0953-.4963.2161-.5548.2685-.0586.0524-.1847.097-.2802.099-.0956.0021-.3755.1013-.622.2204-.2467.1191-.504.2183-.5721.2204-.1076.0033-.8514.334-2.8464 1.2656-.2774.1295-.7061.3638-.9527.5207-.2466.1569-.5492.3416-.6725.4106-.1233.069-.4064.2294-.6291.3566-.2227.1271-.5253.299-.6725.3818-.1471.0829-.2927.1817-.3236.2196-.0308.0379-.3419.2295-.6913.4258-.3495.1963-.6961.4301-.7703.5195-.0742.0894-.1982.1626-.2756.1626-.0774 0-.2091.0825-.2928.1834-.1338.1612-.509.427-1.2763.904-.1233.0768-.4007.222-.6165.3228-.2157.1008-.7099.4048-1.0981.6755-.3882.2707-.7498.4921-.8035.4921-.0537 0-.2404.0713-.415.1584-.1744.087-.6705.2413-1.1023.3428-.7842.1844-1.4588.1357-2.129-.1535-.1233-.0531-.4511-.1884-.7285-.3005-.2774-.1121-.7418-.4208-1.032-.686-.2901-.265-.6089-.482-.7083-.482-.3884 0-1.6146-1.0127-1.9042-1.5727-.0946-.183-.2201-.3326-.279-.3326-.1566 0-.5597-.8416-.5597-1.1685 0-.6297 1.2967-1.6266 2.0236-1.5557.2123.0207.9913.0465 1.731.0573 1.269.0186 1.383.0015 2.0175-.3009.4635-.221.89-.3316 1.3727-.356.683-.0347 1.6889-.3738 2.438-.822.185-.1106.5128-.2368.7285-.2803.2158-.0435.5184-.1616.6725-.2623.555-.3628 1.2392-.7235 2.213-1.1668.2616-.1191.5008-.2571.5314-.3068.0698-.113 2.1094-1.1232 2.2676-1.1232.064 0 .179-.0757.2558-.1681.0767-.0925.2114-.1682.2993-.1682.088 0 .3717-.1046.6307-.2326.259-.128.8492-.3755 1.3116-.5502.4623-.1746 1.4183-.5743 2.1244-.8882.7061-.3138 1.3366-.5717 1.401-.573.0645-.0015.2433-.1012.3974-.2217.154-.1206.3623-.2203.4626-.2217.1003-.0014.2452-.0781.322-.1706.0767-.0925.2277-.1681.3356-.1681.1948 0 .8778-.2664 1.7378-.6778.2466-.118 1.149-.4464 2.0052-.73.8562-.2834 1.638-.5564 1.7372-.6066.0992-.0502.4578-.1536.7969-.2299.339-.0762.7173-.1932.8406-.2599.1232-.0667.2596-.1114.303-.0992.0433.0121.296-.071.5616-.1849.2655-.1138.6335-.1852.8178-.1586.1842.0265.562-.0086.8394-.0783.2774-.0696.8169-.1908 1.1988-.2692.382-.0785.7603-.195.8406-.2588.0804-.0639.4235-.1769.7626-.2511.339-.0743 1.0199-.2278 1.513-.3412.8827-.203 2.0589-.3963 2.2033-.362.0406.0095.4945-.0566 1.0088-.1471.5142-.0905 1.2471-.1646 1.6288-.1647.3816-.0001.7276-.0547.7688-.1213.0412-.0667.1879-.0928.326-.0581.2522.0633 3.9412.2222 5.3563.2307.416.0025.7565.0383.7566.0794 0 .0929.8264.0379.9948-.0662.0677-.0418.3081-.025.5343.0375s.4567.0855.5123.0512c.188-.1162.6994-.152 2.899-.2023 1.2068-.0277 2.2407-.0615 2.2976-.0751.0568-.0136.2433.0145.4144.0625.1712.048.5086.0372.7498-.024.3336-.0847.4517-.0774.4931.0306.03.078.2474.1678.4831.1994.4805.0645.4553.0581 1.5882.4044.4528.1383.8518.223.8866.1883.0348-.0349.1183.0459.1854.1794.0754.1498.3733.332.7782.4757.3716.132.8332.405 1.0647.6297.2248.2183.6357.518.9131.6659.736.3927 2.1038 1.8555 2.255 2.4118.067.2466.175.4814.24.5219.065.0404.1223.3764.1273.7466.006.4176.0521.6493.1225.6104.0623-.0343.0502.0054-.0268.0884-.0771.083-.1401.2193-.1401.3028 0 .0834-.1511.313-.3358.51-.1846.197-.3364.4086-.3372.4702-.001.0616-.1613.2382-.3565.3923-.1952.154-.4091.3313-.4753.3937-.235.2216-.6851.4685-.9919.544-.171.0422-.4989.2462-.7285.4534-.2296.2072-.6029.4278-.8295.4902-.2266.0624-.8095.416-1.2953.7858-.689.5246-.925.649-1.073.5662-.1044-.0584-.1956-.0659-.2027-.0166a6.5569 6.5569 0 00-.028.2575c-.01.1066-.1377.1703-.3513.1747-.7833.0161-1.3796.2156-2.166.7245-.6908.447-.9452.5471-1.5583.6127-.4203.045-.9293.187-1.194.333-.2539.1399-.6506.3156-.8815.3903-.231.0747-.4832.221-.5604.3252-.1801.2427-.7268.5-1.1174.5257-.1675.011-.4876.166-.7114.3445-.856.6824-2.3503 1.7253-2.472 1.7253-.07 0-.19.0757-.2668.1682-.2066.2489-.5604.2135-.5604-.056 0-.1234.0378-.2243.084-.2244.0463 0 .2186-.1135.3829-.2522.1643-.1386.3913-.3159.5044-.394.1777-.1227.1525-.1323-.1867-.0709-.2276.0412-.553.2301-.7753.4502-.2106.2085-.4628.3786-.5604.3779-.11-.0008-.0286-.117.2149-.3064.2157-.1678.6192-.5083.8966-.7566.7309-.6542 1.5747-1.3316 1.9614-1.5745.5132-.3224 1.289-.9637 1.289-1.0656 0-.2183-1.859.574-2.0511.8743-.0493.077-.1432.1401-.2086.1401-.0654 0-.36.2018-.6545.4483-.2945.2466-.6223.4484-.7285.4484-.1062 0-.434.2017-.7285.4483-.563.4714-.993.5692-1.2327.2804-.077-.0927-.2539-.147-.3953-.1214-.269.0488-.39-.1519-.4273-.7095-.0254-.3788-.1938-.3959-.676-.0687-.2293.1556-.485.283-.568.283-.0831 0-.1796.074-.2143.1645-.0348.0905-.242.2393-.4604.3305-.2184.0913-.3971.246-.3971.3436 0 .2469.6393.8482.8258.7767.0995-.0382.26.1491.4594.536.1686.327.4882.7837.7103 1.0149.222.2312.363.4203.3133.4203-.0497 0 .0535.1642.2294.3648.208.2372.3742.6119.4752 1.0708.2748 1.2478.9162 1.5163 3.395 1.421.883-.034 3.2445-.0475 5.248-.0301 3.5419.0307 10.1805.0292 12.1046-.0027 1.7177-.0285 2.6596.0775 2.9897.3366.144.113.9137.2253 1.4228.2076.177-.0062.6308.1362 1.0087.3163.378.1802.8889.39 1.1354.4663.6248.1934 1.2296.51 1.5438.8083.4976.4723.756.645.9649.645.1146 0 .3284.178.475.3956.1467.2175.4054.4697.5749.5604.1695.0907.4504.2397.6241.331.4417.2324.9402.8873 1.3711 1.801.3504.743.3663.8342.346 1.9838-.0117.6626-.0647 1.3193-.1178 1.4591-.1253.3296-.6954.9786-.8595.9786-.07 0-.3993.2547-.7316.5661-.3324.3114-.7712.701-.975.866-.204.1649-.4756.4692-.6035.6762-.2657.4299-1.3522 1.5493-2.8753 2.9625-.9068.8413-2.0347 2.2483-2.0347 2.5381 0 .0519-.0926.2146-.2058.3616-.3013.3913-1.2132 2.162-1.3645 2.6495-.0717.231-.2008.5773-.2871.7697-.0863.1924-.2083.6715-.271 1.0647-.0629.3932-.165.9671-.2272 1.2754-.062.3082-.1633.989-.225 1.513-.0615.524-.1846 1.2806-.2734 1.6812-.0888.4007-.25 1.1573-.358 1.6812-.1082.524-.2616 1.0788-.341 1.233-.0794.154-.1446.3758-.145.4927 0 .1169-.18.4827-.399.8128-.6125.9226-.869 1.8289-.81 2.86.03.5232.1194.966.2285 1.1324.3279.5005.188 2.4404-.1865 2.5841-.1251.048-.1965.2379-.3442.9162-.0134.0616-.0321.2284-.0415.3705-.0261.3955-1.084.8444-2.0906.8872-1.367.058-1.6752.0949-1.9193.2292-.3234.178-2.0595-.0936-2.0595-.3222 0-.055-.0925-.1-.2055-.1-.113 0-.2422-.0367-.2871-.0816-.0449-.0449-.8477-.0704-1.784-.0567-1.0568.0154-1.851-.0244-2.0945-.105-.2158-.0713-.5184-.1408-.6725-.1543-.1541-.0136-.724-.1818-1.2663-.3739-.5424-.192-1.1134-.3492-1.2689-.3492-.1556 0-.3567-.0739-.447-.1642-.1363-.1363-.529-.1558-2.3176-.115-2.1685.0494-2.4742.0678-3.4985.211-.3082.0431-.9135.098-1.345.122-2.3714.1315-3.0392.1673-4.3136.2315-.7697.0388-1.4322.0907-1.4722.1154-.0399.0247-.8728.0722-1.8507.1056-1.5295.0523-3.845.2225-4.5802.3368-.1233.0192-.2872.039-.3642.0442-.0771.005-.1401.0612-.1401.1246 0 .0698.3205.1091.8125.0997.447-.0085.9387.0145 1.0928.0512.1541.0367.4567.1.6725.1408s.5026.1461.6374.234c.1348.088.3365.1454.4483.1274.1118-.0179.3666.05.5663.1508.1998.1008.5144.2165.6992.2571.1848.0406.4376.203.5618.3608.1241.158.344.3.4885.316.1446.0158.4345.1194.6442.2303.2098.1108.4835.1896.6082.1751.131-.0152.3645.1175.5533.3147.1797.1875.438.3409.5743.3409.1482 0 .3904.1688.6032.4203.1956.2312.453.5283.572.6603.119.132.2164.2739.2164.3154 0 .0415.1503.202.334.3565.3166.2665.5845.6539.7386 1.068.0943.2535.5144.342 1.0256.216 1.0566-.2605 1.8945-.4804 2.0488-.5377.0925-.0344.3183-.082.502-.1057.1836-.0237.814-.1638 1.401-.3113.5869-.1475 1.395-.3272 1.7956-.3992.4007-.072.9464-.2267 1.2127-.3436.2663-.1169.8959-.2906 1.399-.386.5031-.0955 1.1346-.28 1.4033-.41.2687-.1302.7235-.2617 1.0108-.2924.2872-.0307.587-.1072.666-.17.082-.0651.757-.1109 1.5691-.1064.784.0043 1.6523.0053 1.9297.0021.2774-.0032.6054-.0052.7289-.0046.1234.0007.4591.1115.7459.2463.2868.1348.5892.2335.6721.2195.083-.014.3945.0835.6924.2168.298.1333.5886.2424.646.2424.1162 0 .5745.2418.6616.3492.1367.1682 1.0263.5474 1.2845.5474.181 0 .2847.0626.2847.1716 0 .0944.0852.2044.1892.2443.1041.04.3981.2906.6533.5569.2552.2663.5186.4842.5853.4842.0667 0 .2393.1447.3835.3215.8675 1.0636 1.0442 1.3008 1.0221 1.372-.0135.0435.0474.3556.1354.6934.099.3803.1393.9016.1055 1.3688-.0536.7416-.1085.8738-.8526 2.0544-.1034.164-.2843.4748-.4019.6906-.7818 1.4344-.9232 1.7242-.9232 1.8926 0 .1037-.1532.279-.3404.3896-.3227.1907-.8925.9482-.8925 1.1867 0 .061-.126.3867-.2802.7236-.154.337-.2802.6402-.2802.674 0 .0338-.1513.3738-.3362.7556-.185.3817-.3363.7893-.3363.9058 0 .1164-.0513.3074-.1139.4245-.0627.1171-.1642.7064-.2257 1.3096-.0615.6032-.1318 1.248-.1564 1.433-.0246.1848-.1021.79-.1724 1.3449-.0703.5548-.1993 1.16-.2868 1.345-.0875.1849-.2397.5801-.3382.8783-.2594.7854-1.1391 2.6196-1.5261 3.1821-.183.266-.576.9742-.8732 1.5739-.2973.5997-.722 1.359-.9436 1.6871-.2218.3282-.4632.8073-.5366 1.0648-.0734.2574-.1921.5437-.2638.6362-.0717.0925-.1959.3336-.276.536-.08.2022-.2833.541-.4517.7529-.1683.2119-.3717.5438-.452.7376-.0803.1938-.4583.6646-.84 1.0463-.3817.3817-.8798.9687-1.1069 1.3044-.227.3357-.6082.7617-.8468.9466-.2387.185-.491.4571-.5606.6048-.2085.4423-.5796.8983-1.3675 1.6803-.7821.7763-1.321 1.4457-1.7692 2.198-.1469.2467-.346.5409-.4425.6539-.0965.113-.1613.3406-.144.5057.0486.463-.4868 1.5717-.8202 1.6984-.2817.1071-.3183.2158-.2852.8454.033.6267-.686.957-1.286.5909zm-48.3046-4.2382c.0386-.1216.2586-.2486.564-.3255.2754-.0693.5007-.1738.5007-.2321 0-.0584.1098-.2084.244-.3335.1343-.125.2123-.259.1735-.2979-.0388-.0388-.1522.0111-.252.111-.0998.0997-.2745.1814-.3883.1814-.1137 0-.2236.0387-.2442.086-.0205.0474-.3021.2544-.6258.46-.3236.2057-.5884.4374-.5884.5149 0 .2148.542.0705.6165-.1643zM84.08 78.7892c.1773 0 .3535-.0504.3916-.112.0381-.0617.2006-.1122.361-.1122.1605 0 .5484-.0733.862-.163.7642-.2182 2.2424-.504 2.8825-.557.2854-.0237.8034-.102 1.151-.1743.3477-.0721.795-.1201.9942-.1066.3415.0232.8253-.0585 1.2027-.203.0924-.0353.2294-.0545.3043-.0426.0749.012.6168-.1062 1.2043-.2625.5875-.1563 1.2168-.2842 1.3983-.2842.1816 0 .3603-.0488.3972-.1085.0368-.0596.207-.0804.3782-.0461.1712.0342.5233.0052.7825-.0647.2591-.0697 1.1385-.1504 1.954-.179.8155-.0288 1.6341-.0768 1.819-.1067.185-.0299.7272-.0873 1.205-.1276.4777-.0402.8685-.1039.8685-.1414 0-.058-.3376-.2922-1.2272-.8512-.0981-.0616-.3365-.2256-.5296-.3643-.389-.2793-.6138-.311-.946-.1332-.5185.2776-1.3023-.303-1.7027-1.2612-.0918-.2197-.2225-.4339-.2904-.4758-.068-.042-.1235-.148-.1235-.2357s-.2052-.6016-.456-1.1422c-.2507-.5406-.514-1.109-.585-1.263-.071-.1542-.2582-.482-.416-.7286-.451-.7044-.5535-.976-.5496-1.457.0061-.7428-.1333-1.3757-.3453-1.5675-.1847-.1672-.272-.1628-1.1323.0568-.5127.131-1.0355.2936-1.1617.3616-.212.114-.4437.1775-1.3504.3697-.185.0392-.4952.1423-.6894.2292-.1943.0868-.4084.1579-.476.1579-.0674 0-.438.1096-.8236.2436-.5435.189-.925.239-1.6993.2233-.5534-.0113-1.1651.04-1.3725.115-.3083.1114-.4677.1034-.907-.046-.293-.0996-.6621-.209-.8202-.2433-.3443-.0746-1.4395-1.1091-1.6742-1.5816-.0919-.1849-.361-.586-.5979-.8914-.237-.3054-.6017-.8945-.8106-1.3093l-.3797-.7541.4168-.2577c.4572-.2825.3756-.2784 3.1094-.1577 1.2038.0531 1.899.0392 2.1134-.0423.1757-.0668 1.1085-.274 2.0729-.4606.9643-.1865 2.3586-.484 3.0983-.6612.7397-.1772 1.5215-.3572 1.7372-.4001.2158-.043.468-.1425.5604-.2212.0925-.0788.3315-.178.5311-.2203.1997-.0425.3972-.1325.439-.2.1264-.2047.2828-1.0134.272-1.4076-.0056-.204.0417-.4675.105-.5858.0903-.1688.0644-.2658-.1203-.4505-.1355-.1355-.2068-.3097-.1681-.4106.1115-.2908-.048-.6186-.2725-.56-.1105.029-.249.021-.3076-.0177-.1354-.0893-.4786-1.0996-.4786-1.4089 0-.3706-.4115-1.0416-.9882-1.6112-.2922-.2886-.5983-.676-.6802-.861-.163-.3683-.485-1.5291-.4358-1.5713.017-.0144.25-.1369.518-.272.4294-.2166.6007-.2378 1.4408-.178.5245.0373 1.0113.0223 1.0819-.0333.2191-.1727 1.3097-.2667 1.4775-.1274.0836.0694.359.1415.612.1604s.491.0654.529.1033c.038.038.288.069.5557.069.3481 0 .5415.0639.6788.2242.1055.1233.2754.2241.3774.2241.102 0 .2483.0757.325.1682.0768.0924.2469.1689.378.1698.2925.0021.4576.1083.5473.352.0376.102.2178.2184.4005.2585.1827.0401.421.171.5293.2908.1085.1198.31.2178.4478.2178.1697 0 .272.0851.3169.2635.04.1597.2546.364.5445.5185.2631.1403.6175.4517.7876.692.17.2404.4333.4936.5851.5628.1645.0749.3291.289.4074.5295.0723.2221.2533.5272.4022.678.1775.1797.2506.3545.212.5078-.0391.1564.0157.2802.1657.374.1233.077.2727.2519.332.3886.3144.7261.5327.9065.8472.7004.346-.2267 1.029-.332 1.2053-.1857.0853.0708.4505.1076.8576.0864.6797-.0353 1.2419.1185 1.4066.385.0363.0588.1107.0792.1654.0454.0547-.0338.2656.0077.4686.0922s.4266.1342.4967.1105c.0701-.0237.3223.0678.5604.2033.2381.1356.559.2588.7131.2737.3237.0315 1.495.5142 1.5504.639.0206.0462.1646.084.32.084.1762 0 .4577.167.7472.4433.2556.2438.6916.6605.969.926.7028.6728.9282 1.2084.9253 2.1987-.001.4107-.0676.5534-.4301.9246-.2358.2414-.5125.439-.615.439-.1024 0-.3145.1009-.4712.2241-.1568.1233-.3623.2242-.4568.2242-.0945 0-.201.0472-.2368.105-.114.1843-.7566.4554-1.0797.4554-.1719 0-.3423.0483-.3787.1073-.0365.059-.2034.1057-.371.1038-.6295-.007-1.7087.3752-2.1737.77-.1068.0908-.4214.159-.7285.1582-.2973-.0008-.6485.0507-.7805.1145-.1616.0781-.3056.0792-.4411.0034-.1343-.0752-.283-.0753-.4472-.0005-.2303.105-.4405.0771-1.5692-.2078-.3487-.088-.5088.6104-.5126 2.2355-.003 1.4275.1252 2.2645.4163 2.7087.254.3876.2424 1.3008-.0221 1.7553-.2952.5071-.6415 1.4406-.5635 1.5187.0346.0345 1.0108-.0063 2.1694-.091 1.1586-.0845 2.2075-.1452 2.3307-.135.3959.033 3.4406-.3029 3.629-.4003.1-.0517.4172-.1282.705-.1699.2878-.0417.584-.149.6582-.2385.0742-.0894.2709-.1626.437-.1626.1663 0 .5572-.0757.8688-.1682l.5665-.1683.0573-.5883c.0419-.4302.004-.6937-.1412-.9806-.2339-.4622-.2209-1.2073.0272-1.5615.095-.1354.147-.3434.116-.4622-.0378-.1444.0592-.3241.2926-.5421.192-.1794.349-.405.349-.5016 0-.0965.1727-.348.3837-.559.3732-.3732.6537-1.007.8504-1.9215.1256-.5834.208-.8829.8333-3.0262.6122-2.0984 1.5226-4.4627 1.9257-5.0012.3869-.517.7143-1.1671.7143-1.4185 0-.256.6678-1.1457.8599-1.1457.197 0 .7458-.976.666-1.184-.0365-.095.003-.2835.088-.419.0848-.1355.1857-.4265.2242-.6466.0385-.2202.1954-.5705.3488-.7784.1534-.2078.2788-.4323.2788-.4988s.1714-.3811.381-.6992c.2094-.318.4994-.7953.6444-1.0605.145-.2652.377-.6539.5157-.8638.1817-.275.2522-.5474.2522-.975 0-.5635-.0238-.6122-.4763-.9735-.7147-.5706-1.2848-.8651-1.7565-.9076-.233-.021-.4799-.073-.5487-.1154-.0688-.0425-.7697-.1004-1.5578-.1287-.788-.0282-2.5928-.1074-4.0106-.176-2.1634-.1047-8.8794-.0653-10.0312.0587-2.0438.2201-5.5094.708-6.0558.8526-.2177.0575-.7977.158-1.289.2233-.4912.0653-1.1453.1882-1.4535.273-.3082.0848-.9891.2643-1.513.3988-.524.1345-1.0158.2962-1.0929.3595-.077.0632-.14.084-.14.046 0-.0733-.6474.1543-1.4279.5022-.2613.1165-.54.2118-.6195.2118-.0794 0-.2439.0684-.3655.1521-.1215.0837-.4228.2164-.6694.2948-.2465.0785-.4987.1818-.5604.2296-.0616.0477-.4146.1735-.7845.2793-.3699.106-.7734.2484-.8967.3167-.1232.0683-.2998.1343-.3922.1465-.58.0769-3.4474 1.4459-6.2864 3.0012-.3445.1888-1.1263.6168-1.7373.9512-.611.3344-1.136.637-1.1669.6725-.0308.0354-.4847.281-1.0087.5458-2.0453 1.0333-7.553 4.3215-8.0418 4.801-.1887.1852-.1764.3397.0334.4202.0954.0366.2252.2152.2886.397.0633.1816.2342.4083.3797.5036.1456.0954.4922.4923.7703.882.278.3896.6343.7774.7917.8616.1574.0842.2862.2088.2862.2768 0 .068.1434.299.3187.5134.1752.2144.3518.5246.3922.6894.0405.1648.1997.4495.3538.6326.1541.1832.2802.3941.2802.4688 0 .0746.1513.3598.3363.6339.1849.274.3362.5214.3362.5497 0 .1192.839 1.2383 1.0309 1.375.1632.1163.1932.2324.1372.5306-.0528.2818-.0097.4866.1647.7822.13.2203.2363.4944.2363.6091 0 .1163.1684.3127.3806.4438.2138.1321.4134.3657.4553.5327.041.1636.1724.4217.2919.5736.1194.1519.2172.3327.2172.4017 0 .0691.1891.3353.4203.5915.9233 1.0233 1.1995 1.7029 1.1667 2.8706-.0158.5649.0405.9036.2196 1.3198.277.6438.4794.7986.8567.6551.146-.0555.4104-.1009.5877-.1009zm39.968-22.8446c-.0394-.064-.0172-.15.0496-.1913.1665-.103.2255-.021.1144.1588-.0596.0963-.1174.1078-.1639.0325zm-10.039-20.5258c.2134-.1824.4412-.3337.5061-.3362.065-.0025.292-.1936.5044-.4247.3423-.3723.348-.3875.05-.134-.185.1573-.5254.383-.7566.5016-.2311.1186-.4203.249-.4203.29 0 .041-.126.106-.2802.1448-.154.0386-.2801.1198-.2801.1802 0 .2053.2873.1111.6767-.2217zm1.9154-1.4336c.1394-.1777.1354-.1817-.0423-.0423-.1079.0846-.1961.1729-.1961.1961 0 .0923.092.033.2384-.1538zM60.991 123.958c0-.0576.0997-.158.2216-.2232.1778-.0951.2093-.0865.1595.0434-.0724.1885-.3811.3342-.3811.1798zm.7253-.454c-.0317-.0511.015-.134.1039-.184.0887-.05.178-.1666.1985-.259.0437-.1984.4073-.4388.6721-.4444.1028-.002.2066-.0633.2308-.1359.0242-.0725.104-.0948.1775-.0494.223.1378.1506.2718-.1868.346-.176.0386-.5043.239-.7293.445-.225.2062-.4351.333-.4667.2818zm1.8525-1.3277c0-.055.0798-.1307.1773-.1681.2531-.0971.2716-.088.1995.1-.069.1798-.3768.2354-.3768.068zm.5604-.3323c0-.1091.343-.3522.497-.3522.0349 0 .0634.0756.0634.1682 0 .0925-.0463.168-.1029.168-.0566 0-.1827.0307-.2802.068-.0975.0375-.1773.014-.1773-.052zm.9744-.4238c-.0394-.0395-.0462-.113-.015-.1633.0698-.113.3856-.003.3856.1348 0 .115-.2638.1353-.3706.0284zm44.0258-85.2213c-.0915-.1479.0425-.3578.1758-.2754.1362.0841.1353.3875-.001.3875-.058 0-.1366-.0505-.1747-.1121zm2.4097-6.3205c0-.0243.0783-.0741.174-.1108.0997-.0383.1446-.0195.1054.044-.0658.1065-.2794.1575-.2794.0668z" id="path3597" fill="#000" stroke-width=".1121"/>
  </g>
</svg>
