<svg xmlns="http://www.w3.org/2000/svg" viewBox="0 0 210 297" version="1.1" id="svg3761">
  <g id="layer1">
    <path d="M27.255 274.9614c-.5618-.0693-2.0692-.3677-2.974-.5888-1.2925-.316-3.195-1.871-3.7407-3.0581-.1558-.3387-.4233-.8198-.5945-1.0689-.1712-.2492-.7018-1.2155-1.1792-2.1478l-.8679-1.695.0207-1.9827c.0114-1.0904.0598-2.1685.1077-2.3956.3096-1.4669 1.2512-3.4934 2.0646-4.4437.5926-.6923 2.752-2.2201 3.1379-2.2201.124 0 .2255-.0993.2255-.2203s.1396-.2203.3102-.2203c.1706 0 .4122-.1236.537-.2746.5451-.6603 1.474-.872 3.7912-.8637 2.167.0103 2.2505.0207 3.6225.6016.7724.3268 1.4415.6416 1.487.7002.0454.0584.5154.4308 1.0445.8266.8844.662 1.9294 1.901 1.9294 2.2877 0 .1975.8144 1.8323 1.0834 2.1746.3413.4338.7076 3.8.4136 3.8-.0964 0-.1753.0719-.1753.1597 0 .088.1116.1174.2479.0651.2983-.1142.305.0817.0778 2.2534-.204 1.9485-.3643 2.4426-1.232 3.7964-.38.5926-.6846 1.1272-.677 1.1881.0243.197-.7806.9633-1.0121.9633-.1236 0-.7984.3242-1.4995.7204-1.442.8149-1.8896.9751-3.753 1.3434-1.6973.3356-1.898.3604-2.3956.2994zm.6608-1.126c0-.1376-.0716-.379-.1592-.537-.0875-.1577-.3074-.6103-.4886-1.0056l-.3295-.7188.5196-.438c1.3144-1.1074 1.206-1.0736 1.6713-.5206.6006.7139.9342.655.9342-.165 0-.4772.0688-.6609.2479-.6609.1363 0 .2478.0765.2478.1707 0 .363.7184.4452 1.2338.1412.7417-.4375 1.6316-1.4082 1.4945-1.63-.0862-.1396-.1903-.1287-.3903.0414-.4261.36-1.508.948-1.7435.948-.117 0-.337-.1371-.4888-.3052-.259-.286-.2533-.3345.0926-.7847.2027-.2637.4294-.523.5038-.5757.1518-.1076-.0109-.6477-.1953-.6477-.0653 0-.2933.1857-.5068.4132-.4842.5155-.6206.517-.8517.0103-.151-.3315-.121-.5094.1688-1.0007.3963-.6717.4394-.9091.1652-.9091-.2609 0-.932.8123-1.1225 1.3583-.1188.3413-.0989.514.08.6928.2926.2926.316 1.0901.0321 1.0826-.3208-.0103-.8732-.5327-1.1313-1.0736-.1612-.3377-.3754-.5068-.6873-.5428-.2492-.031-.453-.0207-.453.0207s.3345.5706.7434 1.1804c.409.6098.7435 1.1684.7435 1.2414 0 .0729-.2788.3418-.6196.598-.3408.2559-.6684.5365-.728.6237-.0596.0874-.3324-.2802-.6062-.8173-.739-1.4489-.907-1.6419-1.1619-1.3347-.1699.2048-.1201.422.2774 1.2127.2663.5299.6544 1.3723.8623 1.8721.3814.9166 1.2924 2.2985 1.5216 2.308.0682.003.124-.1076.124-.2452zm4.9148-2.6158c.706-.4468 2.0244-1.7205 2.0244-1.956 0-.0863.1765-.3935.3922-.6827.6849-.9182 1.0028-2.179 1.0077-3.9955.004-1.542-.2932-3.2218-.5703-3.2218-.0653 0-.2316-.2875-.3695-.6387l-.251-.6388-.8265.0796c-.9063.0874-1.1624-.0889-.8519-.5863.2577-.4126.07-1.364-.3825-1.9392-.5432-.6905-2.664-2.0017-3.5527-2.1963-1.4386-.3149-2.0034-.3707-2.1047-.2068-.1277.2068.322.4473 1.1118.5957.7807.1463.8997.3392.4891.793-.8961.9898-1.87 3.0856-1.4339 3.0856.1278 0 .5467-.4525 1.1833-1.2786l.4125-.535.4403.4525c.669.6872 1.4857 1.3612 1.6496 1.3612.0805 0 .2381.1106.3502.2456.1656.1996.1221.4023-.2311 1.0777-.383.7323-.403.8444-.167.935.1474.0563.3274.005.4-.1107.0725-.1174.2486-.1686.3912-.1138.1718.0657.351-.0558.5307-.3599.2554-.4323.3258-.455 1.203-.3883 1.0877.0833 1.3769.3454 1.7573 1.5938.6541 2.1473-.0445 5.1168-1.6462 6.9961-.6204.728-1.8465 1.6087-3.2718 2.3501-.7124.3708-1.1117.6797-1.1119.8606-.0001.2306.256.1484 1.4038-.452.7722-.4038 1.683-.9108 2.0239-1.1265zm-1.28-12.018a91.9693 91.9693 0 01-.9913-.8176c-.318-.2663-.7198-.5857-.8927-.71-.3022-.2166-.294-.247.207-.7714.4903-.513.5397-.5294.8232-.273.1659.15.383.273.4824.273.3388 0 1.2089.864 1.4492 1.439.4343 1.0396-.2145 1.5572-1.0778.86zm-6.6998 13.5757c.0517-.0832-.4848-.7339-1.1917-1.4456-.707-.7117-1.4885-1.5418-1.7367-1.8444l-.4512-.5502.7513-.9563c.4133-.526.8253-1.2241.9157-1.5515.1544-.559.2144-.6018.9918-.7049.6399-.0848.8156-.1701.7752-.3764-.0596-.304-.901-.331-3.2264-.1034-1.17.1148-1.363.0977-1.363-.1185 0-.3417.3035-.5614.974-.705.3457-.074.837-.4038 1.2802-.86l.7193-.74 1.1722.1975c1.2156.2047 1.6096.0998 1.4251-.3811-.0792-.2064-1.6674-.4902-4.8274-.8621-.1817-.0207-.3454-.0465-.3638-.06-.018-.0103.0678-.2616.1915-.5558l.2248-.5346 1.4607-.002c1.343-.002 1.4735-.031 1.6194-.364.0873-.1991.3066-.4003.4873-.4473.3407-.089 1.4192.4731 1.4192.74 0 .0832.1859.1515.4131.1515.7295 0 .4534-.4437-.7848-1.2609-.6588-.4349-1.2958-.925-1.4156-1.0893-.1199-.1645-.272-.2653-.3384-.2245-.0663.0414-.2275.0103-.3582-.0724-.1988-.123-.1825-.1985.0998-.4612.1856-.1732.6198-.4075.9648-.5215.7087-.2337 1.0345-.0553 1.1686.6407.1433.7443.3785.8523 1.0253.4705.4718-.2787.5433-.3826.361-.5252-.1251-.0977-.376-.4643-.5576-.8148-.3972-.7661-.8813-.9837-1.9906-.8952-.6364.0517-1.0563.2208-1.7698.7167-.5145.3574-.9383.711-.9418.7857-.003.0745-.3036.4881-.6671.9193-.3635.4312-.6609.8362-.6609.9003 0 .064-.1858.411-.413.7709-.2272.3599-.4131.8268-.4131 1.0375 0 .211-.0768.4602-.1707.554-.0939.0941-.1777.5192-.1863.945-.009.4261-.0884.8193-.1773.8743-.0964.0595-.0712.1587.0623.2446.1858.12.1818.1722-.0238.3071-.1657.1086-.1794.1634-.0414.165.2473.003.2748.529.0398.7639-.2091.2089.3882 2.6446.7455 3.0394.136.1505.2471.3454.2471.4338 0 .2488 1.3846 2.0921 1.9779 2.6335.292.2663.7521.6882 1.0225.9372.9553.88 1.3562 1.089 1.5347.8zm-4.0862-5.342c-.5295-1.4473-.5329-1.4186.1648-1.3827.8545.0414 1.025.1851.9488.7865-.069.5457-.4851 1.2985-.7177 1.2985-.0764 0-.2546-.316-.3958-.7022zm-.4075-4.2166c.0445-.592.0721-.6176.7047-.659.3621-.026.7698.031.9061.1189.2109.1375.1863.2213-.1652.5597-.2271.2188-.6558.4427-.9525.497-.5363.0988-.5393.0957-.493-.5166zm1.9-3.2952c-.5858-.0889-.5726-.2079.1078-.9726l.5623-.6318.5114.5.5115.5-.3367.3615c-.3319.3563-.4587.379-1.3563.243zm14.3327 7.8836c.0562-.091.0279-.165-.0631-.165-.0908 0-.2112.0746-.2674.165-.0562.091-.0279.165.0631.165s.2112-.0745.2674-.165zm-3.2218-1.083c0-.5532.0253-.5748.9913-.8433 1.2159-.3382 1.3412-.7172.237-.7172-1.0169 0-1.3935-.2249-1.3935-.8319 0-.501.004-.5031 1.0413-.5637.269-.0155.6019-.347.6084-.6055.005-.1867-2.3829-.3077-3.3526-.1701-.9435.134-.9634.1282-1.202-.333-.2692-.5204-.434-.578-.7084-.2472-.2662.3206.2551 1.7497.9722 2.6653.4233.5404.729.762 1.1541.8369.9071.1597.9914.2084.9914.5772 0 .4665.3094 1.0181.504.898.0862-.0534.1569-.3527.1569-.6649zm-1.763-1.866c-.3006-.09-1.1819-.9843-1.0164-1.0313.7787-.2213 1.1732-.136 1.6292.3526.674.7215.4304.9914-.6129.6789z" id="path75-3" fill="#fe0000" fill-opacity="1" stroke-width=".1652"/>
    <path d="M114.5192 277.3318c-.5896-.0584-.8527-.1614-1.344-.526-1.166-.865-1.4789-.9588-2.9593-.887-1.8715.091-2.4363.143-2.5914.2388-.0748.0462-.3916.1091-.7041.1397-.3125.0306-1.0949.187-1.7387.3474-1.4941.3724-2.209.474-2.209.314 0-.1787-.581-.1524-.642.0291-.04.1189-.0969.1153-.256-.016-.1407-.1162-.5006-.1626-1.1535-.1486-.6447.0138-1.0698-.04-1.3258-.1678-.5487-.2737-1.3765-.4013-2.1738-.3352-.6325.0525-.6947.0362-.659-.1718.03-.1735-.0453-.2394-.3073-.2694-.2304-.0264-.4152-.1588-.5499-.394-.1134-.1979-.3455-.3856-.5262-.4254-.378-.0832-.7409-.4428-.6898-.6835.0196-.0924-.0468-.1706-.1476-.1737-.4318-.0133-1.1384-.5772-1.2792-1.0208-.0447-.141-.1552-.2565-.2455-.2565-.2572 0-.7969-.7185-.7969-1.0608 0-.17-.1398-.4752-.3106-.6782-.271-.3221-.3002-.4411-.229-.934.0866-.5985.2536-.9106.4292-.802.1222.0755 2.0512-1.363 2.6517-1.9775.2216-.2268.4526-.4124.5132-.4124.0606 0 .1542-.0687.208-.1527.0537-.084.345-.352.6475-.5955 1.1444-.9216 4.7652-4.4507 4.7652-4.6446 0-.0633.2225-.3465.4944-.6295.4463-.4645.487-.5582.4182-.9648-.0696-.4122-.0442-.4667.3-.6447.2067-.107.3759-.2727.3759-.3685 0-.0957.0744-.218.1654-.2717.2062-.1218.4889-.645.3977-.736-.0816-.0817-1.907.2308-1.9078.3265-.0004.037-.2308.0806-.5121.0968-.2814.0162-.567.085-.6348.1528-.0678.0678-.2224.1232-.3436.1232-.1212 0-.4255.11-.6763.2444-.2508.1344-.529.2444-.6183.2444-.0893 0-.463.1374-.8302.3054-.3673.168-.7212.3055-.7864.3055-.0652 0-.1186.0462-.1186.1028 0 .0565-.2886.259-.6414.4499-.8547.4625-1.5652 1.0597-3.3034 2.7769-.7993.7896-1.5228 1.4357-1.6078 1.4357-.1874 0-1.0608.9687-1.2944 1.4355-.0925.1849-.2385.4221-.3245.5272-.1888.2308.0025 2.1653.268 2.7096.0898.1842.1985.514.2415.7332.0796.4052.2322.814.468 1.2536.3861.72 1.1438 2.382 1.2253 2.688.3465 1.3005.114 2.1725-.6342 2.3791-.2272.0627-.5223.213-.6558.3338-.2568.2325-1.1794.284-1.8315.102-.237-.066-.3873-.0364-.5278.1041-.3066.3066-.7316.3584-1.1831.144-.449-.213-.8273-.3185-1.3438-.3748-.3435-.0375-1.4292-.8767-1.4362-1.1102-.0022-.073-.2762-.348-.6088-.611s-.6853-.6706-.7838-.9058c-.0984-.2352-.3833-.6476-.6331-.9164-.2498-.2688-.5568-.7267-.6823-1.0176-.1254-.291-.4173-.8518-.6485-1.2464-.8093-1.3807-1.3125-2.6895-1.431-3.7215-.0615-.5367-.222-1.279-.3565-1.6495-.369-1.0167-1.342-4.6293-1.3496-5.0113-.002-.1008-.0518-.4337-.1108-.7398-.376-1.954-.4724-4.0203-.2352-5.0441.2005-.866.5837-1.8022.8614-2.105.1273-.1387.2314-.3137.2314-.3888 0-.075.1787-.2608.3971-.4128.2184-.152.5542-.4262.7461-.6093.3532-.337.8985-.5516 1.04-.4094.0425.0427-.0525.1828-.2112.3114-.2649.2147-.269.2339-.0502.2339.2469 0 .522.4459.522.846 0 .123.0824.2922.1832.3758.1008.0837.1833.2618.1833.3958 0 .1835.0603.2279.2444.1798.1943-.0508.2443-.004.2443.23 0 .18.0712.2941.1833.2941.1008 0 .1833.0655.1833.1455 0 .0801.0738.0446.164-.0787.1492-.204.2052-.1408.6206.7.2512.5083.5959 1.0248.766 1.1478.799.5775.7571.523 2.0658 2.6889l.4559.7545.7101-.4822c.3906-.2652.7684-.591.8395-.724.0712-.133.2-.2418.2864-.2418.0864 0 .3731-.1799.6372-.3996 1.1335-.9433 2.7466-1.8395 4.8178-2.6766.504-.2037 1.1968-.5022 1.5395-.6632.3427-.161.7001-.293.7942-.2932.0941 0 .3511-.1103.5712-.2444.22-.1342.6095-.244.8655-.244s.501-.0355.5444-.079c.1293-.1292 1.3527-.5173 1.447-.459.0479.0296.2968-.0232.5533-.1172.6863-.2517 3.0166-.6193 4.8633-.7672.4041-.0324.9422-.0757 1.1956-.0964.2535-.0206.4906.0104.5268.069.0362.0586.1586.0628.2722.009.3083-.145 1.7559-.061 2.6501.154.9427.2263 2.684.8782 3.8489 1.4408 1.1107.5364 1.412.7521 2.245 1.6071.529.5432 1.061 1.2163 1.182 1.4958.1212.2794.3141.5606.4288.6248.4792.2682.807 2.1984.5443 3.2047-.079.3024-.1719.7148-.2065.9164-.0658.3836-.5118 1.422-.656 1.5273-.046.0336-.202.2948-.3469.5804-.172.3392-.3446.5193-.4978.5193-.1317 0-.4625.2702-.7537.6155-.4485.5319-.5642.6057-.8505.5428-.3396-.0746-.599.1144-1.9324 1.4076-.8479.8223-1.824 1.5884-2.0239 1.5884-.1212 0-.1668.0562-.1143.141.0514.0832.0338.1081-.043.0608-.202-.125-.531.0504-.5096.2714.0439.4543-.007.5313-.302.4573-.1906-.048-.3894.005-.5695.1505-.2762.2236-.2753.2241.5252.2989.7267.0679 1.2813.0396 1.9964-.1019.1396-.0276.4039-.1893.5873-.3592.2679-.2483.38-.284.5708-.182.1306.07.2375.2076.2375.306 0 .0985.0825.179.1833.179.1115 0 .1832.1138.1832.2906 0 .4246.2038.5184 1.198.5517.4909.0164 1.1964.109 1.5678.2058.3715.0968.716.1508.7657.1201.0497-.0307.2752.065.5012.2128.8048.5261 1.5325.9544 1.9177 1.1285.4001.181 2.361 2.0485 2.5795 2.457.2397.4479.2083 1.0779-.0736 1.4737-.1484.2084-.2698.4167-.2698.463 0 .2077-.4478.6143-.635.5766-.1141-.023-.321.019-.4599.0933-.1597.0855-.3258.094-.4525.023-.2603-.1456-1.5098.1394-1.6898.3855-.0733.1003-.2684.1808-.4335.179-.1652-.002-.4378.0328-.6058.0771-.4731.1248-1.4532.159-2.2604.079zm-19.7928-7.95c.203 0 1.5416-1.1855 1.8129-1.6054.1242-.1923.1885-.3496.143-.3496-.1012 0-1.07.7909-1.534 1.2524-.186.1848-.387.336-.4468.336-.1772 0-1.1503 1.0458-1.0585 1.1376.0463.0463.2766-.1082.5118-.3434.2353-.2352.4925-.4277.5716-.4277zm-10.662-19.8836c-.2732-.0495-.3585-.3294-.1815-.5954.0494-.0742.7908-.4815 1.6476-.905 1.4334-.7086 1.816-.9761 1.3959-.9761-.0892 0-.7627-.0597-1.4968-.1327l-1.3347-.1326-.5592-.57c-.3076-.3134-.6642-.7348-.7925-.9364-.1283-.2016-.4363-.5865-.6844-.8553-.2481-.2688-.6159-.7087-.8172-.9775-.2013-.2688-.5954-.7362-.8757-1.0386-.8893-.9592-1.5861-2.6588-1.5861-3.8686 0-1.1714.635-2.7363 1.512-3.7258.5758-.6497.7022-.8012 1.3072-1.5658.4783-.6045 1.378-1.289 1.5526-1.1811.0603.0373.4488-.2539.8632-.647.4145-.3932 1.0864-.9545 1.4931-1.2475 1.723-1.241 2.0083-1.4691 2.0107-1.6081.0034-.1945-.2779-.3106-.7783-.3211-.2801-.006-.5113-.1153-.733-.3468-.1783-.186-.4677-.4298-.6432-.5416-.1756-.112-.6705-.5687-1.0997-1.0151-.4293-.4464-1.2266-1.2611-1.7718-1.8105-1.2486-1.258-1.7648-2.0454-1.9367-2.9537-.1268-.6699-.096-2.409.0494-2.7913.1544-.4062 1.7739-2.5988 2.1906-2.966.4115-.3625.593-.3712.3346-.016-.3174.4365-.3607.5872-.2115.7363.1046.1046.1919.0643.3486-.161.242-.3479.478-.581 1.3554-1.339 1.1203-.9678 2.255-2.3031 2.1575-2.5388-.0596-.1439-.1051-.1621-.1441-.0576-.0706.1889-.3668.201-.428.0176-.0297-.089-.231-.051-.5905.1119-.3.1358-.7655.3178-1.0343.4044-.2688.0866-.541.2012-.6048.2547-.0639.0535-.2359.0973-.3822.0973-.1464 0-.4789.0889-.739.1975-.362.1513-.6592.1774-1.2673.1114-.437-.0474-1.0044-.1034-1.261-.1243-.5462-.0446-2.7518-1.4631-3.0021-1.9308-.0843-.1575-.4512-.5242-.8153-.8147-.9781-.7805-2.8639-2.7709-2.8647-3.0237-.0004-.1206-.0861-.383-.1905-.5831-.2283-.438-.3497-1.7017-.2094-2.1803l.101-.3447.3219.253c.4288.3374.8048.3193 1.152-.0552.3226-.3481.7075-.3403 1.2515.0256.553.3719.9144.546 1.4842.7153.6005.1783 1.6824.2007 1.7837.0369.035-.0565.239-.1034.4534-.104.2144-.001.6598-.0833.9897-.1834.3299-.1.802-.182 1.0492-.182.2472 0 .9945-.1642 1.6607-.365.6661-.201 1.3486-.3678 1.5166-.371.168-.003.443-.0843.611-.1803.168-.096.5134-.1766.7676-.179.2541-.002.644-.0804.8665-.1733.3432-.1433 1.9497-.4864 2.337-.499.0671-.002.1496-.0336.1832-.0697.0336-.0362.5285-.1591 1.0997-.2732.5712-.1141 1.4235-.2855 1.8939-.3808.4704-.0953 1.4326-.2646 2.1382-.3763.7056-.1116 1.393-.226 1.5274-.254.511-.107 1.729-.3062 2.167-.3546.251-.0277.5015-.0784.5567-.1125.384-.2373 2.5883-.2905 3.2634-.0789.2016.0632.6901.144 1.0856.1794.3955.0355.7951.1277.888.2048.1885.1564.8294.312 1.9518.4742.458.0662.927.2292 1.2084.4201.2528.1716.5293.312.6143.312.1793 0 1.967.9091 2.6827 1.3644.6409.4076 1.9252 1.7868 2.1346 2.2923.2337.5643.0553 1.0144-.4426 1.1163-.5236.107-1.152.5134-1.48.957-.2688.3636-.6774.5342-1.6358.6832-.2902.045-.5156.175-.6443.3715-.1089.1662-.2752.3021-.3696.3021-.0943 0-.2907.1512-.4363.336-.1456.1848-.3283.3386-.406.3417-.0776.003-.2512.0641-.3856.1355-.243.1291-1.5664.124-2.3826-.009-.2352-.0384-1.2799-.0935-2.3215-.1224-1.0417-.0289-2.1082-.1076-2.37-.1749-.347-.0892-.7776-.0736-1.5884.0577-.6118.0991-1.6853.2039-2.3856.233-.7003.029-1.4462.1099-1.6575.1796-.2112.0697-.7654.18-1.2315.245-1.3141.1832-1.343.1909-1.8135.4817-.3755.232-.5006.2538-.8197.1426-.2691-.0938-.447-.0935-.6238.001-.136.0728-.4067.1004-.6016.0615-.2814-.0563-.5306.042-1.2116.4786-.4715.3023-.8864.6254-.922.7181-.0356.0927-.2946.3166-.5757.4974-.4941.318-2.5396 2.5748-2.849 3.1435-.2153.396-.1115 2.7663.1294 2.9538.096.0747.2945.3702.441.6566.423.8267.7175.9944 1.6165.9206.4191-.0344.9545-.1079 1.1897-.1634l1.1608-.2743c.4032-.0953.953-.1816 1.2218-.1916.9433-.0352 2.3754-.3366 2.7762-.5843.0799-.0494.3088-.1077.5088-.1296.2-.0219.7248-.147 1.1663-.2782.8938-.2654 2.383-.5213 4.224-.7258 1.9283-.2143 3.1563-.3949 3.4212-.5032.1344-.055.5425-.1347.907-.1772.3644-.0425.7513-.1247.8597-.1828.119-.0637.5098-.0353.9869.0717.4344.0974 1.1197.227 1.5229.2876.98.1476 1.3969.2844 2.0714.6797.3116.1827.5963.3024.6326.2661.1098-.1098.7145.1085 2.2674.8183.3822.1747.7723.3177.8669.3177.451 0 3.0202 2.0178 3.0202 2.372 0 .0815.1642.3055.365.498.2008.1922.4.5357.4426.763.0714.3807.0262.4622-.5717 1.0294-.6062.5752-.6555.599-.744.3594-.151-.408-.808-.2745-1.414.2873-.1796.1666-.4942.3386-.699.3823-.4015.0856-1.9346.8924-2.0016 1.0532-.0224.0538-.1973.0978-.3887.0978-.1913 0-.8053.1412-1.3644.3137-.559.1725-1.1861.3652-1.3935.4283-.2362.0718-.6072.071-.993-.002-.6966-.1321-1.3448.0554-2.9965.8666-.1167.0573-.3916.1061-.611.1084-.2192.002-.811.167-1.315.3661-.5041.199-.9957.3621-1.0924.3624-.0968 0-.5092.1588-.9164.3524-2.5932 1.233-2.9682 1.3475-2.843.8683.0708-.2705-.2124-.4872-.6367-.4872-.1377 0-.591.165-1.0072.3666-.8714.4221-1.0249.4432-1.182.1626-.0989-.1769-.1637-.1834-.4874-.0493-.2053.0851-.4359.116-.5124.0686-.0766-.0473-.5366-.097-1.0224-.1105-.5993-.0166-.978-.0909-1.1783-.2312-.3985-.2791-.4966-.2657-1.2331.1686-.638.3761-1.053.462-1.5188.314-.1807-.0573-.4666.0778-1.038.4905-.4337.3133-.9213.6999-1.0836.8591-.3576.351-.5473.3117-.5989-.124-.0498-.4204-.1296-.4113-.64.0728-1.0808 1.025-1.8879 2.1618-1.7928 2.5253.0346.1325.0116.697-.0512 1.2546-.1117.9923-.1078 1.0189.1856 1.258.165.1345.3183.382.341.55.0276.2054.1292.318.3102.3437.148.021.303.1448.3443.275.1404.4423.5052.521 1.9456.4199.743-.0522 1.5984-.1062 1.9008-.12.3024-.0137 1.457-.1953 2.5659-.4034 2.4897-.4672 4.6025-.7305 6.598-.8225.84-.0387 2.3246-.1588 3.299-.267.9745-.1082 1.8543-.192 1.955-.1864.6368.036 2.2956.305 2.4727.401.1167.0635.3366.1156.4887.116.1521 0 .424.0777.6044.1718.1802.094.4958.2079.7011.253.2054.045.4048.1328.4431.1948s.1565.1128.2625.1128c.106 0 .639.2131 1.1841.4736.5452.2606 1.3212.626 1.7245.812 1.3502.623 3.1157 1.8638 3.1157 2.1898 0 .0433.275.409.611.8128.336.4037.6163.7725.623.8194.0882.6208.0442.802-.2793 1.1482-.3165.339-.3674.3568-.5008.1762-.1344-.182-.2135-.1617-.835.2136-.8861.535-1.1585.631-1.8928.667-.209.0102-.587.159-.84.3306-.9538.6473-2.4108.9192-3.5168.6563-.505-.12-.6268-.1092-.9164.0816-.4853.3198-1.1408.3993-2.4363.2956-.3644-.0292-.6712.0423-1.055.246-.504.2673-.555.273-.7437.0843-.2493-.2492-1.4795-.202-2.1593.0828-.3106.1302-.7182.1691-1.387.1326-.7084-.0387-1.0423-.003-1.3241.143-.2835.1467-.5605.176-1.1178.1184-.4075-.0421-.984-.1007-1.281-.13-.2984-.0296-.7134.019-.927.1082-.2443.102-.4587.1215-.5815.0528-.1442-.0807-.2148-.0452-.2725.1367-.043.1351-.1705.244-.2836.242-.186-.003-.185-.0158.0108-.1298.2427-.1412.1743-.3553-.1135-.3553-.1035 0-.3614.078-.5732.1733-.421.1895-1.7686.4376-2.3768.4376-.2109 0-.5792.11-.8185.2444-.5263.2957-.94.3258-.8384.0611.088-.2292-.091-.2322-.6218-.0104-.2275.0951-.4437.1429-.4804.1062-.0367-.0367-.2474.0161-.4682.1173-.5001.2292-.9308.312-1.2873.2474zm-1.1303-13.351c0-.0673.055-.1223.1222-.1223.0672 0 .1222.055.1222.1222a.1225.1225 0 01-.1222.1222.1226.1226 0 01-.1222-.1222zm1.3068-17.2214c.0362-.1382.1143-.2513.1737-.2513.1648 0 .1286.1972-.0658.3586-.1425.1182-.1618.099-.1079-.1073zm-.3976-4.104c.3087-.2336.5076-.231.3126.004-.0836.1007-.2416.1815-.351.1793-.167-.003-.1609-.0326.0384-.1832zm.557-.3939c0-.0672.0825-.1906.1833-.2743.1022-.0849.1833-.0981.1833-.0299 0 .0672-.0825.1906-.1833.2743-.1022.0849-.1833.098-.1833.0299zm1.4052-1.4962c-.0416-.0672-.0173-.1222.0538-.1222.0712 0 .1294.055.1294.1222 0 .0672-.0242.1222-.0538.1222-.0297 0-.0879-.055-.1294-.1222zm7.1478-1.2218c0-.0672.055-.1222.1222-.1222.0672 0 .1222.055.1222.1222a.1225.1225 0 01-.1222.1222.1226.1226 0 01-.1222-.1222zm-53.8541-3.0852c.0276-.084.1808-.1718.3403-.195.2533-.037.2695-.0175.1282.1527-.1913.2306-.541.2621-.4685.0423zm.6184-.5113c.0236-.0716.1485-.147.2776-.1675.1292-.0205.4548-.1969.7236-.3919.2688-.195.719-.4668 1.0006-.6039.2815-.137.5436-.3005.5824-.3633.129-.2086-.1767-.2718-.3716-.0768-.2494.2494-.5528.4159-1.4967.8213-.5548.2382-.755.2825-.7064.1562.095-.2475-.165-.2178-.5968.068-.4217.2794-.7942.318-.7942.0826 0-.1603-.144-.1793-1.4967-.197-.3193-.004-.5804-.0306-.5804-.0588 0-.0281.1924-.1701.4276-.3155.2779-.1717.427-.357.4258-.5292-.001-.1458-.0423-.2097-.0916-.1422-.0494.0676-.3015.1969-.5601.2873-.6237.218-.8365.0234-.3632-.332.1896-.1423.4176-.3203.5067-.3956.2446-.2069 1.91-1.0468 2.3889-1.2048.6773-.2236 1.7868-.8652 1.7868-1.0334 0-.085.2886-.309.6414-.4975 1.1314-.6048 2.099-1.2018 2.4247-1.496.1743-.1575.5148-.341.7566-.4077.2419-.0668.668-.3122.947-.5453.2791-.233.552-.4238.6064-.4238.0545 0 .3345-.1967.6221-.437.2876-.2403.9204-.655 1.406-.9216.4857-.2665.9496-.5648 1.031-.6627.0812-.0979.1958-.178.2547-.178.2786 0 1.3201-.8975 1.4398-1.2408l.1317-.3778-.396.0789c-.2178.0434-.4143.1326-.4367.1983-.0224.0657-.1106.1194-.196.1194s-.3031.137-.4838.3045c-.1806.1674-.5754.4423-.8772.6108-.7714.4307-1.1596.6808-1.558 1.004-.19.154-.4244.28-.521.28-.0966 0-.4785.2468-.8487.5483-.3701.3015-.8213.5854-1.0026.631-.3782.0948-.9397.4072-1.7764.9882-.3213.223-.8711.5615-1.2219.752a81.9378 81.9378 0 00-1.1264.6244c-1.0534.599-5.7234 2.931-5.772 2.8824-.0284-.0284.009-.165.0833-.3037.1162-.2172.105-.241-.0818-.1715-.1191.0443-.4018.1832-.6281.3087-.2263.1255-.4366.203-.4673.1724-.1105-.1106.524-.716 1.0756-1.0262.4182-.2351.5483-.3742.505-.5396-.0496-.1897-.0038-.212.3084-.1495.3861.0772 1.119-.1961 1.385-.5165.124-.1494.099-.158-.1651-.0576-.3446.131-.4584.0729-.4584-.2341 0-.2486.3758-.6095.6346-.6095.1032 0 .33-.112.504-.2488.5293-.4164 1.0229-.5397 1.2503-.3122.107.1069.2979.1944.4243.1944.3334 0 .8523-.26.8523-.4269 0-.2492-.145-.3009-.3287-.1171-.235.2349-.4822.2249-.5775-.0233-.0423-.1104-.062-.2087-.0436-.2184.0184-.01.2616-.1704.5406-.3572.365-.2445.6196-.3268.9085-.2938.5274.0602.5662.2324.1128.5002-.2022.1194-.3677.269-.3677.3325 0 .1767.1963.1371.3724-.0751.087-.1047.3487-.27.5818-.3674.2331-.0974.7324-.3865 1.1094-.6424.377-.2558.7956-.5114.93-.5679.2158-.0906.2198-.1085.0343-.153-.1156-.0277-.325.0566-.4654.1874-.2707.2521-1.462.5519-1.6138.406-.1533-.1472.9098-.7496 1.323-.7496.3163 0 .4047-.059.4683-.3124.0627-.2496.1298-.296.334-.2312.1714.0544.2281.0366.172-.0542-.047-.0761-.0029-.1353.1008-.1353.1015 0 .2329-.0865.292-.1921.0591-.1057.3368-.223.617-.2605.2802-.0376.5095-.1102.5095-.1614 0-.1654.3781-.2437.601-.1244.145.0776.2635.0694.3577-.025.1972-.1971.1755-.3363-.0525-.3363-.3243 0-.1413-.2184.4378-.5226.3024-.1589.6187-.4302.7028-.6028.1046-.2146.327-.3654.7026-.4763.4302-.127.5496-.2192.5496-.4245 0-.1962.1317-.3124.5234-.462.2878-.11.6092-.2.714-.2.2296 0 .8398-.5029.8398-.6921 0-.074.0962-.167.2138-.2064.2653-.0891.6118-.3144.9403-.6113.138-.1249.471-.3665.7397-.537.2689-.1704.7087-.4983.9775-.7286.2688-.2303.673-.566.8983-.746.2252-.18.5817-.4873.7923-.6827.2106-.1954.6586-.5461.9957-.7794.337-.2334.7504-.5683.9187-.7444.1683-.1761.457-.3982.6415-.4936.1845-.0954.3355-.2144.3355-.2646 0-.0976.4312-.638.7331-.919.887-.8253 1.5714-1.5505 3.4528-3.6588.3688-.4133.8151-1.3223.822-1.674.001-.0503-.2233-.0915-.4983-.0915-.315 0-.615-.0904-.8107-.2444-.1708-.1344-.3838-.2444-.4731-.2444-.0894 0-.2214-.11-.2933-.2443-.072-.1345-.2424-.2444-.379-.2444-.314 0-.704-.2037-1.0584-.553-.1522-.1498-.4345-.304-.6275-.3426-.193-.0386-.5633-.267-.823-.5074-.2597-.2405-.9702-.8067-1.5787-1.2583-1.5792-1.1718-2.4394-1.9444-2.6966-2.422-.123-.2283-.266-.415-.318-.415-.0519 0-.0944-.0694-.0944-.154 0-.0848-.1305-.2948-.29-.4668-.7812-.8425-1.6115-3.478-1.3058-4.1446.4299-.9373.6964-1.1517 1.1987-.964.1512.0565.4329.071.626.0325.2626-.0525.3936-.01.5193.1687.1465.208.2547.2278.8366.1528.7312-.0942 1.0674-.0476 1.3477.187.1008.0844.5132.1842.9164.2218.4032.0376 1.118.1851 1.5884.3278 1.218.3694 1.9332.5001 3.1003.5669.6452.0369 1.0716.01 1.1546-.0731.0724-.0724.2206-.1316.3294-.1316.4149 0 1.488-.3907 1.7255-.6282.2143-.2142.2953-.2286.5931-.1052.2626.1088.4085.109.6107.001.2167-.116.3089-.103.501.071.1872.1694.2913.186.5091.081.4298-.2073.7716-.2524.9895-.1304.1103.0617.2006.0683.2006.0146s.165-.1084.3666-.1215c.662-.0429.7924-.0692.947-.1911.1008-.0796.2045-.0776.3054.006.1698.1404.2292.1449 2.0466.1534.799.004 1.79-.0884 2.627-.2442l2.016-.3754c1.63-.3037 3.303-.5074 5.9261-.7215.8064-.0658 2.071-.2057 2.8103-.3109.7392-.105 1.784-.2213 2.3215-.2583.5377-.037 1.06-.0956 1.1608-.1304.6384-.22 8.3406-.7637 13.5627-.9573.9744-.0361 2.6789-.1442 3.7877-.24 5.488-.4743 8.7154-.5952 13.2572-.4967 7.086.1536 6.908.1564 7.2518-.114.2787-.2193.538-.2862 1.3522-.3493.1624-.0126.3182-.0916.3462-.1757.028-.084.225-.1582.4378-.1649.2128-.007.5244-.0522.6924-.101.168-.049.429-.0348.5799.0315.2076.0912.3274.0725.4922-.0766.1198-.1084.3262-.196.4587-.1946.1325.001.4608-.0241.7296-.0566.518-.0626 1.0451.0142 1.0086.1468-.0121.0437.0462.2022.1294.3522.1417.2556.209.2682 1.0716.2013.7409-.0574.9623-.0335 1.1348.1226.1354.1225.6161.2357 1.3063.3075 1.6247.169 1.6356.1723 2.5505.787.4661.313.9138.5693.9948.5693.081 0 .4236.2749.7614.611.3378.336.6916.6109.7862.6109.2187 0 .7031.5097.7042.741 0 .0964.11.3403.2435.5419.1336.2016.2432.542.2436.7565 0 .2144.0558.4238.123.4654.277.1712.0218 2.011-.3276 2.3608-.0886.0888-.1612.2417-.1612.3397 0 .0981-.1857.3414-.4127.5407-.3752.3294-.4073.41-.3534.8881.0553.4907.0294.5486-.3884.8673-.3114.2375-.5334.32-.7291.2708-.1888-.0474-.351.006-.4927.163-.1162.1283-.43.2704-.6973.3155-.3355.0567-.5245.1665-.6102.3545-.093.2042-.339.3282-.9818.495-1.0081.2614-1.4258.2671-1.8865.0257-.248-.13-.4282-.1456-.6771-.0588-.2544.0887-.4379.069-.734-.0787-.217-.1083-.7684-.2586-1.2253-.334-.589-.0974-.8307-.1897-.8307-.3176 0-.137-.0394-.1476-.164-.0443-.0902.0748-.3238.1568-.5193.1822-.1954.0254-.4475.0852-.5603.133-.3186.135-.734.0296-.8822-.2238-.2754-.4705-.6708-.7726-1.1895-.9088-.8716-.2288-1.917-.3715-3.3439-.4565-.7392-.044-1.5365-.1011-1.7717-.127-.2352-.0258-1.2111-.0733-2.1688-.1055-1.4767-.0497-1.7411-.0313-1.7411.121 0 .1085.117.1796.2953.1796.1624 0 .3136.0459.336.1019.0495.1238 2.0253 1.0767 2.4575 1.1852.17.0427.4325.2088.5831.3692.2685.2858.715.4802 1.3516.5886.1756.03.4573.1924.626.3611.1687.1687.5845.4475.924.6195.3396.172.6501.416.69.5419.04.126.264.332.4979.458.2337.1258.425.2713.425.3233 0 .0519.0843.0944.1872.0944s.224.0962.269.2138c.1001.2616.5272.6319.7352.6374.084.002.1527.0865.1527.1873s.0765.1833.17.1833c.0935 0 .4371.2638.7637.5861.3265.3224.7797.662 1.0072.7548.2997.1222.4786.3157.65.703.13.294.3562.5818.5028.6397.312.1231 2.8934 2.634 2.8934 2.8144 0 .0674.1174.1226.261.1226.3144 0 .8387.5334.8387.8533 0 .1265.1086.2644.2414.3065.1327.0421.4489.2795.7025.5275.2535.248.5706.5073.7044.5762.1339.0689.2629.2338.2867.3666.0535.2982.7413 1.0355.9662 1.0355.0908 0 .2925.1374.4482.3054s.3424.3055.4149.3055c.0725 0 .2036.1025.2915.2278.1664.2374 1.3937.8507 2.2368 1.1177.9936.3147 1.2333.4024 1.7436.6376.287.1323.6037.209.7037.1707.1-.0384.3325-.01.5168.0637.1842.0734.5274.1572.7626.186.2352.029.4798.1048.5437.1686.0638.0638.2708.116.4599.116.189 0 .4392.0503.5559.1117.2872.1514 1.6608.4668 2.4115.5539.336.039 1.0783.18 1.6495.3133.5712.1334 2.2482.5193 3.7267.8577 1.4784.3383 2.8847.6676 3.125.7318.2402.0642.9.2036 1.4662.3099 1.3516.2537 3.8723.9232 4.1648 1.1061.09.0563.2186.1092.2858.1175.0672.008.1892.0235.271.0338.082.0103.1209.0918.0865.1812-.0438.114.1488.2112.6454.3256.3892.0897.7904.2328.8915.318.1011.0852.4713.193.8226.2397.7231.0959.9097.2477.8035.6537-.0625.2389-.1328.272-.4635.2184-.4284-.0695-.7493.0614-.6288.2563.0458.0741-.0162.1001-.1534.0643-.2487-.065-.992.2653-.992.441 0 .1143-.8779.2467-1.914.2886-.347.014-.6671.0615-.7113.1055-.078.0779.1212.133 1.0675.296.938.1614.4115.2708-.992.2061-1.6594-.0764-2.198 0-1.9668.2782.0814.098.2786.1782.4384.1782s.29.0412.2896.0916c-.001.105-.5888.3971-.7987.3971-.077 0-.2369.1071-.3553.238-.1676.1851-.3741.2371-.931.2345-.3937-.002-.786.04-.8719.093-.0858.053-.3764.0987-.6458.1015-.4129.004-.4957.048-.5287.28-.0344.2423-.1099.2749-.637.2749-.329 0-1.1457-.0623-1.8149-.1384-.9212-.1048-1.4341-.1033-2.112.006-.4925.0794-1.3353.172-1.8729.2059-.5376.0339-1.5782.1687-2.3124.2995-.7341.1309-1.3718.238-1.417.238-.0451 0-.2089.11-.3638.2443-.155.1344-.3559.2444-.4464.2444-.0905 0-.1646.046-.1646.1022s-.3853.1952-.8562.3088c-.471.1137-1.007.2675-1.1913.3418-.5272.2125-2.2258.1122-2.798-.1654-.2082-.101-.4004-.0635-.9164.179-.359.1689-.745.3371-.8577.374-.2283.0746-.9559-.1628-.9559-.3119 0-.0525-.1617-.0954-.3593-.0954-.1977 0-.3934-.055-.4349-.1222-.0415-.0672-.2037-.1221-.3604-.1221s-.5246-.1088-.8176-.2417c-.293-.133-.6539-.243-.8021-.2444-.1482-.001-.472-.1401-.7196-.3082-.2476-.168-.5387-.3064-.647-.3075-.2151-.002-.7465-.5064-.7465-.7082 0-.0693-.22-.3142-.4888-.5443-.2688-.2301-.4887-.4696-.4887-.5322 0-.0626-.11-.208-.2444-.3231-.1344-.1151-.2444-.3121-.2444-.4378 0-.1257-.1374-.431-.3054-.6786s-.3055-.5217-.3055-.609c0-.0875-.1037-.2528-.2304-.3674-.1266-.1147-.2623-.3683-.3013-.5636-.046-.2298-.2001-.4218-.4372-.5444-.2604-.1346-.4041-.3303-.4976-.6773-.0723-.2683-.1807-.4879-.2409-.4879-.0602 0-.2643-.2166-.4535-.4814-.1892-.2648-.4443-.5081-.5669-.5408-.1766-.047-.1974-.1072-.0999-.2894.0994-.1858.0442-.3162-.287-.6777-.2256-.2463-.444-.5541-.4852-.6841-.0413-.13-.1554-.2673-.2537-.305-.0982-.0377-.1786-.1443-.1786-.237 0-.0925-.1924-.3665-.4276-.6086-.2353-.2422-.4277-.5494-.4277-.6826 0-.1348-.1082-.2765-.244-.3197-.1343-.0426-.2768-.2072-.3166-.366-.0398-.1586-.1499-.3181-.2446-.3545-.0948-.0363-.1723-.1714-.1723-.3 0-.1312-.1073-.262-.2444-.2979-.1344-.0352-.2443-.16-.2443-.2776 0-.2739-.3963-.7837-1.324-1.703-.4067-.4033-.8114-.8072-.8991-.8976-1.1838-1.2202-2.0461-2.027-2.3156-2.1663-.1823-.0943-.366-.2805-.4084-.4137-.0423-.1333-.3898-.5656-.7723-.9607-1.3328-1.3767-1.8644-1.983-2.0006-2.282-.0754-.1654-.239-.3331-.3637-.3727-.1246-.0396-.343-.3293-.4854-.6438-.1424-.3146-.4581-.7994-.7018-1.0774-1.1887-1.3563-1.423-1.641-1.4678-1.7839-.0267-.0849-.1644-.3182-.306-.5184-.3184-.45-.5304-.8013-.6282-1.041-.0411-.1009-.1258-.2789-.1882-.3956-.177-.3316-.476-1.2338-.478-1.4424-.001-.1036-.2064-.2811-.4565-.3945-.4085-.1851-.4656-.1868-.5609-.0166-.0806.144-.2188.1705-.5746.1104-.2577-.0435-.574-.0228-.7026.0461-.1288.069-.9439.1611-1.8114.205-.8676.0438-1.6085.0986-1.6466.1217-.0778.0472-2.1332.0719-6.2845.0756-3.3646.003-4.5303.0406-4.979.1606-.1849.0494-.336.0424-.336-.0157s-.4812-.0688-1.0692-.0239c-.588.0449-1.172.0865-1.2979.0923-.1893.009-.2025.0423-.0767.194.1319.1588.0728.1816-.4432.171-.5009-.0103-.5469-.0293-.2899-.1199.2975-.1048-1.8095-.0569-2.627.0598-.3931.0561-5.1945.4106-6.1093.451-.1344.006-.7667.0935-1.4051.1944-.6385.101-1.2983.202-1.4663.2244-.9086.1215-1.9755.3197-2.6024.4835-.3897.1019-.7271.1852-.7498.1852-.0227 0-.0717.1512-.1088.336a19.4091 19.4091 0 01-.1503.672c-.0636.2582-.0387.336.1076.336.2437 0 .3121.1175.3808.6536.0306.2396.1428.5685.2492.7309.1828.279.1747.9708-.0182 1.548-.0336.1008-.0705.476-.0818.8336-.015.477-.0774.682-.234.7697-.1174.0657-.2135.2477-.2135.4044 0 .182-.1544.4026-.4276.611-.2352.1794-.4277.4308-.4277.5586 0 .15-.1626.3067-.4582.4416-.5333.2434-1.008.6394-1.008.841 0 .1749-.5178.672-.7002.672-.074 0-.3453.2278-.603.5063-.2577.2784-.5721.5946-.6987.7025-.1266.108-.3896.3475-.5846.5323-.195.1848-.3873.336-.4275.336-.0402 0-.1797.1237-.31.275-.4147.4814-.8177.877-1.2135 1.1912-.2116.168-.5832.502-.8257.742-.2425.24-.7157.5771-1.0517.749-.336.172-.7758.4014-.9774.5098-.2016.1084-.4257.1974-.498.1978-.0723 0-.26.1377-.4172.305-.4699.5001-1.7658 1.2842-2.1226 1.2842-.183 0-.399.0563-.4802.125-.7999.6776-1.7252 1.3412-1.8701 1.3412-.0985 0-.211.0832-.25.185-.086.2239-1.417 1.252-1.8185 1.4047-.158.0601-.6537.3318-1.1015.6038s-.8352.4946-.8609.4946c-.0257 0-.3087.161-.629.3576-.3202.1967-.8571.4244-1.1931.506-.336.0816-.6978.223-.8038.3144-.1061.0913-.3064.166-.4452.166-.1387 0-.2863.0889-.3279.1973-.0523.1364-.1737.1785-.3933.1365-.3315-.0634-.5967.041-1.2084.475-.2006.1425-.5928.3744-.8714.5154-.2786.141-.581.3271-.672.4137-.091.0866-.4763.3075-.8563.4908-.38.1834-.8473.4626-1.0386.6205-.1912.158-.5127.37-.7143.4712-.2016.1012-.6415.3492-.9775.5511-1.9644 1.1804-1.9392 1.1687-2.1776 1.0198-.1796-.1121-.2716-.105-.4305.0335-.3353.2922-4.2098 2.1622-4.4757 2.1602-.136-.001-.3269-.0522-.424-.1136-.0972-.0615-.2622-.0673-.3666-.013-.3099.1615-1.729.2251-1.6797.0754zm-1.745-2.0888c.1042-.1256.0795-.1464-.1142-.0958-.136.0356-.3073.137-.3805.2252-.1043.1256-.0795.1464.1141.0958.136-.0356.3073-.137.3806-.2252zm5.4375-.2782c-.0376-.0376-.1362-.0001-.2191.0834-.1198.1206-.1057.1347.0684.0684.1205-.046.1883-.1143.1507-.1519zm-5.8273-3.0632c.1269-.0804.1133-.1163-.061-.1615-.2733-.071-.5297.005-.5297.1566 0 .14.3728.143.5907.005zm1.1199-.2726c0-.1396-.3313-.1427-.4171-.004-.0358.0579-.0336.1366.0047.175.0953.0953.4124-.036.4124-.171zm19.1272-2.1781c-.0443-.0717-.1703-.1303-.28-.1303-.1668 0-.1606.0284.0376.1733.2559.1871.3719.1666.2424-.043zm-25.669 4.888c.022-.1502.3162-.3387.5723-.3666.0433-.005.071.115.0616.2663-.0131.211-.0918.2749-.3383.2749-.209 0-.3123-.061-.2956-.1746zm1.487-.8899c.086-.1391.534-.1186.534.0245 0 .0665-.1336.1098-.2968.0963-.1631-.0135-.2698-.0679-.2371-.1208zm.7225-.2099c-.035-.0566.0457-.1316.1793-.1665.1337-.0349.243-.0196.243.0341 0 .1436-.348.2526-.4223.1324zm1.0333-.6806c.1578-.168.401-.3052.5406-.3048.2262 0 .214.033-.113.301-.4959.4065-.8085.4093-.4276.004zm65.003-7.7578c-.3024-.0499-.7973-.1752-1.0997-.2786-.3024-.1035-.8522-.2812-1.2218-.3952-1.0873-.335-1.693-.8688-2.3103-2.0357-.2962-.56-.574-1.0457-.6174-1.0793-.1462-.1133-.6308-.9743-1.5474-2.7492-.0694-.1344-.2455-.4752-.3915-.7573-.1459-.2821-.2653-.7023-.2653-.9338 0-.2615-.0694-.4476-.1832-.4913-.1143-.0438-.1833-.2302-.1833-.4946 0-.2334-.0479-.4539-.1064-.49-.0585-.0362-.1417-.242-.1847-.4574-.0431-.2154-.153-.4778-.2442-.583-.0913-.1052-.1975-.3287-.2361-.4967a45.4712 45.4712 0 00-.1778-.7331c-.0644-.256-.0613-.5658.0079-.7716.0635-.1892.0858-.5266.0495-.75-.1637-1.0092.4508-2.1065 1.09-1.9461.1904.0478.4738-.0377.8441-.2547.657-.385.9716-.3524 1.826.1895.327.2074.818.3927 1.1434.4316.6686.08 2.058.6226 2.1398.8357.0312.0812.5589.4331 1.1727.7821 1.2035.6843 1.8398 1.1832 1.8398 1.4426 0 .0897.1092.163.2427.163.1577 0 .302.1392.412.3972.093.2184.3136.5304.4903.6933.1767.1629.3212.3388.3212.3908 0 .052.1375.2429.3055.4242.168.1813.3055.4523.3055.6022 0 .15.0825.3412.1832.4248.1008.0837.1833.224.1833.3117 0 .0878.0687.2337.1527.3242s.2902.4373.4582.7706c.168.3333.4914.8503.7185 1.149.477.6271.5753.9457.6852 2.2223.0765.888.0638.9544-.2874 1.5083-.202.3186-.5868.7803-.855 1.026-.644.5899-2.2611 1.4325-2.95 1.5372-1.0307.1565-1.1605.162-1.71.0714zm-31.3407-29.165a74.0373 74.0373 0 00-1.2588-.287c-.289-.0622-.6464-.1976-.7942-.301-.2504-.1751-1.1702-1.2576-2.2845-2.6884-.2617-.336-.6437-.776-.8489-.9776-.2232-.2194-.3731-.4922-.3731-.6792 0-.172-.0807-.4193-.1794-.5498-.0987-.1304-.1812-.4061-.1833-.6126-.002-.2065-.1688-.716-.3704-1.1322-.2016-.4161-.3666-.8273-.3666-.9136 0-.0863-.058-.2148-.1288-.2857-.0709-.071-.1517-.3094-.1796-.53-.028-.2207-.1278-.49-.2218-.5982-.2115-.2437-.3226-.6947-.4273-1.7361-.0446-.4433-.1436-.8832-.22-.9775-.0765-.0943-.1653-.3914-.1974-.6602-.032-.2688-.1855-.9286-.341-1.4663-.3517-1.2162-.3987-1.8499-.172-2.3215.2755-.5728.4557-.7541.9588-.9643.5845-.2442 1.2375-.1715 1.611.1793.157.1476.4733.2833.7026.3015.4632.0367 1.2997.5222 1.302.7556.002.1863.5629.5638.8717.5865.1262.009.2475.0398.2696.068.0221.028.192.255.3775.5043.1855.2494.4554.491.5998.5368.33.1047 1.1769.8 1.1798.9687.0012.0694.2554.3443.5648.611.3094.2666.7153.6278.902.8026.2803.2625.5035.3328 1.2802.4031 1.0837.0982 1.9504 0 2.1537-.2455.095-.1145.4106-.17.967-.17h.826l-.1422.4135c-.0781.2274-.2136.4996-.3009.6048-.0873.1052-.1406.3678-.1184.5836.0363.3517-.0029.4068-.379.5336-.5371.181-.7258.4602-.497.7358.093.112.1736.3779.1791.5907.0055.2128.051.4518.1008.5312.0499.0794.0446.1728-.0118.2076-.1958.121.0598 1.4856.3705 1.9777.311.4927.4893 1.5194.4797 2.7626-.0064.825-.0737.9732-.5988 1.3186-.2521.1658-.6233.4278-.825.5822a38.485 38.485 0 01-.49.3706c-.0678.0494-.3966.3097-.7305.5785-.3338.2688-.6457.4763-.693.461-.0472-.0153-.2803.0535-.518.1527-.5109.2135-.8593.2087-1.845-.0254zm31.0963-3.0931c-.168-.0538-.5666-.1033-.8858-.11-.3952-.008-.6545-.0863-.8127-.2445-.1278-.1278-.334-.2647-.4582-.3041-.1243-.0396-.3672-.203-.54-.3633-.1727-.1603-.4573-.367-.6324-.4595-.3278-.1732-1.1918-1.2167-1.1918-1.4395 0-.069-.1564-.306-.3476-.5267-.2935-.3388-.7218-.9782-1.5782-2.3563-.0836-.1344-.2026-.3608-.2646-.503-.062-.1424-.2466-.4033-.4103-.5799-.1955-.211-.3218-.5258-.3682-.918-.039-.3283-.1904-.8514-.3366-1.1625-.2156-.4587-.2372-.6002-.114-.7485.121-.146.12-.3003-.0048-.7625-.0862-.3188-.1845-.6298-.2184-.691-.1294-.2336-.0085-2.9726.1533-3.4747.1211-.376.2062-.8658.2113-1.2166.0023-.155.1497-.4298.3277-.6106.3812-.3873 1.2055-.7894 1.3011-.6346.0368.0594.4092.0924.8276.0734.6297-.0287.8413.0159 1.229.2592.2575.1616.8073.3497 1.2218.4181.5749.0948.826.2046 1.059.463.168.1864.4567.3754.6416.42.1848.0448.336.1352.336.2012 0 .0659.0793.1198.1763.1198.097 0 .2512.1068.3426.2374.0915.1306.446.3779.7879.5496.3933.1975.6477.4132.6927.5873.045.1747.2545.3516.5733.4843.289.1203.5294.3132.5663.4542.0352.1348.174.28.3083.3225.3264.1036.7069.4382.7069.6216 0 .0813.1016.1801.2258.2195.2562.0813.5334.5938.5603 1.036.01.1633.0846.3191.1658.3462.0812.027.1478.219.1478.4265s.0915.4784.2033.602c.1732.1914.1799.2683.0449.5206-.0952.1778-.1192.3848-.0601.5181.054.1222.113.332.1309.4665.0715.536.257 1.2363.396 1.4947.0807.1501.1718.6869.2023 1.1928.0305.506.1368 1.0772.2363 1.2695.0994.1923.1478.3825.1075.4228-.0403.0403-.0825.391-.0937.7792-.018.623-.07.7583-.4412 1.1518-.4061.4306-.7332.597-1.3007.6615-.3787.043-1.1747.3066-1.3132.4347-.0638.0591-.2288.1078-.3665.1082-.1378 0-.408.0829-.6005.1833-.373.1945-1.043.2207-1.5439.0603zm23.0932-1.4693c0-.0655-.1162-.1192-.2583-.1192-.142 0-.4703-.1191-.7294-.2648-.4159-.2337-.527-.248-.9472-.1222-.6542.196-.7305.183-.7752-.1322-.047-.3312-.3983-.3127-.78.041-.1638.1518-.4293.2338-.7565.2338-.2773 0-.5382.055-.5797.1222-.1684.2724-.6685.0522-.7217-.3177-.0434-.302-.6998-.3847-.9227-.1162-.2214.2668-.4123.2357-.3363-.0549.0964-.3686-.194-.2983-.5048.1222-.2993.4047-.6315.4855-.628.1527.001-.1176.1688-.5161.3724-.8856.2036-.3695.388-.8242.4097-1.0104.0675-.5797 1.66-2.7698 3.7453-5.1506.9463-1.0804 1.2264-1.6093 1.2261-2.3155-.0001-.3289-.5822-1.4704-.96-1.8826-.084-.0916-.1527-.2392-.1527-.328 0-.0888-.0807-.1925-.1794-.2304-.3637-.1395-.9703-1.9754-.7707-2.3322.065-.1161.085-.3886.0443-.6054-.0933-.4966.2003-1.4954.5295-1.8021.277-.2581.8352-.2028.949.094.039.1015.2485.1675.5318.1675.3513 0 .4857.0575.5408.2312.0845.2663.4068.3757 1.1131.378.274.001.8915.1392 1.3723.3072.481.168.979.3055 1.107.3055s.3227.1374.4327.3054c.1101.168.2676.3072.3501.3093.0825.002.4248.1391.7608.3044s.6587.301.717.3016c.0583 0 .294.166.5236.3677.2296.2016.4991.3666.599.3666.1855 0 .8523.4036 1.3984.8465.168.1362.4091.249.5358.2504.1267.001.3466.1278.4887.2806.1422.1528.3684.3596.5028.4596.3047.2268.5804.7027.4909.8475-.037.0598-.0114.1432.0568.1854.1509.0932 1.0113 1.9015 1.2765 2.6827.3169.9333.1757 2.2841-.293 2.8047-.1272.1412-.4.4565-.6064.7006-.4146.4906-1.8105 1.45-2.1097 1.45-.2828 0-1.0475.3414-1.1604.518-.1518.2375-.8696.6009-1.1074.5607-.117-.0198-.4243.0643-.6826.187-.2584.1226-.577.195-.708.1607-.295-.0772-.382-.0325-2.1395 1.098-.752.4837-1.2647.6975-1.2647.5272zm-3.7878-46.812c-.3024-.0455-.7453-.1665-.9843-.2687-.239-.1022-.6518-.2108-.9175-.2413-.2656-.0305-.841-.2523-1.2787-.4928-.5059-.2781-.8895-.413-1.0532-.3701-.1476.0386-.558-.0701-.9615-.2547-.5933-.2714-.8116-.3105-1.3894-.249-.377.04-1.7576.155-3.068.2552-1.3105.1002-2.7126.211-3.1158.2462-.4032.0352-1.3731.1093-2.1553.1647-.7822.0554-1.607.1573-1.8328.2266-.2258.0692-1.29.1905-2.3648.2694-1.0747.079-2.0094.1787-2.0771.2217-.0677.043-.8653.1405-1.7726.2168-1.5066.1267-1.6865.12-2.0771-.0789a46.6479 46.6479 0 00-.8984-.4418c-.2588-.1233-.5634-.3342-.6769-.4686-.2176-.2577-.5627-.5047-.8684-.6213-.536-.2044-1.413-.6079-1.4663-.6745-.0336-.042-.281-.1882-.5498-.3248-.2688-.1366-.6868-.4327-.9289-.658-.242-.2252-.5465-.492-.6766-.5927-.13-.1009-.4254-.4308-.6564-.7332-.231-.3024-.4517-.5773-.4905-.6109-.3548-.3071-.895-1.3557-.9127-1.7717-.0287-.6717.3568-1.5058.7703-1.667.3326-.1296.3468-.1247 1.897.653.1233.0619.3764.079.5626.0382.2672-.0587.3776-.0145.5247.21.3165.483 1.9135.7468 1.7717.2926-.0236-.0757-.2177-.216-.4313-.3119-.3025-.1356-.404-.2705-.459-.6109-.039-.2402-.1454-.6292-.2366-.8644-.091-.2352-.1697-.6663-.1746-.958-.005-.2915-.0372-.5758-.0716-.6315-.0345-.0558.0253-.1895.133-.297.1075-.1077.2333-.3368.2794-.5093.065-.2429.2345-.3666.7525-.5494.3677-.1297.7516-.222.853-.205.1016.017.4413-.1196.755-.3034.3136-.1838.599-.3342.634-.3342.0351 0 .3002-.1512.5892-.336.289-.1848.615-.391.7245-.4582.7702-.4727 1.9062-1.2752 2.0458-1.4453.0922-.1123.2613-.2042.3758-.2042.1144 0 .3414-.1423.5043-.3162.163-.1738.4658-.3871.673-.474.2072-.0868.6375-.357.9563-.6002.3187-.2433.627-.4424.6848-.4424.058 0 .2874-.1696.51-.3768.2225-.2072.5146-.4272.649-.4888.2328-.1069 1.2403-.7574 2.6504-1.7115.3567-.2414.9714-.645 1.366-.897.4189-.2675.7687-.5932.8408-.783.0701-.1843.3149-.4171.5656-.538.2432-.1172.6851-.4334.9821-.7026.297-.2692.5995-.4914.672-.4938.1917-.0064.7017-.459 1.2844-1.14.4375-.5112 1.3898-1.2568 2.742-2.147.1931-.127.9571-.7718 1.6979-1.4328 1.1407-1.018 1.6047-1.5094 2.6585-2.8157.1675-.2077.1448-1.016-.0388-1.3797-.19-.3764-.8102-.6803-2.1637-1.0604-.9053-.2543-3.0409-.6474-3.5278-.6495-.1265-.0005-.1342-.041-.0315-.1648.1577-.19-.3504-.326-2.3667-.6335-1.3108-.1998-4.9328-.2236-6.7202-.044-.5377.054-1.5549.1539-2.2605.222-.7056.068-1.4479.1767-1.6495.2416-.2016.065-.669.201-1.0386.3023-1.723.4723-2.4585.6986-3.4212 1.0528-.5712.2103-1.341.4863-1.7106.6134-.7869.2707-1.3521.491-1.9816.7723-.2499.1117-.5008.203-.5576.203-.0569 0-.5947.2462-1.1953.5471-.6005.3009-1.1606.5483-1.2446.5498-.084.0015-.1527.0485-.1527.1044 0 .0558-.1512.1775-.336.2703-.419.2105-1.726 1.0555-2.5354 1.639-.336.2424-.8309.5845-1.0997.7605-.2688.1759-.5162.3528-.5498.3932-.0336.0404-.3259.2862-.6495.5463-.3237.2602-.7329.7-.9094.9775-.1765.2775-.3791.5595-.4502.6267-.071.0672-.2812.3258-.467.5746-.3045.4079-.4094.4604-1.069.535-.4023.0455-.7314.1307-.7314.1892 0 .0585.0525.1064.1166.1064.0642 0 .1535.1964.1985.4364.045.24.205.5836.3554.7636.1504.18.315.4648.3658.6328.0507.168.1615.388.2461.4887.0847.1008.1918.4466.2381.7684.0464.3217.1564.7616.2447.9774.0882.2159.1638.7303.168 1.143.0042.413.0918.9522.1947 1.1985.1029.2463.2232.7333.2673 1.0822.044.3489.1609.7271.2596.8405.0987.1134.1473.258.108.3215-.0392.0635.0686.3215.2395.5733.1709.2519.2839.528.251.6136-.0328.0856.014.2564.104.3796.1055.1441.1256.2953.0567.4241-.0752.1405-.0375.2632.1264.4115.1284.1163.2683.37.311.5638.0425.194.1282.384.1904.4224.2023.125.5669 1.0791.646 1.6907.1604 1.2392.9538 3.3643 1.449 3.881.2397.2502.3808.7118.3183 1.0413-.0276.1455-.17.237-.408.2624-.201.0214-.5777.2076-.837.4136-.3093.2457-.6582.3957-1.0135.4358-.4302.0485-.5763.1278-.7093.3849-.092.178-.2959.3838-.4528.4572-.157.0734-.6653.3017-1.1297.5074l-.8445.374-.4642-.2368c-.2553-.1302-.669-.2368-.9192-.2368-.5944 0-1.3937-.394-1.7345-.855-.2873-.3886-.5582-.4503-1.031-.2348-.467.2128-1.3355-.38-1.6975-1.1583-.1566-.3367-.4007-.7381-.5425-.892-.239-.2595-1.0251-1.7332-1.0251-1.9217 0-.0458-.1634-.2581-.3631-.4718-.1998-.2137-.3922-.5406-.4277-.7265a486.3921 486.3921 0 00-.1341-.699c-.0392-.2035-.1693-.3926-.298-.4335-.1606-.051-.273-.2794-.3783-.7692-.0824-.3832-.1885-.7517-.2358-.8189-.0473-.0672-.1552-.4246-.2397-.7942-.0846-.3696-.2365-.7668-.3376-.8827-.1553-.178-.2357-1.1822-.1322-1.6508.0267-.1207-.1306-.7563-.265-1.071-.1258-.2947-.2423-.923-.296-1.5961-.0217-.2731-.1265-.6648-.2328-.8704-.1064-.2056-.1588-.4084-.1166-.4506.0422-.0423.0184-.2004-.0528-.3515-.3645-.7726-.6446-1.6322-.6446-1.9783 0-.2134-.0808-.4948-.1794-.6252-.0987-.1305-.1812-.361-.1833-.5121-.0021-.1512-.0585-.275-.1253-.275-.1136 0-.0953-.993.0608-3.299.0296-.4368.0734-1.1516.0974-1.5884.0466-.85.459-1.9142.936-2.4161l.2641-.2779.3896.2734c.2143.1504.4446.344.5118.4302.0672.0862.4125.169.7673.184.5867.0246.6666.0633.8807.4262.156.2645.2981.375.4214.3277.223-.0856 1.1855.3543 1.7794.8133.2352.1818.609.37.8306.418.2216.0482.4685.1926.5487.321.2581.4133.4207.2695.3924-.347-.0185-.402.0432-.6801.2005-.9048.125-.1783.2272-.3845.2272-.4582 0-.2595.386-.1295.6908.2327.1696.2016.4189.3666.5539.3666.2657 0 1.5255-.7523 3.8066-2.2733.7958-.5305 1.648-1.098 1.894-1.261.2458-.163.8593-.5139 1.3633-.7798.504-.266 1.0624-.5862 1.2408-.7117.1783-.1255.364-.2282.4125-.2282.0485 0 .4048-.161.7918-.3576 1.1105-.5643 4.308-1.893 6.0469-2.5126 1.9282-.6872 2.5063-.898 3.8488-1.4041.5713-.2153 1.3685-.4872 1.7717-.6043.4033-.117.888-.2769 1.0771-.3552.1892-.0783.4366-.1421.5499-.1417.1132.0003.8931-.2152 1.7332-.479.84-.2637 1.9671-.542 2.5048-.6186.5376-.0765 1.1424-.1895 1.344-.251.8932-.2725 3.949-.5825 7.5145-.7623.4373-.022 3.3176.1682 4.1543.2744 2.3544.2988 2.8946.3846 3.2065.509.1844.0737.4519.1034.5945.066.1426-.0372.3492-.0188.459.041.258.1405 1.726.4867 2.0637.4867.143 0 .2893.0475.3253.1057.0358.0581.3948.1705.7975.2497.4027.0793.7647.1967.8044.2609.0397.0642.2272.1168.4166.1168s.4158.086.5031.1913c.2104.2535.7789.5418 1.0682.5418.2941 0 1.0023.3491 1.0023.4941 0 .0603.3061.2625.6803.4493.374.1867.787.394.9175.4607.1305.0666.267.215.3035.3299.0365.1149.2697.333.5182.4846.2485.1517.4702.3192.4925.3723.0223.053.3944.522.8267 1.042.9072 1.0911 1.2463 1.88 1.3452 3.1292.084 1.062-.0544 1.4953-.977 3.057-.8482 1.4355-1.2966 2.2968-1.2966 2.4902 0 .0845-.0416.1537-.0924.1537s-.171.1775-.267.3944c-.4093.9248-1.9118 2.9279-2.6733 3.564-.0887.0742-.2537.2385-.3666.3653-.1129.1268-.3624.3742-.5544.5498-.1921.1757-1.1543 1.1086-2.1383 2.0733-.984.9646-2.0777 1.9183-2.4305 2.1193-.3528.201-.6726.416-.7107.4775-.0744.1203-1.3585.9644-1.4672.9644-.0983 0-1.4132.9114-1.7626 1.2218-.5263.4675-1.6313 1.2731-2.0772 1.5145-.2352.1273-.5376.324-.672.4373-.4567.3847-2.1947 1.543-3.5757 2.3831-1.4536.8842-1.9325 1.2757-1.3729 1.122 1.3756-.3775 2.688-.5967 3.7416-.6248.6802-.0181 1.2976-.0706 1.372-.1166.0745-.046.2357-.03.3583.0357.1226.0656.2915.0769.3753.0252.0838-.0518.4259-.0232.7601.0635.3465.0899.867.127 1.2105.0863.4296-.051.725-.0133 1.0284.1307.2342.111.4702.1944.5245.1852.2264-.0386.398.0234.5864.2117.178.178.554.2823 2.3227.6444.708.1449 1.1568.3476 1.238.5593.0391.1018.1751.185.3024.185.1272 0 .2313.055.2313.1223 0 .0672.0687.1225.1527.1228.208.0009 1.2337 1.079 1.4803 1.556.2744.5305.2504.9282-.0806 1.336-.1542.1899-.3804.5927-.5026.8951-.6038 1.494-1.1101 2.4267-1.4154 2.607-.7538.4453-1.451.588-2.4473.5012-.5299-.0462-1.0622-.0426-1.183.008-.3064.1285-.6204.1392-1.2581.043zm-24.2532-11.3251c.016-.217-.016-.233-.2355-.1175-.3394.1786-.4558.3766-.2836.483.2069.1279.4979-.077.5191-.3655zm1.3397-.6954c.3568-.2369.6758-.5341.7089-.6607.0539-.2063.0227-.217-.3017-.1039-.199.0694-.391.2017-.4264.294-.0354.0925-.1388.168-.2298.168-.1754 0-.6638.4665-.6638.634 0 .1928.2716.0942.9128-.3314zm3.0997-1.9991c.2124-.1513.3862-.3263.3862-.389 0-.0626.0766-.1138.1702-.1138.2002 0 .3561-.329.2013-.4246-.1569-.097-.7204.1443-1.1534.4939-.2083.1682-.5411.4344-.7395.5914l-.3607.2855.5548-.0842c.3051-.0463.7286-.208.941-.3592zM81.7122 90.6378c0-.0672.055-.1562.1222-.1977.0672-.0415.1222-.0205.1222.0467s-.055.1562-.1222.1977c-.0672.0415-.1222.0205-.1222-.0467zm-21.5047-17.418c0-.1079.5096-.5479.6414-.5537.0504-.0022.0917.051.0917.1181 0 .0672-.0644.1222-.1431.1222s-.2437.091-.3666.2022c-.1229.1112-.2234.1613-.2234.1112zm8.1317-.5883c.0329-.084.3606-.2868.7283-.4506.3677-.1638.6991-.3942.7365-.512.0374-.1178.3403-.3372.673-.4876.3328-.1504.605-.3402.605-.4219 0-.0816.0825-.18.1833-.2187.1008-.0387.1833-.1546.1833-.2575 0-.1029-.0825-.187-.1833-.187-.2767 0-.2197-.3386.0726-.4314.3627-.1151 1.3325-.7857 1.3325-.9214 0-.2246-.686-.0989-1.402.2569-.4015.1995-.8519.3627-1.0008.3627-.149 0-.3054.0559-.3476.1242-.0422.0683-.1259.0938-.186.0567-.06-.0371-.3174.0593-.5719.2143-.2545.155-.8201.4364-1.257.6253-.4367.1889-1.1922.5411-1.6787.7828-.4866.2416-.922.4018-.9678.3561-.0457-.0457-.1977-.008-.3377.0837-.3633.238-1.17.3173-1.17.115 0-.1909-.0661-.1974-.3672-.0362-.1374.0735-.2568.0775-.2985.01-.0382-.0619.274-.284.6936-.4938.4197-.2097.7813-.3269.8035-.2603.0236.071.2153.0375.4634-.0808.2484-.1184.3982-.2668.3628-.3591-.0378-.0985.1632-.2536.5374-.4146.3288-.1414.6927-.362.8087-.4902.116-.1282.3017-.2331.4127-.2331.1109 0 .391-.1407.6225-.3126.2315-.1719.6133-.403.8485-.5136.2352-.1106.6754-.3732.9781-.5837.3027-.2104.6052-.4054.672-.4333.4492-.1873 1.9506-1.0993 2.5477-1.5474.3935-.2953.806-.571.9164-.6126.1105-.0416.4153-.23.6774-.4188s.5335-.3433.603-.3433c.0697 0 .2401-.1052.3789-.2338.1387-.1287.5821-.4104.9853-.6262s.7951-.4692.871-.5633c.1613-.2002 1.2587-.7748 1.4811-.7755.084-.0002.2684-.1162.4098-.2576.1414-.1413.7035-.5282 1.249-.8596.5457-.3314 1.1036-.7008 1.2398-.8208.306-.2698 1.9595-1.2394 2.1135-1.2394.0618 0 .212-.11.3335-.2443.1217-.1344.2917-.2444.3779-.2444.1624 0 1.0244-.8466 1.0262-1.008.0021-.1854-.4652-.0838-.8677.1887-.2278.1542-.689.4116-1.025.572-.3361.1603-.6385.3284-.6721.3735-.0336.045-.4392.2068-.9013.3595-.573.1893-.8592.3505-.9.5069-.033.126-.165.2293-.2934.2293-.2438 0-2.1319 1.0747-2.976 1.694-.2689.1972-.8737.563-1.344.813-.4705.2499-.9654.5519-1.0998.671-.2452.2175-1.2985.732-1.4986.732-.0587 0-.2263.1374-.3724.3054-.146.168-.3459.3054-.444.3054-.3262 0-.772.2678-.9266.5567-.1213.2268-.2933.3026-.8381.3696-.377.0464-.7152.1302-.7516.1863-.1082.1672-2.0975 1.3312-2.275 1.3312-.09 0-.1637.0506-.1637.1124 0 .0619-.1644.1486-.3652.1927-.2008.0441-.4008.1378-.4443.2082-.0435.0704-.4152.2834-.8261.4734-.4109.19-.912.4577-1.1136.595-.2016.1372-.487.2498-.6343.2503-.1472.0004-.3017.0557-.3432.123-.0416.0671-.2392.1221-.4392.1221-.2 0-.4987.0886-.6639.1967-.165.1082-.3813.1656-.4805.1276-.2118-.0813-.3726.1115-.1881.2256.166.1026.035.3054-.1972.3054-.2078 0-1.178.4052-1.6356.6832-.168.102-.498.2667-.7331.366-.2352.0992-.5817.266-.77.3705-.1883.1045-.4318.1557-.541.1138-.1583-.0607-.1136-.1329.2201-.3549.8873-.5903 2.5693-1.423 2.8744-1.423.1953 0 .413-.1187.5598-.3054.1322-.168.3378-.3055.4569-.3055.1191 0 .316-.11.4377-.2443.1216-.1344.2923-.2444.3792-.2444.1966 0 .845-.5883.7515-.6818-.0818-.0817-1.0438.3942-1.2856.636-.1677.1676-.395.1276-.395-.0696 0-.1196 1.417-.8621 1.6452-.8621.0867 0 .225.081.307.1799.1313.1582.203.1574.5953-.0063.2454-.1024.5783-.2726.7399-.3783.2707-.1771.2767-.2017.077-.3134-.124-.0694-.2496-.075-.2937-.013-.0865.1217-.7.4089-.8732.4089-.062 0-.08-.0849-.0402-.1886.0397-.1037.0996-.1612.133-.1278.0334.0334.3545-.1272.7135-.3569.634-.4055.8633-.4087.7103-.0098-.1727.45.8944-.0394 1.9055-.8741.033-.0273-.0357-.1032-.1527-.1687-.274-.1533-.2734-.4565.001-.569.5715-.2345 1.9716-1.0838 2.352-1.4269.2352-.212.6346-.4915.8875-.621.2529-.1295.5849-.3514.7377-.4932.1529-.1417.4235-.335.6014-.4295 1.3125-.6972 2.2663-1.2673 2.4518-1.4656.1202-.1284.2809-.2336.357-.2336.076 0 .2251-.0753.3312-.1674.1061-.092.4678-.3173.8038-.5004.336-.1831.721-.4288.8553-.546.1344-.117.4231-.2834.6415-.3696.2184-.0863.3971-.1926.3971-.2364 0-.0438.2062-.1863.4582-.3167s.6758-.4041.9418-.6082c.4905-.3762.7512-.5335 1.5483-.934.244-.1225.4748-.3042.513-.4038.0383-.0997.2948-.2418.57-.316.328-.0883.5458-.2343.6321-.4236.0724-.159.2212-.3196.3306-.357.4339-.1486 1.0703-.5854 1.488-1.0213.5377-.561 1.1479-1.0085 1.3751-1.0085.0932 0 .2647-.1054.3813-.2343.2744-.3031.1026-.6554-.4138-.8487a653.5653 653.5653 0 00-.7278-.2718c-.1961-.073-.627-.3892-.9575-.7026-.3304-.3133-.81-.7346-1.0655-.9362-.764-.6026-.9136-.7746-1.1176-1.2846-.1072-.268-.244-.4871-.3038-.4871-.06 0-.109-.1054-.109-.2342s-.0434-.2525-.0964-.275c-.1099-.0463-.6097-.9424-1.079-1.9345a327.5091 327.5091 0 00-.5773-1.2131c-.1426-.2976-.2604-.6-.2618-.672-.0014-.072-.0706-.2502-.1538-.396-.083-.1456-.121-.4205-.0844-.6109.074-.3843-.3226-1.77-.5035-1.759-.1725.0104-1.0135.622-1.5321 1.1141-.2517.2388-.5857.5027-.7422.5863-.1565.0837-.5045.285-.7733.4473a49.133 49.133 0 01-1.0386.6053c-.3024.1706-.6873.4139-.8553.5406-.7264.5478-2.9148 1.9298-3.3906 2.1412-.2856.127-.5193.3049-.5193.3955 0 .0906-.1033.1647-.2294.1647-.1262 0-.3008.086-.388.1911-.0962.1158-.2637.1648-.425.1244-.1716-.0431-.4569.0562-.8032.2796-.2954.1906-1.1694.7593-1.9422 1.2638-.7728.5046-1.6526 1.043-1.955 1.1964-.3024.1535-.7148.4038-.9164.5563-.7307.5527-2.5924 1.5564-3.7639 2.0293-.9427.3806-1.4055.4955-2.1718.5393-.8142.0466-.986.0237-1.0489-.14-.1297-.3381-.5479-.4-1.201-.178-.6195.2106-1.778.2495-2.1696.073-.2304-.1039-.2842-.438-.1008-.6262.0699-.0717.0039-.2518-.1727-.4713-.2715-.3376-.306-.3474-.6934-.1984-.2243.0862-.838.3747-1.364.6411-.9299.471-1.409.546-.808.1264.1639-.1144.4081-.3264.5427-.4711.1346-.1447.35-.2834.4786-.3084.3151-.061.3989-.3508.1015-.3508-.1288 0-.2691.035-.3118.0776-.159.159-1.063.1708-1.059.0138.0092-.3563 1.0411-1.191 1.4725-1.191.2715 0 1.0896-.4707 1.0896-.6269 0-.0626.0962-.1508.2138-.196.1176-.045.4526-.2431.7445-.4401.735-.496.4492-.6-.629-.2288-.4835.1665-1.1712.3156-1.5282.3314-.6124.0271-1.607.3835-1.61.577-.0007.0486-.2606.2066-.5773.3509-.3168.1443-.7704.3847-1.008.5342-.5208.3277-1.3486.5115-1.3486.2995 0-.0938-.1263-.1178-.3665-.0697-.2068.0413-.3666.0214-.3666-.0458 0-.0656.0762-.1192.1693-.1192.093 0 .2593-.1374.3693-.3054.1101-.168.2831-.3055.3845-.3055.1013 0 .214-.0775.2504-.1723.0363-.0947.1965-.205.356-.245.1595-.04.5437-.2924.854-.5608.31-.2685.639-.4881.731-.4881.0919 0 .2398-.072.3286-.1597.1798-.1779.7466-.4912 1.9331-1.0687.9819-.4779.9683-.464.6724-.6803-.2088-.1528-.2175-.1946-.0609-.2936.2609-.165.3686-.146.2928.0516-.1294.3371.2115.3288.9-.022 2.722-1.3867 5.2217-2.822 5.9299-3.405.188-.1548.5317-.3715.7636-.4815.232-.1101.4218-.2489.4218-.3084 0-.0596.0566-.1083.1258-.1083s.3922-.2062.7178-.4582c.3257-.252.7227-.5497.8823-.6616 1.0335-.7245 4.6408-3.3706 5.0175-3.6806.6794-.559.9477-.7675 1.3693-1.0645.4506-.3175.5829-.5358.2463-.4067-.1494.0574-.1845.0075-.1527-.2164.0607-.4275.469-.4669.469-.0453v.3271l.4318-.3792c.2376-.2086.5185-.3792.6243-.3792.146 0 .181-.098.145-.4055-.0436-.3746-.0237-.4019.2616-.357.2437.0383.2702.0214.1257-.0798-.2763-.1933-.0045-.5382.5223-.6628.32-.0757.4862-.2075.6219-.4934.25-.5269 1.2699-1.545 1.5477-1.545.1232 0 .2575-.1053.2984-.234.0409-.1289.237-.291.4359-.3603.1988-.0693.3615-.1781.3615-.2418 0-.0636.281-.2626.6244-.4422.5505-.2878 2.371-1.9759 3.2992-3.0592.1727-.2016.749-.7827 1.2804-1.2914.5315-.5086 1.4888-1.4733 2.1272-2.1437.9385-.9856 1.2042-1.3487 1.3878-1.8967.2379-.7098.2276-1.9146-.019-2.2161-.1979-.242-.603-2.0679-.7175-3.233-.1348-1.3737.9891-2.147 1.9144-1.3173.1009.0906.321.1627.489.1602.5524-.0079 1.6472.1654 1.7655.2795.0639.0615.2838.1124.4888.113.205.0007.6623.1361 1.0162.3009.354.1648.714.2726.8002.2395.0861-.033.5071.1753.9356.4629.4284.2876.9898.6331 1.2475.7678.2578.1348.7397.5112 1.071.8366.3314.3253.6525.5606.7137.5229.061-.0378.1804.0608.2651.2191.0848.1583.2785.3545.4306.4359.1625.0869.3383.3571.4261.6549.0823.2788.1959.597.2524.7071.2308.4495.2651 2.224.0587 3.0378a113.1183 113.1183 0 00-.3178 1.283c-.064.2687-.1667.5986-.2284.733-.2928.6384-.5828 1.374-.6544 1.6604-.1366.5458-1.2269 2.09-2.1411 3.0325-.483.4978-.8541.929-.825.9581.0501.0501.6934-.13 1.2322-.345.1344-.0537.7002-.2364 1.2573-.4061.9609-.2927 2.166-.7648 2.836-1.111.8237-.4257 4.0678-1.1537 5.5594-1.2476.6303-.0396 1.0525-.128 1.1886-.2488.2587-.2294.4986-.2645 2.3548-.345 2.7916-.1209 4.2122-.049 4.7653.2413.2016.1058.49.1927.641.1931.3925.0011 1.7519.4862 2.0834.7435.1543.1198.4567.2565.672.3036.486.1066.8672.3926 1.8218 1.3668.4116.42.8154.7637.8974.7637.082 0 .2414.1787.3543.3971.1128.2184.2823.5346.3767.7026.425.7563.5434 1.2153.5673 2.1993.0452 1.8643-.1587 3.5109-.617 4.9806-.2581.8281-.811 1.8618-.9959 1.8618-.063 0-.3199.275-.5707.611-.2509.336-.5212.611-.6006.611-.137 0-1.8665 1.8073-2.7584 2.8826-.5206.6278-1.5476 1.544-2.2157 1.9768-.281.182-.549.3898-.5956.4617-.1626.2509-1.7679 1.8307-2.3527 2.3154-.3243.2689-.6508.5597-.7256.6464-.0748.0866-.376.389-.6692.672-.2933.283-.7789.8576-1.0792 1.2771-.3003.4195-.7064.8575-.9025.9733-.196.1158-.3578.2675-.3593.337-.002.0695-.2319.3188-.512.554-.28.2352-.6256.5377-.768.672-.1425.1345-.4657.4013-.7183.593-.2527.1918-.5195.4806-.593.6418-.1487.3266-1.3859 1.352-2.4156 2.0023-.3696.2334-.8094.5525-.9775.709-.168.1565-.7453.5807-1.283.9426-.5375.362-1.1492.8121-1.3592 1.0004-.7088.6358-1.4041 1.144-2.475 1.8087a37.5533 37.5533 0 00-.5028.3208c-.2738.1777-.842.4875-2.8719 1.5663-.336.1785-.8034.3998-1.0386.4917-.2352.0919-.8837.3795-1.4412.639-.5575.2597-1.0602.4432-1.1172.408-.057-.0352-.6456.2096-1.308.5442-.6624.3345-1.2623.609-1.3331.6101-.0709.001-.3942.1702-.7185.3758-.3911.248-.565.3098-.5165.1833.046-.1198.006-.1907-.1076-.1907-.164 0-.3976.0923-1.7665.6978-.2352.104-.8525.2332-1.3718.287-.9866.1022-1.207.1892-2.7502 1.0869-.3518.2046-.6954.372-.7636.372-.2403 0-.1202-.3816.212-.674.2348-.2067.279-.2969.1466-.2996-.1042-.002-.2417.0467-.3055.1084-.1812.1751-2.0353 1.1096-2.2017 1.1096-.0818 0-.1803.0825-.219.1833-.0387.1008-.1509.1833-.2493.1833-.0984 0-.714.2749-1.368.611-1.2109.622-1.5546.7308-1.448.4581zm1.0017-7.2084c.2848-.2278.1545-.3143-.275-.1825-.2352.0722-.4276.2082-.4276.3023 0 .1832.4116.113.7026-.1198zm2.0254-1.3038c.1202-.145.0857-.1587-.2135-.084-.4623.115-.9886.5197-.7758.5963.1732.0624.7686-.2459.9893-.5123zm1.915-1.3837c0-.1474-.068-.1111-.317.1688-.232.2608-.2318.2611.0422.0928.1512-.0928.2749-.2106.2749-.2616zm8.7583-5.3824c.0499-.0806 0-.0978-.134-.0463-.1174.045-.2639.0819-.3256.0819a.1118.1118 0 00-.1122.1107c0 .1422.4675.0227.5718-.1462zm4.3157-.0255c.1266-.1526.1111-.1833-.0923-.1833-.1344 0-.3128.0825-.3964.1833-.1266.1525-.1111.1832.0922.1832.1344 0 .3128-.0824.3965-.1832zm8.3594-10.4888c1.8448-1.9035 2.5163-2.5847 2.791-2.831.2908-.261.534-.5676 1.3077-1.648.6674-.9323.845-1.1602 1.4513-1.8623.7037-.8149 2.2456-3.1701 2.7117-4.142.4605-.9602.4193-1.6409-.1376-2.2752-.1952-.2224-.355-.444-.355-.4924s-.174-.1651-.3867-.2593c-.2944-.1303-.4697-.1398-.7345-.0399-.2714.1025-.3857.0933-.5209-.0419-.1977-.1977-.8724-.2252-1.5205-.0619-.243.0613-.8542.207-1.3582.324-.504.117-1.1913.3198-1.5273.4506-.3705.1442-.912.2385-1.3758.2394-.4207.0009-.795.0504-.832.1102-.037.0597-.177.1086-.3115.1086-.1555 0-.2122.052-.156.143.059.0955.0222.1175-.111.0664-.2116-.0812-1.3913.2236-1.6352.4224-.0797.065-.5196.1345-.9775.1544-.4579.0198-1.0931.1097-1.4117.1998-.4785.1352-.6557.136-1.0201.0042-.321-.116-.4777-.1229-.5756-.025-.074.074-.3305.1345-.57.1345-.5652 0-1.3002.3845-1.8371.9612-.5287.5678-2.0095 1.849-2.137 1.849-.0516 0-.3013.1787-.5548.3971-.2535.2184-.6056.4973-.7825.6198l-.3217.2226.4012.27c.652.439 1.2845.6983 1.769.7255.3568.02.4686.0837.5208.2967.0475.194.1146.2413.2356.1659.1844-.1148.9935.1681 1.1377.3978.0467.0745.1174.103.1571.0633.1533-.1533.9848.2445 1.1336.5424.0846.1694.3181.3652.519.4352.2007.07.43.2697.5092.4438.0794.174.326.4028.5483.5082.2222.1055.5158.3726.6525.5937.1366.2211.385.4915.5517.6008.1669.1093.3034.2623.3034.34 0 .0776.1786.3123.397.5214.2185.2091.7473.7491 1.1752 1.2.4279.4509.8473.8198.932.8198.0846 0 .2224.0825.306.1833.3034.3655.6423.1926 1.6392-.836zM61.1849 72.5518c0-.0606.1513-.1678.336-.2382.1849-.0703.5412-.2508.792-.4012.2507-.1503.493-.236.5384-.1907.1264.1264-.6002.753-.8308.7165-.1116-.0177-.2386.0254-.2821.0958-.0967.1565-.5535.1711-.5535.0178zm-3.95-.4593c-.095-.095.5858-.578.9974-.7077.2798-.0882.2814-.084.0836.218-.111.1693-.3713.367-.5785.4392-.4454.1553-.402.1509-.5025.0505zm4.6832-3.2793c.166-.2.4887-.249.4887-.0742 0 .1125-.2892.2574-.5137.2574-.077 0-.0671-.0723.025-.1832zm4.9102-2.7187c.0225-.1176.164-.2314.3145-.2528.1505-.0215.2736-.0902.2736-.1528 0-.0625.114-.1137.2534-.1137.4285 0 .218.375-.3145.5598-.6087.2113-.5754.2139-.527-.0405zM50.5168 47.4808c.0732-.0732.3453-.1522.6048-.1756.4348-.039.4531-.0287.2346.1331-.2847.2107-1.0462.2492-.8394.0425zm2.8762-1.4783c.0756-.2265.3386-.2641.3386-.0483a.194.194 0 01-.1935.1934c-.1064 0-.1717-.0653-.145-.145zm1.4383-.767c0-.1031.023-.1875.051-.1875.0282 0 .1381-.0334.2444-.0742.281-.1078.2373.1642-.051.3185-.1951.1044-.2444.093-.2444-.0568zm.733-.432c0-.0671.0826-.1221.1834-.1221s.1832.055.1832.1222c0 .0672-.0824.1222-.1832.1222s-.1833-.055-.1833-.1222zm2.687-1.6508c-.1256-.1514-.1074-.182.1084-.182.1426 0 .2593.0518.2593.115 0 .2117-.215.251-.3676.067zm1.773-1.159c-.113-.1829.0438-.367.3126-.367.305 0 .305.1994.0002.3626-.1576.0844-.2623.0858-.3127.0043zm2.6269-1.8332c0-.0672.0582-.1222.1294-.1222.0711 0 .0954.055.0539.1222-.0416.0672-.0998.1222-.1294.1222-.0297 0-.054-.055-.054-.1222zm4.3172-3.1107c0-.1041.1047-.1883.2342-.1883.133 0 .2122.066.1834.1527-.0751.2256-.4176.2547-.4176.0356zm2.6974-1.8227c-.1021-.266-.0306-.3375.1969-.1969.1397.0864.1465.1427.031.2582-.1155.1155-.1652.1021-.228-.0613z" id="path3851" fill="#000" stroke-width=".1222"/>
  </g>
</svg>
