<svg xmlns="http://www.w3.org/2000/svg" viewBox="0 0 210 297" version="1.1" id="svg3427">
  <g id="layer1">
    <path d="M22.9034 279.0905c-.5618-.0693-2.0692-.3676-2.974-.5887-1.2925-.316-3.1949-1.8711-3.7407-3.0582-.1557-.3387-.4233-.8197-.5945-1.0689-.1712-.2492-.7018-1.2155-1.1791-2.1478l-.868-1.695.0207-1.9826c.0114-1.0905.0598-2.1685.1078-2.3957.3095-1.4668 1.251-3.4934 2.0645-4.4436.5926-.6924 2.752-2.2202 3.1379-2.2202.124 0 .2255-.0993.2255-.2202 0-.121.1396-.2203.3102-.2203.1706 0 .4122-.1236.537-.2746.5451-.6604 1.474-.872 3.7912-.8637 2.167.0103 2.2505.0207 3.6225.6016.7724.3268 1.4415.6416 1.487.7002.0455.0584.5154.4307 1.0445.8265.8845.662 1.9294 1.901 1.9294 2.2877 0 .1975.8144 1.8324 1.0835 2.1746.3412.4338.7075 3.8.4135 3.8-.0964 0-.1753.0719-.1753.1598 0 .0879.1116.1174.2479.065.2983-.1142.305.0818.0778 2.2534-.204 1.9485-.3643 2.4426-1.232 3.7965-.38.5925-.6845 1.1272-.677 1.188.0243.197-.7805.9633-1.012.9633-.1237 0-.7985.3243-1.4995.7204-1.442.815-1.8896.9752-3.753 1.3434-1.6973.3356-1.898.3605-2.3957.2994zm.6608-1.126c0-.1375-.0716-.379-.1591-.537-.0876-.1577-.3074-.6103-.4887-1.0056l-.3295-.7187.5196-.438c1.3144-1.1074 1.206-1.0737 1.6713-.5207.6007.7139.9343.655.9343-.165 0-.4772.0688-.6608.2478-.6608.1363 0 .2479.0765.2479.1706 0 .363.7183.4452 1.2338.1412.7416-.4375 1.6315-1.4081 1.4944-1.63-.0862-.1396-.1903-.1287-.3903.0415-.4261.3599-1.508.9479-1.7435.9479-.117 0-.337-.137-.4888-.3051-.259-.286-.2533-.3346.0926-.7848.2027-.2637.4294-.523.5039-.5757.1518-.1075-.011-.6476-.1954-.6476-.0653 0-.2933.1856-.5068.4131-.4841.5156-.6206.5171-.8517.0103-.151-.3314-.121-.5093.1688-1.0007.3963-.6717.4394-.909.1652-.909-.2608 0-.932.8122-1.1224 1.3583-.1189.3412-.099.514.08.6927.2925.2927.316 1.0901.032 1.0826-.3208-.0103-.8732-.5327-1.1313-1.0736-.1612-.3377-.3754-.5067-.6873-.5428-.2492-.031-.453-.0207-.453.0207s.3345.5707.7434 1.1804c.409.6098.7435 1.1685.7435 1.2414 0 .073-.2788.3418-.6196.598-.3408.256-.6683.5365-.728.6238-.0596.0874-.3324-.2803-.6062-.8173-.739-1.449-.907-1.642-1.1619-1.3348-.1699.2048-.1201.422.2774 1.2128.2663.5298.6544 1.3722.8623 1.872.3814.9167 1.2924 2.2986 1.5216 2.308.0682.003.124-.1076.124-.2451zm4.9149-2.6158c.706-.4468 2.0243-1.7204 2.0243-1.956 0-.0863.1765-.3934.3923-.6826.6848-.9183 1.0028-2.179 1.0076-3.9956.0041-1.5419-.2932-3.2217-.5702-3.2217-.0653 0-.2316-.2875-.3696-.6388l-.2509-.6387-.8266.0796c-.9063.0874-1.1623-.089-.8518-.5864.2576-.4126.07-1.364-.3826-1.9392-.5431-.6905-2.664-2.0017-3.5527-2.1962-1.4386-.315-2.0033-.3708-2.1047-.2069-.1276.2069.322.4473 1.1119.5957.7806.1464.8996.3392.489.793-.896.9899-1.87 3.0856-1.4338 3.0856.1277 0 .5467-.4525 1.1833-1.2785l.4124-.535.4404.4525c.6689.6871 1.4856 1.3611 1.6495 1.3611.0805 0 .2382.1107.3503.2456.1656.1996.122.4023-.2312 1.0777-.383.7324-.403.8444-.167.935.1474.0564.3274.005.4-.1107.0725-.1174.2486-.1686.3912-.1137.1718.0657.351-.0558.5307-.36.2554-.4322.3259-.455 1.203-.3883 1.0878.0833 1.3769.3454 1.7573 1.5939.6542 2.1472-.0445 5.1167-1.6462 6.996-.6204.728-1.8465 1.6087-3.2718 2.3502-.7124.3707-1.1117.6796-1.1118.8605-.0002.2307.256.1485 1.4037-.4519.7722-.4038 1.683-.9109 2.024-1.1266zm-1.28-12.018a91.9185 91.9185 0 01-.9914-.8176c-.318-.2663-.7197-.5857-.8927-.7099-.3021-.2166-.294-.2471.207-.7714.4904-.513.5397-.5294.8232-.273.166.1499.383.273.4824.273.3388 0 1.209.864 1.4492 1.439.4343 1.0395-.2144 1.5571-1.0778.8599zm-6.6998 13.5758c.0517-.0832-.4848-.734-1.1918-1.4457s-1.4885-1.5417-1.7366-1.8443l-.4512-.5503.7513-.9563c.4132-.526.8253-1.2241.9156-1.5514.1544-.5591.2145-.6018.9918-.705.64-.0847.8157-.17.7752-.3764-.0596-.304-.901-.331-3.2264-.1034-1.17.1148-1.363.0977-1.363-.1184 0-.3418.3036-.5614.974-.705.3458-.074.837-.4038 1.2803-.8601l.7192-.74 1.1722.1975c1.2157.2048 1.6097.0998 1.4251-.3811-.0792-.2063-1.6673-.4902-4.8274-.862-.1817-.0208-.3454-.0466-.3637-.06-.0181-.0104.0678-.2617.1914-.5558l.2248-.5347 1.4607-.002c1.343-.002 1.4735-.031 1.6195-.364.0873-.199.3065-.4002.4872-.4473.3407-.0889 1.4193.4732 1.4193.74 0 .0833.1858.1515.413.1515.7296 0 .4534-.4437-.7848-1.2608-.6588-.435-1.2958-.925-1.4156-1.0894-.1198-.1644-.272-.2653-.3383-.2244-.0663.0414-.2275.0103-.3583-.0724-.1988-.1231-.1824-.1986.0998-.4613.1856-.1732.6198-.4074.9648-.5215.7087-.2337 1.0346-.0553 1.1686.6407.1433.7444.3785.8523 1.0253.4706.4718-.2787.5433-.3827.361-.5252-.1251-.0977-.376-.4644-.5576-.8148-.3972-.7662-.8813-.9838-1.9906-.8952-.6364.0517-1.0563.2208-1.7698.7167-.5145.3573-.9383.711-.9417.7856-.0034.0745-.3037.4881-.6672.9193-.3634.4313-.6609.8362-.6609.9003 0 .0641-.1858.4111-.413.7709-.2272.3599-.413.8268-.413 1.0376 0 .211-.0769.4602-.1708.554-.0939.094-.1776.519-.1862.945-.0088.426-.0884.8192-.1774.8742-.0964.0595-.0711.1588.0623.2446.1859.12.1818.1722-.0238.3072-.1657.1086-.1793.1634-.0413.165.2473.003.2748.529.0398.7638-.2091.209.3882 2.6447.7455 3.0394.136.1505.2472.3455.2472.4339 0 .2487 1.3845 2.092 1.9778 2.6334.292.2663.7521.6882 1.0225.9372.9553.88 1.3562 1.089 1.5347.8zm-4.0862-5.342c-.5295-1.4473-.533-1.4186.1647-1.3827.8545.0414 1.025.185.9488.7864-.069.5457-.485 1.2985-.7177 1.2985-.0764 0-.2545-.316-.3958-.7022zm-.4076-4.2166c.0445-.592.0722-.6177.7048-.6591.362-.026.7698.031.906.1189.2109.1376.1863.2213-.1651.5598-.2272.2187-.6559.4426-.9526.4969-.5362.0988-.5392.0957-.493-.5166zm1.9-3.2952c-.5858-.089-.5726-.208.1079-.9726l.5622-.6319.5115.5.5114.5-.3366.3615c-.332.3563-.4588.379-1.3564.243zm14.3327 7.8836c.0562-.091.028-.165-.063-.165s-.2113.0745-.2674.165c-.0562.091-.028.165.063.165s.2112-.0746.2674-.165zm-3.2218-1.083c0-.5532.0254-.5749.9914-.8434 1.2158-.3382 1.341-.7171.237-.7171-1.017 0-1.3936-.225-1.3936-.832 0-.501.0037-.503 1.0414-.5637.2689-.0155.6018-.347.6083-.6054.0046-.1867-2.3829-.3077-3.3525-.1702-.9435.134-.9635.1283-1.2021-.333-.2691-.5204-.434-.578-.7084-.2472-.2661.3206.2552 1.7497.9723 2.6653.4233.5404.729.7621 1.154.8369.9072.1598.9914.2084.9914.5773 0 .4664.3095 1.018.504.8979.0863-.0533.1569-.3527.1569-.6648zm-1.763-1.8661c-.3006-.09-1.1819-.9843-1.0164-1.0313.7788-.2213 1.1732-.136 1.6293.3527.674.7214.4303.9913-.613.6788z" id="path75-3" fill="#fe0000" fill-opacity="1" stroke-width=".1652"/>
    <path d="M67.061 278.0172c-.2026-.1936-.4886-.3766-.6357-.4067a149.602 149.602 0 01-.5703-.1182c-.1667-.035-.4368-.216-.6002-.4023-.1635-.1862-.3593-.3386-.4352-.3386-.0758 0-.2916-.1293-.4794-.2873-.1878-.158-.3943-.2873-.459-.2873-.2625 0-1.5149-1.3467-1.5868-1.7063-.0497-.2483-.1552-.386-.3295-.4297-.141-.0354-.4178-.2933-.615-.5731-.1973-.2798-.4058-.5088-.4635-.5088-.0577 0-.1373-.1292-.177-.2873-.0396-.158-.1228-.2873-.1848-.2873-.062 0-.1127-.0548-.1127-.1216 0-.067-.1449-.3126-.322-.546-.4501-.5932-.6742-1.2609-.8821-2.6289-.043-.2822.1214-.7915.4752-1.4728.2412-.4645.2672-.6923.444-3.8944.038-.688.1179-1.7482.1775-2.3559.1613-1.6458.197-2.1156.28-3.6906.0417-.79.092-1.6692.1118-1.9537.0198-.2844.0735-1.3187.1194-2.2984.0458-.9797.1038-1.8848.1288-2.0112.025-.1264.0456-1.5227.0457-3.103.0001-1.5801.049-3.6746.1083-4.6543.0594-.9797.1411-2.5312.1817-3.4477.0405-.9165.1107-2.018.156-2.448.1267-1.2041-.1253-2.3948-.6311-2.9824-.2373-.2757-.8538-1.6511-.8532-1.9037.0002-.0953-.0789-.1263-.2134-.0836-.2804.089-.5908-.0355-.5908-.237 0-.2091-.3448-.2048-.6489.008-.1321.0926-.2673.1412-.3004.1082-.1293-.1293-.8687.291-1.1113.6316-.1408.1977-.4034.4357-.5835.5289-.1842.0952-.3437.283-.3645.4292-.0262.1847-.12.2649-.3242.2772-.158.01-.3482.0225-.4227.0287-.0745.006-.2252.101-.3348.2107-.1097.1097-.3234.1831-.475.1633-.1937-.0254-.4409.1116-.8322.4614-.8598.7686-.914.8033-1.1425.7308-.2608-.0828-.7725.1375-1.1154.48-.2068.2066-.3165.2355-.5934.156-.1868-.0535-.4088-.0546-.4932-.003-.0845.0523-.1998.0664-.2562.0316-.1673-.1034-.6731.2254-.7803.5071-.0545.1436-.1915.261-.3042.261-.1128 0-.269.1022-.347.2272-.078.1249-.3594.3381-.6253.4738-.5481.2796-2.335 2.0392-2.2933 2.2583.015.079-.0174.1436-.0721.1436s-.3373.228-.628.5066c-.2908.2786-.6362.5406-.7676.5823-.1314.0417-.239.1241-.239.183 0 .059-.0775.1072-.1723.1072-.2889 0-.1964-.1954.3447-.729.3507-.3456.5172-.6064.5172-.8098 0-.165-.0516-.3-.1146-.3-.1374 0-1.0346.7949-1.0346.9166 0 .1028-1.3897 1.4968-1.4922 1.4968-.0395 0-.394.3103-.7876.6896-.3936.3792-.7446.6895-.78.6895-.0931 0 .9773-1.1754 1.2343-1.3553.1191-.0834.2165-.2093.2165-.2796 0-.0704.3233-.476.7183-.9012 1.0887-1.172 2.0548-2.2663 2.3283-2.637.2214-.3.7218-.8721 2.3782-2.719.9252-1.0318 1.2573-1.934.4032-1.0958-.2836.2784-.6023.4836-.7508.4836-.1743 0-.337.1336-.5008.4114-.1335.2262-.4445.5387-.6912.6944-.2466.1557-.4756.3714-.5087.4793-.1184.3854-.2493.5405-.4288.508-.1003-.018-.2449.0672-.3213.1897-.0803.1286-.2153.1966-.3196.1611-.1152-.0392-.098.003.0476.116.2234.1736.2236.1827.0134.415-.1182.1306-.2593.2101-.3135.1766-.1383-.0855-.6752.4755-.6752.7054 0 .271-.6019.9943-1.1145 1.3392-.4597.3092-1.4138.5263-1.4138.3216 0-.3145-1.3207.1077-1.4104.4509-.0346.132-.2874.28-.701.41-.3699.1164-.6468.2705-.6468.3601 0 .21-.4167.6164-.632.6164-.246 0-.213-.2292.077-.538.3683-.392.1608-.4647-.33-.1155-.2345.1669-.4558.2556-.492.1972-.0824-.1335-.2846-.004-.374.2387-.0398.1083-.2502.2096-.5088.2449-.2425.0331-.7668.255-1.1651.4932-.9574.5722-1.195.3904-.3142-.2406.4964-.3557.6318-.519.6337-.7643.0025-.3134.3181-.5891.6072-.5305.2417.049.6816-.2558.616-.4268-.0338-.0879-.012-.1904.0485-.2278.0604-.0374.1099-.146.1099-.2413 0-.2563-.462-.0834-.7654.2866-.1366.1664-.2916.2596-.3446.207-.053-.0526.0458-.199.2196-.3256.1737-.1266.3158-.2767.3158-.3337 0-.15-.6151.2468-1.1506.7422-.2536.2347-.509.3971-.5676.361-.0586-.0363-.1484.003-.1997.0863-.202.3298-1.1337.8775-1.4724.8657-.205-.007-.5916.1399-.9538.3628-.335.2061-.6407.3432-.6793.3046-.1035-.1035.2415-.4473 1.0121-1.0084.376-.2739.6263-.517.5561-.5405-.0701-.0234-.185.015-.2554.0853-.2551.2552-.32.1192-.1171-.2456.245-.4408.3667-.5438.5567-.4709.3073.118 1.3166-.3337 1.6888-.7558.9417-1.068 1.0605-1.2238 1.0313-1.353-.017-.0758.0833-.199.2232-.2738.2488-.1332.2495-.1395.0324-.3004-.2187-.162-.2186-.1668.008-.3379.1437-.1084.3682-.1518.5992-.1157.3316.052.4403-.0145 1.063-.6489.8327-.8483.8794-1.0338.234-.9306-.3713.0594-.4597.039-.4597-.1058 0-.0986.1034-.2121.2298-.2523.1265-.04.2299-.1174.2299-.1719 0-.0544.0653-.1673.1451-.2508.0799-.0835.2317-.2872.3374-.4526.1923-.3008.6667-.5236.6667-.313 0 .2136-.2389.5563-.3878.5563-.0824 0-.21.1318-.2833.2928l-.1335.293.4951-.3407c.2723-.1874.5631-.4226.6462-.5227.0831-.1002.2187-.1821.3013-.1821.2262 0 .5098-.3298.44-.5117-.0358-.0934.0502-.2167.206-.2956.1471-.0744.4134-.2982.5917-.4972.2296-.2563.3425-.3168.3868-.2072.0392.0972.1676-.0311.345-.3448.1552-.2747.5371-.7233.8486-.9968.3114-.2735.5662-.5772.5662-.6749 0-.146-.031-.1517-.1751-.0322-.2899.2406-.3266.0348-.0605-.339.138-.1938.4126-.3925.6159-.4457.2817-.0737.3686-.1607.3746-.375.0142-.502.164-.6814.5688-.6814.283 0 .4556-.09.6773-.3536.3337-.3966.3832-.5915.1251-.4924-.2526.0969-.2111-.0419.1178-.3944.2323-.249.3102-.279.3907-.1506.1.1596.277.0226.7927-.6132.2937-.3622.0721-.4096-.305-.0652-.6215.5677-.7685.1858-.162-.4207.156-.156.407-.3306.558-.388.1508-.0573.2742-.183.2742-.2794 0-.2564.2412-.2141.3115.0546.086.329.2098.2858.493-.1724.1367-.2212.2923-.4022.3458-.4022.0535 0 .1858-.2008.294-.4461.1287-.2916.332-.5106.5869-.6321.2145-.1023.416-.186.4476-.186.1127 0-.193.463-.7384 1.1184-.9613 1.1551-1.0646 1.5747-.2485 1.0091.3117-.216.4618-.4056.4618-.5833 0-.1513.1403-.377.3295-.5303.1813-.1468.42-.4091.5304-.583.1105-.1738.288-.316.3945-.316.2468 0 .4695-.221.4695-.4659 0-.1045.1215-.3213.2702-.4816.1486-.1604.3043-.3806.346-.4894.0595-.155.1109-.169.2367-.0645.1267.1052.1989.0787.3416-.125.1399-.1997.1487-.2789.0391-.3485-.164-.1042-.139-.1165.289-.1426.231-.014.3161.0345.3161.1805 0 .1098-.0566.2346-.1258.2774-.0691.0428-.2738.4078-.4548.8112-.319.7109-.4978.8873-.5977.5899-.0266-.079-.1088.039-.1827.2624-.0937.2832-.2384.4452-.4784.5358-.1893.0714-.3441.213-.3441.3146 0 .1015-.1202.3775-.267.6133-.1468.2358-.3016.5224-.344.637-.0679.184-.0354.1789.276-.0429.194-.1382.4088-.3741.4773-.5244.0684-.1502.1919-.273.2743-.273.0825 0 .2104-.1132.2844-.2514.074-.1383.231-.3549.3488-.4814.1179-.1265.2143-.2737.2143-.3271s.1681-.2731.3735-.4883c.6233-.6528 1.1778-1.431 1.1817-1.6583.002-.1182.074-.2997.16-.4033.205-.247.108-.3298-.234-.1997-.2565.0976-.2737.0793-.263-.2802.0063-.2116.0668-.4513.1344-.5328.0676-.0815.158-.288.201-.4589.0456-.1819.24-.4064.4689-.5414.4637-.2736.5045-.4682.0983-.4682-.2048 0-.3514.1032-.4884.344-.1077.1892-.2313.3444-.2747.3448-.0433 0-.195.2076-.3372.4604-.142.2528-.2992.4597-.3491.4597-.05 0-.1712.1553-.2694.3452-.2429.4698-2.1177 2.3987-2.1218 2.1831-.0031-.1618.4516-.7539 2.1328-2.7773.3852-.4635.7552-.9466.8224-1.0735.067-.1269.3467-.4743.6213-.7721.648-.7026 1.0244-1.1876 1.3627-1.7553.1507-.2529.359-.5373.463-.6321.104-.0948.2567-.3017.3394-.4597.1694-.3234.4386-.6899 1.0549-1.4362.5296-.6414.6132-.903.4298-1.3459-.126-.3042-.1197-.3707.047-.4926.106-.0775.1927-.2257.1927-.3293 0-.1037.0434-.1885.0965-.1885.086 0 .3632-.4926.3632-.6452 0-.0329-.1035-.027-.23.0132-.2083.0661-.2189.044-.1123-.2363.0647-.1701.2457-.41.4023-.5333.1566-.1232.2848-.3346.2848-.4697 0-.2323.349-1.0125 1.3993-3.1278.9364-1.886 1.8455-3.683 1.9476-3.85.3112-.5088.4866-1.027.4862-1.4365-.0008-.8925-.1428-1.641-.4202-2.216-.1543-.3199-.3165-.7248-.3604-.8998-.044-.175-.179-.4042-.3-.5091-.121-.105-.1893-.2216-.1518-.2591.0375-.0375-.1444-.5137-.4043-1.0581-.26-.5444-.4726-1.0628-.4726-1.152 0-.0892-.1043-.3624-.2319-.607-.1275-.2448-.209-.5696-.181-.7219.0281-.1523.055-.344.0596-.426.0047-.082.1454-.276.3126-.431.2438-.2258.4258-.2818.9168-.2818.5197 0 .64.0418.7932.2756.105.1602.3417.3058.5657.3478.2118.0397.4475.1474.5237.2392.137.1651.2596.236 1.4935.8637.3476.1768.7574.4555.9107.6193.1532.1637.3286.2977.3896.2977.2345 0 1.137.5195 1.2414.7145.0603.1127.2032.2048.3176.2048s.3016.1035.416.2299.3293.2298.4775.2298.2695.0482.2695.1072c0 .059.1164.1435.2586.1879.1422.0444.4421.2577.6664.474.3699.3568.6625.5621 1.1386.7993.3393.169.6946.5473.6946.7396 0 .1165.1417.2473.3447.318.1897.0662.3448.1827.3448.259s.1293.3083.2873.5155c.158.2072.2878.419.2884.4705.0006.0516.1848.3249.4092.6072.2423.3048.3862.5966.3544.7183-.0295.1127-.0081.205.0476.205.2456 0 .5784 1.15.8645 2.988.1427.9172.1816 2.9622.0578 3.0388-.0691.0427-.126.2168-.1264.3869-.0003.17-.0837.4644-.1851.654-.1014.1896-.261.7068-.3544 1.1492-.0935.4425-.214.858-.268.9232-.0538.0653-.1535.2651-.2216.444-.1031.2714-.0956.3147.045.2607.275-.1055.0809.2814-.3439.6857-.2396.228-.4444.586-.559.9768-.0996.3394-.2538.7722-.3427.9618-.089.1896-.2503.5775-.3585.862-.1082.2844-.2364.6205-.2849.747-.0485.1264-.1413.54-.2063.9193-.2374 1.3857-.4422 1.9803-1.353 3.929-.1533.3278-.2787.651-.2787.7182 0 .0672-.0534.1221-.1185.1221-.0652 0-.1521.0905-.1931.2012-.1134.3059-.6335 1.0757-.9238 1.3674-.1423.1429-.2586.3282-.2586.4118 0 .0836-.1034.2407-.2299.349-.1264.1081-.2298.2646-.2298.3477 0 .083-.1873.3292-.4163.547-.229.2178-.5004.5787-.6033.8019-.1952.4233-1.1578 1.6051-1.3076 1.6052-.151.0001-.0927-.3112.086-.4594.3046-.2528 1.092-1.513 1.092-1.7477 0-.1825-.0986-.126-.4997.2868-.2748.2827-.5317.5978-.571.7-.0392.1024-.1285.186-.1984.186-.0698 0-.387.2845-.7046.6322-.3178.3476-.6321.632-.6986.632-.1515 0-1.0015.9328-1.0037 1.1015-.0009.0686-.1649.2702-.3645.448-.3354.2989-.3476.3345-.1618.4704.1106.081.4162.1818.679.2243.2628.0425.6896.169.9485.2813.3104.1346.5334.1691.6545.1013.1194-.0668.5808-.007 1.3178.1712 1.266.3058 1.5609.4351 1.912.839.1463.1682.4237.3065.7016.3499.291.0454.8606.3397 1.5515.8018 1.8576 1.2423 2.2306 1.5989 2.7446 2.6244.683 1.3623.8492 2.013.8222 3.2173-.0127.569-.0166 1.1249-.0088 1.2355.046.6416.026 1.0482-.0946 1.925-.0739.5372-.2084 1.1578-.299 1.379-.2258.552-.3776 2.6883-.3429 4.8268.0293 1.8013.0774 2.4385.2862 3.7925.119.7714.325 5.3784.2725 6.091-.027.3655-.0987 1.1066-.2112 2.1834-.023.2213-.0739.7643-.1129 1.2067-.039.4425-.1296 1.089-.2013 1.4366-.1155.56-.1928 1.7083-.236 3.5051-.0313 1.305.4829 4.3342.8447 4.977.1177.209.214.5001.214.6468 0 .1466.0776.331.1724.4097.0948.0787.1724.2303.1724.3369 0 .1066.0759.2942.1687.4169.254.336.2099.9794-.1108 1.6114-.1577.311-.287.6203-.2873.6874-.0002.0671-.1686.2462-.374.398-.2054.1517-.5991.4837-.875.7377-.4392.4047-.5745.4642-1.0917.4803-1.0548.033-2.7532.1674-2.8472.2255-.0504.0312-.2575-.1018-.4602-.2955zm-30.0643-37.6681c.675-.3645.8795-.5553.8608-.8031-.0192-.2558-.0591-.2467-.5798.1325-.2412.1757-.3439.199-.4092.0933-.0622-.1006-.1822-.042-.4179.2039-.2948.3077-.3024.4018-.029.3586.0474-.007.0862.0381.0862.1014 0 .1566.0573.1465.4889-.0865zm1.2924-1.1776c.039-.0632.0163-.115-.0506-.115-.067 0-.1218.0517-.1218.115 0 .0632.0228.1149.0507.1149s.0827-.0517.1217-.115zm-.0335-.7703c.391-.382.5021-.386.453-.0161-.0056.0415.0656.0644.1581.0508.2209-.0324.859-.647.859-.8272 0-.2077-.32-.124-.5078.1328-.2516.3442-.3293.1268-.0992-.2776.2024-.3556.4647-.423.808-.2077.0833.0522.1437.0356.1437-.0394 0-.0739.0918-.1003.2139-.0616.1286.0408.3232-.0249.4884-.1649.186-.1576.2097-.2101.0735-.1627-.1126.0392-.2011.014-.2011-.0572 0-.07-.0388-.119-.0862-.109-.0474.01-.1802-.0227-.295-.0727-.1235-.0538-.2622-.0377-.339.0392-.0717.0716-.2199.1302-.3294.1302-.1096 0-.3905.2334-.6243.5188-.2338.2853-.55.55-.7026.5884-.1526.0383-.2499.0972-.2162.131.0337.0336-.0457.2343-.1764.4458-.3115.504-.162.488.3796-.0409zm2.9219-2.2282c.284-.1954.574-.4819.6445-.6366.0705-.1546.194-.256.2746-.225.158.0606.7344-.5523.7283-.7744-.002-.0742-.0797-.0342-.1728.0888-.1233.1631-.2035.1893-.296.0968s-.0604-.1624.1186-.2582c.135-.0722.2151-.1803.178-.2402-.037-.06.078-.24.2554-.4003l.3227-.2912-.2873.0325c-.1694.019-.3344.1405-.4022.2958-.132.3026-.5873.4594-.7786.2682-.0964-.0963-.2055-.0468-.424.1925-.1619.1772-.3833.3563-.492.398-.1234.0474-.1712.1453-.127.2603.0442.1154-.0576.321-.2727.5502-.1888.2012-.3742.4542-.4119.5621-.0587.1678-.0268.1803.2207.0862.3805-.1447.3771-.146.3076.1198-.081.3096.0084.2913.614-.1254zm3.2556-3.3592c.0024-.052-.0731-.172-.168-.2668-.2848-.2848-.212-.5887.1605-.6705.4646-.102.778-.4616.5947-.6823-.1106-.1333-.0947-.2107.0791-.3845.1197-.1197.251-.3046.2918-.4109s.202-.2516.3584-.3228c.3624-.1651.4484-.3901.2318-.6067-.1503-.1504-.144-.1843.0548-.2907.1237-.0662.2988-.1204.389-.1204.215 0 .1162-.5683-.1142-.6567-.2083-.0799-.9129.5917-1.0048.9579-.0377.1504-.116.2734-.174.2734-.058 0-.2187.2017-.3572.4482-.1385.2464-.3728.5128-.5206.5919-.1478.079-.2425.1862-.2105.238.032.0518-.0166.239-.108.4158s-.1401.4581-.1082.6252c.0667.349-.1686.5288-.689.5266-.33-.001-.8847.4159-.8847.6655 0 .076-.0776.2026-.1724.2813-.0948.0787-.1722.2273-.172.3301.0002.1176.1601.002.4309-.3113.3734-.432.4725-.4877.7459-.4187.1734.0438.2867.1259.2518.1823-.115.186.1398.107.4098-.1272.4569-.3962.4336-.2642-.0744.4233-.1487.2012-.2693.4081-.268.4597.003.1183 1.0215-1.0215 1.0275-1.1498zm4.4864-5.2772c0-.2926-.0844-.2498-.2894.1467-.1767.3416-.1755.3458.0545.2022.1292-.0807.235-.2377.235-.349zm8.6193-15.3721c0-.0632-.0228-.115-.0507-.115s-.0826.0518-.1217.115c-.039.0632-.0163.115.0507.115s.1217-.0518.1217-.115zm34.9941 50.2635c-.632-.1575-1.2556-.2995-1.3857-.3157-.4097-.0507-1.9827-.8093-2.1813-1.052-.0656-.0801-.376-.2862-.6895-.4579-.3136-.1717-.6478-.4019-.7426-.5114-.0948-.1097-.4698-.366-.8332-.5695-.3635-.2036-.6608-.4182-.6608-.4767 0-.0586-.0548-.1065-.1217-.1065-.1775 0-1.0276-.706-1.0276-.8535 0-.1162-.339-.3907-.6492-.5256-.2346-.102-1.7641-1.9435-1.7641-2.1239 0-.096-.0504-.1746-.112-.1746-.1912 0-.455-.6409-.5314-1.2914-.1043-.8875.1197-1.267 1-1.6933.6806-.3297.7949-.3464 2.5164-.3666.5937-.007 1.0983.0524 1.2912.1518.239.1232 1.69-.2177 1.8811-.442.0698-.0819.3523-.1771.628-.2118.2756-.0346.5846-.1385.6867-.2309.102-.0924.2208-.168.264-.168.043 0 .3234-.107.623-.238 1.0737-.4695 1.2427-.5364 1.8662-.7394.3476-.1132.6838-.2412.747-.2845.0632-.0433.658-.2495 1.3216-.4585.6637-.2089 1.2605-.4217 1.3262-.4729.1143-.0891.4073-.1735 1.547-.4455.2843-.0679.6205-.1694.747-.2256.1263-.0562.4883-.162.8044-.235.316-.0732.7556-.1847.9768-.248.2212-.0632.4798-.1279.5746-.1436.282-.0468 1.9668-.4316 2.5858-.5906 2.1362-.5487 3.1752-.7506 3.816-.7417.2768.004.686-.097.9583-.2358.2614-.1334.614-.2279.7837-.2101.1696.0178.4623-.0292.6505-.1043.4992-.1994 1.9917-.4867 2.171-.418.0846.0326.4778-.0248.8737-.1275.396-.1026.8873-.208 1.092-.2341.2046-.0262.512-.1009.683-.166.171-.065.353-.0923.404-.0606.0513.0316.2926-.0125.5363-.098.394-.1382 1.2804-.289 2.1096-.359.158-.0132.5718-.0827.9194-.1544.3476-.0716.839-.1604 1.0918-.1974.2528-.0369.6148-.0896.8044-.117.4156-.0601 1.1131-.2033 2.1517-.4418.425-.0976.8523-.1469.9496-.1095.0973.0374.241.0167.3192-.0458.1446-.1157.967-.2343 2.2108-.319.3792-.0258.8188-.0836.9768-.1284.3373-.0956.3168-.0925 1.7239-.2653.6005-.0738 1.2469-.1794 1.4365-.2347.3552-.1036 1.882-.3373 4.1947-.642 1.9248-.2535 2.8708-.3957 3.3903-.5096.4188-.0918 1.3453-.1708 3.3902-.2892 1.0249-.0593 2.5611-.2827 2.7007-.3928.0632-.0498.2184-.0515.3448-.004.1307.0494.386.0231.592-.061.2851-.1165.4195-.1185.632-.009.353.181 1.561.4475 1.6839.3715.0527-.0325.2473.0334.4327.1465.2998.183.3654.1872.595.0384.3327-.2156 1.0175-.0971 1.2087.209.077.1233.2538.2242.3929.2242.139 0 .2869.055.3285.1223.0416.0673.2148.1078.385.09.3042-.032 1.0055.3623 1.1963.6725.0505.0822.1568.1494.236.1494.0794 0 .342.181.5834.4023.2416.2212.4857.4022.5425.4022.0568 0 .151.1252.2091.2782.0755.1987.169.2616.3273.2203.2771-.0725.7105.4951.7105.9307 0 .166.0776.3316.1724.368.0948.0364.174.177.1762.3124.002.1355.1003.45.218.699.2127.4497.2052.754-.0187.754-.0685 0-.0886.1419-.0485.3425.0534.2668.004.4124-.2253.6594l-.2937.3169.2396.159c.2958.1965.2978.3376.01.7058-.1236.158-.2259.3993-.2273.5362-.002.1648-.1191.3006-.3473.4016-.3182.1408-.3448.1978-.3448.7403v.5877l-.4884.1025c-.3312.0695-.524.1833-.5986.3536-.0606.138-.2287.305-.3735.371s-.2633.1687-.2633.2282c0 .114-.3386.2056-1.0738.2906-.2429.0281-.5069.1404-.5867.2495-.092.126-.2188.1701-.347.121-.1215-.0467-.3599.02-.5985.1675-.287.1773-.5057.2274-.7915.181-.2409-.0391-.395-.0168-.395.057 0 .153-1.7498.005-1.8507-.156-.1103-.1766-.8552-.304-1.4654-.2505-.524.046-.5835.0227-.9171-.3571-.2318-.264-.4585-.4063-.6475-.4063-.16 0-.385-.0905-.4999-.2011-.3633-.3496-.9247-.7183-1.0938-.7183-.0896 0-.2274-.0776-.306-.1724-.0788-.0948-.2953-.1723-.4814-.1723-.186 0-.4416-.0553-.5679-.123-.1434-.0767-.2808-.0827-.366-.016-.075.0589-.3431.1124-.596.1191-.565.015-1.3392.1362-1.494.2338-.0631.04-.4383.0761-.8336.0804-.558.006-.7532.055-.8727.2184-.1195.1634-.2286.1907-.488.1221-.5741-.152-1.5677-.1445-2.1004.0158-.281.0846-.7038.1538-.9393.1538-.3307 0-.4714.066-.6177.2893-.1597.2437-.2265.2694-.4245.1635-.1291-.069-.3213-.09-.427-.0465-.2433.1004-1.4373.2578-2.5242.3328-.461.0318-.8996.0959-.9748.1423-.16.099-.2653.1124-1.6348.2093-.5689.0402-1.112.1034-1.2067.1404-.0948.037-.2888.0558-.431.0419-.1422-.0139-.2586.0301-.2586.0978s-.0776.1232-.1723.1232c-.0948 0-.1724-.0558-.1724-.1241 0-.1233-.0925-.1139-1.2642.1284-1.6588.343-3.1037.6119-3.5052.6521-.2528.0254-.563.0896-.6895.1428-.4032.1697-1.6961.4622-2.5733.5823-.4672.064-.9609.1442-1.097.1784-.1363.0342-.478-.0125-.7596-.1038-.7532-.2443-1.4792-.2398-1.5666.01-.1185.3378-.5335.5974-.9595.6-.223.001-.5074.0704-.6321.1532-.29.1927-1.8715.6174-2.64.709-.5903.0705-2.406.5816-2.6433.7442-.0632.0433-.3476.1458-.632.2279-.5536.1597-2.1284.669-2.4135.7806-.0948.0371-.2124.0588-.2613.0483-.161-.0347-1.5774.6741-1.5774.7894 0 .062-.093.1127-.2066.1127s-.4047.203-.6468.451c-.2422.248-.55.4796-.6842.5148-.134.035-.3598.2447-.5016.4657-.1419.221-.4521.501-.6896.6222-.2374.1212-.5297.3288-.6496.4614-.12.1325-.4561.3776-.747.5446-.291.167-.6583.4215-.8164.5658-.4485.4094-1.3145.4395-2.7007.094zm-49.3595-19.7514c.1561-.188.4597-.2342.4597-.0698 0 .1058-.272.2422-.4832.2422-.0724 0-.0632-.068.0235-.1724zm-11.8957-.516c.181-.1889.3583-.3143.394-.2786.0357.0357-.0252.1153-.1353.1769-.11.0616-.2001.187-.2001.2787s-.0873.1666-.194.1666c-.1517 0-.1222-.0747.1354-.3435zm8.7927-.7915c0-.0555.0776-.1652.1724-.244.1871-.1552.2105-.118.1027.163-.0739.1925-.275.2517-.275.081zm-5.976-1.7132c0-.1494.6809-.5034.8122-.4222.1894.117-.2294.5124-.5427.5124-.1482 0-.2695-.0406-.2695-.0901zm1.8805-2.151c.0403-.105.0732-.2126.0732-.239 0-.0265.1331-.0482.2958-.0482.4283 0 .3297.3896-.1115.4402-.2688.0308-.317.002-.2575-.1531zm3.0197-3.1027c.0364-.0948.1186-.1724.1828-.1724.0673 0 .0561.073-.0263.1724-.0787.0948-.161.1723-.1829.1723-.0219 0-.01-.0776.0264-.1723zm18.9095-1.2633c.1018-.2236.1646-.258.2862-.1571.1796.149.0064.4435-.2609.4435-.1244 0-.1295-.0578-.0253-.2864zm.554.1796c0-.0632.1035-.1703.23-.238.1478-.079.2298-.082.2298-.008 0 .0632-.1035.1703-.2299.238-.1478.079-.2298.082-.2298.008zm38.9065-5.4017c-.0418-.0675-.2694-.1227-.5058-.1227-.2365 0-.479-.049-.5391-.109-.1021-.1019-1.0599-.3053-1.8262-.388-.1858-.02-.358-.0967-.3825-.1704-.1057-.317-.4924-.616-1.4578-1.1275-.9947-.527-1.5456-.9808-1.5532-1.2793-.002-.079-.0424-.1438-.0898-.144-.2761-.001-1.055-.8784-1.246-1.4037-.0394-.1085-.1695-.2284-.2891-.2663-.1196-.038-.2175-.116-.2175-.1734 0-.0574-.173-.262-.3847-.4545-.2116-.1925-.5306-.6463-.709-1.0084-.1783-.362-.4356-.8134-.5718-1.003-.534-.7436-.6174-1.286-.2875-1.8728.134-.2384.3982-.5018.5872-.5855.4923-.218 1.416-.255 1.9202-.0772.57.2011 3.435.1539 3.8278-.063.1497-.0828.331-.1387.403-.1243.0719.0144.2787-.0348.4596-.1092.181-.0745.3975-.124.4812-.11.0837.014.213-.021.2873-.0774.0743-.0566.523-.219.997-.361.4741-.142 1.0171-.3261 1.2067-.4092.1897-.083.5258-.1883.747-.2338.2213-.0456.5316-.148.6896-.2274.6094-.3066 1.1653-.5185 1.36-.5185.1116 0 .252-.0434.3121-.0964.0601-.053.4195-.162.7987-.2421.858-.1814 1.3261-.344 1.5606-.5423.0998-.0844.3916-.1535.6485-.1535.2726 0 .4905-.061.5233-.1466.031-.0806.3854-.2146.7876-.2976.4023-.0832.7606-.1983.7962-.2559.0356-.0576.2685-.1302.5175-.1614.732-.0918 1.0007-.1523 1.4871-.3349.2529-.0949.5631-.176.6896-.18.1264-.004.6694-.1389 1.2067-.2994.5372-.1606 1.1267-.3131 1.3098-.339.6046-.0857 1.1036-.2988 1.2234-.5227.1388-.2593.363-.3.2665-.0483-.0812.2117-.01.2126.6631.008.2928-.0889.7654-.1616 1.0501-.1616.4802 0 1.6756-.2598 2.21-.4803.2778-.1146.8583-.2271 1.537-.298.2766-.0289.6127-.1129.747-.1867.1344-.0738.3566-.1208.4938-.1043.1372.0165.887-.0551 1.6664-.159.7793-.104 1.598-.2077 1.8192-.2306.6765-.07 2.0686-.4274 2.0686-.531 0-.14.3178-.1212.3654.0216.0262.0786.1964.065.498-.04.252-.0877.7905-.1933 1.1966-.2347.406-.0414.8197-.1459.9193-.2323.0996-.0864.2422-.1348.317-.1076.0747.0272.1929-.057.2626-.1873.0697-.1303.2025-.2369.295-.2369.0927 0 .1683-.0646.1682-.1436 0-.1036.1956-.1326.7017-.1041.4088.023.7544-.013.8277-.0862.0692-.0692.3398-.1258.6014-.1258.396 0 .4977-.0482.6067-.2873.1466-.3219.3091-.3705.4048-.1212.0476.124.147.1422.3927.0718.222-.0637.3954-.0457.5334.0552.164.12.299.122.6827.0102.5085-.1481.5945-.1468 2.202.0344.5689.0642 1.237.1152 1.4849.1135.4842-.003 1.1009.2024 1.1009.3672 0 .0555.1034.101.2298.101s.3252.0953.4416.2118c.1853.1852.4546.2563 1.5917.4198.3454.0497.495.156.495.352 0 .0911.0696.1656.1546.1656.085 0 .24.0945.3446.21.1267.14.2996.1939.519.1617.2805-.0412.4022.0383.8227.537.375.4447.5702.5853.8125.5853.3356 0 .7943.4914.7943.851 0 .1266.1054.1834.3408.1834.353 0 .5943.2713.4932.5543-.0299.0837.1019.3466.2928.5841.231.2875.3147.4844.2503.5887-.0536.0867-.05.2445.008.3533.0748.1397.0423.2744-.1121.465-.1615.1995-.1885.3223-.105.4781.0803.1503.061.2878-.0684.4853-.0993.1515-.1805.3599-.1805.463 0 .103-.0962.3247-.214.4924-.1176.1678-.2767.499-.3536.736-.077.237-.2134.431-.3033.431-.0899 0-.1634.0517-.1634.115 0 .0631-.0735.1149-.1633.1149s-.387.2318-.6608.5152c-.2737.2834-.5557.5161-.6269.5172-.071.001-.1588.1495-.1949.33-.0555.2773-.151.3508-.6177.475-.3036.0807-.7219.2426-.9294.3597-.2076.1172-.493.2035-.6345.1918-.1415-.0117-.424.102-.628.2528-.3587.2652-1.0472.392-1.9228.3542-2.5154-.1086-2.6153-.1194-2.7447-.2962-.1418-.194-.477-.2498-.7631-.127-.1233.0529-.2132-.026-.304-.2667-.1175-.3112-.1653-.336-.5334-.2762-.2664.0432-.4887.007-.6515-.1075-.136-.0952-.3472-.147-.4694-.115-.1222.032-.3497-.0255-.5057-.1276-.1559-.1022-.3565-.1857-.4458-.1857-.0893 0-.2197-.0692-.2899-.1537-.07-.0845-.4255-.2173-.7898-.295-.3642-.0777-.8382-.1872-1.0533-.2432-.2376-.062-.4715-.059-.5959.008-.1184.0634-.3168.0686-.4708.0124-.3702-.1352-3.2692-.0136-3.5309.148-.0599.037-.4875.0946-.9503.1278-.4629.0332-.9968.0787-1.1866.101-.1898.0225-.705.0793-1.1447.1264-.4398.047-.961.153-1.1582.2354-.1972.0824-.5871.178-.8665.2123-.2793.0344-.8699.1458-1.3123.2476-.4425.1017-1.063.2264-1.379.277-.3161.0506-.798.1757-1.0708.2782-.2728.1025-.5408.1587-.5955.1248-.0547-.0338-.3842.0687-.732.2278-.4235.1937-.8347.2893-1.2443.2893-.4874 0-.641.0468-.7554.2299-.0789.1264-.2447.2298-.3685.2298-.1237 0-.3948.0714-.6024.1586-.6592.277-1.2344.4326-1.3456.3639-.0592-.0366-.1401-.014-.1798.0503-.0397.0642-.171.1168-.2918.1168-.2052 0-.9703.3695-1.184.5718-.0525.0498-.2599.04-.4607-.0216-.2893-.0888-.5081-.0599-1.0537.1393-.3787.1382-.8954.3026-1.1482.3653-.4725.1172-.9036.2772-1.2067.448-.0948.0534-.5582.2873-1.0297.5197-.4716.2325-.9278.4931-1.0138.5792-.0861.086-.1967.1564-.2458.1564-.049 0-.381.2974-.7375.6608-.438.4466-.9748.8286-1.6551 1.178-.5538.2844-1.0327.5481-1.0643.586-.0316.0377-.2727.1022-.5358.1433-.2631.0411-.5553.1042-.6492.1402-.094.036-.205.0103-.2467-.0572zm-50.169-2.228c0-.2145.1875-.3548.2782-.2081.0353.0571-.0129.1677-.107.2458-.1391.1155-.1711.1084-.1711-.0377zm4.3672-1.8021c0-.0632.0547-.115.1217-.115s.0897.0518.0507.115c-.0391.0632-.0939.1149-.1217.1149-.028 0-.0507-.0517-.0507-.115zm-2.241-.8045c.039-.0632.1227-.115.186-.115.0631 0 .0829.0518.0438.115-.039.0632-.1227.115-.186.115-.0631 0-.0829-.0518-.0438-.115zm4.4245-5.5163c.0677-.1264.1747-.2299.238-.2299.0739 0 .071.082-.0081.2299-.0677.1264-.1748.2298-.238.2298-.0739 0-.071-.082.0081-.2298zm.5962-.8117c.0276-.083.1181-.1734.2011-.201.0862-.0288.1293.0143.1006.1005-.0277.083-.1182.1735-.2012.2011-.0862.0287-.1292-.0144-.1005-.1006zM76.501 170.911c0-.2411-.557-.3995-1.417-.4028-.7508-.003-.9263-.0398-1.0605-.2232-.127-.1734-.2137-.1961-.4118-.1078-.1816.081-.4254.0544-.8822-.0963-.3472-.1145-.7654-.2082-.9294-.2082-.2911 0-.9303-.6275-.9303-.9133 0-.0666-.0686-.121-.1524-.121-.1865 0-.652-.4795-.652-.6715 0-.0767-.1514-.4393-.3363-.8057-.309-.612-.9696-1.281-1.265-1.281a.1225.1225 0 01-.1226-.1217c0-.067.0572-.0863.1272-.0431.1929.1192.0017-.652-.2262-.9124-.1036-.1184-.4986-.4154-.8779-.66-.3792-.2448-.8109-.5358-.9592-.6468-.1484-.111-.5083-.3378-.8-.5041-.5907-.3369-.8111-.653-.3535-.5072.1507.048.5676.1221.9265.1646.387.0458.7498.1651.8914.2933.1313.1189.2773.1763.3243.1276.047-.0487-.0309-.1667-.1731-.2623-.1422-.0956-.2586-.2476-.2586-.3379 0-.175-.7064-.9571-.8646-.9571-.2235 0-.9685-.4144-.9712-.5402-.0016-.0759-.0935-.1955-.204-.2658-.1673-.1063-.1474-.1165.118-.0602.1755.0372.569.2215.8746.4095.3055.188.6403.3418.7439.3418.1036 0 .1884.0482.1884.1072 0 .0589.1163.1437.2586.1883.1422.0446.6224.3196 1.0672.611.4447.2916 1.0816.6568 1.4154.8118.5154.2394.6227.2567.7123.115.0833-.1318.106-.115.1073.0793.0016.2264.1992.3858.4781.3858.0712 0 .0868-.4764.0422-1.2929-.0387-.711-.0845-2.2237-.1017-3.3615-.031-2.064-.0317-2.0687-.2972-2.1074-.352-.0513-.4708.1684-.394.7283.0473.3441.0323.4164-.0593.2874-.0674-.0948-.1233-.306-.1242-.4693-.0025-.4146-.0913-.4638-.5165-.2862-.2039.0852-.598.191-.876.235-.278.044-.6996.1356-.9368.2036-.3083.0883-.509.0881-.704-.001-.1752-.0798-.4317-.0887-.7179-.0249-.245.0547-.8332.1316-1.3072.1711-.474.0395-1.0905.1222-1.3699.1838-.8412.1856-3.9436.1026-5.0016-.1338-1.483-.3313-1.9228-.4491-2.5681-.688-.3342-.1238-.722-.2267-.862-.2286-.1398-.002-.461-.131-.7139-.2868-.2528-.1557-.528-.2834-.6114-.2837-.2145-.001-1.0718-.6068-2.1588-1.526-.9568-.8086-1.4245-1.4923-1.4245-2.0817 0-.169-.072-.4795-.16-.6902-.0936-.2238-.1202-.4475-.064-.5383.0559-.0905.041-.2215-.0357-.314-.1018-.1227-.0873-.1834.064-.2681.1077-.0602.1995-.1974.2041-.305.0158-.368.404-.884.6898-.917.648-.0748.8029-.1582.9595-.5161.0893-.2041.1666-.3143.1717-.2449.0066.0892.2034.0953.6702.0207.4216-.0674 1.3265-.0599 2.4996.0208 1.9417.1334 2.0784.1496 2.988.3537.5734.1286 3.308.175 3.4953.0594.0543-.0336.6347-.108 1.2897-.1654.655-.0574 1.5271-.2056 1.938-.3293.4108-.1236 1.0573-.3036 1.4365-.4.8-.203 1.3663-.3992 1.806-.6255.1716-.0883.6111-.255.9768-.3703.5545-.175.6707-.2575.6997-.497.0194-.1598.1552-.3514.3064-.4323.2699-.1445.2716-.158.2742-2.219.0021-1.6667-.033-2.1432-.1787-2.428-.0998-.1947-.2182-.38-.263-.4116-.045-.0316-.1024-.1182-.1277-.1924-.0492-.1445-.4044-.0117-1.083.405-.3246.1993-.5639.265-1.527.4198-.2094.0336-.5002.1395-.6464.2352-.2872.1882-3.0635.3596-3.3143.2047-.0731-.0452-.3416-.0926-.5966-.1054-.255-.0127-.6187-.0886-.8084-.1687-.1896-.08-.4124-.1343-.4952-.1205-.0827.0138-.4706-.0879-.8619-.226-.3913-.138-.815-.2694-.9413-.2919-.2613-.0464-1.6643-.5334-1.8388-.6383-.0632-.038-.2894-.1066-.5027-.1523-.2196-.0471-.5288-.2438-.7128-.4534-.184-.2097-.5356-.4332-.811-.5157-.2917-.0874-.6728-.3374-.9536-.6253-.2572-.2638-.6683-.6323-.9136-.8187-.412-.3133-2.131-1.9917-2.4515-2.3936-.0766-.096-.2543-.4764-.3948-.845-.274-.7191-.4162-2.3835-.2278-2.6685.058-.0876.382-.186.7203-.2184.3571-.0343.7466-.1565.929-.2913.2883-.2131.3687-.2209.9775-.094 1.4979.3124 1.778.3464 2.0383.2475.1473-.056.2984-.0714.3356-.0341.0373.0372.4175.0914.845.1203.4275.0289.8747.104.9937.167.3105.1642 1.9026.2346 2.4348.1076 1.1541-.2753 3.3813-.965 3.8994-1.2077.316-.148.9055-.3028 1.3099-.344.4044-.0412.7923-.1175.862-.1697.0696-.052.3593-.16.6438-.2397.2844-.0797.635-.2203.779-.3122.144-.092.3042-.141.3561-.109.1197.074.5887-.4579.5887-.6676 0-.0866.0696-.2152.1547-.2858.085-.0706.2482-.336.3627-.5899.1791-.3971.1883-.5216.066-.8923-.0782-.2369-.1264-.482-.107-.5447.0193-.0627-.1185-.5858-.3063-1.1627-.2849-.875-.4034-1.0893-.7155-1.2939-.2057-.1348-.374-.3033-.374-.3743 0-.3153-.9073-.7855-1.5195-.7875-.1277 0-.2857-.2046-.4451-.5753-.171-.3976-.3137-.5746-.463-.5746-.1185 0-.2156-.0517-.2156-.1149s.0715-.115.159-.115c.163 0 .3268-.3952.2116-.5104-.0353-.0353-.2107-.0641-.3898-.0641-.3683 0-.4233-.1853-.1245-.4198.1769-.1388.1387-.1516-.316-.106-.2844.0285-.5783.055-.653.059-.0748.004-.1692.112-.2099.24-.0994.3132-.6224.6566-.7314.4803-.0562-.0908-.2167-.0485-.5275.139-.3324.2007-.5568.255-.8758.2122-.333-.0447-.4728-.006-.6252.1718-.1116.1304-.2854.206-.4026.1754-.1954-.0511-.194-.0747.0246-.4455.127-.2153.2776-.3915.3346-.3915.057 0 .1036-.1276.1036-.2837 0-.3068-.0538-.3058-.777.0147-.2062.0913-.4165.1404-.4674.109-.0509-.0316-.3199.0932-.5977.2772-.3387.2242-.5314.2921-.5846.2061-.0581-.094-.2432-.0917-.6938.009a108.42 108.42 0 01-1.1866.2573c-.3146.0659-.6627.1683-.7734.2276-.1768.0946-.1929.0653-.1319-.2398.0569-.284.0317-.3476-.1378-.3476-.1916 0-.7007.139-1.258.3436-.1263.0464-.3102.0335-.4086-.0288-.1312-.083-.368-.0146-.8906.2574-.3915.2037-.7119.415-.7119.4697 0 .0546-.1034.1546-.2298.2222-.3926.2101-.275-.1459.123-.3724.5016-.2854.3231-.4676-.3653-.3729-.7187.099-.7235-.0498-.0163-.5084 1.6814-1.0904 2.6194-1.8475 2.7333-2.206.0402-.1268.1333-.2088.207-.1822.2074.0748.5361-.1375.5361-.3461 0-.1032.0335-.154.0745-.1131.131.131.9598-.4121.9598-.629 0-.2024.6014-.6063.7225-.4851.1062.1062.6295-.3.6914-.5368.0379-.1446.1216-.2009.2346-.1575.117.0449.2646-.0697.4416-.3429.1462-.2257.3262-.411.4-.4117.0737-.0008.2314-.1351.3504-.2986.1234-.1693.387-.333.613-.3806.2739-.0577.3868-.1403.365-.267-.0447-.2624.5053-.6545 1.0374-.7396.364-.0582.4765-.1369.5669-.3961.062-.178.2105-.3546.33-.3925.3109-.0987.7235-.6488.5617-.7488-.1275-.0788.1624-.2063.6429-.2827.352-.056 1.0873-.5201 1.0873-.6863 0-.0802.1986-.2772.4414-.4379.2428-.1607.5076-.452.5885-.6474.104-.2511.2245-.3552.411-.3552.1815 0 .4997-.2601 1.0191-.8332.4154-.4582.7559-.8899.7566-.9592.0006-.0693.0862-.2964.1901-.5046.2238-.4485.3365-1.78.1844-2.178-.0589-.1541-.0668-.4127-.0176-.5746.0838-.276.4288-1.48.525-1.8327.0357-.1308.0795-.1268.2444.0225.1652.1495.2923.161.7158.065.5789-.1313.7191-.1175 2.4113.2376.9234.1938 1.3685.355 1.8962.6866.3793.2384.8447.4834 1.0343.5444.2135.0687.4195.258.541.497.2206.4344 1.3994 1.7263 1.5751 1.7263.0628 0 .2.181.305.4023.1086.2287.2758.4022.3876.4022.2359 0 .64.4177.7475.7727.0427.1406.2296.364.4155.4963.1859.1324.338.3075.338.3892s.1292.339.2873.5719c.158.2328.2875.5115.2877.6194.0002.1078.1066.3701.2364.583.3015.4946.4258 2.0258.2197 2.707-.2711.8961-.5684 1.4332-.971 1.7544-.2227.1777-.405.3814-.405.4527 0 .1207-.2178.3088-1.8947 1.636-.3484.2757-.6335.5695-.6335.653 0 .1832.5974.6269.8441.6269.0972 0 .2061.0477.2422.106.036.0584.22.14.4089.1815.1888.0415.4082.1619.4876.2675.169.225.8371.7091.9785.7091.0536 0 .2497.206.4356.4578.186.2518.416.484.511.516.0951.032.2761.1985.4023.37.126.1715.3773.483.5583.692.1979.2286.3071.4645.2739.5916-.0304.1162.0401.3354.1568.4871.1166.1517.2131.3946.2145.54.0041.4197.5789.6093 1.2423.4096.2864-.0862.7426-.1567 1.0139-.1567.3392 0 .5263-.0593.5995-.19.077-.1375.2772-.1932.724-.2012.4451-.008.6595-.0672.7678-.2121.0826-.1106.2377-.2015.3447-.2018.107 0 .3416-.0773.5211-.171.3784-.1974 1.5698-.3224 1.5698-.1648 0 .0586.0718.1066.1596.1066.0878 0 .1524-.0905.1436-.201-.0103-.1306.0804-.2147.2588-.24.2083-.0295.2584.004.207.1378-.0466.1214-.0157.1566.0988.1127.0915-.0352.1665-.136.1665-.224s.0806-.16.1792-.16c.0985 0 .1472.0516.108.1148-.039.0632.0067.115.1015.115.0948 0 .2043-.0517.2434-.115.039-.0632.0162-.1149-.0507-.1149-.2266 0-.1234-.2139.1369-.2836.8525-.2282 1.1718-.2876 2.1814-.4057.6151-.0719 1.546-.2748 2.0686-.4509.5226-.1761 1.1724-.3885 1.444-.472.2715-.0836.6593-.311.8619-.5053.4177-.4008.4288-.5829.1334-2.176-.092-.497-.1693-1.1434-.1715-1.4366-.0023-.2933-.0773-.8397-.1667-1.2142-.0895-.3745-.142-.7143-.117-.755.0252-.0407-.0576-.4583-.184-.928-.1264-.4696-.2279-.9677-.2255-1.1068.0023-.139-.0467-.2843-.109-.3228-.0622-.0385-.1131-.172-.1131-.2968 0-.1248-.1293-.482-.2873-.7939-.158-.3118-.2874-.645-.2874-.7405 0-.0954-.126-.2561-.28-.357-.154-.101-.3133-.3349-.3539-.5198-.0406-.185-.1393-.3363-.2192-.3363-.1915 0-.7026-.4633-.7926-.7183-.0397-.1128-.1871-.2011-.3356-.2011-.3324 0-1.1216-.6384-1.1216-.9073 0-.1106.2086-.376.4636-.59.255-.2139.4483-.4681.4296-.565-.0186-.0968.0572-.2672.1685-.3785.1114-.1113.2025-.3242.2025-.473 0-.297.474-.8787.7161-.8787.0839 0 .2286-.1094.3215-.2431.4492-.6462.6101-.788.9706-.8557.214-.0402.417-.1455.451-.234.034-.0887.1368-.1612.2283-.1612s.188-.0646.2143-.1436c.0263-.079.3534-.2471.7268-.3735.6894-.2335.9558-.5598.544-.6666-.1635-.0423-.1523-.0567.0524-.067.143-.007.3499-.059.4597-.1149.6938-.353.8459-.3785 1.9368-.3246 1.7785.0878 3.1405.4442 3.3756.8835.0702.1312.179.2068.2419.168.0628-.0388.2394.0114.3924.1117.153.1003.3576.1823.4546.1823.097 0 .1765.0517.1765.115a.116.116 0 00.1165.1148c.124 0 1.0695.729 1.9945 1.5379l.5596.4892.0303 1.601c.0166.8805.0605 1.782.0974 2.0032.0613.3675.2093 1.967.381 4.1155.0633.792.0529.844-.1813.9052-.2387.0624-.248.1211-.2375 1.5157.006.798.0704 1.7179.143 2.0443.1255.5633.153.596.5394.6412.2239.0262 1.3121-.0462 2.4183-.1608 2.0863-.216 2.2111-.2343 3.4477-.5026.4108-.0892 1.3158-.2674 2.0111-.3961 1.2189-.2256 1.5838-.289 3.3328-.5796.4424-.0735 1.063-.203 1.379-.2876 1.0504-.2814 1.719-.398 2.1836-.381.2528.009.8497-.0448 1.3263-.1201s1.3937-.1514 2.0378-.169c.6441-.0176 1.2066-.0674 1.2499-.1107.0433-.0433.005-.0839-.0841-.0902-.2762-.0194.3893-.1948.7853-.207.2054-.006.3735.0404.3735.1035a.1153.1153 0 01-.115.115c-.0631 0-.1149.056-.1149.1247 0 .1187.1656.1147 2.0112-.0479.2528-.0223 1.0544-.0763 1.7813-.1201 1.7621-.1062 2.0698-.1635 2.2869-.4259.1663-.201.3496-.2233 1.9078-.2317.9481-.005 1.8151-.0342 1.9267-.0647.3122-.0854.1083-.2791-.2099-.1993-.3498.0878-.8549-.0313-.8549-.2016 0-.0811.1425-.1047.3899-.0645.2482.0403.4772.002.6304-.1053.1324-.0927.4612-.1636.7307-.1576.5055.0113 5.0955-.1016 6.9257-.1703.569-.0214 1.2412-.0429 1.494-.0478.2529-.005.809-.132 1.2357-.2826.7155-.2524 1.2617-.2915 1.6949-.1213.3074.1208 1.3095.1331 1.7923.022.5015-.1152 1.4255.0529 1.4255.2594 0 .0608.0945.1105.21.1105.338 0 1.647.5699 2.1399.9314.2495.183.508.333.5746.3332.0666.0003.5302.3882 1.0304.862.5001.4738.9878.8614 1.0837.8614.096 0 .421.1115.7224.2477.4578.2069.5536.3045.5826.5937.0259.2586.1285.392.4056.528.2717.1334.3716.2605.3735.4752.003.3366.1938.5688.4674.5688.254 0 .5695.3644.5695.6576 0 .1305.0776.267.1724.3034.0948.0364.1724.1719.1724.3011 0 .273.2232.7081.4317.8414.1012.0647.111.1547.0328.301-.0614.1147-.084.2363-.05.2702.105.105.0676 1.2745-.0505 1.5775-.0616.158-.2101.3907-.33.5171-.1199.1265-.251.3166-.2915.4226-.0405.106-.314.299-.6078.429-.2939.13-.5583.3277-.5877.4394-.0294.1117-.367.35-.7502.5297-.4114.1928-.7204.4165-.7542.5459-.0315.1206-.1558.2192-.2761.2192-.1203 0-.4235.1293-.6738.2873-.5105.3222-.6077.34-.8923.1636-.2557-.1586-.8316.0445-.8316.2933 0 .2384-.1874.2218-.2821-.0251-.0685-.1784-.1016-.169-.3016.0862l-.2247.2865-.261-.316c-.2152-.2607-.353-.316-.7867-.316-.398 0-.5927-.0658-.8002-.2704-.3887-.3832-.6673-.5046-1.1936-.52-1.2884-.0378-1.6683-.0832-1.7151-.2053-.0282-.0735-.3916-.1701-.8074-.2147-.4158-.0445-.781-.1212-.8113-.1704-.0858-.1389-.946-.5645-1.0105-.5-.1368.1368-1.2453.1565-1.487.0265-.1428-.0768-.4407-.179-.6619-.227a32.015 32.015 0 01-.873-.2063c-.2588-.0655-.8018-.146-1.2066-.179-.4048-.0328-.8653-.0858-1.0233-.1176-.5373-.1081-1.4333-.1726-3.2179-.2314-.9797-.0323-2.5781-.0847-3.552-.1165-1.1849-.0386-1.8916-.014-2.136.0743-.233.0843-.434.0935-.5555.0256-.2498-.1398-2.6262.1262-3.2082.359-.24.096-.5548.1747-.6997.1747-.1448 0-.6739.1075-1.1756.239-.5018.1315-1.092.218-1.3114.1925-.2195-.0256-.5298.0217-.6895.105-.1598.0834-.432.152-.6049.1523-.173 0-.535.0514-.8044.1134-.2696.0619-1.0849.2241-1.8118.3604-.7268.1362-1.5026.3213-1.7238.4113-.2353.0957-.5573.1347-.7757.094-.2462-.0457-.3735-.024-.3735.0636 0 .0902-.1321.1081-.411.0558-.226-.0424-.4716-.0276-.5459.0329-.0742.0605-.3935.135-.7095.1656-.316.0306-1.318.1384-2.2266.2396-.9086.1011-1.6976.1557-1.7534.1212-.0558-.0345-.1324.0182-.1704.117-.0379.0988-.1863.1797-.3299.1797-.1435 0-.4612.0839-.706.1865-.2447.1026-.7811.2345-1.192.293-1.216.1734-1.268.1851-1.4362.3247-.0886.0736-.2678.354-.3981.6233-.2066.4268-.2293.6362-.177 1.6342.033.6296.1362 1.5041.2293 1.9434.093.4392.17 1.0077.1711 1.2634.002.5469.418 2.664.5797 2.9525.0615.1098.1119.2938.1119.409 0 .1152.0759.3099.1687.4326.0928.1227.1704.3093.1724.4148.002.1055.0799.3383.173.5172.0933.179.3508.7225.5724 1.2079.2216.4854.5017.9517.6224 1.0363.2306.1615.4515.5057 1.0548 1.6438.201.3792.4552.793.5648.9194.1095.1264.3612.5142.5593.8619.1982.3476.5833.8515.8559 1.1197.2726.2683.6226.7009.7777.9614.4173.7005 1.073 1.3327 1.4734 1.4206.3657.0803.5723-.0863 1.318-1.0627.1315-.1721.3447-.4173.4739-.545.7105-.702 1.9325-2.3098 2.4267-3.193.9277-1.6576 1.168-2.1283 1.2571-2.4629.207-.7767.1887-.8774-.3802-2.0992-.103-.2212-.173-.544-.1556-.7173s-.0453-.425-.1393-.5592c-.1316-.188-.1426-.3067-.0477-.515.0968-.2124.0679-.4466-.134-1.0862-.3528-1.118-.2694-1.3564.7405-2.1174.4724-.356.8047-.4163 1.31-.238.2726.0961.4972.1136.615.0477.102-.057.4435-.0847.7588-.0613.3153.0234.639.002.7193-.0477.0803-.0495.2783-.0237.44.0575.1618.0812.5131.1545.7807.163.9169.0292 1.5426.2409 2.1053.712.2992.2505.666.5203.8149.5994.3919.2082.788.5747.788.7292 0 .0734.0904.1639.201.201.3012.1011.6475.3403.7661.5291.1974.314.8074.8093.9969.8093.1713 0 .63.574.9844 1.2323.2457.4562.3517 1.5464.2045 2.1045-.214.8117-.6904 1.6327-1.1647 2.0071-.6305.4977-2.448 2.3789-2.448 2.5338 0 .2843-.3983.49-.8497.4386-.349-.0397-.507.005-.7182.2035-.149.14-.2708.3201-.2708.4005 0 .0804-.1386.2135-.308.296-.1693.0825-.4297.3812-.5785.6638-.1489.2827-.3723.6222-.4966.7545-.1242.1322-.2259.303-.2259.3793 0 .0764-.1995.3574-.4433.6246-.5557.609-.7376.952-.6504 1.2266.0703.2215-.3694.8107-.605.8107-.1559 0-.2322.2308-.1637.495.0316.122.121.1818.2166.1451.2377-.0912-.0329.2714-.8173 1.0953-.3519.3696-.6398.7412-.6398.8257 0 .3234 1.0097 1.1028 1.1921.9204.0396-.0396.072-.0117.072.062s.0504.134.112.134c.0617 0 .4625.1617.8907.3594.9247.4267 2.0126.815 2.9622 1.0574a510.055 510.055 0 011.3866.3565c.3834.0992.891.1805 1.128.1805.2371 0 .5301.053.6512.1178.1211.0648.4668.139.7682.1648 1.5995.1371 3.2478.315 3.6797.3971.2686.0511.4884.0523.4884.003 0-.0496.3878-.0608.862-.0249.7375.0558.8618.0389.8618-.117 0-.1002-.0495-.2128-.1099-.2501-.0605-.0374-.083-.1378-.0503-.2232.0328-.0854-.031-.3553-.1417-.5997-.1107-.2444-.2074-.4961-.215-.5593-.0528-.4396-.5678-1.5847-.799-1.7766-.0979-.0813-.178-.211-.178-.2883 0-.0773-.0984-.2294-.2185-.3381-.3555-.3218-.3809-.6388-.0608-.7605.1525-.058.3553-.0755.4506-.0389.2272.0872.2104-.163-.036-.5402l-.451-.6895c-.3123-.4777-.3353-.6719-.0488-.4125.1156.1046.2915.1902.3909.1902.17 0 .4089.3248.9292 1.2641.1226.2212.4878.6752.8116 1.0088.3237.3336.6068.6594.6289.724.0222.0648.242.245.4884.4006.2465.1556.4498.3469.4518.4251.005.1822.571.603.571.4243 0-.072-.1034-.2624-.2298-.4231-.1264-.1607-.2299-.3856-.2299-.4998 0-.1141-.0457-.2358-.1016-.2704-.171-.1056-.2217-.7552-.059-.7552.3186 0 .517-.3715.5138-.9621-.008-1.4701.0354-1.7366.289-1.7729.132-.0188.3063.0458.3876.1437.0812.098.2217.178.3123.178.0906 0 .2997.2973.4648.6607.165.3635.483.8936.7066 1.178.4859.6183 1.3844 1.4883 1.5575 1.5082.0681.008.3823.0308.6984.0511.316.0203.8073.0706 1.0917.1119.7292.1056.8028.1064 1.3568.0149.4486-.0742.5239-.051.8045.2491 1.2327 1.3178 1.2621 1.3407 2.1377 1.6636.5306.1957 1.2052.5703 1.7075.9481.4567.3436.8607.6247.8977.6247.037 0 .136.1284.22.2854.084.157.2493.316.3673.3535.1863.0591.815.537 1.5094 1.1472.1334.1172.2005.3163.1852.5492-.0132.201.0112.447.054.5467.1132.263-.1089.7607-.4987 1.1175-.3474.3181-.6539 1.229-.4549 1.352.0566.035.1029.2318.1029.4374 0 .5256-.5015.9916-1.067.9916-.4376 0-1.3464.3063-1.3464.4537 0 .1187-.5406.3508-.817.3508-.1273 0-.4998.1243-.8278.2762-.3279.1519-.7772.3028-.9984.3352-.5445.0799-1.4221.3417-1.4994.4473-.0345.0472-1.017.1108-2.1835.1415-1.1664.0306-2.5226.0978-3.0137.1493-.5091.0533-.972.0493-1.0768-.009-.121-.0678-.2143-.0534-.2733.0422-.0493.0798-.1744.1125-.278.0728-.1036-.0398-1.0785-.101-2.1665-.136-2.1561-.0692-2.9356-.126-4.1615-.303-.4425-.064-1.289-.1365-1.881-.1613-.5922-.0247-1.342-.1016-1.6665-.1708-.3244-.0692-.7708-.151-.992-.1818-.4857-.0675-2.6854-.5718-3.5626-.8167-.3477-.097-.7636-.1884-.9244-.2031-.1608-.0147-.4556-.1111-.6551-.2143-.1996-.1032-.4462-.1876-.548-.1876-.4383 0-3.7482-1.1706-4.9403-1.7472-.859-.4154-2.0455-.896-2.212-.896-.0689 0-.2717-.0725-.4507-.161-.5772-.2854-1.2302-.4541-1.8547-.4791-.3355-.0135-.6414-.0559-.68-.0944-.0384-.0385-.1922-.07-.3417-.07s-.3024-.0798-.3398-.1773c-.0827-.2154-.8602-.6272-1.1843-.6272-.129 0-.2344-.0517-.2344-.1149s-.2026-.115-.4502-.115c-.2475 0-.4673-.047-.4884-.1043-.0785-.214-.405-.1583-1.1836.2018-.4403.2037-.9242.4014-1.0754.4393-.2533.0636-.2643.0492-.1396-.1838.0744-.1391.1547-.3532.1783-.4759.0359-.1863.007-.204-.1729-.1074-.1186.0635-.3138.1155-.4337.1155-.1198 0-.4575.1213-.7504.2695-.2928.1483-.5054.2259-.4723.1724.1338-.2166-.7499-.0809-1.1232.1724-.2185.1483-.527.3022-.6857.342-.2446.0614-.287.0336-.2796-.1834.006-.1847-.0667-.2665-.263-.2942-.1495-.0212-.3279.0176-.3965.0862-.0685.0686-.2459.1246-.3941.1246-.1483 0-.401.1314-.5615.292-.1952.1951-.3649.2687-.512.222-.121-.0384-.2204-.0276-.2209.0241-.0004.0517-.128.153-.2836.2251-.219.1015-.3104.0978-.4054-.0166-.0893-.1076-.0825-.1432.0251-.1311.0812.009.1612-.0351.1777-.0983.0458-.1754-.9228-.1798-1.2422-.006-1.3509.737-1.9296.9503-2.587.954-.6134.003-1.235.1728-1.8017.491-.2523.1416-.6624.1457-.6624.007 0-.058-.0285-.1798-.0634-.2706-.0435-.1134.139-.2675.5829-.492.3554-.1799.696-.4201.757-.5339.0608-.1138.2092-.2069.3297-.2069.1204 0 .251-.0517.29-.115.039-.0631.273-.1148.52-.1148.3303 0 .481-.0603.571-.2285.0674-.1257.2515-.261.4094-.3006.1578-.0396.3392-.1695.403-.2886.0637-.1192.1787-.22.2555-.2243.0768-.004.3723-.185.6567-.4016.2845-.2167.7068-.5215.9385-.6773.2317-.1558.4546-.337.4952-.4028.0406-.0658.1938-.1196.3404-.1196.1465 0 .3345-.082.4176-.1822.0832-.1002.3481-.261.5887-.3572.2406-.0963.4375-.2212.4375-.2775 0-.0563.0776-.1025.1724-.1025s.1724-.0448.1724-.0997c0-.1192.8619-.7048 1.0373-.7048.0676 0 .2427-.1293.3891-.2873.1465-.158.3471-.2873.4459-.2873s.2813-.1293.4056-.2873c.1243-.158.2708-.2873.3255-.2873.1755 0 .3978-.467.3275-.6883-.0374-.1178-.2597-.412-.4941-.6536-1.2048-1.2423-2.6069-2.9314-3.1838-3.8357a65.0423 65.0423 0 00-.6428-.9855c-.3398-.5074-1.0243-1.6178-1.6204-2.6285-.2237-.3793-.652-1.2326-.952-1.8963a395.9347 395.9347 0 00-.7623-1.679c-.1195-.2597-.2176-.57-.218-.6895-.0003-.1195-.0814-.3722-.1802-.5617-.0989-.1894-.2505-.6807-.3371-1.0918-.3534-1.6774-.6104-2.7286-.7865-3.2182-.1024-.2844-.1869-.7243-.1878-.9776-.0009-.2532-.054-.641-.118-.8619-.0641-.2208-.1697-.8669-.2348-1.4358-.065-.5688-.213-1.3187-.3285-1.6663l-.2103-.6321-.9628.033c-.628.0215-1.4025.154-2.227.381-.6953.1914-1.8072.4914-2.4709.6665-.6637.1752-2.1375.632-3.2753 1.0151-1.1377.3831-2.4048.7875-2.8156.8987-.4109.1111-.8948.2758-1.0755.3658-.1807.0901-1.07.3863-1.9762.6583-.9061.272-1.7867.6039-1.9567.7376-.17.1337-.4025.2431-.5166.2431-.1142 0-.2427.0568-.2857.1263-.0429.0694-.218.1858-.389.2586-.3509.1492-1.7298 1.3625-1.7304 1.5224-.0002.0572-.1485.2032-.3297.3246-.3077.2061-.3344.2861-.4043 1.2127-.0677.8968.017 2.9911.121 2.9911.0232 0 .5716-.211 1.2185-.469 1.2652-.5047 2.7175-.9526 3.5028-1.0805.2683-.0437.519-.1298.557-.1914.1498-.2423.6364-.3273 1.1433-.1996.6927.1744 2.0894-.1477 2.2382-.5162.0542-.1342.1018-.1793.1058-.1003.0045.0894.1784.1436.4602.1436.2491 0 .4883.0572.5315.1271.0533.0862.3506.1016.924.0478 1.077-.101 1.66.0603 1.5669.4334-.0348.1395-.1328.3556-.2178.4803-.085.1247-.1545.3936-.1545.5976 0 .204-.0735.4123-.1633.4629-.0897.0505-.452.3634-.805.6952-.3531.3319-.6918.6034-.7526.6034-.0609 0-.0794.0815-.0412.181.0457.1193-.0688.2952-.3353.5148-.2227.1835-.4406.477-.4843.6521-.0437.1752-.1593.407-.2569.5153-.0975.1083-.1454.28-.1063.3818.1152.3003-.1327.6129-.5479.6908-.254.0477-.43.167-.5123.3475-.0689.1512-.3567.3837-.6396.5167-.4643.2182-1.1015.8601-1.1015 1.1096 0 .1667-1.7658 1.9054-2.3644 2.3282-.3114.2199-.8821.7215-1.2683 1.1147l-.702.7148.0355.8812c.0373.9216.1054 1.1317.2769.8543.2022-.3273.2797.0366.362 1.7003.1936 3.91.2442 5.077.2625 6.0494.0106.5647.0683 1.043.1283 1.0629.113.0375.1017 2.8804-.0143 3.5819-.0515.311-.1065.3738-.2862.3268-.1224-.032-.2225-.019-.2225.0291 0 .0481-.1366.2349-.3036.415-.167.1803-.4507.5307-.6305.7789-.2685.3706-1.765 1.4554-2.0078 1.4554-.037 0-.1988.1034-.3595.2299-.298.2343-1.0657.32-1.0657.119zm51.6006-54.4777c0-.0632-.0548-.1149-.1217-.1149s-.0897.0517-.0507.115c.0391.0631.0938.1149.1217.1149.028 0 .0507-.0517.0507-.115zm11.3774-1.1507c0-.0505-.1028-.065-.2285-.0321-.1257.0329-.2016.1033-.1687.1566.0699.1131.3972.0105.3972-.1245zM70.0654 161.304c0-.1617.0469-.2651.1042-.2297.0572.0354.077.1677.044.294-.0827.3163-.1482.2879-.1482-.0643zm35.339-.2805c.039-.0632.1455-.115.2366-.115.091 0 .1656.0518.1656.115s-.1065.115-.2366.115c-.1302 0-.2047-.0518-.1656-.115zm32.5233-5.4014c-.0391-.0632-.0163-.115.0507-.115.0669 0 .1217.0518.1217.115s-.0228.115-.0507.115c-.028 0-.0826-.0518-.1217-.115zm.1166-3.7601l-.2018-.3197.266.2554c.1464.1405.2372.2843.2018.3196-.0353.0353-.155-.0796-.266-.2554zm4.6527-2.3393c0-.2945.3803-.261.438.0385.0266.138-.0353.1998-.1997.1998-.1645 0-.2383-.0738-.2383-.2382zm-56.887-8.4817c0-.1575.4088-.4739.6123-.4739.1057 0 .192.0517.192.115 0 .0632-.1033.1149-.2298.1149-.1264 0-.2298.0462-.2298.1026s-.0776.1324-.1724.1688c-.0948.0364-.1724.0241-.1724-.0274zm1.1081-.7137c.149-.1491.3436-.2231.514-.1956.2478.04.2314.063-.171.2399-.5775.2538-.6339.2465-.343-.0443zm-.9631-16.2736c.1068-.1068.2265-.162.266-.1225.113.1131-.0606.3168-.27.3168-.1755 0-.1752-.015.004-.1943zm2.5489-.5563c.249-.1884.5239-.223.5239-.0661 0 .1213-.2849.2436-.5553.2385-.1654-.003-.161-.0268.0314-.1724zm19.716-4.8683c0-.1075.2731-.2422.4911-.2422.0701 0 .0271.076-.0956.1688-.257.1944-.3954.2201-.3954.0734zm3.3903-.2422c.1264-.0543.3333-.0973.4597-.0954.1848.003.1735.0214-.0575.0954-.393.1259-.695.1259-.4022 0zm1.1124-.076c-.3021-.1262.4188-.3725.8694-.2972l.4316.0722-.3448.0844a51.0485 51.0485 0 00-.5746.1442c-.1264.0329-.2981.0313-.3816-.004zm-3.1235-.084c0-.1117.3237-.1536.47-.061.118.0746.076.103-.154.1043-.1738.001-.316-.0186-.316-.0434zm5.4014-.4146c0-.0632.1034-.115.2298-.115s.2298.0518.2298.115-.1034.115-.2298.115-.2298-.0518-.2298-.115zm-.3448-.434c0-.1468.5606-.2562.6416-.1252.0338.0547-.015.0995-.1083.0995-.0934 0-.2515.0314-.3515.0698-.1.0384-.1818.0185-.1818-.044zm16.276-1.4077c.1474-.1473 2.3806-.2309 2.5918-.097.096.0609-.0386.1011-.3652.1091-.2844.007-.9288.0341-1.432.0604-.6365.0332-.8782.0111-.7945-.0725zm4.9848-.8015c0-.0632.0745-.115.1656-.115s.1976.0517.2366.115c.0391.0632-.0354.1149-.1656.1149-.1301 0-.2366-.0517-.2366-.115zm14.064-5.5228c-.1228-.0454-.6253-.0886-1.1168-.096-.5324-.008-1.0244-.0811-1.2173-.1809-.3331-.1723-1.778-.2832-1.9142-.147-.042.042-.2572.0009-.478-.0913-.221-.0923-.5376-.1685-.7037-.1693-.1662-.0008-.6067-.156-.979-.3448-.3724-.1888-.8378-.344-1.0344-.345-.3906-.002-1.1012-.221-1.3495-.4162-.2349-.1846-.8951-.3866-1.2636-.3866-.2638 0-.3696-.0869-.5598-.4597-.129-.2528-.3045-.4597-.39-.4597-.2774 0-1.219-.4666-1.219-.604 0-.0735-.2197-.3455-.4883-.6044-.6864-.6616-1.2496-1.3966-1.5494-2.0217-.141-.2941-.4513-.6977-.6895-.8968-.2382-.199-.4693-.3992-.5136-.4447-.4415-.4543-.5692-.5698-.828-.749-.1838-.1272-.2982-.3145-.2982-.4884 0-.155-.0418-.2819-.0928-.2819-.0873 0-.3239-.4733-.584-1.1682-.1547-.4135.04-1.089.364-1.2623.4463-.2388 2.493-.3075 3.1088-.1043.3226.1065.4672.1041.6748-.0109.1453-.0805.2912-.1393.3243-.1307.033.0086.5868.0411 1.2307.0722.6439.0311 1.2275.0916 1.2969.1345.0694.0429.2396.092.3782.1092 1.3626.1687 1.6503.2207 1.7752.3205.0793.0634.3896.1217.6895.1295.3.0078.6138.079.6973.158.0835.079.2312.1436.3282.1436s.3262.1261.5095.2803c.199.1675.5527.31.8785.354.7798.1055 1.2988.2831 1.3701.469.034.0885.1209.1608.1931.1608.1378 0 .8154.6126 1.3862 1.253.1844.207.459.4234.6102.4809.1529.058.2409.1595.1983.2284-.0835.1351.23.4744.5522.5974.1111.0424.2612.2069.3334.3654.0723.1586.2399.3212.3725.3612.3222.0975.7583.5062.7583.7108 0 .0905.1293.3181.2873.5059.158.1878.2873.438.2873.556 0 .118.0952.282.2117.3647.4917.349.6502 1.2736.325 1.897-.1056.2023-.1919.4343-.1919.5157 0 .2414-.9424 1.5353-1.2103 1.6617-.136.064-.3476.0795-.4703.034zm-70.4306-4.4885c-.1879-.1156-.4465-.206-.5747-.201-.2097.008-.6087-.109-1.2674-.3719-.1264-.0505-.524-.1492-.8836-.2193-.3596-.0702-.7734-.2213-.9194-.3357-.146-.1144-.6513-.3469-1.1228-.5166-.5404-.1946-.9689-.4337-1.1595-.6472-.1662-.1862-.3521-.3386-.4131-.3386-.1392 0-.8455-.721-.8455-.863 0-.0579-.1271-.2106-.2825-.3394-.1554-.1288-.3157-.3747-.3563-.5465-.0648-.2741-.0244-.336.3297-.5048.3422-.1632.413-.2642.4659-.6645.0343-.2596.0963-.666.1378-.903.0694-.3969.0539-.4312-.1958-.4346-.2987-.004-.6734-.242-.6734-.4275 0-.1682.548-.2847.7656-.163.2584.1447 1.7704-.3772 2.2799-.7869.4312-.3468 1.7659-.6822 2.9316-.7368.3482-.0163.8137-.0848 1.0343-.1522.4483-.137 1.7194-.2896 2.2247-.2672.1813.008.3881-.0309.4597-.0865.2337-.1818.6894-.2425.8458-.1127.116.0962.2198.0642.4287-.132.1517-.1426.344-.2361.4276-.208.0835.0281.2095-.0271.28-.1228.0852-.1157.3632-.1835.8301-.2025.3861-.0157.7662-.0682.8446-.1167.0783-.0484.377-.1322.6638-.1862 1.0412-.196 1.1335-.229 1.1847-.4247.0324-.1239.2641-.2561.6137-.3502.309-.0832.6109-.1954.671-.2493.06-.0538.2484-.098.4186-.098.1702 0 .3376-.0732.372-.1627.0343-.0894.3584-.2241.7202-.2992.3617-.0751.8865-.2346 1.166-.3545.2796-.1198.6075-.2178.7286-.2178.1212 0 .2204-.0776.2204-.1724 0-.1157.1156-.1724.3515-.1724.1934 0 .3222-.0476.2863-.1057-.036-.058.0136-.1846.1102-.2811.0965-.0965.1634-.217.1487-.2679-.0147-.0508.1137-.311.2853-.5785.1716-.2673.312-.536.312-.5968 0-.0609.1133-.19.2517-.287.2018-.1414.2769-.3649.3785-1.127.1674-1.2545.1462-2.7222-.0408-2.8378-.0897-.0554-.115-.1999-.0681-.387.0412-.1643.0363-.3611-.011-.4375-.0471-.0764-.0966-.2991-.1097-.495-.04-.5922-.2707-1.6932-.3842-1.8334-.0586-.0724-.1251-.227-.1477-.3437-.0474-.245-.8836-.578-1.0702-.4263-.066.0537-.3787.1212-.6948.15-.316.0288-.86.1338-1.209.2333-.3488.0995-.7108.174-.8044.1656-.4058-.0366-1.1213.2044-1.5083.508-.2452.1923-.559.3285-.7573.3285-.3646 0-1.7544.6412-1.7544.8094 0 .1354-.4228.356-.751.392-.1446.016-.5131.1788-.819.3619-.3059.1831-.7371.3735-.9584.423-.938.2098-2.1964.3753-2.3118.304-.0686-.0424-.3134-.0348-.544.0168-.4545.1018-2.1632.0672-2.2765-.046-.0382-.0382-.163-.0194-.2772.0418-.1356.0725-.2325.0711-.279-.004-.0391-.0634-.1511-.1153-.2488-.1153-.0977 0-.4377-.1306-.7555-.2902-.3295-.1655-.6702-.2609-.793-.222-.1322.042-.2398.004-.2791-.0984-.0352-.0917-.2793-.2012-.5424-.2432-.263-.042-.5572-.144-.6537-.2263-.2692-.23-1.0433-.6127-1.5544-.7684-.473-.144-.8909-.3777-1.2161-.6798-.2661-.2471-1.2634-1.0965-1.5882-1.3526-.3204-.2527-.2838-.6185.1036-1.0343.2116-.2272.2245-.309.1133-.7218-.1096-.407-.157-.4555-.3773-.3856-.2432.0772-.242.0693.0347-.2294.4099-.4422 1.0205-.7335 1.7353-.8277.6222-.082 1.4096-.4955 1.5272-.802.0344-.0896.196-.163.3591-.163.1631 0 .4621-.0875.6644-.1945.2152-.1138.7015-.2091 1.1723-.2297.9769-.0427 1.1434-.0677 1.6998-.2547.2397-.0805.5078-.1188.596-.085.088.0339.1795.0037.203-.067.0236-.0708.2726-.1397.5534-.1533.2807-.0135.7431-.1124 1.0276-.2198.2844-.1073.724-.2353.9768-.2843.6022-.1167.9557-.265 1.4801-.6209.2369-.1607.673-.3243.9693-.3635.2962-.0392.65-.1256.7862-.1919s.2982-.0893.36-.0511c.0618.0382.243-.0333.4026-.1589.1596-.1255.3338-.2291.387-.2302.0533-.001.5364-.1812 1.0737-.4003.5372-.219 1.116-.3992 1.286-.4003.1702-.001.3413-.0536.3803-.1168.0391-.0632.199-.115.3552-.115.1563 0 .312-.0728.3463-.1618.0712-.1856.361-.3055 1.4582-.6031.6283-.1705.8297-.2836 1.0327-.5797.1386-.2023.3715-.3979.5175-.4345.253-.0635.2625-.1031.201-.8389-.1297-1.549-.149-1.6965-.2603-1.9775-.0765-.193-.0735-.3495.0093-.482.0924-.148.077-.247-.0629-.4036-.3173-.3554-.5777-1.644-.552-2.7318.0223-.95-.3196-1.2747-.98-.9303-.1876.0978-.4802.1781-.6503.1785-.1701.0004-.3379.047-.3728.1035-.035.0565-.2578.1299-.4952.163-1.0147.1416-1.9832.4684-1.9832.6691 0 .1191-.6228.4442-.851.4442-.2182 0-1.6079.656-2.1251 1.0032-.2147.1441-.6493.339-.9657.433-.3165.094-.756.2773-.9766.4075-.2207.1302-.468.2111-.5496.1798-.0816-.0313-.1646-.0162-.1845.0336-.0605.1515-3.078.6263-4.0585.6387-1.0877.0137-2.6194-.1868-2.843-.3723-.087-.0722-.4655-.2113-.8411-.309-.9157-.238-1.404-.4812-1.8879-.94-.2222-.2106-.4846-.3834-.583-.384-.0986-.0005-.3287-.1998-.5115-.4428-.1828-.243-.475-.505-.6494-.5821-.1744-.0772-.4332-.331-.5751-.5638-.142-.2329-.3607-.4979-.4862-.5888-.5791-.42-1.1575-1.128-1.4481-1.7728-.492-1.0916-.5206-1.3553-.1814-1.674.2333-.2192.2642-.3117.1658-.4956-.1593-.2977-.0348-.9256.2312-1.1664.3698-.3346.8582-.3976 2.1582-.2784.6851.0628 1.3232.1057 1.418.0955.0948-.0103.6637-.039 1.2642-.064 3.2249-.1336 3.6865-.2211 6.608-1.2526 1.2214-.4312 1.3963-.5023 2.2985-.935.316-.1516 1.048-.4275 1.6267-.6132.5786-.1856 1.214-.4214 1.4121-.5238.3486-.1802.8673-.3692 3.0522-1.1123.5689-.1935 1.0935-.3999 1.1659-.4587.0723-.0588.1757-.097.2298-.085.054.0119.2893-.0634.5228-.1673.2335-.104.5054-.158.6043-.12.0988.0379.2967-.0078.4399-.1016.143-.0937.474-.2066.7355-.2508.2614-.0441.5706-.1525.687-.2407.1164-.0882.3048-.162.4185-.164.1138-.002.3724-.0905.5747-.1966.2022-.106.5653-.2061.8067-.2224.2415-.0163.5037-.0833.5828-.149.079-.0655.2953-.1115.4804-.1021.4248.0215 1.5614-.1993 2.75-.5344 1.4535-.4097 1.9834-.523 2.4445-.523.2366 0 .6108-.0569.8316-.1263.2208-.0694.5566-.1207.7462-.114.4612.0162 1.7288-.2583 2.2972-.4975.252-.106.5763-.1632.7206-.127.1442.0362.3577.0147.4744-.0477.1167-.0624.6974-.1408 1.2905-.1741 1.4476-.0814 2.068-.1784 2.3394-.3658.1247-.0861.3461-.1566.492-.1566.146 0 .292-.0693.3245-.154.0355-.0926.2655-.1617.5775-.1735.2851-.0108.7094-.1064.9429-.2126.2334-.106.4762-.201.5394-.2107.0632-.0098.27-.0826.4597-.1619.2324-.0971.4388-.1096.6334-.0382.222.0814.4077.045.8044-.158.6038-.3087.7889-.3293.9629-.1075.1083.1382.2126.123.6911-.1008.432-.202.6466-.2414.9194-.1688.4307.1145 2.2617.3367 3.2776.3978.558.0335.8666.1237 1.2642.3695.675.4174 1.094.5862 1.7177.6921.4438.0754.5174.132.6322.487.118.3647.1647.398.5093.3635.2131-.0214.5009.0416.6567.1437.1525.0999.3566.1816.4537.1816.097 0 .1764.049.1764.109 0 .2064.5439.6955.7734.6955.2936 0 .8355.4225.8355.6514 0 .0963.1082.327.2404.5126.1322.1857.2555.4756.274.6444.0186.1687.1624.4126.3197.542.4406.3626.4975 1.2287.1227 1.8682-.1865.3181-.2783.6372-.2651.921.0353.7603.007.8272-.454 1.0623-.3327.1697-.4616.3126-.4885.5416-.0287.2445-.1194.3323-.424.4107-.4691.1208-1.049.5313-1.049.7425 0 .0845-.1493.1835-.3317.22-.1994.0399-.3824.1777-.459.3457-.0752.165-.3492.3744-.67.512-.2986.128-.6135.2913-.6999.363-.0864.0717-.2433.1417-.3486.1555-.3555.0466-.6926.144-.9196.2654-.1766.0946-.241.081-.296-.0618-.0636-.166-.0951-.1664-.3441-.0032-.1797.1177-.4106.1574-.6706.1152a1.2382 1.2382 0 00-.7534.1202c-.1962.1015-.4628.1845-.5924.1845-.1295 0-.2355.0517-.2355.115 0 .0631-.1263.1149-.2805.1149-.1543 0-.3155.0565-.3583.1257-.0427.0692-.201.1022-.3515.0734-.1506-.0288-.2739-.0071-.2739.0482s-.1799.0254-.3997-.0665c-.2367-.099-.427-.123-.4665-.059-.1026.166-.7197.128-.8232-.0508-.0506-.0873-.3117-.1953-.5803-.24-.407-.0676-.4884-.05-.4884.105 0 .1023-.0905.2182-.2012.2574-.1106.0392-.2946.1518-.409.2502-.3556.306-1.346.1449-1.7804-.2895-.0925-.0925-.2667-.1262-.4349-.084-.157.0395-.3556.008-.4513-.0713-.0949-.0788-.5323-.149-.9843-.1581-.6415-.013-.8371-.0585-.9252-.2159-.0614-.1097-.183-.1995-.2701-.1995-.0872 0-.2444-.086-.3495-.191-.1395-.1395-.2136-.1544-.275-.0553-.0555.09-.4101.1284-1.0525.1138-1.2798-.029-1.7452.2016-1.3019.6449.1142.1142.1588.2843.1177.4483-.0512.204.0147.3242.2886.5267.312.2308.347.3116.289.669-.0483.2976-.006.4911.1595.723.2757.3873.2867.6375.034.779-.1743.0975-.1692.1353.0575.4234.1368.174.2488.4128.2488.5307 0 .1179.0905.3092.2011.4251.4702.493.6222 1.0092.3301 1.1213-.1245.0478-.131.1188-.03.3326.198.4196.629.6093 1.2801.5635.316-.0222 1.1694-.0557 1.8963-.0745.7269-.0188 1.3836-.0729 1.4593-.1202.0757-.0473.414-.077.7516-.066.3377.011.7272-.0405.8655-.1145.1401-.075.388-.1005.5592-.0575.2287.0574.3479.022.4649-.138.1318-.1803.194-.1923.3828-.0744.124.0774.3782.1408.565.1408.1867 0 .3715.0517.4105.1149.1029.1665.2873.141.2873-.0397 0-.085.1-.245.2224-.3558.1878-.17.497-.2062 1.9917-.2332 1.133-.0205 1.8655-.0834 2.0366-.175.2323-.1243.2912-.1116.4504.0974.1137.1492.314.2407.528.2413.9832.0026 1.154.026 1.3256.1813.1025.0928.2858.169.4072.1695.1215.0003.369.078.55.1724.181.0944.425.1716.542.1716.117 0 .3826.0705.5902.1567.669.2776 1.5499.5329 1.839.5329.1548 0 .32.0388.3673.0862.0472.0474.3532.1379.68.201.442.0856.623.1812.7075.3736.0846.1928.2096.2586.492.2586.2548 0 .4036.0657.455.201.0422.1107.1887.29.3257.3984.137.1085.3141.3541.3935.5459.0794.1918.1969.3487.261.3487.2052 0 .6681.5863.7377.9344.037.1852.1899.4331.3396.5509.3244.2552.3332.3254.0762.6094-.164.1813-.1723.2546-.0505.4496.1205.1928.1139.2812-.0383.5134-.101.1542-.1728.3439-.1594.4214.0134.0775-.0453.2846-.1304.4601-.1183.2441-.123.3508-.0199.454.0741.074.1342.189.1335.2554-.001.1199-.6244.4436-1.1191.5813-.1422.0396-.5223.2495-.8448.4665-.3224.217-.6522.3945-.733.3945-.0807 0-.2146.0817-.2975.1816-.0887.1068-.2613.1605-.4192.1303-.1476-.0282-.306.013-.3517.0917-.1916.329-.9873.7456-1.4238.7456-.361 0-.4659.051-.5476.2659-.0803.2112-.2661.3056-.9042.4597-.4418.1066-1.119.1938-1.505.1938-.386 0-.7019.0419-.7019.093s-.2648.097-.5885.1018c-.3236.005-.6267.0708-.6734.1464-.0583.0944-.2519.1124-.6182.0574-.3767-.0564-.5333-.0404-.5333.0548 0 .0741-.0438.1077-.0975.0746-.0536-.0332-.3845-.0743-.7353-.0914-.5606-.0274-.666.0035-.8695.2546l-.2315.2857-.336-.2482c-.3447-.2546-.5408-.3053-1.0917-.2822-.225.0094-.316.0739-.316.2239 0 .318-.1272.3823-.4012.2028-.2162-.1417-.329-.1343-.9012.059-.7695.2597-1.2251.197-1.2277-.169-.003-.419-.1623-.5348-1.3006-.9459-.5144-.1857-.5785-.1868-.8704-.0144-.1835.1084-.4256.1573-.5797.117-.1797-.047-.2987-.0084-.3707.1204-.0632.113-.251.1896-.4649.1896-.1973 0-.4563.0883-.5756.1962-.1756.1589-.254.1697-.4113.0568-.107-.0768-.2623-.172-.3454-.2114-.2077-.0989-.7008.1424-.7937.3883-.1488.3941-.7166.8623-.9665.797-.2-.0523-.226-.0225-.1643.1886.181.6194.208 1.024.0736 1.107-.0767.0475-.154.1586-.172.2471-.0178.0885-.0707.2493-.1177.3573-.0469.108-.0242.3816.0506.608.0747.2265.1066.488.0708.5813-.0358.0933.0155.4842.114.8687.108.4213.1448.8201.0927 1.0036-.128.451-.1294.5208-.0143.6752.0577.0774.1242.336.1476.5746.056.5687.057.6145.0216.9444-.0247.23.0321.2927.3147.3478.4083.0797 3.9356.0409 4.5969-.0505.2528-.035.665-.066.9159-.069.2509-.003.5225-.0606.6036-.1279.081-.0673.3067-.0905.5013-.0516.1986.0397.4633.0102.603-.0674.1371-.076.5596-.147.9388-.158.3793-.011 1.682-.0469 2.8952-.0798 1.2131-.033 2.2633-.0956 2.3338-.1391.2786-.1722 1.4574-.328 1.6946-.224.2552.112.783.1894 1.2647.1857.2054-.0016.3735.042.3735.0968 0 .1111.9695.2991 1.3104.2541.1202-.0159.3374.049.4826.1441.1452.0952.5015.182.7918.193.2903.011.5545.0632.5872.116.0327.0529.2259.0961.4293.0961.2277 0 .4456.0884.5667.2299.1083.1264.3266.2298.4853.2298.2118 0 .2884.061.2884.2299 0 .1529.0766.2298.2289.2298.1259 0 .2934.1035.3724.2299.0789.1264.2306.2298.337.2298.1063 0 .3395.1216.5182.2703.4503.3746.7795.5342 1.1017.5342.1511 0 .3785.1163.5053.2586.3652.4097.7463 1.1394.6822 1.3063-.0322.084.045.2251.1714.3137.4422.3097.3862 1.4542-.0712 1.4542-.2065 0-.2065-.0045-.001.4877.1582.3785.153.4144-.0936.646-.1436.135-.4038.2453-.5781.2453-.2232 0-.4363.1328-.7198.4486-.2529.2817-.5436.475-.7816.5197-.2084.039-.5401.225-.7371.4133-.197.1883-.4362.3423-.5316.3423-.0954 0-.1734.0544-.1734.1208 0 .0664-.168.1917-.3735.2783-.2054.0867-.5012.278-.6573.4251-.3511.331-.7696.5549-1.0369.5549-.1114 0-.261.0703-.3323.1563-.0738.0889-.2533.1327-.4161.1015-.158-.0302-.4135.0285-.5699.131-.1559.1022-.4047.1858-.5528.1858-.1482 0-.3698.076-.4925.1687-.1227.0928-.3635.1704-.535.1724-.1898.0022-.3594.092-.4328.2292-.0664.124-.188.1998-.2701.1683-.0822-.0316-.275-.0109-.4286.046-.1922.071-.352.0556-.5123-.0495-.2798-.1833-.745-.0874-.745.1536 0 .13-.0779.1536-.316.0962-.1739-.0419-.716-.1062-1.2048-.143-.5405-.0406-.94-.1285-1.0197-.2244-.0717-.0868-.2472-.1578-.3898-.1578-.1425 0-.3235-.0775-.4022-.1723-.0787-.0949-.2143-.1724-.3014-.1724-.087 0-.1583-.0453-.1583-.1006 0-.0553-.1603-.1326-.3562-.1718-.196-.0392-.515-.2049-.7092-.3682-.2836-.2387-.428-.283-.7355-.2253-.2895.0543-.3826.0316-.3826-.0935 0-.2172-.283-.3207-.442-.1616-.0904.0904-.2566.086-.597-.016-.3664-.1099-.5088-.1107-.6374-.004-.0911.0756-.6174.1602-1.1696.188-.5522.0278-1.0212.0984-1.0423.157-.021.0585-.1788.1064-.3505.1064s-.3613.043-.4214.0956c-.06.0525-.329.158-.5976.2344s-.4884.1923-.4884.2575c0 .0652-.12.1028-.2667.0836-.1467-.0193-.3923.0464-.5459.146-.1535.0995-.5119.2127-.7963.2516-.5914.0809-1.4499.4653-1.522.6816-.0306.0919-.279.1504-.6711.158-.7877.015-1.4845.1535-1.4845.2948 0 .06-.0547.0751-.1214.0338-.3748-.2316-1.3544-.2204-1.6184.0185-.1328.1202-.3068.1558-.526.1077-.2036-.0447-.4683-.002-.6999.1138-.2048.1022-.548.1997-.7628.2168-.2148.017-.5626.1325-.773.2567-.525.3096-.9162.397-1.099.2453-.1066-.0885-.2312-.092-.4081-.0111-.5347.2442-1.113.3855-1.4812.3618-.2103-.0135-.5634.0571-.7846.157-.2213.1-.5824.2137-.8026.2528-.2202.0391-.594.1993-.8308.356-.2651.1754-.5967.2852-.8638.286-.2383.0009-.7178.0827-1.0655.182-.3476.0993-.7613.2083-.9193.2423-.158.034-.3693.1646-.4695.2901-.19.2382-1.3338.699-1.4921.601-.0502-.031-.1237-.004-.1634.0606-.0397.0642-.2206.1168-.402.1168-.1813 0-.4072.0775-.5019.1721-.2787.2788-1.762.4082-5.1307.4477-2.899.034-3.1886.0197-3.502-.173zm12.6465-54.1816c-.2185-.2185-.226-.497-.0206-.7675.3788-.499 1.1111.0378.8802.6453-.1335.351-.5689.413-.8596.1222zm-8.1678-2.4382c-.0632-.057-.4136-.2216-.7788-.3659-.365-.1443-.7788-.3504-.9193-.4581-.1406-.1077-.5088-.265-.8182-.3498-.7873-.2156-1.9665-1.006-2.1858-1.4652-.0981-.2054-.2296-.3735-.2922-.3735-.0626 0-.1983-.1632-.3014-.3627-.1032-.1995-.2344-.4193-.2917-.4884-.5077-.6134-.7908-1.053-.7908-1.2282 0-.1149-.199-.493-.4422-.8402-.2432-.3472-.6093-1.0738-.8134-1.6148-.2171-.5751-.463-1.0325-.5921-1.1017-.1215-.065-.221-.1897-.221-.277 0-.0873-.0545-.177-.1211-.1991-.0666-.0222-.1678-.2481-.2249-.502-.0946-.4212-.4632-1.2757-.8649-2.0051-.087-.158-.3134-.632-.5032-1.0533-.1897-.4214-.3948-.7968-.4556-.8344-.0609-.0377-.1476-.4133-.1928-.8349-.0451-.4215-.1767-.9805-.2924-1.242-.209-.4726-.1954-1.2514.0243-1.3871.1153-.0713 1.476-.1845 2.0877-.1737.2387.0042.5531.0857.6987.1811.1457.0955.297.1414.3363.1021.0392-.0393.105.0629.1463.227.0411.164.2117.37.379.4575.8108.4244.9686.5302 1.1266.7558.0936.1337.2207.212.2824.1738.1993-.1232.6427.2697.7156.6342.0502.2508.164.3875.3894.4674.1752.0621.3744.1518.4426.1992.7537.5243 1.3033.9408 1.5545 1.178.1674.158.453.3725.6345.4766.1816.104.3795.294.4398.422.1485.3155.548.3712 1.4416.2009.798-.152 1.2644-.3471 1.2644-.5289 0-.061.0776-.1108.1724-.1108s.1724-.0493.1724-.1096c0-.0602.2198-.2089.4884-.3303.2687-.1213.7976-.5116 1.1754-.8673.3778-.3556.7239-.6465.769-.6465.2386 0 .3681.6192.3664 1.7525-.001.6466.0306.7758.1896.7758.3313 0 .3464.1364.0535.4844-.1563.1857-.2841.407-.2841.4916 0 .0847-.139.2553-.3089.379-.2758.201-.3103.3032-.3233.9577-.008.403.0354.7991.0963.8803.0717.0954.0687.2376-.0083.4022-.0655.1401-.1852.4751-.266.7445-.1597.5326-.1604.529.4324 2.1534.1845.5057.4052 1.2176.4903 1.582.1522.6508.1487.675-.1973 1.379-.1937.3941-.415.9234-.4918 1.1763-.141.4643-.4571.8505-.8665 1.0584-.2876.1462-2.3708.194-2.5218.0578zm11.8066-2.7618c-.08-.0517-.2388-.2772-.353-.5012-.202-.3964-.2015-.4144.019-.6816.2442-.296.8817-1.6231.8817-1.8356 0-.0712.1422-.3438.316-.6058s.376-.6057.4494-.7637c.4872-1.0502.6137-1.3509.6137-1.4596 0-.0676.1292-.2076.2873-.3111.158-.1036.2873-.2876.2873-.409 0-.1213.0918-.2882.204-.3708.1122-.0826.3531-.5251.5354-.9834.1823-.4582.3762-.8332.431-.8332.0546 0 .1486-.1293.2087-.2873.06-.158.1622-.2873.227-.2873.0647 0 .1177-.122.1177-.2713 0-.1492.1293-.4618.2873-.6946.158-.2329.2873-.4817.2873-.5529 0-.0712.0733-.2111.1629-.311.1637-.1823.5686-.8703.9523-1.6179.1136-.2212.2711-.4706.3501-.5541.079-.0835.1437-.2346.1437-.3357s.0859-.2788.1909-.3948c.2507-.277.4127-.5587.89-1.5478.218-.4517.4519-.8556.5196-.8975.0679-.0419.1233-.1747.1233-.2952 0-.1204.1035-.2743.2299-.342.1406-.0752.2298-.2406.2298-.426 0-.1666.0771-.3881.1714-.4923.2378-.2627.4503-1.2932.4506-2.1846.0003-.7754-.19-1.3962-.5358-1.7487-.1106-.1128-.2011-.3571-.2011-.543 0-.1859-.0517-.37-.115-.409-.0631-.039-.1149-.1739-.1149-.2996 0-.1257-.1293-.3484-.2873-.4948-.1815-.1683-.2873-.3913-.2873-.6059 0-.219-.102-.4283-.2873-.5894-.158-.1374-.2873-.324-.2873-.4147 0-.0908-.0832-.2481-.1848-.3498-.1306-.1306-.1637-.293-.1128-.554.0396-.2032.0878-.6797.1072-1.059.0193-.3792.094-.8704.1662-1.0917.0721-.2212.1567-.532.1879-.6907.0743-.3778.6014-.6793 1.2295-.7031.6331-.024 1.8829.081 2.0275.1704.0601.0372.271.0211.4688-.0356.2173-.0623.3856-.061.4254.0033.0362.0585.189.1065.3395.1065.1506 0 .3062.0525.3458.1166.1285.208.9081.471 1.1878.4009.1672-.042.3892.0094.576.1332.167.1109.4135.188.5477.1713.1365-.0169.274.0485.3124.1485.0389.1013.207.1798.3882.1812.1758.0014.449.1037.607.2273.158.1236.3281.226.3781.2273.145.0041.7705.4831 1.2355.9463.2355.2346.6375.5102.8933.6126.3227.1291.5.2862.579.513.0627.18.2413.4104.3968.5123.1555.102.3134.3385.3508.5257.0375.1872.14.3404.2279.3404.2788 0 .7653.4665.7653.7338 0 .1416.1489.4001.3308.5744.3745.3587.543 1.0348.6338 2.5417.0397.6594.0121.9778-.0977 1.1259-.0842.1135-.1272.3053-.0956.426.0324.1238-.0482.3541-.1845.5274-.1331.1692-.242.4256-.242.5698 0 .1718-.1683.3939-.4884.6444-.2687.2103-.5074.4265-.5305.4805-.023.054-.1796.2613-.3477.4606-.1682.1993-.3814.5113-.4738.6933-.0926.1821-.2831.3834-.4237.4475-.1405.064-.387.3152-.5478.5581-.2286.3455-.4069.4706-.8177.574-.374.0942-.5546.209-.6265.3982-.0556.1462-.3179.6036-.5829 1.0163-.4175.6502-.518.7414-.752.6827-.1838-.0462-.2708-.018-.2722.0883-.004.331-1.1813 1.8266-1.3246 1.6833-.0654-.0654-1.3143 1.1285-1.3204 1.2621-.002.0461-.1092.2105-.238.3653-.175.2102-.3316.275-.6182.2557-.3351-.0226-.4266.0365-.72.4655-1.056 1.5431-1.3509 1.9278-1.478 1.9278-.0775 0-.2228.0314-.3228.0698-.1167.0448-.1818.0071-.1818-.1053 0-.383-.3186-.2427-.953.4199-.6075.6346-.6713.6732-.7316.4427-.0363-.1388-.111-.2524-.1661-.2524-.0551 0-.3433.2576-.6406.5726-.4822.511-.5603.5546-.7254.4052-.1632-.1476-.2252-.1388-.524.0744-.1865.133-.5166.4782-.7336.7671-.2173.2894-.4158.4616-.4418.3834-.026-.078.0056-.2056.0703-.2835.136-.1639.132-1.4595-.0046-1.4595a.0906.0906 0 00-.0913.0892c0 .0491-.2096.2948-.4657.546-.2562.251-.5626.6717-.681.9346-.1273.2825-.347.5412-.5373.6324-.2928.1403-.9361 1.1074-.9527 1.4321-.0036.071-.1348.278-.2915.4597a48.1603 48.1603 0 00-.5459.6465c-.1696.2054-.3118.283-.4063.222zm15.9474-13.1289c0-.0594-.0517-.1081-.115-.1081-.0631 0-.1148.0806-.1148.1792 0 .0985.0517.1472.1149.1081.0632-.039.1149-.1197.1149-.1792zm-2.7358 3.5833c-.1186-.0733-.1147-.1194.0195-.2307.1238-.1027.1886-.105.2482-.0086.1101.1781-.0848.3523-.2677.2392z" id="path3491" fill="#000" stroke-width=".1149"/>
  </g>
</svg>
