<svg xmlns="http://www.w3.org/2000/svg" viewBox="0 0 210 297" version="1.1" id="svg3893">
  <g id="layer1">
    <path d="M26.9058 277.9648c-.5618-.0693-2.0692-.3676-2.974-.5887-1.2925-.316-3.1949-1.8712-3.7407-3.0582-.1557-.3387-.4233-.8198-.5944-1.0689-.1713-.2492-.7019-1.2155-1.1792-2.1478l-.868-1.695.0208-1.9826c.0114-1.0905.0598-2.1685.1077-2.3957.3096-1.4668 1.251-3.4934 2.0645-4.4437.5926-.6923 2.752-2.22 3.1379-2.22.124 0 .2255-.0994.2255-.2204 0-.121.1396-.2202.3102-.2202.1706 0 .4122-.1236.537-.2746.5452-.6604 1.474-.872 3.7912-.8637 2.167.0103 2.2505.0207 3.6225.6016.7724.3268 1.4415.6416 1.487.7002.0455.0584.5155.4307 1.0445.8265.8845.662 1.9294 1.901 1.9294 2.2877 0 .1975.8145 1.8324 1.0835 2.1746.3412.4338.7076 3.8.4136 3.8-.0964 0-.1753.0719-.1753.1598 0 .0879.1115.1173.2478.065.2983-.1142.305.0818.0778 2.2534-.204 1.9485-.3643 2.4426-1.232 3.7964-.38.5926-.6845 1.1273-.677 1.1881.0243.197-.7805.9633-1.012.9633-.1237 0-.7984.3242-1.4995.7204-1.442.8149-1.8896.9751-3.753 1.3434-1.6973.3356-1.898.3604-2.3957.2994zm.6608-1.126c0-.1376-.0716-.379-.1591-.537-.0875-.1577-.3074-.6103-.4887-1.0056l-.3295-.7187.5196-.438c1.3144-1.1074 1.206-1.0737 1.6713-.5207.6007.7139.9343.655.9343-.165 0-.4772.0688-.6608.2478-.6608.1363 0 .2479.0765.2479.1706 0 .363.7183.4452 1.2338.1412.7417-.4375 1.6315-1.4081 1.4944-1.63-.0862-.1396-.1903-.1287-.3903.0414-.4261.36-1.508.948-1.7435.948-.117 0-.337-.1371-.4888-.3052-.259-.286-.2533-.3345.0926-.7847.2027-.2637.4294-.523.5039-.5757.1518-.1075-.011-.6477-.1954-.6477-.0653 0-.2933.1857-.5068.4132-.4841.5156-.6206.5171-.8517.0103-.151-.3315-.121-.5093.1688-1.0007.3963-.6717.4394-.909.1652-.909-.2609 0-.932.8122-1.1224 1.3582-.1189.3413-.099.514.08.6928.2925.2927.316 1.0901.032 1.0826-.3208-.0103-.8732-.5327-1.1313-1.0736-.1611-.3377-.3754-.5068-.6872-.5428-.2493-.031-.4531-.0207-.4531.0207s.3345.5707.7434 1.1804c.409.6098.7435 1.1684.7435 1.2414 0 .073-.2788.3418-.6195.598-.3408.2559-.6684.5365-.728.6238-.0596.0874-.3325-.2803-.6062-.8174-.739-1.4489-.907-1.6419-1.162-1.3347-.1698.2048-.12.422.2774 1.2127.2664.53.6545 1.3723.8624 1.8721.3813.9167 1.2924 2.2985 1.5216 2.308.0682.003.1239-.1076.1239-.2451zm4.9149-2.6158c.706-.4468 2.0243-1.7204 2.0243-1.956 0-.0863.1765-.3934.3923-.6826.6848-.9183 1.0028-2.179 1.0076-3.9956.004-1.5419-.2932-3.2217-.5702-3.2217-.0653 0-.2316-.2875-.3696-.6388l-.2509-.6387-.8266.0796c-.9063.0874-1.1623-.089-.8518-.5864.2576-.4126.07-1.364-.3826-1.9392-.5431-.6905-2.664-2.0017-3.5527-2.1963-1.4386-.3149-2.0033-.3707-2.1047-.2068-.1276.2068.322.4473 1.1119.5957.7806.1463.8996.3392.489.793-.896.9898-1.87 3.0856-1.4338 3.0856.1277 0 .5467-.4525 1.1833-1.2785l.4124-.535.4404.4524c.6689.6872 1.4856 1.3612 1.6495 1.3612.0805 0 .2382.1107.3503.2456.1656.1996.122.4023-.2312 1.0777-.383.7324-.403.8444-.167.935.1474.0564.3275.005.4-.1107.0725-.1174.2486-.1686.3912-.1138.1718.0657.351-.0558.5307-.3599.2554-.4323.3259-.455 1.203-.3883 1.0878.0833 1.377.3454 1.7573 1.5938.6542 2.1473-.0445 5.1168-1.6462 6.9961-.6204.728-1.8465 1.6087-3.2718 2.3501-.7124.3708-1.1117.6797-1.1118.8606-.0002.2307.256.1484 1.4037-.452.7722-.4038 1.683-.9108 2.024-1.1265zm-1.28-12.018a91.8629 91.8629 0 01-.9914-.8176c-.318-.2663-.7197-.5857-.8927-.7099-.3021-.2166-.294-.2472.2071-.7714.4903-.513.5396-.5294.8231-.273.166.1499.383.273.4824.273.3388 0 1.209.864 1.4492 1.439.4343 1.0395-.2144 1.5571-1.0778.8599zm-6.6998 13.5757c.0517-.0832-.4848-.7339-1.1918-1.4456s-1.4885-1.5417-1.7366-1.8443l-.4512-.5503.7513-.9563c.4132-.526.8253-1.2241.9156-1.5514.1544-.5591.2145-.6018.9918-.705.64-.0848.8157-.17.7752-.3764-.0596-.304-.901-.331-3.2264-.1034-1.17.1148-1.363.0977-1.363-.1184 0-.3418.3036-.5615.974-.705.3458-.074.837-.4038 1.2803-.8601l.7192-.74 1.1722.1975c1.2157.2048 1.6097.0998 1.4252-.3811-.0792-.2063-1.6674-.4902-4.8274-.862-.1818-.0208-.3455-.0466-.3638-.06-.0181-.0104.0678-.2617.1915-.5558l.2247-.5347 1.4607-.002c1.343-.002 1.4735-.031 1.6195-.364.0873-.1991.3065-.4002.4872-.4473.3407-.0889 1.4193.4731 1.4193.74 0 .0833.1858.1515.413.1515.7296 0 .4534-.4437-.7847-1.2609-.6588-.4348-1.2959-.925-1.4157-1.0893-.1198-.1645-.272-.2653-.3383-.2244-.0663.0414-.2275.0103-.3583-.0724-.1988-.1231-.1824-.1986.0998-.4613.1857-.1732.6198-.4075.9648-.5215.7087-.2337 1.0346-.0553 1.1686.6407.1433.7444.3785.8523 1.0253.4706.4719-.2788.5434-.3827.361-.5253-.1251-.0977-.376-.4643-.5576-.8147-.3972-.7662-.8813-.9838-1.9905-.8952-.6364.0517-1.0563.2208-1.7699.7167-.5145.3573-.9383.711-.9417.7856-.003.0745-.3037.4881-.6672.9193-.3634.4312-.6608.8362-.6608.9003 0 .064-.1859.411-.4131.7709-.2272.3599-.413.8268-.413 1.0375 0 .211-.0769.4603-.1708.554-.0939.0942-.1776.5192-.1862.945-.009.4261-.0884.8193-.1774.8743-.0964.0595-.071.1588.0623.2446.1859.12.1818.1722-.0238.3072-.1657.1085-.1794.1634-.0414.165.2474.003.2749.5289.0398.7638-.209.209.3883 2.6447.7455 3.0394.136.1505.2472.3454.2472.4339 0 .2487 1.3846 2.092 1.9778 2.6334.292.2663.7522.6882 1.0225.9372.9553.88 1.3562 1.089 1.5348.8zm-4.0862-5.3419c-.5295-1.4473-.533-1.4186.1647-1.3828.8545.0414 1.025.1852.9489.7865-.069.5457-.4852 1.2985-.7178 1.2985-.0764 0-.2545-.316-.3958-.7022zm-.4075-4.2167c.0445-.592.072-.6176.7047-.659.362-.026.7698.031.906.1189.2109.1375.1863.2213-.1651.5598-.2272.2187-.6559.4426-.9526.4969-.5362.0988-.5392.0957-.493-.5166zm1.9-3.2952c-.5859-.0889-.5727-.2078.1078-.9726l.5622-.6318.5115.5.5114.5-.3366.3615c-.332.3563-.4588.379-1.3564.243zm14.3326 7.8837c.0562-.091.028-.165-.063-.165s-.2113.0745-.2674.165c-.0562.091-.028.165.063.165.0909 0 .2113-.0746.2674-.165zm-3.2217-1.083c0-.5532.0253-.575.9913-.8434 1.2158-.3382 1.341-.7171.237-.7171-1.017 0-1.3936-.225-1.3936-.832 0-.501.004-.5031 1.0414-.5637.2689-.0155.6018-.347.6083-.6055.005-.1866-2.3829-.3076-3.3525-.17-.9435.1338-.9635.1282-1.2021-.3331-.2691-.5204-.434-.578-.7084-.2472-.2661.3206.2552 1.7497.9723 2.6653.4233.5404.729.7621 1.154.8369.9072.1598.9914.2084.9914.5773 0 .4664.3095 1.018.504.8978.0863-.0533.1569-.3526.1569-.6647zm-1.7631-1.8662c-.3006-.09-1.1818-.9842-1.0163-1.0312.7787-.2213 1.1731-.136 1.6292.3527.674.7214.4303.9913-.613.6788z" id="path75-3" fill="#fe0000" fill-opacity="1" stroke-width=".1652"/>
    <path d="M130.9383 279.0601c.105.0403.1389.001.096-.1108-.0366-.0953-.1234-.1732-.1931-.1732s-.0921-.0346-.05-.0768c.0423-.0422.154-.0127.2484.0656.2113.1753.3235.0199.2336-.3238-.0529-.2023-.1119-.233-.2773-.1445-.1156.062-.2372.0855-.2702.0524-.1061-.1061-.6885.2207-.6885.3865 0 .169-.3064.2232-.3986.0705-.066-.1095.6057-.7391.6942-.6507.0346.0346.063-.0305.063-.1448 0-.146-.08-.1975-.269-.1733-.1479.0189-.3883-.0685-.5342-.1942-.146-.1257-.456-.2369-.6893-.247-.513-.0222-.6873-.1575-.325-.2522.305-.0798.3781-.5988.0843-.5988-.0986 0-.1792.0448-.1792.0996 0 .0548-.0807.0996-.1793.0996s-.173-.0403-.1652-.0896c.0403-.2554-.033-.3737-.1934-.3122-.0986.0378-.1793.0214-.1793-.0365 0-.0579-.3227-.3403-.7171-.6276-.3945-.2872-.7172-.5617-.7172-.61 0-.0481.0801-.1541.178-.2354.0979-.0812.1485-.1954.1125-.2536-.1028-.1663-.2905-.1241-.2905.0652 0 .2526-.4394.3475-.7151.1544-.1318-.0923-.2092-.1982-.172-.2354.0371-.0372-.1-.1043-.305-.1493-.4377-.0962-.9593-.5427-.9593-.8212 0-.115-.0972-.1955-.236-.1955-.194 0-.2244-.0589-.1703-.3292.0495-.2478-.006-.3964-.2233-.6009-.3903-.3666-.8047-.4435-.8047-.1493 0 .127-.075.2106-.1758.1958-.2772-.0407-.3316-.1532-.1963-.4059.099-.1852.076-.2788-.1099-.447-.1293-.1171-.2352-.2846-.2352-.3722 0-.0876-.2106-.2922-.468-.4547-.2574-.1625-.5032-.3523-.5461-.4218-.043-.0695-.1295-.0945-.1923-.0557s-.0994.008-.0814-.069c.018-.0767-.067-.2017-.1889-.2777-.122-.0761-.4952-.3882-.8296-.6935-.5476-.5002-.9208-.6304-.9208-.3214 0 .0626.0534.0808.1185.0405.0652-.0403.2132-.0182.3287.0491.1156.0673.1625.124.1042.126-.0583.002.036.1454.2092.3187.345.345.4192.7606.1358.7606-.0986 0-.1793-.0502-.1793-.1114 0-.0613-.121-.1491-.269-.1951-.2852-.0887-1.4043-1.1835-1.4043-1.3738 0-.062-.0794-.1125-.1766-.1125-.097 0-.2646-.1345-.3723-.2988-.1077-.1644-.2677-.2988-.3556-.2988-.0879 0-.3218-.2356-.52-.5235-.198-.288-.4342-.552-.5247-.5867-.0905-.0347-.2569-.2576-.3696-.4952-.1128-.2377-.2525-.4028-.3103-.367-.058.0358-.149-.011-.2023-.104-.1039-.181-.7734-.9795-1.4997-1.7888-.2456-.2736-.4473-.5808-.4482-.6827-.001-.102-.0662-.2498-.1451-.3287-.079-.079-.0923-.1437-.03-.1439.0626 0-.0638-.1086-.2807-.2409-.247-.1505-.3627-.2956-.3096-.388.0467-.0812.0408-.1077-.013-.059-.1524.138-.4003-.1328-.3384-.3696.069-.264-.8462-1.213-1.17-1.213-.1453 0-.225-.0848-.225-.2391 0-.1315-.052-.239-.1157-.239s-.087-.0752-.0517-.167c.0352-.0917-.0337-.2396-.1532-.3286-.269-.2005-.6364-.6625-.4264-.5363.0918.0552.1494.0237.1494-.0816 0-.097-.165-.2044-.3806-.2475-.2093-.042-.4826-.1685-.6074-.2814-.2144-.194-.2331-.194-.3425.001-.0636.1137-.176.2067-.2497.2067-.0737 0-.2415.094-.3729.2092-.2274.1992-.2352.1992-.1625 0 .093-.2553-.0323-.2676-.3416-.0337-.1276.0965-.3245.1771-.4376.1792-.113.002-.3958.1107-.6284.2413-.2325.1307-.4627.2517-.5116.269-.0488.0173-.0772.0663-.063.1088.0142.0426-.0737.0514-.1952.0196-.1396-.0365-.291.0422-.4113.214-.1047.1494-.2753.2842-.3792.2995-.1502.022-.16-.007-.048-.142.1813-.2185-.001-.2125-.2945.01-.1247.0944-.269.1456-.3204.1138-.0515-.0318-.1275-.003-.1688.0636-.0413.0668-.2219.1214-.4013.1214s-.5372.1076-.7951.239c-.258.1316-.6157.2391-.7952.2391-.1794 0-.3594.0538-.4.1195-.0407.0657-.1745.1196-.2974.1196-.1229 0-.295.0716-.3825.159-.0875.0875-.231.135-.319.1056-.088-.0294-.5583.0174-1.0448.1039-.7143.1269-.8847.1986-.8847.3724 0 .2622-.187.2842-.2833.0333-.0389-.1013.0394-.2912.1764-.4283.1355-.1355.2124-.2802.1709-.3217-.092-.092-.4816.1394-.4842.2876-.0055.3185-.2213.4252-.6994.3458-.7817-.1298-1.9957-.0824-2.2037.086-.1038.084-.1535.0939-.1104.0218.0554-.0925-.3071-.1228-1.233-.1028-.7214.0156-1.3418-.0205-1.3786-.08-.0368-.0596-.123-.0737-.1916-.0313-.0685.0424-.1612.0178-.206-.0545-.0553-.0896-.2808-.1-.7073-.0326-.3444.0545-.6512.0585-.6817.009-.1273-.206.1109-.8587.3537-.9693.2086-.0951.2477-.1963.2077-.5388-.0478-.4096-.0617-.42-.483-.3614-.6794.0944-1.9758.4448-2.1013.5679-.0624.0613-.2677.1114-.456.1114-.1884 0-.4427.0536-.565.119-.1224.0655-.4416.1364-.7093.1576-.7827.0619-.6384-.277.29-.6814.4273-.1862.777-.3839.777-.4394 0-.1563.8137-.505 1.0062-.4311.0943.0362.2358-.0117.3144-.1064.0786-.0947.2425-.1722.3641-.1722.2521 0 1.2156-.5135 1.27-.6769.0334-.1-.14-.1108-.9228-.057-.2338.016-.2606.0446-.123.1316.0967.0612.1447.1423.1067.1803-.1237.1237-.4247-.0621-.5847-.3612-.1928-.3603-.526-.4032-.415-.0534.0624.1966.0215.239-.231.239-.1688 0-.3068.0421-.3068.0934 0 .0514-.121.1035-.269.1158-.1479.0123-.5904.1283-.9832.258-.7646.2522-.9022.2427-.6626-.046.1249-.1506.1174-.1822-.0428-.1822-.1142 0-.1939.0982-.1939.239 0 .1315-.0763.239-.1695.239-.1163 0-.1623-.122-.1465-.3884.0318-.538.154-.6873.5621-.6873.2006 0 .3523.0642.3534.1494.0012.0947.034.1048.0896.0274.1395-.1937.7261-.4157.911-.3447.0927.0356.2057.005.251-.0688.0596-.0963.1335-.0912.2654.0182.153.127.2262.0972.4503-.184.1602-.2008.3584-.3205.4939-.2982.1244.0205.2967-.007.3828-.0609.088-.0551.3123-.0337.5119.049.3879.1607.503.1094.5283-.2352.0141-.191-.0445-.2158-.3809-.1612-.254.0412-.3975.0157-.3975-.0707 0-.0743.0538-.1351.1195-.1351s.228-.1085.3605-.241c.2623-.2624.7983-.2472.9726.0275.0734.1157.098.1056.0993-.0409.0025-.2633.2823-.477.7496-.5726.2133-.0436.3878-.1399.3878-.2139 0-.2523.1675-.3028.3614-.1089.1064.1064.2434.1935.3045.1935.1813 0 .126-.2076-.0759-.2851-.3184-.1222-.0795-.284.4299-.291.578-.008 1.3383-.2388 1.2512-.3798-.0802-.1298 1.1148-.5491 1.942-.6814.2137-.0342.3885-.1163.3885-.1826 0-.0696-.1133-.0856-.2689-.0378-.1479.0454-.521.112-.8293.148-.5048.0589-.5544.0433-.5004-.1583.1207-.4504.356-.5912 1.235-.739.4901-.0823.9742-.219 1.0756-.3038.1015-.0847.3428-.1639.5364-.176.1935-.012.383-.0725.4212-.1342.0798-.1291.985-.3811 1.462-.407.1775-.01.39-.0846.4721-.1668.2007-.2008.3406-.1885.3406.0299 0 .0986.0807.1792.1793.1792s.1793-.1036.1793-.2303c0-.259.4049-.617.9558-.8452.3159-.1309.464-.3943.2066-.3677-.0477.005-.3032.009-.5677.009-.4368 0-.4876.0324-.5514.3513-.0488.2443-.1901.4083-.4633.5379-.5076.2409-1.0143.2445-1.0143.007a.1798.1798 0 00-.1793-.1793c-.0986 0-.1792.0448-.1792.0996 0 .0978-.1841.1389-.6554.1463-.2888.005-.7997.4605-.6989.6237.04.0647-.002.0905-.0933.0573-.0913-.0332-.1527-.1204-.1365-.1937.0195-.088-.1227-.0736-.4184.0424-.2463.0967-.7873.2535-1.2023.3486-.415.095-.888.2604-1.0513.3673-.2803.1837-.764.156-.764-.0437 0-.25.5809-.5532 1.1027-.5755.3107-.0133.6772-.0842.8144-.1577.1866-.0998.293-.0976.4213.009.1372.1139.1716.1035.1716-.0515 0-.1118.0976-.1939.2306-.1939.1267 0 .3015-.0688.3884-.1528.0869-.0841.3462-.2147.5763-.2904.23-.0756.6604-.2281.9562-.339.2958-.1108.6851-.1989.865-.1957.186.003.3755-.0804.4389-.1937.0775-.1385.2582-.1955.5922-.1867.3063.008.5035-.0468.5435-.1512.0346-.0901.1886-.1638.3422-.1638.1537 0 .4592-.1327.679-.2949.2198-.1621.4454-.2665.5013-.232.056.0346.1017.0117.1017-.0508s.1397-.1486.3105-.1915c.2674-.0671.2993-.1227.2302-.4014-.0441-.178-.13-.3414-.191-.3633-.0609-.022-.1107-.186-.1107-.3646 0-.1786-.0607-.3854-.1348-.4596-.1876-.1875-1.0594-2.4289-1.06-2.725-.0002-.1333-.073-.3484-.1615-.4781-.1617-.2365-.2873-.7107-.395-1.4908-.0319-.23-.1529-.5528-.269-.7171-.1162-.1644-.248-.4467-.293-.6275-.0449-.1808-.1345-.3287-.199-.3287-.0644 0-.1172-.1128-.1172-.2506 0-.1379-.2173-.9043-.4829-1.7033-.5487-1.6508-1.3099-4.656-1.3099-5.1718 0-.1895-.0823-.7211-.1829-1.1812-.1006-.4602-.2085-1.0787-.2397-1.3745-.0313-.2958-.0886-.6897-.1273-.8753-.0388-.1855-.0679-.6158-.0646-.9562.0033-.3403-.0721-.9574-.1674-1.3712-.0954-.4139-.1802-1.0862-.1886-1.494-.0095-.4614-.1-.9093-.2395-1.1851-.1233-.244-.2249-.5935-.2256-.777-.0007-.1833-.0356-.5409-.0775-.7945l-.0762-.461-1.1476.0759c-.6312.0418-1.3897.1006-1.6855.1308-.787.0803-1.9454.1699-3.1674.2451-.5916.0364-1.775.1757-2.6295.3094-.8546.1337-1.9303.2896-2.3905.3463-.4602.0567-1.4552.1874-2.2112.2904-1.8907.2574-1.9812.2685-2.9283.359-.4602.044-.998.1252-1.1953.1803-.1972.0551-.558.1337-.8018.1745-.8808.1477-1.2247 1.0893-1.268 3.4727-.036 1.9767-.1238 3.3057-.2683 4.063-.147.7704-.1603 1.76-.0507 3.7835l.0885 1.6322.4282.05c.3603.0421.4912-.013.8254-.3472.4311-.4311.7479-.5146.7479-.1972 0 .17.0417.161.2766-.0598.1522-.143.3487-.2599.4368-.2599.1948 0 1.6379-.796 1.7387-.959.109-.1764.297-.1398.297.0578 0 .0994-.2016.2349-.4684.3148-.2794.0837-.4918.2303-.5266.3634-.0988.3778.0798.3163 1.2489-.43.8726-.557 1.5639-1.0534 2.0338-1.4606.3869-.3353.658-.477.8964-.4684.3347.012.341.0246.3001.6099-.023.3287-.0994.668-.1698.754-.0705.086-.138.5552-.1502 1.0426-.0217.8735-.1663 1.2513-.4788 1.2513-.0847 0-.4261.2151-.7588.478-.3327.263-.6556.4782-.7177.4782-.0621 0-.2654.166-.4518.3689-.1863.2029-.8338.7409-1.4387 1.1956-.605.4547-1.1428.8939-1.1952.976-.0525.082-.2419.2246-.421.3169-.3408.1756-.8427.6327-1.4971 1.3637-.4658.5202-.5175.7914-.0986.5169.2053-.1345.3035-.1492.3364-.0504.0759.2276-.1934.6949-.3872.6719-.0986-.0117-.3244.049-.5018.1347-.4318.209-.5579.7561-.7583 3.2908-.0884 1.1175-.2434 2.4622-.3444 2.988-.101.526-.2151 1.6286-.2537 2.4503-.04.8527-.1335 1.5967-.2177 1.7331-.0813.1315-.1581.4004-.1709.5976-.0517.8005-.4284 2.3356-.7773 3.1674-.0689.1644-.1146.3432-.1015.3974.0131.0542-.0232.0695-.0806.034-.1769-.1094-.4123.4724-.3151.7786.08.2519.0684.2647-.107.1191-.108-.0897-.2001-.1161-.2046-.0588-.0407.526-.1353.9528-.2328 1.0504-.0647.0648-.1177.2348-.1177.378 0 .143-.0736.3214-.1637.396-.09.0748-.26.3906-.3779.702-.1178.3113-.2828.6736-.3667.805-.0839.1315-.2421.508-.3517.8367s-.2877.701-.396.8274c-.1575.184-.161.212-.0173.1405.0986-.049.0762-.006-.0497.0968-.126.1023-.2395.281-.2524.3973-.0274.248-.1486.6055-.3043.897-.1435.269-.1405.3628.0087.2706.0658-.0406.1196.005.1196.1025 0 .097.0672.2035.1494.2367.1077.0435.1097.0629.007.0697-.0782.005-.1755-.0444-.2162-.1101-.1156-.187-.2988-.1402-.2988.0765 0 .1078.0934.2643.2076.3478.1961.1434.1951.1655-.0185.4016-.1244.1374-.2985.2498-.3869.2498-.0884 0-.1607.057-.1607.1266s.05.0956.1112.0578c.0612-.0378.1416-.0197.1786.0402.037.0599-.013.1398-.1112.1775-.186.0714-.2447.3777-.089.4648.0493.0276.0241.0344-.056.0152-.238-.057-.3118.196-.147.5039.0845.158.2522.2874.3726.2874.2543 0 .297.336.0545.4291-.1882.0722-.224.637-.0538.8474.0781.0966.0363.1827-.1327.2732-.1357.0727-.2468.0967-.2468.0535 0-.0432-.0721-.0187-.1604.0545-.0882.0732-.2043.0933-.258.0445-.0538-.0487-.061.013-.0162.1374.0663.184.0503.2002-.086.0871-.1128-.0937-.262-.103-.4572-.0288-.1594.0606-.3676.0666-.4627.0134-.1296-.0725-.1776-.0206-.1912.2069-.0186.3099-.2124.5063-.5028.5095-.1153.001-.1398-.088-.0845-.3084.0812-.3232-.116-.6943-.3065-.5766-.0593.0367-.0814.1096-.049.162s-.0474.1915-.1773.309c-.2274.2059-.237.2054-.2551-.0138-.0104-.1253-.016-.2967-.0127-.381.0034-.0842-.12-.017-.2742.1495-.2931.3162-.7687.4106-.7718.1532-.0014-.1102-.0287-.107-.1043.0123-.0786.124-.1599.131-.3481.0303-.1351-.0723-.3253-.1009-.4228-.0635-.1113.0427-.2063-.0241-.2557-.1797-.0864-.2721-.3722-.3346-.4509-.0986-.0297.089-.113.0308-.2068-.1445-.2295-.4289-.637-.7343-.7491-.5615-.0651.1002-.1225.0889-.2073-.0407-.0843-.1288-.0615-.221.0809-.3275.109-.0815.1672-.1791.1293-.217-.0379-.038-.1762.0462-.3073.187-.1423.1526-.269.2067-.314.1339-.11-.178-1.0455-.1206-.9762.0599.0564.147-.2717.3396-.385.2262-.0345-.0344 0-.0626.0768-.0626.0767 0 .1394-.0538.1394-.1195 0-.1897-.4452-.1386-.5213.0598-.0378.0986-.1449.1793-.2378.1793-.1456 0-.1455-.0685.001-.4934.0934-.2713.1474-.5158.12-.5432-.0274-.0274-.2172.1175-.4217.322-.2045.2044-.4262.3381-.4926.297-.0665-.041-.1209-.0176-.1209.052s-.0806.1265-.1793.1265c-.0986 0-.1658.064-.1494.1423.0165.0783-.066.1633-.1833.1889-.1784.0389-.2005-.009-.1351-.2917.043-.186.074-.4844.0689-.663-.005-.1787.0423-.3567.1053-.3956.0629-.0389.1144.0367.1144.1679 0 .208.0573.23.4482.1708.5646-.0854.7096-.2121.5134-.4485-.1768-.213-.082-.5608.1406-.5156.084.017.1528-.0497.1528-.1483 0-.1048-.0874-.1646-.21-.144-.1156.0194-.3039-.0243-.4184-.0972-.173-.11-.1526-.1207.1204-.0629.1808.0383.3287.0209.3287-.0386 0-.1587-.6907-.2335-.8339-.0904-.0673.0673-.1223.086-.1223.0416 0-.0444-.1303-.0312-.2896.0294-.2222.0845-.3264.063-.4482-.0926-.1427-.1823-.1376-.1862.0505-.0387.1773.139.2106.139.2183 0 .005-.0902.0278-.2623.0506-.3825.0297-.1568-.0113-.1982-.1455-.1466-.2193.084-.7517-.2318-.749-.4445.0012-.1062.026-.1091.0896-.0106.1105.1712 1.2233.1527 1.2233-.0203 0-.0702-.0646-.1921-.1435-.271-.1115-.1116-.11-.1435.0071-.1435.0828 0 .115-.0574.0717-.1274-.0433-.0701-.1089-.0974-.1457-.0605-.0368.0368-.142-.0403-.2338-.1714-.0918-.131-.258-.2365-.3693-.2343-.1643.003-.1493.0482.0797.239.1552.1294.2628.242.239.2504-.2093.0741-.5809.0494-.5809-.0386 0-.0606-.0476-.0808-.1058-.0448-.0583.036-.1306-.0635-.1607-.221-.042-.2197-.0102-.2736.1358-.231.1082.0316.0743-.0311-.0785-.145-.1479-.1103-.2689-.2837-.2689-.3852 0-.1016-.0333-.1514-.074-.1107-.1316.1316-.3693-.2123-.3566-.516.0078-.1861-.0462-.283-.146-.2622-.087.0181-.128-.0162-.091-.076.037-.06-.0104-.1736-.1055-.2525-.1147-.0951-.1491-.2625-.1023-.4967.0525-.2622.0127-.3975-.1545-.5252-.1918-.1465-.1992-.1889-.0506-.2864.1508-.099.1467-.1453-.0298-.3404-.1125-.1242-.2082-.3561-.2129-.5153-.007-.2458-.0214-.2562-.0952-.0686-.128.3252-.3446-.001-.3052-.4598.017-.1972.0352-.4553.0406-.5734.0053-.1182.157-.3515.3372-.5185.2998-.2778.3104-.3161.1253-.4515-.1302-.0952-.1781-.2405-.1343-.4078.0486-.1862.0142-.26-.1215-.26-.1107 0-.1636-.0676-.1272-.1625.0343-.0894-.1272-.3577-.359-.5964-.2545-.262-.3941-.505-.3525-.6134.0379-.0987-.006-.2082-.0976-.2434-.1476-.0566-.2-.2163-.2442-.7449-.007-.0822-.0574-.1494-.1122-.1494-.0547 0-.0996-.0604-.0996-.1341 0-.0912.0479-.096.1494-.015.1573.1254.6554.242 1.483.3473.3506.0446.5141.1286.555.285.0782.299.7918.7247 1.1473.6847.1577-.0178.3266-.113.3753-.2117.0487-.0986.1873-.381.3081-.6275.1208-.2465.2644-.4482.319-.4482.0547 0 .0676-.0516.0286-.1146-.039-.0631-.0217-.211.0384-.3287.3645-.7135.6183-1.362.7318-1.8697.0713-.319.214-.7432.3172-.9427.207-.4001.5627-1.3804.8355-2.3022.0972-.3287.2373-.7052.3113-.8366.1655-.2944.2126-.8965.07-.8965-.0574 0-.242.0901-.41.2002-.168.1101-.434.214-.591.2307-.1571.0168-.404.1133-.5487.2147-.1941.136-.3045.15-.4207.0535-.115-.0955-.2062-.0903-.3382.0192-.3785.314-3.7991.3172-5.7358.005-.3944-.0635-.9682-.1474-1.2751-.1863-.3069-.039-.6227-.1488-.702-.2442-.079-.0954-.3147-.1735-.5236-.1735-.209 0-.4444-.0645-.5233-.1434-.0788-.0789-.1434-.1081-.1434-.065 0 .043-.2286-.007-.508-.1106-.2794-.104-.629-.1828-.7769-.1753-.1479.007-.2689-.0315-.2689-.0865 0-.0743-1.4495-.53-2.1514-.6763-.033-.007-.2687-.1035-.524-.2149-.2552-.1113-.5969-.2265-.7593-.256-.1623-.0294-.4375-.1488-.6116-.2653-.174-.1164-.5046-.2308-.7347-.254-.23-.0233-.5528-.168-.7171-.3214-.1644-.1535-.4333-.2972-.5976-.3194-.1644-.022-.3915-.121-.5047-.2195-.1132-.0986-.6614-.3661-1.2183-.5945-.557-.2283-.9902-.4375-.9628-.465.0274-.0273-.1082-.1363-.3013-.2421-.5638-.309-1.6813-1.3304-1.8015-1.6468-.0616-.1619-.271-.3466-.4723-.4169-.442-.154-.5972-.4215-.5915-1.0194.0053-.5656.3734-1.032.9642-1.2214.2368-.0759.5538-.2692.7044-.4295.555-.5908 1.5732-.7534 3.945-.6301.9851.0512 1.2583.1163 2.057.4903.5067.2372 1.0712.4639 1.2547.5038.3653.0795.5367.1455 1.3707.5278.3076.141.711.2741.8965.296.1855.0217.3373.0498.3373.0623 0 .0125.0806.0415.1792.0644.0987.023.587.1487 1.0853.2796.4983.1309 1.156.2654 1.4614.299.3055.0336.5975.0871.6489.1189.1464.0905 2.6843.3088 4.3615.3752 1.1278.0446 1.7304.0123 2.3307-.1251.4453-.102 1.065-.2326 1.377-.2904.3122-.0578.6312-.1444.7091-.1925.078-.048.2858-.096.462-.1066.2536-.015.3086.0256.2642.1954-.0683.2613.0884.2394 1.4985-.2096 1.053-.3353 1.3396-.6118 1.3396-1.2926 0-.3662.188-1.228.4447-2.0395.104-.3287.21-.9473.2355-1.3746.0255-.4273.1191-1.1534.2081-1.6135.089-.4602.1675-1.0519.1744-1.3148.0203-.7724.1494-1.8815.2497-2.1457.0512-.1346.0971-.46.1022-.7229.005-.263.0663-.7736.1363-1.1347.0861-.4442.0878-.6697.0053-.6972-.067-.0223-.1225-.184-.1232-.3594-.0008-.1753-.0342-.5174-.0743-.7601l-.073-.4415-.4935.1872c-.4903.186-1.1765.5087-1.7484.822-.3099.1699-.484.2859-1.1101.7402-.2039.148-.415.269-.4693.269-.1847 0-1.0501.6-1.0501.7281 0 .0806.1373.0974.3735.0455.2623-.0576.3488-.042.2907.052-.099.16-.9524.6087-1.158.6087-.0795 0-.4985.1591-.931.3536-.4325.1944-1.4826.5243-2.3335.733-1.478.3624-1.59.3731-2.51.2406-.5296-.0763-1.205-.1596-1.5008-.185-.6264-.054-1.2045-.1824-1.3745-.3055-.0658-.0476-.2676-.122-.4484-.1651-.181-.0432-.686-.4022-1.1225-.7978-.4365-.3955-.852-.6997-.9235-.6758-.0715.0238-.185-.002-.2521-.0576a661.8748 661.8748 0 00-.4093-.3378c-.2732-.2252-.4048-.274-.558-.207-.0374.0164-.1214-.0654-.1865-.1818-.0652-.1164-.1668-.1818-.2258-.1453-.1432.0885-.5952-.2008-.5952-.3808 0-.0784-.1068-.1764-.2373-.2178-.4066-.1291-2.1531-1.6778-2.1531-1.9093 0-.0775-.2126-.3521-.4725-.6102-.2598-.258-.5058-.6037-.5467-.768-.0409-.1643-.1872-.4198-.3253-.5677-.138-.148-.2117-.269-.1637-.269.048 0 .0111-.1479-.082-.3287-.3575-.6931-.4582-1.2015-.4436-2.239.0165-1.1747.1934-1.5672.6559-1.455.3831.093 1.2979.4272 1.5256.5574.1142.0653.2636.1186.332.1186.0685 0 .513.1921.9877.427 1.1553.5713 2.0688.8687 2.783.9062.3247.017.6538.0772.7314.1336.0776.0564.3197.1073.5379.113.2182.006.5154.0875.6604.1818.145.0943.316.139.3802.0994.064-.0396.1533-.0125.1982.0602.0492.0796.239.1027.477.058.2175-.0408.4248-.0265.4608.0318.1064.172 1.17-.0513 2.181-.4579 1.5902-.6394 1.9916-.7566 2.6727-.7798.3616-.0123.8994-.0886 1.1952-.1695 1.2328-.3371 5.0106-1.6568 5.6775-1.9833.436-.2135.4813-.2799.5154-.755.0207-.2885-.0412-.6883-.1389-.8964-.097-.2065-.2718-.6698-.3885-1.0294-.1226-.378-.3792-.821-.608-1.0498-.2178-.2178-.3968-.4614-.3978-.5414-.0032-.2538-1.1389-1.4004-1.387-1.4004-.1302 0-.2878-.049-.3503-.1087-.336-.3216-2.2052-.6348-2.2052-.3694 0 .0657-.09.1195-.2002.1195-.11 0-.5946.1361-1.0766.3025-.7348.2536-.9198.2789-1.1445.1562-.1474-.0805-.5843-.1847-.971-.2316-.6478-.0785-.7666-.0533-1.5142.322-.4462.2239-.8669.407-.9348.407-.2345 0 1.1213-1.2554 1.5488-1.4342.2358-.0986.6392-.3513.8965-.5614.2572-.2102.6021-.488.7665-.6172.38-.299.2429-.4532-.201-.2259-.1853.095-.5924.3008-.9046.4574-.3123.1566-.5678.3204-.5678.364 0 .0937-.3052.2243-.6996.2996-.2567.049-.2462.0213.1195-.3153.2204-.203.616-.4661.879-.5849.2629-.1187.5722-.322.6873-.4519.177-.1996.1048-.1856-.4675.091-.3722.1799-.7497.299-.8389.2648-.2114-.081-.8088.1621-1.4344.5842-.6144.4144-.9485.445-.4566.0419.3182-.2608.331-.2944.1136-.2983-.1348-.002-.2962.0421-.3586.099-.199.1808-.9099.3834-.8167.2327.045-.0729.0962-.3128.1137-.533.0278-.3512-.0033-.4006-.253-.4006-.1566 0-.4685.1614-.6931.3586-.2246.1972-.4449.3586-.4894.3586-.0446 0-.3276.1882-.629.4183-.6052.4621-1.0823.5723-.8855.2044.063-.1176.2427-.2825.3995-.3664.1567-.0839.4162-.4044.5766-.7124.1605-.308.3844-.7004.4977-.8722.1133-.1718.1748-.3435.1367-.3816-.1406-.1406.4395-.7694.968-1.0493.2998-.1588.575-.3828.6117-.4979.0366-.115.1067-.2091.1557-.2091.1678 0 1.747-.993 2.0446-1.2856.1635-.1608.489-.3901.7235-.5097.2344-.1196.5847-.375.7785-.5676.1937-.1925.7287-.594 1.1889-.892.4601-.298 1.2938-.899 1.8526-1.3357.5588-.4367 1.2875-.979 1.6194-1.205.3752-.2556.8223-.7314 1.1824-1.2583.577-.8447.5784-.849.4258-1.349-.0843-.276-.143-.7826-.1306-1.1258.0125-.3433-.034-.73-.1032-.8593-.0826-.1544-.085-.2604-.0071-.3086.0653-.0404.1109-.2736.1013-.5183-.0096-.2447.0466-.5646.1248-.7108.275-.5137.6063-.6187 2.09-.6624 1.2816-.0377 1.4542-.0168 1.9562.2373.3028.1534.7163.279.9188.2793.2086 0 .6013.1555.906.358.2959.1967.6255.3579.7324.3581.107 0 .2641.0843.3491.1867.085.1024.3202.2623.5226.3553.6921.3178 2.2799 1.4956 2.8781 2.135.3287.3513.7187.7015.8666.7782.1479.0767.2689.2181.2689.3142 0 .0961.1935.3889.4299.6506.5559.6153.8411 1.1807 1.1172 2.2141.1229.4602.275.9712.3378 1.1355.063.1644.152.7383.1979 1.2755.0728.8523.0504 1.0533-.176 1.5797-.1604.3728-.3573.6338-.5154.6834-.1408.0441-.542.3725-.8916.7296-.3496.357-.8377.7934-1.0846.9695a59.295 59.295 0 00-.9659.7087c-.3045.2288-.6587.3884-.8616.3884-.1894 0-.5444.0846-.7888.188-.2444.1034-.7133.2107-1.042.2384-.6187.0522-1.255.257-1.255.404 0 .1663.5825.6273.7005.5544.2432-.1503 1.2716.1892 1.7449.576.3697.3022.631.4088 1.1143.4548.3733.0355.7398.1526.8965.2864.3448.2945 1.0475.6927 1.4357.8136.118.0367.291.2495.3842.4728.1123.2685.2771.433.4872.4856.1746.0438.3955.1578.4909.2531.2215.2216 1.1163.2248 2.0291.007.3833-.0913 1.2617-.2576 1.952-.3696.6902-.112 1.5239-.2557 1.8526-.3193.3287-.0636.9741-.165 1.4343-.2255 1.5709-.2063 2.8033-.4532 3.1663-.6342.3773-.1883 1.1708-.3166 2.3554-.381.3814-.0207 1.2314-.1011 1.8888-.1787s1.7215-.1355 2.3647-.1287c.7936.008 1.3073-.0453 1.5983-.1669.2359-.0985.604-.1792.818-.1792.3976 0 .7344-.2567.607-.4628-.039-.0631-.0796-.9126-.0901-1.8878-.0106-.975-.0605-1.857-.1108-1.9596-.0946-.1926-.2726-2.1024-.2433-2.6092.0091-.1572-.0465-.5068-.1235-.7769-.077-.27-.1296-.5725-.1168-.6721.0407-.3176-.851-1.16-1.7154-1.6206-.4602-.2453-.9324-.5447-1.0493-.6655-.117-.1208-.366-.2989-.5533-.3957-.1873-.097-.3745-.2645-.4159-.3724-.0861-.2244.1406-1.12.3348-1.3227.0714-.0745.6147-.2151 1.2073-.3123.5926-.0972 1.3155-.2918 1.6064-.4323.3809-.184.553-.2169.6146-.1173.0646.1046.2122.1037.6047-.004.2856-.0782.6537-.1345.818-.125.1644.01.591-.0428.948-.1164.5943-.1225 2.339-.0176 2.6225.1576.049.0303.4087.0674.7993.0824 1.0316.0397 2.5627.5206 2.5627.805 0 .046.1873.1845.4161.3077.4843.2608.6734.5214 1.2647 1.7427.3772.779.51 1.2408.7905 2.749.1715.9223.3612 3.928.3318 5.2561-.023 1.0371.0113 1.5978.1053 1.7206.1718.2244 1.0194.283 5.3985.3735 1.775.0367 3.4154.092 3.6455.1227 1.6748.2242 5.0843.4124 6.084.3358.631-.0483 1.322-.0806 1.5357-.0717.4642.0193.4708.0192 2.0618-.0245.6902-.0189 1.3626.007 1.494.0572.1315.0504.4811.1552.777.233.2958.0776.7123.1947.9256.26.2132.0655.4381.0879.4997.0498.0616-.038.1457-.0145.187.0523s.3812.1238.7553.1267c.3741.003.8954.0828 1.1583.1775.263.0947.6502.173.8606.174.2104.001.4256.0744.4781.163.0526.0888.35.1952.6607.2365.3108.0413.6605.1222.777.1797.1164.0575.4171.2036.6682.3247.251.121.5084.3173.572.436.0634.1186.216.2157.339.2157.4632 0 1.2006.5135 1.406.9792.1105.2503.2393.4551.2862.4551.1874 0 .9142 1.1751 1.0012 1.6188.051.26.084.8225.0733 1.2498-.0165.661-.0633.8162-.3138 1.0401-.162.1448-.2944.2985-.2944.3417 0 .1243-1.2186 1.2912-1.6047 1.5366-.524.333-2.0307.6855-3.1763.7429-1.1695.0586-1.4252.0895-1.6733.2018-.3826.1733-1.0392.175-1.5525.004-.2951-.0982-.6985-.1932-.8964-.2112-.5914-.0536-1.2356-.3365-1.2965-.5694-.0363-.139-.1673-.2181-.361-.2181-.1673 0-.3504-.0826-.4069-.1835-.147-.2627-.7421-.3918-1.1836-.257-.3149.0963-.4324.0729-.7034-.1403-.179-.1407-.3863-.2559-.4607-.2559-.0745 0-.3324-.1338-.573-.2973-.4372-.297-1.4302-.6884-1.613-.6356-.1869.054-2.369-.2962-2.4811-.3982-.0624-.0568-.361-.1032-.6634-.1032s-.6083-.0585-.6798-.1299c-.09-.09-.1537-.0914-.2074-.005-.0488.079-.178.0872-.3493.022-.3223-.1225-2.2302-.3776-3.2457-.434-.3944-.0219-.9591-.0722-1.255-.1118-.2958-.0396-.6185-.0682-.7171-.0637-.0986.005-.3138.003-.4781-.004-.1644-.007-.3795-.0105-.4781-.008-.0986.002-.8247.008-1.6136.0125-1.8801.011-2.1334.0809-2.2134.6104-.0697.461.3911 3.4265.5903 3.7988.071.1326.1314.527.1343.8765.003.3494.0828.8505.1775 1.1134.0947.263.173.594.174.7355.002.2622.2629 1.5871.7145 3.6272.1383.6245.3252 1.485.4153 1.9123.2841 1.3469.9537 3.8139 1.2328 4.542.0378.0986.1626.5213.2774.9393.1147.418.2592.8106.321.8724.1379.1379 2.0537-1.7311 3.0824-3.007 1.3252-1.6436 2.5642-3.688 2.5642-4.2311 0-.1117-.0895-.3753-.199-.5857-.1094-.2104-.2098-.5977-.223-.8606-.0406-.808-.2606-2.2977-.364-2.465-.1652-.2672-.2792-1.4317-.1687-1.7224.1303-.3426.3244-.404 1.5698-.4974 1.5964-.1196 2.3703-.0629 2.7833.204.2016.1303.5903.345.8638.4771.794.3837 1.736 1.0588 2.026 1.4518.4582.621 1.1252 1.2969 1.2798 1.2969.0814 0 .24.1075.3526.239.1126.1315.279.239.3697.239.2057 0 1.8067 1.61 1.809 1.8191.001.0842.072.277.1581.4285.0861.1515.1704.3935.1875.5379.017.1443.0715.4035.121.576.0879.306-.1629 1.4132-.386 1.7038-.0565.0737-.1729.403-.2585.7317-.3425 1.3144-1.2038 3.0183-2.003 3.9623-.345.4077-.6274.826-.6274.9294 0 .1034-.0416.188-.0925.188-.051 0-.4366.4707-.857 1.046-.4204.5751-.8864 1.1802-1.0355 1.3446-.1491.1643-.522.5946-.8285.9562-.5433.6408-2.0868 2.2537-2.4456 2.5556-.0986.083-.4068.33-.685.5489-.278.2189-.5372.4974-.5757.6189-.0386.1215-.1358.2209-.216.2209-.1983 0-1.631 1.3493-1.631 1.536 0 .1707.3495.8843.477.974.0467.0329.1553.1932.2413.3563.086.163.2824.3956.4363.5166.1539.121.2798.2986.2798.3945 0 .0959.0807.2053.1793.2432.0986.0378.1793.131.1793.2069 0 .076.3092.4618.6872.8574.7733.8092.926.9905 1.758 2.0865.3243.4273.8212 1.0517 1.1041 1.3874.283.3358.5145.672.5145.747 0 .0752.0672.1366.1494.1366.0822 0 .3817.2699.6657.5996.286.332.574.5637.646.5193.0755-.0467.0954-.0248.0476.0526-.11.178.3608.7042.7077.7913.1527.0383.3118.1771.3535.3085.0417.1313.1523.2387.246.2387.0936 0 .2374.1076.3195.239.082.1316.1936.2391.2479.2391.0542 0 .404.2959.7773.6574.3732.3616.7193.6574.769.6574.0497 0 .0904.0713.0904.1584 0 .1924.498.6783.695.6783.078 0 .1417.1062.1417.236 0 .1397.142.3093.348.4159.1914.099.455.3159.5857.482.1513.1924.307.2754.4288.2287.108-.0414.1913-.0127.1913.0659 0 .0784-.0654.1011-.1494.052-.0822-.048-.0502.0258.071.1641.1303.1487.2972.2221.408.1796.1184-.0454.1578-.0235.1066.0592-.0453.0733.0251.1649.1597.2076.1385.0439.2408.1808.2408.322 0 .2048.0298.221.1793.0968.0986-.0818.1801-.1018.1811-.0445.001.0574.0531.0236.1159-.075.1384-.2177.136-1.577-.003-1.4912-.0541.0334-.1323.006-.1736-.0607-.0413-.0668-.0206-.1214.046-.1214.161 0 .4045-.8844.2571-.934-.0613-.0208-.082-.1146-.046-.2086.0361-.094.111-.1428.1666-.1084.1047.0647.352-.3105.352-.534 0-.07-.0756-.1274-.168-.1274-.1073 0-.1463-.0836-.1078-.2308.0395-.1511.1253-.2058.2486-.1586.1349.0518.1681.0197.1172-.1129-.039-.1018-.002-.3188.083-.4821.1003-.1934.1158-.3653.0444-.493-.0809-.1445-.061-.196.0755-.196.1019 0 .1852-.0596.1852-.1325 0-.0783.1117-.1044.2728-.064.1948.049.3168-.002.4271-.1788.085-.136.1052-.2168.045-.1796-.1657.1024-.0203-2.2322.209-3.356.0833-.4089.123-.8526.0882-.986-.0743-.284.123-.4607.223-.1997.0873.2272.1485.5517.1602.8476.0124.3152.2164.0923.268-.2929.0305-.2284.1103-.2988.3387-.2988.2623 0 .3125.071.4107.5797.0764.396.066.8478-.033 1.4252-.0992.5782-.1062.8842-.0224.968.0675.0676.1227.3524.1227.633 0 .3838.0407.4946.1644.4471.1109-.0426.17.0364.1818.2428.01.1683.021.3731.0254.4553.004.0822-.0468.3242-.1137.5379-.067.2136-.0752.3884-.0185.3884.175 0 .2842-.5005.2998-1.3745.008-.4602.055-.9566.1038-1.1032.0488-.1466.0355-.3617-.0296-.478-.0853-.1525-.0689-.2662.0588-.4073.0975-.1077.2014-.4543.231-.7702.0296-.316.121-.6158.2028-.6665.1564-.0966.1686-.1383.1957-.6685.0117-.2296.0473-.2805.1181-.1687.1136.179.0805 1.728-.041 1.9247-.043.0695-.0212.1265.0484.1265s.1266.0807.1266.1793.0526.1793.117.1793c.0716 0 .0648.1145-.0175.295-.074.1623-.1804.2667-.2365.232-.0561-.0347-.102.0445-.102.176s.0492.2695.1094.3067c.1574.0972.74-.1466.9244-.387.1375-.1792.172-.1823.2793-.0251.188.2753.095.6601-.1547.6396-.183-.015-.2024.0398-.1277.3586.0486.207.1043.5915.1238.8544.0195.263.0608.6664.0918.8964.031.2301.0905 1.009.132 1.7308.0418.7218.1066 1.3621.1442 1.4229.0375.0607.006.072-.0697.0252-.0938-.058-.1375.0414-.1362.3102.001.3001.0299.3523.1183.2162.0892-.1373.1107-.1023.0916.1494-.0137.1808-.073.3287-.132.3287-.059 0-.0165.1384.0944.3076.1257.192.2015.5487.2015.9487 0 .3923.0626.693.1614.775.1298.1077.1473.08.0894-.142-.0642-.246-.0525-.2562.1087-.0952.0994.0993.2178.3278.263.508.0544.2166.161.3275.3148.3275.1279 0 .2882.104.3562.2311.1536.287.1608.4906.009.2504-.0612-.0967-.1486-.1383-.1944-.0925-.0458.0458-.0172.163.0635.2602.0808.0973.113.2316.0719.2982-.0412.0667.006.2773.1043.4679.1984.3838 1.141.8956 1.439.7813.118-.0453.1844-.003.1844.1171 0 .2781.502.5292 1.2033.6016.1688.0174.384.0813.4781.142.0941.0605.2777.11.408.11.1303 0 .2552.094.2776.2088.029.1483-.0137.1879-.1472.1366-.2203-.0846-.2275-.0466-.0698.3683.0923.2427.0793.3258-.059.3789-.0976.0374-.147.117-.11.177.037.0599.1174.078.1786.0402.1555-.0961.1394.1084-.021.2689-.1576.1575.1923.3876.539.3545.3314-.0316.5347.3522.288.5438-.108.084-.215.2596-.2378.3903-.0502.2886-.457.4031-.457.1287 0-.1609-.0397-.1666-.2665-.0386-.3081.1739-.5616.4561-.5645.6285-.001.0657.0502.0388.114-.0598.074-.1147.1164-.1266.1176-.0328.001.1077.0828.1156.3084.0299.4934-.1876.6762-.1496.5899.1225-.06.189-.0215.239.184.239.1717 0 .2384-.0559.1967-.1647-.0348-.0906-.005-.2228.0658-.2937.0923-.0923.09-.1761-.008-.2945-.177-.2132-.0326-.3626.18-.1862.0993.0825.3693.106.6982.061.295-.0404.5362-.0273.5362.029 0 .1544-.3095.3802-.3987.291-.043-.0428-.195.0248-.3383.1505-.1431.1256-.2247.1672-.1813.0925.0435-.0747-.0145-.2074-.1289-.295-.1143-.0873-.1683-.1122-.12-.0551.0483.057-.005.1725-.1195.2564-.1966.1448-.1965.157.002.2338.2712.1052.276.5336.006.5336-.1619 0-.173.0302-.0548.1484.1182.1182.169.1151.2495-.0153.0557-.09.153-.1317.2161-.0927.0632.039.2337-.0656.3789-.2326.2168-.2494.2958-.2772.442-.1559.1383.1148.1447.1683.0287.24-.0821.0509-.1923.0659-.2447.0335s-.0953-.008-.0953.0537c0 .0619.1075.1407.239.175.1348.0354.239.004.239-.0723 0-.0742.0838-.0154.1861.1307.1024.1461.2637.2657.3586.2657.217 0 .2184-.1203.005-.4246-.2021-.2886-.246-.619-.1302-.9799.1-.3118.2109-.3379.411-.0967.0786.0947.2242.141.3235.103.1476-.0567.1515-.0898.0211-.1813-.1268-.089-.1227-.102.02-.063.2239.061.2428.3292.0405.5728-.1282.1544-.1146.219.0821.3873.1298.1111.236.148.236.082 0-.0678.1562-.0926.3585-.057.2043.036.3586.011.3586-.058a.1207.1207 0 01.1195-.1212c-3.83 2.3905-17.5241 1.902-17.6254 2.1972zm15.3103-.0228c-.0539-.0859-.0635-.294-.0212-.4626.0701-.2793.0505-.2999-.2205-.2318-.1635.041-.3307.0206-.3715-.0453-.1217-.197-.6503-.1362-.9086.1045-.2395.2231-.2385.2249.1722.302.3908.0732.4121.1023.3953.54-.7375 1.9476 1.6426 2.268.9543-.2068zm-.5652.3593s-.389-.1524 0 0zm-.2275-.6086c0-.1344.311-.2597.4067-.164.1438.144.0654.2707-.1676.2707-.1315 0-.239-.048-.239-.1067zm3.1069 1.0029c.5937-.0194-.1267-.417-.1717-.4291-.0408.066-.1532.0898-.2497.0528-.7738 1.237.3341.3913.4213.3763zm-3.829-.5375c-.0544 0-.2504.0597-.4355.1326-.5353.2644 1.0439.6626.4355-.1326zm2.8884.088c-.118-.1171-.1318-.1034-.067.067.1713.261.1455.0926.067-.067zm-9.6963-.2141c0-.062-.0807-.1125-.1793-.1125-.1848 0-.2375.141-.1028.2756.0955.0955.282-.0124.282-.1631zm1.0757.007c0-.1315-.0488-.239-.1083-.239-.0596 0-.0802.1075-.0458.239.0344.1314.083.239.1083.239.0252 0 .0458-.1075.0458-.239zm2.7252.0956c.2274-.2275.1672-.3376-.1255-.2294-.148.0547-.3362.0757-.4184.0468-.1577-.0555-.2049.1111-.0697.2463.1269.1268.4573.0925.6136-.0637zm2.255-.4464c-.1135-.14-.1006-.1575.0697-.0937.353.1323.2362-.1639-.2543-.6447-.4238-.4154-.6123-.477-.6123-.2 0 .058.1423.2372.3163.3984.2524.234.2748.2932.111.2932-.1872 0-.1886.0167-.0164.1889.1919.1919.143.4696-.0606.3438-.0612-.0378-.1113-.0158-.1113.0491 0 .1995.4101.2145.5578.0205.1064-.1397.1064-.2242 0-.3554zm-11.315.3507c0-.0657-.1076-.1195-.239-.1195-.1315 0-.239.0538-.239.1195s.1075.1196.239.1196c.1314 0 .239-.0538.239-.1196zm3.526 0c.0406-.0657.0169-.1195-.0527-.1195s-.1266.0538-.1266.1195.0237.1196.0527.1196c.029 0 .086-.0538.1266-.1196zm-3.0479-.1195a.12.12 0 00-.1195-.1195.12.12 0 00-.1195.1195.12.12 0 00.1195.1195.12.12 0 00.1195-.1195zm9.9205-.0882c0-.0923-.0712-.2391-.1583-.3262-.1314-.1314-.184-.117-.3098.0843-.1111.178-.1154.265-.0163.3262.2251.1391.4844.094.4844-.0843zm-.784-.316c-.0581-.2315-.155-.3129-.373-.3129-.2616 0-.2744.02-.115.1793.0985.0986.2369.1793.3073.1793.0704 0 .128.0896.128.1992 0 .1096.0296.1697.0657.1337.036-.0361.0302-.2064-.013-.3785zm5.0595.2451l.2715-.1507-.3502-.259c-.2875-.2125-.374-.2301-.4831-.0986-.103.1242-.072.1798.1385.2472.2289.0734.2387.0958.0623.1429-.2387.0637-.2859.2796-.0598.2732.0822-.002.2715-.0722.4208-.155zm1.1031-.4454c0-.1354-.0538-.2129-.1195-.1723s-.1195.1514-.1195.2461.0538.1723.1195.1723.1195-.1108.1195-.2461zm-4.113-.6797c-.1285-.1285-.1968.0515-.1066.2811.0847.2154.091.2158.133.008.0241-.1201.0122-.2501-.0265-.2888zm3.7544-.1774c0-.0777.0538-.0807.1494-.008.5492.2851.7894-.056.2282-.264-.0884.034-.2902.0943-.4484.134-.1583.0397-.2877.1453-.2877.2347 0 .0954.074.1342.1793.0938.0986-.0378.1792-.1234.1792-.1901zm-5.7768-.1114c-.0372-.1421-.0146-.3573.05-.4781.0957-.1789.0736-.2198-.1186-.2198-.2706 0-.4835.261-.2707.3319.0778.0259.1095.0987.0706.1617-.039.063-.006.1929.0737.2886.2042.246.2735.216.195-.0843zm2.0716-.0404a.1798.1798 0 00-.1793-.1793c-.1866 0-.2371.1413-.0996.2789.1375.1375.2789.087.2789-.0996zm-1.7127-.2585c-.0353-.0353-.1274-.0253-.2045.0224-.104.0643-.0983.1127.0219.1874.1594.099.3139-.0785.1826-.2098zm.5174.1987c0-.0657-.0506-.1195-.1124-.1195s-.1457.0538-.1864.1195c-.0406.0657.01.1195.1125.1195.1025 0 .1863-.0538.1863-.1195zm-14.0819-.2654c-.0858-.0858-.1414-.0928-.1414-.0179 0 .1596.1413.301.221.2212.034-.034-.002-.1254-.0796-.2032zm13.7616-.6676c.0343.0856.0666.014.0718-.159.0111-.372-.377-.5368-.6415-.2723-.194.194-.3549.2262-.2455.0491.0406-.0657.0232-.1195-.0388-.1195-.0619 0-.1383.1345-.1697.2988-.0628.3288.0207.3783.2518.1494.1209-.1197.1765-.1039.28.0796.121.2146.1385.216.2793.0235.1135-.1553.1654-.1674.2126-.0497zm-.767-.7866c.1059-.1275.0956-.1813-.045-.2353-.1254-.048-.1824.004-.1824.1654 0 .2786.0433.2919.2275.07zm-14.8698-.672c-.1193-.1319-.2486-.2081-.2873-.1695-.0386.0387.0341.1465.1616.2398.3275.2394.3796.2103.1257-.0703zm-1.4478-.5434c.0408-.1063.0208-.1543-.047-.1124-.065.0402-.1181.1236-.1181.1855 0 .1719.0857.134.1651-.073zm-1.2004-1.3683c-.1862-.1972-.3464-.3586-.3561-.3586-.01 0-.01.1293 0 .2873.009.158.0467.2692.0827.247.036-.0222.1436.009.239.0694.3486.2204.365.1047.0348-.2451zm-57.5316-.5304c0-.029-.0538-.086-.1195-.1266-.0658-.0406-.1196-.0169-.1196.0527s.0538.1266.1196.1266c.0657 0 .1195-.0237.1195-.0527zm4.3029-.0668c0-.0657-.0237-.1195-.0527-.1195-.029 0-.086.0538-.1266.1195s-.017.1195.0527.1195c.0696 0 .1266-.0538.1266-.1195zm.5976-.6085c0-.0556-.0807-.0702-.1793-.0323-.0986.0378-.1793.1503-.1793.2499 0 .1475.0334.1535.1793.0324.0986-.0818.1793-.1943.1793-.25zm51.0045-.0613c-.0397-.0397-.1428-.044-.2291-.009-.0953.038-.067.0665.0722.0722.126.005.1966-.0231.1569-.0628zm-.3983-.147c.034-.0547-.0144-.0995-.1072-.0995-.0928 0-.141.0448-.1072.0996.0339.0548.082.0996.1072.0996.0251 0 .0733-.0448.1072-.0996zm-60.4072-2.6423c0-.2035-.178-.2278-.4126-.0562-.2196.1606-.2153.1686.091.1686.1769 0 .3216-.0506.3216-.1124zm56.2291-.7802c-.3001-.227-.4212-.2284-.335-.004.0378.0986.181.1793.318.1793.2446 0 .245-.003.017-.1755zm-58.3805-1.6174c0-.0657-.057-.1195-.1266-.1195s-.0934.0538-.0527.1195c.0406.0657.0976.1195.1266.1195.029 0 .0527-.0538.0527-.1195zm38.0087-5.02c0-.0657-.0237-.1195-.0527-.1195-.029 0-.086.0538-.1266.1195s-.017.1195.0527.1195c.0696 0 .1266-.0538.1266-.1195zm5.7496-11.7485c-.1534-.1535-.309-.0348-.1954.1489.044.0712.1347.0956.2016.0542.0816-.0505.0796-.1173-.006-.2032zm-47.9693-35.868c.5376-.3662.6862-.5445.2368-.284-.7601.4406-1.0444.6376-1.0451.7242-.0008.1038.0526.0747.8083-.4402zm92.2483 62.6415c.0449-.1178.1117-.1842.1485-.1474s0 .1333-.0816.2143c-.118.1172-.1318.1035-.0669-.0669zm-76.0251-.8015c-.1315-.0565-.1763-.1065-.0995-.1111.0768-.005.2178-.0384.3133-.075.0955-.0367.2058.0171.245.1195.0786.2046-.0831.2281-.4588.0666zm73.0344-.231c-.0378-.0612-.0141-.145.0527-.1863s.1215.009.1215.1112c0 .21-.0717.2409-.1742.0751zm.5876-.0162c-.0433-.07-.0488-.1574-.0122-.194.0983-.0983.4355.0552.4355.1982 0 .1622-.3224.159-.4233-.004zm1.5864-.008c-.1149-.0643-.2622-.0839-.3274-.0436-.0652.0403-.1186.003-.1186-.0832 0-.1576.7466-.2266.891-.0823.148.1482-.2335.3274-.445.209zm-75.2682-1.1124c0-.2764.206-.3256.274-.0655.0403.154.003.2377-.106.2377-.0924 0-.168-.0775-.168-.1722zm-15.2115-.2012c.0811-.0817.1776-.1184.2144-.0816-.0462.0609-.139.0687-.2144.0816zm14.9334-.3926c-.0672-.1753.0103-.3098.1785-.3098.1335 0 .1276.3271-.0074.4106-.0589.0364-.1358-.009-.171-.1008zm-11.6743-.1304c0-.0986.052-.1793.1157-.1793s.0848.0807.047.1793-.09.1793-.1158.1793c-.0258 0-.047-.0807-.047-.1793zm.8366-.0567c-.1377-.0914-.0893-.1194.2092-.1208.3066-.001.3885-.0516.3885-.2381 0-.2815-.5206-.6555-.776-.5575-.1299.0498-.1802-.0113-.1802-.2189 0-.3745.236-.5189.3204-.196.036.1374.1069.224.1577.1927.0508-.0314.1589.023.2401.1209.0812.0979.2218.178.3124.178.0905 0 .1646.1075.1646.239 0 .276.2027.325.2602.0629.0257-.1173.0937-.1417.2033-.0731.214.1338.0665.3688-.2315.3688-.1276 0-.2185.0672-.2021.1494.0373.1867-.619.257-.8666.0927zm-6.6933-.1226a.12.12 0 01.1195-.1196.1199.1199 0 01.1195.1196.1199.1199 0 01-.1195.1195.1199.1199 0 01-.1195-.1195zm2.3905 0c0-.0657.057-.1196.1265-.1196.0697 0 .0934.0538.0527.1196-.0406.0657-.0975.1195-.1265.1195-.029 0-.0527-.0538-.0527-.1195zm1.6733-.002c-.1575-.1035-.158-.1315-.0032-.231.1174-.0754.2064-.0654.2671.03.1987.3126.0633.4158-.264.201zm-.8367-.1931c0-.1177.4994-.522.6446-.522.0714 0-.0151.1344-.1924.2988-.3237.3001-.4522.3635-.4522.2231zm1.412-.1256c.0862-.0346.1893-.0304.229.009.0397.0397-.0309.068-.1569.0628-.1392-.006-.1675-.0342-.0722-.0723zm3.7745-.4665c.04-.104.0726-.2115.0726-.239 0-.0275.0811-.05.1803-.05.1504 0 .1555.0397.031.239-.1772.2837-.3878.3208-.2839.05zm10.4931.0436c-.2118-.2118-.1705-.4522.0777-.4522.1445 0 .2131.0805.2016.2367-.0235.3189-.1095.3853-.2793.2155zm50.0577-.2742c-.1201-.1447-.1128-.178.0391-.178.2231 0 .369.195.2165.2893-.0593.0367-.1744-.0134-.2556-.1113zm22.4717-.0444c0-.0657.0538-.1527.1195-.1934.0657-.0406.1195-.02.1195.0457s-.0538.1528-.1195.1934-.1195.0201-.1195-.0457zm2.0319-.014c0-.0658.0807-.1196.1793-.1196s.1792.0538.1792.1195-.0807.1195-.1792.1195c-.0986 0-.1793-.0538-.1793-.1195zm-4.174-.3088c.006-.1393.0341-.1676.0722-.0722.0345.0863.0303.1893-.009.229-.0397.0397-.068-.0309-.0628-.1568zm.3492.0697a.12.12 0 01.1195-.1196.12.12 0 01.1195.1196.12.12 0 01-.1195.1195.12.12 0 01-.1195-.1195zm-70.887-.0294c-.1088-.3553-.0708-.4517.1503-.3816.2025.0643.2283.0366.1616-.1736-.0618-.1947-.038-.2342.1077-.1783.103.0395.1871.1198.1871.1786 0 .1764-.5646.6927-.6068.5549zm47.8394-.8845c-.1757-.2202-.4135-.4004-.5286-.4004-.115 0-.2092-.0538-.2092-.1195s.0006-.1599.001-.2092c.003-.1775.4249-.0894.811.1692.2167.1451.5529.3342.747.4202.3193.1413.4866.4388.2635.4683-.6711.0887-.7777.0564-1.085-.3286zm23.0476.2148c0-.081.1079-.2629.2397-.4044.1858-.1994.2718-.2252.3825-.1145.106.106.107.1428.004.1428-.0763 0-.2485.1177-.3825.2615-.134.144-.2437.1955-.2437.1146zm-71.1151-.399c-.001-.1112.052-.2354.1177-.276.1512-.0935.1512.0647 0 .2988-.0999.1545-.1162.1514-.1177-.0228zm67.6165.07c-.0479-.0478-.0872-.1695-.0872-.2703 0-.1346.0354-.148.133-.0503.073.073.1123.1948.0872.2704-.0252.0756-.085.0982-.133.0503zm3.2595-.0472c0-.0657.057-.1195.1266-.1195s.0933.0538.0527.1195-.0976.1195-.1266.1195c-.029 0-.0527-.0538-.0527-.1195zm-83.9559-.223c-.0514-.0832-.0613-.1837-.0218-.2231.107-.107.2236.0504.1658.2237-.0405.1214-.0686.1213-.144 0zm13.4366-.023c0-.0696.0538-.0933.1195-.0527.0658.0406.1196.0976.1196.1266 0 .029-.0538.0527-.1196.0527-.0657 0-.1195-.057-.1195-.1266zm-.8367-.239c0-.0696.0538-.0933.1196-.0527.0657.0406.1195.0976.1195.1265 0 .029-.0538.0527-.1195.0527-.0658 0-.1196-.057-.1196-.1265zm-10.6376-.3076c0-.0791-.0327-.229-.0726-.333-.0515-.1343-.002-.189.1713-.189.1438 0 .2769.1044.3246.2548.0636.2002.1033.2194.1855.0897.0576-.0908.1047-.1114.1047-.0457 0 .2264-.1763.3732-.4446.3702-.1479-.002-.269-.0678-.269-.147zm85.9977-.044c-.0406-.0656.01-.1195.1125-.1195.1024 0 .1863.0538.1863.1196 0 .0657-.0506.1195-.1125.1195-.0619 0-.1457-.0538-.1863-.1195zm-73.9258-.1722c0-.1024.0538-.1863.1196-.1863.0657 0 .1195.0506.1195.1125 0 .0619-.0538.1457-.1195.1863-.0658.0406-.1196-.01-.1196-.1125zm69.9815-.1863c.0406-.0657.1245-.1195.1863-.1195.062 0 .1125.0538.1125.1195s-.0839.1196-.1863.1196c-.1025 0-.1531-.0538-.1125-.1195zm-12.0642-3.4537c-.0364-.0589.009-.1358.1008-.171.1752-.0673.3098.0103.3098.1784 0 .1335-.3272.1276-.4106-.007zm-.426-.5407c0-.1041.0851-.1893.1891-.1893.2111 0 .1744.2573-.0473.3312-.078.026-.1419-.0378-.1419-.142zm-73.149-.8989c0-.0619.0538-.1457.1196-.1863.0657-.0406.1195.01.1195.1125 0 .1024-.0538.1863-.1195.1863-.0658 0-.1195-.0506-.1195-.1125zm73.866-2.166c0-.0697.0539-.0934.1196-.0528s.1195.0976.1195.1266c0 .029-.0538.0527-.1195.0527s-.1195-.057-.1195-.1266zm1.0032-1.2383c-.079-.206.2949-.811.4442-.7187.0585.0362.1065.1675.1065.2918s.094.2851.2091.3572c.1832.1149.177.1225-.0497.0608-.1424-.0387-.2934-.0144-.3357.054-.1093.1768-.298.154-.3744-.0452zm-7.6965-.4317c0-.0637.0807-.1158.1793-.1158s.1793.0212.1793.047-.0807.078-.1793.1158-.1793.0167-.1793-.047zm-34.565-.1974c.0863-.0345.1894-.0303.2292.009.0397.0397-.031.068-.157.0628-.1392-.006-.1675-.0341-.0721-.0722zm42.5211-.8841c-.0495-.1404-.036-.7001.0394-1.6407.007-.086.064-.1246.127-.0857.1118.069.131.2355.1366 1.185.003.4913-.1955.8458-.303.5413zm-50.5964-.0748c-.2456-.0901-.1688-.307.0853-.2405.129.0337.2921-.008.3624-.0927.0704-.0847.2328-.1814.361-.215.1975-.0517.2145-.0263.1113.1664-.0669.125-.2165.2273-.3325.2273-.116 0-.262.0471-.3245.1046-.0625.0575-.1808.08-.263.0498zm-1.4044-.3935c-.0406-.0657-.017-.1195.0527-.1195.0696 0 .1266.0538.1266.1195s-.0237.1195-.0527.1195c-.029 0-.086-.0538-.1266-.1195zm4.5793-.5597c.0863-.0345.1893-.0303.229.009.0398.0397-.0308.068-.1568.0628-.1393-.006-.1676-.0341-.0722-.0722zm-2.9657-1.1248c0-.072.1075-.1589.239-.1933.1315-.0344.239-.11.239-.168 0-.0582.106-.1057.2354-.1057.16 0 .2133.0573.1665.1793-.0379.0986-.1675.1793-.288.1793-.1206 0-.2525.0538-.2931.1195-.0989.16-.2988.1525-.2988-.0112zm50.441-.4968c.002-.317.1797-.638.2711-.4902.0921.149-.0424.7591-.1673.7591-.058 0-.1048-.121-.1038-.2689zm-48.9358-.0586c-.2387-.2386.6916-.8481 1.0718-.7022.157.0603.131.1227-.1473.3532-.3445.2854-.8118.4618-.9245.349zm4.1124-.0289c.1306-.086.1368-.1185.0228-.1199-.086-.001-.1233-.0553-.083-.1207.1319-.2132.4875-.345.6538-.2422.1321.0817.1223.1404-.0529.3155-.1183.1184-.3287.231-.4676.2503-.203.0282-.2173.012-.073-.083zm-1.016-.3607c-.0406-.0657-.0168-.1196.0528-.1196s.1266.0538.1266.1196c0 .0657-.0238.1195-.0528.1195-.029 0-.086-.0538-.1265-.1195zm-4.7211-.2305c0-.096.5335-.3671.7227-.3671.2097 0 .1168.3584-.0952.3677a3.506 3.506 0 00-.4184.0492c-.115.022-.2091 0-.2091-.0497zm4.2945-.3174c-.0759-.0914-.11-.2392-.0757-.3285.0662-.1724 1.1203-.5177 1.2339-.4041.1684.1685-.1223.546-.5499.714-.4005.1573-.4909.16-.6083.0185zm47.8925.0936c-.0535-.0866-.194-.1215-.3236-.0804-.1822.0578-.229.014-.229-.2143 0-.3485.1124-.4806.2879-.3386.0718.058.2143.1248.3168.1483.1331.0305.1658.1278.1144.3404-.0504.2084-.1002.2517-.1665.1445zm-51.168-.1384c-.043-.0694.0084-.1593.114-.1999.263-.1009.3448.01.1355.1837-.1178.0978-.196.1028-.2495.0162zm.9424-.3808c-.1458-.236.6165-.552.9879-.4096.1732.0665.1773.099.0301.2368-.2326.2176-.9183.334-1.018.1728zm3.716.0173c-.0407-.0657.0073-.1195.1065-.1195s.2298-.0882.2901-.196c.0628-.1123.1709-.1584.2528-.1077.1057.0653.0893.1477-.0626.3155-.2252.249-.4716.2941-.5868.1077zm2.4502-.1195a.1199.1199 0 01.1195-.1195.1199.1199 0 01.1196.1195.1199.1199 0 01-.1196.1195.1199.1199 0 01-.1195-.1195zm1.0757-.4184c0-.0986.0986-.1793.2191-.1793.1206 0 .2192.0807.2192.1793s-.0986.1793-.2192.1793c-.1205 0-.219-.0807-.219-.1793zm-5.6608-.1195c.0378-.0986.1323-.1793.21-.1793.0777 0 .3522-.1076.61-.239.4845-.247 1.255-.3247 1.255-.1266 0 .1743-.234.2854-1.0756.5103-.9605.2566-1.0863.261-.9994.0346zm3.1519.0519c-.0016-.1012.9108-.5942.977-.528.0315.0315.4523-.077.935-.2413.9355-.3182 1.314-.3705 1.314-.1818 0 .1434-.4338.4254-.8366.5439-.1643.0483-.4387.1863-.6097.3067-.2324.1636-.496.2124-1.0447.1935-.4037-.014-.7344-.0558-.735-.093zm3.3456-.9574c0-.1486.112-.2502.3287-.2982.1808-.04.5067-.127.7243-.1932.2175-.0662.4715-.1315.5642-.1452.0928-.0136.2062-.0622.2519-.1079.0457-.0457.2374-.083.426-.083s.4754-.087.6374-.193c.2648-.1736.2946-.1742.2946-.006 0 .1028-.094.2418-.2091.3088-.115.067-.165.1235-.111.1255.2325.009-.3322.4074-.6187.437-.1739.018-.5313.0861-.7943.1515s-.7066.1437-.986.174c-.4375.0474-.508.0238-.508-.1703zm-3.0419-.0845c-.1974-.1974.3194-.4417 1.1812-.5585.2458-.0333.3148-.0554 1.1758-.3756.5638-.2096.6849-.2101.6849-.003 0 .1955-.3793.3577-1.4343.6134-.4273.1036-.949.2335-1.1594.2888-.2103.0553-.412.0709-.4482.0347zm3.3175-.9396c-.0784-.0319-.113-.1352-.0768-.2296.0726-.1892.9964-.2482.9964-.0637 0 .0813-.7.4116-.7648.3609-.0066-.005-.0763-.0356-.1548-.0675zm1.3297-.4145c-.103-.1667.208-.3725.3495-.2311.115.115.0042.364-.162.364-.058 0-.1423-.0598-.1875-.1329zM83.3637 236.822c.2378-.2628.3682-.2347.257.0553-.039.1015-.1616.1845-.2724.1845-.184 0-.1826-.021.0154-.2398zm1.0153-.8829c0-.0258.0835-.079.1855-.1182.1064-.0408.1544-.0208.1125.047-.0702.1136-.298.168-.298.0712zm-30.897-20.3917c.0406-.0657.0976-.1195.1266-.1195.029 0 .0527.0538.0527.1195s-.057.1195-.1266.1195-.0933-.0538-.0527-.1195zm83.5475-.2931c-.3287-.0774-.749-.2044-.9341-.2824-.185-.0779-.403-.1416-.4841-.1416-.0812 0-.2076-.06-.281-.1334-.1806-.1806-.5377-.3838-1.528-.8693-.8221-.403-1.733-1.2983-1.733-1.7031 0-.0896-.052-.1628-.1155-.1628-.1539 0-.9603-.713-.9603-.849 0-.059-.1076-.2148-.239-.3463-.1315-.1314-.2391-.3202-.2391-.4195s-.3227-.5785-.7172-1.065c-.3944-.4865-.7171-.9365-.7171-1.0001 0-.0636-.0807-.1826-.1793-.2644-.0986-.0818-.1793-.242-.1793-.3558 0-.1138-.13-.3472-.2888-.5186-.3164-.3414-.8408-1.2846-.975-1.7534-.0466-.1634-.232-.4861-.4117-.7172-.6067-.7797-.6536-1.2956-.2198-2.4134.3076-.7924 1.9223-1.3473 2.8269-.9714.2165.09.4435.1328.5044.0952.139-.086 1.258.3883 1.4435.6117.0759.0914.217.1662.3136.1662.0966 0 .3124.1076.4796.239.1671.1316.398.2391.513.2391.1151 0 .2957.132.4014.2933.1226.1872.3545.322.6412.3731.607.1081 1.2704.488 1.5776.9035.1393.1884.3457.3438.4588.3453.2006.003.6268.3387 1.6813 1.3257.2858.2674.6916.5581.9019.646.2102.0879.5143.319.6757.5135.1613.1946.508.4804.7704.635.2623.1547.5672.3625.6775.4617.1103.0992.4508.3686.7567.5987.3058.23.6403.5797.7432.7769.103.1972.3458.5605.5398.8072.3103.3949.3428.5097.2708.9562-.179 1.1111-.6548 2.1211-.9992 2.1211-.052 0-.2612.2321-.465.5158-.555.7728-1.2242 1.1814-2.2219 1.3566-1.0133.1779-1.4854.175-2.289-.0141zm-88.6218-.5538c.0734-.137.1626-.22.1982-.1844.0986.0985-.0592.4337-.2041.4337-.0884 0-.0866-.0764.0059-.2493zm1.4288-.3483c.0704-.1315.1664-.2395.2134-.2401.047 0 .399-.2695.7824-.5977.7025-.6013 1.0361-.7389 1.0361-.4273 0 .2629-1.6353 1.5041-1.9816 1.5041-.1412 0-.1516-.0497-.0503-.239zm-.5952-.5408c.0831-.1002.1758-.1575.2059-.1274.0829.0829-.0856.3096-.23.3096-.0793 0-.0702-.0686.024-.1822zm32.03-13.3221c-.6467-.103-1.5337-.3156-2.287-.548-.3046-.094-.6926-.171-.8622-.171-.1697 0-.5493-.1345-.8437-.2989-.2943-.1643-.6298-.2988-.7455-.2988-.2323 0-2.1385-.6315-2.7808-.9212-.2241-.1011-.8158-.5969-1.3147-1.1017-.499-.5047-1.019-.9956-1.1555-1.0909-.1365-.0952-.4244-.4958-.6396-.8903-.2153-.3944-.4497-.7534-.521-.7976-.0909-.0565-.0848-.1346.0204-.2613.1204-.1451.12-.2354-.0019-.4574-.245-.4458-.222-.5479.1947-.8657.3445-.2628.5532-.31 1.632-.3695.6804-.0375 1.4253-.115 1.6554-.1721.5656-.1405 1.7974-.1497 1.9601-.0146.0724.06.8847.1938 1.805.2972.9202.1035 1.996.2264 2.3904.2732 1.1428.1356 2.5967.0718 3.0728-.135.1123-.0488.3812-.0316.5976.0382.5169.1667 1.9225.1459 3.262-.0482 2.095-.3037 6.3419-.9023 6.8428-.9645.3876-.0482.5458-.1354.6676-.3679.1383-.2639.1303-.3623-.0598-.735-.1207-.2368-.2194-.5205-.2194-.6305 0-.11-.1345-.2881-.2988-.3958-.1817-.119-.2988-.3085-.2988-.4833 0-.1582-.0802-.3677-.1782-.4658-.1203-.1202-.1543-.298-.1046-.5464.0565-.2825.0312-.3681-.1087-.3681-.112 0-.224-.1732-.29-.4483-.0962-.4004-.1453-.4458-.4601-.4255-.4892.0314-2.872.0625-4.237.0553-.6245-.003-1.3775.0195-1.6734.0506-.8832.093-2.184.059-2.6293-.0687-.2293-.0658-.5681-.1196-.7529-.1196-.1847 0-.8843-.1834-1.5546-.4075-.6702-.2242-1.4208-.4454-1.668-.4916-.247-.0463-.5697-.174-.717-.284-.1474-.1099-.5303-.331-.851-.4913-.3564-.178-.6912-.4626-.861-.7317-.1795-.2842-.4297-.4904-.7057-.5815-.4774-.1575-1.0455-.706-1.3136-1.2682-.0974-.2042-.2052-.7437-.2396-1.1988l-.0626-.8276.3887-.164c.4255-.1796.602-.1793 2.5402.005 2.297.2186 5.6643.1174 8.546-.2568.493-.064 1.6296-.1647 2.5258-.2236.8962-.059 1.7299-.159 1.8526-.222.1228-.0633.4653-.1514.7611-.196.2958-.0444.7416-.1352.9906-.2014.419-.1116.4531-.1535.4586-.563.02-1.4804.0547-2.0458.1306-2.1217.0471-.0472-.0204-.2206-.15-.3855-.18-.2286-.2038-.3381-.101-.462.1064-.1282.0813-.1624-.119-.1624-.1926 0-.2536-.0738-.2536-.3067 0-.1687.057-.4133.1268-.5437.1376-.257-.015-1.6965-.2676-2.5262-.1349-.4428-.1438-.4481-.7449-.441-.3346.004-.8504.0517-1.1462.1062-.2958.0546-1.264.218-2.1514.3631-2.5861.423-4.5011.9173-5.5726 1.4385-.4025.1958-.7691.356-.8148.356-.0456 0-.2557.1318-.4669.2928-.2112.1611-.9471.4774-1.6355.703-1.9548.6403-3.3766.5787-5.0763-.2202-.823-.3869-1.3745-.7951-1.3745-1.0176 0-.0622-.1814-.235-.4031-.3838-1.1378-.764-1.8603-1.3058-2.346-1.7594-.2958-.2763-.6588-.585-.8067-.686-.148-.1009-.269-.258-.269-.349 0-.091-.0793-.1656-.1762-.1656s-.2596-.1613-.3616-.3585c-.102-.1973-.2378-.3586-.3019-.3586-.064 0-.1165-.1313-.1165-.2918 0-.1604-.0537-.325-.1195-.3656-.0657-.0406-.1195-.17-.1195-.2875 0-.2726-.3104-.8983-.5403-1.089-.0973-.0808-.1768-.2095-.1768-.2862 0-.0767-.1071-.3494-.238-.6062-.487-.9552-.426-1.8758.1984-2.993.3445-.6163.6431-.745 1.1577-.4989.2068.0989.5104.2384.6747.31.324.1412.5825.2915 1.1304.657.2872.1917.5902.2413 1.6136.2645.693.0157 1.657.112 2.1423.2141.9544.2008 1.068.1902 4.2294-.3936 1.172-.2164 1.3254-.2215 1.7187-.0572.3236.1352.5104.1497.745.0577.4447-.1742 1.0911-.2679 3.0623-.4437.3945-.0352 1.0399-.1099 1.4343-.166 2.7653-.3938 3.4928-.4784 3.6907-.4294.1235.0306.7152-.0441 1.3148-.166.5997-.1218 1.924-.2809 2.9429-.3534 1.019-.0725 2.014-.1608 2.2112-.1963.1972-.0355 2.9663-.0858 6.1535-.1119 6.8376-.0558 7.171-.0785 8.0954-.5497.2439-.1243.5902-.226.7696-.226s.36-.0548.4013-.1215c.0413-.0668.124-.0912.1839-.0542.0598.037.231-.001.3802-.0854.4502-.2533 1.4485-.3433 1.8252-.1646.1315.0624.387.099.5678.0813.1807-.0177.3286.0125.3286.0672 0 .1843.7416.4294 1.3653.4513.3406.0119.6866.0633.7689.114.0823.0509.3753.1156.6512.1437.2758.0282.7167.1292.9797.2246.263.0954.5872.1644.7207.1534.1334-.011.6444.1016 1.1354.2502.4911.1486 1.108.3258 1.371.3936.263.068.5588.1723.6574.232.0986.0597.4213.224.7171.3652.2959.1412.7168.3426.9355.4476.5413.26 1.5746 1.3693 1.5746 1.6905 0 .1423.1277.4107.284.5963.1592.1893.3207.5828.3677.8962.0688.4587.0428.6046-.1451.8152-.311.3487-.5482.9813-.474 1.2647.0934.3577-.138 1.2623-.393 1.5361-.2764.2966-1.5251.6671-2.7473.8152-.33.04-1.7273.489-2.0711.6656-.149.0765-.2778.0631-.4044-.042-.128-.1062-.648-.1574-1.6736-.1647-1.4665-.0104-1.5789-.0384-1.7355-.4322-.0175-.044-.3428-.1131-.7228-.1536-.38-.0405-.8103-.1245-.9562-.1866-.2734-.1165-1.4854-.3254-2.5362-.4372-.3287-.035-.6522-.108-.719-.1621-.2467-.2005-3.3782-.3115-7.0351-.2494l-.8218.014.077.385c.0423.2117.1567.4295.254.484.0973.0545.177.204.177.3322s.0797.233.177.233c.0974 0 .214.148.2593.3288.0452.1807.1805.49.3007.6872.12.1972.2185.4677.2188.601.0002.1332.0742.3484.1644.478.0902.1297.2018.424.248.6541.1482.7383.202.8504.4524.943.1677.062.2596.2211.2894.5003.056.525.3199.7327.7316.5762.224-.0852.4312-.067.767.0674.253.1012.5903.184.7494.184.1592 0 .3226.0539.3632.1196.0406.0657.2186.1203.3955.1213.177.001.3948.0482.4842.1048.0986.0625.3462.0308.6301-.0808.399-.1567.6035-.1624 1.3914-.0392.508.0795 1.1767.1739 1.486.2096.3093.0358.6252.1408.7019.2332.0767.0925.2412.1682.3655.1682.1244 0 .333.0538.4635.1195l.4749.239c.1305.0657.333.1195.45.1195.1169 0 .416.1092.6649.2425.2488.1333.5023.2115.5635.1737.1046-.0647.486.0153 1.6101.3374.263.0753.701.2862.9735.4686.2725.1824.5981.3317.7236.3317.5346 0 1.4032 1.2929 1.645 2.4486.1434.6853.1423.8489-.008 1.2089-.26.6224-1.933 2.2724-2.407 2.3739-.2132.0457-.4283.1535-.478.2396-.1402.243-1.3477.7808-1.7562.782-.2013.001-.6563.1363-1.011.3014-.3547.1652-.8119.2895-1.016.2762-.204-.0132-.4786.032-.61.1004-.4522.2352-1.1253.2692-1.5787.0798-.31-.1296-.6213-.1603-1.0633-.105-.5038.0628-.6732.0367-.8734-.1346-.3446-.295-2.1964-.4454-2.7127-.2202-.1244.0543-.4628.1857-.752.292-.6974.2563-.901.557-.6737.995.0927.1788.144.5002.1137.7142-.0583.4125.1632.7766.6218 1.022.1338.0716.9384.2452 1.788.3857 1.7466.2889 2.4842.2573 5.5917-.239.475-.076.8828-.0849 1.0055-.022.1135.058.4699.14.792.182.322.0422.6472.1278.7226.1903.0754.0626.2422.1085.3706.102.1285-.007.5511.0495.9393.1244.3964.0766.763.0916.8366.0342.202-.1575 1.0746-.069 1.3965.1417.3427.2243 1.5729.5594 2.0533.5594.187 0 .6653.1614 1.0628.3586.3975.1972.7686.3585.8247.3585.114 0 .8504.4698 1.3078.8344.1643.131.3414.2389.3934.2398.052.001.2102.1091.3513.2406s.3506.239.4656.239c.115 0 .3603.1634.5452.3631s.511.5311.7246.7364c.2137.2053.388.4587.3873.5632-.002.366-.5957 1.4672-.8227 1.5265-.173.0452-.246.2111-.3067.6972-.0583.467-.1497.6847-.341.8124-.1439.096-.4195.312-.6126.4801-.1932.1681-.3897.2819-.4367.2528-.047-.0291-.427.002-.8441.0699-.9765.158-1.0535.176-1.4448.3348-.1802.0732-.5956.1594-.923.1915-.3275.032-.7485.1375-.9356.2342-.328.1697-.4971.17-1.9971.005-.263-.029-.7482-.05-1.0782-.0468-.33.003-.8083-.081-1.0628-.1874-.2545-.1063-.5872-.162-.7393-.1239-.2796.0702-1.248-.1111-1.6302-.3052-.1141-.058-.3233-.1054-.4649-.1054-.1415 0-.317-.0813-.39-.1805-.11-.1495-.1967-.1564-.5047-.0398-.3275.1239-.405.11-.6478-.1161-.1908-.1778-.3196-.2205-.4182-.1387-.0958.0795-.2836.0592-.5735-.062-.2371-.099-.5607-.18-.7191-.18-.1584 0-.355-.0808-.4368-.1793-.083-.1-.3435-.1793-.5884-.1793-.2418 0-.4906-.0508-.553-.113-.185-.1837-1.6377-.4359-2.026-.3517-.1973.0428-.6006.085-.8965.0936-.6816.0201-1.5562.3212-1.7542.604-.0838.1195-.3367.252-.562.2943-.2254.0423-.4382.151-.473.2416-.0348.0906-.2367.2029-.4487.2494-.212.0466-.6287.208-.9259.3586-.4671.2368-.574.2525-.788.1154-.136-.0872-.4357-.16-.6658-.1618-.23-.002-.6062-.0597-.8359-.129-.2296-.0691-.5595-.1258-.733-.1258-.2172 0-.3355-.076-.3794-.2438-.05-.1913-.1274-.2278-.3594-.1696-.1645.0413-.3312.017-.3756-.055-.044-.071-.155-.1292-.2468-.1292-.0918 0-.371-.1395-.6204-.3101-.429-.2934-.5119-.3065-1.5293-.2425-1.3612.0856-3.0312.347-3.361.5263-.1394.0757-.5428.187-.8965.2473-.3536.0603-1.4229.2731-2.376.473-3.167.6641-3.5182.7281-4.6867.8541-1.2765.1378-3.5555.1417-4.3972.008zm.8965-41.831c-1.1533-.4192-1.6783-.705-2.2384-1.219-.3109-.2852-.7039-.6261-.8735-.7576-.1695-.1315-.4088-.4309-.5317-.6654-.1229-.2344-.3025-.4919-.3991-.5721-.0967-.0802-.1514-.239-.1216-.3528.0768-.2935-.4536-1.0318-.7744-1.078-.3234-.0466-1.4558-1.1299-1.4558-1.3926 0-.1022-.1614-.4717-.3586-.8212-.1972-.3494-.3586-.7168-.3586-.8163 0-.0995-.1052-.2763-.234-.3927-.1286-.1164-.383-.5954-.5652-1.0644-.1823-.469-.3728-.8705-.4235-.8924-.0506-.022-.092-.1591-.092-.3048 0-.1458-.045-.316-.1-.3785-.0895-.1016-.3684-.7288-.7515-1.69-.0736-.1848-.1484-.4888-.166-.6755-.0177-.1868-.0918-.3992-.1647-.4721-.073-.073-.1326-.2346-.1326-.3592 0-.1246-.0961-.3693-.2135-.5438-.318-.4723-.5221-1.1583-.441-1.4813.0543-.2164-.0024-.3411-.2346-.5154-.3688-.277-.3834-.5067-.0665-1.0439.1985-.3363.354-.4336.9044-.5656.6142-.1474.7289-.1388 1.5129.1137.5615.1809.9903.4112 1.2686.6815.2313.2246.5587.4405.7276.48.1689.0393.4954.2409.7254.4478.52.4677 1.1493.9085 1.2972.9085.0613 0 .1403.075.1755.1666.0761.1984 1.2453.7525 1.7888.8477.4526.0793 1.7-.2206 3.3797-.8126 1.1859-.418 1.5402-.4532 2.5323-.2517.2605.0529.3906.4086.1494.4086-.0657 0-.1195.0986-.1195.2191 0 .1206-.0403.26-.0896.3097-.0493.0498-.0897.3681-.0897.7072 0 .5232-.0404.6343-.2666.7336-.3663.1608-.447.4286-.1522.5057.3204.0838.3018.2-.0634.3955-.2914.156-.3005.195-.2415 1.0319.0686.9734.276 1.4479.9376 2.1447.2437.2567.4719.555.507.663.0352.1079.1666.223.292.2558.1254.0328.3147.2672.4207.521.106.2536.33.6045.4977.7796.2518.2629.3134.4607.3532 1.134.0265.4486.0801.9163.1192 1.0394.072.2265-.135.8203-.5894 1.6915-.5662 1.0853-2.2009 2.7404-3.0107 3.0484-.4813.183-1.6059.1256-2.2698-.1156zm25.5103-3.1006c.136-.191.2472-.3722.2472-.4028 0-.0306-.233-.121-.5179-.2007-.4331-.1213-.5909-.1145-.9638.0413l-.4458.1863.4962-.5648c.273-.3106.5722-.6078.665-.6604.0928-.0526.1687-.1736.1687-.269 0-.0952.0517-.1733.1149-.1733.1558 0 .6022-.4898.6022-.6607 0-.1507-.5025-.415-.789-.415-.0992 0-.4866.2048-.861.455-.3744.2503-.772.4351-.8836.4108-.1116-.0243-.31.0131-.441.0832-.2963.1586-.4603-.0412-.246-.2995.2242-.27-.2093-.0926-.7237.2963-.5804.4388-1.0472.7276-1.176.7276-.0599 0-.1437-.1743-.1863-.3873-.072-.3595-.0196-.443.732-1.168.4453-.4293 1.1772-1.1686 1.6264-1.6427.5969-.63.9429-.896 1.2849-.988.301-.0812.468-.1955.468-.3207 0-.221.075-.3146.9986-1.2465.367-.3703.79-.7052.94-.7441.1634-.0424.3624-.2598.4965-.5424.1231-.2593.3833-.6506.5782-.8694.7828-.8787 1.6532-2.1844 1.5769-2.3653-.0427-.1012-.132-.3454-.1984-.5426-.0665-.1972-.1675-.452-.2244-.566-.0569-.1142-.1035-.357-.1035-.5397 0-.1827-.1076-.5328-.239-.7781-.1315-.2453-.239-.5286-.239-.6295 0-.1009-.0808-.2144-.1794-.2523-.0986-.0378-.1793-.19-.1793-.3381s-.1292-.4598-.2872-.6926c-.2228-.3284-.3073-.66-.3771-1.4808-.1636-1.9228-.1523-1.954.7067-1.954.3561 0 .8015.0802.9898.1785.1883.0982.4509.1788.5835.1792.1327 0 .4391.1352.681.2996.2418.1643.5426.2988.6683.2988.1257 0 .531.1614.9005.3586.4837.258.836.3585 1.2572.3585.3733 0 .6389.0647.7334.1786.0815.0982.4242.339.7617.5354.3374.1962.8017.5196 1.0318.7185 1.188 1.027 1.7671 1.5458 2.2704 2.0338.3051.2958.8927.8336 1.3057 1.1952.7501.6567 2.161 2.302 2.161 2.52 0 .1346.691 1.2023 1.1173 1.7265.5374.6609.5012 1.4806-.1224 2.7706-.182.3765-.4498.7115-.6778.8477-.2072.1239-.8699.635-1.4726 1.1357-.6027.5008-1.2481.9474-1.4343.9924-.1862.0451-.798.311-1.3595.5911-.7679.383-1.072.4807-1.2267.3942-.147-.0822-.333-.049-.6523.1169-.4466.2319-1.7824.8151-2.5013 1.092-.4415.1702-.6347.0919-.6347-.2573 0-.2222-.0543-.2414-.531-.1877-.3537.04-.5495.0115-.5865-.0849-.0343-.0894-.2029-.1231-.4411-.0882-.373.0548-.3838.0444-.3306-.3179.0476-.3241.0191-.3744-.2118-.3744-.2171 0-1.1214.6247-1.3652.9431-.1824.2383-1.6832 1.0968-1.7957 1.0273-.0733-.0453-.4464.0844-.829.2883-.8734.4656-1.0488.4713-.73.0236zm-6.5022-.8421c-.0386-.0624.0524-.1766.2021-.2537.1498-.077.4196-.2775.5997-.4455.1801-.168.3651-.2677.4112-.2217.046.046-.0341.1662-.178.267-.144.1008-.2618.259-.2618.3516 0 .2916-.6281.537-.7732.3023zm-14.6156-11.9213c.115-.0301.3033-.0301.4184 0 .115.03.0209.0547-.2092.0547-.23 0-.3242-.0246-.2092-.0547zM71.6796 111.657c-.2466-.0657-.4483-.17-.4483-.232 0-.1875-.5131-.8199-.6653-.8199-.0783 0-.2077-.1748-.2877-.3884-.317-.8476-.5214-1.285-.6003-1.285-.0456 0-.2262-.1231-.4014-.2737-.3945-.339-.5752-.8839-.6063-1.8283-.018-.5436-.116-.9063-.3877-1.4343-.3591-.698-.5684-1.5124-.4253-1.6554.0404-.0405.0794-.3546.0866-.698.0072-.3434.0798-.8541.1615-1.135.0817-.281.1184-.5596.0815-.6193-.0369-.0597-.0171-.1394.044-.1771.061-.0378.1492-.297.1957-.576.1852-1.1096.7119-1.7624 1.4218-1.7624.252 0 .5296-.2493 1.9673-1.767.2045-.216.3727-.4312.3737-.4782.0018-.0788.4783-.676.8788-1.1015.0928-.0986.2823-.381.421-.6275.1387-.2465.3512-.623.4722-.8366.121-.2137.289-.6036.3734-.8666.0843-.263.2813-.6496.4377-.8591.2474-.3314.5672-.9766 1.1737-2.368.2688-.6168.4128-1.147.3534-1.3019-.0315-.0819-.0048-.71.0591-1.3957.121-1.2965.067-1.9502-.2989-3.6222-.161-.7354-.1754-.9901-.0661-1.1651.1275-.2042.1742-.7446.1175-1.36-.0494-.5371.036-.8542.3193-1.1835.4316-.502.962-.4642 1.415.1007.209.2603.4458.4255.6103.4255.2676 0 .8117.2134 1.3813.5417.1643.0947.5301.2842.8129.4212.283.137.5617.374.62.5274.0582.1531.2076.351.332.4399.1245.0888.3244.3124.4441.497.1198.1844.4517.4963.7375.693.2858.1966.5197.4123.5197.4793s.1883.2993.4183.5163c.2301.217.4184.5119.4184.6553 0 .309.2532.8226.7297 1.4805.1903.2627.346.5778.346.7003 0 .1225.0467.3162.1038.4303l.4125.8233c.1753.3499.3367.9177.3735 1.3148.0357.3845.1012.968.1457 1.2966.091.6736.0916.834.007 2.0917-.0744 1.1082-.5091 2.8127-.8096 3.1748-.0606.073-.1851.3453-.2768.605-.0916.2597-.3783.8198-.637 1.2447-.2588.4248-.6707 1.2834-.9154 1.9079-.2448.6245-.5997 1.4582-.7887 1.8526-.1891.3945-.4096.9323-.49 1.1953-.1871.6122-.897 2.0456-1.243 2.51-.147.1972-.289.4202-.3157.4956-.0266.0754-.5594.672-1.184 1.3256-1.1948 1.2506-1.7631 1.984-2.0425 2.6359-.121.2823-.3372.4736-.7663.6781-.3286.1567-.7115.392-.8508.523-.1942.1828-.4028.2343-.8964.2216-.3538-.009-1.1542.0169-1.7787.0578-.642.042-1.3303.0225-1.5837-.045zm46.5846-.1445c-.0658-.025-.8188-.1103-1.6734-.1895-1.8818-.1745-3.32-.3975-6.1555-.9547-.7152-.1406-2.0324-.5252-2.3307-.6807-.1315-.0685-.417-.1583-.6345-.1995-.2175-.0413-.779-.264-1.2478-.495-.4688-.231-.9522-.4199-1.0742-.4199s-.3562-.1345-.5206-.2988c-.1643-.1644-.3235-.2988-.3537-.2988-.0302 0-.3337-.1345-.6743-.2988-.3407-.1644-.6861-.2988-.7677-.2988-.0815 0-.2732-.154-.4258-.3424-.1527-.1883-.5331-.4892-.8454-.6687-.3122-.1795-.5677-.3781-.5677-.4413 0-.0632-.2293-.2164-.5097-.3404-.2803-.124-.7778-.4743-1.1056-.7784-.3277-.3042-.7438-.6314-.9246-.7271-.1808-.0957-.3287-.2515-.3287-.3461 0-.0946-.1076-.2296-.239-.3-.1315-.0703-.239-.2065-.239-.3027 0-.096-.1882-.3743-.4182-.618-.23-.2439-.4487-.5398-.4861-.6577-.0375-.118-.1396-.2144-.227-.2144-.1974 0-.9007-.7865-.9007-1.0073 0-.0893-.079-.1927-.1755-.2297-.0965-.037-.2572-.2628-.357-.5016-.0997-.2388-.3166-.5949-.4818-.7913-.1653-.1964-.3027-.447-.3053-.557-.0027-.11-.164-.3862-.3586-.6138-.1945-.2276-.3537-.4765-.3537-.5532 0-.0766-.0853-.21-.1895-.2965s-.2714-.362-.3716-.6123c-.1-.2502-.2257-.455-.279-.455-.0534 0-.1324-.1607-.1756-.3572-.0431-.1964-.1246-.3857-.1811-.4206-.1341-.083-1.2523-2.3615-1.218-2.482.0144-.051-.0818-.3043-.2138-.563-.132-.2588-.24-.5467-.24-.64 0-.093-.0807-.2363-.1793-.3181-.0986-.0819-.1793-.2684-.1793-.4145 0-.146-.1027-.3586-.2283-.4722-.1255-.1137-.2636-.3506-.3068-.5265-.1008-.4102-.685-1.575-.7901-1.575-.044 0-.1492-.1747-.2338-.3884-.0845-.2136-.2179-.4691-.2963-.5677-.1303-.1638-.5455-.9617-1.0573-2.032-.11-.23-.3305-.6334-.49-.8964-.4277-.7056-.9002-1.7344-.9002-1.9604 0-.1087-.0838-.3171-.1861-.4632-.1534-.219-.1567-.2657-.0185-.2657.0921 0 .2649-.1075.3838-.239.28-.3094.4913-.297 1.0758.0629.263.162.6018.2947.753.295.3263.0008.9186.2911 1.2676.6216.1377.1303.5027.366.8111.5236.3085.1577.6988.4247.8673.5932.1686.1686.5225.4032.7864.5214.2639.1181.6535.3582.8658.5336.2123.1753.628.5065.9238.736.2958.2295.6157.4827.7108.5627.0951.08.4241.335.731.5668.9434.7125 2.196 1.9448 2.6154 2.573.2195.3287.6008.8127.8474 1.0757.2466.263.4846.5992.529.7472.0444.148.1846.3246.3117.3926.127.068.2324.189.2342.2688.0018.0799.1632.3565.3586.6147.1954.2583.3553.5612.3553.6733 0 .1121.1075.232.239.2664.1354.0354.239.163.239.2942 0 .1274.1076.329.2391.448s.2394.3022.2398.407c.0005.1049.1103.352.2442.5492.1339.1973.3172.529.4074.7375.0902.2083.2718.4365.4035.507.1317.0704.2738.2843.3157.4753.042.191.1808.4417.3086.5573.1277.1157.2322.284.2322.374 0 .09.1257.2115.2792.2698.2988.1136 1.0356.7975 1.0356.9612 0 .0542.1654.1563.3675.2267.202.0705.5114.28.6872.4656.176.1856.4815.4032.679.4836.1976.0804.4665.3062.5977.502.131.1957.2984.356.3717.3561.0733.0003.2727.1101.4432.2442.1705.134.6752.3575 1.1217.4965.4465.139.8387.2847.8716.324.138.1645.6136.3703.8649.3742.1488.002.405.0811.5693.175.1644.094.4716.1728.6827.1751.4748.005 2.356.437 2.6954.6187.1461.0782.8379.131 1.6673.127 1.9797-.009 3.1588-.331 5.9509-1.6251 1.9818-.9186 4.4375-2.346 5.7371-3.3348.2959-.225.7155-.5003.9325-.6116.217-.1114.4229-.2761.4574-.3662.067-.1742-.0922-.539-.349-.8005-.0857-.0873-.3661-.4815-.6231-.8759-.257-.3944-.5907-.8356-.7414-.9804-.1507-.1447-.274-.353-.274-.4628 0-.2164.0921-.169.6896.355l.2713.2378-.176-.3517c-.0968-.1934-.3936-.5848-.6597-.8697-.5348-.5727-.561-.6436-.313-.8495.1467-.1217.1385-.1964-.0579-.5293-.2578-.437-.7625-.912-.969-.912-.081 0-.0562-.0894.0607-.2186.2479-.2739.2475-.365-.003-.6414-.151-.1668-.1664-.2553-.0629-.3588.1036-.1036.2782-.0618.7084.1693.619.3326.9413.4176 1.9382.5112.3919.0368.748.1487.8964.2818.1355.1215.3404.254.4555.2947.115.0406.2092.1306.2092.2 0 .0695.139.1791.3088.2437.2355.0895.3904.0692.6525-.0856.3132-.185.3627-.1864.5578-.015.1177.1034.3484.2279.5128.2766.1643.0486.3581.1357.4307.1935.0725.0577.2608.1002.4183.0944.1576-.0058.3987.025.536.0685.2228.0707.2457.0366.2141-.3182-.0195-.2185-.008-.3166.0251-.218.0606.1796.8365.5976 1.1093.5976.08 0 .4522.2286.8274.508.5764.4292 1.2376.8068 1.413.8068.1657 0-.005-.4845-.2527-.7172-.1644-.1544-.2988-.3251-.2988-.3794 0-.1873.3222-.098.5485.1521.1248.138.5908.4634 1.0356.7231.4447.2598.895.604 1.0005.7652.1056.161.2867.2928.4026.2928.1158 0 .2747.0773.353.1716.0784.0944.3136.2082.5227.2528.209.0446.6268.2568.9283.4715s.6586.4254.7934.4682c.3814.121 1.2282 1.4717 1.2282 1.9588 0 .1032-.1165.3117-.259.4634-.159.1693-.2573.4258-.2549.665.002.2142-.0623.4701-.1433.5688-.081.0986-.1814.3229-.223.4984-.055.232-.1753.341-.4404.3993-.232.0509-.4604.2282-.6276.487-.1446.224-.3705.4401-.502.4805-.1315.0404-.4004.2192-.5976.3974-.1972.1781-.5075.416-.6895.5288-.2798.1734-.341.1785-.3967.0333-.0775-.202-.3073-.1885-.5751.0338-.1998.1658-.2707.4317-.0844.3166.0589-.0364.1377.0138.1752.1115.0436.1136-.049.2384-.2564.3459-.1786.0925-.4654.2989-.6376.4587-.172.1598-.6561.5548-1.0757.8778-.4195.323-.908.7322-1.0854.9093-.1774.177-.4463.3875-.5976.4675-.1512.0801-.4901.3165-.753.5254-.263.2089-.6664.4524-.8965.5411-.2301.0887-.5704.286-.7562.4383-.1858.1524-.4161.277-.5118.277-.0956 0-.203.0758-.2385.1685-.0356.0927-.1917.2004-.3469.2393-.1966.0493-.2937.1705-.32.3993-.0325.2827-.0953.3312-.4509.3488-.2271.0112-.4692.092-.5378.1793-.0687.0874-.2728.2352-.4535.3284-.1808.0933-.3287.21-.3287.2595 0 .0494-.1748.125-.3885.1681-.2136.0431-.6164.1818-.8951.3083-.2787.1265-.5592.23-.6235.23-.0642 0-.2934.0762-.5092.1694-.9454.4081-2.0575.627-4.8747.9593-.6578.0776-3.8713.1878-4.004.1372zm-1.8416-16.1968c-.3453-.2995-.6404-.3141-1.0816-.0535-.3153.1862-.348.1822-.7157-.0897-.325-.2403-.5026-.2798-1.1353-.253-.7493.0318-.7503.0313-1.2748-.515-.2887-.3009-.8022-.6752-1.1412-.832-.339-.1567-.6514-.3417-.6943-.4112-.0429-.0694-.1639-.1263-.2689-.1263-.105 0-.367-.1344-.5826-.2988-.2154-.1643-.5079-.2988-.65-.2988-.1576 0-.2825-.093-.3207-.239-.0344-.1315-.124-.239-.1991-.239-.1938 0-.7917-.5765-.7917-.7634 0-.14-.3651-.533-1.7278-1.8604-.233-.227-.4236-.4556-.4236-.508 0-.0525-.0747-.0954-.166-.0954-.3764 0-.6642-.4152-.7341-1.0589-.0737-.678.125-1.0926.5236-1.0926.1013 0 .3215-.1288.4895-.2862.376-.3523 1.8253-.8816 2.6304-.9605.3285-.0322.7383-.151.9108-.264.2745-.18.3989-.188.9963-.0646.3755.0776 1.0715.141 1.5468.141 1.1356 0 3.147.2275 3.326.3762.3093.2566.854.1346 1.6094-.3606.418-.274.9751-.5562 1.238-.6271.263-.071.6933-.2257.9562-.344.263-.1182.6787-.298.9239-.3995.2451-.1015.5942-.3222.7757-.4904.4483-.4157 1.1843-.3663 1.4959.1004.2913.4363.0263.8456-1.1608 1.7923-.2387.1904-.5419.5576-.6738.8161l-.2397.47.2394.0626c.4055.1061.4466.6955.0849 1.2175-.3514.507-.3831.6796-.142.7721.0924.0355.2024.2208.2443.4118.042.191.2488.5308.4595.7551.3743.3983 1.0674 1.7595 1.2242 2.4042.0489.2012.007.4674-.1123.7057-.105.2104-.1908.4759-.1908.59 0 .6162-.8974 1.0725-1.8306.9308-.6894-.1047-1.1242.0365-1.2667.4114-.1337.3516-.3377.5115-.7872.6173-.9054.2129-1.075.2076-1.3635-.0427zm11.9015-4.9899c-.1452-.1452-.0826-.2725.0996-.2026.0986.0379.1793.1169.1793.1756 0 .1253-.1646.1413-.2789.027zm21.4347-.635c-.1643-.054-.4738-.1035-.6877-.11-.2139-.0065-.5894-.1194-.8345-.2508-.245-.1313-.6195-.2715-.8321-.3113-.2321-.0436-.4153-.163-.4585-.299-.0395-.1246-.1683-.2266-.2862-.2266s-.4125-.1344-.6546-.2988c-.2422-.1643-.5186-.2988-.6143-.2988-.0957 0-.174-.0538-.174-.1195 0-.0658-.1345-.1195-.2988-.1195-.1644 0-.2989-.0566-.2989-.1257 0-.069-.1817-.2015-.4038-.2943-.222-.0928-.4325-.2436-.4676-.335-.0351-.0914-.2968-.2876-.5815-.436-.2848-.1485-.7676-.479-1.073-.7347-.3053-.2557-.6187-.4648-.6964-.4648-.0778 0-.222-.0807-.3207-.1793-.0986-.0986-.2811-.1793-.4056-.1793s-.282-.104-.3499-.231c-.068-.127-.223-.2624-.3444-.301-.1232-.039-.2923-.2868-.3826-.5605-.1193-.3613-.2522-.522-.505-.61-.1888-.0659-.389-.24-.4449-.387-.0727-.1912-.235-.2888-.5689-.3422-.257-.041-.567-.185-.689-.3198-.122-.1348-.2925-.218-.3788-.1848-.0863.0331-.1636.008-.1719-.0556a32.5082 32.5082 0 00-.0353-.2651c-.0112-.0822-.0923-.1336-.1802-.1143-.167.0368-.99-.471-1.3579-.8378-.1176-.1173-.3327-.2141-.478-.2151-.3622-.0025-1.0146-.2433-1.5334-.566-.2379-.1479-.4833-.2689-.5453-.2689-.243 0-1.0635-.472-1.23-.7075-.0967-.1368-.2683-.2487-.3814-.2487-.113 0-.2389-.0538-.2795-.1195-.0406-.0657-.2068-.1195-.3694-.1195-.1625 0-.3264-.0807-.3643-.1793-.0378-.0986-.138-.1793-.2225-.1793-.0845 0-.1846-.0807-.2225-.1793-.0378-.0986-.1392-.1793-.2252-.1793-.1904 0-.8073-.6824-.8073-.893 0-.0833-.2214-.4295-.492-.7694-.4146-.5207-.493-.7064-.4987-1.181-.0102-.8422.2763-1.2992.8783-1.4009.2824-.0477.6607-.2324.8921-.4356.3753-.3295.4791-.356 1.574-.401.8643-.0356 1.4392.0117 2.1882.18.5588.1255 1.3118.255 1.6734.2876.3615.0327 1.0608.1152 1.5538.1834.493.0682 1.004.1224 1.1355.1203.1315-.002.508.0501.8366.1158a60.426 60.426 0 001.306.2414c.3896.0671.7634.177.8307.2443.0673.0673.3074.1224.5335.1224.24 0 .4697.0801.5518.1924.0774.1059.3254.212.551.2358.8226.087 1.1663.1794 1.3095.3519.0804.0968.3143.1763.52.1765.2055.0003.5563.1118.7793.2478.2511.153.5101.221.68.1784.1509-.038.3087-.0133.3507.0547.0438.0707.2456.092.4713.0496.3174-.0596.4295-.0245.5722.1794.1259.1796.356.2745.7912.326.3375.04.6144.1056.6154.1457.001.0402.0453.1415.0984.2251.0773.122.1805.1171.518-.024.5036-.2103.7657-.0622.5623.3179-.1616.302-.0504.57.2364.57.2976 0 .7293.2301 1.0648.5677.1493.1502.414.269.5994.269.1825 0 .438.073.5677.1623.2031.1398 1.1464.6613 2.2185 1.2266.1701.0897.407.271.5265.403.1194.132.276.2407.348.2416.133.0017.8131.5777 1.6949 1.4356.2686.2613.5262.4751.5726.4751s.24.1152.4304.256l.3461.2559-.003 1.5668c-.004 2.1818-.338 3.271-1.2313 4.017-.1967.1644-.4566.3964-.5775.5155-.6235.6145-1.642.8247-4.1492.8564-.756.0096-1.509.0501-1.6733.0901-.1644.04-.4333.0286-.5977-.0253zM104.3396 79.689c-.2663-.113-1.2494-.7903-1.2913-.8896-.1064-.252-1.2828-1.3025-1.4586-1.3025-.1996 0-.8359-.5443-.8359-.715 0-.0467-.2888-.3784-.6418-.737-.353-.3588-.6793-.7704-.7252-.9149-.0458-.1445-.131-.2626-.189-.2626-.145 0-.8344-1.018-.8344-1.232 0-.0952-.0793-.2388-.1762-.3192-.0968-.0804-.2125-.3425-.257-.5824-.0446-.24-.159-.5561-.2544-.7027-.0954-.1466-.1821-.5277-.1928-.8468-.0123-.3708-.0942-.6553-.2269-.788-.1962-.1961-.2665-.5575-.21-1.0793.0138-.1274.1803-.3765.37-.5537.4782-.4467.575-.7757.5007-1.7017l-.0643-.8007-.5514.012c-.9515.0206-2.0927.2335-2.3111.4312-.1155.1045-.4714.2151-.791.2458-.475.0457-.6659.0015-1.047-.2424-.2563-.164-.8146-.3635-1.2405-.4432-.7099-.133-1.2208-.3839-1.6683-.8194-.0945-.092-.4117-.27-.7049-.3957-.5437-.233-2.2034-1.813-2.5064-2.386-.0858-.1621-.2737-.3467-.4176-.41-.144-.0634-.2818-.2214-.3062-.3512-.0245-.1298-.1728-.4247-.3294-.6552-.4214-.62-.3777-.9348.161-1.1599.38-.1588.5608-.1649 1.225-.0412 1.0006.1862 2.6592.3565 2.7752.2848.213-.1317 3.067-.5418 4.919-.7069 1.1078-.0988 2.1127-.2323 2.2331-.2968.1205-.0644.3355-.1171.478-.1171.2556 0 .2585-.0233.2275-1.8228-.0326-1.8899.0229-3.0862.2565-5.528.0755-.7888.1503-1.73.1662-2.0916.016-.3616.0694-1.1576.1187-1.7689.1328-1.6439.1596-2.143.2418-4.5062.0837-2.406.4986-9.7433.6177-10.9244l.0771-.7648-.6121.0812c-1.1324.1502-4.1777.9919-5.2212 1.443-.1973.0853-.9503.38-1.6734.655s-1.4223.5435-1.5538.5966c-.1315.053-.5618.2196-.9562.3702-.9116.348-1.7419.7028-1.9721.8427-.4957.301-1.5627.8279-1.677.8279-.0715 0-.0968-.0538-.0561-.1195.1921-.311-.847.122-1.5063.6275-.2358.1808-.4606.3287-.4995.3287-.0986 0-1.6465 1.0559-1.9409 1.324-.1328.1208-.567.2957-.9649.3885-.398.0928-.837.2295-.9759.3038-.4228.2263-1.1898.1566-1.8266-.1661-.3269-.1657-.84-.3349-1.1404-.376-.3003-.0412-.6093-.1343-.6865-.2068-.0773-.0726-.3019-.2125-.499-.311-.1973-.0985-.3997-.243-.4499-.321-.0568-.0883-.2485-.1163-.508-.0742-.4701.0763-.5851-.1345-.135-.2475.2333-.0585.8687-.6739 1.4025-1.3581.0635-.0814.2618-.1777.4407-.214.179-.0362.4776-.1444.6637-.2404.1861-.096.4162-.1746.5114-.1746.0951 0 .9002-.4888 1.789-1.0863.889-.5975 2.0304-1.2523 2.5366-1.4552.5062-.2029 1.0657-.4688 1.2433-.591.1776-.1222.6213-.3542.986-.5155.3648-.1613.6632-.3477.6632-.4143 0-.0666.0745-.121.1656-.121s.3197-.0804.508-.1786c.1883-.0982.5199-.1789.7369-.1793.4304-.0008 2.2814-.672 2.474-.8972.0658-.0769.3885-.1757.7172-.2196.5784-.0773.9175-.1747 2.5698-.7383.7419-.253 1.1505-.3554 2.6295-.6586.3616-.0742.819-.1832 1.0165-.2423.1975-.0591.7891-.168 1.3148-.242 1.548-.218 2.179-.355 2.4934-.5412.2062-.122.2265-.3566.2677-3.0992.0246-1.6319.0718-3.0526.105-3.1571.1412-.445.4202-2.9927.4202-3.8368 0-1.1028-.4405-2.3143-1.0869-2.9888-.2239-.2337-.6802-.7238-1.0139-1.0891-.3337-.3654-.76-.739-.9474-.8302-.1873-.0912-.3618-.2312-.3878-.3112-.0655-.201.9735-1.2873 1.4453-1.5111.4051-.1923 1.1413-.2621 1.6082-.1526.1709.0401.2985.003.3374-.0982.0454-.1184.1553-.1361.4034-.065.1875.0538.36.0786.3835.0551.0234-.0234.5493-.0934 1.1685-.1555.8728-.0876 1.2696-.0755 1.765.0535.3517.0916.8177.1665 1.0357.1665.218 0 .5246.0966.6814.2146.1568.118.527.3164.823.4408.2957.1244.6184.2904.717.3689.0987.0785.3004.1796.4483.2246.1479.0451.2689.1554.2689.2452 0 .0897.1066.197.237.2384.1304.0413.4575.287.7269.5459.2694.2589.5393.4707.5997.4707.0604 0 .1097.0807.1097.1793s.0483.1793.1075.1793c.1674 0 1.251 1.1083 1.4057 1.4378.6727 1.4324.9771 2.2876.9985 2.8053.061 1.4748-.0519 2.6211-.287 2.9152-.0732.0914-.2294.6023-.3472 1.1355-.1179.533-.2977 1.3458-.3997 1.806-.2121.957-.342 2.6749-.2347 3.1027.0808.3218.3058.375 2.0439.4835 2.4726.1543 3.969.3275 6.6336.7678 1.6477.2724 1.9642.3325 2.51.477.23.061.9024.225 1.494.3644.5917.1395 1.3984.335 1.7929.4343.3944.0994 1.3357.287 2.0917.4171.756.1301 1.5539.2941 1.773.3645.7177.2304 1.981.4613 2.5298.4623 1.172.0023 1.8067.1392 1.9104.4121.1048.2755.9569.6319 1.1804.4937.0705-.0435.3317.0232.5805.1482.2488.1251.6486.263.8885.3065.24.0435.4973.1527.572.2427.0747.09.3246.199.5554.2424.2776.052.4627.1735.5472.3588.0756.166.2805.3163.5025.3689.2061.0487.4017.0992.4346.1121.3769.1483.5133.2622.6649.5552.0979.1893.252.3441.3425.3441.0906 0 .4253.2765.744.6144.3186.338.969 1.0136 1.4454 1.5014.4764.4879.9007 1.0317.9428 1.2084.0422.1767.1272.3856.189.4643.0618.0786.1823.444.268.8122.5063 2.1784-1.018 5.3595-3.9525 8.2482-.4674.4602-.9588.998-1.092 1.1952-.8955 1.3266-3.0285 5.3704-4.0663 7.7093-.7125 1.6056-.984 2.2657-.984 2.3925 0 .0776-.2689.598-.5976 1.1566-.6317 1.0734-.674 1.1865-.469 1.2549.0707.0235.2199.4449.3314.9362.2408 1.0608.1575 1.5413-.4243 2.4483-.5267.8213-.8162 1.1344-1.0488 1.1344-.1088 0-.3126.0615-.4529.1365-.1493.08-1.0671.1559-2.2147.1833-2.0375.0486-3.1795-.1092-3.6102-.499-.1043-.0944-.4717-.2437-.8164-.332-.3448-.0882-.739-.2565-.8763-.374-.3596-.3079-1.4371-.6515-2.2275-.7104-.8412-.0626-4.3592.2128-4.5972.3599-.297.1835-4.8881.951-7.738 1.2934-.2958.0356-.6001.1482-.6763.2504-.2018.2708-.3181 2.4113-.2413 4.4416.0862 2.276.184 2.7205.9466 4.3.179.3704.2498.7814.2681 1.5538.028 1.1804-.0942 1.667-.4984 1.9851-.1522.1199-.2768.3132-.2768.4297 0 .5271-1.4246 1.191-2.7197 1.2673-.5092.03-1.0064.0203-1.105-.0215zm3.9655-21.6746c2.5169-.3438 5.0539-.56 7.8076-.665 1.9213-.0734 2.0485-.0931 2.3355-.362.1772-.166.563-.3336.9263-.4025.3424-.065.7933-.2063 1.002-.3142l.3793-.1962-.2896-.2185c-.271-.2044-.2884-.286-.2705-1.269.0107-.5778-.0298-1.1423-.09-1.2545-.0683-.1278-.0643-.2317.0108-.2781.0658-.0408.1206-.407.1216-.814.002-.7194.176-1.5047.4174-1.8815.0653-.102.3377-.2492.6055-.3272.3811-.111.5655-.2655.849-.7111.4686-.737.717-1.2562.8156-1.7046.0436-.1984.1824-.416.3085-.4835.1262-.0675.2295-.215.2296-.3277 0-.1127.2287-.5598.508-.9936.7275-1.13.7592-1.181 1.1463-1.8409.1928-.3287.5727-.8295.8442-1.113.2716-.2833.6798-.8846.9072-1.3361.2273-.4516.5958-.9996.8188-1.2178.223-.2183.5166-.6168.6526-.8855.136-.2687.4115-.6183.6122-.7769.2007-.1586.3655-.3783.366-.4883 0-.11.1522-.352.3368-.5378.1846-.1859.4634-.5665.6196-.846.1562-.2793.3279-.5079.3815-.5079.168 0 .1062-.9198-.0718-1.0675-.0932-.0773-.2948-.1539-.4482-.1702-.1534-.0163-.4819-.1188-.73-.2278-.2482-.109-.6516-.2344-.8965-.2788-.2449-.0444-.6335-.1498-.8636-.2342-.23-.0844-.7948-.2672-1.255-.4063-.4601-.1391-.9442-.2987-1.0757-.3547-.1315-.056-.481-.1679-.7769-.2486-.2958-.0807-.6454-.19-.7769-.243-.263-.106-1.68-.4523-3.3467-.8182-.5916-.1298-1.748-.2957-2.5697-.3686-1.3693-.1215-1.9955-.1952-5.1994-.612-1.858-.2417-1.7573-.266-2.0165.488-.1353.3933-.2385 1.0654-.257 1.6733-.0398 1.3023-.2697 3.223-.486 4.059-.0928.359-.1688.887-.1688 1.1733s-.0547.6228-.1216.7478-.1436.8878-.1706 1.6953c-.027.8075-.1054 1.616-.1742 1.7966-.0688.1806-.154.9605-.1892 1.7331-.0353.7726-.091 1.5661-.124 1.7633-.101.6056-.1984 1.292-.2543 1.7929-.2847 2.5523-.368 3.3987-.3644 3.7052.005.4788-.257 2.4945-.4123 3.1674-.0683.2958-.2485.8337-.4004 1.1953-.152.3615-.3133.9397-.3586 1.2849-.0947.7214-.1686.689 1.1565.5079zm-26.8537 6.8604c-.2626-.096-.7437-.3074-1.0693-.4697-.3256-.1622-.7166-.295-.869-.295-.4147 0-1.0377-.6696-1.5335-1.6484-.281-.5548-.616-1.011-.9213-1.255-.2639-.211-.6125-.518-.7749-.6823-.3244-.3284-.9882-1.6997-.9882-2.0413 0-.1186-.0538-.2488-.1196-.2894-.0657-.0406-.1195-.1944-.1195-.3417 0-.1473-.0628-.3307-.1396-.4074-.1514-.1515-.4152-.8114-.5738-1.4356-.0548-.2155-.1647-.4703-.2443-.5662-.0826-.0995-.112-.3042-.0687-.477.0484-.1929-.0293-.573-.2141-1.0474-.1595-.4096-.3577-.9598-.4404-1.2228-.1503-.4783-.1724-.6393-.2873-2.0917-.0339-.4273-.1427-1.041-.2419-1.3636-.0992-.3227-.1804-.7364-.1804-.9193 0-.1829-.0537-.3657-.1195-.4064-.0657-.0406-.1195-.2253-.1195-.4103 0-.1851-.0837-.5719-.186-.8595-.278-.7816-.6306-2.3784-.6303-2.8538 0-.23-.062-.5796-.1382-.7769-.0788-.204-.1405-1.0415-.1434-1.9435-.0053-1.6898.0672-1.941.56-1.941.1483 0 .3365-.0807.4184-.1793.0818-.0986.3047-.1793.4953-.1793.3594 0 .4857.1724.6337.8648.0457.214.1689.3517.3566.3988.166.0417.3483.2203.4326.424.125.3019.5018.8517.9496 1.3858.4102.4893.7083 1.0583.7815 1.4912.0462.2737.239.7495.4286 1.0575.1894.308.3445.6036.3445.657 0 .2475 1.0377 2.1886 1.3504 2.526.193.2084.4118.4869.4863.619.0745.132.414.6399.7544 1.1285.3404.4887.698 1.0777.7946 1.3089.0966.2312.2349.457.3073.5018.0725.0447.1317.1598.1317.2558 0 .0959.2152.5285.4781.9613.263.4328.4781.8807.4781.9953 0 .1145.1076.3056.239.4246.1316.119.2391.2832.2391.365 0 .0817.1692.4633.376.848.2069.3847.4766.8877.5994 1.1177.2556.4789.4274.7709.7034 1.1953.1069.1643.2339.4602.2823.6574.0483.1972.2985.7731.5558 1.2798.2574.5066.5205 1.1555.5846 1.4419.1092.487.0828.5883-.4084 1.567-.885 1.7633-1.8436 2.8365-2.5138 2.8141-.1315-.0044-.4538-.0866-.7164-.1827z" id="path3983" fill="#000" stroke-width=".1195"/>
  </g>
</svg>
