<svg xmlns="http://www.w3.org/2000/svg" viewBox="0 0 210 297" version="1.1" id="svg3639">
  <g id="layer1">
    <path d="M20.9843 278.8134c-.5617-.0693-2.0691-.3676-2.974-.5887-1.2924-.316-3.1948-1.8711-3.7406-3.0582-.1558-.3387-.4233-.8197-.5945-1.0688-.1712-.2493-.7018-1.2156-1.1792-2.1478l-.8679-1.695.0207-1.9827c.0114-1.0905.0598-2.1685.1077-2.3957.3096-1.4668 1.2511-3.4934 2.0646-4.4436.5926-.6924 2.7519-2.2201 3.1378-2.2201.124 0 .2256-.0993.2256-.2203s.1396-.2203.3102-.2203c.1705 0 .4122-.1236.537-.2746.5451-.6604 1.474-.872 3.7912-.8637 2.167.0103 2.2504.0207 3.6225.6016.7724.3268 1.4415.6416 1.487.7002.0454.0584.5154.4307 1.0444.8265.8845.662 1.9295 1.901 1.9295 2.2877 0 .1976.8144 1.8324 1.0834 2.1746.3413.4339.7076 3.8.4136 3.8-.0964 0-.1753.072-.1753.1598 0 .0879.1115.1174.2478.0651.2984-.1143.3051.0817.0778 2.2533-.2039 1.9486-.3643 2.4426-1.232 3.7965-.3799.5926-.6845 1.1272-.677 1.188.0244.197-.7805.9634-1.012.9634-.1237 0-.7984.3242-1.4995.7203-1.442.815-1.8896.9752-3.753 1.3435-1.6973.3355-1.898.3604-2.3956.2994zm.6609-1.126c0-.1375-.0716-.379-.1592-.537-.0875-.1577-.3074-.6103-.4886-1.0056l-.3295-.7187.5196-.438c1.3144-1.1074 1.206-1.0736 1.6713-.5206.6006.7138.9342.655.9342-.165 0-.4773.0688-.6609.2479-.6609.1363 0 .2478.0765.2478.1706 0 .363.7184.4453 1.2338.1412.7417-.4375 1.6316-1.4081 1.4945-1.63-.0862-.1396-.1904-.1287-.3903.0415-.4262.3599-1.508.9479-1.7435.9479-.117 0-.337-.137-.4888-.3051-.259-.286-.2533-.3346.0926-.7848.2027-.2637.4294-.523.5038-.5756.1518-.1076-.011-.6477-.1953-.6477-.0653 0-.2934.1856-.5068.4132-.4842.5155-.6206.517-.8517.0103-.151-.3315-.121-.5094.1688-1.0008.3963-.6716.4394-.909.1652-.909-.261 0-.9321.8122-1.1225 1.3583-.1188.3413-.0989.514.08.6927.2926.2927.316 1.0902.0321 1.0826-.3208-.0103-.8732-.5327-1.1313-1.0736-.1612-.3376-.3754-.5067-.6873-.5428-.2492-.031-.4531-.0207-.4531.0207s.3346.5707.7435 1.1805c.4089.6098.7435 1.1684.7435 1.2414 0 .0729-.2789.3418-.6196.5979-.3408.256-.6684.5366-.728.6238-.0596.0874-.3324-.2803-.6062-.8173-.739-1.449-.907-1.642-1.162-1.3348-.1698.2048-.12.422.2775 1.2128.2663.5299.6544 1.3723.8623 1.872.3814.9167 1.2924 2.2986 1.5216 2.308.0682.003.124-.1076.124-.2451zm4.9148-2.6158c.706-.4467 2.0244-1.7204 2.0244-1.9559 0-.0864.1765-.3935.3922-.6827.6849-.9183 1.0028-2.179 1.0077-3.9956.004-1.5419-.2933-3.2217-.5703-3.2217-.0653 0-.2316-.2875-.3696-.6388l-.2508-.6387-.8266.0796c-.9064.0874-1.1624-.0889-.8519-.5863.2576-.4127.07-1.364-.3825-1.9393-.5432-.6905-2.664-2.0016-3.5527-2.1962-1.4387-.315-2.0034-.3708-2.1047-.2069-.1277.2069.322.4473 1.1118.5957.7807.1464.8997.3393.489.793-.896.9899-1.8699 3.0856-1.4338 3.0856.1278 0 .5467-.4524 1.1833-1.2785l.4125-.535.4403.4525c.669.6871 1.4857 1.3611 1.6496 1.3611.0805 0 .2381.1107.3502.2457.1656.1996.1221.4023-.2312 1.0776-.3829.7324-.4029.8445-.167.935.1475.0564.3275.005.4-.1107.0725-.1173.2487-.1685.3913-.1137.1718.0657.351-.0558.5307-.36.2554-.4322.3258-.455 1.203-.3883 1.0877.0833 1.3769.3455 1.7573 1.5939.6541 2.1472-.0445 5.1167-1.6462 6.996-.6204.728-1.8465 1.6087-3.2718 2.3502-.7125.3707-1.1117.6796-1.1119.8606-.0002.2306.256.1484 1.4038-.452.7721-.4038 1.6829-.9108 2.0239-1.1266zm-1.28-12.0179a91.9693 91.9693 0 01-.9913-.8177c-.3181-.2663-.7198-.5857-.8927-.7098-.3022-.2167-.294-.2472.207-.7715.4903-.513.5397-.5294.8232-.273.1659.15.383.273.4824.273.3388 0 1.2089.864 1.4492 1.439.4343 1.0395-.2145 1.5572-1.0778.8599zm-6.6998 13.5757c.0517-.0832-.4848-.734-1.1917-1.4457-.707-.7117-1.4885-1.5417-1.7367-1.8443l-.4512-.5502.7513-.9564c.4133-.526.8253-1.224.9157-1.5514.1543-.559.2144-.6018.9918-.705.6399-.0847.8156-.17.7752-.3764-.0596-.304-.901-.331-3.2264-.1034-1.17.1148-1.363.0977-1.363-.1184 0-.3418.3035-.5614.974-.705.3457-.074.837-.4038 1.2802-.8601l.7193-.74 1.1722.1975c1.2156.2048 1.6096.0998 1.4251-.381-.0792-.2064-1.6674-.4903-4.8274-.8621-.1818-.0207-.3454-.0465-.3638-.06-.018-.0103.0678-.2617.1915-.5558l.2248-.5346 1.4607-.002c1.343-.002 1.4735-.031 1.6194-.364.0873-.1992.3066-.4003.4873-.4474.3407-.0889 1.4192.4732 1.4192.74 0 .0833.1859.1515.413.1515.7296 0 .4535-.4436-.7847-1.2608-.6588-.4349-1.2958-.925-1.4157-1.0894-.1198-.1644-.272-.2653-.3383-.2244-.0663.0414-.2275.0103-.3582-.0724-.1988-.123-.1825-.1986.0998-.4613.1856-.1732.6198-.4074.9647-.5214.7088-.2338 1.0346-.0553 1.1686.6406.1434.7444.3786.8524 1.0254.4706.4718-.2787.5433-.3827.361-.5252-.1251-.0977-.376-.4644-.5576-.8148-.3972-.7661-.8813-.9838-1.9906-.8952-.6364.0517-1.0563.2208-1.7698.7167-.5145.3573-.9383.711-.9418.7856-.003.0745-.3036.4882-.6671.9193-.3635.4313-.6609.8362-.6609.9003 0 .0641-.1858.4111-.413.771-.2272.3598-.4131.8267-.4131 1.0375 0 .211-.0768.4602-.1707.554-.094.0941-.1777.5191-.1863.945-.009.426-.0884.8192-.1773.8743-.0964.0595-.0711.1587.0623.2445.1858.12.1818.1722-.0238.3072-.1658.1086-.1794.1634-.0414.165.2473.003.2748.529.0398.7639-.2091.2089.3882 2.6446.7455 3.0394.136.1504.2471.3454.2471.4338 0 .2487 1.3846 2.092 1.9779 2.6334.292.2663.7521.6882 1.0225.9373.9553.8799 1.3561 1.089 1.5347.8zm-4.0862-5.342c-.5295-1.4473-.5329-1.4186.1648-1.3827.8545.0414 1.0249.1851.9488.7864-.069.5457-.4851 1.2985-.7177 1.2985-.0764 0-.2546-.316-.3959-.7021zm-.4075-4.2166c.0445-.592.0721-.6177.7047-.6591.3621-.026.7698.031.9061.119.2109.1375.1862.2212-.1652.5597-.2271.2187-.6558.4426-.9525.497-.5363.0987-.5393.0956-.493-.5167zm1.9-3.2952c-.5858-.089-.5726-.2079.1078-.9726l.5622-.6319.5115.5.5115.5-.3367.3615c-.3319.3563-.4587.379-1.3564.243zm14.3327 7.8836c.0562-.091.0279-.165-.0631-.165s-.2112.0745-.2674.165c-.0562.091-.0279.165.0631.165.0908 0 .2112-.0745.2674-.165zm-3.2218-1.083c0-.5532.0253-.5749.9913-.8434 1.2159-.3382 1.3411-.7171.237-.7171-1.0169 0-1.3935-.225-1.3935-.832 0-.501.004-.503 1.0413-.5637.269-.0155.6019-.347.6084-.6054.005-.1867-2.383-.3077-3.3526-.1702-.9435.134-.9634.1283-1.202-.333-.2692-.5204-.434-.578-.7084-.2471-.2662.3206.2551 1.7496.9722 2.6652.4233.5404.729.7621 1.1541.837.9071.1597.9913.2083.9913.5772 0 .4664.3095 1.018.504.8979.0863-.0533.157-.3527.157-.6648zm-1.763-1.8661c-.3006-.09-1.182-.9843-1.0164-1.0313.7787-.2213 1.1732-.136 1.6292.3527.674.7215.4304.9913-.6129.6788z" id="path75-3" fill="#fe0000" fill-opacity="1" stroke-width=".1652"/>
    <path d="M169.3262 283.7534c-.0677-.0676-.3973-.1286-.7326-.1355-.3353-.007-.61-.0533-.6104-.1031 0-.0498-.0859-.0906-.19-.0906-.104 0-.3673-.1359-.585-.302-.2178-.166-.4662-.3019-.552-.3019-.086 0-.5156-.236-.9549-.5246-.4393-.2885-.9346-.5963-1.1006-.684-.1661-.0877-.5787-.368-.9168-.6228-.3382-.2549-.6712-.4634-.7401-.4634-.069 0-.1924-.081-.2745-.1799-.082-.0989-.1928-.1529-.246-.12-.0532.033-.115.0187-.1373-.0315-.0583-.1313-.9976-.7556-1.137-.7556-.0645 0-.5223-.4076-1.0171-.9058-.495-.4983-.9963-.9059-1.1142-.9059-.118 0-.2144-.0786-.2144-.1746s-.1479-.2454-.3286-.3321c-.1808-.0867-.3908-.2822-.4667-.4345-.0759-.1523-.3173-.4091-.5364-.5708-.219-.1617-.9027-.8115-1.5191-1.4442-.6164-.6327-1.1796-1.1503-1.2516-1.1503-.072 0-.183-.1373-.247-.3052-.0637-.1678-.239-.3546-.3895-.415-.1504-.0604-.2238-.1134-.163-.1176.0608-.004-.143-.2576-.4529-.563-.3099-.3056-.5634-.6045-.5634-.6644 0-.0599-.0796-.1088-.177-.1088-.0972 0-.2325-.104-.3005-.231-.068-.127-.4368-.5537-.8195-.948-.3827-.3944-1.2122-1.277-1.8433-1.9612a646.7396 646.7396 0 00-1.2721-1.3769c-.0686-.0731-.2545-.3231-.413-.5556-.1586-.2325-.4498-.5858-.6471-.785-.1974-.1994-.6776-.77-1.0671-1.2683-.3895-.4982-1.064-1.3406-1.499-1.872-1.0814-1.3215-1.5336-1.9099-2.2276-2.8987-.3264-.465-.8047-1.1172-1.063-1.4494-.2581-.3321-.8271-1.151-1.2643-1.8196-.4372-.6686-.8805-1.2867-.9851-1.3735-.1046-.0868-.1902-.2133-.1902-.281 0-.0677-.2906-.591-.6458-1.1628-.3551-.5718-.7187-1.23-.8078-1.4624-.0892-.2325-.2869-.5898-.4393-.794-.1525-.204-.433-.7476-.6235-1.2077-.1905-.4602-.5174-1.1055-.7266-1.434-.2092-.3285-.3804-.6345-.3804-.6799 0-.0454-.273-.6585-.6068-1.3625-.3337-.704-.7971-1.7787-1.0297-2.3882-.2326-.6096-.5076-1.3038-.611-1.5427-.4453-1.0283-.5024-1.1796-.5824-1.5439-.1098-.4995-.347-.705-.5715-.4951-.1487.139-.5342.37-1.2486.7484-.1328.0704-.5323.319-.8876.5524-1.4718.967-1.665 1.0702-2.0212 1.0792-.2048.005-.4084-.0265-.4524-.0706-.1976-.1975-.8582-.1487-1.2482.0923-.2364.1462-.5186.2273-.661.19-.3499-.0914-.5874.0264-.5874.2916 0 .2593-.6203.4837-.6974.2523-.031-.093-.1983-.0598-.5157.1021-.3081.1572-.447.2991-.4037.4123.0697.1815-.505.5512-.857.5512-.105 0-.2203.0766-.2562.1703-.0853.2224-.5998.348-.8656.2113-.2686-.138-.515-.0498-.436.156.0899.2344-1.5994.885-1.7936.6907-.0777-.0777-.297-.1413-.4874-.1413s-.4512-.0563-.5797-.125c-.1463-.0783-.2336-.0811-.2336-.007 0 .0646-.0952.112-.2114.1055-.1163-.007-.6918.085-1.279.2038-.9715.1964-1.0846.1987-1.2577.0256-.2674-.2674-.0484-.4948.6669-.6926 1.0066-.2783 2.5905-.9418 2.8095-1.1768.2898-.311.6069-.9432.5178-1.0323-.04-.04-.004-.1556.08-.2569.2032-.2448.0129-.2423-.7826.0103-1.4336.4553-2.5904.7297-2.7251.6465-.0987-.061-.0627-.116.1123-.1715.1417-.045.2576-.1324.2576-.1944 0-.1432.1014-.1673-1.087.2579-1.4556.5206-2.6386.8492-3.2003.8887-.266.0187-.6602.076-.876.1272-.2655.063-.3926.0491-.3926-.0427 0-.0747.0523-.1359.1162-.1359.1642 0 1.937-.8505 1.937-.9293 0-.0358-.1086-.0366-.2415-.002-.1328.0348-.2415.0198-.2415-.0332 0-.1709.6347-.2681.7312-.112.1225.1982.489.0416.4063-.1738-.0488-.1272.0703-.1909.455-.2433.542-.074 1.0426-.146 1.2397-.1785.0658-.0109.0594-.0743-.015-.1486-.0925-.0925-.007-.2486.2963-.5435.4101-.3983.6285-.4768 1.1952-.4294.2509.021.4562-.1573.4602-.3994.001-.0622.1716-.1572.3792-.211.3737-.0968.7411-.4094.6217-.5288-.0341-.0341-.2185.001-.4098.0784-1.7836.7198-2.1559.8242-2.0752.5823.0242-.0725.4145-.2899.8673-.483 1.9846-.8467 2.1051-.9041 3.344-1.594 1.6348-.9103 1.8918-1.0903 1.637-1.1466-.125-.0276-.3424.006-.4831.0743-.3068.1492-1.041.2509-1.041.1441 0-.1798.3152-.3656.6204-.3656.2824 0 .336-.0556.3684-.381.0342-.3446.1011-.4018.7021-.6004.3654-.1207.6716-.221.6804-.223.009-.002.0445-.112.0793-.245.0456-.1741.1648-.2415.4276-.2415.2043 0 .5144-.1242.7058-.2827.1877-.1555.6675-.4887 1.066-.7404.3986-.2518.9355-.647 1.193-.8784.2576-.2312.7002-.523.9835-.6484.2834-.1253.5438-.3024.5787-.3935.035-.091.4983-.4223 1.0297-.736 1.4257-.842 1.4426-.9333.7273-3.9296-.44-1.843-.8072-3.6618-.9508-4.7104-.059-.4318-.1914-1.3286-.294-1.9929-.1026-.6643-.2433-1.7127-.3127-2.33-.0694-.617-.173-1.2454-.2303-1.3963-.0573-.1508-.144-.8959-.1924-1.6558-.0485-.7598-.1364-1.5105-.1955-1.668-.1358-.3627-.384-3.1588-.3445-3.8804.0398-.725.04-.7083-.0459-3.2007-.0643-1.8645-.0845-3.2406-.071-4.8311.002-.1993-.005-2.5907-.0146-5.3143-.01-2.7236-.003-6.137.0144-7.5856.0226-1.8552-.009-2.6745-.106-2.7719-.076-.076-.1383-.236-.1383-.3555 0-.1196-.0543-.2174-.1208-.2174-.0664 0-.1207-.0873-.1207-.194s-.1392-.3035-.3093-.4373c-.1701-.1338-.2825-.3132-.2497-.3986.0339-.0884-.0804-.2134-.2654-.29-.1788-.074-.4877-.3772-.6864-.6738-.1987-.2965-.4525-.5695-.564-.6067-.1113-.037-.3132-.2417-.4486-.4547-.1353-.213-.489-.7133-.7857-1.1118-.2968-.3986-.5433-.786-.5478-.8609-.004-.0749-.098-.2108-.2078-.302-.2192-.1818-.8873-1.5928-.8873-1.8739 0-.3413.3708-.8867.7287-1.0718.3263-.1687.424-.169.986-.002.3432.102.8994.1857 1.2361.1862.3367 0 .953.0562 1.3694.1238 1.3057.2119 1.247.3556 1.252-3.061.007-4.7584.1322-9.306.2798-10.1682.0736-.43.3148-3.2927.3715-4.4085.0637-1.256.168-2.6217.3054-3.998.0703-.7044.1073-1.94.0824-2.7458-.025-.806-.003-1.5336.0484-1.617.052-.0843.0139-.2737-.086-.426-.0988-.151-.1693-.4504-.1567-.6655.0526-.8971-1.2902-2.617-2.25-2.8818-.8714-.2404-1.1384-.3706-1.2078-.5892-.0376-.1186-.2224-.2794-.4106-.3574-.1882-.078-.4152-.2782-.5045-.445-.0893-.1669-.2596-.3554-.3785-.419-.649-.3474.176-1.5379 1.3343-1.9256.3762-.1259.7676-.2303.8698-.2319.1022-.002.399-.1117.6596-.2445.3237-.165.7123-.2416 1.2263-.2416.4138 0 .7828-.0493.82-.1094.0372-.0602.1746-.0815.3054-.0473.1307.0342.393.008.5827-.0581.2013-.0702.4232-.0765.5328-.0152.2036.114.9413-.186.9413-.3827 0-.0616.0815-.112.1812-.112.0996 0 .1811-.0543.1811-.1208 0-.1347.6229-.1419 1.087-.0125.304.0848.9663-.1522.9663-.3458 0-.1196.9607.0826 1.1537.2428.0751.0624.3052.1319.5112.1544.206.0226.4586.1106.5611.1957.1054.0875.3128.123.4774.0817.1936-.0486.313-.0152.3572.0998.043.1122.2374.1705.5535.1661.5398-.007 1.552.4577 1.7559.807.069.1182.3564.4315.6387.6964.2824.2649.5134.5329.5134.5956 0 .0627.0815.1955.1811.2952.0996.0996.1812.2793.1812.3993s.0815.2858.1812.3685c.0996.0827.1811.2457.1811.3623 0 .1166.0785.2771.1744.3567.1373.114.146.2073.0405.4386-.1013.2223-.096.3646.022.5849.0945.1768.125.449.0773.6934-.043.2213-.0746.6112-.07.8664.005.2553-.041.527-.1016.604-.0605.0768-.146.3844-.19.6833-.1332.9052-.6944 3.1163-.8582 3.3814-.053.0858-.1155.3112-.139.5009-.088.7145-.1353 1.0293-.2606 1.734a80.274 80.274 0 00-.2583 1.57c-.0712.465-.214 1.3618-.3174 1.9929-.4565 2.785-.5345 3.5234-.5972 5.6527-.0366 1.242-.124 2.5844-.1942 2.983-.1357.7696-.2786 7.5455-.1687 7.9963.094.3855.7454.4758 1.6724.2319 1.517-.3992 2.4625-.6663 3.4634-.9781.5646-.176 1.1896-.3647 1.389-.4195.1992-.0548.9601-.27 1.6908-.478.7308-.2082 1.546-.438 1.8117-.5108.2657-.0728.5918-.1737.7247-.2243.1329-.0506.5677-.1827.9662-.2937.3986-.111 1.177-.3413 1.7299-.5117 1.4136-.4359 1.4292-.496.5783-2.2294-1.2596-2.566-1.4628-2.8382-5.2673-7.0564-1.5355-1.7026-2.1407-2.4305-2.6062-3.1346-.6396-.9676-.7048-1.1386-.4042-1.06.1279.0334.2325.1022.2325.1528 0 .2703 1.8297.5322 2.5968.3717.4542-.095.9804.1524 1.2482.587.1106.1793.5811.6758 1.0455 1.1032 1.598 1.4703 3.8149 3.8048 4.0957 4.3127.1769.32 1.2459 1.7378 1.5914 2.1107.8962.9674.8632-.2449-.0346-1.2685-.2186-.2493-.3953-.521-.3925-.604.003-.0828.1852.0533.4053.3024.2677.3028.5036.453.7118.453.529 0 .8716.1968 1.56.8963.7038.715.9412.8241.9412.4322 0-.541.7305-.1235 1.624.9285.9068 1.0674 1.3574 1.433 1.8873 1.531.2373.0438.6147.215.8387.3802.224.1653.5097.3005.6347.3005.1251 0 .389.1616.5866.3592.307.307.3477.4196.2808.7762-.0716.3816-.0414.441.3548.6977.5039.3265.5264.435.181.874-.2402.3055-.2432.3372-.0508.5498.159.1757.1755.2793.0745.468-.1237.2312-.2927.3406-1.3992.906-.2657.1357-.5337.3314-.5955.4349-.2398.4014-1.441 1.5743-1.6843 1.6448-.1411.0409-.6914.2258-1.2228.411-.5314.1853-1.5097.456-2.174.6016-.6643.1456-1.534.3476-1.9325.4489-.3986.1012-.8605.2088-1.0266.239-.463.0842-1.254.3188-1.389.4118-.0979.0675-.8429.2385-1.0838.2487-.0325.001-.2368.0589-.4539.1278-.2171.0689-.6121.1689-.8779.2223-.6296.1264-2.986.9493-3.1342 1.0945-.063.0618-.215.1124-.3377.1124-.1226 0-.4781.1359-.79.302-.312.166-.6726.3019-.8012.3019-.256 0-.7695.1478-1.7005.4894-.3321.1219-.9572.287-1.389.367-.4317.0798-.9778.2415-1.2134.359-.2356.1176-.6432.249-.9058.292-.9924.1625-1.4821.4136-1.6092.825-.2032.6578-.3878 3.8819-.3886 6.7864-.001 3.375.1239 12.8854.1822 13.8896.0232.3986.0726 1.5671.1098 2.5968.0648 1.7932.0939 2.271.2535 4.1669.0392.465.094 1.2259.122 1.6909.028.465.0874 1.0678.132 1.3396.0713.4336.1152.4877.3583.4413.2412-.0461.2863.007.3493.4116.0785.5037.0246 1.5804-.0844 1.6895-.1772.1773-.2854-.1174-.2048-.558.0663-.3624.0492-.4857-.0673-.4857-.219 0-.2535.2934-.1496 1.2682.0496.465.1152 1.1715.1458 1.57.09 1.1729.2138 1.7643.3595 1.7165.074-.0243.152-.1894.173-.367.031-.2618.1006-.3228.3684-.3228.3766 0 .62-.195.62-.4965 0-.1137.1495-.3338.3322-.4892.1826-.1554.43-.4344.5498-.62.1197-.1857.3424-.385.4948-.443.1524-.0578.366-.2864.4746-.5078.1087-.2214.3864-.5385.6172-.7045.2308-.1661.483-.4514.5603-.6341.0774-.1827.1884-.3322.2468-.3322.0584 0 .1061-.0714.1061-.1585 0-.0872.163-.3148.3624-.5057.3585-.3435.4751-.6643.2415-.6643-.0664 0-.1208-.0602-.1208-.134 0-.078.1134-.106.2718-.0673.3129.0765.8862-.3784 1.2474-.99.1231-.2084.262-.3789.3087-.3789.0467 0 .2094-.2038.3615-.453.152-.249.3603-.5176.4627-.5967.1434-.1108.1559-.1935.0543-.3592-.105-.1712-.0592-.3392.2243-.8223.196-.334.4048-.6252.4641-.6473.0593-.0221.1079-.1052.1079-.1846 0-.0793.095-.2326.2113-.3405.2324-.2158.362-.3986 1.6363-2.3085 1.0761-1.6128 1.2144-1.8346 1.5263-2.4484.2741-.5397.3135-.7771.1287-.7771-.2305 0-.1187-.385.2921-1.0062.4672-.7063 1.1628-1.9298 1.5566-2.738.2321-.4763.2658-.7496.2724-2.2111.004-.9172-.032-1.692-.0801-1.7217-.0482-.0298-.1263-.2849-.1736-.5668-.0473-.282-.1556-.6126-.2406-.7346-.107-.1535-.1222-.335-.0493-.5891.0625-.2181.0593-.4533-.008-.579-.175-.327-.4564-1.2153-.5527-1.7451-.0478-.2629-.2186-.7655-.3795-1.117-.2519-.5501-.2798-.7355-.201-1.3337.0502-.3821.0783-.8101.0624-.9511-.0216-.1914.0514-.2718.2877-.317.4433-.0847 2.0947.2193 2.3354.43.2682.2347.953.5762 1.0772.5371.055-.0173.342.0846.6378.2263.2958.1418.773.3286 1.0606.415.3408.1026.6772.3315.9662.6577.244.2751.6301.5646.8583.6433.5279.1819.8555.4768.7719.6948-.0358.0934-.0133.1698.05.1698.0634 0 .2245.0951.358.2114.1336.1162.5848.5103 1.0027.8756.4178.3654.9113.7565 1.0965.8692.1852.1127.3986.3206.4743.462.0757.1415.351.4705.6116.7312.2607.2607.474.5195.474.575 0 .0557.2717.3801.6039.7211.3321.341.6039.72.6039.842 0 .1222.0695.3172.1544.4333.3061.4187.0163 3.6496-.3552 3.9578-.0889.0737-.1616.2541-.1616.4008 0 .161-.1197.3309-.302.4284-.1922.1029-.3019.266-.3019.4491 0 .3937-.266.8699-.7275 1.3022-.3405.3189-.763.8733-1.1445 1.5016-.6344 1.0447-2.5335 4.0586-2.6309 4.175-.0556.0664-.22.306-.3656.5323a78.675 78.675 0 01-.5943.9058c-.1813.272-.3816.611-.4451.7535-.0635.1425-.1597.2783-.2138.3019-.1469.064-1.2458 1.5349-1.2458 1.6676 0 .063-.0752.158-.1672.2111-.1763.1019-1.0406 1.1957-1.0406 1.317 0 .1574-1.1621 1.4897-1.3608 1.56-.1173.0415-.3197.2754-.4496.5196-.13.2443-.4952.6344-.8117.867-.3165.2324-.8093.6672-1.0952.9661-.2858.299-.5777.5979-.6486.6643-1.162 1.089-3.8767 4.2934-4.0202 4.7457-.0488.1538-.1834.2667-.3181.2667-.1284 0-.2334.0538-.2334.1196s-.2446.3498-.5435.631c-.299.2814-.5435.6089-.5435.7279 0 .1283-.172.2983-.4228.4179-.3033.1446-.4227.2805-.4227.4811 0 .1646-.0725.2796-.1764.2796-.155 0-.4282.252-1.7043 1.5714-.1613.1668-.2933.4218-.2933.5666 0 .1448-.049.2936-.1087.3305-.1663.1028-.1352.913.0573 1.4912.0947.2847.1722.6579.1722.8294 0 .2702-.0417.3038-.3122.2521-.2728-.0522-.3022-.0273-.2333.1973.0434.1413.1326.4744.1983.74.129.5215.3377.8321.3611.5375.008-.0963.0213-.252.0302-.3459.009-.0939.0851-.1938.1692-.222.1544-.0518.6135.8558.9044 1.7878.1123.3597.1978.4592.3524.4101.2558-.0812.5861.565.6369 1.246.0453.6078.5058 1.8418.7554 2.0243.1278.0935.1714.251.1297.4693-.0497.2599.008.3807.2757.5787.2403.1777.3356.3505.3287.5957-.005.19.1285.6853.2976 1.1008.1691.4155.4276 1.0815.5744 1.4801.3776 1.0251.6344 1.514.8595 1.6363.109.0592.2243.3258.2618.6054.0368.2748.1689.6165.2933.7595.2754.3162.5764.968.6937 1.5024.0478.2179.2182.482.3785.5871.1603.105.2915.2386.2915.2967 0 .1935.5269 1.3158.6177 1.3158.0492 0 .291.332.5375.7376.3615.5952.4156.7585.2805.8466-.0921.06-.2884.0807-.4361.0461-.2164-.0508-.254-.0218-.1937.1498.0412.117.1966.3487.3454.5148.1487.166.361.4814.4717.7008.1108.2194.4295.6192.7083.8885.2788.2694.5885.6394.6881.8223.4008.7357.8555 1.3227 1.504 1.9417.375.3578.8436.897 1.0415 1.1983.3645.5549 1.9767 2.3628 2.5233 2.8296.1639.14.5227.4793.7973.754.2746.2747.6161.5365.7588.5818.1428.0453.2595.1603.2595.2554 0 .0952.0686.173.1526.173.0839 0 .2066.1223.2726.2718.0895.2024.2046.2629.4514.237.2859-.03.3312.009.3312.2826 0 .3517.5556 1.0203.8478 1.0203.1014 0 .2815.1805.4003.401.1188.2206.3817.499.5842.6186.366.2162.37.2156.6619-.0991.1614-.1741.332-.316.3792-.3153.14.002 1.1123.9721 1.1123 1.1096 0 .0775.0701.0683.1812-.024.0996-.0826.1812-.3306.1812-.551 0-.2205.0549-.4349.122-.4764.0672-.0415.111-.2223.0973-.4018-.0137-.1794.0478-.5858.1366-.9029.1249-.4461.1297-.646.0215-.8836-.1175-.2578-.0974-.3827.1245-.7777.2486-.4423.2523-.484.0615-.6948-.2623-.29-.1518-.9415.1742-1.0267.1324-.0346.2286-.1662.2286-.3127 0-.139.055-.2528.1225-.2528.0762 0 .098.2626.0575.6944-.1331 1.4212-.2087 2.389-.1957 2.5062.007.0664.0366.2567.065.4227.0282.1661.056.4075.0614.5364.01.2264.0157.2268.1729.0118.1483-.2028.17-.178.243.2789.0524.3275.1425.5015.2599.5015h.2703c.0498 0 .0906-.068.0906-.151 0-.083.068-.2228.151-.3106.1895-.2003.1955-.6534.011-.8377-.1058-.106-.1046-.1822.005-.3144.111-.1337.1116-.1857.002-.2221-.0972-.0324-.1335-.3538-.1139-1.0082.0457-1.5213.0525-1.5645.2467-1.5645.1388 0 .2013-.226.2672-.9662.0473-.5314.1115-1.0666.1427-1.1892.0961-.378-.0445-.5675-.362-.4878-.3103.078-.404-.153-.1608-.3962.0789-.0789.1422-.9865.1637-2.3491.0362-2.2978.1474-3.2679.323-2.8188.0509.1298.0979.5892.1047 1.021.0115.7282.0256.7676.1953.5435.1006-.1329.1668-.4046.1471-.604-.0483-.4882.3003-.4985.3857-.0113.0496.2825.0876.3179.1951.1812.2424-.3083.28-.736.0903-1.0254-.1013-.1547-.1449-.345-.0968-.4229.0624-.101.1191-.0852.1976.0551.1462.2612.457.2516.4733-.0147.036-.5932.059-.6771.1985-.7241.1079-.0363.151.128.151.576 0 .5076-.0345.6137-.1812.5574-.2757-.1058-.222.2379.1145.7331.2662.3919.2782.46.1208.6848-.242.3455-.2188.6352.0748.9286.1713.1714.2125.2945.1313.3926-.0683.0825-.081.3473-.0297.6265.0487.266.0486.6332 0 .816-.049.1829-.0448.3053.009.272.0538-.0333.1338.0333.1778.1479.044.1146.0225.2275-.0477.2509-.1889.063-.155.7857.0496 1.0562.0975.1289.179.3625.1812.519.003.1962.0575.2642.1762.2186.3189-.1224.4021.1933.2973 1.1273-.1173 1.0455-.0618 1.3286.2608 1.3286.2616 0 .4233.445.3013.8292-.0424.1335-.008.3534.0766.4888.1143.183.1187.2811.0172.3826-.1015.1014-.0964.234.0196.5163.0931.2264.1779 1.1115.21 2.1915.0378 1.2728.1048 1.8937.225 2.0872.1487.2394.1475.29-.009.3875-.141.0876-.1484.1439-.0342.258.1141.1142.1628.1021.2232-.0554.0776-.2022.4138-.2864.4138-.1036 0 .2379-.3395.5408-.526.4692-.3305-.1268-.2225.1376.132.3233.2536.1328.3343.2678.3458.5776.0312.8457.0539.9334.2596 1.0016.1162.0386.2929.2452.3925.4592.2368.5085 1.035 1.1017 1.836 1.3646 1.0153.3332 2.1606.908 2.2402 1.1245.0402.1092.1314.2384.2027.2872.086.059.0772.0894-.0264.0906-.0858.001-.276.1146-.4228.2524l-.2667.2504.2568.2097c.1412.1153.349.388.4617.606.1935.374.1931.4093-.006.6297-.1337.1478-.2534.1912-.3262.1185-.0677-.0677-.1955-.0716-.3109-.009-.1077.058-.3996.138-.6487.178-.4852.0776-.5088.1271-.4574.9578.0258.4167-.0288.5257-.4537.9064-.4691.4204-.642.7885-.4863 1.0357.1344.2136-.0371 1.2546-.1968 1.1933-.08-.0308-.289-.001-.4642.0652-.2028.0771-.3446.079-.3903.005-.0395-.0639-.1261-.1161-.1925-.1161-.0664 0-.0876.0537-.047.1194.0415.067-.004.0895-.1044.051-.1092-.042-.2354.0405-.3259.2127-.0812.1546-.2212.3246-.3112.3777-.0899.0531-.1635.1754-.1635.2718 0 .2025-.3101.2366-.4274.0469-.1586-.2568-.6899-.3717-1.0427-.2256-.1862.0771-.3167.1756-.29.2188.0906.1466-.5082.3547-.6403.2226zm5.2991-3.839c0-.0624-.0453-.1136-.1006-.1136-.0554 0-.1007.0791-.1007.1759 0 .0967.0453.1478.1007.1136.0554-.0342.1006-.1133.1006-.1758zm-4.4823-15.8017c-.0916-.2627-.1797-.334-.356-.2878-.1851.0484-.2344-.001-.2344-.236 0-.1636-.1032-.3908-.2295-.505-.2212-.2003-.2294-.1927-.2294.2145 0 .2505.0688.4486.169.4871.093.0357.1691.1548.1691.2646 0 .1639.0326.1728.1812.0494.1514-.1256.1812-.1081.1812.106 0 .1736.076.2564.2353.2564.207 0 .2206-.042.1135-.3492zm-2.4403-.1566c-.0386-.0964-.0672-.0677-.073.073-.005.1273.0233.1987.0634.1585.04-.04.0444-.1443.01-.2315zm1.9324-1.2078c-.0385-.0963-.0672-.0677-.073.073-.005.1273.0233.1987.0634.1585.0401-.04.0444-.1443.01-.2315zm-.4207-1.2093c-.1127-.1127-.1449-.0805-.1449.145 0 .2254.0322.2576.145.1449.1127-.1127.1127-.1772 0-.2899zm-2.2177-2.5815c.009-.4323-.0226-.5292-.1395-.4322-.1617.1342-.1273 1.1474.0355 1.0467.051-.0315.0978-.308.104-.6145zm.983-.0213c-.004-.3156.004-.6552.0168-.7549.0473-.3562-.0157-.7379-.112-.6784-.1455.09-.1631 2.007-.0185 2.007.0665 0 .1177-.2582.1137-.5737zm-.927-1.4224c-.0589-.363-.0938-.413-.1608-.2302-.1196.3262.003 1.111.136.8727.055-.0984.0663-.3875.0249-.6425zm.2051-1.265a.1211.1211 0 00-.1208-.1207.1211.1211 0 00-.1207.1207c0 .0664.0543.1208.1207.1208a.1212.1212 0 00.1208-.1208zm-21.0008-7.9321c-.1053-.181-.1288-.1863-.1319-.0292-.004.2034.1231.3865.2087.301.0282-.0283-.006-.1506-.0768-.2718zm-.1355-.3869c0-.2193-.3557-.9458-.5366-1.096-.2662-.221-.2398.002.0775.6553.2423.4987.459.7068.459.4407zm-.8794-1.9253a88.0018 88.0018 0 01-.2001-.4446c-.0892-.1993-.2905-.6143-.4473-.9222-.1567-.308-.2873-.6884-.2902-.8455-.007-.3713-.2696-1.1011-.548-1.5224-.1211-.1833-.2058-.4763-.1882-.6511.0395-.3916-.2226-1.0378-.6935-1.7097-.196-.2799-.3917-.6817-.4348-.893-.043-.2113-.1562-.449-.2516-.5281-.0954-.0792-.1757-.2868-.1785-.4613-.003-.1745-.1092-.5076-.2365-.74l-.2314-.4228-.005.3854c-.003.212.0433.4153.1023.4518.0591.0365.1446.2163.19.3996.1136.4582 1.1183 3.0378 1.3367 3.4318.0977.1763.1776.4224.1776.5469 0 .1244.0847.347.1882.4948.1035.1478.1584.3168.122.3756-.0362.0588.015.174.1139.2561s.18.2377.1803.3458c0 .1081.1089.3746.2415.592.1326.2176.2411.469.2411.5587 0 .3152.6078 1.5337.728 1.4595.0667-.0413.1044-.1121.0835-.1573zm-27.9949-3.3612c.371-.1936.2317-.2073-.3801-.0373-.5285.1468-.7754.4113-.2641.283.1838-.0461.4737-.1567.6442-.2457zm3.043-.002c.1502-.1822.1404-.1875-.106-.0561-.2811.1497-.3503.257-.1658.257.0583 0 .1806-.0903.2717-.2009zm-2.122-.3388c.129-.0975.1769-.179.1066-.1811-.0703-.002-.2334.076-.3624.1735-.129.0975-.1769.179-.1065.1811.0703.002.2334-.076.3623-.1735zm2.8312-.1317c0-.1036-.0552-.1542-.1227-.1125s-.0915.1265-.0533.1883c.1035.1675.176.1363.176-.0759zm-1.9928-.174c.0945-.153-.0654-.153-.302 0-.1561.1008-.153.1172.0231.1188.1123.001.2378-.0525.2789-.1189zm.9662-.3624c.041-.0664-.0133-.1208-.1208-.1208-.1075 0-.1618.0543-.1208.1208.0411.0664.0954.1208.1208.1208.0254 0 .0797-.0543.1208-.1208zm1.0941-.5397c.1771-.134.1901-.1773.0533-.1773-.0996 0-.2867.0798-.4156.1773-.1771.134-.1901.1773-.0533.1773.0996 0 .2867-.0798.4156-.1773zm-2.1872-1.2806c.1861-.182-.2017-.1242-.5374.0801l-.302.1838.3624-.0758c.1992-.0417.414-.1263.477-.188zm4.9623-1.515c.1637-.1073.2977-.2404.2977-.2957 0-.1338-.7377.1158-.962.3254-.1533.1433-.1407.1653.0948.1653.1495 0 .4057-.0878.5694-.195zm.7808-.6734c0-.1588-.2745-.0593-.3347.1212-.0294.0882.0258.1152.1434.07.1052-.0403.1913-.1264.1913-.1912zm-2.4923-.2887c.576-.322.9218-.6596.489-.4776-.1271.0535-.4214.1662-.6539.2504-.2325.0843-.4403.24-.4617.346-.051.2518-.029.2476.6266-.1188zm1.5934-.9466c.1288-.0942.1982-.2074.1542-.2514-.1018-.1018-.5839.151-.5839.3061 0 .1647.157.1447.4297-.0548zm41.7922 28.9326c-.052-.0842-.062-.1856-.0221-.2255.108-.1081.226.0509.1675.226-.0409.1228-.0694.1227-.1454 0zm-6.4113-.9824c-.0411-.0664-.0171-.1208.0533-.1208.0703 0 .1279.0543.1279.1208 0 .0664-.024.1208-.0533.1208s-.0868-.0543-.128-.1208zm-116.3242-1.3359c-.2527-.1288-.516-.2333-.585-.2322-.069.001-.588-.4745-1.1536-1.0569-.5656-.5823-1.256-1.1904-1.5344-1.3513-.2784-.1609-.6685-.5142-.867-.785-.1985-.271-.5542-.6994-.7906-.9522-.2364-.2529-.4298-.5008-.4298-.5512 0-.0503-.1623-.247-.3608-.4371s-.394-.5226-.4346-.739c-.0406-.2162-.143-.4197-.2278-.4522-.0847-.0325-.1898-.2498-.2335-.4827-.0437-.233-.1293-.4411-.1901-.4626-.061-.0214-.1402-.5946-.1761-1.2736-.07-1.32-.1895-1.9957-.54-3.053-.4517-1.3622-1.0684-3.936-1.1557-4.8228-.1732-1.759-.2777-2.8986-.2888-3.1486-.1464-3.2902-.1489-4.0285-.0169-5.005.0813-.602.1956-1.1535.254-1.2256.0583-.0722.1859-.3575.2835-.634.461-1.3066 1.9004-3.2458 3.0265-4.0773.332-.2452.9571-.7844 1.389-1.1982 1.522-1.4586 2.4853-2.1627 3.9635-2.897.8024-.3985 1.4617-.7603 1.4652-.8039.0035-.0436-.2727-.1176-.6137-.1645-.564-.0776-1.2008-.3532-1.6748-.7248-.0997-.0781-.4377-.2113-.7512-.2959-.405-.1093-.7198-.3115-1.087-.698a103.7138 103.7138 0 00-.89-.9252c-.7576-.7733-1.2513-1.6055-2.2964-3.8713-.3106-.6733-.2875-2.3038.0454-3.2053.4956-1.3424 1.4264-2.7173 2.5949-3.8332 1.4286-1.3644 1.5334-1.4605 2.0878-1.9147.5744-.4707.596-.6526.078-.6547-.386-.002-1.492-.3226-1.587-.4607-.0366-.0532-.4011-.2203-.81-.3713-.851-.3144-2.5837-1.4023-2.9211-1.8344-.1252-.1603-.3424-.5175-.4827-.7939-.1403-.2764-.4217-.684-.6253-.9059-.2035-.2218-.517-.7022-.6965-1.0676-.2856-.5813-.3226-.7875-.296-1.6515.0327-1.0716.3701-2.364.7398-2.834.2251-.286 1.8245-3.381 1.8245-3.5305 0-.0419-.3605-.0762-.8012-.0762-1.1731 0-1.6471-.1823-2.2281-.857-.2976-.3454-.6398-.6097-.849-.6557-.585-.1285-1.7285-.9773-2.4777-1.8393-.3896-.4482-.7757-.8859-.8581-.9726-.2771-.292-1.2404-1.5745-1.2404-1.6514 0-.0419-.2282-.4123-.5072-.823-.2789-.4108-.5747-.943-.6573-1.1827-.227-.6592-.2351-1.733-.0164-2.191.1039-.2175.2365-.558.2948-.7566.1303-.444.5238-.572.5238-.1705 0 .149-.0944.3754-.2098.5028-.1996.2206-.1985.24.0215.401.1719.1256.4412.1495 1.0489.093.647-.06.9115-.0315 1.2676.1375.5644.2679 1.8502.378 2.438.209.2453-.0706.6899-.193.9878-.272.298-.079.9406-.3279 1.428-.553.4874-.2252.9606-.4094 1.0515-.4094.0908 0 .1959-.0497.2334-.1103.093-.1506 1.0115-.5716 1.4558-.6674.1993-.0429.6069-.1297.9058-.1929.299-.0632.6522-.1636.785-.223 1.2591-.5644 2.2474-.9585 4.7105-1.8785.6643-.2481 1.5239-.5824 1.9102-.7428.3863-.1604.7689-.2916.8501-.2916.0812 0 .363-.1098.6261-.244.4013-.2046 1.7773-.6474 3.3772-1.0867.1993-.0547.7428-.2444 1.2078-.4215 1.3696-.5215 2.0026-.6806 2.8987-.7284.465-.0248 1.0357-.077 1.2682-.1162 1.5735-.2649 3.8184-.3223 4.001-.1023.0743.0895.2507.1627.392.1627.5138 0 1.9095.3495 2.3843.597 1.4262.7433 3.4889 2.7306 3.4889 3.3613 0 .1277-.133.2908-.2986.3663-.3228.147-.4919.5912-.389 1.0222.0353.1482.0972.4054.1375.5714.0723.298.0714.2984-.0691.0302-.0783-.1494-.1831-.2717-.2329-.2717-.1244 0-.3551.6918-.3584 1.0748-.0037.4278-.3019.7598-1.054 1.1734-.3487.1917-.634.3882-.634.4367-.0002.1191-.9093.5761-1.1462.5761-.1042 0-.5004.1534-.8805.341-.38.1875-1.0443.441-1.4761.5633-.4318.1224-.8394.2865-.9058.3647-.0665.0783-.3382.2123-.604.298-.2656.0855-.9994.415-1.6305.7322-1.9772.9936-2.2695 1.1046-2.535.9625-.2334-.1249-.7895-.0573-1.028.125-.0664.0508-.3594.1561-.651.2341-.2918.078-.7286.267-.9708.4198-.2422.153-.773.446-1.1798.6513-.4067.2053-.9422.5109-1.19.679-.5979.4057-.75.3929-.684-.0577.1115-.7595-.5531-.9382-1.6014-.4306-.461.2232-.6545.2619-.8329.1664-.3148-.1685-1.358-.0555-1.6176.1753-.1155.1027-.423.2447-.6832.3154-.2601.0707-.6518.3019-.8703.5137-.4351.4217-1.0435.818-1.8088 1.1779-.2723.128-1.019.7499-1.6592 1.3818-1.0547 1.0411-1.2212 1.2694-1.7733 2.4311-.335.7052-.658 1.5388-.7175 1.8524-.0596.3137-.1617.7104-.227.8817-.0971.2552-.067.3772.167.6762.2653.339.3567.3702 1.2875.4401 1.2328.0926 2.2645-.181 4.2578-1.1291 1.5372-.7312 4.1677-1.6562 6.4065-2.2528 1.5226-.4057 1.8509-.4962 2.8081-.774.2491-.0723.7247-.1873 1.0568-.2556.3322-.0683.9029-.2212 1.2682-.3398 1.2277-.3985 3.4582-.7178 5.254-.752.0663-.001.6642.0635 1.3285.144 1.2302.1491 2.2707.415 2.5967.6636.0997.076.317.1945.4832.2634 1.8203.7553 3.552 1.9686 4.1616 2.9157.1823.2832.4454.5947.5846.6923.427.299.2249 1.5264-.3266 1.9841-.1023.0849-.2226.3496-.2674.5882-.1253.6678-.4644 1.144-1.2485 1.7528-1.0285.7987-2.0765 1.2969-2.8537 1.3565-.3587.0275-.8678.1601-1.1313.2945-.2636.1345-.5404.2445-.6152.2445-.0747 0-.5224.1904-.9948.4232-.5744.283-.899.383-.98.302-.2312-.2312-.8993-.1189-2.0834.3502-.6546.2593-1.6521.6148-2.2168.79-.5646.175-1.1625.3906-1.3285.4789-.1661.0882-.6439.277-1.0618.4193-.4178.1424-.9613.3889-1.2077.5476-.7193.4635-.9288.4858-1.097.1167-.1399-.3072-.1727-.3166-.8353-.2394-.3794.0442-.8528.129-1.0521.1884-2.171.6475-3.0064.9314-3.6102 1.2269-.758.371-1.112.4336-1.1865.21-.0334-.1001-.1273-.0941-.3422.0222-.163.088-.443.1496-.6225.1366-.3713-.0268-.7076.2335-2.2947 1.7765-.578.5619-1.1715 1.249-1.319 1.527-.2476.467-.256.5489-.1094 1.0724.2017.7205.5454 1.1593.9082 1.1593.1558 0 .6274.0881 1.0478.1959 1.5229.3901 3.0115-.013 6.1999-1.6787 1.4232-.7436 4.2406-1.7696 5.376-1.958.2982-.0493.6269-.1342.7304-.1884.2024-.106.9092-.2212 1.8425-.3002.3197-.027.7739-.1023 1.0093-.1673.5598-.1546 4.3146-.071 4.9123.1093.2552.077.6709.105.9236.0623.2605-.044.4915-.0262.533.041.0405.0654.3042.1552.5862.1995.5546.0872.741.1395 2.2036.6186.5314.174 1.0477.381 1.1474.4598.0996.0788.5614.324 1.0262.545.4648.221 1.0343.5577 1.2655.7483.2312.1907.4975.3466.5918.3466.231 0 1.3679 1.059 1.5497 1.4435.08.1693.148.4498.151.6232.0098.5725-1.574 3.1268-1.9389 3.1268-.064 0-.4856.2093-.937.465-.4513.2558-.9523.4965-1.1134.5351-.1612.0386-.5104.133-.7761.21-.2657.0768-.918.1602-1.4493.1853-2.2347.1055-2.684.1594-3.2007.3842-.9575.4166-2.1838.784-2.6996.8087-.2756.0132-.8271.1769-1.2257.3636-.7452.3491-2.1.7255-2.2111.6143-.0344-.0344.0032-.207.0836-.3834.0893-.196.1028-.3642.0347-.4323-.1216-.1216-1.476.0844-1.9051.2899-.1396.0668-.4114.1417-.604.1664-.7351.0945-1.2015.2101-1.3605.3374-.302.2417-1.0356.4379-1.6467.4404-.3321.001-.93.0651-1.3286.1416-.3985.0765-.9497.1505-1.2248.1646-1.1528.0588-1.86.3613-3.1836 1.362-.166.1254-.6824.463-1.1474.7499-1.3101.8084-1.6353 1.1672-3.0873 3.4058l-.604.9313-.0605 1.2427c-.0333.6836-.1098 1.433-.1702 1.6656-.0603.2325-.1047.8031-.0986 1.2681.0088.6742-.0546.991-.313 1.5635-.3184.7059-.3227.749-.252 2.5364.0397 1 .0873 1.927.1059 2.0599.0185.1328.0727.622.1202 1.087.1135 1.1088.1927 1.5097.2982 1.5097.0476 0 .3787-.4212.7359-.936 1.9253-2.7753 3.8974-4.867 6.227-6.6044 2.0196-1.5063 2.0575-1.5318 3.1373-2.1167.5315-.2879.9935-.5568 1.0267-.5977.0332-.0409.5223-.3074 1.087-.5924.5646-.2849 1.3013-.6648 1.6371-.8442.3358-.1793.7978-.4013 1.0266-.4932.8556-.3437 1.2749-.5214 1.7447-.7395.8789-.408 2.3185-.6965 3.563-.714 1.6257-.023 3.7026.2877 4.251.6357.153.0971.5228.2146.8217.261.299.0465.6794.2054.8455.3531.166.1478.5465.3449.8454.438.4114.1282.773.4048 1.4872 1.138.7793.8001 1.059 1.2017 1.6055 2.3058.7152 1.4448.8192 1.9181.8035 3.6588-.0192 2.1456-.5574 3.6439-1.8717 5.21-1.0193 1.2149-1.6518 1.8324-1.7896 1.7472-.168-.1038-.5224.1823-1.2157.9817-.3403.3924-.8206.9381-1.0674 1.2128-.2469.2748-.563.6448-.7027.8223-.1396.1775-.3794.3286-.533.336-.2842.0134-1.216.791-1.1248.9385.1071.1734.7791-.031.8515-.259.0689-.217.1644-.2289 1.3627-.1683.9482.048 1.3241.1131 1.4228.2465.0737.0997.2368.1831.3623.1853.2732.005.6327.2965.9256.7509.1177.1827.293.3321.3894.3321.0964 0 .2526.1496.3472.3325.0945.1828.2861.4358.4258.5622.1396.1264.2539.3092.2539.4063 0 .097.1902.4356.4227.7523s.4228.6528.4228.7469c0 .094.0577.2288.1283.2993.1901.1902.2325.9847.0721 1.3512-.077.176-.2576.456-.4013.622-.1437.1661-.4451.5466-.6697.8455-.2272.3024-.528.5608-.678.5825-.1484.0215-.412.171-.586.3322-.3752.3477-.9597.3838-1.7423.1077-.289-.102-.717-.2153-.9512-.252-.7148-.1118-.776-.1271-1.1505-.2878-.1993-.0855-.5007-.1447-.6699-.1314-.181.0142-.3999-.0779-.532-.2239-.1235-.1364-.3136-.248-.4225-.248s-.4311-.2175-.716-.4832c-.3-.2797-.6377-.483-.8021-.483-.1562 0-.4179-.051-.5815-.1132-.2075-.0789-.4928-.0562-.9439.0751-.3555.1035-.8366.207-1.0691.2299a57.933 57.933 0 00-.936.1027c-.5631.0669-.6134.016-.3128-.316.2402-.2654.1492-.4055-.16-.2464-.122.0627-.4907.0966-.8194.0753-.3288-.0213-.6622.0147-.741.0801-.0787.0654-.5978.1452-1.1535.1774-.5557.0322-1.4652.1-2.021.1508-1.034.0943-1.3982.002-1.4105-.357-.003-.0884-.0845-.1413-.1812-.1176-.0966.0237-.6997.0663-1.3402.0948l-1.1645.0518-.148-.6172c-.107-.446-.2264-.6529-.43-.7457-.5642-.257-.8079-1.2944-.5349-2.2772.124-.446 1.0371-1.609 2.6373-3.3589.509-.5566.9526-1.054.9858-1.1053.0332-.0514.7941-.847 1.691-1.768.8967-.921 1.9551-2.1086 2.352-2.6389.3968-.5303.818-1.0614.936-1.1803.118-.1188.2145-.2552.2145-.3031 0-.048.126-.2231.2802-.3893.7625-.8223 1.4137-2.0506 1.0872-2.0506-.2133 0-1.047.3515-2.0747.8747-1.203.6124-2.4462 1.5798-3.8219 2.974-.465.4712-.9742.9802-1.1315 1.131-.1574.1508-.4221.4874-.5883.7479-.1663.2605-.3513.5322-.4112.6039-.464.5545-.9883 1.3464-1.3569 2.0496-.24.4579-.4809.8927-.5354.9663-.0948.128-.6317 1.7207-1.032 3.0619-.227.76-.6367 2.9612-.7306 3.9242-.0371.381-.1177.7886-.1792.9059-.0614.1173-.1743.4578-.2509.7567-.2245.8764-.6183 1.5303-1.0438 1.7332-.3571.1703-.423.1665-.8467-.0496zm127.6453-.5035c-.0704-.336-.0645-.5725.0169-.6785.1015-.132.1416-.1206.2128.0604.1282.3256.123.9827-.008 1.0639-.0623.0385-.1618-.1622-.2213-.4458zm-5.3319-.9194c-.0716-.1338-.0973-.3286-.0573-.4331.0401-.1045.0162-.19-.053-.19-.0806 0-.113-.3915-.0903-1.0888.0275-.843.0845-1.143.2524-1.3286.1236-.1365.1569-.2397.0774-.2397-.0767 0-.1395-.163-.1395-.3623s.0543-.3623.1208-.3623c.0664 0 .1255-.2582.1312-.5737.01-.5393.0172-.552.1232-.2114.062.1993.0833.933.0472 1.6305-.138 2.669-.1817 3.3022-.231 3.3515-.028.0281-.1096-.0584-.1812-.1921zm-.349-.2003c.002-.1993.0295-.2662.0602-.1487.0306.1175.0286.2806-.004.3624-.0331.0818-.0581-.0144-.0557-.2137zm5.8544.1007c-.1295-.1295-.0927-.5017.0589-.5953.0855-.0528.1067-.0332.0548.0508-.0465.0753-.026.2467.046.381.123.2298.016.3393-.1597.1635zm-15.0572-.765a.1211.1211 0 01.1208-.1208.1211.1211 0 01.1208.1208.1211.1211 0 01-.1208.1208.1211.1211 0 01-.1208-.1208zm-101.654-.177c.0434-.1128.0788-.2278.0788-.2556 0-.0278.0815-.0505.1811-.0505.2657 0 .2209.2118-.0787.3722-.2243.12-.249.111-.1811-.066zm112.006-.7892c.0348-.1329.084-.2416.1095-.2416.0255 0 .0463.1087.0463.2416 0 .1328-.0493.2415-.1094.2415-.0602 0-.081-.1087-.0463-.2415zm4.6247.0675c0-.0957.0544-.2076.1207-.2487.0664-.041.1208.0373.1208.174 0 .1368-.0543.2487-.1208.2487-.0664 0-.1207-.0783-.1207-.174zm-1.0404-1.2073c-.0952-.248.0389-.5872.194-.4913.067.0414.1217.1775.1217.3025 0 .2975-.2229.4308-.3157.1888zm.0305-1.0946c-.0423-.1104 0-.1812.1078-.1812.0975 0 .1774.0815.1774.1812 0 .0996-.0485.1811-.1079.1811-.0593 0-.1391-.0815-.1773-.1811zm-4.1685-2.0748c.006-.8023.0118-.817.2167-.564.158.195.1928.388.1402.7751-.1191.876-.3641.731-.3569-.2111zm1.9777-1.3675c-.0985-.1593.046-.3855.1895-.2967.1467.0907.1458.4175-.001.4175-.0625 0-.1472-.0543-.1883-.1208zm.068-.8394c-.005-.286.0314-.3776.1168-.2922.0824.0824.085.2232.008.4167-.1097.2746-.1173.267-.1244-.1245zm.9873-.5088c-.0822-.0822-.1495-.2317-.1495-.3323 0-.1583.0263-.1566.1952.0123.1074.1073.1746.2569.1495.3323-.033.0991-.0873.0957-.1952-.0123zm-67.967-7.6535c.1993-.1634.4834-.2973.6314-.2976.148 0 .5704-.1637.9388-.363.3683-.1993.7519-.3623.8524-.3623.1005 0 .303-.0762.4502-.1693.1471-.0931.4577-.2082.6902-.2558.2325-.0475.627-.184.8768-.3033.581-.2777 1.3073-.3939 1.5353-.2457.2638.1715.0806.2775-.5913.342-.4979.0478-.6063.1014-.6367.3147-.033.2314-.1217.2597-.8897.2839-.8587.027-1.278.163-2.1665.7024-.2657.1613-.6222.2942-.7921.2953-.17.001-.4146.0818-.5435.1793-.129.0975-.3432.1771-.476.1769-.209 0-.1927-.0406.1207-.2975zm8.9645-.096c.0452-.2366.1444-.3096.473-.348.5536-.0645.8077.2116.3534.3843-.1762.067-.4471.1536-.602.1925-.2476.0621-.2747.0344-.2244-.2287zm-1.0232.009c.0276-.083.1227-.151.2113-.151.0886 0 .1837.068.2114.151.0299.0899-.0557.151-.2114.151s-.2413-.0612-.2114-.151zm6.2503-1.0568c0-.0664.0847-.1208.1883-.1208.1035 0 .1547.0543.1136.1208-.041.0664-.1258.1208-.1883.1208s-.1136-.0543-.1136-.1208zm3.4384-.61c-.0395-.064.013-.1432.1169-.176.1038-.0326.2749-.0866.38-.12.292-.0922.1387.2037-.1634.3154-.15.0555-.2923.0472-.3335-.0195zm8.8584-.0764c.0872-.0349.1914-.0306.2315.01.04.0401-.0312.0687-.1585.0634-.1407-.006-.1694-.0344-.073-.073zm-20.0569-.3702c-.3091-.0704-.2584-.225.1208-.3677.8862-.3337 1.1438-.3816 1.378-.2563.3631.1944.2081.3758-.3652.4274-.2847.0257-.6086.0912-.7199.1457-.1113.0545-.2974.0774-.4137.0509zm2.247-.6993c-.2135-.2314-.2277-.2932-.0807-.3496.317-.1217.4396-.0802.2912.0986-.107.1289-.0965.1833.0456.2378.1013.0389.1842.1268.1842.1953 0 .1914-.1551.1272-.4403-.182zm.5006-.1768c-.0411-.0666.078-.1768.2646-.245.7074-.2588.7169-.2671.401-.3502-.4293-.113-.1392-.244.5114-.2309.5805.0116.863-.0868.7542-.263-.1052-.17.3064-.322 1.1102-.4095.4105-.0447.9268-.1725 1.1474-.284.2205-.1114.6455-.2937.9445-.4051 1.3147-.49 1.4832-.5653 1.7185-.7668.1369-.1171.4907-.2282.7862-.2468.2956-.0186.5976-.094.671-.1674.0735-.0735.2365-.1336.3623-.1336.1258 0 .2542-.0974.2853-.2165.0834-.319.6693-.329.8656-.0146.1388.2223.1317.246-.0617.204-.1203-.0262-.2052-.1124-.1886-.1915.0492-.2343-.1494-.165-.453.1581-.156.1661-.4042.302-.5516.302-.1474 0-.2992.0815-.3375.1812-.0382.0996-.1732.1811-.3.1811-.2682 0-.5409.2798-.4101.4207.0492.053-.0611.0603-.2453.016-.2452-.0588-.3542-.0296-.4074.109-.099.258-.8744.6377-1.5097.7393-.2876.046-.5954.1561-.684.2448-.0886.0886-.244.1611-.3453.1611s-.3555.0893-.565.1984a40.208 40.208 0 01-.5908.302c-.1153.057-.4176.1035-.6717.1035-.2713 0-.5586.0876-.696.2123-.5017.4546-1.616.6963-1.8045.3914zm3.08-.1205c0-.0664.1223-.12.2718-.119.2197.001.237.0243.0906.119-.2342.1513-.3624.1513-.3624 0zm-3.0421-.928c.0872-.0349.1913-.0306.2315.01.04.0401-.0312.0687-.1586.0635-.1406-.006-.1693-.0344-.073-.073zm2.024-.7492c-.0711-.115.4226-.2872.5262-.1835.0635.0635-.2258.2854-.3766.2887-.046.001-.1132-.0463-.1496-.1052zm-24.2247-.6292c0-.0728.1073-.283.2385-.4673.5404-.759.6-1.5444.1054-1.3874-.2787.0885-.7063-.2402-.7063-.543 0-.119-.1564-.244-.3925-.3135-.2845-.0838-.4041-.1976-.4346-.414-.0232-.1642-.1183-.4073-.2114-.5402-.0931-.133-.1693-.4438-.1693-.6908s-.0543-.4827-.1207-.5238c-.0665-.041-.121-.1665-.1213-.2788-.0006-.263-.5459-1.3399-.7682-1.5174-.2164-.1729-.4609-1.2305-.3944-1.7064.0279-.1992.1304-.5797.2279-.8454.2278-.6212.4337-2.4073.55-4.7708.1225-2.4922.0964-3.3818-.0991-3.3818-.0671 0-.215.1087-.3288.2416-.1138.1328-.3073.2415-.4302.2415-.1228 0-.3049.0815-.4045.1812-.0996.0996-.2724.1794-.384.1773-.1856-.004-.1848-.0174.0087-.1643.2546-.1933.2713-.315.0433-.315-.1815 0-.3678.5416-.2512.7303.0391.0634 0 .1156-.087.1161-.0869 0-.2186.1228-.2926.2718-.4175.8398-.7267 1.368-.846 1.4455-.0743.0482-.2032.2521-.2864.453-.0832.2008-.2004.3651-.2604.3651-.06 0-.1608.136-.224.302-.063.166-.1736.302-.2456.302-.072 0-.0956.057-.0524.127.0792.128-.5268.7792-.6296.6764-.0305-.0305.0609-.2833.203-.5619.3765-.738.2139-.722-.2434.0241-.2158.352-.521.7699-.6784.9284-.1573.1585-.286.3936-.286.5224 0 .2147-.8953 1.8488-1.0732 1.9587-.0423.0261-.172-.022-.2882-.107-.1872-.1369-.1905-.172-.0289-.306.1004-.0833.1825-.2135.1825-.2891 0-.0757.4424-.9251.9832-1.8875.5407-.9625 1.1661-2.098 1.3898-2.5237.2237-.4256.4632-.8417.5321-.9248.069-.0831.1692-.4279.2227-.7662.0765-.484.0624-.615-.066-.615-.0897 0-.163.0931-.163.207 0 .114-.1064.3178-.2364.453s-.4353.4768-.6784.7591c-.497.5773-.6.6178-.6904.2718-.0991-.379-.4275-.2833-.6215.1811-.0971.2325-.2202.4231-.2734.4236-.0532 0-.2326.2012-.3987.4461-.166.245-.4242.5682-.5737.7184-.1494.1501-.273.3706-.2744.4899-.0015.1192-.109.3527-.2389.5188-.1299.166-.2374.384-.2389.4842-.0015.1003-.109.2488-.2391.33-.13.0812-.4283.4476-.6628.8141-.5879.919-.7084.844-.1904-.1186.1073-.1993.2717-.6069.3654-.9058.0937-.299.3222-.7941.5077-1.1004.1855-.3063.3373-.6745.3373-.8184 0-.2516-.0136-.2544-.3623-.074-.2545.1315-.3623.2763-.3623.4862 0 .2403-.0608.2988-.31.2988-.1704 0-.419.0585-.5526.13-.2252.1204-.2322.1095-.0977-.151.0798-.1545.2718-.4509.4267-.6586.1548-.2077.248-.4111.207-.4521-.041-.041.0107-.17.115-.2867.1918-.2147.6594-1.1895.9418-1.9634.0849-.2325.2438-.5314.3533-.6643.3163-.384.5007-.9117.4164-1.1915-.0633-.21-.0484-.2299.0808-.1069.0871.083.1966.151.2433.151.098 0 .35-.6756.35-.9386 0-.1502-.0305-.1527-.1951-.016-.1694.1405-.189.1305-.1493-.0758.0308-.16.1434-.2378.344-.2378.2535 0 .3098-.0713.3755-.4754.0642-.3952.0522-.441-.0716-.2717-.1381.1888-.4243.284-.4243.141 0-.0344.1417-.3336.3149-.6648.2136-.4084.2906-.6993.2393-.9037-.0994-.396-.289-.3827-.4396.0308-.222.6093-.535 1.1454-.7487 1.2819-.1162.0743-.2114.2752-.2114.4465 0 .1761-.159.4896-.3655.721-.201.2252-.3375.4824-.3033.5716.0342.089.0162.1336-.04.0988-.1414-.0873-.6925 1.0485-.6334 1.3052.0136.059-.0743.222-.1954.3624-.121.1403-.4077.6356-.637 1.1006-.2293.465-.4588.8636-.51.8857-.0513.0221-.0933.1106-.0933.1966s-.0788.2217-.1751.3017c-.0963.0799-.2963.399-.4444.7092-.148.3102-.3954.7321-.5495.9377-.1542.2056-.2803.4365-.2803.5133 0 .0768-.048.1396-.1067.1396s-.141.095-.1831.2113c-.1815.5022-.7922 1.3529-1.3037 1.816-.2464.2232-.4181.477-.3836.567.035.0914-.1008.2839-.3087.4376-.2043.151-.3714.3698-.3714.4863 0 .2652-.1445.3605-.3521.2322-.125-.0772-.1041-.154.0963-.3543.1407-.1407.2558-.281.2558-.3117 0-.0307.2465-.3976.5478-.8153 1.0419-1.4446 1.5725-2.2278 1.7418-2.571.0656-.133.2702-.4954.4547-.8056.8446-1.4193 2.1094-3.7405 2.4568-4.5087.3888-.8596 1.2646-2.7011 2.5276-5.3143.7695-1.5922 1.3298-2.9591 1.3298-3.2443 0-.101.0481-.2134.107-.2498.0588-.0364.2033-.4336.321-.8828.1177-.4491.2598-.8683.3157-.9314.056-.063.1017-.2908.1017-.5061s.048-.4212.1067-.4574c.0587-.0362.1442-.366.19-.7328.0458-.3669.183-1.0157.305-1.442.1218-.4262.1954-.8012.1634-.8332-.032-.032.0306-.23.1392-.44.1086-.2099.1741-.446.1457-.5244-.0284-.0785.0178-.2787.1028-.4448.2351-.4595.5665-1.6676.5047-1.84-.03-.084-.0067-.2463.0521-.3606.0587-.1143.1287-.4676.1555-.785.0268-.3176.1656-.9578.3084-1.4228.1428-.465.3134-1.0629.3791-1.3286.0657-.2657.1763-.6462.2457-.8454.0695-.1993.1717-.5798.2272-.8455.25-1.1982.3548-1.6058.5431-2.1136.1109-.299.2206-.6522.2438-.785.1035-.593.3838-1.5932.514-1.834.0783-.1451.1425-.3807.1425-.5235 0-.2467.5911-2.8624 1.0946-4.8435.2631-1.0353.293-1.4348.1073-1.4348-.4444 0-4.287 2.228-4.809 2.7883-.122.1309-.5918.3437-1.0442.4731-.4525.1294-1.0336.3814-1.2914.5601-.4524.3135-.4828.3182-.8685.1343-.3582-.1708-.3968-.238-.372-.647.0174-.285.1182-.5297.2685-.6514.1323-.1072.277-.3093.3214-.4492.0443-.1399.2823-.405.5288-.5894.2465-.1843.6928-.5668.9917-.85.5658-.536 1.3868-1.1311 1.5607-1.1311.0554 0 .1753-.0901.2664-.2004.0912-.1101.356-.2881.5885-.3955.2325-.1074.6673-.3538.9663-.5475.2989-.1938.8152-.4839 1.1474-.6446.3321-.1607.8376-.4492 1.1232-.641.2857-.192.558-.349.6051-.349.1817 0 .7565-.6329.91-1.002.1425-.3426.266-1.0428.3885-2.2028.2315-2.191.2949-2.9873.2964-3.7226.001-.4745.042-.926.0912-1.0032.113-.1777-.0314-3.0012-.2169-4.2381-.1374-.9162-.3578-1.3585-.6771-1.3585-.0878 0-.2487-.1359-.3575-.302-.1088-.166-.2492-.302-.3118-.302-.0627 0-.3146-.1575-.5598-.35-.2453-.1926-.5818-.3895-.7478-.4375-.1661-.0481-.3757-.1466-.4658-.219-.1826-.1464-.3962-.2762-.998-.6064-.919-.5042-2.4444-2.4435-2.1825-2.7745.0617-.078.1482-.3416.1921-.5859.085-.4716.0818-.47 1.2198-.6511.2657-.0423.782-.1626 1.1474-.2673.643-.1843 1.915-.2493 5.4954-.281 1.9973-.0177 3.1823.2226 4.5692.9265.188.0954.4055.1741.4831.1748.1541.001 1.047 1.7951 1.047 2.1033 0 .1046.1052.2954.2338.424.3298.3298.4734.9403.6128 2.6046.0667.7971.1863 2.1287.2658 2.959.1756 1.8366.1422 5.057-.0662 6.3665-.0842.5294-.1321 1.0256-.1065 1.1026.0654.1962.4663.1756 1.815-.0935 1.3066-.2606 3.1274-.5347 4.8544-.7306.6311-.0716 1.5651-.2438 2.0756-.3826.7543-.2052 1.0002-.2274 1.3123-.1186.2112.0736.4405.099.5096.0563.1796-.111.668-.1888 1.296-.2063.3177-.009.6009-.0886.6815-.1918.106-.1357.1767-.1443.306-.0371.0924.0767.2325.0997.3113.051.2458-.1519 1.8146-.0703 2.0263.1054.1933.1604.3209.0817.4478-.2761.076-.2147 1.8295-.091 2.0663.1457.07.07.28.1274.4665.1274.2804 0 .3712.08.5243.4626.1623.4057.26.483.794.6284.4142.1128.7008.2834.8965.5338.1582.2024.3711.4631.4732.5794.102.1162.1856.2638.1856.3279 0 .064.1223.1813.2717.2605.4183.2217.8286.7464.7693.9838-.0293.1174.0234.2902.1171.384.0937.0936.1704.2107.1704.26 0 .0493.084.1825.1865.2958.1026.1133.2138.3566.2471.5406.0334.184.1397.4473.2363.5852.0966.1379.1756.3771.1756.5317 0 .1546.0822.44.1826.6343.1218.2354.1806.6864.1766 1.3527-.003.5498-.0002 1.0812.007 1.1808.007.0996-.0786.5073-.1905.9058-.112.3986-.2184 1.0537-.2366 1.4557-.0495 1.0956-.5777 3.2346-1.4748 5.9723-.1632.4982-.3944 1.3406-.5138 1.872-.3786 1.686-.7427 3.0157-.8582 3.1343-.0615.063-.1118.199-.1119.302 0 .2961-.8055 2.7118-1.4114 4.2332-.6745 1.6939-1.867 4.287-2.7232 5.9217-.3498.668-.7068 1.3616-.7933 1.5415-.0865.1799-.207.4086-.2677.5082-.0607.0996-.2808.5073-.489.9059-.2083.3986-.6087 1.078-.8897 1.5097-.281.4318-.6648 1.0568-.853 1.389-.188.3321-.3797.631-.426.6643-.1168.084-1.2826 1.7596-1.6703 2.401-.1759.2908-.5043.7528-.7298 1.0265-.2255.2738-.4795.6608-.5643.8601-.0848.1993-.2567.4712-.382.6041-.1252.133-.5204.6765-.878 1.2078-.3578.5313-.8493 1.2106-1.0923 1.5096-.6408.7881-1.565 2.1392-1.565 2.2878 0 .0703-.0453.1277-.1009.1277-.0555 0-.677.8289-1.381 1.842-.7041 1.013-1.5011 2.0842-1.7712 2.3805-.27.2962-.491.5769-.491.6236 0 .1026-2.1297 2.2544-3.3922 3.4273-.5005.465-1.0162.9813-1.146 1.1474-.2987.382-1.2999 1.087-1.5436 1.087-.1014 0-.218-.0543-.259-.1208-.1205-.1947-.4188-.1402-.8252.151-.6803.4875-.9323.5756-1.422.4973-.2587-.0414-.4713-.1362-.4723-.2108-.001-.0745-.0496-.211-.1081-.3034-.0882-.1392-.2012-.1219-.6618.101-.3055.148-.5861.3186-.6236.3793-.0948.1533-.2955.1383-.2955-.022zm-9.7774-14.5575c.0633-.1664.1116-.4756.1074-.6871-.0075-.3766-.0102-.3784-.1272-.0852-.0657.1647-.1908.382-.278.483-.0873.101-.1948.336-.2391.5222-.0746.3137-.0621.3286.1707.204.1382-.0739.303-.2705.3662-.4369zm13.104-.3471c.2426-.3654.4765-.6653.5198-.6666.0434-.001.242-.2768.4412-.6124.1993-.3356.5572-.8645.7954-1.1753.2381-.3109.7505-1.0272 1.1385-1.5918.388-.5647.9337-1.2984 1.2127-1.6306.279-.332.617-.8213.7513-1.087.1343-.2657.4544-.7277.7112-1.0266.5207-.606 1.577-2.1857 2.261-3.3818.5997-1.0483.8477-1.454 1.5873-2.5968.5822-.8995 1.3144-2.1574 2.3059-3.9616.8254-1.5021 2.1932-4.3934 2.4681-5.2176.1552-.465.326-.897.3796-.9602.0536-.063.0975-.2288.0975-.3683 0-.1394.2136-.8759.4748-1.6365.5319-1.5493.7025-2.159.8564-3.0595.0581-.34.3003-1.4336.538-2.43.613-2.5682.7947-3.5614.693-3.7882-.0487-.1086-.0835-.4964-.0774-.8618.007-.4351-.0584-.7684-.1904-.9662-.1362-.204-.1848-.4641-.1497-.8012.0291-.2791-.005-.534-.0762-.5783-.0707-.0437-.0971-.2347-.0589-.4258.0543-.2716.014-.3761-.1867-.4835-.2045-.1095-.2314-.1828-.1336-.3655.1694-.3165.153-.6068-.0343-.6068-.0862 0-.3681-.2165-.6266-.4812-.8482-.8686-1.6493-.94-4.7122-.4197-1.0629.1805-2.313.3471-2.778.3701-1.413.0701-1.9686.199-2.6217.6088-.531.3331-.6538.538-.8338 1.3923-.0746.3538-.179.6977-.232.7641-.1714.2149-.831 3.0381-.908 3.8866-.041.4531-.0906.9869-.1101 1.1862-.0847.8669-.7448 4.3111-1.0068 5.2539-.1016.3653-.1742.8587-.1613 1.0963.0128.2376-.0595.591-.1608.785-.1012.1942-.1844.5025-.1848.6852-.0004.1827-.0466.3322-.1026.3322-.226 0-2.0451 6.1762-2.3658 8.0318-.1897 1.0977-.5772 2.5862-.7433 2.855-.0496.0802-.1319.3403-.1829.5779-.051.2376-.2352.8396-.4095 1.3378-.206.5892-.2978 1.0611-.2623 1.3498.0752.612.4602 1.4471.636 1.3797.1314-.0504.4513.859.3877 1.1023-.0134.0515.0132.4468.0593.8786.046.4318.1095 1.4645.141 2.2948.0317.8304.089 2.3522.1275 3.3819.0648 1.7334.1235 2.2948.2399 2.2948.0251 0 .2442-.299.4867-.6643zm-10.2336-1.7038c-.0208-.0996-.0922-.1886-.1586-.1977-.1763-.0243-.6649.747-.661 1.0437.0028.2202.0598.193.4303-.2056.2349-.2527.41-.5409.3893-.6404zm33.5992 16.151c0-.0587.1086-.1351.2415-.1699.2852-.0746.3278.0968.0505.2032-.2535.0973-.292.093-.292-.0334zm3.8649-.0616c0-.0261.0815-.0787.1811-.117.0997-.0382.1812-.017.1812.0475 0 .0643-.0815.117-.1812.117-.0995 0-.1811-.0214-.1811-.0475zm-2.778-.29c0-.0638.0879-.189.1952-.278.1688-.1401.1891-.1312.151.0658-.0456.2347-.3461.419-.3461.2122zm-45.6501-6.4564c.0024-.083.143-.314.3127-.5133.2395-.2815.2768-.2994.167-.0802-.0777.1552-.1123.311-.0769.3465.0665.0664-.2153.398-.3381.398-.038 0-.067-.0679-.0647-.151zm6.88-2.3087c0-.1086.0478-.1975.1062-.1975s.1737-.163.2562-.3623c.0825-.1993.1998-.3623.2605-.3623.1258 0-.0692.4063-.3993.8315-.17.219-.2235.2407-.2235.0906zm-2.4131-1.1062c.084-.1013.1777-.1592.208-.1288.0838.0838-.0864.3129-.2323.3129-.0801 0-.071-.0693.0243-.1841zm.3618-.5708c.001-.083.053-.232.1157-.3311.151-.2388.4036.001.2962.2807-.0897.2338-.4147.2735-.412.0504zm.4812-.7741c0-.1808.2716-.52.3684-.4602.1988.123.1247.3883-.1268.454-.1329.0348-.2416.0375-.2416.006zm1.691-4.6308a.1212.1212 0 01.1207-.1208.1212.1212 0 01.1208.1208.1212.1212 0 01-.1208.1208.1211.1211 0 01-.1208-.1208zm.3623-.3552c0-.1368.0543-.2487.1208-.2487.0664 0 .1207.0783.1207.174 0 .0958-.0543.2077-.1207.2488-.0665.041-.1208-.0373-.1208-.174zm60.9934-2.2788c0-.1588.3368-.572.4081-.5008.1206.1206-.0718.5985-.241.5985-.0919 0-.167-.044-.167-.0977zm6.7637-6.0352c0-.0606.11-.2098.2444-.3314.1874-.1696.2776-.188.3865-.0791.089.089.0993.182.0273.2493-.1784.1667-.6583.2842-.6583.1612zM56.8142 173.871c-.9009-.3065-1.1845-.4701-1.726-.9957-.3562-.3459-.6787-.7512-.7164-.9007-.0378-.1494-.1123-.2717-.1656-.2717s-.2151-.2443-.3597-.5428c-.1445-.2986-.3158-.5756-.3805-.6157-.1798-.111-.3498-.6355-.466-1.4376-.1525-1.0516-.294-1.6353-.5128-2.1143-.1062-.2325-.2306-.6084-.2765-.8353-.0459-.227-.1895-.5259-.3193-.6643-.1297-.1384-.267-.4058-.305-.5942-.0382-.1884-.1428-.3707-.2327-.4052-.132-.0506-.1231-.1308.0462-.4175.1787-.3024.1842-.3705.0372-.4613-.1313-.0812-.1429-.1725-.0487-.3835.0885-.1984.0775-.43-.0389-.8167-.0893-.2968-.1255-.6519-.0803-.789.1064-.3232.0518-1.184-.0841-1.3245-.0604-.0624-.0477-.217.0295-.3615.0743-.1387.1523-.6807.1733-1.2044.021-.5237.0839-1.0133.1395-1.088.134-.1797.4122-1.0718.3817-1.2238-.1174-.5853.2997-.7611.4274-.1801.0653.2973.1402.3623.4175.3623.186 0 .5485.091.8057.2022.2572.1113.5848.1896.7279.174.1431-.0154.2958.0295.3393.0998.0434.0703.1728.1279.2874.1279.1146 0 .3023.159.4172.3534.3096.5241 1.0893 1.096 1.4945 1.096.22 0 .4689.1223.6758.332.1801.1827.464.4631.6308.623.1667.16.3032.391.3032.5134 0 .1223.0501.2224.1114.2224s.174.1894.2503.4208c.0764.2315.3475.5994.6026.8177.3249.2781.4895.5346.55.8569.0747.3982.4455.9237.6523.9243.0373.0001.216.2349.3972.5216.1812.2868.456.5892.6108.672.4865.2604 1.6197 1.8529 1.7375 2.4415.0429.2147-.0139.5194-.1495.8014-.152.3164-.2209.749-.226 1.4211-.004.5314-.0384 1.0206-.0764 1.087-.038.0664-.0787.2764-.0904.4667-.0444.7194-1.412 2.244-2.6185 2.919-1.0824.6056-1.9647.6505-3.3729.1714zm105.51-5.927c-.7301-.1215-1.7555-.5921-2.5426-1.1671-.2923-.2136-.6059-.3883-.6969-.3883-.3187 0-1.1069-.597-1.487-1.1261-.2109-.2938-.5287-.609-.7061-.7004-.5181-.267-.6506-.3847-1.945-1.7274-.756-.7842-.9535-1.0474-1.2079-1.6094-.0676-.1495-.202-.2717-.2985-.2717-.0966 0-.3773-.1903-.6238-.4228s-.4906-.4227-.5425-.4227-.1306-.1653-.175-.3674c-.0444-.202-.29-.5611-.546-.798-.4048-.3744-.4467-.4612-.3215-.6659.1188-.1942.107-.2563-.0674-.3554-.1162-.066-.2113-.2235-.2113-.35 0-.2936-.2492-.8451-.3818-.8451-.0558 0-.1014-.1327-.1014-.2948 0-.1622-.0472-.324-.1049-.3597-.0577-.0357-.1387-.2764-.18-.535-.0414-.2585-.153-.5346-.248-.6135-.095-.0789-.209-.3574-.2532-.619-.0442-.2615-.13-.5061-.1906-.5436-.0607-.0375-.1103-.2178-.1103-.4008 0-.1829-.1368-.6161-.304-.9627-.6016-1.2472-.64-2.2612-.1136-3.01.2462-.3503.9219-.6323 1.5147-.6323.4404 0 .4704.0248.5965.4932.1005.3729.1793.4753.3234.42.2454-.0941 1.2125.3722 1.3658.6586.1299.2428 1.7007 1.3269 1.9224 1.3269.0768 0 .287.0973.467.2162.5343.353.7931.5026 1.1122.643.1661.073.3835.1828.4831.244.9395.5764 1.3385.864 2.0244 1.4593.4376.3798 1.189.8849 1.6697 1.1224.4808.2375 1.1164.6742 1.4124.9702.2961.2961.5742.5384.618.5384.0439 0 .535.3668 1.0913.8152.5564.4484 1.2206.9239 1.4761 1.0566.2556.1327.5253.2957.5995.3623.5356.4806.7944.6646.935.6646.3706 0 .8978.2714 1.0114.5207.0669.1469.2782.348.4696.4469.439.227.578.3968.9375 1.146.6571 1.3698.755 2.6438.2946 3.8345-.2308.5968-1.8436 1.6013-3.4697 2.1609-.712.245-2.312.2858-3.4955.0891zm-39.2715-37.7983c0-.045.0808-.1492.1798-.2313.2727-.2263.086-.3877-.3423-.2959-.2096.045-.4295.1104-.4888.1456-.3693.219-5.1352.2505-6.1728.0407-2.8388-.5741-2.9461-.5989-5.6162-1.2945-1.1625-.3028-2.2942-.5954-2.515-.6501-.2207-.0547-.4934-.1828-.6059-.2846-.1124-.1018-.584-.2426-1.048-.313-1.004-.1524-2.6627-.5003-4.4064-.9242-1.3317-.3238-3.269-1.159-3.8791-1.6724-.1979-.1665-.5452-.3907-.7718-.4983-.2266-.1075-.672-.5028-.99-.8785-.3178-.3757-.7357-.819-.9286-.985-.3904-.3361-.3458-.2908-1.6034-1.6305-1.3997-1.4912-1.8518-2.0942-1.8518-2.47 0-.184-.1239-.5189-.2753-.744-.1514-.2252-.5006-.98-.776-1.6776-.5223-1.3232-.8037-2.7785-1.0158-5.2539-.1595-1.8627-.1484-6.2825.0182-7.2467.0804-.465.1574-.927.1712-1.0267.1602-1.1603.8294-3.5027 1.915-6.7032.7057-2.0807 2.0043-5.5934 2.1433-5.7974.0452-.0664.178-.4197.2948-.785.3139-.9807 2.587-6.3966 3.9624-9.4404.2202-.4875.4993-1.1308.6202-1.4298.205-.5066 1.1159-2.6234 1.6633-3.865.6438-1.4601.679-1.5365.9598-2.0833.3322-.6468 1.2724-2.5632 1.6741-3.412.7083-1.4969 1.6633-3.6338 1.749-3.9136.0487-.1595.2345-.54.4128-.8454.1782-.3054.3988-.7456.4901-.978.0913-.2326.4063-.9391.7-1.5702.2936-.631.6331-1.5822.7545-2.1136.1313-.5748.4937-1.5168.8945-2.3253.3706-.7474.6738-1.3866.6738-1.4204 0-.0337.2075-.482.461-.9962.7247-1.469 2.1548-4.7368 2.3708-5.4172.265-.8345.3606-1.952.1852-2.1634-.0761-.0916-.104-.2743-.0623-.406.0582-.1833-.0843-.3947-.6074-.9013-.3759-.3641-.6481-.719-.605-.789.0431-.0697-.0152-.4412-.1296-.8255-.1144-.3842-.196-.8073-.1814-.9401.0146-.1329-.0727-.5405-.1942-.9059-.2484-.7473-.1977-1.752.098-1.939.096-.0608.3409-.1114.544-.1124.2033-.001.475-.0816.604-.1792.276-.2087 1.5649-.2471 2.054-.0612.179.0681.6582.141 1.0647.1618.9162.047 2.0355.3189 2.1642.5256.0531.0853.2225.155.3763.155.1538 0 .4178.1088.5867.2416.169.1329.3944.2416.501.2416.1067 0 .2884.0497.4037.1104.4688.2468 1.613.735 1.7228.735.0646 0 .1175.0572.1175.1271 0 .0699.163.184.3623.2534.1993.0694.3624.1966.3624.2825 0 .086.1223.1879.2717.2264.1495.0386.3649.2356.4787.438.1139.2022.304.4022.4228.4444.3502.1244.6385.4235.6385.6625 0 .1226.0443.2229.0985.2229.1606 0 .626.9145.626 1.2303 0 .1603.0445.3431.0988.4062.3945.4585.4533 2.7806.0799 3.154-.0982.0983-.1786.2865-.1786.4182 0 .3538-.482 1.3497-.7413 1.5316-.1237.0868-.226.2498-.2275.3623-.001.1125-.4914.7209-1.089 1.352-.9468 1-1.3482 1.5355-2.0203 2.6954-.084.145-.4874.9702-.8963 1.8337-.409.8636-.9693 1.842-1.2452 2.174-.5811.6996-1.965 3.1917-2.7672 4.983-.3051.6813-.5548 1.273-.5548 1.3149 0 .0419-.2124.517-.472 1.056-1.085 2.2523-1.5094 3.1966-1.7703 3.939-.8764 2.4944-1.2504 3.4941-1.4682 3.9253-.9955 1.9713-2.0915 4.1762-2.2513 4.5293-.1052.2325-.4102.8281-.6777 1.3237-.2676.4955-.4864.973-.4864 1.061 0 .088-.08.2821-.1777.4312s-.3977.8645-.6668 1.5898c-.4887 1.3174-1.5139 3.4595-1.9462 4.0666-.1258.1768-.2288.3495-.2288.3838 0 .0344-.271.5318-.6024 1.1054-.3922.6792-.7319 1.4936-.9738 2.3346-.3592 1.2488-.73 2.3615-.9536 2.8616-.2587.5787-.852 2.2705-.852 2.4294 0 .096-.163.669-.3623 1.2735-.1992.6046-.4153 1.4047-.4801 1.778-.1309.7528-.4363 2.0785-.8383 3.638-1.2218 4.7396-1.1998 4.5246-.8465 8.2733.2562 2.7188.428 3.065 1.9049 3.8386 1.2111.6344 2.9814 1.1064 5.7214 1.5255.3135.0479.6667.1684.785.2678.3498.2936 1.1273.5756 1.9665.7132 2.9666.4863 3.9856.555 7.7631.5234 4.246-.0355 4.1536-.0323 5.4318-.1854.5146-.0616 1.819-.189 2.8987-.2829 3.7361-.3251 4.7424-.4329 5.1031-.5464.1993-.0627.77-.1432 1.2682-.1788.4982-.0357 1.1233-.116 1.389-.1786.2657-.0625.8364-.1406 1.2682-.1734 2.8635-.2178 5.2133-.4353 8.5753-.7939.4318-.046 1.0642-.1495 1.4055-.23.6777-.1598.7685-.3188.7685-1.345 0-.252.1149-.7207.2554-1.0418.1404-.321.2627-.7456.2717-.9435.012-.2623.12-.426.3986-.604.2633-.1681.4208-.3941.5065-.7271.1108-.4301.3079-2.855.2699-3.3214-.0277-.34.0123-.9125.0942-1.3507.008-.0453.1241-.1169.257-.159.1328-.0423.2458-.1682.251-.28.008-.1634.0215-.1677.07-.022.0333.0995.09.2626.126.3623.0361.0996.0746.599.0857 1.1097.0158.728.0703.984.2528 1.1856.2117.2338.2457.2392.377.0598.1719-.2351.3505-1.5063.3012-2.1437-.0206-.2669.0188-.453.096-.453.0722 0 .1312.1088.1312.2416 0 .3419.297.3.4634-.0654.2061-.4523.417-1.9648.3469-2.4876-.0381-.2837.001-.5357.104-.6716.0908-.1197.1706-.3807.1774-.58.007-.1992.059-.471.1161-.6039.0784-.1823.1059-.1026.1123.325.009.6157.1825.8666.2933.425.038-.1513.1014-1.7407.141-3.532.0657-2.9749.1381-3.6752.3453-3.3399.0405.0656.0693.9535.064 1.9732-.005 1.0197.001 2.9138.0137 4.2091.013 1.2954.021 2.464.018 2.5968-.015.6569-.1549 2.4338-.2019 2.5665-.1224.3457.0626.4998.4414.3677.2863-.0998.3492-.1799.2973-.3785-.0716-.2738.2204-.6836.4872-.6836.1003 0 .1624-.14.1624-.3662 0-.2219.075-.3949.1904-.4392.2345-.09.447-.6135.327-.8051-.0486-.0775-.0897-.2215-.0915-.32-.002-.0986-.0983-.1977-.2146-.2202-.1668-.0324-.2117.0435-.2132.3603-.001.2208-.053.4825-.1157.5816-.1966.3109-.3808-.0361-.3588-.6761.0307-.8922.0105-1.4923-.0732-2.1771-.0677-.5543-.0465-.6402.2007-.8134.3533-.2474.465-.0928.4684.648.003.6466.2075 1.4494.3692 1.4494.156 0 .145-.2855-.0256-.6598-.1208-.265-.1035-.3483.122-.5884.2093-.2228.2463-.3637.1817-.6933-.0445-.2275-.155-.5283-.2455-.6684-.1404-.2173-.1381-.2765.0153-.4039.1444-.1197.167-.3629.1149-1.2322-.0395-.6589-.0166-1.1412.0584-1.2317.2227-.2683.148-4.3008-.085-4.5816-.1337-.1613-.1273-.2616.039-.6123.158-.3326.1855-.6462.1333-1.5167-.0405-.675-.0206-1.0974.0515-1.0974.0645 0 .1234.068.1308.151.0572.64.1217.979.2219 1.166.064.1198.1173.973.1181 1.8962.001.9231.0127 1.9773.0263 2.3427.0376 1.0114.0257 1.2091-.1212 2.001-.0748.4031-.1097 1.0705-.0776 1.4831.0342.4393.004.8379-.074.9619-.099.1587-.0864.3211.0505.6488.1463.3503.154.4935.0383.7208-.1686.3315-.2217.8272-.0885.8272.0507 0 .2144-.1301.3639-.2891.249-.265.2754-.4275.3165-1.9462.0247-.9114.078-1.69.1183-1.7304.2124-.2123.284.5056.2718 2.7199-.0127 2.2902.0283 2.7372.2328 2.5327.1555-.1555.3762-1.9526.3142-2.5584-.0643-.6286.1606-2.0329.3107-1.9401.047.029.0974.3342.1124.6783.0317.7287.0958.8703.3696.8163.1555-.0307.2-.1793.2-.6678 0-.8332.2348-.8469.266-.0155.0328.8696.2757 3.3737.353 3.6383.0338.1163.1363.2114.2275.2114.2524 0 .3553.2443.3693.8766.007.3161.0687.6966.1372.8455.0685.1489.1921.4143.2748.5897.105.2229.1135.3847.0282.5372-.0827.1477-.0816.3177.003.5264.1163.2862.2605 1.3553.3873 2.8722.029.3473.006.6605-.0519.6961-.0586.0362-.0554.2365.007.4548.0615.2146.112.8573.112 1.4284 0 .9807.0161 1.0456.2918 1.1712.1606.0732.3648.285.4539.4708.2002.4178.5337.5044.641.1665.1195-.3766.2678-.2985.3593.1892.0452.2407.1315.526.1919.634.0604.1081.1682.4303.2396.716.0719.2875.2215.5548.335.5983.1127.0433.4302.2307.7056.4165.2753.1858.555.3378.6214.3378.0665 0 .2326.2258.369.5016l.2482.5016-.4818.5474c-.4075.463-.4703.6044-.4077.9175.1228.6136.1884.793.2897.793.0531 0 .247.2273.431.5051.2971.449.319.5473.1971.8842-.0754.2085-.137.5884-.137.8442 0 .2557-.0841.558-.187.6716-.1156.1277-.2025.5005-.2276.9757-.052.9853-.1265 1.1491-.5614 1.2361-.2328.0465-.3968.1771-.4724.3759-.0637.1675-.1705.3046-.2373.3046s-.1542.1304-.1941.2898c-.04.1594-.2908.465-.5573.6792-.2666.2142-.5391.5457-.6057.7368-.0666.191-.1622.3474-.2124.3474-.0502 0-.2402.138-.4221.3066-.2196.2034-.409.2817-.5634.2327-.128-.0406-.4684-.093-.7566-.1166-.2882-.0235-.7287-.1282-.9788-.2327-.25-.1045-.5755-.19-.7232-.19-.1477 0-.3699-.112-.4938-.249-.1298-.1434-.3185-.2246-.4452-.1915-.2751.072-1.3409-.2958-1.639-.5655-.1226-.111-.2872-.2018-.3657-.2018-.0785 0-.3732-.1037-.6548-.2305-.2816-.1267-.7837-.264-1.1159-.3049-.3321-.0409-.794-.1134-1.0266-.161-.4942-.1013-2.582-.095-5.5558.0167-1.1625.0437-2.8746.101-3.8046.1274-.93.0264-1.9355.1041-2.2344.1727-.299.0686-.765.1214-1.0358.1174-.2708-.004-.6688.084-.8845.1956-.2562.1324-.5164.1754-.7506.124-.2114-.0464-.4282-.0208-.5286.0625-.0936.0777-.3223.127-.5084.1096-.186-.0174-.4659.0108-.622.0626-.513.1704-.9132.2262-1.7291.2413-.5911.0109-.8692.0728-1.046.2327-.2219.2008-.2494.2022-.3525.0179-.0986-.1762-.1752-.182-.645-.0485-.2933.0833-.6317.1381-.7522.1219-.1204-.0162-.3485.0553-.5067.159-.227.1487-.6146.185-1.8343.1714-1.5082-.0167-2.4684.1087-2.7141.3544-.0816.0816-.0784.1483.01.2027.258.1595.1243.2844-.2915.2726-.2325-.007-.4227-.0489-.4227-.094zm7.3398-1.7799c.0267-.08-.0633-.1434-.2038-.1434-.251 0-.3261.1268-.1686.2843.1119.112.3136.0356.3724-.1409zm.994-.1925c0-.1104-.0847-.1477-.2417-.1067-.1328.0348-.2415.1112-.2415.1699s.1087.1067.2416.1067c.1328 0 .2415-.0764.2415-.1699zm21.71-24.4187c-.1151-.1152-.3459.0712-.2601.21.051.0826.1185.0805.2053-.006.071-.071.0958-.1627.0548-.2037zm2.2023-1.7786c.001-.1202-.0525-.1849-.1189-.1438-.0664.041-.12.2209-.119.3996.001.2542.0275.2856.119.1439.0644-.0996.118-.2795.119-.3997zm-91.9572 25.7527c-.1915-.0538-.528-.2773-.7477-.4965-.5396-.5385-.8182-.7654-1.0479-.8535-.124-.0476-.1697-.1621-.128-.3215.0664-.2541.017-.2893-.5968-.4238-.2088-.0457-.3321-.1516-.3321-.2851 0-.1168-.0842-.3325-.187-.4793-.1284-.1834-.1625-.3972-.1088-.6833.043-.229.0365-.4838-.0143-.566-.0508-.0823-.103-.2896-.1158-.4608-.0128-.1711-.1397-.6093-.2819-.9737-.1521-.39-.2588-.9366-.2592-1.3286-.0004-.3743-.0848-.8247-.1925-1.0283-.1588-.3-.1711-.4974-.0714-1.1474.0662-.4318.122-.9753.124-1.2078.009-1.0398.1156-2.3983.1986-2.5326.05-.0809.088-.3583.0845-.6165-.0036-.2582.0444-.501.1067-.5394.0622-.0385.1132-.1781.1132-.3104 0-.2444.324-.9638.4836-1.0739.1049-.0723.3168-1.3042.4258-2.476.0433-.465.1007-1.0356.1276-1.2681.336-2.9054.4009-5.16.2345-8.1526-.048-.8636-.0715-2.005-.0523-2.5364.0385-1.0599.0335-3.1817-.0128-5.444-.0198-.9658.0196-1.5508.1166-1.732.113-.2113.1141-.352.0046-.6163-.0818-.1975-.1026-.4612-.0492-.6231.051-.1544.1112-.5252.1338-.8242.0226-.2989.07-.7337.1052-.9662.1162-.7664.0636-1.3543-.134-1.4988-.1503-.11-.1642-.2066-.0667-.4632.0679-.1783.0775-.3526.0214-.3872-.056-.0347-.1049-.2808-.1085-.547-.0037-.2663-.0364-.5321-.0726-.5907-.0362-.0586.0674-.4879.2303-.954.2166-.62.2856-1.0372.257-1.5549-.0214-.389.0141-.7754.079-.8584.0803-.1029.0705-.151-.0308-.151-.0982 0-.123-.1024-.0729-.302.091-.3621-.2322-.4364-.3455-.0793-.0388.1224-.3476.402-.686.6214-.3385.2193-.8403.5681-1.1151.7752-.2748.207-.7606.5117-1.0796.677-.607.3146-2.1055 1.6693-2.318 2.0956-.068.1363-.2384.2773-.3787.3134-.1404.036-.4015.2405-.5802.4542-.1788.2138-.6684.5577-1.088.7643-.4197.2066-.9433.5616-1.1637.789-.2203.2273-.4784.4133-.5736.4133s-.4915.2174-.8808.4831c-.3893.2657-.756.4831-.8151.4831-.059 0-.1812.089-.2714.1976-.0901.1087-.3599.3213-.5993.4725-.2395.1511-.512.3476-.6057.4365-.1897.18-1.4051 1.087-1.6665 1.2435-.1358.0813-.1523.0183-.087-.3304.0479-.2547.03-.4622-.0436-.5077-.326-.2015-.0568-.5741 1.1043-1.5286.6758-.5555 1.2664-1.0372 1.3123-1.0704.046-.0332.1208-.1799.1664-.326.0795-.255.0693-.2588-.2571-.096-.187.0933-.4592.2807-.605.4166-.1459.1358-.3172.247-.381.247-.0636 0-.1338.0459-.156.102-.022.056-.3737.3283-.7813.605-.4075.2767-.8053.5806-.884.6753-.0785.0947-.5603.3455-1.0705.5573-.5103.2118-1.1452.4964-1.4109.6324-.7652.3916-.8942.4474-1.0342.4474-.0725 0 .0485-.1494.2688-.3321s.5406-.468.7118-.6341c.1713-.166.7401-.6824 1.2641-1.1474 1.1013-.9773 3.0772-2.9733 3.0772-3.1086 0-.2196-.3829-.0541-1.0423.4504-1.1847.9064-1.4038 1.0777-1.727 1.3493-.7868.6617-1.6824 1.3516-1.9183 1.4778-.2436.1304-.5851.4136-1.1879.9851-.1885.1787-.3459.2241-.5765.1662l-.3172-.0796.283-.2623c.1557-.1442.4231-.369.5944-.4995.3429-.2612.5639-.7807.3321-.7807-.0775 0-.5736.326-1.1026.7246s-1.0314.7247-1.1167.7247c-.0853 0-.2585.1152-.385.256-.1933.215-.9043.7304-1.7296 1.2537-.1048.0665-.3888.2703-.6311.453-.537.4048-.587.4087-.587.0462 0-.195.144-.384.453-.5943.249-.1697.7246-.5627 1.0567-.8734.3322-.3108.8071-.6958 1.0555-.8557.2484-.16.656-.4785.9059-.708.6368-.5847 2.7225-2.3128 3.6312-3.0084.4187-.3206.8259-.6861.9047-.8123.0788-.1262.2098-.2295.2912-.2295.0813 0 .206-.1087.2771-.2416.0711-.1328.207-.2415.302-.2415s.2343-.1153.3097-.2562c.1507-.2815.0132-.243-.4003.112-.1356.1165-.2114.1316-.2114.0421 0-.2407-.2876-.1518-.6706.2072-.2027.19-.6239.4585-.936.5965-.312.138-.5678.2948-.5684.3484-.0004.0536-.1364.1602-.3019.237-.5719.2652-.323-.1194.4563-.7053 1.96-1.4736 2.6945-2.0594 3.0375-2.4224.2047-.2166.6438-.5957.976-.8425.3321-.2468.6854-.525.785-.6184.0997-.0933.3462-.2536.5478-.3562.2016-.1026.4346-.3135.5177-.4686.083-.1551.5839-.569 1.113-.9197.529-.3507.9618-.7176.9618-.8153 0-.0977.0784-.1776.1743-.1776.0959 0 .2453-.096.3322-.2135.0868-.1174.3072-.3088.49-.4255.1826-.1166.332-.2866.332-.3778s.307-.4569.682-.8125c1.3804-1.3089 3.6141-3.6668 4.0073-4.23.1081-.1549.3095-.3903.4475-.5232.138-.1328.3805-.4317.5387-.6642.3558-.5227.816-1.077 1.5835-1.9075.6902-.7467.9326-1.1742 1.0104-1.7823.0535-.4181.041-.437-.2412-.3662-.1637.041-.7081.3427-1.2099.6702-.5017.3276-.991.5653-1.0873.5284-.1003-.0385-.1751.0033-.1751.0979 0 .1898-.1878.3192-1.4862 1.0243-1.566.8505-4.0213 1.5378-6.8476 1.917-.0996.0133-.4257.0925-.7246.176-.299.0834-1.0352.1554-1.6362.16-.8998.0069-1.177-.0375-1.5701-.2513-.2626-.1428-1.0497-.4738-1.749-.7356-1.2434-.4653-2.2884-.9735-3.137-1.5253a54.4413 54.4413 0 00-.9289-.5866c-.3034-.1869-.6663-.5726-.9058-.963-.2198-.358-.541-.8621-.7138-1.1201-.5053-.7542-1.1956-2.4625-1.1956-2.9584 0-.2497.0553-.5994.1229-.7772.1176-.3094.1343-.3148.3925-.127.457.3326.5723.3505.8188.1274.1967-.178.2855-.1908.5089-.0732.8842.4656 4.4087.7687 5.9472.5115.465-.0778 1.1987-.194 1.6305-.2582 1.0395-.1547 3.1702-.6873 3.9253-.9811.3321-.1293.968-.422 1.413-.6505.4449-.2285.9471-.4155 1.116-.4155.3215 0 4.7168-2.0978 4.8513-2.3154.0426-.069.2745-.2157.5154-.3261.4842-.222.7845-.4028 1.9575-1.1786.6849-.453 2.4181-2.0413 3.0227-2.77.3166-.3815.7007-.6566.9167-.6566.1112 0 .4508-.2096.7546-.4657.6762-.5703.9232-.6546 1.9995-.6831.465-.0123 1.1258-.1167 1.4684-.232.4612-.1554.684-.177.8585-.0837.1295.0693.4471.1379.7056.1524.5986.0335 1.4564.4701 1.975 1.0051.222.2291.5549.4498.7395.4903.1846.0406.4005.1518.4796.2472.0792.0953.2428.1734.3636.1734.1208 0 .2561.059.3008.1313.0446.0722.1897.1029.3223.0682.24-.0627.8186.383.8186.6306 0 .064.1793.2273.3986.3628.3186.197.4294.3745.5523.8855.2189.9095.3844 1.3275.639 1.6135.1875.2105.2154.4094.178 1.2682-.025.5721-.131 1.2234-.242 1.4861-.1085.2572-.1993.6105-.2017.785-.0024.1747-.0819.4534-.1768.6194-.095.1661-.1746.43-.177.5865-.0023.1565-.14.446-.3062.6433-.166.1974-.302.4304-.302.5179 0 .0874-.0815.1903-.1813.2285-.0997.0383-.2762.2751-.3921.5263-.3389.7341-1.294 2.1299-2.1029 3.073-.1102.1285-.382.462-.6039.741-.2219.2792-.7222.8337-1.1117 1.2322-.786.8042-1.4677 1.7293-1.3565 1.8405.0397.0397.1944.0082.3438-.07.1494-.0784.4346-.1493.634-.1577.1992-.0084.5677-.0648.8188-.1252.3796-.0914.515-.0682.8037.1373.191.136.428.2472.527.2472.0989 0 .2125.0853.2525.1895.0472.123.1546.1635.3059.1155.1509-.0479.2734-.0021.3472.1297.0966.1727.1733.1831.5024.0684.2993-.1043.476-.0988.7706.0243.4484.1874.4886.1973.8007.1973.1306 0 .423.163.65.3623.227.1993.5143.3615.6384.3605.2003-.0017 1.4594.567 1.6145.7293.1603.1677.735.4803.883.4803.0916 0 .265.1087.3852.2416.1202.1329.292.2416.3819.2416.0898 0 .278.1319.4181.2931.1402.1612.398.353.573.426.3204.134 1.2238 1.3561 1.2238 1.6558 0 .0888.041.1614.0913.1614.2116 0 .4466.8438.4542 1.6305.006.6318-.0804 1.105-.3418 1.8721-.1924.5647-.4152 1.1082-.495 1.2078-.0798.0997-.2058.324-.28.4985-.1785.4203-.863 1.1924-1.057 1.1924-.0846 0-.2252.086-.3124.191-.1548.1866-.5133.3973-1.5098.8877-.4747.2336-1.3807.239-1.3807.0081 0-.0491-.3212-.1257-.7138-.1701-.3927-.0444-.7793-.1596-.8592-.2559-.0799-.0962-.1996-.1415-.2659-.1005-.0663.041-.3183-.1434-.56-.4099-.2417-.2664-.6296-.5739-.8621-.6832-.2325-.1093-.5586-.386-.7247-.6148-.193-.2659-.44-.4431-.6843-.4912-.2102-.0413-.505-.2058-.6551-.3656-.15-.1597-.3462-.2904-.436-.2904-.0897 0-.212-.1288-.2718-.2861-.0978-.2573-.6327-.4964-.7802-.3488-.0304.0303-.0246.4206.0128.8671.0423.5036.0163.9088-.0684 1.067-.0884.1652-.0982.356-.0278.5411.0598.1573.0634.3672.0078.4664-.0555.0991-.0554.254.0003.344.059.0955.0291.3678-.0716.6534-.095.2693-.1376.5736-.0947.6762.043.1026.0733.4583.0674.7905-.0059.3321-.0038.7941.0047 1.0266.0233.6348.0196 1.564-.0085 2.174-.0556 1.2065-.0162 2.2738.0947 2.5655.0645.1696.08.3458.0344.3915-.0455.0456-.0924.3094-.104.586-.028.668-.1201 1.4264-.2003 1.6505-.0357.0997-.0668.3442-.0693.5435-.0024.1993-.0327.6613-.0672 1.0267-.0346.3653-.0669.8273-.0717 1.0266-.0048.1993-.04.4438-.0781.5435-.0382.0996-.0946 1.1595-.1253 2.3552-.1668 6.492-.2546 8.0026-.5292 9.1086-.2233.8996-.2436 1.233-.1764 2.8987.0707 1.7515.1053 5.0323.0574 5.4453-.038.328.2674 2.8175.3694 3.0111.2668.5061.1716 3.3237-.1249 3.6984-.0553.0699-.0689.2481-.0302.3961.0902.3449-.2877 1.3398-.6142 1.6173-.1382.1174-.4773.2733-.7536.3464-.3233.0856-.5238.2155-.5628.3646-.0333.1274-.2464.3093-.4736.4042-.2272.0949-.4812.2548-.5646.3553-.0834.1004-.401.3287-.7056.5073-.5406.3168-.5813.322-1.686.215-.6227-.0603-1.1976-.0756-1.2777-.034-.08.0416-.3022.0316-.4937-.0222zM46.856 83.2616c.1753.0458.2596-.009.31-.2014.0432-.1655.1334-.2396.2411-.1983.1788.0686.7625-.4296.7625-.6508 0-.0694.0997-.1262.2216-.1262s.36-.1495.5292-.3322c.3995-.4312 1.0227-.9964 1.0988-.9964.1757 0 .9283-.8014.9283-.9884 0-.1207-.0307-.2194-.0681-.2194-.0375 0-.5403.3778-1.1173.8395a470.5584 470.5584 0 01-2.1029 1.6708c-.5796.4573-1.1774.9888-1.3285 1.1811l-.2747.3498.2795-.1956c.1538-.1075.388-.1672.5205-.1325zm5.01-4.317c.2408 0 2.3425-1.9485 2.3425-2.1719 0-.0704.136-.19.302-.2656.269-.1226.454-.42.1991-.3203-.111.0435-1.2479 1.0222-1.8707 1.6104-.211.1993-.5463.5016-.745.6717-.1987.1702-.4972.4691-.6633.6643l-.302.355.3098-.2718c.1704-.1495.3627-.2718.4275-.2718zm105.2464 29.1078c0-.0664.0576-.1208.1279-.1208.0704 0 .0943.0543.0533.1208-.0411.0664-.0986.1208-.128.1208-.0292 0-.0532-.0543-.0532-.1208zm-10.8098-2.174c-.041-.0664-.017-.1208.0533-.1208s.128.0544.128.1208c0 .0664-.024.1208-.0534.1208-.0293 0-.0868-.0544-.1279-.1208zm-.0604-.7922c0-.1036.0552-.1542.1228-.1125.0675.0417.0915.1265.0533.1883-.1036.1676-.176.1363-.176-.0759zm.5885-2.5595c-.0554-1.1903-.0253-1.7028.1182-2.0104.2883-.6178.3408-.2963.279 1.7085-.0145.4744-.065.634-.2006.634-.1134 0-.187-.1242-.1966-.332zm.717-.6944c-.0648-.5427-.002-.9059.158-.9059.1299 0 .1262.813-.005 1.1474-.0762.194-.1064.1462-.1527-.2415zm1.8566-.0811c.0212-.1443.0994-.2823.1737-.3068.0853-.028.1135.0687.0765.2623-.0713.3728-.3046.4143-.2502.0444zm1.615-.0897a.1349.1349 0 01.0438-.1851.1349.1349 0 01.185.0437.1349.1349 0 01-.0436.185.1349.1349 0 01-.1851-.0436zm.2604-1.1359c-.084-.2188.04-.807.1701-.807.14 0 .1387.8115-.001.8981-.0595.0368-.1354-.004-.1687-.091zm-4.4352-.8371c-.002-.5851-.1252-.936-.3273-.936-.1146 0-.1534-.0695-.1067-.191.0403-.1052.0733-.2139.0733-.2416 0-.0278.0576-.0506.1279-.0506.0704 0 .089.0628.0417.1395-.0551.0892-.033.1065.0615.0482.0812-.0502.1182-.168.0823-.2617-.0666-.1736.1502-.7716.2797-.7712.0392.0002.0837.598.0989 1.3286.023 1.1045-.002 1.3283-.151 1.3283-.1208 0-.1792-.1273-.1804-.3925zm2.6588.2042c0-.1035.0552-.1541.1227-.1124.0675.0417.0915.1265.0533.1883-.1035.1675-.176.1363-.176-.0759zm-3.1168-.476c.002-.1992.0295-.2661.0602-.1486.0307.1175.0287.2805-.004.3623-.033.0818-.058-.0144-.0556-.2137zm5.018-.4628c-.14-.3462-.115-.6375.0415-.481.072.072.1123.2595.0895.4166-.0366.2515-.0522.2592-.131.0644zm-1.8917-.2719c.006-.1407.0344-.1693.073-.073.0349.0872.0306.1914-.01.2315-.0401.0402-.0687-.0312-.0634-.1585zm-.008-1.9526c-.001-.1495.0525-.2717.119-.2717.1513 0 .1513.1281 0 .3623-.0948.1465-.1175.1292-.119-.0906zm-3.1827-.2032c-.0362-.0944.0124-.2366.1082-.316.1419-.1178.174-.0985.174.1048 0 .3042-.1915.4476-.2822.2112zm.5923-.755c-.0437-.1138.004-.2829.1082-.3875.1669-.167.1855-.1534.1855.1351 0 .3807-.1838.5387-.2937.2524zm4.6455-.5757c-.003-.2598.0324-.3202.1296-.223.0955.0955.0966.1965.004.3563-.1136.1955-.13.179-.1333-.1333zm-5.4902-.5093c-.0425-.1108-.021-.2575.0475-.3261.0858-.0858.1248-.023.1248.2013 0 .3726-.0603.4163-.1723.1248zm2.3487-.949c.084-.1012.1776-.1592.208-.1288.0838.0838-.0864.3129-.2324.3129-.08 0-.0709-.0693.0244-.184zm-1.4593-.2583c-.0828-.2178-.0825-.3614.001-.4449.1574-.1574.1966-.1065.288.374.0909.4772-.1153.5278-.289.0709zm4.6813.0326c-.0494-.1258-.0614-.2571-.0266-.2919.1101-.1102.207.0704.1609.2997-.0423.2102-.0488.2098-.1343-.0078zm.0243-.8282c-.0817-.2012-.0667-.936.019-.936.0628 0 .114.2174.114.483 0 .3908-.0665.617-.133.453zm-111.1042-.1428c0-.0287.17-.1732.3777-.321l.3776-.269-.2104.321c-.1754.2679-.5449.4502-.5449.269zm2.348-.1328c.3256-.2463.6351-.2435.43.0038-.0828.0996-.266.1794-.4074.1773-.252-.0038-.2524-.0073-.0225-.1812zm-6.9275-.5739c.0276-.0188.159-.1139.2918-.2114.2235-.1639.2292-.1613.0758.0342-.0911.1163-.2225.2114-.2918.2114-.0694 0-.1035-.0154-.0758-.0342zm8.4444-.3088c0-.0557.1376-.164.3058-.2407.2845-.1296.2968-.1226.1769.1014-.1263.236-.4827.339-.4827.1393zm102.7004-.4995c-.1402-.3714-.0453-.4885.1737-.2143.0663.083.0854.2474.0424.3652-.0646.1768-.1024.1504-.216-.151zm4.521.0526c-.037-.1935-.009-.2903.0765-.2623.1677.0552.2555.569.0972.569-.0633 0-.1415-.138-.1737-.3067zm-106.5193-.138c.0871-.035.1913-.0307.2315.0094.04.0402-.0312.0687-.1586.0635-.1407-.0058-.1693-.0344-.073-.073zm-2.3657-.2284c.1147-.12.2417-.1852.2821-.1447.0405.0405-.0533.1387-.2084.2183-.2697.1383-.273.135-.0737-.0736zm3.113-.2737c0-.0935.52-.3817.6887-.3817.0403 0-.025.1087-.1452.2416-.2208.244-.5435.3272-.5435.1401zm101.545-.2092c-.0498-.0506-.0889-.2596-.0869-.4644.003-.3152.023-.3394.1288-.1575.138.2372.1023.7683-.0418.622zm4.2268-.2027c-.0279-.083-.0249-.2507.007-.3725.0447-.1724.0802-.1858.1597-.0604.1366.2154.1335.5839-.005.5839-.0609 0-.1336-.068-.1615-.151zm-5.1628-.453a.1211.1211 0 01.1208-.1207.1212.1212 0 01.1208.1208.1211.1211 0 01-.1208.1208.1212.1212 0 01-.1208-.1208zm-108.3899-.1055c-.0683-.1105.697-.8606.8779-.8606.0516 0 .2163-.1142.3661-.2538.1498-.1395.3047-.2213.3442-.1817.0396.0395-.0863.2111-.2797.3814-.8268.7277-1.2439 1.0192-1.3085.9147zm1.138.022c0-.0663.1087-.219.2416-.3391.1328-.1203.2415-.1914.2415-.158 0 .0333-.1087.186-.2415.3391-.1329.1532-.2416.2243-.2416.158zm112.4574-1.1544c.0103-.436.0266-.4679.1088-.2114.1392.4347.1392.7247 0 .7247-.0664 0-.1154-.231-.1088-.5133zm-.012-.8153c0-.2254.0322-.2576.145-.1449.1127.1127.1127.1771 0 .2899-.1127.1127-.145.0805-.145-.145zm-111.1582.0391c-.1018-.1018.151-.4014.3388-.4014.0808 0 .2089-.1359.2846-.302.143-.3138.3919-.4143.374-.151-.0133.1977-.897.9547-.9974.8544zm1.37-.3579c0-.0937.3868-.3966.5133-.402.0498-.0021-.0181.1049-.151.2377-.2481.2482-.3623.3-.3623.1643zm105.3999-.3756c-.1073-.1782-.061-4.3762.049-4.4441.0673-.0416.112.8502.112 2.2327 0 2.1507-.0213 2.4435-.161 2.2114zm-105.5207-.4499c0-.0979.1534-.2574.341-.3543.1874-.097.4115-.2615.4978-.3655.2234-.269.6452-.2339.8348.0696.1495.2394.1413.2534-.1096.1878-.2697-.0705-1.1108.275-1.261.518-.113.1828-.303.1479-.303-.0556zM150.711 84.87c0-.0625.0543-.1472.1208-.1883.0664-.041.1207.0101.1207.1137 0 .1035-.0543.1883-.1207.1883s-.1208-.0512-.1208-.1137zm.0243-1.125c-.1126-.1358-.1189-.2127-.0222-.2724.1788-.1105.2702-.0057.2198.2523-.0368.1886-.0564.1906-.1977.0202zm.0176-.7862c-.1039-.0662-.0987-.1809.0204-.451l.1596-.3624.01.4529c.0106.4932.0126.4895-.1898.3605zm-4.1485-.451c0-.0997.0526-.1813.117-.1813.0643 0 .0857.0816.0475.1812s-.0909.1812-.117.1812c-.026 0-.0474-.0816-.0474-.1812zm4.116-.9764c.006-.1407.0345-.1693.073-.073.035.0872.0307.1914-.01.2315-.04.0402-.0686-.0312-.0634-.1585zM58.919 69.6665c0-.146.2292-.3161.313-.2323.0303.0304-.0276.124-.1289.208-.1148.0953-.184.1044-.184.0243zm11.6552-22.325c-.809-.1702-1.7699-.4565-1.8235-.5433-.0346-.0559-.171-.1016-.303-.1016-.1321 0-.36-.1234-.5062-.2743-.1463-.1508-.4701-.3807-.7196-.511-.2495-.1301-.4842-.3329-.5215-.4505-.0373-.1176-.171-.269-.2971-.3365-.1261-.0675-.2897-.3469-.3634-.6208-.0738-.274-.2659-.7068-.4269-.9618-.161-.255-.2927-.4881-.2927-.518 0-.03-.1576-.3979-.3501-.8177-.1926-.4198-.4326-1.0079-.5334-1.3068-.1007-.299-.2662-.7022-.3677-.8962-.128-.2444-.1495-.4184-.0698-.5672.0858-.1604.0612-.2447-.0973-.3335-.1378-.0772-.219-.2807-.2316-.5802-.0311-.7383-.2164-1.5165-.5011-2.1047-.1455-.3005-.2646-.716-.2646-.9231 0-.2073-.0522-.5143-.1161-.6823-.0744-.1956-.0744-.3314 0-.3773.1662-.1028.1435-.5112-.0348-.6253-.0984-.0629-.1515-.4091-.1523-.9928-.0009-.6044-.05-.9124-.151-.946-.0823-.0275-.1497-.151-.1497-.2743 0-.1234-.0483-.2543-.1074-.2908-.2298-.142-.2691-.6982-.0653-.9234.1357-.15.1758-.3244.123-.5346-.055-.2192.0307-.5407.2877-1.079.2013-.4218.366-.8136.366-.8707 0-.0572.163-.2578.3623-.446.1993-.188.3623-.3855.3623-.4387 0-.1582.7427-.4528 1.3651-.5415.5059-.072.6794-.0327 1.3569.3077.4272.2147.8095.4934.8494.6192.0837.2636.5157.4565 1.0224.4565.1929 0 .5698.1142.8376.2538.3809.1986.4872.3233.4886.5737.0022.3866.1576.656.3987.6915.0981.0143.2927.1405.4324.2802.1398.1398.3256.254.4129.254.0873 0 .2433.1774.3466.394.175.3668.4407.5672.9856.7431.1226.0396.2512.1804.2859.313.0346.1325.1382.2409.23.2409.092 0 .1671.1107.1671.246 0 .2807 1.0164 1.3241 1.2898 1.3241.2024 0 1.4881 1.2477 1.4881 1.4441 0 .0693.0539.126.1197.126s.2425.1876.3926.417c.15.2292.3925.4714.5388.5382.3465.1582.5873.6384.7433 1.4824.0693.3748.2111.8852.3152 1.1342.104.2491.1555.559.1143.6888-.0412.1297-.0933.5694-.1158.977-.0739 1.3379-.46 2.7394-.8578 3.113-.1562.1468-.284.3683-.284.4923 0 .342-.9841 1.665-1.2385 1.665-.1813 0-.9355.6246-.9355.7748 0 .2546-.8933 1.022-1.3958 1.1992-.4603.1623-1.8735.2329-2.4088.1202z" id="path3719" fill="#000" stroke-width=".1208"/>
  </g>
</svg>
