<svg xmlns="http://www.w3.org/2000/svg" viewBox="0 0 210 297" version="1.1" id="svg3292">
  <g id="layer1">
    <path d="M57.4872 283.4636c-.4452-.0497-.7055-.3706-.9788-1.2066-.1491-.4563-.2694-.5938-.734-.8391-.3055-.1614-.6266-.4403-.7135-.6198-.0869-.1794-.4523-.531-.812-.7813-.3598-.2502-.654-.5196-.654-.5987 0-.0791-.1472-.2998-.3271-.4904-.1799-.1905-.3276-.3914-.3283-.4463-.0007-.055-.2142-.3675-.4744-.6945-.2908-.3654-.4737-.7207-.4745-.9217-.0007-.1798-.0547-.327-.1202-.327-.0654 0-.1192-.1204-.1196-.2676-.0004-.1471-.0836-.4264-.1848-.6205-.1102-.2115-.1934-.7153-.2074-1.2571-.021-.8174.011-.9606.334-1.4904.4218-.6917 1.166-1.1206 2.0288-1.1693.3403-.0192.6147-.1045.6967-.2167.242-.331 1.254-1.0434 1.4822-1.0434.315 0 1.015-.309 1.197-.5283.0846-.1019.2168-.1853.2938-.1853.077 0 .4585-.2554.8476-.5676.3892-.3122.8757-.6863 1.081-.8313.2055-.145.366-.3578.3569-.473-.0113-.1405.06-.2024.2172-.1884.1287.0114.3495-.0688.4908-.1784.1412-.1095.662-.5096 1.1573-.889.5655-.4331.8773-.7504.838-.8528-.0345-.0897-.0003-.2797.076-.4221.104-.1945.2155-.2443.4472-.2.3967.0759 1.3352-.6685 1.3352-1.059 0-.2277.222-.4679 1.0406-1.1257.0818-.0657.1487-.2162.1487-.3342 0-.1181.1093-.3137.243-.4346.2369-.2145.2408-.2142.1572.0113-.047.1271-.1415.2684-.2097.3139-.0683.0455-.0898.117-.0478.159.1627.1627.8148-.4772.9328-.9152.0663-.2462.2136-.5165.3273-.6006.1137-.0842.3094-.3136.4349-.5098.1255-.1962.4041-.544.6192-.773.2151-.229.6874-.7908 1.0496-1.2487.3622-.4578.7244-.9109.8048-1.0068.0804-.0959.2642-.3482.4084-.5607.5414-.7978.548-.8355.2579-1.4774-.233-.5154-.3061-.5866-.5423-.5273-.151.038-.273.0143-.273-.0527 0-.0667-.085-.1212-.1887-.1212-.204 0-1.7141-1.391-1.7141-1.5788 0-.0628-.1606-.297-.3568-.5205-.1962-.2234-.3568-.459-.3568-.5234 0-.0644-.1288-.3213-.2863-.5707-.5547-.8788-1.1881-2.902-1.3178-4.2094-.0438-.4415-.1228-.8028-.1756-.8028-.0527 0-.4316.2242-.8419.4982-.4102.274-.9113.5872-1.1135.6962-.2022.109-.613.3335-.913.499-.8353.4608-1.23.5118-1.6491.2134-.2812-.2003-.5324-.253-1.2204-.256-.9005-.004-2.8321.1698-3.5255.317-.2389.0506-.4303.0355-.4757-.0375-.0418-.0672-.3169-.2507-.6112-.4078-.864-.4612-1.2186-.7149-1.7453-1.2484-.2732-.2766-.6249-.5352-.7816-.5745-.1895-.0476-.3374-.2168-.4418-.5053-.0862-.2385-.3366-.6894-.5563-1.002s-.3994-.6262-.3994-.697c0-.0707-.0803-.2089-.1784-.307-.2768-.2767-.2197-.8444.119-1.183.1634-.1635.2972-.3427.2972-.3981 0-.173.3636-.2499.5954-.1258.1218.0652.3029.1185.4024.1185.0995 0 .3738.1309.6095.2908.3624.246.524.281 1.0458.2271.8378-.0866 1.366-.2511 1.8931-.5898.244-.1567.5382-.2852.6541-.2856.2886-.001.9212-.3444 2.5891-1.4053.5233-.3328 1.4598-.9123 2.0811-1.2878 1.2113-.7318 1.8263-1.1472 3.1749-2.144.4707-.348.8848-.6326.9203-.6326.0942 0 3.0509-2.1177 3.3777-2.4192.7845-.724 1.1041-1.1193 1.2824-1.5861.108-.2826.2383-.5137.2898-.5137.0515 0 .245-.1473.4298-.3272.3979-.3873.8323-.548 2.1376-.791.6384-.1188 1.092-.145 1.3297-.077.2716.078.4605.0502.7636-.1123.2215-.1187.533-.2283.692-.2436.394-.0378 1.2906.1315 1.369.2585.0352.0568.1697.1033.299.1033.1292 0 .3647.085.5232.189.1941.127.4065.1629.65.1094.2285-.0502.3615-.0322.3615.0489 0 .0706.0737.1284.1638.1284s.2282.0776.307.1724c.0787.0948.3806.2874.671.428.2903.1405.5937.3797.6741.5316.1457.2749.99 1.0086 1.1606 1.0086.0493 0 .1224.1302.1623.2893.04.1592.1794.3233.31.3647.3678.1168.4347.6164.1327.9915-.1403.1742-.3164.437-.3914.5842-.097.1903-.2424.2676-.5035.2676-.283 0-.5035.1374-.962.5993-.3272.3297-1.2504 1.2364-2.0516 2.015-.8013.7785-1.4568 1.4695-1.4568 1.5356 0 .0661-.1767.204-.3926.3064-.4008.1903-1.1534 1.0556-1.1534 1.3263 0 .0825-.1107.3375-.246.5667-.1352.2293-.2648.647-.2879.9285-.0231.2814-.1296.806-.2366 1.1657-.1817.6108-.242.8786-.529 2.3487-.0606.3107-.167.779-.2364 1.0406-.1793.676-.0514 1.428.2689 1.5808.3565.1701 1.454.5003 1.6631.5003.0952 0 .202.0752.2372.1672.0353.0919.2246.2024.4207.2455.1962.043.4175.1517.492.2414.0744.0897.2919.1974.4832.2395.1913.042.3883.1402.4377.2182.0495.078.2386.2072.4203.287.1817.0798.3642.2392.4056.3543.0664.1845.7638 1.0243 1.4736 1.7745.134.1415.3352.4372.4473.657.112.22.3416.5858.5101.8131.2866.3866.8579 1.5028 1.1853 2.316.2372.589.256 1.5342.051 2.58-.2316 1.183-.8393 3.0053-1.1484 3.444-.1223.1735-.2224.3826-.2224.4644 0 .1565-.4072.7277-.9083 1.274-.5108.5568-.5962.667-.923 1.1911-.175.2805-.4466.559-.6038.6187-.157.0597-.3375.2055-.4009.3239-.0633.1184-.3078.4195-.5431.669-.2354.2496-.4874.5648-.56.7004-.128.2391-.1126.2442.5063.1684.351-.043.7987-.109.995-.1464.7015-.134 2.0049-.2764 3.6648-.4007.9277-.0695 2.0077-.1506 2.4001-.1802 1.2795-.0966 5.3031-.2073 7.4921-.2062 2.0859.001 3.051.0398 4.757.1905.4578.0405 1.3954.0958 2.0835.123.6881.027 1.3035.0597 1.3676.0724.2674.0532.423-.0146.3525-.1536-.0414-.0818-.003-.0614.0848.045.126.1524.4137.1986 1.3467.2158.6526.0121 1.4542.0412 1.7812.0646 2.6596.1908 4.8495.306 6.7191.3533 1.21.0306 2.37.1064 2.5776.1682.2076.0618.7695.1227 1.2487.1354.4791.0126 1.112.0329 1.4063.045.8436.0349 2.763-.159 2.9277-.2958.1337-.111.4497-.0962 1.5564.073.1748.0266.286-.0344.333-.183.0945-.2972.4272-.3888.841-.2315.401.1524.8135.068 1.2163-.2488.1611-.1267.3752-.2304.4757-.2304.1005 0 .2836-.0913.4068-.2029.183-.1655.2663-.1765.4537-.0595.1263.079.2913.1434.3668.1434.0754 0 .2089.0937.2966.2081.1321.1724.1782.1798.268.0434.0768-.1167.2074-.1377.4482-.072.1869.051 1.0357.1027 1.8862.1151.9261.0135 1.6527.0794 1.8113.1643.2878.154 1.762.2065 2.1693.0772.1387-.044.3264-.0183.4172.057.126.1045.335.0893.8811-.064.4618-.1295.855-.17 1.1076-.1142.6088.1348 2.8045.1074 3.662-.0456.58-.1035.8367-.104 1.0285-.002.1549.0823.4593.1046.773.0567.2846-.0435.785-.0935 1.112-.111.5292-.0285 1.7017-.4134 2.0214-.6637.0656-.0513.4136-.1854.7733-.298.3598-.1125.8146-.276 1.0109-.3632.1962-.0873.645-.272.9974-.4104.3524-.1386.7523-.33.8887-.4256.1363-.0955.3832-.1744.5485-.1754.1653-.001.3808-.0537.479-.1171.1442-.0932.1271-.1157-.0892-.1172-.4145-.003-.3172-.21.2205-.4699.484-.2339.4885-.2339.549-.003.0335.1282.0948.2307.1362.2278.22-.0153 1.2057-.3124 1.2786-.3854.0468-.0468.2302-.085.4075-.085.1773 0 .389-.0803.4704-.1784.2102-.2532.5946-.2276.5946.0396 0 .12.028.246.0623.2803.0714.0714 1.8304-.3296 1.944-.4431.0411-.0412.075-.124.075-.184 0-.1126.1297-.1202.3843-.0225.0806.0309.3978-.0294.705-.134.3071-.1047.6494-.1903.7605-.1903.325 0 .5072-.296.2922-.4745-.4036-.335-.0764-.7108.5399-.6203.3908.0574.4601.2276.1424.3497-.1756.0675-.1616.0922.0892.1582.1785.047.4067.0107.5712-.0906.1506-.0928.4717-.1897.7135-.2153.4485-.0474 1.0481-.1436 1.5549-.2495.1555-.0325.4929-.2779.7498-.5453.4289-.4463.4902-.4739.7482-.3358.294.1573 1.3091.0785 1.426-.1106.0335-.0542.2466-.1334.4735-.176.2269-.0426.562-.1553.7446-.2506.1826-.0953.4664-.1735.6305-.174.1642 0 .4414-.133.616-.295l.3173-.2942-.0319.2989c-.0175.1644-.094.361-.17.437-.3454.3455-.1116.3643.6015.0485.2431-.1077.607-.1959.8086-.1959.2015 0 .511-.0742.6876-.1649.1766-.0907.6574-.2505 1.0683-.3553.5912-.1506.7948-.1607.975-.0482.221.1381.5585.0973 1.6671-.2015.2863-.0772.2888-.0732.0665.107-.127.103-.3078.1873-.4018.1873-.2551 0-1.4602.7173-1.3915.8284.0326.0528-.029.169-.1371.2581-.1288.1063-.2112.1182-.2394.0345-.0721-.214-.7748-.0442-.8394.2028-.0319.1222-.1516.2221-.266.2221s-.344.107-.5103.2379c-.1663.1308-.3608.2378-.4323.2378-.0715 0-.1299.0405-.1299.09 0 .0912-.8215.3826-1.0981.3895-.0828.002-.2576.0862-.3884.187-.2227.1716-.2082.1778.2273.0983.4016-.0733.455-.0582.3902.1103-.0549.1432-.005.1986.189.208.2396.0114.2338.0244-.0632.1418-.1799.071-.327.2058-.327.2995 0 .1259-.0934.1516-.3576.0988-.2764-.0553-.3908-.0182-.5043.1635-.159.2548-.39.33-.2653.0864.0418-.0818-.0542-.008-.2135.1649-.3571.3866-.7557.5253-.9783.3405-.0918-.0762-.2632-.108-.3808-.0707-.1176.0373-.259.0633-.3142.0577-.0552-.006-.2424.118-.4162.2747-.1737.1567-.4497.342-.6132.412-.1635.0698-.4311.1844-.5946.2545-.1635.0701-.5114.124-.773.1198-.2751-.005-.6892.1041-.982.2576-.2783.1459-.581.2365-.6725.2014-.1834-.0704-.5928.309-.468.4337.1154.1154 1.016-.0482 1.2868-.2338.129-.0884.3297-.1609.446-.1609.1162 0 .198-.0562.1816-.1248-.0167-.07.2312-.1453.5649-.1715.327-.0257 1.0762-.1897 1.6649-.3646.5886-.175 1.2843-.3668 1.546-.4265.2616-.0596.6667-.183.9002-.274.2448-.0954.4921-.1238.584-.067.0897.0554.2481.0431.3624-.0283.1116-.0697.3037-.0876.4268-.0397.211.0821.2078.1002-.0569.316-.1544.126-.4086.229-.5648.229-.1667 0-.2903.0738-.299.1785a19.618 19.618 0 01-.0297.3232c-.008.0826-.245.1641-.55.1897-.2943.0247-.5619.0838-.5946.1314-.0808.1176-.4717.2738-.8325.3327-.1635.0267-.3482.0987-.4103.16-.0621.0615-.3376.1116-.6122.1116-.323 0-.682.1081-1.0168.306l-.5175.306.5592-.0746c.4124-.055.636-.0243.8513.1168.2854.187.2939.1832.3707-.1665.0785-.3576.1516-.4044.8497-.5444.2749-.055.3898-.0265.4422.11.039.1015.1795.1846.3124.1846.2587 0 .344.3442.0929.3748-.2678.0326-.3834.063-.6066.1594-.1402.0605-.2539.0404-.3131-.0555-.0718-.116-.1174-.107-.1994.0395-.1126.2011-1.4495.6961-1.6109.5964-.0522-.0322-.1466.0775-.2098.2438-.1013.2665-.1712.2971-.5863.2571-.3268-.0315-.4909.006-.5352.121-.0934.2433-.2814.2029-.3711-.0798-.0674-.2122-.0971-.2216-.2162-.068-.0759.098-.3632.2369-.6384.3088-.2752.0719-.5331.1836-.5731.2483a.139.139 0 01-.1909.0446c-.1477-.0913-.5789.2868-.5789.5076 0 .09-.0777.1935-.1726.23-.095.0363-.233.2487-.3066.4719-.1708.5178-.4436.5282-.4998.0192l-.0427-.3865-.0998.3568c-.1288.4606-.404.773-.6808.773-.1207 0-.2194.0593-.2194.1318 0 .0795-.1126.1035-.2838.0606-.2202-.0553-.2981-.0161-.3481.175-.0458.1751-.1444.2364-.3406.2116-.152-.0192-.4529.054-.6688.1627-.216.1086-.4601.1716-.5427.1399-.0825-.0317-.2486.0513-.369.1845-.1205.133-.2942.242-.386.242-.096 0-.131.0584-.0822.1373.0471.076.0331.1053-.0312.0655-.0639-.0394-.2655.006-.4482.1005-.1826.0948-.4062.1723-.4969.1723-.0906 0-.1647.0477-.1647.106 0 .0584-.1303.1388-.2894.1787-.1592.04-.3233.1796-.3648.3102-.0519.1635-.18.2376-.4106.2376-.1843 0-.4884.0799-.6758.1776-.1873.0977-.4767.178-.643.1784-.2384 0-.3266.0827-.4163.3872-.0986.335-.1868.4024-.662.5055-.3016.0654-.6227.179-.7136.2524-.0909.0734-.406.2486-.7004.3892-.701.3349-1.0206.5253-1.2872.7665-.1202.1088-.2498.1666-.288.1285-.0382-.0382-.1603.1222-.2714.3565-.1486.313-.2773.4258-.4859.4258-.1777 0-.2837.0693-.2837.1854 0 .102-.046.157-.1022.1223-.1515-.0936-.7283.2039-.7294.3761 0 .0818-.1041.1487-.2302.1487-.1262 0-.3001.0669-.3865.1487-.0864.0818-.3177.2288-.514.3268-.1962.098-.577.4068-.8464.6861-.2947.3056-.5582.4816-.6616.442-.0945-.0364-.2704.043-.3909.176-.1205.1332-.3445.242-.498.242-.1533 0-.2788.0572-.2788.127 0 .4575-1.2782 1.4493-1.3994 1.0858-.0668-.2006-.2387-.1775-.6039.081-.1736.1229-.5297.2524-.7914.2877-.7411.1002-1.1803.226-1.2874.3688-.0693.0924-.1169.0846-.1615-.0264-.0473-.1177-.1335-.0913-.3416.1042-.1658.1558-.3562.2318-.4705.188-.1055-.0406-.3464.006-.5353.1038-.453.2343-.5621.2242-.6524-.0602-.0528-.1662-.225-.263-.5728-.322-.2737-.0463-.5416-.0718-.5955-.0566-.054.0152-.0642-.0272-.0227-.0943.0714-.1155.0212-.1417-.3252-.1694-.0818-.007-.2186-.1055-.304-.22-.1561-.209-.6646-.274-1.0342-.132-.158.0605-.166.0963-.0394.1765.123.0779.1138.101-.041.1023-.1097.001-.2784-.077-.3747-.1733-.2706-.2706-1.0944-.4204-1.3517-.2458-.2373.161-.9875.0264-.9875-.177 0-.0635-.1477-.1156-.3282-.1156-.2037 0-.3868-.0939-.4829-.2478-.085-.1363-.2284-.2195-.3185-.185-.1034.0398-.1774-.0333-.2009-.198-.0204-.1436-.1174-.266-.2155-.272-.3372-.0206-.8923-.2054-1.1846-.3944-.176-.1138-.2562-.13-.2011-.0406.0583.0945.024.1487-.0938.1487-.102 0-.1869-.067-.1887-.1487-.005-.2326-.6558-.8134-.9347-.8344-.1381-.0105-.2512-.0635-.2512-.118 0-.0543-.1912-.063-.4249-.0192-.3245.0609-.4195.041-.4021-.0838.0463-.333-.0101-.4516-.1832-.3852-.0977.0375-.143.1244-.1005.193.0466.0754.0195.0892-.0683.035-.08-.0494-.1167-.1647-.0816-.2562.0408-.1063-.0171-.1663-.1604-.1663-.1233 0-.2432-.0568-.2663-.1264-.0297-.0892-.1399-.0892-.3744 0-.326.124-.8867.1696-.5844.0476.2024-.0817.1889-.397-.017-.397-.0911 0-.1965.0804-.2341.1785-.0376.098-.1294.1784-.2039.1784-.0745 0-.1039-.082-.0655-.1822.0773-.2013-.1701-.326-.9183-.4629-.3119-.057-.4328-.0434-.3795.0428.1168.189-.0116.1527-.229-.0647-.193-.193-.5678-.2535-.896-.1447-.0982.0325-.138.0366-.0885.009.229-.1276-.092-.2669-.4572-.1984-.269.0505-.4763.0213-.6076-.0856-.1741-.1415-.1895-.1357-.1214.046.043.1145.0262.2082-.0372.2082-.0633 0-.1152-.0465-.1152-.1033 0-.1527-.982-.2572-1.145-.122-.0941.0782-.1566.0664-.1907-.036-.0524-.1571-.3832-.1863-3.0783-.2718-.7598-.0241-1.6104-.1055-1.89-.1808-.408-.1099-.5284-.1058-.6087.0209-.0657.1036-.1007.1101-.1019.019-.001-.0965-.3724-.1387-1.2207-.1387-.6705-.0001-1.6471-.058-2.1704-.1287-.5232-.0707-1.8343-.1564-2.9135-.1902-1.0793-.034-2.3636-.0893-2.8542-.1233-1.1904-.0823-2.5507-.11-3.9244-.0802-.6214.0135-1.3582-.007-1.6374-.0464-.283-.0396-.5725-.0174-.654.0502-.0977.0808-.3249.0828-.6816.006-.682-.1468-1.0946-.1361-1.198.0311-.0585.0948-.0944.0928-.1277-.007-.0333-.0998-.1968-.1094-.5793-.0339-.2931.0578-.9744.0926-1.514.0772-.6024-.0172-.9812.0186-.9812.0926 0 .0663-.083.0887-.1845.0498-.1098-.0421-.154-.0212-.109.0515.047.076-.0295.0996-.202.0623-.328-.071-1.1192.1891-1.0887.3579.0117.0646-.0686.1251-.1784.1347-.608.0528-1.408.2992-1.5374.4734-.0854.115-.1487.139-.1487.0563 0-.089-.1145-.1232-.2997-.0896-.1649.03-.27.006-.2336-.0527.0364-.0589-.0916-.0957-.2845-.0818-.269.0194-.3214.0605-.2251.1769.069.0833.0905.1864.0478.2291-.0427.0427-.144-.0113-.225-.12-.0975-.1305-.2391-.173-.4176-.1254-.1986.053-.2376.1112-.1476.2197.0935.1126.0518.134-.1759.0905-.164-.0314-.2983-.1053-.2983-.1643s-.1204-.084-.2676-.0554c-.1472.0286-.669.1154-1.1595.193-.4905.0776-.9722.1705-1.0703.2065-.098.036-.272.0538-.3865.0396-.1144-.0142-.208.0354-.208.11 0 .0896-.1235.1088-.3617.0565-.2116-.0465-.4285-.024-.5227.0542-.0885.0735-.2067.1254-.2627.1153-.0559-.01-.2512-.0119-.434-.004-.2464.0105-.3231.0678-.2972.2222.0277.1652-.0509.2081-.3813.2081-.229 0-.4783.0403-.5542.0896-.0758.0493-.223.057-.327.017-.1062-.0408-.1891-.0118-.1891.0661 0 .0763-.0517.1068-.1148.0677-.0632-.039-.3308.0392-.5947.1738-.2638.1346-.4797.2182-.4797.1858 0-.0324-.1472-.002-.327.0676-.18.0696-.424.1461-.5423.17-.1184.024-.5129.1797-.8766.3462s-.7635.3028-.8885.3028-.258.0803-.2957.1784c-.0376.098-.1194.1783-.1816.1783-.0623 0-.0769-.0588-.0324-.1307.0478-.0774-.0342-.067-.2011.0255-.155.086-.3176.1582-.3612.1605-.0436.002-.1194.0444-.1685.0934-.049.049-.2408.0892-.4261.0892-.1854 0-.337.0473-.337.1052s-.2984.1425-.663.188c-.5274.066-.6488.1202-.5933.2648.0556.145.007.1662-.2388.1045-.1698-.0426-.2798-.0307-.2445.0264.0354.0571-.0113.1039-.1037.1039-.0923 0-.1403-.0446-.1067-.0991.0337-.0545.0077-.0991-.0576-.0991-.0654 0-.15.05-.1878.1113-.0378.0612-.1614.1045-.2746.0961-.2262-.0168-1.2767.31-1.9301.6003-.229.1017-.4697.1917-.5351.2-.4822.0608-1.1488.2506-1.574.448-.419.1945-.5675.2114-.8844.101-.2571-.0896-.4199-.0936-.5012-.0122-.0663.0663-.2723.1205-.4577.1205s-.4667.0849-.625.1886c-.1584.1037-.3426.1549-.4093.1136-.0668-.0413-.3234-.0246-.5702.037-.6615.1651-1.1145.2131-1.551.1644zm101.6916-15.4223c.0441-.115.009-.1503-.1055-.1064-.0944.0362-.142.1138-.1059.1723.0911.1475.1347.134.2114-.0659zm1.21-3.0116c-.015-.0179-.1167.002-.2259.0436-.1605.0616-.1705.1098-.0523.2522.1271.1532.1565.1475.226-.0436.0439-.1208.0675-.2343.0523-.2522zm2.317-.8734c0-.0654-.0535-.0858-.119-.0454-.0654.0404-.1189.127-.1189.1924 0 .0654.0535.086.119.0454.0653-.0404.1189-.127.1189-.1924zm.8324-2.8097c.0686-.0672-.7272.0895-.864.1702-.0502.0295-.0606.1033-.023.164.058.0937.695-.1462.887-.3342zm-41.3848 18.8744c0-.0634.0803-.1152.1783-.1152.0981 0 .1784.021.1784.0467 0 .0257-.0803.0775-.1784.1152-.098.0376-.1783.0166-.1783-.0467zm35.2718-10.086c-.1205-.195.4846-.676.8945-.711.565-.048.7169.259.248.5015-.3805.1968-1.072.3236-1.1425.2095zm1.67-.5768c-.1339-.1339-.0816-.2742.1024-.2742.098 0 .1784.0503.1784.1119 0 .15-.1858.2573-.2808.1623zm1.5889-.631c0-.0654.0535-.119.119-.119.0653 0 .1189.0536.1189.119a.1193.1193 0 01-.119.119.1193.1193 0 01-.1189-.119zm.7135-.119c0-.0653.0535-.1188.119-.1188.0654 0 .1189.0535.1189.1189a.1193.1193 0 01-.119.1189.1193.1193 0 01-.1189-.119zm-102.9012-.1922c-.0837-.0837.1682-.5212.3001-.5212.0497 0 .0904.0736.0904.1638 0 .1948-.2888.4592-.3905.3574zm48.067-3.7416c-.092-.0582-.281-.1066-.4202-.1076-.1392-.001-.3197-.0821-.401-.1802-.0815-.0981-.2754-.1784-.4309-.1784-.1766 0-.2827-.0695-.2827-.1851 0-.2126-.7095-.9018-.8432-.8191-.049.0302-.3408-.1864-.6486-.4813-.3572-.3423-.6668-.5362-.8558-.5362-.1834 0-.438-.1528-.6689-.4015-.205-.2209-.4798-.4347-.6106-.4752-.1308-.0405-.4063-.221-.612-.4012-.3114-.2725-.376-.4175-.384-.8627-.005-.2943-.0605-.709-.1228-.9217-.0623-.2125-.082-.3865-.0437-.3865s-.0243-.1037-.1391-.2306c-.1148-.1268-.2282-.4077-.2521-.6243-.1057-.9575-.1654-1.1812-.5062-1.8958-.3862-.81-.7548-2.6346-.7387-3.6574.0035-.2214-.0496-.47-.118-.5523-.089-.1072-.0691-.2047.0699-.3437.1067-.1067.1655-.2684.1307-.3592-.0349-.0908.0327-.3538.1503-.5843.1494-.293.176-.4568.0887-.5441-.0874-.0874-.0645-.2519.076-.5465.1105-.2318.201-.5818.201-.7779 0-.206.0747-.3851.177-.4244.1192-.0457.1712-.2174.159-.5257-.0098-.2518.0408-.5286.1126-.615.0887-.1068.099-.4227.0323-.9868-.054-.4563-.0777-1.2042-.0527-1.662.0535-.9786.0536-.9406-.0038-1.532-.0246-.2538-.0979-.4946-.1628-.535-.1442-.09-.171-1.3442-.0365-1.708.0536-.1447.049-.4384-.0101-.6527-.0657-.2377-.064-.4674.0044-.5896.0717-.1282.0668-.2993-.0139-.4763-.093-.2043-.085-.3523.0306-.5684.1217-.2275.125-.3302.0144-.4633-.1201-.1448-.2403-.9938-.2716-1.9182-.0112-.3314.1014-1.6175.1657-1.8919.0292-.1248-.0086-.4994-.084-.8324-.1347-.5948-.1384-1.5134-.007-1.7262.0368-.0594.0124-.2514-.0543-.4267-.2014-.5297.0704-1.1605.792-1.8382.5672-.5328.6947-.5983 1.1644-.5983.2901 0 .556.0463.591.1029.035.0566.2543.1338.4873.1716.233.0378.5907.2093.7947.381.2784.2342.4475.293.6772.2353.2865-.0719 1.3976-.9215 1.7968-1.3739.0981-.1112.446-.4017.773-.6456.327-.244.6784-.5313.7807-.6385.1024-.1073.3636-.3288.5806-.4923.217-.1636.588-.4623.8247-.664 1.3782-1.1742 2.929-2.2058 4.2816-2.848.4103-.195 1.0086-.5907 1.2973-.8584.0882-.0818.2301-.1487.3153-.1487.214 0 1.2552-.5922 1.2552-.714 0-.0544.03-.177.0666-.2725.0686-.1789-.3878-.3308-1.018-.3388-.1635-.002-.3595-.0552-.4355-.118-.0918-.076-.2906-.0327-.5928.1293-.25.134-.5562.2437-.6803.2437-.2342 0-1.0261.4347-1.1662.6402-.1.1467-.455-.1275-.455-.3515 0-.0868-.0725-.2007-.161-.253-.2335-.138-.308-.7143-.1236-.9572.087-.1145.1598-.2751.1619-.3569.008-.3044-.343-.1308-.9257.458-.3302.3337-.6534.5738-.7183.5337-.065-.0401-.1355.013-.1568.1183-.0213.1052-.2439.2617-.4946.3476-.4515.1549-.457.153-.5776-.193l-.1217-.3492-.4035.4278c-.222.2353-.4035.3622-.4035.282 0-.0801.214-.3494.4756-.5983.2617-.2488.4757-.4951.4757-.5472 0-.0521.24-.362.5333-.6886s.5341-.6332.5352-.6814c.001-.0482.1764-.1605.3898-.2497.2197-.0918.6195-.4647.9217-.8595.2935-.3836.5993-.7796.6796-.8801.2005-.2509 3.0675-3.2632 3.6853-3.872.5566-.5486 1.2859-1.944 1.1086-2.1213-.1285-.1285-1.0008.1774-1.7884.627-.2707.1546-.724.3357-1.219.4872-.2453.075-.446.1761-.446.2246 0 .0485-.271.162-.602.2522-.3313.0902-.6288.2069-.6612.2593-.0324.0525-.157.0954-.277.0954-.12 0-.246.0726-.28.1613-.0391.102-.3393.1848-.8155.225-.5785.049-1.0059.191-1.8402.6117-.5976.3014-1.138.548-1.2007.548-.0627 0-.552.214-1.0874.4757-.5354.2616-1.0178.4757-1.072.4757-.0542 0-.2875.1282-.5184.2849-.3874.2629-.783.3907-2.0512.6625-1.4288.3062-3.5689.39-4.3407.1698-.2943-.084-1.0168-.2363-1.6054-.3386-1.6539-.2873-2.8651-.8037-3.5136-1.4979-.1803-.193-.3857-.351-.4563-.351s-.165-.1472-.2097-.327c-.0685-.2755-.5818-1.2705-.997-1.9325-.0616-.0981-.2781-.5516-.4812-1.0076-.2032-.4561-.4715-.9728-.5964-1.1482-.1249-.1753-.227-.4238-.227-.552 0-.1283-.1071-.3693-.238-.5356-.3023-.3844-.3042-.901-.0043-1.212.1284-.1331.467-.4962.7526-.807.691-.7517 1.1443-.7513 1.9955.002.3699.3273 1.0834.7417 1.277.7417.1125 0 .4034.1065.6464.2367.7398.3966 1.8175.4187 3.8953.08 1.0138-.1652 2.0306-.3264 2.2595-.3581.7598-.1054 1.6014-.3241 1.9211-.4993.1736-.095.4563-.1729.6282-.1729s.5046-.0803.7394-.1783c.2348-.0981.5505-.1784.7016-.1784.151 0 .7101-.1606 1.2423-.3568s1.0576-.3571 1.1676-.3575c.11 0 .3605-.0855.5568-.1891.1962-.1037.5393-.212.7624-.2407.223-.0287.571-.126.773-.2161.537-.2397 2.5194-.8992 2.7053-.9.0876 0 .3088-.0788.4913-.174.1826-.0952.584-.2247.892-.2876.308-.063 1.2556-.3608 2.1059-.6619.8503-.301 1.862-.6297 2.2481-.7304.3862-.1007.9314-.291 1.2117-.4227.5428-.2551 1.703-.5495 2.4863-.631.2616-.0271.8503-.1637 1.3081-.3034 1.1634-.355 1.6753-.4593 3.5017-.714 1.6446-.2292 2.933-.5257 3.4553-.7953.1635-.0844.3606-.1537.438-.1541.1195-.001.6232-.1936 1.881-.7206.9936-.4163 1.3428-.6016 1.5363-.8155.1409-.1557.3576-.2411.5917-.2333.417.014 1.7187-.116 1.945-.1942.0818-.0283.1487-.003.1487.0551 0 .16.3788.213.702.0984.4835-.1715 1.698-.2235 1.8709-.0801.0876.0727.24.1012.3386.0634.518-.1988 3.2724.64 3.2724.9966 0 .0637.0687.116.1528.116.1543 0 .6777.3927 1.2873.9658.1823.1715.3655.4658.407.654.125.5665.4526 1.1156.6471 1.0847.1142-.0181.1964.0815.2214.2685.0219.1635.0888.3481.1486.4102.06.0621.1089.2379.1089.3905 0 .301-.4837 1.3308-.75 1.5972-.2775.2775-.5887 1.0376-.5094 1.2442.0878.2288-.8515 1.1455-1.0855 1.0594-.0797-.0293-.1765-.002-.2152.0605-.0387.0625-.2245.1138-.413.1138-.1885 0-.3714.0465-.4065.1032-.0351.0568-.3347.1392-.6658.1831-.3311.044-.6952.1714-.809.2833-.4652.457-1.8193.8547-2.1045.618-.0845-.0701-.2874-.094-.4509-.053-.1961.0493-.3314.0168-.3978-.0957-.203-.3434-1.5873-.316-1.5873.0314 0 .124-.5727.3567-.8778.3567-.1497 0-.6025.1085-1.0064.241l-.7342.2411-.54-.3015c-.4541-.2535-.5818-.279-.8017-.1607-.1439.0774-.4566.1296-.695.1158-.2601-.015-.5063.048-.6158.1575-.2405.2405-.517.2315-.6585-.0214-.072-.1284-.2734-.2094-.5444-.2188-.295-.0102-.539-.119-.7757-.3457-.3028-.2902-.388-.316-.693-.2096-.1913.0667-.4184.0776-.5046.0243-.0978-.0605-.316.0112-.5799.1905-.2326.1582-.5042.2875-.6035.2876-.0993 0-.438.0979-.7526.2174-.5122.1945-.5513.2343-.3743.3813.1836.1523.182.1773-.0226.3475-.1919.1598-.223.3854-.2407 1.7495-.0118.9018-.0778 1.6733-.1556 1.8188-.0744.139-.1462.7454-.1595 1.3475-.0176.7915-.0871 1.2267-.251 1.5705-.1246.2617-.2343.7165-.2438 1.0109-.01.2943-.0917.707-.1827.917-.2159.4984-.1005.5902.5113.407.276-.0827.5918-.1504.7019-.1505.1101 0 .2638-.077.3416-.1707.0778-.0937.2312-.1704.341-.1704.1096 0 .2577-.0583.3289-.1294.0712-.0712.363-.133.6483-.1374.5019-.008.7229.0464 2.124.5187.3596.1213.8948.2563 1.1891.3.2944.0436.7215.2049.9493.3583.2277.1535.4775.279.555.279.0774 0 .1587.0401.1805.0892.0218.049.2537.2037.5153.3436.3142.168.4888.3497.5144.5352.0213.1544.1879.469.37.6992.1822.2302.4759.7241.6526 1.0976.1767.3736.3723.7108.4347.7493.0623.0385.0839.1177.0479.176-.036.0581-.0177.2016.0405.3187.0583.1172.1881.3735.2886.5697.1005.1963.3145.8652.4756 1.4866.23.8867.288 1.3856.27 2.319-.0126.654.0263 1.2877.0865 1.408.0715.1431.0573.3447-.0408.5817-.1941.4687-.2208.7044-.2675 2.3604-.0214.7575-.0687 1.4264-.1052 1.4866-.0365.0602-.1017.6445-.1449 1.2986-.0703 1.0633-.2131 2.571-.355 3.746-.0276.229-.0844 1.2432-.1261 2.254-.0417 1.0106-.0974 1.8724-.1238 1.915-.0263.0426-.0782.6339-.1152 1.3138-.037.68-.1256 1.718-.1968 2.3066-.1328 1.098-.1764 5.1697-.0714 6.6633.0364.518.1553 1.0252.3124 1.3332.1394.2733.2535.5693.2535.6577 0 .0884.107.3824.2379.6531.1308.2708.2378.565.2378.6537 0 .0888.0786.2653.1746.3922.096.127.1763.4007.1784.6083.002.2076.0649.642.1395.9655.1525.6604.065 1.2139-.192 1.2139-.1007 0-.2025.1692-.2481.4124-.092.4905-.5418 1.0147-.8707 1.0147-.2433 0-.6087.2906-.6087.4841 0 .1606-.4515.1333-1.1122-.0672-.8577-.2602-3.5051-.2023-3.8528.0842-.1043.086-.1487.0803-.1487-.019 0-.178-.418-.0578-.8459.2434-.1709.1203-.34.1895-.3756.1538-.0357-.0357-.1002.0462-.1433.182-.043.1357-.1561.2467-.2512.2467-.0951 0-.2331.1322-.3067.2936-.0736.1615-.1845.2622-.2466.2238-.0621-.0384-.2367-.003-.388.0775-.2275.1217-.3221.1144-.5455-.042-.198-.1388-.3117-.155-.4254-.0606-.2406.1997-1.6096.1575-2.0356-.0628-.2038-.1053-.5096-.1916-.6796-.1916-.17 0-.4718-.084-.6707-.187-.1989-.1028-.437-.158-.5293-.1226-.0922.0354-.1676.0154-.1676-.0443 0-.0614-.7164-.0986-1.6496-.0855-1.0414.0146-1.6328.067-1.604.1421.025.0654-.0757.1272-.2236.1373-.6995.0478-1.3125.2485-1.2194.3992.0324.0524-.0474.0676-.1773.0336-.1299-.034-.3306-.022-.446.0267-.1155.0487-.3605.1082-.5445.1322-.184.024-.4346.0972-.557.1627-.1225.0655-.3331.1191-.4683.1191-.135 0-.2456.0518-.2456.1152s-.0694.0886-.1542.056c-.1592-.0611-1.0636.3771-1.671.8096-.2185.1556-.5475.251-.8953.2594-.634.0154-1.714.3578-1.923.6096-.0783.0945-.1917.1719-.2517.1719-.06 0-.2566.109-.4367.242-.4416.3266-1.364.5968-1.5768.462zm4.003-6.5409c.388-.0707.7564-.1777.8186-.2378.062-.0601.3145-.1093.5608-.1093.3961 0 .8976-.1582 1.5544-.4902.1135-.0574.274-.1048.3567-.1052.0827 0 .2961-.0768.4744-.1698.1782-.093.7134-.2614 1.1892-.3742.4758-.1129.9187-.2445.984-.2925.0655-.048.3598-.1248.6541-.1708.2944-.046.7347-.2125.9786-.3702.2439-.1576.516-.2866.6045-.2866.0886 0 .2013-.0401.2503-.0892.0491-.0491.1249-.0937.1685-.0992.3026-.038.7658-.3263.8127-.5058.031-.1186.2533-.2849.494-.3696.2406-.0847.5445-.2454.6753-.3571.1308-.1117.3643-.2095.5187-.2172.1545-.008.3808-.1045.503-.215.122-.1105.3308-.207.4638-.2145.133-.007.245-.0671.2489-.1325.004-.0654.0897-.2105.191-.3223.2157-.2384.1389-.6885-.1705-.9978-.1232-.1233-.2422-.4993-.2942-.93-.1828-1.5144-.2432-1.7995-.4251-2.0052-.103-.1165-.2712-.204-.3736-.1944-.3585.0336-.6415-.0106-.564-.0881.043-.043.2978-.0832.5661-.0892.459-.0104.4977-.0392.6534-.4867.091-.2616.1663-.5628.1673-.6692.001-.1065.0876-.2648.1925-.352.3671-.3046.4233-.787.4697-4.033.0257-1.7987.0759-3.6717.1115-4.1622.267-3.6784.3309-5.1885.3165-7.4921-.007-1.0792-.0448-2.203-.0845-2.4974-.127-.9405-.1572-1.3464-.1718-2.3108-.008-.5187-.0676-1.0428-.1329-1.1646-.124-.2317-.439-1.6125-.5448-2.3873-.075-.5496-.419-.8087-1.0623-.8-.2528.003-.6153.007-.8055.008-.1902.001-.5113.0736-.7135.1614-.2023.0878-.6086.2267-.903.3086-1.2852.3576-1.743.5333-2.8302 1.0858-.6345.3224-1.341.7058-1.5698.852a44.754 44.754 0 01-.809.5021c-.6619.3989-1.6016 1.119-2.1664 1.6604-.2956.2833-.811.721-1.1454.9728-.3344.2516-.9966.8054-1.4716 1.2306-.475.4251-1.0823.9603-1.3497 1.1892-.5102.4368-1.4035 1.3197-2.0803 2.0561-.3841.418-.3972.4627-.3185 1.0926.068.545.1217.6568.315.6568.1282 0 .2647-.0823.3032-.1828.0842-.2195.8305-.5501 1.168-.5174.1325.0128.3813-.0157.5529-.0635.1857-.0517.5554-.0146.9136.0918.5708.1695.6158.1663.8773-.0608.217-.1887.364-.2216.6918-.155.229.0465.6303.0961.892.1103.7745.042 1.3944.2026 1.9252.4989.2744.1532.6828.2786.9075.2786.4933 0 1.1454.2573 1.4066.555.299.3408.341.99.0946 1.4666-.2937.5684-.7893 1.0703-1.0567 1.0703-.1274 0-.327.179-.4703.422-.139.2356-.4243.4954-.6456.5878-.218.0911-.4725.2572-.5653.369-.3768.4541-1.3698 1.0816-1.7272 1.0915-.2324.006-.499.1343-.7204.3457-.5938.5666-.866.7517-1.1058.7517-.1266 0-.4622.1233-.7458.2741-.4154.221-.5933.254-.916.1704-.2763-.0716-.4267-.061-.4856.0343-.1002.162-.008 1.1916.1226 1.3645.0493.0654.0966.4935.105.9514.0205 1.0923.08 1.2659.4067 1.1843.1427-.0357.4612-.0776.7077-.0932.3782-.024.4804-.092.654-.4348.1235-.2435.328-.438.5106-.4854.3743-.097 1.7566-.0497 2.052.0702.1216.0494.275.0288.3509-.047.074-.074.2283-.1347.3428-.1347.1145 0 .2605-.0935.3244-.2077.1008-.1802.1664-.1887.4949-.0648.2254.0851.7142.1208 1.208.0882.6876-.0454.8783-.0163 1.115.17.1572.1236.6342.2905 1.0602.3708.4259.0804.7744.1964.7744.2578 0 .0614.1605.1676.3567.236.1963.0684.3568.1676.3568.2205 0 .053.101.0697.2244.0375.2393-.0626.4264.0658 1.3384.9184.8648.8083.7255 1.422-.3226 1.422-.3904 0-.5267.0466-.5267.1796 0 .0988-.107.2712-.2378.3832-.1308.112-.2379.303-.2379.4242 0 .1989-.2082.4317-.993 1.1107-.1399.121-.3222.2045-.4052.1854-.083-.0191-.1827.0481-.2215.1493-.0388.1012-.1654.184-.2812.184-.1158 0-.2771.0803-.3586.1784-.0814.098-.2201.1783-.3082.1783-.174 0-.9505.408-1.2378.6504-.098.0828-.2586.1543-.3567.159-.2178.0103-1.2897.356-1.5741.5076-.1136.0606-.5218.1101-.9071.1101-.4777 0-.7477.0568-.8486.1784-.2251.2712-1.249.2376-1.537-.0505-.338-.338-.6623-.4847-1.0715-.4847-.3311 0-.365.0355-.3692.3865-.003.2126-.029.7043-.059 1.0928-.0466.6023-.0172.746.1992.9764.2275.2421.238.3082.1022.6363-.137.3307-.1256.3937.118.653.1702.1812.2463.3756.2066.5276-.0635.243-.0272.4373.3239 1.733.1919.7082.524 1.1217.9054 1.127.1024.001.5038-.0551.892-.1258zm11.2302-10.515c0-.099.1057-.1783.2378-.1783.1322 0 .2379.0793.2379.1783 0 .0991-.1057.1784-.2379.1784-.132 0-.2378-.0793-.2378-.1784zm24.6832 16.4975c-.1766-.1766-.0137-.377.5392-.664.7234-.3752.7026-.3727.7026-.0844 0 .3488-1.0241.966-1.2418.7483zm2.9795-.078c.0847-.2208.565-.2578.4927-.038-.027.0819-.165.1658-.3067.1866-.1928.0284-.2396-.009-.186-.1486zm-1.6188-.668c0-.2416.6618-.635.861-.5118.1812.112.0843.3986-.1347.3986-.1238 0-.256.0803-.2936.1783-.1026.2674-.4327.2176-.4327-.0652zm17.1248.1373c0-.1094.2815-.2505.5-.2505.0749 0 .0654.0704-.0243.1783-.1616.1947-.4757.2424-.4757.0722zm-15.9337-.4402c.002-.2632.2312-.6815.2342-.4277.001.0856.0597.12.1304.0761.2213-.1367 1.7949-.4291 1.8755-.3485.1281.1282-.3633.414-.7117.414-.1798 0-.3632.0586-.4074.1302-.0442.0716-.2213.1028-.3935.0694-.1916-.0371-.394.0118-.5212.1261-.1908.1713-.208.168-.2063-.0397zm6.7591-.4158c-.1332-.0824-.1302-.1291.0175-.2724.2276-.2207.7365-.294.7977-.115.065.1899-.6134.5122-.8152.3874zm2.1719-.9872c-.184-.102-.236-.1867-.1483-.241.0771-.0477.1065-.2213.068-.4034-.0565-.2681-.046-.2861.065-.1117.177.2785.4436.2637.5367-.0297.0415-.1308.1292-.2378.1949-.2378.0657 0 .1997-.0803.2978-.1784.098-.098.332-.1784.5196-.1784.1877 0 .378-.0594.4229-.132.0478-.0773.2478-.105.4827-.0669.2206.0358.401.0174.401-.041 0-.0583.2007-.143.446-.188.2453-.0451.478-.131.517-.191.039-.06.2939-.112.5665-.1158.2725-.004.5247-.054.5604-.1117.0357-.0577.145-.105.2432-.105.098 0 .1453.0536.1049.119-.0404.0654-.02.119.0454.119s.149-.0489.1859-.1085c.0615-.0994.4313-.0992.72 0 .0654.0226.333-.0996.5946-.2715.3023-.1986.7928-.3643 1.3457-.4544.9239-.1505 1.0986-.1146.8572.1763-.168.2024-.4127.2764-2.4248.7336-1.2622.2868-1.4222.3008-1.516.1333-.149-.2662-.5406-.1322-.5301.1813.0115.3437-.9032.796-1.4383.7113-.2762-.0437-.4485.007-.6468.1922-.2593.2416-.367.2815-.7605.2815-.4616 0-.526-.0341-.4497-.2379.0683-.1822.053-.1878-.1227-.0449-.1103.0898-.2006.2602-.2006.3786 0 .1466-.1045.2274-.327.253-.184.0212-.314.1027-.2974.1863.0358.179.0408.1794-.3133-.017zm-3.2246-.119c0-.22.3629-.3514.5243-.19.0911.091.0768.16-.0496.2399-.2582.1632-.4747.1405-.4747-.05zm1.2408-.2803c.0168-.1144.0782-.2081.1365-.2081.0583 0 .124.0936.146.2081.0237.1228-.0323.2081-.1365.2081-.1005 0-.1634-.0896-.146-.208zm9.3656-1.3068c.0597-.31.4533-.3445.4533-.0398 0 .1702-.0764.2466-.2465.2466-.1702 0-.2342-.064-.2068-.2067zm-5.017-.3878c0-.0654.0802-.119.1783-.119.0981 0 .1784.0536.1784.119 0 .0654-.0803.1189-.1784.1189-.098 0-.1784-.0535-.1784-.119zm.7135-.1645c0-.0251.107-.0736.2378-.1078.1308-.0342.2379-.0137.2379.0456 0 .0593-.107.1078-.2379.1078-.1308 0-.2378-.0205-.2378-.0456zm7.7547-.0442c-.118-.0401-.1216-.091-.0152-.219.1521-.1834.4187-.2208.5108-.0718.0801.1297-.305.3556-.4957.2908zm-6.625-.267c-.0424-.0686.0678-.1181.2606-.117.2594.001.2942.0275.1556.117-.2284.1477-.325.1477-.4162 0zm-91.57-33.3565c-.1962-.0928-.5234-.1712-.7272-.1741-.2037-.003-.498-.105-.654-.2269-.156-.1218-.4071-.2602-.558-.3075-.151-.0473-.3235-.2152-.3836-.373-.06-.158-.1842-.2872-.276-.2872-.0916 0-.2281-.0741-.3033-.1646-.0836-.1007-.3565-.1613-.7033-.156-.719.0108-.895-.0951-.7982-.4804.0638-.2545.043-.2862-.139-.2114-.1178.0484-.4818.0868-.8088.0854-.4053-.002-.7268.0792-1.0096.254-.609.377-1.3221.5727-1.5119.4152-.1792-.1487-.2085-.5746-.0395-.5746.063 0 .1682-.1.2336-.2222.1095-.2046.0721-.22-.4704-.194-.324.0157-.6766.1009-.7834.1895-.1067.0886-.4024.175-.657.192-.4362.0293-.4587.0144-.3904-.2577.1204-.4799-.042-.5794-.5023-.3078-.586.3457-.8271.313-.9827-.1332-.1044-.2995-.0954-.4272.044-.6243l.5358-.7574c.1984-.2803.3612-.5747.362-.6541.0006-.0794.2435-.4655.5398-.858.2962-.3924.73-1.0872.9641-1.544.3859-.7529.4202-.8982.3673-1.5566-.032-.3994-.1513-.8682-.265-1.0417-.1136-.1735-.1762-.3946-.1391-.4914.0893-.2328-.137-.9084-.3818-1.1394-.2647-.2499-.492-.6642-.492-.8967 0-.2268-.8232-1.6125-1.0395-1.7498-.2712-.1722-.1576-.3284.44-.6053.3244-.1503.6643-.3351.7554-.4108.31-.2572 1.5431-.3078 2.0175-.0827.245.1163.5339.1702.6737.1258.1476-.0468.2449-.0249.2449.0553 0 .1873.747.4777 1.2288.4777.224 0 .5388.106.7064.2378.1663.1308.3391.2379.3841.2379.045 0 .2354.1093.4232.243.1877.1337.6005.32.9172.414.3168.0942.7066.3112.8663.4824.1596.1711.5579.447.8849.613.327.1659.7046.4148.839.553.1343.1383.4688.4348.7432.659.2744.2243.499.4498.499.5013 0 .158 1.0898 1.9266 1.3859 2.249.1534.1671.2804.3812.2823.4757.0018.0945.1623.328.3567.5188.1944.1907.3535.4124.3535.4927 0 .0802.0802.1766.1782.2142.0981.0376.3084.3527.4673.7002.159.3475.3998.732.5353.8546.1354.1226.2466.3083.247.4126.0003.1043.0686.3235.1517.487.0968.1907.1413.695.1242 1.4064-.0228.9437-.0718 1.1858-.3285 1.624-.3011.5137-.9844 1.1326-1.4347 1.2994-.4871.1805-2.599.189-2.973.012zm32.8264-22.736c-.1287-.0364-.4014-.1937-.6059-.3497-.2045-.156-.4287-.2836-.4983-.2836s-.5169-.3803-.9939-.8452c-.581-.5662-1.1329-.972-1.672-1.2296-1.2283-.5868-1.8306-1.3787-2.0536-2.7003-.0403-.239-.152-.4647-.2484-.5017-.11-.0422-.177-.2343-.1803-.517-.003-.2472-.0632-.6904-.134-.9847-.071-.2944-.1437-.776-.1618-1.0703-.0318-.5183-.0637-.6526-.3148-1.327-.0647-.174-.105-.4415-.0897-.5947.0153-.1531-.0337-.429-.109-.6132-.0753-.1841-.137-.4008-.137-.4816 0-.0808-.0622-.2091-.1383-.2852-.1686-.1686-.1484-1.156.0327-1.6007.113-.2775.0856-.403-.1909-.8748-.3051-.5207-.3172-.5975-.22-1.4005.0963-.7944.075-1.134-.1402-2.2392-.0822-.4216-.0679-.4467.3749-.6578.4178-.1993.459-.2602.4467-.6618-.0134-.4355.1396-.5981.2621-.2787.0346.0899.1906.1635.3467.1635.1562 0 .3709.087.4772.1933s.2475.1932.3139.1932c.1176 0 .6682.4627 1.2824 1.0776.1674.1675.398.3398.5124.3828.1145.043.2081.187.2081.32s.214.4353.4757.6717c.2616.2363.4757.5028.4757.592 0 .0892.1299.1949.2886.2347.4132.1037.6197.3917.7109.9916.1748 1.1501.3983 1.2883 2.3898 1.4772.3924.0372.9543.1572 1.2487.2666.2943.1095.6288.1958.7432.1918.1145-.004.2081.0596.2081.1413 0 .0817.104.2602.2312.3967.229.2458.229.2487 0 .3086-.3353.0877-.2897.4866.1417 1.2406.3022.5281.3416.6713.208.7559-.0905.0574-.2232.105-.2949.106-.2145.003-.516.4092-.5943.8005-.0607.3033-.0301.3804.177.4461.1376.0437.2503.1648.2503.2691s.0894.4733.1986.8199c.1609.5103.2656.6536.5504.7529.2743.0956.3229.1575.2204.2809-.0964.116-.0939.1957.009.2988.1731.1732.2153 1.4555.0668 2.033-.06.2339-.1815.875-.2698 1.4247-.1928 1.1996-.4334 1.7193-1.0482 2.2645-.4431.393-.5046.411-1.4922.4388-.5665.0159-1.1353-.001-1.264-.0371zm15.9123-4.6845c-.2245-.0836-.2488-.1597-.19-.5972.0517-.3865.0214-.5349-.1324-.6473-.1144-.0837-.2063-.3251-.2153-.566-.022-.5851-.4368-.786-.7882-.3818-.1566.1802-.326.258-.476.2187-.1282-.0335-.269-.003-.3129.0684-.0439.071-.2063.1293-.3607.1293-.2155 0-.2992-.0832-.3594-.3573-.063-.2869-.009-.4452.274-.8028.194-.245.4363-.646.5386-.891.1029-.2465.3207-.5071.4872-.583.1657-.0755.335-.2495.3764-.3868.0413-.1372.5106-.6821 1.0428-1.211.5323-.5287 1.048-1.0822 1.1461-1.23.3755-.5654 1.169-1.5242 1.7255-2.085.2622-.2642.6894-.748.9493-1.075.26-.327.5136-.6124.5638-.6342.0502-.0218.0912-.1378.0912-.2577 0-.12.0435-.2359.0968-.2577.2053-.084.8546-1.468.8546-1.8214 0-.2101-.1294-.5475-.2973-.775-.1635-.2217-.2973-.4965-.2973-.6107 0-.1143-.0465-.2365-.1032-.2715-.0568-.0351-.14-.341-.185-.6796-.099-.747-.5752-1.9564-.9108-2.3137l-.2455-.2613.269-.2506c.148-.1378.3883-.2506.5342-.2506.175 0 .353-.1421.5233-.4177.3764-.609.6702-.7339.9991-.425.1452.1365.356.2481.4683.2481.2764 0 1.06.3302 1.2086.5093.1544.186 1.0944.9178 1.1791.9178.0354 0 .266.186.5124.4133.6934.6397 1.1831 1.0137 1.3273 1.0137.0723 0 .1315.1294.1315.2874s.0438.3052.0974.327c.0536.0219.3193.3685.5904.7703.2712.4018.5629.8032.6483.892.2028.2106 1.7705 3.0126 1.9865 3.5505.2338.582.2956 1.958.1229 2.7335-.1616.7252-.612 1.5894-1.4113 2.7072-.5313.743-.8089.9535-.6666.5054.1343-.4233-.1422-.2547-.9263.5649-.4224.4415-1.1434 1.1962-1.6023 1.6771-.8833.9259-.9341.9436-1.67.5811-.2376-.1171-.264-.1944-.1983-.5828.1015-.601-.008-.7573-.3669-.5224-.3561.2334-.5772.2341-.7694.002-.135-.1627-.1783-.1587-.401.0368-.2845.2496-.8319.5024-1.0878.5024-.095 0-.1728-.107-.1728-.2379 0-.1308-.0394-.2378-.0875-.2378-.237 0-1.4426.709-1.9245 1.1317-.4852.4255-1.0215.8714-2.0172 1.6772-.2262.183-.382.2258-.5688.1563zm-4.9511-1.0184c-.068-.068 1.1394-1.3522 1.271-1.3522.1628 0 .0495.2218-.3543.6936-.4415.5157-.8012.7741-.9167.6586zm-6.2676-.1667c0-.0634.0803-.1152.1783-.1152.0981 0 .1784.021.1784.0467 0 .0257-.0803.0775-.1784.1152-.098.0376-.1783.0166-.1783-.0467zm16.1734-.0967c0-.1857 1.0068-1.1008 1.0543-.9583.0256.077-.161.344-.4147.5935-.4602.4524-.6396.5548-.6396.3648zm-.9291-.7395c.0286-.0858.1222-.1795.2081-.2081.0892-.0297.1338.0149.104.104-.0286.0859-.1222.1796-.208.2082-.0893.0297-.1339-.015-.1041-.104zm-41.3477-28.8831c-.5614-.137-1.7191-.8402-1.94-1.1782-.1103-.1689-.3193-.4354-.4644-.5923-.145-.1568-.295-.3835-.3331-.5037-.0381-.1201-.165-.2488-.282-.286-.117-.037-.2868-.2138-.3772-.3926-.0904-.1788-.3705-.578-.6224-.8871-.2519-.3092-.4268-.6126-.3887-.6742.0381-.0617-.0189-.2004-.1267-.3082-.1078-.1078-.2148-.3571-.2377-.554-.023-.197-.0705-.4048-.1058-.4618-.0352-.057-.0907-.523-.1233-1.0356-.0574-.9-.048-.9425.2709-1.2412.1816-.1701.453-.3464.603-.3918.4146-.1254 1.4754.1725 1.7543.4925.1546.1774.4797.3282.892.4137.6212.1289.709.1135 2.0757-.363 2.2391-.7805 4.1775-1.396 5.4704-1.7372.654-.1726 1.4033-.3831 1.665-.468.2615-.0848.7164-.218 1.0107-.2958.2944-.078.6957-.195.892-.2603.1962-.0652.4516-.1393.5675-.1647.2722-.0596 1.7295-.5241 2.084-.6643.1503-.0594.4062-.108.5688-.108.1625 0 .4945-.0881.7376-.1957.2432-.1076.7098-.2367 1.0368-.2867.7412-.1135 1.9034-.5168 1.9007-.6595-.005-.2575-.5544-1.1176-.714-1.1176-.1718 0-.2236-.2685-.1837-.9514.0096-.1635-.0973-.7254-.2374-1.2487-.1401-.5233-.2794-1.1387-.3095-1.3676-.0684-.5214-.2756-.9648-.5444-1.1656-.3327-.2485-.4687-.602-.5303-1.3777-.0317-.3999-.106-.7858-.165-.8576-.1558-.1894.009-1.7187.22-2.0407.0988-.1508.1472-.3065.1075-.3461-.0396-.0396.0287-.2136.1519-.3865.1641-.2306.1928-.37.1074-.5226-.1184-.2115.0517-.969.2706-1.2056.1494-.1614.1262-.5523-.0534-.8978-.1112-.214-.1196-.3553-.03-.5041.093-.1544.0705-.3071-.0887-.6027l-.2132-.396-.6803.1402c-.3741.077-1.08.2603-1.5686.4071-.4886.1468-1.1292.3382-1.4235.4253-.7389.2185-2.6876.649-2.9422.6498-.115 0-.3625.0807-.5499.1784-.1873.0977-.4549.1783-.5946.179-.1397.001-.682.1105-1.2053.2438-.5233.1332-1.219.2895-1.546.3472-.327.0577-1.0763.2115-1.665.3416-2.8946.6402-3.83.828-4.1027.8243-.1636-.002-.54.0783-.8366.179-.7734.2626-2.2812.5646-3.3852.678-1.8106.1858-2.853.3794-3.5062.651-.3608.15-.7853.3124-.9433.3608-.158.0484-.4183.2438-.5786.4343-.1602.1904-.5179.502-.7949.6927-.4253.2926-.654.3559-1.4704.407-.5317.0333-1.0811.1217-1.221.1966-.5062.271-2.68.152-3.3255-.182-.7867-.407-1.0184-.5089-1.3228-.5813-.1755-.0418-.4334-.2363-.573-.4324-.1396-.196-.3211-.3564-.4034-.3564-.1767 0-.6667-.496-.6667-.675 0-.0683-.1387-.3287-.3082-.5786-.1696-.2498-.3263-.5478-.3483-.6622-.022-.1143-.151-.3188-.2864-.4542-.1354-.1355-.2463-.3682-.2463-.5172 0-.149-.0936-.3593-.208-.4673-.3832-.3617-.5183-.572-.4442-.6919.0404-.0654-.0907-.4662-.2912-.8907-.2006-.4245-.3647-.8443-.3647-.9328 0-.0885-.1763-.3961-.3918-.6835-.599-.7988-.7922-1.4208-.7578-2.4393.0255-.7586.071-.9237.3246-1.1772.434-.434 1.0717-.4207 2.0527.0428.437.2065.8747.3754.9727.3754.0979 0 .178.0494.178.1097 0 .0603.2007.1711.446.2461.2453.075.5743.1996.7312.2768.5195.2557 4.7375.1038 6.138-.221.4282-.0993 1.2988-.2573 1.9346-.351 1.5016-.2214 2.9568-.4986 4.0695-.7752.4905-.1219 1.4538-.3381 2.1406-.4805.6868-.1423 1.4627-.3064 1.7244-.3646a41.8542 41.8542 0 011.0703-.2183c.327-.0619.8889-.198 1.2486-.3023.3598-.1045.7611-.2095.892-.2334.1308-.024.4786-.1065.773-.1833.8589-.2242 1.9247-.484 2.4378-.594.2617-.0561.8663-.2104 1.3437-.3429.4774-.1324.9348-.2151 1.0165-.1838.0816.0313.5163-.1098.9658-.3136.5337-.242 1.0642-.3863 1.5286-.4159.497-.0316.7865-.1157.9609-.279.1373-.1284.651-.3651 1.1415-.526.4905-.1608 1.0429-.362 1.2274-.4472.2564-.1182.3562-.1215.4227-.0139.0641.1038.2109.0776.5564-.0993.5733-.2935 1.5418-.5903 1.9264-.5903.302 0 .6653-.2758.535-.4062-.1526-.1525-.2359-1.4353-.1088-1.675.1231-.2321.172-.5373.2534-1.5838.022-.2825.0701-.5437.107-.5805.0367-.0368.0161-.1617-.0458-.2774-.0725-.1356-.0675-.34.0142-.5744.1-.2868.0888-.4181-.0531-.6207-.1153-.1646-.1477-.348-.09-.5101.0494-.1392.0783-.5475.0641-.9072a312.0112 312.0112 0 01-.057-1.6055c-.0173-.5232-.0714-1.0612-.1203-1.1955-.0489-.1342-.0347-.3407.0314-.4589.0842-.1505.0752-.3088-.0302-.5289-.0827-.1727-.166-.5013-.185-.7303-.019-.2289-.061-.5355-.0933-.6813-.0323-.1458-.0058-.2977.0587-.3376.0751-.0464.069-.1308-.017-.2344-.1827-.2202-.2378-1.5177-.069-1.6272.0863-.056.0341-.155-.1498-.2845-.2504-.1763-.2745-.2632-.214-.773.0373-.316.0203-.6038-.0378-.6397-.0582-.036-.031-.2444.0604-.4632.1411-.3378.1415-.4315.0027-.6214-.1014-.1386-.1224-.2732-.0554-.3539.065-.0784.0588-.5234-.0158-1.1182-.0829-.6607-.0844-1.0275-.0046-1.1072.0798-.0798.0788-.195-.003-.3479-.0673-.1257-.0895-.4252-.0494-.6656.04-.2403.0997-1.213.1324-2.1614.0327-.9484.0819-1.9652.1093-2.2595.0274-.2943.053-.6513.057-.7933.0123-.436.4732-1.3508.8644-1.7156.2589-.2414 1.3447-.378 1.8508-.233.2089.06.3798.0799.3798.0442 0-.0357.132.0216.2931.1272.1613.1056.3803.192.4869.192.1065 0 .2217.1071.2559.238.0342.1307.1496.238.2564.2384.1068.0003.3815.1934.6105.429.2289.2357.5901.6064.8027.8239.2126.2175.3865.5042.3865.6371 0 .133.1605.406.3568.6067.1962.2007.3573.4033.358.45.0008.0469.2157.1878.4776.3133.3175.1521.5052.3345.5635.5476.0987.3606.6143.9799 1.1887 1.4274.3392.2644 1.4555 2.0117 1.4555 2.2784 0 .055.0527.1931.1171.3067.208.3666.5964 1.6757.5983 2.0163.001.182.0468.4017.1018.4885.0952.1502-.048.7296-.2635 1.0664-.057.0891-.0384.2263.0442.3258.0935.1127.1124.3258.055.6191-.0482.246-.1061.6078-.1287.804-.1334 1.1622-.2044 1.5603-.2995 1.6776-.0586.0724-.0742.2934-.0347.491.0414.2071.0174.393-.0566.4388-.0906.056-.086.1472.0151.3093.1163.1862.1054.2945-.0573.57-.1425.2413-.164.3768-.0737.4671.0865.0865.0904.2542.0122.5246-.0632.2186-.0967.6383-.0743.9326.0224.2943.0665.9097.0981 1.3676.0316.4578.1187.947.1936 1.087.0904.169.0977.3234.0218.459-.0716.1279-.0735.4105-.005.7562.1799.9105.1925 1.1365.0756 1.3564-.0822.1546-.0616.229.078.2827.1364.0523.1698.1634.1188.3955-.0865.3942.1725.6538.537.5382.194-.0616.2672-.0215.3185.1748.0832.3181.49.285.6775-.055.0721-.1309.1453-.261.1626-.2892.0173-.0282.2848-.0887.5946-.1344.3097-.0458.743-.1243.963-.1744.3969-.0905.3992-.0886.32.2718-.0945.4301.075.5846.345.3146.1383-.1383.157-.2342.067-.3428-.0927-.1115-.0484-.201.17-.3441.3346-.2193.7793-.2572.7793-.0664 0 .0698.1554.0163.3454-.119.4358-.3103.783-.33.6693-.0378-.1459.375-.126.4464.115.413.6122-.0852.7586-.1599.7945-.4051.0251-.1716.1587-.2927.3948-.3578.3348-.0923 4.0037-.2918 6.6596-.3622.8441-.0224 1.3056-.0913 1.5902-.2375.2205-.1133.4456-.1784.5001-.1447.0546.0337.1845-.0687.2887-.2277.1042-.159.3485-.355.543-.4355.3602-.1492 1.3416-.1753 1.9141-.051.1744.038.5283.012.7865-.0574.2582-.0695.7577-.1543 1.11-.1884.3523-.034.8279-.15 1.0568-.2574.5276-.2478 2.6163-.3155 2.6163-.085 0 .0815.1471.1756.327.2093.6296.118 1.5171.236 1.6103.2142.0517-.012.2122.042.3567.1202.3069.166.7205.247 1.1966.2345.2418-.006.3567.0582.4003.225.0338.1287.1487.2352.2555.2367.1068.001.328.1073.4915.2352.1636.1279.4446.2337.6245.2352.2225.002.4726.1524.7814.4707.2499.2574.602.5051.7825.5504.1805.0453.3571.1578.3925.25.0354.0921.245.243.466.3353.221.0923.4019.2241.4019.2929 0 .0687.0482.125.107.125.214 0 1.7935 1.5436 1.7948 1.754 0 .0819.0539.1487.1187.1487s.282.3613.4829.8028c.3195.7023.3556.8858.289 1.4671-.0654.5707-.1474.7386-.5814 1.1892-.9777 1.0153-1.3086 1.2434-2.0398 1.4065-.704.157-1.8116.5276-2.24.7496-.1241.0643-.539.1169-.922.1169s-.7237.044-.757.0979c-.0333.0539-.3293.1872-.6579.2963-.5477.182-.6214.1827-.8863.009-.3641-.2385-.5352-.2404-.5352-.006 0 .215-.2745.5138-.773.8413-.3108.2041-.5414.2316-1.7887.2128-1.225-.0184-1.4914-.0578-1.8433-.2728-.2262-.1382-.786-.3672-1.2438-.5087-.4578-.1416-.886-.2973-.9514-.346-.0654-.0488-.3196-.1261-.5648-.172-.2453-.0458-.446-.1309-.446-.189 0-.0581-.107-.1057-.2379-.1057-.163 0-.2378-.0793-.2378-.2524 0-.2108-.0294-.228-.1783-.1045-.1405.1167-.2518.1175-.5257.004-.1911-.0792-.4454-.1238-.565-.0993-.1196.0245-.2801-.0376-.3566-.138-.2046-.2689-4.8192-.232-6.6395.053-1.5837.248-3.0325.3316-3.0325.175 0-.2013-.5875-.1206-.8207.1126-.3336.3336-.6445.3983-1.9881.4139-1.0485.012-1.2627.0496-1.5654.2733-.1928.1426-.5451.3406-.7829.44-.2377.0992-.4322.2605-.4322.3582 0 .0977-.1112.3661-.2472.5965-.1498.2539-.2174.5125-.1718.6564.0415.1306.008.36-.0754.5096-.0829.1496-.1321.3255-.1094.391.0228.0653.0555.6808.0727 1.3676.0377 1.506.1516 2.824.3135 3.627.1289.6399.21 1.2652.2623 2.0217.061.8842.2122 2.1396.2792 2.319.0366.0981.079.4192.0938.7136.015.2943.1495.776.299 1.0703.1494.2943.2903.6421.313.773.157.9015.3515 1.7188.427 1.794.049.049.0893.1896.0893.3127 0 .143.161.2976.446.4282.2452.1123.5817.2957.7478.4076.166.1118.4603.1977.654.1908.1937-.007.8071.025 1.363.071.556.0457 1.225.0784 1.4866.0726 1.4727-.0326 2.575-.1269 2.7828-.238.1713-.0918.3252-.0859.5605.0213.2577.1174.3345.1175.3735 0 .027-.081.165-.1474.3067-.1477.1417 0 .4329-.1073.647-.2378.2142-.1306.5188-.2374.6768-.2374.1581 0 .3205-.0535.361-.119.0404-.0653.298-.1189.5726-.1189.6695 0 1.2515-.1784 1.5758-.483.2293-.2154.3057-.2302.5407-.1044.1505.0805.5943.152.9863.1588.5597.01.7677.0672.9688.2679.2251.2247.3229.243.8098.152.3568-.0667.6697-.0584.8797.0232.1792.0697.5181.1252.753.1233.444-.004 1.1783.3585 1.1783.581 0 .0702.056.0932.1242.051.0683-.0422.2537.008.412.1119.1584.1037.4102.1891.5597.1898.1494.001.558.1344.9079.2973.3499.1629.6787.2961.7307.2961.052 0 .2584.1531.4587.3402.2003.1871.5253.407.7221.4885.197.0815.3938.263.4375.403.0437.1402.1123.2816.1526.3143.0403.0327.168.2468.284.4757.1159.229.3449.6004.5088.8254.1639.225.3264.5461.361.7135.0346.1674.1674.6415.295 1.0535.1686.5445.1992.8102.112.9732-.066.1234-.12.3578-.12.5209 0 .1631-.0804.3769-.1784.475-.0981.0981-.1784.2428-.1784.3216 0 .1517-.4483.5873-.6044.5873-.0507 0-.2874.184-.526.409-.2385.225-.5081.3805-.5991.3456-.091-.0349-.4969.1021-.902.3045-.405.2024-.8353.368-.9564.368-.121 0-.3088.1037-.4173.2305-.1833.214-.2225.2175-.5498.0482-.2524-.1305-.3758-.1444-.435-.0486-.0454.0735-.2657.131-.4896.128a66.2633 66.2633 0 00-.7044-.006c-.3143-.001-1.127.3105-1.427.5465-.0981.0772-.637.1737-1.1976.2146-.797.058-1.0691.0365-1.2486-.0992-.1474-.1114-.3675-.149-.6149-.105-.286.0508-.5827-.0267-1.152-.3013-.4217-.2033-.8705-.3697-.9975-.3697-.1269 0-.29-.0714-.3625-.1588-.0725-.0873-.36-.2304-.639-.318-.2788-.0876-.5579-.2034-.62-.2574-.0621-.054-.2896-.0982-.5054-.0982-.312 0-.3925-.0483-.3925-.2356 0-.1604-.1044-.2585-.327-.3072-.1799-.0394-.5734-.1723-.8745-.2954-.9959-.407-4.1285-.6241-9.0852-.6295-2.1168-.002-2.6338.049-3.984.3964-.2942.0757-.883.1808-1.308.2336-.6645.0825-1.5415.2663-3.4488.7227-.229.0548-.8789.209-1.4444.3427-.5655.1336-1.716.4337-2.5568.6667-.8408.233-1.6625.4467-1.826.475-1.4096.2428-2.6769.6567-5.3515 1.7475-.8176.3335-1.9681.8016-2.5568 1.0403-.5887.2387-1.3914.5018-1.7838.5846-.3925.083-.907.2005-1.1436.2613-.4815.1237-.6056.1236-1.116-.001zm27.8872-40.3815c0-.0981-.0535-.1784-.119-.1784-.0653 0-.1189.0803-.1189.1784s.0535.1784.119.1784c.0654 0 .1189-.0803.1189-.1784zm-52.2416 7.1935c-.034-.1301-.019-.2366.0332-.2366.1398 0 .246.3388.1289.4111-.0551.0341-.128-.0445-.162-.1746zM43.546 94.3499c-.0981-.0666-.7403-.1121-1.427-.1012-1.1412.018-1.3563-.0163-2.4974-.3987-.6868-.2302-1.3863-.4514-1.5545-.4915-.4646-.111-1.6465-.931-1.7326-1.2022-.0419-.1319-.235-.3882-.4292-.5696-.2897-.2706-.3423-.399-.2931-.7159.1211-.7812.4014-1.3105.8041-1.5188.346-.1789.4614-.1843.9848-.0462.3566.094.6694.1155.7847.0538.1054-.0564.5653-.1105 1.0219-.12 1.0657-.0225 1.333-.053 1.841-.2101.2289-.0708.8336-.1599 1.3437-.198.5102-.038 1.0284-.1231 1.1517-.189.1233-.066.431-.12.6838-.12.2529 0 .5106-.0488.5727-.1085.0622-.0597.5411-.1731 1.0644-.252.5232-.079 1.0316-.1725 1.1297-.2078.0982-.0352.2202-.055.2712-.044.051.011.251-.0617.4442-.1616.1932-.1.5796-.2025.8586-.2278.58-.0527 2.0844-.3064 2.3505-.3963.098-.0332.3167-.0787.4857-.101.169-.0224.4634-.122.654-.2215.1908-.0994.4361-.1811.5453-.1815.224-.0009.9294-.3757.9305-.4945.0004-.0426-.1673-.184-.3727-.314-.2677-.1695-.4616-.2111-.6849-.147-.4663.1337-.8034-.0473-.9575-.514-.0753-.2283-.2144-.4793-.3092-.558-.0948-.0786-.1723-.2373-.1723-.3526 0-.1153-.1338-.2973-.2973-.4044-.198-.1297-.2973-.3042-.2973-.5224 0-.1801-.0717-.433-.1592-.5621-.0876-.129-.1697-.529-.1825-.8887-.0128-.3597-.077-.8216-.1427-1.0264-.1905-.5944-.1549-1.574.097-2.6601.0763-.3297.097-3.2559.0315-4.4596-.007-.1308-.0036-.6392.0078-1.1298.023-.9868-.0928-1.9266-.2491-2.0233-.1685-.104-.3178-.622-.336-1.1645-.0093-.2817-.0635-.6028-.1204-.7136-.0568-.1107-.1328-.4327-.1688-.7153-.0614-.4825-.0332-.5475.4596-1.0619.2887-.3013.525-.5918.525-.6455 0-.0537.0802-.0977.1783-.0977.0981 0 .1784-.0477.1784-.106 0-.093.3251-.2214.8079-.319.0845-.0171.3253.0209.5351.0844.2098.0636.7682.1301 1.241.148.5643.0212.9321.0953 1.0704.2154.1158.1007.3453.215.51.254.1648.0388.6197.4022 1.0109.8074.3912.4053.9388.9673 1.2168 1.249.278.2816.5054.6082.5054.7258 0 .1175.107.2805.2378.3622.1564.0976.2379.2773.2379.5246 0 .2069.0881.4736.1959.5926.1266.14.211.4882.2388.9854.0236.4229.096.9085.1609 1.079.0648.1706.1179.4583.1179.6394 0 .181.0401.369.0892.4175.1388.1375.36 2.492.248 2.6395-.0549.0723-.0473.4079.0168.7459.064.338.1148 1.59.1128 2.7822-.0021 1.1923.019 2.248.0468 2.3461.0279.0981.0903.349.1387.5573.0483.2084.1622.4074.253.4422.0907.0349.165.2151.165.4006 0 .2188.1444.495.4112.7863l.4113.449 1.5508-.0393c.8529-.0216 1.5508-.0769 1.551-.1229 0-.046.2543-.083.565-.0824 1.1032.0025 1.2533-.0221 1.5478-.2537.1638-.1289.3666-.2343.4506-.2343.1189 0 .1257-.098.0308-.4418-.0732-.265-.078-.4564-.012-.4783.1456-.0486-.0001-1.1537-.181-1.3716-.0777-.0936-.1515-.3254-.164-.515-.0126-.1896-.0929-.4503-.1786-.5793-.0856-.129-.161-.4769-.1676-.773-.0065-.2961-.0521-.6722-.1013-.8357-.0635-.211-.018-.4173.1566-.71.2197-.3684.2447-.5919.2328-2.0812-.0197-2.4452-.1326-6.0553-.2215-7.0794-.0426-.4905-.0954-1.6946-.1174-2.6757-.0603-2.692-.141-3.4866-.3854-3.7974-.1805-.2295-.211-.4964-.2005-1.7544.0105-1.2637.0463-1.5303.2413-1.7982.1259-.173.3233-.3465.4387-.3855.1154-.039.1806-.1183.1449-.1762-.0357-.0578.0705-.1939.2362-.3024.3365-.2205 1.4718-.2732 1.5949-.074.042.0677.4303.2871.863.4874.4328.2003.9674.5366 1.188.7472.2207.2106.4667.37.547.3541.5235-.1035 2.323 1.1559 2.563 1.7939.0431.1144.1388.208.2128.208.1782 0 .7927.6643.8858.9576.0405.1276.177.2873.3034.355.1583.0846.2298.2494.2298.5293 0 .2236.0498.5294.1107.6797.0609.1502.1406.414.177.586.073.344.7868.7674 1.0945.6494.097-.0372.2939.009.4376.1027.356.2322 1.1794.4048 1.394.2924.4264-.2233 1.2712-.5846 1.3725-.587.0611-.0015.245-.1073.4084-.2352.1636-.128.3891-.2338.5013-.2352.1121-.0015.262-.1112.333-.2438.071-.1327.1881-.2047.2604-.16.0722.0446.2434.0942.3805.1103.137.016.3027.0433.3681.0606.0654.0173.2616-.0088.4359-.058.2004-.0564.4628-.0258.7135.0831.2182.0949.691.2402 1.0507.323.4022.0925.8452.3051 1.1504.552.4299.3477.5384.3855.8104.282.4574-.1738.5991-.1508.9734.158.1849.1526.629.3716.987.4868.8306.2672 1.6083 1.0736 1.7222 1.786.0582.3637.0311.5102-.114.6162-.146.1068-.1972.3917-.2202 1.2245-.0287 1.0421-.0443 1.0981-.3915 1.4094-.5827.5224-1.0887.8593-1.2906.8593-.1033 0-.7343.1826-1.4021.4057-1.1393.3806-1.2847.4016-2.3572.3414-.7843-.044-1.169-.022-1.226.07-.1321.214-.7086.1574-1.663-.163-.4872-.1635-.9718-.2973-1.077-.2973-.1053 0-.327-.0888-.4926-.1974-.2-.131-.608-.2077-1.2148-.2283-1.0518-.0356-1.8504-.1144-2.293-.2264-.5029-.1273-.5941.2965-.5115 2.3765.039.981.081 2.1049.0935 2.4973.0125.3925.0587.7938.1028.892.1448.3223.3607 2.1782.3874 3.3298.0312 1.351.1637 1.6761.8141 1.9977.6596.3262 1.0173.3772 3.1095.4436.981.0312 2.0514.0663 2.3784.078.327.0118.889.0118 1.2487 0 1.0483-.034 1.1736-.0246 1.247.0942.0436.0707.1818.0699.3709-.002.1657-.063.4307-.082.5888-.0424.1582.0397.5424-.0087.854-.1075.7304-.2316 2.1697-.5612 2.4451-.5599.1176.0006.3441-.1396.5034-.3115.2466-.266.4092-.319 1.0944-.3566 1.5294-.084 1.8845-.1301 2.1171-.2747.1929-.1199.3735-.0944 1.0355.1464.7815.2842.8083.286 1.0542.0728.23-.1996.2824-.2032.5954-.0413.1887.0976.3432.2357.3432.307 0 .0873.2084.1035.6389.0497.4962-.062.6799-.0388.8224.1037.101.101.6295.271 1.1746.378.6016.118 1.0613.2763 1.1696.4026.098.1145.4375.3044.7542.422.322.1196.8027.4408 1.0906.7287.2832.2831.5609.5148.6172.5148.148 0 .3779.8874.465 1.7955.0591.6178.034.8475-.1182 1.0798-.1064.1623-.161.3275-.1214.3671.0396.0396-.0137.1944-.1185.344-.1048.1496-.1905.3921-.1905.539 0 .1467-.174.4521-.3865.6786-.2126.2265-.511.5761-.6631.777-.1521.2008-.3556.3651-.4521.3651-.0966 0-.232.1617-.3008.3593-.0689.1976-.2267.4135-.3506.4799-.124.0663-.2253.2191-.2253.3397 0 .2902-.1938.435-.7977.5965-.2753.0736-.5342.1885-.5755.2553-.0476.077-.1257.0803-.2131.0093-.076-.0617-.5395-.1004-1.03-.086-.4906.0145-.999-.0275-1.1298-.0933-.1308-.0658-.7519-.1289-1.3802-.1401-.6282-.0112-1.1973-.0544-1.2646-.096-.0672-.0415-.4362-.0784-.8198-.0819-.9094-.0083-1.1021-.0084-1.5301-.001-.4225.0074-1.3676-.3252-1.3676-.4812 0-.06-.2114-.109-.4698-.109-.2662 0-.511-.0692-.5649-.1595-.1078-.1808-1.1789-.4776-1.3474-.3735-.0607.0375-.2097.015-.3312-.05s-.5909-.1535-1.043-.1966c-.4522-.0432-1.431-.144-2.1753-.2242-1.766-.1903-7.351-.131-10.777.1145-1.439.103-2.6965.2105-2.7946.2388-.1934.0557-2.5034.1637-4.8758.228-.8176.0221-1.7166.1022-1.9978.178-.2812.0758-.6189.1037-.7504.062-.1316-.0418-.5972-.0679-1.0348-.0579-1.1366.0259-1.1402.0262-1.2712.1204-.0654.047-.7076.175-1.427.2846-.7195.1094-1.7898.2777-2.3785.3738-.5887.096-1.3111.1972-1.6055.2246-.554.0516-1.8121.273-3.865.6803-.654.1297-1.4835.2306-1.8432.2243-.3598-.0064-1.0758.0694-1.5912.1684-.522.1003-1.0138.1372-1.1102.0833-.1592-.0892-.8547-.0222-1.5798.1521-.1635.0393-.3776.017-.4757-.0496zm101.4405-.5714c-.1635-.111-.3152-.242-.337-.291-.0218-.049-.1303-.0892-.241-.0892-.1109 0-.3071-.074-.4361-.1643-.129-.0904-.2881-.177-.3535-.1926-.3396-.081-.654-.2442-.654-.3396 0-.0593-.2275-.1893-.5055-.289-1.153-.4136-1.368-.5186-1.8153-.8875-.2578-.2126-.51-.3865-.5605-.3865-.0505 0-.0918-.072-.0918-.16 0-.184-.3563-.5316-.7417-.7237-.1455-.0725-.3264-.2562-.4022-.4082-.0758-.152-.31-.381-.5205-.509-.2104-.128-.41-.337-.4433-.4646-.0334-.1276-.1578-.2319-.2766-.2319-.1188 0-.2494-.1055-.2903-.2344-.1053-.3315-1.543-1.6812-2.1036-1.9746-.1752-.0918-.3512-.2697-.3912-.3955-.0399-.1258-.324-.434-.6313-.6851-.6795-.555-2.167-2.075-2.167-2.2143 0-.0553-.1314-.2444-.292-.42-.7415-.8116-1.1351-1.3113-1.1351-1.441 0-.1786-.845-1.1975-.9932-1.1975-.0607 0-.1788.0936-.2624.208-.0836.1143-.1908.1691-.2382.1217-.0474-.0473-.017-.1692.0672-.2708.1276-.1538.1137-.229-.0828-.4489-.1298-.1452-.3623-.4781-.5166-.7397-.1543-.2617-.3101-.5025-.3462-.5352-.0362-.0327-.161-.2474-.2773-.477-.1164-.2297-.3704-.524-.5646-.654-.1941-.1302-.3531-.307-.3533-.3932 0-.1297-.491-.8786-.7156-1.092-.0344-.0328-.1276-.2075-.207-.3883-.0796-.1809-.2795-.3903-.4444-.4654-.1648-.0751-.289-.1948-.2757-.2658.037-.1984-.1449-.6644-.2592-.6644-.0559 0-.1635-.1873-.239-.4162-.0756-.229-.1782-.4163-.228-.4163-.0498 0-.1497-.1295-.2218-.288-.0971-.2131-.1963-.2708-.382-.2223-.215.0562-.241.0251-.182-.2174.0883-.3628-.6071-1.5028-.9485-1.555-.176-.0268-.248-.1443-.2772-.4525-.0217-.2289-.142-.512-.2676-.629-.1255-.117-.2282-.283-.2282-.369 0-.086-.1395-.307-.31-.491-.1705-.184-.4078-.5627-.5273-.8415-.1195-.2788-.3272-.5657-.4616-.6376-.226-.121-.7227-1.0189-.7227-1.3065 0-.069-.0525-.1255-.1167-.1255-.0642 0-.1522-.1471-.1957-.327-.0435-.1799-.1783-.4691-.2996-.6427-.1213-.1736-.2205-.3702-.2205-.4368 0-.0667-.1238-.2725-.275-.4574-.3247-.3966-5.0765-9.9134-5.0765-10.167 0-.0953-.107-.3949-.2378-.6657-.1308-.2707-.2379-.5501-.2379-.6209 0-.0707-.1278-.381-.2841-.6895-.3582-.707-1.037-2.4804-1.3073-3.415-.1135-.3925-.25-.7956-.3032-.8959-.0533-.1002-.1338-.3507-.179-.5566-.1188-.5409-.3261-.664-.9858-.5856-.3122.0371-1.1028.0964-1.757.1316-.654.0353-1.537.1122-1.9621.1708-.807.1113-1.0507.1332-1.3973.1256-.687-.0151-1.2617.017-1.3569.0758-.0603.0372-.6827.0891-1.3832.1153-.7005.0261-1.7552.1015-2.3439.1675-2.769.3104-4.3355.4778-4.9352.5276-.3598.0298-1.0287.1074-1.4866.1723-.4578.065-1.2873.1533-1.8432.1963-.556.043-1.3433.1545-1.7496.248-.4062.0933-.7808.159-.8324.1459-.1319-.0335-.9902.1231-2.175.397-.5559.1284-1.1884.257-1.4055.2858-.5519.073-3.1248.7276-4.1243 1.0494-.8127.2616-2.0144.6226-3.2109.9647-.327.0935-1.1298.2792-1.7838.4128-.6541.1335-1.43.295-1.7244.3587-.2943.0637-.883.1729-1.3081.2426-.4252.0697-1.0941.18-1.4866.2452-.3924.065-1.0346.1663-1.427.2248-1.3222.1972-2.8502.4863-3.4488.6525-.327.0908-1.0864.2486-1.6876.3507-3.154.5357-4.686.467-6.8494-.3072-.7334-.2624-1.5199-.5319-1.7477-.5988-.4083-.1199-1.7952-.7219-2.1426-.93-.0981-.0588-.4727-.255-.8325-.4358-.3597-.181-.8949-.5772-1.1892-.8806s-.707-.6394-.917-.7468c-.21-.1074-.6676-.4759-1.017-.8189-.944-.927-1.4548-2.467-.8182-2.467.1075 0 .3633-.2.5686-.4445l.3733-.4446.432.206c.2375.1132.7385.2376 1.1132.2762.3747.0387 1.1897.1782 1.811.31 1.2068.2562 3.6553.3662 4.7003.2113.3255-.0483 1.0467-.151 1.6027-.2284s1.1713-.19 1.3676-.2503c.385-.1182 2.983-.3834 3.5676-.3641.1962.0065.5173-.04.7136-.1034.1962-.0633.8919-.1951 1.546-.293.654-.0978 1.43-.235 1.7243-.3048.2943-.0698.7492-.1241 1.0108-.1206.4908.0066 1.243-.171 4.7538-1.1223.3907-.1058.8456-.2145 1.0109-.2413.3988-.065 2.2068-.4859 3.3923-.7899.5233-.1342 1.1978-.2878 1.4989-.3413.301-.0536.8897-.1786 1.3081-.2778.7958-.1887 1.4693-.3133 1.7715-.3275.0982-.0046.446-.081.773-.1696.327-.0887.8622-.1903 1.1893-.2258.327-.0356.9424-.1118 1.3676-.1694.7837-.1062 4.552-.6192 6.1839-.8418.4906-.067 1.0525-.1502 1.2487-.1849.5414-.0958 2.4986-.2988 3.5676-.37.5233-.035 2.0485-.1688 3.3893-.2975 1.3409-.1287 2.8125-.2596 3.2704-.2909.4578-.0312 1.2003-.1112 1.65-.1777.4495-.0665 1.1185-.1471 1.4864-.1791.368-.032.8192-.1185 1.0027-.1922.3335-.1339.3335-.134.2678-1.0384-.1608-2.2121-.2852-3.6508-.366-4.2343-.0273-.1963-.0766-.6326-.1097-.9698-.033-.337-.1156-.8603-.1833-1.1626-.0722-.3222-.1434-3.0505-.172-6.5898-.0271-3.3575-.1092-6.591-.1849-7.2807-.21-1.9154-.4787-3.3403-.665-3.5266-.0931-.093-.1692-.299-.1692-.458 0-.1588-.0499-.2887-.111-.2887-.104 0-.2306-.2678-.2528-.5352-.005-.0654-.08-.1992-.1655-.2973-.3083-.3536-.5172-.9024-.5172-1.359 0-.4127.183-.7816.3879-.7816.0396 0 .2467-.1748.4603-.3884.385-.385.3992-.3886 1.648-.4158.9287-.0203 1.349.019 1.5997.1498.187.0975.5992.1776.9161.178.531.0007 1.267.2868 1.267.4925 0 .128 1.1672.4873 1.3055.4018.067-.0413.1216-.0316.1216.0217 0 .1061 1.0807.6307 1.2993.6307.124 0 .6858.2813 1.6143.8083.4354.2471 1.0109.8447 1.0109 1.0497 0 .0826.1072.2253.2383.3171.3773.2643.6968 1.4385.6379 2.344-.0663 1.0176-.0952 1.168-.326 1.6929-.1074.2443-.223.6724-.2568.9513-.0339.279-.1116.6677-.1729.864-.0909.291-.2863 8.8135-.2431 10.6042.007.2728-.046.8347-.1167 1.2487-.0708.414-.173 1.2035-.2272 1.7544-.071.7213-.155 1.0429-.3001 1.149-.1796.1313-.1925.3202-.1183 1.7336.0458.8724.1358 1.6873.1999 1.8109.1058.2042.221.2186 1.2629.1579 1.3102-.0763 2.6874-.4561 2.8663-.7905.0651-.1216.275-.2758.4665-.3425.1914-.0667.3834-.2329.4267-.3693.0531-.1673.1824-.2501.3977-.2547.625-.0134 1.3939-.1145 1.6867-.2217.7103-.2602 1.1616-.3252 2.6162-.3766.869-.0307 1.9028.097 1.9028.235 0 .05.1614.0674.3587.0384.1973-.029.6655.0552 1.0406.187.375.1318.7889.2433.9197.2478.4965.017 1.9139.3223 2.1703.4674.1472.0832.2676.2105.2676.2827 0 .1795.37.4465.625.4511.424.0077 1.0103.9682 1.0308 1.6886.005.1744.0651.3358.1336.3586.1068.0356.2577.8391.2639 1.4054.003.2824-.3046 1.3507-.442 1.5345-.0686.0918-.1075.269-.0863.394.0369.2178-.6998 1.0445-.9309 1.0445-.0563 0-.134.0937-.1724.2081-.1006.299-1.2482.9584-1.8297 1.0513-.2721.0435-.4948.1258-.4948.1829 0 .057-.1597.1037-.355.1037-.3503 0-1.1465.1573-1.8477.365-.588.1742-1.837.1898-1.9394.0243-.0573-.0926-.3926-.146-.9174-.1461-.455-.0002-1.0412-.0599-1.3028-.1328-.8738-.2435-1.2065-.2525-2.3908-.0647-.6473.1026-1.3.1541-1.4503.1145-.2434-.0642-.8556.1222-1.49.4534-.1472.077-.273.0675-.3894-.0291-.1907-.1583-.246-.1343-.2971.129-.0554.285.1338 1.296.2567 1.3719.0616.038.112.1885.112.3344 0 .1458.1026.466.2278.7117.1252.2456.3738.8472.5524 1.337.1786.4896.3705.9186.4264.9531.0559.0346.1016.187.1016.3386s.08.342.1776.423c.0977.081.236.3649.3077.6308.0716.2658.2526.6476.4022.8483.1497.2007.3625.579.473.8406.1106.2616.2746.6095.3645.773.3954.7186 1.0102 1.997 1.0102 2.1003 0 .0621.1338.2944.2974.516.1635.2216.2973.4895.2973.5953 0 .1058.1128.3134.2508.4615.2734.2935.8195 1.302 1.1727 2.1657.123.3007.3881.8062.5892 1.1233.2012.3171.3657.6648.3657.7727 0 .1079.104.2902.231.4053.1272.115.268.377.3131.5821.0451.2051.1984.534.3408.731.1424.1968.385.6128.539.9244.154.3116.3516.6259.439.6984.0873.0725.1588.1942.1588.2704 0 .0762.1583.3239.3519.5503.1936.2265.3541.4574.3568.5132.006.1333.901 1.3867 1.4403 2.0178.2335.2734.5511.711.7058.9727.1546.2616.406.6362.5587.8325.3555.4569.7745.9826.9288 1.1653.0663.0785.3049.3836.53.678.522.6821 2.7393 3.092 2.8451 3.092.044 0 .5063.4049 1.0273.8998.7335.6967 1.0087.8882 1.2188.8482.3006-.0572.7395.3884.7395.7508 0 .114.082.2752.182.3583.2406.1997.4443-.071.7182-.9544.2408-.7768.362-.9514.6603-.9514.1228 0 .2233-.0535.2233-.119a.1193.1193 0 00-.119-.1188c-.1365 0-.1591-.8278-.0278-1.0195.048-.0702.1823-.1627.2984-.2055.157-.058.1918-.1546.1357-.3779-.0562-.224-.0286-.2999.109-.2999.1013 0 .223-.0626.2703-.1391.0578-.0936.0212-.1143-.112-.0632-.1088.0418-.1978.0273-.1978-.0322 0-.1943.2119-.2451.5251-.126.2858.1086.3073.0931.3073-.221 0-.1858.1204-.4909.2676-.678.1472-.187.2408-.3682.2081-.4025-.0327-.0343.0526-.0783.1895-.098.3927-.056.7835-.8575.6933-1.4217-.0653-.4083-.0337-.4987.2648-.7568.5058-.4374.7153-.909.7927-1.7847.0516-.5834.0259-.846-.099-1.0109-.1612-.2132-.1606-.334.007-1.412.1422-.9124.5135-.2137.4595.8645-.0206.41-.0661.792-.1011.8487-.0351.0567.0172.1702.116.2523.1565.1299.1579.1825.0106.4073-.1639.2501-.183 1.3039-.0266 1.4603.0393.0393.0714.1651.0714.2796 0 .1144.0669.2306.1486.2581.1167.0393.1144.0917-.0107.2432-.1257.1523-.1309.2794-.0245.602.0742.2248.0998.5487.057.7196-.0447.1775-.0189.3822.06.4771.0947.1143.0987.1904.0128.2436-.3056.1889.1016 2.5601.4396 2.5601.0932 0 .145.067.115.1487-.03.0817-.1147.1352-.1883.1189-.0736-.0164-.1338.073-.1338.1987 0 .1553.1103.2526.3447.304.2109.0464.376.177.4256.3365.0734.2364.092.2232.1981-.1419.0801-.2754.0771-.4426-.009-.5292-.0696-.0695-.1265-.2808-.1265-.4694 0-.4357.282-.3746.335.0726.0292.2472.102.3179.327.3179.2585 0 .2894.0509.2894.4778 0 .3907.0767.5522.4207.8864.2315.2248.4872.3832.5683.352.1141-.0437.129.1791.0658.9867-.045.5737-.0598 1.0654-.0331 1.0927.0267.0272.0485-.0397.0485-.1487 0-.3457.2246-.2147.4757.2775.1335.2616.3182.4757.4106.4757.268 0 .3289.4212.1298.8977-.2311.5532-.2365 1.1111-.0115 1.1975.2776.1065.8248 1.9114.807 2.6617a166.528 166.528 0 00-.0278 1.6054c-.0163 1.2752-.53 2.438-1.0768 2.438-.2022 0-.287.2405-.5298 1.5046-.0518.2697-.1717.4163-.427.522-.1953.0809-.519.3001-.7193.4873-.2003.187-.4356.3402-.523.3402-.0872 0-.1918.0535-.2322.1189-.0404.0654-.2069.119-.3699.119-.2251 0-.3373.098-.4668.408-.0938.2245-.2249.4417-.2913.4827-.0664.041-.1207.1723-.1207.2916 0 .3807-.716.4706-1.1892.1492zm3.6116-17.059c.0395-.1472.0724-.3109.0733-.3638.001-.053.048-.0676.1046-.0326.1362.0842.022.664-.1307.664-.0654 0-.0866-.1205-.0472-.2676zm-2.1662-1.582c.0226-.1165.1131-.2359.2011-.2652.1024-.034.1452.0231.119.1587-.0227.1166-.1131.236-.2012.2652-.1023.0341-.1452-.023-.1189-.1586zm-.075-.9507c.0154-.2533.088-.4805.1613-.505.187-.0623.1666.4789-.028.745-.145.1982-.1585.174-.1333-.24zm-3.9186-.8059c-.1894-.1385-.1957-.1903-.0525-.4317.1279-.2156.131-.286.0141-.3283-.186-.0673-.1968-.3907-.013-.3907.0744 0 .2073-.0937.2951-.2082.1404-.1829.1515-.1577.0921.2082-.037.2289-.1116.5575-.1655.7302-.0621.1989-.0496.3623.034.446.1814.1813.0575.166-.2043-.0255zm1.1426-1.1712c.056-.3807.3353-.4215.3353-.0489 0 .1998-.0652.3072-.1866.3072-.124 0-.174-.0867-.1487-.2582zm.2164-.8574c0-.1635.0535-.3304.119-.3708.0671-.0415.1189.0559.1189.2238 0 .1635-.0535.3304-.119.3708-.0672.0415-.1189-.0559-.1189-.2238zm-.327-1.448c-.1752-.1902-.1898-.2904-.0425-.2904.1014 0 .2914.3578.2236.4212-.0179.0168-.0994-.0421-.1812-.1309zm-.1487-1.004c0-.0654.0535-.1189.119-.1189.0653 0 .1189.0535.1189.119a.1193.1193 0 01-.119.1189.1193.1193 0 01-.1189-.119zm1.32-1.6281c.007-.1183.0547-.349.107-.5125.0856-.267.0965-.2526.1072.1417.007.2414-.0417.472-.1071.5124-.0654.0404-.1136-.0233-.107-.1416zM102.888 47.6205c0-.2724.4198-.3523.5059-.0964.0383.1139.0995.1078.2615-.026.191-.1576.2071-.1519.167.0595-.0331.1745-.1578.2435-.4894.271-.382.0317-.445.0022-.445-.2081zM65.5465 34.8358c-.1635-.09-.61-.3135-.9922-.4967-.3822-.1831-.789-.4526-.9039-.5987-.2226-.283-.7928-.573-1.3686-.696-.1931-.0414-.5142-.2657-.7135-.4987a40.3052 40.3052 0 00-.6895-.7823c-.1799-.1973-.327-.4303-.327-.5178 0-.147-.2968-.3817-1.269-1.0039-.8418-.5386-1.8832-2.409-1.48-2.6582.0578-.0358.2179-.305.3557-.5983.3402-.7236.7013-.9457 1.3738-.8448.2899.0434.6679.1898.84.3252.229.1801.419.229.7078.1821.2171-.0352.5216.0017.6765.082.3016.1564 1.1843.2479 2.2439.2326 1.2364-.0179 3.2059-.1666 3.7729-.285.3123-.0652.9156-.1685 1.3407-.2297.4252-.0611 1.2012-.1907 1.7244-.288.5233-.0971 1.2725-.2103 1.665-.2514.3924-.041 1.2754-.157 1.9621-.2576.6868-.1007 1.3638-.1986 1.5045-.2176.1406-.019.3625-.0685.493-.1099.1305-.0414.39-.098.5767-.1257.1867-.0277.607-.103.934-.1672.327-.0643 1.0065-.1954 1.5098-.2913.5033-.096.9717-.2094 1.0409-.2521.0691-.0428.3798-.1238.6903-.1801.3105-.0564 1.1264-.2175 1.8132-.358.6868-.1406 1.9444-.3563 2.7947-.4794 1.6177-.2341 1.9897-.2998 2.6757-.4726 1.276-.3213 1.5052-.4057 1.6973-.625.2477-.2828.9603-.6834 1.2155-.6834.0982 0 .3848-.1863.6369-.414.252-.2278.4931-.3794.5356-.3369.0426.0426.2103.0062.3729-.0808.2567-.1374.462-.1168 1.5648.1572.8734.217 1.3143.278 1.4137.1954.0999-.0828.3174-.0457.7044.1202.308.132.6862.24.8404.24s.3116.0504.3497.112c.038.0617.3088.148.6016.192.316.0473.5324.1425.5324.234 0 .2156.9885.6712 1.6076.741.4014.0452.7087.2109 1.3865.7473 1.473 1.166 1.7361 1.4171 2.173 2.0753.4697.7076.5275 1.1571.2558 1.989-.0915.2802-.2015.7771-.2443 1.1042-.1449 1.1076-.2755 1.3659-.6985 1.3817-.2076.0077-.4129.0093-.4563.0034-.0435-.006-.3378.066-.6541.1598s-.9515.2497-1.4117.3464c-.46.0967-1.2464.3677-1.7473.6023-.8539.3998-2.1135.6326-2.1135.3905 0-.0492-.1624-.0895-.361-.0895-.1985 0-.4924-.0861-.6531-.1914-.1822-.1194-.4046-.1634-.5905-.1167-.1694.0425-.2981.0235-.2981-.044 0-.0655-.1338-.1526-.2973-.1936-.1636-.041-.2973-.1116-.2973-.1568 0-.0452-.1897-.06-.4216-.033-.2637.0308-.4974-.0166-.6243-.1267-.1631-.1415-.5403-.1694-1.9272-.1426-2.3767.046-2.7057.101-7.73 1.2928-2.2681.538-3.8614.8533-5.173 1.0235-.5887.0764-1.5252.2625-2.0812.4135-.556.151-1.2516.3124-1.546.3587-.2943.0463-1.1505.2348-1.9027.419-.7522.184-1.9028.3934-2.5568.4652-.6541.0717-1.5371.186-1.9622.2541-1.3277.2124-2.7598.2379-3.092.055zm68.425-3.9192c-.6008-.6819-1.234-1.573-1.234-1.7364 0-.071-.1395-.274-.3099-.451s-.4152-.5359-.544-.7975c-.3285-.6667-.467-.8942-.8408-1.3807-.1799-.234-.327-.464-.327-.5111 0-.0862-.2869-.4191-1.0905-1.2658-.24-.2529-.4736-.5824-.519-.7322-.0456-.1499-.2423-.4213-.4372-.6031-.2091-.1951-.3268-.4028-.287-.5065.0387-.101-.0324-.2382-.167-.3223-.129-.0806-.2385-.2272-.2433-.326-.005-.0987-.111-.34-.2362-.5362-.2168-.34-.7492-1.3951-.9601-1.9028-.3152-.7586-.4191-1.8983-.2142-2.3482.1574-.3454.985-.7185 1.4045-.6332.1716.035.5796.0707.9067.0795 1.0476.0283 2.241.26 2.9135.5656.3598.1635.6999.2859.7558.272.056-.0138.1734.0343.2609.107.0875.0726.4164.2059.7307.2961 1.2472.3581 1.5201.4977 2.28 1.1658.434.3816.8318.7696.884.8622.0524.0926.1996.1684.3271.1684.1276 0 .232.0668.2322.1486.0001.0818.2359.2976.524.4796.6302.398 1.4698 1.3728 1.815 2.107.1384.2943.4277.9036.643 1.354.5299 1.109.5942 2.0852.1905 2.893-.1565.313-.3219.7238-.3674.9126-.0455.1888-.2117.5123-.3693.7188-.2785.3652-1.738 1.6136-1.8864 1.6136-.0407 0-.1872.1133-.3256.2517-.2098.2098-.3333.2378-.7433.1683a258.5937 258.5937 0 00-.8484-.1422c-.276-.0457-.422.0105-.645.2479-.4178.4447-.7377.3902-1.2723-.2165zM109.3693 9.3204c-.0405-.0654.01-.119.1118-.119.102 0 .1855.0536.1855.119 0 .0654-.0504.119-.112.119-.0614 0-.145-.0536-.1853-.119z" id="path3385" fill="#000" stroke-width=".1189"/>
    <path d="M28.1882 280.059c-.5617-.0693-2.069-.3676-2.9739-.5887-1.2925-.316-3.195-1.8712-3.7407-3.0582-.1557-.3387-.4233-.8198-.5945-1.0689-.1712-.2492-.7018-1.2155-1.1792-2.1478l-.8679-1.695.0207-1.9826c.0114-1.0905.0598-2.1685.1077-2.3957.3096-1.4668 1.2511-3.4934 2.0646-4.4437.5926-.6923 2.7519-2.22 3.1378-2.22.124 0 .2255-.0994.2255-.2204 0-.121.1397-.2202.3103-.2202.1705 0 .4122-.1236.537-.2746.5451-.6604 1.474-.872 3.7912-.8637 2.167.0103 2.2504.0207 3.6225.6016.7724.3268 1.4415.6416 1.487.7002.0454.0584.5154.4307 1.0444.8265.8845.662 1.9295 1.901 1.9295 2.2877 0 .1975.8144 1.8324 1.0834 2.1746.3413.4338.7076 3.8.4136 3.8-.0964 0-.1753.0719-.1753.1598 0 .0879.1115.1173.2479.065.2983-.1142.305.0818.0778 2.2534-.204 1.9485-.3643 2.4426-1.232 3.7964-.38.5926-.6846 1.1273-.677 1.1881.0243.197-.7806.9633-1.0121.9633-.1236 0-.7984.3242-1.4995.7204-1.442.8149-1.8896.9751-3.753 1.3434-1.6973.3356-1.898.3604-2.3956.2994zm.6609-1.126c0-.1376-.0716-.379-.1592-.537-.0875-.1577-.3074-.6103-.4886-1.0056l-.3295-.7187.5196-.438c1.3144-1.1074 1.206-1.0737 1.6713-.5207.6006.7139.9342.655.9342-.165 0-.4772.0689-.6608.2479-.6608.1363 0 .2478.0765.2478.1706 0 .363.7184.4452 1.2338.1412.7417-.4375 1.6316-1.4081 1.4945-1.63-.0862-.1396-.1903-.1287-.3903.0414-.4261.36-1.508.948-1.7435.948-.117 0-.337-.1371-.4888-.3052-.259-.286-.2533-.3345.0926-.7847.2027-.2637.4294-.523.5038-.5757.1518-.1075-.0108-.6477-.1953-.6477-.0653 0-.2933.1857-.5068.4132-.4841.5156-.6206.5171-.8517.0103-.151-.3315-.121-.5093.1688-1.0007.3963-.6717.4394-.909.1652-.909-.2609 0-.932.8122-1.1224 1.3582-.119.3413-.099.514.08.6928.2925.2927.316 1.0901.032 1.0826-.3208-.0103-.8732-.5327-1.1314-1.0736-.161-.3377-.3753-.5068-.6872-.5428-.2492-.031-.4531-.0207-.4531.0207s.3346.5707.7435 1.1804c.4089.6098.7435 1.1684.7435 1.2414 0 .073-.2789.3418-.6196.598-.3408.2559-.6684.5365-.728.6238-.0596.0874-.3325-.2803-.6062-.8174-.739-1.4489-.907-1.6419-1.162-1.3347-.1698.2048-.12.422.2775 1.2127.2663.53.6544 1.3723.8623 1.8721.3814.9167 1.2924 2.2985 1.5216 2.308.0682.003.124-.1076.124-.2451zm4.9149-2.6158c.706-.4468 2.0243-1.7204 2.0243-1.956 0-.0863.1765-.3934.3922-.6826.6849-.9183 1.0029-2.179 1.0077-3.9956.0041-1.5419-.2932-3.2217-.5703-3.2217-.0652 0-.2316-.2875-.3695-.6388l-.251-.6387-.8265.0796c-.9063.0874-1.1624-.089-.8519-.5864.2577-.4126.07-1.364-.3825-1.9392-.5432-.6905-2.664-2.0017-3.5527-2.1963-1.4386-.3149-2.0034-.3707-2.1047-.2068-.1277.2068.322.4473 1.1118.5957.7807.1463.8997.3392.4891.793-.8961.9898-1.87 3.0856-1.4338 3.0856.1277 0 .5466-.4525 1.1832-1.2785l.4125-.535.4403.4524c.669.6872 1.4857 1.3612 1.6496 1.3612.0805 0 .2381.1107.3503.2456.1655.1996.122.4023-.2312 1.0777-.383.7324-.403.8444-.167.935.1474.0564.3274.005.4-.1107.0725-.1174.2486-.1686.3912-.1138.1718.0657.351-.0558.5307-.3599.2554-.4323.3259-.455 1.203-.3883 1.0877.0833 1.3769.3454 1.7573 1.5938.6541 2.1473-.0445 5.1168-1.6462 6.9961-.6204.728-1.8465 1.6087-3.2718 2.3501-.7124.3708-1.1117.6797-1.1119.8606-.0001.2307.256.1484 1.4038-.452.7722-.4038 1.683-.9108 2.0239-1.1265zm-1.2801-12.018a91.9185 91.9185 0 01-.9913-.8176c-.318-.2663-.7198-.5857-.8927-.7099-.3022-.2166-.294-.2472.207-.7714.4903-.513.5397-.5294.8232-.273.1659.1499.383.273.4824.273.3388 0 1.209.864 1.4492 1.439.4343 1.0395-.2145 1.5571-1.0778.8599zm-6.6998 13.5757c.0517-.0832-.4847-.7339-1.1917-1.4456s-1.4885-1.5417-1.7367-1.8443l-.4512-.5503.7514-.9563c.4132-.526.8252-1.2241.9156-1.5514.1544-.5591.2144-.6018.9918-.705.6399-.0848.8156-.17.7752-.3764-.0596-.304-.901-.331-3.2264-.1034-1.17.1148-1.363.0977-1.363-.1184 0-.3418.3035-.5615.974-.705.3457-.074.837-.4038 1.2802-.8601l.7193-.74 1.1722.1975c1.2156.2048 1.6096.0998 1.4251-.3811-.0792-.2063-1.6674-.4902-4.8274-.862-.1817-.0208-.3454-.0466-.3638-.06-.018-.0104.0679-.2617.1915-.5558l.2248-.5347 1.4607-.002c1.343-.002 1.4735-.031 1.6194-.364.0873-.1991.3066-.4002.4873-.4473.3407-.0889 1.4192.4731 1.4192.74 0 .0833.1859.1515.4131.1515.7296 0 .4534-.4437-.7848-1.2609-.6588-.4348-1.2958-.925-1.4156-1.0893-.1199-.1645-.272-.2653-.3384-.2244-.0663.0414-.2274.0103-.3582-.0724-.1988-.1231-.1825-.1986.0998-.4613.1856-.1732.6198-.4075.9648-.5215.7087-.2337 1.0345-.0553 1.1686.6407.1433.7444.3785.8523 1.0253.4706.4718-.2788.5433-.3827.361-.5253-.1251-.0977-.376-.4643-.5576-.8147-.3972-.7662-.8813-.9838-1.9906-.8952-.6364.0517-1.0563.2208-1.7698.7167-.5145.3573-.9383.711-.9418.7856-.0034.0745-.3036.4881-.6671.9193-.3635.4312-.6609.8362-.6609.9003 0 .064-.1858.411-.413.7709-.2272.3599-.4131.8268-.4131 1.0375 0 .211-.0768.4603-.1707.554-.0939.0942-.1777.5192-.1862.945-.0088.4261-.0884.8193-.1774.8743-.0964.0595-.0712.1588.0623.2446.1858.12.1818.1722-.0238.3072-.1657.1085-.1794.1634-.0414.165.2474.003.2749.5289.0399.7638-.2092.209.3882 2.6447.7455 3.0394.1359.1505.2471.3454.2471.4339 0 .2487 1.3846 2.092 1.9779 2.6334.292.2663.752.6882 1.0225.9372.9553.88 1.3561 1.089 1.5347.8zm-4.0862-5.3419c-.5294-1.4473-.5329-1.4186.1648-1.3828.8545.0414 1.025.1852.9488.7865-.069.5457-.4851 1.2985-.7177 1.2985-.0764 0-.2546-.316-.3958-.7022zm-.4075-4.2167c.0445-.592.0721-.6176.7047-.659.3621-.026.7698.031.9062.1189.2108.1375.1862.2213-.1653.5598-.2271.2187-.6558.4426-.9525.4969-.5363.0988-.5392.0957-.493-.5166zm1.9-3.2952c-.5858-.0889-.5726-.2078.1078-.9726l.5623-.6318.5114.5.5115.5-.3366.3615c-.332.3563-.4588.379-1.3564.243zm14.3327 7.8837c.0561-.091.0279-.165-.0631-.165-.0909 0-.2112.0745-.2674.165-.0561.091-.0279.165.0631.165.0909 0 .2112-.0746.2674-.165zm-3.2218-1.083c0-.5532.0254-.575.9913-.8434 1.2159-.3382 1.3412-.7171.237-.7171-1.0169 0-1.3935-.225-1.3935-.832 0-.501.0037-.5031 1.0413-.5637.269-.0155.6019-.347.6084-.6055.0046-.1866-2.3829-.3076-3.3526-.17-.9435.1338-.9634.1282-1.202-.3331-.2691-.5204-.434-.578-.7084-.2472-.2661.3206.2551 1.7497.9723 2.6653.4232.5404.729.7621 1.154.8369.9071.1598.9914.2084.9914.5773 0 .4664.3094 1.018.504.8978.0862-.0533.1569-.3526.1569-.6647zm-1.763-1.8662c-.3006-.09-1.1819-.9842-1.0164-1.0312.7788-.2213 1.1732-.136 1.6293.3527.674.7214.4303.9913-.613.6788z" id="path75-3" fill="#fe0000" fill-opacity="1" stroke-width=".1652"/>
  </g>
</svg>
